{
  "version": "0.6.2b",
  "modules": [
    {
      "plugin": "Core",
      "version": "0.6.2b",
      "model": "AudioInterface",
      "params": [],
      "data": {
        "audio": {
          "driver": 8,
          "deviceName": "Default Device",
          "offset": 0,
          "maxChannels": 8,
          "sampleRate": 44100,
          "blockSize": 512
        }
      },
      "pos": [
        115,
        0
      ]
    },
    {
      "plugin": "Fundamental",
      "version": "0.6.2",
      "model": "VCMixer",
      "params": [
        {
          "paramId": 0,
          "value": 2.0
        },
        {
          "paramId": 1,
          "value": 0.173999965
        },
        {
          "paramId": 2,
          "value": 0.0
        },
        {
          "paramId": 3,
          "value": 0.360000044
        },
        {
          "paramId": 4,
          "value": 0.757000029
        }
      ],
      "pos": [
        97,
        1
      ]
    },
    {
      "plugin": "Fundamental",
      "version": "0.6.2",
      "model": "VCMixer",
      "params": [
        {
          "paramId": 0,
          "value": 0.0
        },
        {
          "paramId": 1,
          "value": 0.471000105
        },
        {
          "paramId": 2,
          "value": 0.0
        },
        {
          "paramId": 3,
          "value": 0.0
        },
        {
          "paramId": 4,
          "value": 1.0
        }
      ],
      "pos": [
        107,
        1
      ]
    },
    {
      "plugin": "Fundamental",
      "version": "0.6.2",
      "model": "Delay",
      "params": [
        {
          "paramId": 0,
          "value": 0.0569999926
        },
        {
          "paramId": 1,
          "value": 0.5
        },
        {
          "paramId": 2,
          "value": 0.222499996
        },
        {
          "paramId": 3,
          "value": 0.5
        }
      ],
      "pos": [
        107,
        0
      ]
    },
    {
      "plugin": "Fundamental",
      "version": "0.6.2",
      "model": "Delay",
      "params": [
        {
          "paramId": 0,
          "value": 0.0135000013
        },
        {
          "paramId": 1,
          "value": 0.5
        },
        {
          "paramId": 2,
          "value": 0.168500066
        },
        {
          "paramId": 3,
          "value": 0.975499928
        }
      ],
      "pos": [
        99,
        0
      ]
    },
    {
      "plugin": "Befaco",
      "version": "0.6.0",
      "model": "DualAtenuverter",
      "params": [
        {
          "paramId": 0,
          "value": 0.345000774
        },
        {
          "paramId": 1,
          "value": 2.88998055
        },
        {
          "paramId": 2,
          "value": -0.154999956
        },
        {
          "paramId": 3,
          "value": 4.95000029
        }
      ],
      "pos": [
        94,
        0
      ]
    },
    {
      "plugin": "Bogaudio",
      "version": "0.6.12",
      "model": "Bogaudio-Analyzer",
      "params": [
        {
          "paramId": 5,
          "value": 0.0
        },
        {
          "paramId": 1,
          "value": 0.414500117
        },
        {
          "paramId": 2,
          "value": 3.0
        },
        {
          "paramId": 4,
          "value": 1.0
        }
      ],
      "pos": [
        117,
        1
      ]
    },
    {
      "plugin": "NYSTHI",
      "version": "0.6.14",
      "model": "MasterRecorder2",
      "params": [
        {
          "paramId": 0,
          "value": 0.0
        },
        {
          "paramId": 1,
          "value": 0.0
        },
        {
          "paramId": 2,
          "value": 0.0
        },
        {
          "paramId": 8,
          "value": 0.0
        },
        {
          "paramId": 9,
          "value": 0.00499999989
        },
        {
          "paramId": 10,
          "value": 0.00999999978
        },
        {
          "paramId": 11,
          "value": 2.0
        },
        {
          "paramId": 12,
          "value": 0.5
        },
        {
          "paramId": 3,
          "value": 1.0
        },
        {
          "paramId": 4,
          "value": 1.0
        },
        {
          "paramId": 13,
          "value": 0.0
        },
        {
          "paramId": 14,
          "value": 0.100000001
        },
        {
          "paramId": 5,
          "value": 0.0
        },
        {
          "paramId": 6,
          "value": 0.0
        },
        {
          "paramId": 7,
          "value": 0.0
        }
      ],
      "data": {
        "nysthi_id": "MR2_8E2Px6I2",
        "wavebits": 9,
        "rms_time": 0.00100000005,
        "peak_time": 0.5,
        "m_invertphaseleft": false,
        "m_invertphaseright": false,
        "m_locklevelleftright": false,
        "m_kompressor_active": false,
        "m_autosave": true,
        "m_distort": false
      },
      "pos": [
        125,
        0
      ]
    },
    {
      "plugin": "Fundamental",
      "version": "0.6.2",
      "model": "Scope",
      "params": [
        {
          "paramId": 0,
          "value": 0.0
        },
        {
          "paramId": 1,
          "value": 0.0
        },
        {
          "paramId": 2,
          "value": 0.0
        },
        {
          "paramId": 3,
          "value": 0.0
        },
        {
          "paramId": 4,
          "value": -12.8349972
        },
        {
          "paramId": 5,
          "value": 0.0
        },
        {
          "paramId": 6,
          "value": 2.45999885
        },
        {
          "paramId": 7,
          "value": 0.0
        }
      ],
      "data": {
        "lissajous": 1,
        "external": 0
      },
      "pos": [
        100,
        2
      ]
    },
    {
      "plugin": "Befaco",
      "version": "0.6.0",
      "model": "DualAtenuverter",
      "params": [
        {
          "paramId": 0,
          "value": -1.0
        },
        {
          "paramId": 1,
          "value": 9.51000118
        },
        {
          "paramId": 2,
          "value": 0.0
        },
        {
          "paramId": 3,
          "value": 0.0
        }
      ],
      "pos": [
        92,
        1
      ]
    },
    {
      "plugin": "TechTechTechnologies",
      "version": "0.6.1",
      "model": "Achilles",
      "params": [
        {
          "paramId": 7,
          "value": 0.0
        },
        {
          "paramId": 11,
          "value": 0.0
        },
        {
          "paramId": 12,
          "value": 0.0
        },
        {
          "paramId": 8,
          "value": 0.0
        },
        {
          "paramId": 9,
          "value": 0.0
        },
        {
          "paramId": 13,
          "value": 0.0
        },
        {
          "paramId": 14,
          "value": 0.0
        },
        {
          "paramId": 10,
          "value": 0.0
        },
        {
          "paramId": 15,
          "value": 0.97262454
        },
        {
          "paramId": 40,
          "value": 1.0
        },
        {
          "paramId": 41,
          "value": 0.45999977
        },
        {
          "paramId": 16,
          "value": 0.0
        },
        {
          "paramId": 33,
          "value": 1.0
        },
        {
          "paramId": 27,
          "value": 0.0
        },
        {
          "paramId": 34,
          "value": 0.0
        },
        {
          "paramId": 35,
          "value": 0.5
        },
        {
          "paramId": 32,
          "value": 1.0
        },
        {
          "paramId": 24,
          "value": 1.0
        },
        {
          "paramId": 4,
          "value": 1.0
        },
        {
          "paramId": 19,
          "value": 1.0
        },
        {
          "paramId": 25,
          "value": 0.0
        },
        {
          "paramId": 22,
          "value": 0.0
        },
        {
          "paramId": 26,
          "value": 0.0
        },
        {
          "paramId": 23,
          "value": 0.5
        },
        {
          "paramId": 5,
          "value": 0.0
        },
        {
          "paramId": 2,
          "value": 1.0
        },
        {
          "paramId": 6,
          "value": 0.0
        },
        {
          "paramId": 3,
          "value": 0.5
        },
        {
          "paramId": 20,
          "value": 0.0
        },
        {
          "paramId": 17,
          "value": 0.0
        },
        {
          "paramId": 21,
          "value": 0.0
        },
        {
          "paramId": 18,
          "value": 0.5
        },
        {
          "paramId": 36,
          "value": 0.917000473
        },
        {
          "paramId": 29,
          "value": 1.0
        },
        {
          "paramId": 28,
          "value": 0.5
        },
        {
          "paramId": 37,
          "value": 0.916000009
        },
        {
          "paramId": 31,
          "value": 0.951999843
        },
        {
          "paramId": 30,
          "value": 0.931000292
        },
        {
          "paramId": 38,
          "value": 1.0
        },
        {
          "paramId": 1,
          "value": -1.0
        },
        {
          "paramId": 0,
          "value": 0.00199995423
        },
        {
          "paramId": 39,
          "value": 0.936999679
        }
      ],
      "pos": [
        65,
        1
      ]
    },
    {
      "plugin": "Fundamental",
      "version": "0.6.2",
      "model": "SEQ3",
      "params": [
        {
          "paramId": 0,
          "value": 3.77600265
        },
        {
          "paramId": 1,
          "value": 0.0
        },
        {
          "paramId": 2,
          "value": 0.0
        },
        {
          "paramId": 3,
          "value": 8.0
        },
        {
          "paramId": 4,
          "value": 0.210000336
        },
        {
          "paramId": 12,
          "value": 0.0
        },
        {
          "paramId": 20,
          "value": 0.0
        },
        {
          "paramId": 28,
          "value": 0.0
        },
        {
          "paramId": 5,
          "value": 10.0
        },
        {
          "paramId": 13,
          "value": 0.899999976
        },
        {
          "paramId": 21,
          "value": 0.0
        },
        {
          "paramId": 29,
          "value": 0.0
        },
        {
          "paramId": 6,
          "value": 10.0
        },
        {
          "paramId": 14,
          "value": 1.61999941
        },
        {
          "paramId": 22,
          "value": 0.0
        },
        {
          "paramId": 30,
          "value": 0.0
        },
        {
          "paramId": 7,
          "value": 0.0
        },
        {
          "paramId": 15,
          "value": 0.0
        },
        {
          "paramId": 23,
          "value": 0.0
        },
        {
          "paramId": 31,
          "value": 0.0
        },
        {
          "paramId": 8,
          "value": 0.0
        },
        {
          "paramId": 16,
          "value": 0.899999738
        },
        {
          "paramId": 24,
          "value": 0.0
        },
        {
          "paramId": 32,
          "value": 0.0
        },
        {
          "paramId": 9,
          "value": 0.0
        },
        {
          "paramId": 17,
          "value": 1.09499979
        },
        {
          "paramId": 25,
          "value": 0.0
        },
        {
          "paramId": 33,
          "value": 0.0
        },
        {
          "paramId": 10,
          "value": 0.0
        },
        {
          "paramId": 18,
          "value": 0.554999948
        },
        {
          "paramId": 26,
          "value": 10.0
        },
        {
          "paramId": 34,
          "value": 0.0
        },
        {
          "paramId": 11,
          "value": 0.0
        },
        {
          "paramId": 19,
          "value": 0.0
        },
        {
          "paramId": 27,
          "value": 10.0
        },
        {
          "paramId": 35,
          "value": 0.0
        }
      ],
      "data": {
        "running": true,
        "gates": [
          1,
          1,
          1,
          1,
          1,
          1,
          1,
          1
        ]
      },
      "pos": [
        42,
        1
      ]
    },
    {
      "plugin": "Befaco",
      "version": "0.6.0",
      "model": "DualAtenuverter",
      "params": [
        {
          "paramId": 0,
          "value": 0.0
        },
        {
          "paramId": 1,
          "value": -10.0
        },
        {
          "paramId": 2,
          "value": 0.55599916
        },
        {
          "paramId": 3,
          "value": -1.31999648
        }
      ],
      "pos": [
        36,
        2
      ]
    },
    {
      "plugin": "Bogaudio",
      "version": "0.6.12",
      "model": "Bogaudio-Noise",
      "params": [],
      "pos": [
        6,
        1
      ]
    },
    {
      "plugin": "Bogaudio",
      "version": "0.6.12",
      "model": "Bogaudio-DGate",
      "params": [
        {
          "paramId": 0,
          "value": 0.0
        },
        {
          "paramId": 1,
          "value": 0.096000053
        },
        {
          "paramId": 2,
          "value": 1.0
        },
        {
          "paramId": 3,
          "value": 0.0
        }
      ],
      "data": {
        "triggerOnLoad": true,
        "shouldTriggerOnLoad": true
      },
      "pos": [
        113,
        2
      ]
    },
    {
      "plugin": "Fundamental",
      "version": "0.6.2",
      "model": "Scope",
      "params": [
        {
          "paramId": 0,
          "value": 0.0
        },
        {
          "paramId": 1,
          "value": 0.0
        },
        {
          "paramId": 2,
          "value": 0.0
        },
        {
          "paramId": 3,
          "value": 0.0
        },
        {
          "paramId": 4,
          "value": -9.40000153
        },
        {
          "paramId": 5,
          "value": 0.0
        },
        {
          "paramId": 6,
          "value": 0.0
        },
        {
          "paramId": 7,
          "value": 0.0
        }
      ],
      "data": {
        "lissajous": 0,
        "external": 1
      },
      "pos": [
        103,
        3
      ]
    },
    {
      "plugin": "Befaco",
      "version": "0.6.0",
      "model": "DualAtenuverter",
      "params": [
        {
          "paramId": 0,
          "value": 1.0
        },
        {
          "paramId": 1,
          "value": 0.0
        },
        {
          "paramId": 2,
          "value": 0.0779998899
        },
        {
          "paramId": 3,
          "value": 0.0
        }
      ],
      "pos": [
        31,
        2
      ]
    },
    {
      "plugin": "Fundamental",
      "version": "0.6.2",
      "model": "Unity",
      "params": [
        {
          "paramId": 0,
          "value": 0.0
        },
        {
          "paramId": 1,
          "value": 0.0
        }
      ],
      "data": {
        "merge": false
      },
      "pos": [
        30,
        0
      ]
    },
    {
      "plugin": "Fundamental",
      "version": "0.6.2",
      "model": "SequentialSwitch2",
      "params": [
        {
          "paramId": 0,
          "value": 2.0
        }
      ],
      "pos": [
        22,
        1
      ]
    },
    {
      "plugin": "Fundamental",
      "version": "0.6.2",
      "model": "SEQ3",
      "params": [
        {
          "paramId": 0,
          "value": 2.0
        },
        {
          "paramId": 1,
          "value": 0.0
        },
        {
          "paramId": 2,
          "value": 0.0
        },
        {
          "paramId": 3,
          "value": 4.0
        },
        {
          "paramId": 4,
          "value": 1.27499974
        },
        {
          "paramId": 12,
          "value": 0.0
        },
        {
          "paramId": 20,
          "value": 0.0
        },
        {
          "paramId": 28,
          "value": 0.0
        },
        {
          "paramId": 5,
          "value": 3.12000084
        },
        {
          "paramId": 13,
          "value": 10.0
        },
        {
          "paramId": 21,
          "value": 0.0
        },
        {
          "paramId": 29,
          "value": 0.0
        },
        {
          "paramId": 6,
          "value": 5.37000227
        },
        {
          "paramId": 14,
          "value": 10.0
        },
        {
          "paramId": 22,
          "value": 10.0
        },
        {
          "paramId": 30,
          "value": 0.0
        },
        {
          "paramId": 7,
          "value": 7.38000107
        },
        {
          "paramId": 15,
          "value": 0.0
        },
        {
          "paramId": 23,
          "value": 10.0
        },
        {
          "paramId": 31,
          "value": 0.0
        },
        {
          "paramId": 8,
          "value": 0.0
        },
        {
          "paramId": 16,
          "value": 0.0
        },
        {
          "paramId": 24,
          "value": 10.0
        },
        {
          "paramId": 32,
          "value": 0.0
        },
        {
          "paramId": 9,
          "value": 0.0
        },
        {
          "paramId": 17,
          "value": 0.0
        },
        {
          "paramId": 25,
          "value": 10.0
        },
        {
          "paramId": 33,
          "value": 0.0
        },
        {
          "paramId": 10,
          "value": 0.0
        },
        {
          "paramId": 18,
          "value": 0.0
        },
        {
          "paramId": 26,
          "value": 9.94500065
        },
        {
          "paramId": 34,
          "value": 0.0
        },
        {
          "paramId": 11,
          "value": 0.0
        },
        {
          "paramId": 19,
          "value": 0.0
        },
        {
          "paramId": 27,
          "value": 10.0
        },
        {
          "paramId": 35,
          "value": 0.0
        }
      ],
      "data": {
        "running": true,
        "gates": [
          1,
          1,
          1,
          1,
          1,
          1,
          1,
          1
        ]
      },
      "pos": [
        36,
        0
      ]
    },
    {
      "plugin": "Bogaudio",
      "version": "0.6.12",
      "model": "Bogaudio-SampleHold",
      "params": [
        {
          "paramId": 0,
          "value": 0.0
        },
        {
          "paramId": 1,
          "value": 0.0
        }
      ],
      "pos": [
        9,
        1
      ]
    },
    {
      "plugin": "Befaco",
      "version": "0.6.0",
      "model": "DualAtenuverter",
      "params": [
        {
          "paramId": 0,
          "value": 0.0
        },
        {
          "paramId": 1,
          "value": -0.84999764
        },
        {
          "paramId": 2,
          "value": 0.0
        },
        {
          "paramId": 3,
          "value": -1.72000289
        }
      ],
      "pos": [
        89,
        0
      ]
    },
    {
      "plugin": "Befaco",
      "version": "0.6.0",
      "model": "SlewLimiter",
      "params": [
        {
          "paramId": 0,
          "value": 0.0
        },
        {
          "paramId": 1,
          "value": 0.207000017
        },
        {
          "paramId": 2,
          "value": 0.210000023
        }
      ],
      "pos": [
        83,
        0
      ]
    },
    {
      "plugin": "Fundamental",
      "version": "0.6.2",
      "model": "VCMixer",
      "params": [
        {
          "paramId": 0,
          "value": 2.0
        },
        {
          "paramId": 1,
          "value": 1.0
        },
        {
          "paramId": 2,
          "value": 1.0
        },
        {
          "paramId": 3,
          "value": 1.0
        },
        {
          "paramId": 4,
          "value": 0.985000014
        }
      ],
      "pos": [
        32,
        1
      ]
    },
    {
      "plugin": "Fundamental",
      "version": "0.6.2",
      "model": "LFO",
      "params": [
        {
          "paramId": 0,
          "value": 1.0
        },
        {
          "paramId": 1,
          "value": 1.0
        },
        {
          "paramId": 2,
          "value": -3.31999779
        },
        {
          "paramId": 3,
          "value": 0.0
        },
        {
          "paramId": 5,
          "value": 0.5
        },
        {
          "paramId": 4,
          "value": 0.0
        },
        {
          "paramId": 6,
          "value": 0.0
        }
      ],
      "pos": [
        143,
        2
      ]
    },
    {
      "plugin": "Befaco",
      "version": "0.6.0",
      "model": "ABC",
      "params": [
        {
          "paramId": 0,
          "value": 0.620999873
        },
        {
          "paramId": 1,
          "value": 0.639999568
        },
        {
          "paramId": 2,
          "value": 0.0
        },
        {
          "paramId": 3,
          "value": 0.0
        }
      ],
      "pos": [
        137,
        2
      ]
    },
    {
      "plugin": "Befaco",
      "version": "0.6.0",
      "model": "ABC",
      "params": [
        {
          "paramId": 0,
          "value": 1.0
        },
        {
          "paramId": 1,
          "value": -1.0
        },
        {
          "paramId": 2,
          "value": 0.0
        },
        {
          "paramId": 3,
          "value": 0.0
        }
      ],
      "pos": [
        12,
        0
      ]
    },
    {
      "plugin": "Fundamental",
      "version": "0.6.2",
      "model": "LFO",
      "params": [
        {
          "paramId": 0,
          "value": 1.0
        },
        {
          "paramId": 1,
          "value": 1.0
        },
        {
          "paramId": 2,
          "value": -3.05000067
        },
        {
          "paramId": 3,
          "value": 0.0
        },
        {
          "paramId": 5,
          "value": 0.0274999831
        },
        {
          "paramId": 4,
          "value": 0.0
        },
        {
          "paramId": 6,
          "value": 0.0
        }
      ],
      "pos": [
        2,
        0
      ]
    },
    {
      "plugin": "Fundamental",
      "version": "0.6.2",
      "model": "VCA-1",
      "params": [
        {
          "paramId": 0,
          "value": 1.0
        },
        {
          "paramId": 1,
          "value": 1.0
        }
      ],
      "pos": [
        25,
        0
      ]
    },
    {
      "plugin": "Fundamental",
      "version": "0.6.2",
      "model": "VCA-1",
      "params": [
        {
          "paramId": 0,
          "value": 1.0
        },
        {
          "paramId": 1,
          "value": 1.0
        }
      ],
      "pos": [
        19,
        0
      ]
    },
    {
      "plugin": "Fundamental",
      "version": "0.6.2",
      "model": "VCA-1",
      "params": [
        {
          "paramId": 0,
          "value": 1.0
        },
        {
          "paramId": 1,
          "value": 1.0
        }
      ],
      "pos": [
        22,
        0
      ]
    },
    {
      "plugin": "TechTechTechnologies",
      "version": "0.6.1",
      "model": "Polyphemus",
      "params": [
        {
          "paramId": 4,
          "value": 1.0
        },
        {
          "paramId": 16,
          "value": 0.0
        },
        {
          "paramId": 8,
          "value": 0.536999643
        },
        {
          "paramId": 20,
          "value": 0.0
        },
        {
          "paramId": 12,
          "value": 2.35499525
        },
        {
          "paramId": 17,
          "value": 0.0
        },
        {
          "paramId": 9,
          "value": 0.245999783
        },
        {
          "paramId": 21,
          "value": 0.0
        },
        {
          "paramId": 13,
          "value": 0.0
        },
        {
          "paramId": 18,
          "value": 0.0
        },
        {
          "paramId": 10,
          "value": 0.711000443
        },
        {
          "paramId": 22,
          "value": 0.0
        },
        {
          "paramId": 14,
          "value": 0.386219412
        },
        {
          "paramId": 19,
          "value": 1.0
        },
        {
          "paramId": 11,
          "value": 0.0
        },
        {
          "paramId": 23,
          "value": -0.077999942
        },
        {
          "paramId": 15,
          "value": 0.230790153
        },
        {
          "paramId": 1,
          "value": 0.0
        },
        {
          "paramId": 0,
          "value": 1.0
        },
        {
          "paramId": 3,
          "value": 0.0
        },
        {
          "paramId": 2,
          "value": 0.0
        }
      ],
      "pos": [
        76,
        2
      ]
    },
    {
      "plugin": "Fundamental",
      "version": "0.6.2",
      "model": "Unity",
      "params": [
        {
          "paramId": 0,
          "value": 0.0
        },
        {
          "paramId": 1,
          "value": 0.0
        }
      ],
      "data": {
        "merge": false
      },
      "pos": [
        94,
        2
      ]
    },
    {
      "plugin": "Fundamental",
      "version": "0.6.2",
      "model": "SEQ3",
      "params": [
        {
          "paramId": 0,
          "value": 2.0
        },
        {
          "paramId": 1,
          "value": 0.0
        },
        {
          "paramId": 2,
          "value": 0.0
        },
        {
          "paramId": 3,
          "value": 4.0
        },
        {
          "paramId": 4,
          "value": 0.210000336
        },
        {
          "paramId": 12,
          "value": 0.0
        },
        {
          "paramId": 20,
          "value": 0.0
        },
        {
          "paramId": 28,
          "value": 0.0
        },
        {
          "paramId": 5,
          "value": 10.0
        },
        {
          "paramId": 13,
          "value": 0.899999976
        },
        {
          "paramId": 21,
          "value": 0.0
        },
        {
          "paramId": 29,
          "value": 0.0
        },
        {
          "paramId": 6,
          "value": 5.36500072
        },
        {
          "paramId": 14,
          "value": 1.61999941
        },
        {
          "paramId": 22,
          "value": 0.0
        },
        {
          "paramId": 30,
          "value": 0.0
        },
        {
          "paramId": 7,
          "value": 0.0
        },
        {
          "paramId": 15,
          "value": 0.0
        },
        {
          "paramId": 23,
          "value": 0.0
        },
        {
          "paramId": 31,
          "value": 0.0
        },
        {
          "paramId": 8,
          "value": 6.95499945
        },
        {
          "paramId": 16,
          "value": 0.899999738
        },
        {
          "paramId": 24,
          "value": 0.0
        },
        {
          "paramId": 32,
          "value": 0.0
        },
        {
          "paramId": 9,
          "value": 7.23999977
        },
        {
          "paramId": 17,
          "value": 1.09499979
        },
        {
          "paramId": 25,
          "value": 0.0
        },
        {
          "paramId": 33,
          "value": 0.0
        },
        {
          "paramId": 10,
          "value": 7.19499731
        },
        {
          "paramId": 18,
          "value": 0.554999948
        },
        {
          "paramId": 26,
          "value": 10.0
        },
        {
          "paramId": 34,
          "value": 0.0
        },
        {
          "paramId": 11,
          "value": 6.9700017
        },
        {
          "paramId": 19,
          "value": 0.0
        },
        {
          "paramId": 27,
          "value": 10.0
        },
        {
          "paramId": 35,
          "value": 0.0
        }
      ],
      "data": {
        "running": true,
        "gates": [
          1,
          1,
          1,
          1,
          1,
          1,
          1,
          1
        ]
      },
      "pos": [
        9,
        2
      ]
    },
    {
      "plugin": "Befaco",
      "version": "0.6.0",
      "model": "SlewLimiter",
      "params": [
        {
          "paramId": 0,
          "value": 0.0
        },
        {
          "paramId": 1,
          "value": 0.246000051
        },
        {
          "paramId": 2,
          "value": 0.252000064
        }
      ],
      "pos": [
        3,
        2
      ]
    },
    {
      "plugin": "Fundamental",
      "version": "0.6.2",
      "model": "VCO",
      "params": [
        {
          "paramId": 0,
          "value": 1.0
        },
        {
          "paramId": 1,
          "value": 1.0
        },
        {
          "paramId": 2,
          "value": 0.0
        },
        {
          "paramId": 3,
          "value": 0.0
        },
        {
          "paramId": 5,
          "value": 0.5
        },
        {
          "paramId": 4,
          "value": 0.0
        },
        {
          "paramId": 6,
          "value": 0.0
        }
      ],
      "pos": [
        137,
        1
      ]
    },
    {
      "plugin": "Fundamental",
      "version": "0.6.2",
      "model": "VCF",
      "params": [
        {
          "paramId": 0,
          "value": 0.573498607
        },
        {
          "paramId": 1,
          "value": 0.5
        },
        {
          "paramId": 2,
          "value": 1.0
        },
        {
          "paramId": 3,
          "value": 1.0
        },
        {
          "paramId": 4,
          "value": 1.0
        }
      ],
      "pos": [
        150,
        1
      ]
    },
    {
      "plugin": "Befaco",
      "version": "0.6.0",
      "model": "SlewLimiter",
      "params": [
        {
          "paramId": 0,
          "value": 0.0
        },
        {
          "paramId": 1,
          "value": 0.372000217
        },
        {
          "paramId": 2,
          "value": 0.29099986
        }
      ],
      "pos": [
        158,
        1
      ]
    },
    {
      "plugin": "Fundamental",
      "version": "0.6.2",
      "model": "Unity",
      "params": [
        {
          "paramId": 0,
          "value": 0.0
        },
        {
          "paramId": 1,
          "value": 0.0
        }
      ],
      "data": {
        "merge": false
      },
      "pos": [
        164,
        1
      ]
    },
    {
      "plugin": "Befaco",
      "version": "0.6.0",
      "model": "DualAtenuverter",
      "params": [
        {
          "paramId": 0,
          "value": -1.0
        },
        {
          "paramId": 1,
          "value": 9.51000118
        },
        {
          "paramId": 2,
          "value": 0.201000139
        },
        {
          "paramId": 3,
          "value": 0.0
        }
      ],
      "pos": [
        157,
        2
      ]
    },
    {
      "plugin": "Fundamental",
      "version": "0.6.2",
      "model": "Scope",
      "params": [
        {
          "paramId": 0,
          "value": -1.0
        },
        {
          "paramId": 1,
          "value": 0.0
        },
        {
          "paramId": 2,
          "value": -1.0
        },
        {
          "paramId": 3,
          "value": 0.0
        },
        {
          "paramId": 4,
          "value": -14.5900059
        },
        {
          "paramId": 5,
          "value": 0.0
        },
        {
          "paramId": 6,
          "value": 0.0
        },
        {
          "paramId": 7,
          "value": 0.0
        }
      ],
      "data": {
        "lissajous": 0,
        "external": 1
      },
      "pos": [
        70,
        0
      ]
    },
    {
      "plugin": "Befaco",
      "version": "0.6.0",
      "model": "SlewLimiter",
      "params": [
        {
          "paramId": 0,
          "value": 0.0
        },
        {
          "paramId": 1,
          "value": 0.852999508
        },
        {
          "paramId": 2,
          "value": 0.849999666
        }
      ],
      "pos": [
        48,
        3
      ]
    },
    {
      "plugin": "TechTechTechnologies",
      "version": "0.6.1",
      "model": "Achilles",
      "params": [
        {
          "paramId": 7,
          "value": 0.0
        },
        {
          "paramId": 11,
          "value": -0.981813252
        },
        {
          "paramId": 12,
          "value": 1.0
        },
        {
          "paramId": 8,
          "value": 0.0
        },
        {
          "paramId": 9,
          "value": 0.0
        },
        {
          "paramId": 13,
          "value": 0.309000134
        },
        {
          "paramId": 14,
          "value": 0.0
        },
        {
          "paramId": 10,
          "value": 0.0
        },
        {
          "paramId": 15,
          "value": 0.876062393
        },
        {
          "paramId": 40,
          "value": 0.5
        },
        {
          "paramId": 41,
          "value": 0.0
        },
        {
          "paramId": 16,
          "value": 0.0915000215
        },
        {
          "paramId": 33,
          "value": 0.742000163
        },
        {
          "paramId": 27,
          "value": -0.432999969
        },
        {
          "paramId": 34,
          "value": 0.0
        },
        {
          "paramId": 35,
          "value": 0.5
        },
        {
          "paramId": 32,
          "value": 1.0
        },
        {
          "paramId": 24,
          "value": 1.0
        },
        {
          "paramId": 4,
          "value": 1.0
        },
        {
          "paramId": 19,
          "value": 1.0
        },
        {
          "paramId": 25,
          "value": 0.0
        },
        {
          "paramId": 22,
          "value": 0.0
        },
        {
          "paramId": 26,
          "value": 0.0
        },
        {
          "paramId": 23,
          "value": 0.5
        },
        {
          "paramId": 5,
          "value": 0.0
        },
        {
          "paramId": 2,
          "value": 1.0
        },
        {
          "paramId": 6,
          "value": 0.0
        },
        {
          "paramId": 3,
          "value": 0.5
        },
        {
          "paramId": 20,
          "value": 0.0
        },
        {
          "paramId": 17,
          "value": 0.0
        },
        {
          "paramId": 21,
          "value": 0.0
        },
        {
          "paramId": 18,
          "value": 0.5
        },
        {
          "paramId": 36,
          "value": 0.0
        },
        {
          "paramId": 29,
          "value": 1.0
        },
        {
          "paramId": 28,
          "value": 0.954999685
        },
        {
          "paramId": 37,
          "value": 0.0
        },
        {
          "paramId": 31,
          "value": 0.667500019
        },
        {
          "paramId": 30,
          "value": 0.602000237
        },
        {
          "paramId": 38,
          "value": 1.0
        },
        {
          "paramId": 1,
          "value": -1.0
        },
        {
          "paramId": 0,
          "value": 0.0129999928
        },
        {
          "paramId": 39,
          "value": -1.0
        }
      ],
      "pos": [
        49,
        2
      ]
    },
    {
      "plugin": "Fundamental",
      "version": "0.6.2",
      "model": "VCMixer",
      "params": [
        {
          "paramId": 0,
          "value": 1.0
        },
        {
          "paramId": 1,
          "value": 0.134999737
        },
        {
          "paramId": 2,
          "value": 1.0
        },
        {
          "paramId": 3,
          "value": 0.0
        },
        {
          "paramId": 4,
          "value": 0.985000014
        }
      ],
      "pos": [
        59,
        3
      ]
    },
    {
      "plugin": "TechTechTechnologies",
      "version": "0.6.1",
      "model": "Odysseus",
      "params": [
        {
          "paramId": 1,
          "value": 0.5
        },
        {
          "paramId": 3,
          "value": 0.0
        },
        {
          "paramId": 0,
          "value": 0.5
        },
        {
          "paramId": 2,
          "value": 1.0
        },
        {
          "paramId": 4,
          "value": 0.0
        },
        {
          "paramId": 5,
          "value": 0.121500015
        },
        {
          "paramId": 6,
          "value": 0.0
        },
        {
          "paramId": 7,
          "value": 0.0
        },
        {
          "paramId": 8,
          "value": 0.0
        },
        {
          "paramId": 9,
          "value": 0.0
        },
        {
          "paramId": 10,
          "value": 0.0
        }
      ],
      "pos": [
        32,
        3
      ]
    },
    {
      "plugin": "Bogaudio",
      "version": "0.6.12",
      "model": "Bogaudio-Analyzer",
      "params": [
        {
          "paramId": 5,
          "value": 0.0
        },
        {
          "paramId": 1,
          "value": 0.414500117
        },
        {
          "paramId": 2,
          "value": 3.0
        },
        {
          "paramId": 4,
          "value": 1.0
        }
      ],
      "pos": [
        117,
        2
      ]
    },
    {
      "plugin": "Fundamental",
      "version": "0.6.2",
      "model": "Scope",
      "params": [
        {
          "paramId": 0,
          "value": 0.0
        },
        {
          "paramId": 1,
          "value": 0.0
        },
        {
          "paramId": 2,
          "value": 0.0
        },
        {
          "paramId": 3,
          "value": 0.0
        },
        {
          "paramId": 4,
          "value": -9.40000153
        },
        {
          "paramId": 5,
          "value": 0.0
        },
        {
          "paramId": 6,
          "value": 0.0
        },
        {
          "paramId": 7,
          "value": 0.0
        }
      ],
      "data": {
        "lissajous": 0,
        "external": 1
      },
      "pos": [
        82,
        3
      ]
    },
    {
      "plugin": "Fundamental",
      "version": "0.6.2",
      "model": "LFO",
      "params": [
        {
          "paramId": 0,
          "value": 0.0
        },
        {
          "paramId": 1,
          "value": 1.0
        },
        {
          "paramId": 2,
          "value": 10.0
        },
        {
          "paramId": 3,
          "value": 0.0
        },
        {
          "paramId": 5,
          "value": 0.5
        },
        {
          "paramId": 4,
          "value": 0.0
        },
        {
          "paramId": 6,
          "value": 0.0
        }
      ],
      "pos": [
        125,
        3
      ]
    }
  ],
  "wires": [
    {
      "color": "#0986ad",
      "outputModuleId": 2,
      "outputId": 0,
      "inputModuleId": 3,
      "inputId": 4
    },
    {
      "color": "#c9b70e",
      "outputModuleId": 2,
      "outputId": 0,
      "inputModuleId": 4,
      "inputId": 4
    },
    {
      "color": "#c91847",
      "outputModuleId": 1,
      "outputId": 0,
      "inputModuleId": 2,
      "inputId": 1
    },
    {
      "color": "#0986ad",
      "outputModuleId": 5,
      "outputId": 1,
      "inputModuleId": 4,
      "inputId": 0
    },
    {
      "color": "#c9b70e",
      "outputModuleId": 5,
      "outputId": 1,
      "inputModuleId": 3,
      "inputId": 0
    },
    {
      "color": "#c91847",
      "outputModuleId": 5,
      "outputId": 0,
      "inputModuleId": 3,
      "inputId": 1
    },
    {
      "color": "#0c8e15",
      "outputModuleId": 5,
      "outputId": 0,
      "inputModuleId": 4,
      "inputId": 1
    },
    {
      "color": "#0c8e15",
      "outputModuleId": 4,
      "outputId": 0,
      "inputModuleId": 7,
      "inputId": 0
    },
    {
      "color": "#0986ad",
      "outputModuleId": 3,
      "outputId": 0,
      "inputModuleId": 7,
      "inputId": 1
    },
    {
      "color": "#0c8e15",
      "outputModuleId": 9,
      "outputId": 0,
      "inputModuleId": 2,
      "inputId": 0
    },
    {
      "color": "#0986ad",
      "outputModuleId": 23,
      "outputId": 0,
      "inputModuleId": 14,
      "inputId": 0
    },
    {
      "color": "#c9b70e",
      "outputModuleId": 16,
      "outputId": 1,
      "inputModuleId": 12,
      "inputId": 1
    },
    {
      "color": "#0c8e15",
      "outputModuleId": 33,
      "outputId": 1,
      "inputModuleId": 34,
      "inputId": 2
    },
    {
      "color": "#c91847",
      "outputModuleId": 23,
      "outputId": 0,
      "inputModuleId": 10,
      "inputId": 13
    },
    {
      "color": "#c9b70e",
      "outputModuleId": 11,
      "outputId": 5,
      "inputModuleId": 18,
      "inputId": 2
    },
    {
      "color": "#0986ad",
      "outputModuleId": 11,
      "outputId": 4,
      "inputModuleId": 19,
      "inputId": 1
    },
    {
      "color": "#c91847",
      "outputModuleId": 17,
      "outputId": 0,
      "inputModuleId": 18,
      "inputId": 0
    },
    {
      "color": "#0986ad",
      "outputModuleId": 13,
      "outputId": 2,
      "inputModuleId": 20,
      "inputId": 1
    },
    {
      "color": "#c91847",
      "outputModuleId": 23,
      "outputId": 0,
      "inputModuleId": 20,
      "inputId": 0
    },
    {
      "color": "#c9b70e",
      "outputModuleId": 21,
      "outputId": 1,
      "inputModuleId": 3,
      "inputId": 3
    },
    {
      "color": "#c91847",
      "outputModuleId": 21,
      "outputId": 1,
      "inputModuleId": 4,
      "inputId": 3
    },
    {
      "color": "#0986ad",
      "outputModuleId": 22,
      "outputId": 0,
      "inputModuleId": 5,
      "inputId": 0
    },
    {
      "color": "#c9b70e",
      "outputModuleId": 19,
      "outputId": 4,
      "inputModuleId": 17,
      "inputId": 0
    },
    {
      "color": "#c91847",
      "outputModuleId": 19,
      "outputId": 5,
      "inputModuleId": 17,
      "inputId": 1
    },
    {
      "color": "#c9b70e",
      "outputModuleId": 18,
      "outputId": 0,
      "inputModuleId": 23,
      "inputId": 1
    },
    {
      "color": "#0c8e15",
      "outputModuleId": 11,
      "outputId": 7,
      "inputModuleId": 23,
      "inputId": 2
    },
    {
      "color": "#0986ad",
      "outputModuleId": 11,
      "outputId": 9,
      "inputModuleId": 23,
      "inputId": 3
    },
    {
      "color": "#c9b70e",
      "outputModuleId": 11,
      "outputId": 11,
      "inputModuleId": 23,
      "inputId": 4
    },
    {
      "color": "#c9b70e",
      "outputModuleId": 21,
      "outputId": 0,
      "inputModuleId": 4,
      "inputId": 2
    },
    {
      "color": "#c91847",
      "outputModuleId": 21,
      "outputId": 0,
      "inputModuleId": 3,
      "inputId": 2
    },
    {
      "color": "#0c8e15",
      "outputModuleId": 3,
      "outputId": 0,
      "inputModuleId": 6,
      "inputId": 0
    },
    {
      "color": "#0986ad",
      "outputModuleId": 2,
      "outputId": 0,
      "inputModuleId": 6,
      "inputId": 1
    },
    {
      "color": "#c9b70e",
      "outputModuleId": 24,
      "outputId": 0,
      "inputModuleId": 39,
      "inputId": 1
    },
    {
      "color": "#0c8e15",
      "outputModuleId": 25,
      "outputId": 0,
      "inputModuleId": 9,
      "inputId": 1
    },
    {
      "color": "#0986ad",
      "outputModuleId": 27,
      "outputId": 0,
      "inputModuleId": 26,
      "inputId": 0
    },
    {
      "color": "#c91847",
      "outputModuleId": 29,
      "outputId": 0,
      "inputModuleId": 17,
      "inputId": 6
    },
    {
      "color": "#0c8e15",
      "outputModuleId": 28,
      "outputId": 0,
      "inputModuleId": 17,
      "inputId": 8
    },
    {
      "color": "#0986ad",
      "outputModuleId": 30,
      "outputId": 0,
      "inputModuleId": 28,
      "inputId": 0
    },
    {
      "color": "#c91847",
      "outputModuleId": 27,
      "outputId": 0,
      "inputModuleId": 30,
      "inputId": 1
    },
    {
      "color": "#0986ad",
      "outputModuleId": 26,
      "outputId": 0,
      "inputModuleId": 29,
      "inputId": 1
    },
    {
      "color": "#c91847",
      "outputModuleId": 4,
      "outputId": 0,
      "inputModuleId": 0,
      "inputId": 0
    },
    {
      "color": "#0c8e15",
      "outputModuleId": 3,
      "outputId": 0,
      "inputModuleId": 0,
      "inputId": 1
    },
    {
      "color": "#c91847",
      "outputModuleId": 10,
      "outputId": 1,
      "inputModuleId": 31,
      "inputId": 2
    },
    {
      "color": "#c91847",
      "outputModuleId": 10,
      "outputId": 1,
      "inputModuleId": 1,
      "inputId": 3
    },
    {
      "color": "#0986ad",
      "outputModuleId": 13,
      "outputId": 2,
      "inputModuleId": 20,
      "inputId": 3
    },
    {
      "color": "#c91847",
      "outputModuleId": 31,
      "outputId": 5,
      "inputModuleId": 6,
      "inputId": 2
    },
    {
      "color": "#0c8e15",
      "outputModuleId": 31,
      "outputId": 0,
      "inputModuleId": 8,
      "inputId": 0
    },
    {
      "color": "#c91847",
      "outputModuleId": 31,
      "outputId": 3,
      "inputModuleId": 10,
      "inputId": 19
    },
    {
      "color": "#0986ad",
      "outputModuleId": 31,
      "outputId": 1,
      "inputModuleId": 8,
      "inputId": 1
    },
    {
      "color": "#c9b70e",
      "outputModuleId": 11,
      "outputId": 6,
      "inputModuleId": 32,
      "inputId": 0
    },
    {
      "color": "#c91847",
      "outputModuleId": 32,
      "outputId": 0,
      "inputModuleId": 31,
      "inputId": 11
    },
    {
      "color": "#0c8e15",
      "outputModuleId": 11,
      "outputId": 8,
      "inputModuleId": 32,
      "inputId": 2
    },
    {
      "color": "#0986ad",
      "outputModuleId": 11,
      "outputId": 10,
      "inputModuleId": 32,
      "inputId": 4
    },
    {
      "color": "#c91847",
      "outputModuleId": 11,
      "outputId": 6,
      "inputModuleId": 32,
      "inputId": 1
    },
    {
      "color": "#0c8e15",
      "outputModuleId": 11,
      "outputId": 6,
      "inputModuleId": 32,
      "inputId": 3
    },
    {
      "color": "#0986ad",
      "outputModuleId": 11,
      "outputId": 10,
      "inputModuleId": 32,
      "inputId": 5
    },
    {
      "color": "#0986ad",
      "outputModuleId": 11,
      "outputId": 2,
      "inputModuleId": 31,
      "inputId": 7
    },
    {
      "color": "#0986ad",
      "outputModuleId": 34,
      "outputId": 0,
      "inputModuleId": 16,
      "inputId": 1
    },
    {
      "color": "#c91847",
      "outputModuleId": 19,
      "outputId": 6,
      "inputModuleId": 33,
      "inputId": 1
    },
    {
      "color": "#0986ad",
      "outputModuleId": 12,
      "outputId": 1,
      "inputModuleId": 35,
      "inputId": 0
    },
    {
      "color": "#c9b70e",
      "outputModuleId": 35,
      "outputId": 2,
      "inputModuleId": 36,
      "inputId": 3
    },
    {
      "color": "#c91847",
      "outputModuleId": 36,
      "outputId": 0,
      "inputModuleId": 1,
      "inputId": 4
    },
    {
      "color": "#0c8e15",
      "outputModuleId": 32,
      "outputId": 1,
      "inputModuleId": 37,
      "inputId": 2
    },
    {
      "color": "#c9b70e",
      "outputModuleId": 37,
      "outputId": 0,
      "inputModuleId": 38,
      "inputId": 8
    },
    {
      "color": "#c91847",
      "outputModuleId": 38,
      "outputId": 2,
      "inputModuleId": 36,
      "inputId": 0
    },
    {
      "color": "#c9b70e",
      "outputModuleId": 24,
      "outputId": 0,
      "inputModuleId": 25,
      "inputId": 0
    },
    {
      "color": "#c91847",
      "outputModuleId": 39,
      "outputId": 1,
      "inputModuleId": 38,
      "inputId": 10
    },
    {
      "color": "#0986ad",
      "outputModuleId": 36,
      "outputId": 1,
      "inputModuleId": 1,
      "inputId": 2
    },
    {
      "color": "#0986ad",
      "outputModuleId": 10,
      "outputId": 2,
      "inputModuleId": 40,
      "inputId": 0
    },
    {
      "color": "#c9b70e",
      "outputModuleId": 12,
      "outputId": 1,
      "inputModuleId": 41,
      "inputId": 2
    },
    {
      "color": "#c91847",
      "outputModuleId": 41,
      "outputId": 0,
      "inputModuleId": 10,
      "inputId": 30
    },
    {
      "color": "#c91847",
      "outputModuleId": 43,
      "outputId": 0,
      "inputModuleId": 42,
      "inputId": 30
    },
    {
      "color": "#0c8e15",
      "outputModuleId": 23,
      "outputId": 0,
      "inputModuleId": 42,
      "inputId": 13
    },
    {
      "color": "#0986ad",
      "outputModuleId": 42,
      "outputId": 1,
      "inputModuleId": 1,
      "inputId": 1
    },
    {
      "color": "#0c8e15",
      "outputModuleId": 44,
      "outputId": 0,
      "inputModuleId": 43,
      "inputId": 1
    },
    {
      "color": "#0986ad",
      "outputModuleId": 41,
      "outputId": 0,
      "inputModuleId": 43,
      "inputId": 2
    },
    {
      "color": "#c9b70e",
      "outputModuleId": 12,
      "outputId": 0,
      "inputModuleId": 43,
      "inputId": 3
    },
    {
      "color": "#0986ad",
      "outputModuleId": 42,
      "outputId": 1,
      "inputModuleId": 6,
      "inputId": 3
    },
    {
      "color": "#c9b70e",
      "outputModuleId": 42,
      "outputId": 2,
      "inputModuleId": 15,
      "inputId": 1
    },
    {
      "color": "#c91847",
      "outputModuleId": 43,
      "outputId": 0,
      "inputModuleId": 15,
      "inputId": 0
    },
    {
      "color": "#c91847",
      "outputModuleId": 42,
      "outputId": 5,
      "inputModuleId": 42,
      "inputId": 0
    },
    {
      "color": "#c9b70e",
      "outputModuleId": 42,
      "outputId": 6,
      "inputModuleId": 45,
      "inputId": 0
    },
    {
      "color": "#0986ad",
      "outputModuleId": 10,
      "outputId": 5,
      "inputModuleId": 10,
      "inputId": 0
    },
    {
      "color": "#c9b70e",
      "outputModuleId": 10,
      "outputId": 6,
      "inputModuleId": 46,
      "inputId": 1
    },
    {
      "color": "#0c8e15",
      "outputModuleId": 47,
      "outputId": 0,
      "inputModuleId": 42,
      "inputId": 12
    }
  ]
}