{
  "version": "0.6.2b",
  "modules": [
    {
      "plugin": "Core",
      "version": "0.6.2b",
      "model": "AudioInterface",
      "params": [],
      "data": {
        "audio": {
          "driver": 6,
          "deviceName": "Speakers (Realtek High Definition Audio)",
          "offset": 0,
          "maxChannels": 8,
          "sampleRate": 48000,
          "blockSize": 256
        }
      },
      "pos": [
        139,
        0
      ]
    },
    {
      "plugin": "Fundamental",
      "version": "0.6.2",
      "model": "VCMixer",
      "params": [
        {
          "paramId": 0,
          "value": 0.37800014
        },
        {
          "paramId": 1,
          "value": 1.0
        },
        {
          "paramId": 2,
          "value": 1.0
        },
        {
          "paramId": 3,
          "value": 1.0
        },
        {
          "paramId": 4,
          "value": 1.0
        }
      ],
      "pos": [
        109,
        1
      ]
    },
    {
      "plugin": "Bogaudio",
      "version": "0.6.10",
      "model": "Bogaudio-Analyzer",
      "params": [
        {
          "paramId": 0,
          "value": 1.0
        },
        {
          "paramId": 1,
          "value": 0.0
        },
        {
          "paramId": 2,
          "value": 2.0
        },
        {
          "paramId": 3,
          "value": 1.0
        }
      ],
      "pos": [
        129,
        1
      ]
    },
    {
      "plugin": "NYSTHI",
      "version": "0.6.14",
      "model": "MasterRecorder2",
      "params": [
        {
          "paramId": 0,
          "value": 0.0
        },
        {
          "paramId": 1,
          "value": 0.0
        },
        {
          "paramId": 2,
          "value": 0.0
        },
        {
          "paramId": 8,
          "value": 0.0
        },
        {
          "paramId": 9,
          "value": 0.00499999989
        },
        {
          "paramId": 10,
          "value": 0.00999999978
        },
        {
          "paramId": 11,
          "value": 2.0
        },
        {
          "paramId": 12,
          "value": 0.5
        },
        {
          "paramId": 3,
          "value": 1.0
        },
        {
          "paramId": 4,
          "value": 1.0
        },
        {
          "paramId": 13,
          "value": 0.0
        },
        {
          "paramId": 14,
          "value": 0.100000001
        },
        {
          "paramId": 5,
          "value": 0.0
        },
        {
          "paramId": 6,
          "value": 0.0
        },
        {
          "paramId": 7,
          "value": 0.0
        }
      ],
      "data": {
        "nysthi_id": "MR2_lRIGMCZ8",
        "wavebits": 9,
        "rms_time": 0.00100000005,
        "peak_time": 0.5,
        "m_invertphaseleft": false,
        "m_invertphaseright": false,
        "m_locklevelleftright": false,
        "m_kompressor_active": false,
        "m_autosave": true,
        "m_distort": false
      },
      "pos": [
        149,
        0
      ]
    },
    {
      "plugin": "Befaco",
      "version": "0.6.0",
      "model": "ABC",
      "params": [
        {
          "paramId": 0,
          "value": 0.0
        },
        {
          "paramId": 1,
          "value": 0.0
        },
        {
          "paramId": 2,
          "value": 0.876999795
        },
        {
          "paramId": 3,
          "value": 0.0
        }
      ],
      "pos": [
        111,
        0
      ]
    },
    {
      "plugin": "Fundamental",
      "version": "0.6.2",
      "model": "Delay",
      "params": [
        {
          "paramId": 0,
          "value": 0.60650003
        },
        {
          "paramId": 1,
          "value": 0.63650012
        },
        {
          "paramId": 2,
          "value": 0.0
        },
        {
          "paramId": 3,
          "value": 1.0
        }
      ],
      "pos": [
        117,
        0
      ]
    },
    {
      "plugin": "Fundamental",
      "version": "0.6.2",
      "model": "Delay",
      "params": [
        {
          "paramId": 0,
          "value": 0.617000163
        },
        {
          "paramId": 1,
          "value": 0.63650012
        },
        {
          "paramId": 2,
          "value": 0.0
        },
        {
          "paramId": 3,
          "value": 1.0
        }
      ],
      "pos": [
        125,
        0
      ]
    },
    {
      "plugin": "Fundamental",
      "version": "0.6.2",
      "model": "VCMixer",
      "params": [
        {
          "paramId": 0,
          "value": 0.0
        },
        {
          "paramId": 1,
          "value": 0.0
        },
        {
          "paramId": 2,
          "value": 1.0
        },
        {
          "paramId": 3,
          "value": 1.0
        },
        {
          "paramId": 4,
          "value": 0.00300000003
        }
      ],
      "pos": [
        119,
        1
      ]
    },
    {
      "plugin": "Bogaudio",
      "version": "0.6.10",
      "model": "Bogaudio-UMix",
      "params": [
        {
          "paramId": 0,
          "value": 1.0
        }
      ],
      "data": {
        "sum": true
      },
      "pos": [
        133,
        0
      ]
    },
    {
      "plugin": "Bogaudio",
      "version": "0.6.10",
      "model": "Bogaudio-UMix",
      "params": [
        {
          "paramId": 0,
          "value": 1.0
        }
      ],
      "data": {
        "sum": true
      },
      "pos": [
        136,
        0
      ]
    },
    {
      "plugin": "Befaco",
      "version": "0.6.0",
      "model": "ABC",
      "params": [
        {
          "paramId": 0,
          "value": 0.0
        },
        {
          "paramId": 1,
          "value": 0.0
        },
        {
          "paramId": 2,
          "value": 0.876999795
        },
        {
          "paramId": 3,
          "value": 0.0
        }
      ],
      "pos": [
        105,
        0
      ]
    }
  ],
  "wires": [
    {
      "color": "#0c8e15",
      "outputModuleId": 7,
      "outputId": 0,
      "inputModuleId": 2,
      "inputId": 0
    },
    {
      "color": "#0986ad",
      "outputModuleId": 7,
      "outputId": 0,
      "inputModuleId": 5,
      "inputId": 4
    },
    {
      "color": "#c91847",
      "outputModuleId": 5,
      "outputId": 0,
      "inputModuleId": 8,
      "inputId": 7
    },
    {
      "color": "#0c8e15",
      "outputModuleId": 6,
      "outputId": 0,
      "inputModuleId": 9,
      "inputId": 7
    },
    {
      "color": "#0986ad",
      "outputModuleId": 7,
      "outputId": 0,
      "inputModuleId": 6,
      "inputId": 4
    },
    {
      "color": "#c9b70e",
      "outputModuleId": 4,
      "outputId": 1,
      "inputModuleId": 5,
      "inputId": 2
    },
    {
      "color": "#c91847",
      "outputModuleId": 4,
      "outputId": 1,
      "inputModuleId": 6,
      "inputId": 2
    },
    {
      "color": "#0c8e15",
      "outputModuleId": 8,
      "outputId": 0,
      "inputModuleId": 3,
      "inputId": 0
    },
    {
      "color": "#0986ad",
      "outputModuleId": 9,
      "outputId": 0,
      "inputModuleId": 3,
      "inputId": 1
    },
    {
      "color": "#c9b70e",
      "outputModuleId": 1,
      "outputId": 0,
      "inputModuleId": 7,
      "inputId": 1
    },
    {
      "color": "#0c8e15",
      "outputModuleId": 8,
      "outputId": 0,
      "inputModuleId": 0,
      "inputId": 0
    },
    {
      "color": "#0986ad",
      "outputModuleId": 9,
      "outputId": 0,
      "inputModuleId": 0,
      "inputId": 1
    },
    {
      "color": "#0986ad",
      "outputModuleId": 4,
      "outputId": 0,
      "inputModuleId": 6,
      "inputId": 1
    },
    {
      "color": "#c9b70e",
      "outputModuleId": 4,
      "outputId": 0,
      "inputModuleId": 5,
      "inputId": 1
    },
    {
      "color": "#c91847",
      "outputModuleId": 10,
      "outputId": 0,
      "inputModuleId": 5,
      "inputId": 0
    },
    {
      "color": "#0c8e15",
      "outputModuleId": 10,
      "outputId": 0,
      "inputModuleId": 6,
      "inputId": 0
    }
  ]
}