{
  "version": "1.1.6",
  "modules": [
    {
      "id": 1,
      "plugin": "Core",
      "version": "1.1.6",
      "model": "AudioInterface",
      "params": [],
      "leftModuleId": 212,
      "rightModuleId": 225,
      "data": {
        "audio": {
          "driver": 1,
          "deviceName": "hw:HDA Intel PCH,0",
          "offset": 0,
          "maxChannels": 8,
          "sampleRate": 48000,
          "blockSize": 4096
        }
      },
      "pos": [
        180,
        2
      ]
    },
    {
      "id": 196,
      "plugin": "TechTechTechnologies",
      "version": "1.0.0",
      "model": "Prometheus2",
      "params": [
        {
          "id": 0,
          "value": 0.0
        },
        {
          "id": 1,
          "value": 0.0
        },
        {
          "id": 2,
          "value": 1.0
        },
        {
          "id": 3,
          "value": 0.100000001
        },
        {
          "id": 4,
          "value": 0.0
        },
        {
          "id": 5,
          "value": 0.0
        },
        {
          "id": 6,
          "value": 6.40599823
        },
        {
          "id": 7,
          "value": 1.0
        },
        {
          "id": 8,
          "value": 1.0
        },
        {
          "id": 9,
          "value": 1.0
        },
        {
          "id": 10,
          "value": -5.0
        },
        {
          "id": 11,
          "value": 0.0
        },
        {
          "id": 12,
          "value": 0.0
        }
      ],
      "rightModuleId": 202,
      "pos": [
        63,
        0
      ]
    },
    {
      "id": 202,
      "plugin": "Bogaudio",
      "version": "1.1.25",
      "model": "Bogaudio-LFO",
      "params": [
        {
          "id": 0,
          "value": -4.26922607
        },
        {
          "id": 1,
          "value": 0.0
        },
        {
          "id": 2,
          "value": 0.0
        },
        {
          "id": 3,
          "value": -0.410999924
        },
        {
          "id": 4,
          "value": 1.0
        },
        {
          "id": 5,
          "value": 0.0825000033
        }
      ],
      "leftModuleId": 196,
      "rightModuleId": 285,
      "pos": [
        71,
        0
      ]
    },
    {
      "id": 206,
      "plugin": "TechTechTechnologies",
      "version": "1.0.0",
      "model": "Prometheus2",
      "params": [
        {
          "id": 0,
          "value": 1.0
        },
        {
          "id": 1,
          "value": 1.0
        },
        {
          "id": 2,
          "value": 1.0
        },
        {
          "id": 3,
          "value": 6.0
        },
        {
          "id": 4,
          "value": 0.0
        },
        {
          "id": 5,
          "value": 0.0
        },
        {
          "id": 6,
          "value": 5.80600929
        },
        {
          "id": 7,
          "value": 1.0
        },
        {
          "id": 8,
          "value": 0.0
        },
        {
          "id": 9,
          "value": 1.0
        },
        {
          "id": 10,
          "value": -0.833333313
        },
        {
          "id": 11,
          "value": 0.0
        },
        {
          "id": 12,
          "value": 1.0
        }
      ],
      "leftModuleId": 245,
      "rightModuleId": 246,
      "pos": [
        63,
        1
      ]
    },
    {
      "id": 207,
      "plugin": "Fundamental",
      "version": "1.4.0",
      "model": "Delay",
      "params": [
        {
          "id": 0,
          "value": 0.668008566
        },
        {
          "id": 1,
          "value": 0.821000278
        },
        {
          "id": 2,
          "value": 0.0405000672
        },
        {
          "id": 3,
          "value": 0.5
        }
      ],
      "leftModuleId": 292,
      "rightModuleId": 209,
      "pos": [
        53,
        2
      ]
    },
    {
      "id": 208,
      "plugin": "Bogaudio",
      "version": "1.1.25",
      "model": "Bogaudio-LFO",
      "params": [
        {
          "id": 0,
          "value": -4.84739876
        },
        {
          "id": 1,
          "value": 0.0
        },
        {
          "id": 2,
          "value": 0.0
        },
        {
          "id": 3,
          "value": -0.410999924
        },
        {
          "id": 4,
          "value": 1.0
        },
        {
          "id": 5,
          "value": 0.237000003
        }
      ],
      "leftModuleId": 286,
      "pos": [
        85,
        3
      ]
    },
    {
      "id": 209,
      "plugin": "Fundamental",
      "version": "1.4.0",
      "model": "Delay",
      "params": [
        {
          "id": 0,
          "value": 0.283553779
        },
        {
          "id": 1,
          "value": 0.261500269
        },
        {
          "id": 2,
          "value": 0.367500097
        },
        {
          "id": 3,
          "value": 0.5
        }
      ],
      "leftModuleId": 207,
      "rightModuleId": 248,
      "pos": [
        61,
        2
      ]
    },
    {
      "id": 210,
      "plugin": "Bogaudio",
      "version": "1.1.25",
      "model": "Bogaudio-LFO",
      "params": [
        {
          "id": 0,
          "value": -3.26243687
        },
        {
          "id": 1,
          "value": 0.0
        },
        {
          "id": 2,
          "value": 0.0
        },
        {
          "id": 3,
          "value": -0.410999924
        },
        {
          "id": 4,
          "value": 0.0
        },
        {
          "id": 5,
          "value": 0.00100000005
        }
      ],
      "leftModuleId": 462,
      "rightModuleId": 286,
      "pos": [
        65,
        3
      ]
    },
    {
      "id": 211,
      "plugin": "TechTechTechnologies",
      "version": "1.0.0",
      "model": "Polyphemus2",
      "params": [
        {
          "id": 0,
          "value": 0.0
        },
        {
          "id": 1,
          "value": 0.0
        },
        {
          "id": 2,
          "value": 0.0
        },
        {
          "id": 3,
          "value": 0.0
        },
        {
          "id": 4,
          "value": 0.0
        },
        {
          "id": 5,
          "value": 0.0
        },
        {
          "id": 6,
          "value": 0.0
        },
        {
          "id": 7,
          "value": 0.0
        },
        {
          "id": 8,
          "value": 1.0
        },
        {
          "id": 9,
          "value": 1.0
        },
        {
          "id": 10,
          "value": 1.0
        },
        {
          "id": 11,
          "value": 1.0
        },
        {
          "id": 12,
          "value": 9.0
        },
        {
          "id": 13,
          "value": 14.3294668
        },
        {
          "id": 14,
          "value": 6.14649248
        },
        {
          "id": 15,
          "value": 3.35699797
        },
        {
          "id": 16,
          "value": 0.5
        },
        {
          "id": 17,
          "value": 0.657500207
        },
        {
          "id": 18,
          "value": 0.5
        },
        {
          "id": 19,
          "value": 0.695000231
        },
        {
          "id": 20,
          "value": 0.423001528
        },
        {
          "id": 21,
          "value": 0.575999618
        },
        {
          "id": 22,
          "value": -0.729000032
        },
        {
          "id": 23,
          "value": -1.90799856
        }
      ],
      "leftModuleId": 246,
      "rightModuleId": 271,
      "pos": [
        76,
        1
      ]
    },
    {
      "id": 212,
      "plugin": "NYSTHI",
      "version": "1.0.8",
      "model": "MasterRecorder2",
      "params": [
        {
          "id": 0,
          "value": 0.0
        },
        {
          "id": 1,
          "value": 0.0
        },
        {
          "id": 2,
          "value": 0.0
        },
        {
          "id": 3,
          "value": 1.0
        },
        {
          "id": 4,
          "value": 1.0
        },
        {
          "id": 5,
          "value": 0.0
        },
        {
          "id": 6,
          "value": 0.0
        },
        {
          "id": 7,
          "value": 0.0
        },
        {
          "id": 8,
          "value": 0.0
        },
        {
          "id": 9,
          "value": 0.00499999989
        },
        {
          "id": 10,
          "value": 0.00999999978
        },
        {
          "id": 11,
          "value": 2.0
        },
        {
          "id": 12,
          "value": 0.5
        },
        {
          "id": 13,
          "value": 0.0
        },
        {
          "id": 14,
          "value": 0.100000001
        },
        {
          "id": 15,
          "value": 0.0
        },
        {
          "id": 16,
          "value": 1.0
        }
      ],
      "leftModuleId": 253,
      "rightModuleId": 1,
      "data": {
        "nysthi_id": "MR2_GMCZ8E2P",
        "wavebits": 9,
        "rms_time": 0.00100000005,
        "peak_time": 0.5,
        "m_invertphaseleft": false,
        "m_invertphaseright": false,
        "m_locklevelleftright": false,
        "m_kompressor_active": false,
        "m_autosave": true,
        "m_distort": false,
        "m_attenuation": 1.0,
        "m_raw_pcm_float": 0.0
      },
      "pos": [
        171,
        2
      ]
    },
    {
      "id": 222,
      "plugin": "Befaco",
      "version": "1.0.0",
      "model": "DualAtenuverter",
      "params": [
        {
          "id": 0,
          "value": -1.0
        },
        {
          "id": 1,
          "value": 0.0
        },
        {
          "id": 2,
          "value": 0.0
        },
        {
          "id": 3,
          "value": 10.0
        }
      ],
      "rightModuleId": 267,
      "pos": [
        0,
        2
      ]
    },
    {
      "id": 225,
      "plugin": "Fundamental",
      "version": "1.4.0",
      "model": "Scope",
      "params": [
        {
          "id": 0,
          "value": 0.0
        },
        {
          "id": 1,
          "value": 0.0
        },
        {
          "id": 2,
          "value": 0.0
        },
        {
          "id": 3,
          "value": 0.0
        },
        {
          "id": 4,
          "value": 12.2799997
        },
        {
          "id": 5,
          "value": 0.0
        },
        {
          "id": 6,
          "value": 0.0
        },
        {
          "id": 7,
          "value": 0.0
        }
      ],
      "leftModuleId": 1,
      "data": {
        "lissajous": 0,
        "external": 0
      },
      "pos": [
        190,
        2
      ]
    },
    {
      "id": 236,
      "plugin": "TechTechTechnologies",
      "version": "1.0.0",
      "model": "Odysseus",
      "params": [
        {
          "id": 0,
          "value": 0.5
        },
        {
          "id": 1,
          "value": 0.436999947
        },
        {
          "id": 2,
          "value": 1.0
        },
        {
          "id": 3,
          "value": 0.143999979
        },
        {
          "id": 4,
          "value": 0.0
        },
        {
          "id": 5,
          "value": 0.956500053
        },
        {
          "id": 6,
          "value": 0.0
        },
        {
          "id": 7,
          "value": 0.0
        },
        {
          "id": 8,
          "value": 0.0
        },
        {
          "id": 9,
          "value": 0.0
        },
        {
          "id": 10,
          "value": 0.0
        }
      ],
      "leftModuleId": 288,
      "rightModuleId": 237,
      "pos": [
        57,
        4
      ]
    },
    {
      "id": 237,
      "plugin": "Fundamental",
      "version": "1.4.0",
      "model": "Scope",
      "params": [
        {
          "id": 0,
          "value": 0.0
        },
        {
          "id": 1,
          "value": 0.0
        },
        {
          "id": 2,
          "value": 0.0
        },
        {
          "id": 3,
          "value": 0.0
        },
        {
          "id": 4,
          "value": 6.0
        },
        {
          "id": 5,
          "value": 0.0
        },
        {
          "id": 6,
          "value": 0.0
        },
        {
          "id": 7,
          "value": 0.0
        }
      ],
      "leftModuleId": 236,
      "data": {
        "lissajous": 0,
        "external": 0
      },
      "pos": [
        67,
        4
      ]
    },
    {
      "id": 241,
      "plugin": "TechTechTechnologies",
      "version": "1.0.0",
      "model": "Prometheus2",
      "params": [
        {
          "id": 0,
          "value": 0.0
        },
        {
          "id": 1,
          "value": 0.0
        },
        {
          "id": 2,
          "value": 0.0
        },
        {
          "id": 3,
          "value": 0.100000001
        },
        {
          "id": 4,
          "value": 0.0
        },
        {
          "id": 5,
          "value": 0.0
        },
        {
          "id": 6,
          "value": 8.54799938
        },
        {
          "id": 7,
          "value": 1.0
        },
        {
          "id": 8,
          "value": 1.0
        },
        {
          "id": 9,
          "value": 1.0
        },
        {
          "id": 10,
          "value": -5.0
        },
        {
          "id": 11,
          "value": 0.0
        },
        {
          "id": 12,
          "value": 0.0
        }
      ],
      "leftModuleId": 272,
      "rightModuleId": 279,
      "pos": [
        128,
        1
      ]
    },
    {
      "id": 245,
      "plugin": "Fundamental",
      "version": "1.4.0",
      "model": "Merge",
      "params": [],
      "leftModuleId": 251,
      "rightModuleId": 206,
      "data": {
        "channels": -1
      },
      "pos": [
        58,
        1
      ]
    },
    {
      "id": 246,
      "plugin": "Fundamental",
      "version": "1.4.0",
      "model": "Split",
      "params": [],
      "leftModuleId": 206,
      "rightModuleId": 211,
      "pos": [
        71,
        1
      ]
    },
    {
      "id": 248,
      "plugin": "Fundamental",
      "version": "1.4.0",
      "model": "Delay",
      "params": [
        {
          "id": 0,
          "value": 0.668008268
        },
        {
          "id": 1,
          "value": 0.821000278
        },
        {
          "id": 2,
          "value": 0.0405000672
        },
        {
          "id": 3,
          "value": 0.5
        }
      ],
      "leftModuleId": 209,
      "rightModuleId": 249,
      "pos": [
        69,
        2
      ]
    },
    {
      "id": 249,
      "plugin": "Fundamental",
      "version": "1.4.0",
      "model": "Delay",
      "params": [
        {
          "id": 0,
          "value": 0.283552229
        },
        {
          "id": 1,
          "value": 0.261500269
        },
        {
          "id": 2,
          "value": 0.367500097
        },
        {
          "id": 3,
          "value": 0.5
        }
      ],
      "leftModuleId": 248,
      "pos": [
        77,
        2
      ]
    },
    {
      "id": 251,
      "plugin": "Befaco",
      "version": "1.0.0",
      "model": "DualAtenuverter",
      "params": [
        {
          "id": 0,
          "value": 1.0
        },
        {
          "id": 1,
          "value": 0.0
        },
        {
          "id": 2,
          "value": 1.0
        },
        {
          "id": 3,
          "value": -1.0
        }
      ],
      "leftModuleId": 255,
      "rightModuleId": 245,
      "pos": [
        53,
        1
      ]
    },
    {
      "id": 252,
      "plugin": "Fundamental",
      "version": "1.4.0",
      "model": "Delay",
      "params": [
        {
          "id": 0,
          "value": 0.70488596
        },
        {
          "id": 1,
          "value": 0.684500098
        },
        {
          "id": 2,
          "value": 0.5
        },
        {
          "id": 3,
          "value": 0.5
        }
      ],
      "leftModuleId": 429,
      "rightModuleId": 253,
      "pos": [
        155,
        2
      ]
    },
    {
      "id": 253,
      "plugin": "Fundamental",
      "version": "1.4.0",
      "model": "Delay",
      "params": [
        {
          "id": 0,
          "value": 0.70651865
        },
        {
          "id": 1,
          "value": 0.669500113
        },
        {
          "id": 2,
          "value": 0.5
        },
        {
          "id": 3,
          "value": 0.5
        }
      ],
      "leftModuleId": 252,
      "rightModuleId": 212,
      "pos": [
        163,
        2
      ]
    },
    {
      "id": 255,
      "plugin": "Befaco",
      "version": "1.0.0",
      "model": "DualAtenuverter",
      "params": [
        {
          "id": 0,
          "value": 0.0
        },
        {
          "id": 1,
          "value": 0.0
        },
        {
          "id": 2,
          "value": 0.0
        },
        {
          "id": 3,
          "value": 0.0
        }
      ],
      "rightModuleId": 251,
      "pos": [
        48,
        1
      ]
    },
    {
      "id": 267,
      "plugin": "Core",
      "version": "1.1.6",
      "model": "AudioInterface",
      "params": [],
      "leftModuleId": 222,
      "rightModuleId": 269,
      "data": {
        "audio": {
          "driver": 1,
          "deviceName": "hw:HD Webcam C525,0",
          "offset": 0,
          "maxChannels": 8,
          "sampleRate": 48000,
          "blockSize": 256
        }
      },
      "pos": [
        5,
        2
      ]
    },
    {
      "id": 268,
      "plugin": "TechTechTechnologies",
      "version": "1.0.0",
      "model": "Sisyphus",
      "params": [
        {
          "id": 0,
          "value": 9.11501217
        },
        {
          "id": 1,
          "value": 10.0
        },
        {
          "id": 2,
          "value": 10.0
        },
        {
          "id": 3,
          "value": 10.0
        },
        {
          "id": 4,
          "value": 2.5
        },
        {
          "id": 5,
          "value": 3.75
        },
        {
          "id": 6,
          "value": 5.0
        },
        {
          "id": 7,
          "value": 3.75
        },
        {
          "id": 8,
          "value": 0.0
        },
        {
          "id": 9,
          "value": 0.0
        },
        {
          "id": 10,
          "value": 0.0
        },
        {
          "id": 11,
          "value": 0.0
        }
      ],
      "leftModuleId": 269,
      "rightModuleId": 292,
      "pos": [
        23,
        2
      ]
    },
    {
      "id": 269,
      "plugin": "Fundamental",
      "version": "1.4.0",
      "model": "Mutes",
      "params": [
        {
          "id": 0,
          "value": 0.0
        },
        {
          "id": 1,
          "value": 0.0
        },
        {
          "id": 2,
          "value": 0.0
        },
        {
          "id": 3,
          "value": 0.0
        },
        {
          "id": 4,
          "value": 0.0
        },
        {
          "id": 5,
          "value": 0.0
        },
        {
          "id": 6,
          "value": 0.0
        },
        {
          "id": 7,
          "value": 0.0
        },
        {
          "id": 8,
          "value": 0.0
        },
        {
          "id": 9,
          "value": 0.0
        }
      ],
      "leftModuleId": 267,
      "rightModuleId": 268,
      "data": {
        "states": [
          true,
          true,
          true,
          true,
          true,
          true,
          true,
          true,
          true,
          true
        ]
      },
      "pos": [
        15,
        2
      ]
    },
    {
      "id": 271,
      "plugin": "Fundamental",
      "version": "1.4.0",
      "model": "Noise",
      "params": [],
      "leftModuleId": 211,
      "rightModuleId": 276,
      "pos": [
        111,
        1
      ]
    },
    {
      "id": 272,
      "plugin": "Bogaudio",
      "version": "1.1.25",
      "model": "Bogaudio-ADSR",
      "params": [
        {
          "id": 0,
          "value": 0.123420984
        },
        {
          "id": 1,
          "value": 0.377730042
        },
        {
          "id": 2,
          "value": 0.875499845
        },
        {
          "id": 3,
          "value": 0.316229999
        },
        {
          "id": 4,
          "value": 0.0
        }
      ],
      "leftModuleId": 274,
      "rightModuleId": 241,
      "data": {
        "invert": 1.0
      },
      "pos": [
        125,
        1
      ]
    },
    {
      "id": 274,
      "plugin": "LittleUtils",
      "version": "1.0.2",
      "model": "PulseGenerator",
      "params": [
        {
          "id": 0,
          "value": 6.95000029
        },
        {
          "id": 1,
          "value": 0.0
        },
        {
          "id": 2,
          "value": 1.0
        }
      ],
      "leftModuleId": 276,
      "rightModuleId": 272,
      "data": {
        "realtimeUpdate": true,
        "allowRetrigger": true
      },
      "pos": [
        122,
        1
      ]
    },
    {
      "id": 276,
      "plugin": "TechTechTechnologies",
      "version": "1.0.0",
      "model": "Prometheus2",
      "params": [
        {
          "id": 0,
          "value": 0.0
        },
        {
          "id": 1,
          "value": 0.0
        },
        {
          "id": 2,
          "value": 0.0
        },
        {
          "id": 3,
          "value": 0.100000001
        },
        {
          "id": 4,
          "value": 0.0
        },
        {
          "id": 5,
          "value": 0.0
        },
        {
          "id": 6,
          "value": 1.29400003
        },
        {
          "id": 7,
          "value": 1.0
        },
        {
          "id": 8,
          "value": 1.0
        },
        {
          "id": 9,
          "value": 1.0
        },
        {
          "id": 10,
          "value": -5.0
        },
        {
          "id": 11,
          "value": 0.0
        },
        {
          "id": 12,
          "value": 0.0
        }
      ],
      "leftModuleId": 271,
      "rightModuleId": 274,
      "pos": [
        114,
        1
      ]
    },
    {
      "id": 278,
      "plugin": "Bogaudio",
      "version": "1.1.25",
      "model": "Bogaudio-ADSR",
      "params": [
        {
          "id": 0,
          "value": 0.123420984
        },
        {
          "id": 1,
          "value": 0.377730042
        },
        {
          "id": 2,
          "value": 0.875499845
        },
        {
          "id": 3,
          "value": 0.316229999
        },
        {
          "id": 4,
          "value": 0.0
        }
      ],
      "leftModuleId": 279,
      "data": {
        "invert": 1.0
      },
      "pos": [
        139,
        1
      ]
    },
    {
      "id": 279,
      "plugin": "LittleUtils",
      "version": "1.0.2",
      "model": "PulseGenerator",
      "params": [
        {
          "id": 0,
          "value": 6.95000029
        },
        {
          "id": 1,
          "value": 0.0
        },
        {
          "id": 2,
          "value": 1.0
        }
      ],
      "leftModuleId": 241,
      "rightModuleId": 278,
      "data": {
        "realtimeUpdate": true,
        "allowRetrigger": true
      },
      "pos": [
        136,
        1
      ]
    },
    {
      "id": 285,
      "plugin": "Bogaudio",
      "version": "1.1.25",
      "model": "Bogaudio-LFO",
      "params": [
        {
          "id": 0,
          "value": -4.21578693
        },
        {
          "id": 1,
          "value": 0.0
        },
        {
          "id": 2,
          "value": 0.0
        },
        {
          "id": 3,
          "value": -0.410999924
        },
        {
          "id": 4,
          "value": 1.0
        },
        {
          "id": 5,
          "value": 0.0825000033
        }
      ],
      "leftModuleId": 202,
      "pos": [
        81,
        0
      ]
    },
    {
      "id": 286,
      "plugin": "Bogaudio",
      "version": "1.1.25",
      "model": "Bogaudio-LFO",
      "params": [
        {
          "id": 0,
          "value": -4.84739876
        },
        {
          "id": 1,
          "value": 0.0
        },
        {
          "id": 2,
          "value": 0.0
        },
        {
          "id": 3,
          "value": -0.410999924
        },
        {
          "id": 4,
          "value": 0.240000069
        },
        {
          "id": 5,
          "value": 0.0990000069
        }
      ],
      "leftModuleId": 210,
      "rightModuleId": 208,
      "pos": [
        75,
        3
      ]
    },
    {
      "id": 287,
      "plugin": "Bogaudio",
      "version": "1.1.25",
      "model": "Bogaudio-Slew",
      "params": [
        {
          "id": 0,
          "value": 0.0419999957
        },
        {
          "id": 1,
          "value": 0.0
        },
        {
          "id": 2,
          "value": 0.0524999946
        },
        {
          "id": 3,
          "value": 0.0
        }
      ],
      "leftModuleId": 450,
      "rightModuleId": 477,
      "pos": [
        40,
        3
      ]
    },
    {
      "id": 288,
      "plugin": "NYSTHI",
      "version": "1.0.8",
      "model": "Surveillance",
      "params": [
        {
          "id": 0,
          "value": 1.0
        },
        {
          "id": 1,
          "value": 1.0
        },
        {
          "id": 2,
          "value": 1.0
        },
        {
          "id": 3,
          "value": 1.0
        },
        {
          "id": 4,
          "value": 0.0
        },
        {
          "id": 5,
          "value": 0.0
        },
        {
          "id": 6,
          "value": 0.0
        },
        {
          "id": 7,
          "value": 0.0
        },
        {
          "id": 8,
          "value": 0.0
        },
        {
          "id": 9,
          "value": 0.0
        },
        {
          "id": 10,
          "value": 1.0
        },
        {
          "id": 11,
          "value": 1.0
        }
      ],
      "leftModuleId": 463,
      "rightModuleId": 236,
      "pos": [
        51,
        4
      ]
    },
    {
      "id": 292,
      "plugin": "Bogaudio",
      "version": "1.1.25",
      "model": "Bogaudio-LFO",
      "params": [
        {
          "id": 0,
          "value": -2.03136253
        },
        {
          "id": 1,
          "value": 0.0
        },
        {
          "id": 2,
          "value": 0.0
        },
        {
          "id": 3,
          "value": -0.410999924
        },
        {
          "id": 4,
          "value": 0.75
        },
        {
          "id": 5,
          "value": 0.150000006
        }
      ],
      "leftModuleId": 268,
      "rightModuleId": 207,
      "pos": [
        43,
        2
      ]
    },
    {
      "id": 420,
      "plugin": "squinkylabs-plug1",
      "version": "1.0.5",
      "model": "squinkylabs-mixm",
      "params": [
        {
          "id": 0,
          "value": 0.70200026
        },
        {
          "id": 1,
          "value": 0.0
        },
        {
          "id": 2,
          "value": 0.5
        },
        {
          "id": 3,
          "value": 0.5
        },
        {
          "id": 4,
          "value": 0.5
        },
        {
          "id": 5,
          "value": 0.5
        },
        {
          "id": 6,
          "value": 0.0
        },
        {
          "id": 7,
          "value": 0.0
        },
        {
          "id": 8,
          "value": 0.0
        },
        {
          "id": 9,
          "value": 0.0
        },
        {
          "id": 10,
          "value": 0.0
        },
        {
          "id": 11,
          "value": 0.0
        },
        {
          "id": 12,
          "value": 0.0
        },
        {
          "id": 13,
          "value": 0.0
        },
        {
          "id": 14,
          "value": 0.0
        },
        {
          "id": 15,
          "value": 0.0
        },
        {
          "id": 16,
          "value": 0.0
        },
        {
          "id": 17,
          "value": 0.0
        },
        {
          "id": 18,
          "value": 0.0
        },
        {
          "id": 19,
          "value": 0.0
        },
        {
          "id": 20,
          "value": 0.0
        },
        {
          "id": 21,
          "value": 0.0
        },
        {
          "id": 22,
          "value": 0.0
        },
        {
          "id": 23,
          "value": 0.0
        },
        {
          "id": 24,
          "value": 0.0
        },
        {
          "id": 25,
          "value": 0.0
        },
        {
          "id": 26,
          "value": 0.0
        },
        {
          "id": 27,
          "value": 0.0
        },
        {
          "id": 28,
          "value": 0.0
        },
        {
          "id": 29,
          "value": 0.549999535
        },
        {
          "id": 30,
          "value": 0.0
        },
        {
          "id": 31,
          "value": 0.0
        },
        {
          "id": 32,
          "value": 0.0
        },
        {
          "id": 33,
          "value": 0.0
        },
        {
          "id": 34,
          "value": 0.0
        },
        {
          "id": 35,
          "value": 0.0
        },
        {
          "id": 36,
          "value": 0.0
        }
      ],
      "leftModuleId": 421,
      "rightModuleId": 429,
      "pos": [
        126,
        2
      ]
    },
    {
      "id": 421,
      "plugin": "squinkylabs-plug1",
      "version": "1.0.5",
      "model": "squinkylabs-mix4",
      "params": [
        {
          "id": 0,
          "value": 0.5
        },
        {
          "id": 1,
          "value": 0.776000857
        },
        {
          "id": 2,
          "value": 0.247999668
        },
        {
          "id": 3,
          "value": 0.5
        },
        {
          "id": 4,
          "value": 0.0
        },
        {
          "id": 5,
          "value": 0.0
        },
        {
          "id": 6,
          "value": 0.0
        },
        {
          "id": 7,
          "value": 0.0
        },
        {
          "id": 8,
          "value": 0.0
        },
        {
          "id": 9,
          "value": 0.0
        },
        {
          "id": 10,
          "value": 0.0
        },
        {
          "id": 11,
          "value": 0.0
        },
        {
          "id": 12,
          "value": 0.0
        },
        {
          "id": 13,
          "value": 0.0
        },
        {
          "id": 14,
          "value": 0.0
        },
        {
          "id": 15,
          "value": 0.0
        },
        {
          "id": 16,
          "value": 0.0
        },
        {
          "id": 17,
          "value": 0.0
        },
        {
          "id": 18,
          "value": 0.0
        },
        {
          "id": 19,
          "value": 1.0
        },
        {
          "id": 20,
          "value": 0.0
        },
        {
          "id": 21,
          "value": 0.0
        },
        {
          "id": 22,
          "value": 0.0
        },
        {
          "id": 23,
          "value": 0.0
        },
        {
          "id": 24,
          "value": 0.0
        },
        {
          "id": 25,
          "value": 0.0
        },
        {
          "id": 26,
          "value": 0.0
        },
        {
          "id": 27,
          "value": 0.0
        },
        {
          "id": 28,
          "value": 0.0
        },
        {
          "id": 29,
          "value": 0.0
        },
        {
          "id": 30,
          "value": 1.0
        },
        {
          "id": 31,
          "value": 0.0
        }
      ],
      "leftModuleId": 422,
      "rightModuleId": 420,
      "pos": [
        116,
        2
      ]
    },
    {
      "id": 422,
      "plugin": "squinkylabs-plug1",
      "version": "1.0.5",
      "model": "squinkylabs-mix4",
      "params": [
        {
          "id": 0,
          "value": 0.0
        },
        {
          "id": 1,
          "value": 0.0154687483
        },
        {
          "id": 2,
          "value": 0.0588749535
        },
        {
          "id": 3,
          "value": 0.876000226
        },
        {
          "id": 4,
          "value": 0.0
        },
        {
          "id": 5,
          "value": 0.0
        },
        {
          "id": 6,
          "value": 0.0
        },
        {
          "id": 7,
          "value": 0.0
        },
        {
          "id": 8,
          "value": 0.0
        },
        {
          "id": 9,
          "value": 0.0
        },
        {
          "id": 10,
          "value": 0.0
        },
        {
          "id": 11,
          "value": 0.0
        },
        {
          "id": 12,
          "value": 0.0
        },
        {
          "id": 13,
          "value": 0.0
        },
        {
          "id": 14,
          "value": 0.0
        },
        {
          "id": 15,
          "value": 0.0
        },
        {
          "id": 16,
          "value": 0.0
        },
        {
          "id": 17,
          "value": 0.0
        },
        {
          "id": 18,
          "value": 1.0
        },
        {
          "id": 19,
          "value": 0.339000016
        },
        {
          "id": 20,
          "value": 1.0
        },
        {
          "id": 21,
          "value": 0.0
        },
        {
          "id": 22,
          "value": 0.0
        },
        {
          "id": 23,
          "value": 0.0
        },
        {
          "id": 24,
          "value": 0.0
        },
        {
          "id": 25,
          "value": 0.0
        },
        {
          "id": 26,
          "value": 0.0
        },
        {
          "id": 27,
          "value": 0.0
        },
        {
          "id": 28,
          "value": 0.0
        },
        {
          "id": 29,
          "value": 0.0
        },
        {
          "id": 30,
          "value": 0.0
        },
        {
          "id": 31,
          "value": 0.0
        }
      ],
      "leftModuleId": 478,
      "rightModuleId": 421,
      "pos": [
        106,
        2
      ]
    },
    {
      "id": 429,
      "plugin": "Valley",
      "version": "1.0.1",
      "model": "Plateau",
      "params": [
        {
          "id": 0,
          "value": 0.0
        },
        {
          "id": 1,
          "value": 1.0
        },
        {
          "id": 2,
          "value": 0.0
        },
        {
          "id": 3,
          "value": 10.0
        },
        {
          "id": 4,
          "value": 10.0
        },
        {
          "id": 5,
          "value": 0.5
        },
        {
          "id": 6,
          "value": 10.0
        },
        {
          "id": 7,
          "value": 0.549950004
        },
        {
          "id": 8,
          "value": 10.0
        },
        {
          "id": 9,
          "value": 10.0
        },
        {
          "id": 10,
          "value": 0.0
        },
        {
          "id": 11,
          "value": 0.5
        },
        {
          "id": 12,
          "value": 0.5
        },
        {
          "id": 13,
          "value": 0.0
        },
        {
          "id": 14,
          "value": 0.0
        },
        {
          "id": 15,
          "value": 0.0
        },
        {
          "id": 16,
          "value": 0.0
        },
        {
          "id": 17,
          "value": 0.0
        },
        {
          "id": 18,
          "value": 0.0
        },
        {
          "id": 19,
          "value": 0.0
        },
        {
          "id": 20,
          "value": 0.0
        },
        {
          "id": 21,
          "value": 0.0
        },
        {
          "id": 22,
          "value": 0.0
        },
        {
          "id": 23,
          "value": 0.0
        },
        {
          "id": 24,
          "value": 0.0
        },
        {
          "id": 25,
          "value": 0.0
        },
        {
          "id": 26,
          "value": 0.0
        },
        {
          "id": 27,
          "value": 0.0
        },
        {
          "id": 28,
          "value": 0.0
        },
        {
          "id": 29,
          "value": 0.0
        },
        {
          "id": 30,
          "value": 1.0
        }
      ],
      "leftModuleId": 420,
      "rightModuleId": 252,
      "data": {
        "frozen": false,
        "freezeToggle": false,
        "panelStyle": 0,
        "tuned": 0,
        "diffuseInput": 1,
        "preDelayCVSens": 0,
        "inputSensitivity": 0,
        "outputSaturation": 0
      },
      "pos": [
        143,
        2
      ]
    },
    {
      "id": 430,
      "plugin": "NYSTHI",
      "version": "1.0.8",
      "model": "CONVOLVZILLA",
      "params": [
        {
          "id": 0,
          "value": 0.0
        },
        {
          "id": 1,
          "value": 0.0
        },
        {
          "id": 2,
          "value": 0.0
        },
        {
          "id": 3,
          "value": 0.0
        },
        {
          "id": 4,
          "value": 0.0
        },
        {
          "id": 5,
          "value": 0.0
        },
        {
          "id": 6,
          "value": 0.0
        },
        {
          "id": 7,
          "value": 0.0
        },
        {
          "id": 8,
          "value": 0.0
        },
        {
          "id": 9,
          "value": 0.5
        },
        {
          "id": 10,
          "value": 0.100000001
        },
        {
          "id": 11,
          "value": 0.5
        }
      ],
      "leftModuleId": 438,
      "rightModuleId": 439,
      "data": {
        "m_bypassed": false,
        "m_active": true,
        "m_meno0db": false,
        "m_meno6db": true,
        "m_meno24db": false,
        "m_video_inverted": false,
        "m_normalize_impulse": true,
        "m_clean_zero_tails": true,
        "m_use_dc_block": true,
        "m_original_file_name": "impulse1.wav",
        "m_input_volume": 0.369726568,
        "m_output_volume": 1.0,
        "m_drywet": 0.5,
        "m_convolver_block_size": 1024,
        "m_thread_high_priority": false
      },
      "pos": [
        114,
        3
      ]
    },
    {
      "id": 438,
      "plugin": "TechTechTechnologies",
      "version": "1.0.0",
      "model": "Prometheus2",
      "params": [
        {
          "id": 0,
          "value": 0.0
        },
        {
          "id": 1,
          "value": 1.0
        },
        {
          "id": 2,
          "value": 1.0
        },
        {
          "id": 3,
          "value": 3.02297664
        },
        {
          "id": 4,
          "value": 0.0
        },
        {
          "id": 5,
          "value": 0.0
        },
        {
          "id": 6,
          "value": 4.81600571
        },
        {
          "id": 7,
          "value": 0.919499815
        },
        {
          "id": 8,
          "value": 1.0
        },
        {
          "id": 9,
          "value": 0.0
        },
        {
          "id": 10,
          "value": -2.0
        },
        {
          "id": 11,
          "value": 0.0
        },
        {
          "id": 12,
          "value": 0.0
        }
      ],
      "leftModuleId": 460,
      "rightModuleId": 430,
      "pos": [
        106,
        3
      ]
    },
    {
      "id": 439,
      "plugin": "Bogaudio",
      "version": "1.1.25",
      "model": "Bogaudio-AnalyzerXL",
      "params": [],
      "leftModuleId": 430,
      "data": {
        "range": -0.75,
        "range_db": 80.0,
        "smooth": 0.100000001,
        "quality": "ultra",
        "window": "none"
      },
      "pos": [
        135,
        3
      ]
    },
    {
      "id": 441,
      "plugin": "Befaco",
      "version": "1.0.0",
      "model": "DualAtenuverter",
      "params": [
        {
          "id": 0,
          "value": -1.0
        },
        {
          "id": 1,
          "value": 0.0
        },
        {
          "id": 2,
          "value": 0.0
        },
        {
          "id": 3,
          "value": 10.0
        }
      ],
      "leftModuleId": 449,
      "pos": [
        27,
        4
      ]
    },
    {
      "id": 442,
      "plugin": "ImpromptuModular",
      "version": "1.1.3",
      "model": "Clocked",
      "params": [
        {
          "id": 0,
          "value": 90.0
        },
        {
          "id": 1,
          "value": 5.0
        },
        {
          "id": 2,
          "value": -7.0
        },
        {
          "id": 3,
          "value": -17.0
        },
        {
          "id": 4,
          "value": 0.0
        },
        {
          "id": 5,
          "value": 0.0
        },
        {
          "id": 6,
          "value": 0.0
        },
        {
          "id": 7,
          "value": 0.0
        },
        {
          "id": 8,
          "value": 0.5
        },
        {
          "id": 9,
          "value": 0.5
        },
        {
          "id": 10,
          "value": 0.5
        },
        {
          "id": 11,
          "value": 0.5
        },
        {
          "id": 12,
          "value": 0.0
        },
        {
          "id": 13,
          "value": 0.0
        },
        {
          "id": 14,
          "value": 0.0
        },
        {
          "id": 15,
          "value": 0.0
        },
        {
          "id": 16,
          "value": 0.0
        },
        {
          "id": 17,
          "value": 0.0
        },
        {
          "id": 18,
          "value": 0.0
        },
        {
          "id": 19,
          "value": 0.0
        }
      ],
      "rightModuleId": 474,
      "data": {
        "panelTheme": 0,
        "running": true,
        "displayDelayNoteMode": true,
        "bpmDetectionMode": false,
        "restartOnStopStartRun": 0,
        "sendResetOnRestart": false,
        "ppqn": 4,
        "resetClockOutputsHigh": true,
        "momentaryRunInput": true
      },
      "pos": [
        2,
        3
      ]
    },
    {
      "id": 449,
      "plugin": "NYSTHI",
      "version": "1.0.8",
      "model": "QuadSimpler",
      "params": [
        {
          "id": 0,
          "value": 0.0
        },
        {
          "id": 1,
          "value": 0.0
        },
        {
          "id": 2,
          "value": 0.0
        },
        {
          "id": 3,
          "value": 0.0
        },
        {
          "id": 4,
          "value": 0.0
        },
        {
          "id": 5,
          "value": 0.0
        },
        {
          "id": 6,
          "value": 0.0
        },
        {
          "id": 7,
          "value": 0.0
        },
        {
          "id": 8,
          "value": 0.0
        },
        {
          "id": 9,
          "value": 0.0
        },
        {
          "id": 10,
          "value": 0.0
        },
        {
          "id": 11,
          "value": 0.0
        },
        {
          "id": 12,
          "value": 0.0
        },
        {
          "id": 13,
          "value": 0.0
        },
        {
          "id": 14,
          "value": 0.0
        },
        {
          "id": 15,
          "value": 0.0
        },
        {
          "id": 16,
          "value": 0.0
        },
        {
          "id": 17,
          "value": 0.0
        },
        {
          "id": 18,
          "value": 0.0
        },
        {
          "id": 19,
          "value": 0.0
        },
        {
          "id": 20,
          "value": 0.0
        },
        {
          "id": 21,
          "value": 0.0
        },
        {
          "id": 22,
          "value": 0.0
        },
        {
          "id": 23,
          "value": 0.0
        },
        {
          "id": 24,
          "value": 0.0
        },
        {
          "id": 25,
          "value": 1.0
        },
        {
          "id": 26,
          "value": 1.0
        },
        {
          "id": 27,
          "value": 1.0
        },
        {
          "id": 28,
          "value": 1.0
        },
        {
          "id": 29,
          "value": 0.0
        },
        {
          "id": 30,
          "value": 1.0
        },
        {
          "id": 31,
          "value": 1.0
        },
        {
          "id": 32,
          "value": 1.0
        },
        {
          "id": 33,
          "value": 1.0
        },
        {
          "id": 34,
          "value": 0.0
        },
        {
          "id": 35,
          "value": 0.5
        },
        {
          "id": 36,
          "value": 0.5
        },
        {
          "id": 37,
          "value": 0.5
        },
        {
          "id": 38,
          "value": 0.5
        },
        {
          "id": 39,
          "value": 0.0
        },
        {
          "id": 40,
          "value": 0.0
        },
        {
          "id": 41,
          "value": 0.0
        },
        {
          "id": 42,
          "value": 0.0
        },
        {
          "id": 43,
          "value": 0.0
        },
        {
          "id": 44,
          "value": 0.0
        },
        {
          "id": 45,
          "value": 1.0
        },
        {
          "id": 46,
          "value": 1.0
        },
        {
          "id": 47,
          "value": 1.0
        },
        {
          "id": 48,
          "value": 1.0
        },
        {
          "id": 49,
          "value": 0.0
        },
        {
          "id": 50,
          "value": 1.0
        }
      ],
      "leftModuleId": 475,
      "rightModuleId": 441,
      "data": {
        "m_busy_mode": false,
        "m_exclude_from_mix": false,
        "nysthi_id0": "XANOODA_8W1Dtvix",
        "m_nysthi_file_id0": "/home/wlaub/.Rack/plugins-v1/NYSTHI/cache/XANOODA_8W1Dtvix_20191223_134608_pDZrmz.wav",
        "m_gated0": false,
        "m_oneshot0": false,
        "m_original_file_name0": "",
        "m_cv_can_be_negative": false,
        "nysthi_id1": "XANOODA_0mY0fNXE",
        "m_nysthi_file_id1": "/home/wlaub/.Rack/plugins-v1/NYSTHI/cache/XANOODA_0mY0fNXE_20191223_134608_l0SYnp.wav",
        "m_gated1": false,
        "m_oneshot1": false,
        "m_original_file_name1": "",
        "nysthi_id2": "XANOODA_1U1xSSYQ",
        "m_nysthi_file_id2": "/home/wlaub/.Rack/plugins-v1/NYSTHI/cache/XANOODA_1U1xSSYQ_20191223_134608_T8PL9A.wav",
        "m_gated2": false,
        "m_oneshot2": false,
        "m_original_file_name2": "",
        "nysthi_id3": "XANOODA_73MQBduG",
        "m_nysthi_file_id3": "/home/wlaub/.Rack/plugins-v1/NYSTHI/cache/XANOODA_73MQBduG_20191223_134608_qfRyWs.wav",
        "m_gated3": false,
        "m_oneshot3": false,
        "m_original_file_name3": ""
      },
      "pos": [
        19,
        4
      ]
    },
    {
      "id": 450,
      "plugin": "Bogaudio",
      "version": "1.1.25",
      "model": "Bogaudio-AddrSeq",
      "params": [
        {
          "id": 0,
          "value": 7.0
        },
        {
          "id": 1,
          "value": 1.0
        },
        {
          "id": 2,
          "value": 0.0
        },
        {
          "id": 3,
          "value": 0.75
        },
        {
          "id": 4,
          "value": 0.375
        },
        {
          "id": 5,
          "value": 0.25
        },
        {
          "id": 6,
          "value": 0.25
        },
        {
          "id": 7,
          "value": 0.25
        },
        {
          "id": 8,
          "value": 0.25
        },
        {
          "id": 9,
          "value": 0.25
        },
        {
          "id": 10,
          "value": 0.0
        }
      ],
      "rightModuleId": 287,
      "data": {
        "select_on_clock": false,
        "triggered_select": false,
        "range_offset": 0.0,
        "range_scale": 10.0
      },
      "pos": [
        34,
        3
      ]
    },
    {
      "id": 451,
      "plugin": "Bogaudio",
      "version": "1.1.25",
      "model": "Bogaudio-AddrSeq",
      "params": [
        {
          "id": 0,
          "value": 7.0
        },
        {
          "id": 1,
          "value": 1.0
        },
        {
          "id": 2,
          "value": 0.0
        },
        {
          "id": 3,
          "value": 0.13499999
        },
        {
          "id": 4,
          "value": 0.357000053
        },
        {
          "id": 5,
          "value": 0.816000164
        },
        {
          "id": 6,
          "value": 0.0
        },
        {
          "id": 7,
          "value": 0.371999949
        },
        {
          "id": 8,
          "value": 0.744000196
        },
        {
          "id": 9,
          "value": 0.416999966
        },
        {
          "id": 10,
          "value": 0.0
        }
      ],
      "rightModuleId": 452,
      "data": {
        "select_on_clock": false,
        "triggered_select": false,
        "range_offset": 0.0,
        "range_scale": 1.0
      },
      "pos": [
        81,
        4
      ]
    },
    {
      "id": 452,
      "plugin": "Fundamental",
      "version": "1.4.0",
      "model": "Quantizer",
      "params": [],
      "leftModuleId": 451,
      "rightModuleId": 453,
      "data": {
        "enabledNotes": [
          false,
          false,
          true,
          false,
          false,
          true,
          false,
          false,
          false,
          true,
          false,
          false
        ]
      },
      "pos": [
        87,
        4
      ]
    },
    {
      "id": 453,
      "plugin": "Bogaudio",
      "version": "1.1.25",
      "model": "Bogaudio-Manual",
      "params": [
        {
          "id": 0,
          "value": 0.0
        }
      ],
      "leftModuleId": 452,
      "rightModuleId": 456,
      "data": {
        "triggerOnLoad": false,
        "shouldTriggerOnLoad": true
      },
      "pos": [
        90,
        4
      ]
    },
    {
      "id": 454,
      "plugin": "TechTechTechnologies",
      "version": "1.0.0",
      "model": "Prometheus2",
      "params": [
        {
          "id": 0,
          "value": 1.0
        },
        {
          "id": 1,
          "value": 1.0
        },
        {
          "id": 2,
          "value": 0.0
        },
        {
          "id": 3,
          "value": 3.02297664
        },
        {
          "id": 4,
          "value": 0.0
        },
        {
          "id": 5,
          "value": 0.0
        },
        {
          "id": 6,
          "value": 5.15800667
        },
        {
          "id": 7,
          "value": 0.919499815
        },
        {
          "id": 8,
          "value": 1.0
        },
        {
          "id": 9,
          "value": 0.0
        },
        {
          "id": 10,
          "value": -1.0
        },
        {
          "id": 11,
          "value": 0.0
        },
        {
          "id": 12,
          "value": 0.0
        }
      ],
      "leftModuleId": 455,
      "rightModuleId": 457,
      "pos": [
        99,
        4
      ]
    },
    {
      "id": 455,
      "plugin": "Fundamental",
      "version": "1.4.0",
      "model": "Octave",
      "params": [
        {
          "id": 0,
          "value": 0.0
        }
      ],
      "leftModuleId": 456,
      "rightModuleId": 454,
      "pos": [
        96,
        4
      ]
    },
    {
      "id": 456,
      "plugin": "Bogaudio",
      "version": "1.1.25",
      "model": "Bogaudio-ADSR",
      "params": [
        {
          "id": 0,
          "value": 0.0544209331
        },
        {
          "id": 1,
          "value": 0.316229999
        },
        {
          "id": 2,
          "value": 1.0
        },
        {
          "id": 3,
          "value": 0.190229967
        },
        {
          "id": 4,
          "value": 0.0
        }
      ],
      "leftModuleId": 453,
      "rightModuleId": 455,
      "data": {
        "invert": 1.0
      },
      "pos": [
        93,
        4
      ]
    },
    {
      "id": 457,
      "plugin": "Bogaudio",
      "version": "1.1.25",
      "model": "Bogaudio-SampleHold",
      "params": [
        {
          "id": 0,
          "value": 0.0
        },
        {
          "id": 1,
          "value": 0.0
        },
        {
          "id": 2,
          "value": 0.0
        },
        {
          "id": 3,
          "value": 0.0
        },
        {
          "id": 4,
          "value": 0.0
        },
        {
          "id": 5,
          "value": 0.0
        }
      ],
      "leftModuleId": 454,
      "rightModuleId": 458,
      "data": {
        "noise_type": 0,
        "range_offset": 1.0,
        "range_scale": 1.5
      },
      "pos": [
        107,
        4
      ]
    },
    {
      "id": 458,
      "plugin": "Fundamental",
      "version": "1.4.0",
      "model": "Scope",
      "params": [
        {
          "id": 0,
          "value": 0.0
        },
        {
          "id": 1,
          "value": 0.0
        },
        {
          "id": 2,
          "value": 0.0
        },
        {
          "id": 3,
          "value": 0.0
        },
        {
          "id": 4,
          "value": 16.0
        },
        {
          "id": 5,
          "value": 0.0
        },
        {
          "id": 6,
          "value": 0.0
        },
        {
          "id": 7,
          "value": 0.0
        }
      ],
      "leftModuleId": 457,
      "rightModuleId": 464,
      "data": {
        "lissajous": 0,
        "external": 0
      },
      "pos": [
        110,
        4
      ]
    },
    {
      "id": 460,
      "plugin": "Befaco",
      "version": "1.0.0",
      "model": "ABC",
      "params": [
        {
          "id": 0,
          "value": 1.0
        },
        {
          "id": 1,
          "value": -1.0
        },
        {
          "id": 2,
          "value": 0.0
        },
        {
          "id": 3,
          "value": 0.0
        }
      ],
      "rightModuleId": 438,
      "pos": [
        100,
        3
      ]
    },
    {
      "id": 461,
      "plugin": "Bogaudio",
      "version": "1.1.25",
      "model": "Bogaudio-LLFO",
      "params": [
        {
          "id": 0,
          "value": -3.35329056
        },
        {
          "id": 1,
          "value": 0.0
        },
        {
          "id": 2,
          "value": 0.0
        },
        {
          "id": 3,
          "value": 0.0
        },
        {
          "id": 4,
          "value": 1.0
        }
      ],
      "pos": [
        88,
        2
      ]
    },
    {
      "id": 462,
      "plugin": "Fundamental",
      "version": "1.4.0",
      "model": "Mutes",
      "params": [
        {
          "id": 0,
          "value": 0.0
        },
        {
          "id": 1,
          "value": 0.0
        },
        {
          "id": 2,
          "value": 0.0
        },
        {
          "id": 3,
          "value": 0.0
        },
        {
          "id": 4,
          "value": 0.0
        },
        {
          "id": 5,
          "value": 0.0
        },
        {
          "id": 6,
          "value": 0.0
        },
        {
          "id": 7,
          "value": 0.0
        },
        {
          "id": 8,
          "value": 0.0
        },
        {
          "id": 9,
          "value": 0.0
        }
      ],
      "rightModuleId": 210,
      "data": {
        "states": [
          true,
          true,
          true,
          true,
          true,
          true,
          true,
          true,
          true,
          true
        ]
      },
      "pos": [
        57,
        3
      ]
    },
    {
      "id": 463,
      "plugin": "Core",
      "version": "1.1.6",
      "model": "Notes",
      "params": [],
      "rightModuleId": 288,
      "text": "1 = VOCALS\n2 = RASPS\n3 = DRONE \n4 = FEEDBACK\n5 = MIX\n6 =\n7 =\n8 =\n9 = \n10 = MASTER - MIC\n",
      "pos": [
        35,
        4
      ]
    },
    {
      "id": 464,
      "plugin": "Fundamental",
      "version": "1.4.0",
      "model": "VCA",
      "params": [
        {
          "id": 0,
          "value": 1.0
        },
        {
          "id": 1,
          "value": 1.0
        }
      ],
      "leftModuleId": 458,
      "rightModuleId": 465,
      "pos": [
        123,
        4
      ]
    },
    {
      "id": 465,
      "plugin": "Fundamental",
      "version": "1.4.0",
      "model": "VCA",
      "params": [
        {
          "id": 0,
          "value": 1.0
        },
        {
          "id": 1,
          "value": 0.461500376
        }
      ],
      "leftModuleId": 464,
      "rightModuleId": 466,
      "pos": [
        128,
        4
      ]
    },
    {
      "id": 466,
      "plugin": "Fundamental",
      "version": "1.4.0",
      "model": "Merge",
      "params": [],
      "leftModuleId": 465,
      "rightModuleId": 467,
      "data": {
        "channels": -1
      },
      "pos": [
        133,
        4
      ]
    },
    {
      "id": 467,
      "plugin": "Befaco",
      "version": "1.0.0",
      "model": "DualAtenuverter",
      "params": [
        {
          "id": 0,
          "value": 1.0
        },
        {
          "id": 1,
          "value": -4.0
        },
        {
          "id": 2,
          "value": 1.0
        },
        {
          "id": 3,
          "value": -5.0
        }
      ],
      "leftModuleId": 466,
      "rightModuleId": 468,
      "pos": [
        138,
        4
      ]
    },
    {
      "id": 468,
      "plugin": "Fundamental",
      "version": "1.4.0",
      "model": "Sum",
      "params": [
        {
          "id": 0,
          "value": 1.0
        }
      ],
      "leftModuleId": 467,
      "rightModuleId": 469,
      "pos": [
        143,
        4
      ]
    },
    {
      "id": 469,
      "plugin": "Befaco",
      "version": "1.0.0",
      "model": "DualAtenuverter",
      "params": [
        {
          "id": 0,
          "value": -0.37599951
        },
        {
          "id": 1,
          "value": 10.0
        },
        {
          "id": 2,
          "value": -1.0
        },
        {
          "id": 3,
          "value": 5.06999683
        }
      ],
      "leftModuleId": 468,
      "pos": [
        146,
        4
      ]
    },
    {
      "id": 470,
      "plugin": "Fundamental",
      "version": "1.4.0",
      "model": "MidSide",
      "params": [
        {
          "id": 0,
          "value": 1.0
        },
        {
          "id": 1,
          "value": 1.0
        }
      ],
      "rightModuleId": 472,
      "pos": [
        152,
        4
      ]
    },
    {
      "id": 472,
      "plugin": "Bogaudio",
      "version": "1.1.25",
      "model": "Bogaudio-ADSR",
      "params": [
        {
          "id": 0,
          "value": 0.0739210024
        },
        {
          "id": 1,
          "value": 0.325230002
        },
        {
          "id": 2,
          "value": 0.00300000003
        },
        {
          "id": 3,
          "value": 0.382229954
        },
        {
          "id": 4,
          "value": 0.0
        }
      ],
      "leftModuleId": 470,
      "rightModuleId": 473,
      "data": {
        "invert": 1.0
      },
      "pos": [
        157,
        4
      ]
    },
    {
      "id": 473,
      "plugin": "Fundamental",
      "version": "1.4.0",
      "model": "VCA-1",
      "params": [
        {
          "id": 0,
          "value": 1.0
        },
        {
          "id": 1,
          "value": 1.0
        }
      ],
      "leftModuleId": 472,
      "pos": [
        160,
        4
      ]
    },
    {
      "id": 474,
      "plugin": "MockbaModular",
      "version": "1.1.3",
      "model": "Dividah",
      "params": [],
      "leftModuleId": 442,
      "rightModuleId": 476,
      "pos": [
        22,
        3
      ]
    },
    {
      "id": 475,
      "plugin": "Fundamental",
      "version": "1.4.0",
      "model": "Scope",
      "params": [
        {
          "id": 0,
          "value": 0.0
        },
        {
          "id": 1,
          "value": 0.0
        },
        {
          "id": 2,
          "value": 0.0
        },
        {
          "id": 3,
          "value": 0.0
        },
        {
          "id": 4,
          "value": 8.49499893
        },
        {
          "id": 5,
          "value": 0.0
        },
        {
          "id": 6,
          "value": 0.0
        },
        {
          "id": 7,
          "value": 0.0
        }
      ],
      "rightModuleId": 449,
      "data": {
        "lissajous": 0,
        "external": 0
      },
      "pos": [
        6,
        4
      ]
    },
    {
      "id": 476,
      "plugin": "MockbaModular",
      "version": "1.1.3",
      "model": "Dividah",
      "params": [],
      "leftModuleId": 474,
      "pos": [
        24,
        3
      ]
    },
    {
      "id": 477,
      "plugin": "NYSTHI",
      "version": "1.0.8",
      "model": "complexSimpler",
      "params": [
        {
          "id": 0,
          "value": 0.330000013
        },
        {
          "id": 1,
          "value": 0.00719996076
        },
        {
          "id": 2,
          "value": 0.0
        },
        {
          "id": 3,
          "value": 0.0
        },
        {
          "id": 4,
          "value": 1.0
        },
        {
          "id": 5,
          "value": 0.0
        },
        {
          "id": 6,
          "value": 0.0
        },
        {
          "id": 7,
          "value": 1.0
        },
        {
          "id": 8,
          "value": 0.0
        },
        {
          "id": 9,
          "value": 0.0
        },
        {
          "id": 10,
          "value": 0.0
        },
        {
          "id": 11,
          "value": 1.0
        },
        {
          "id": 12,
          "value": 2.0
        },
        {
          "id": 13,
          "value": 0.0
        },
        {
          "id": 14,
          "value": 0.0
        },
        {
          "id": 15,
          "value": 0.0
        }
      ],
      "leftModuleId": 287,
      "data": {
        "m_busy_mode": false,
        "nysthi_id": "SIMPLER_Dd1YCGFH",
        "m_nysthi_file_id": "/home/wlaub/.Rack/plugins-v1/NYSTHI/cache/SIMPLER_Dd1YCGFH_20191224_223830_nBIZhZ.wav",
        "m_original_file_name": "",
        "m_gated": false,
        "m_cv_can_be_negative": false
      },
      "pos": [
        43,
        3
      ]
    },
    {
      "id": 478,
      "plugin": "squinkylabs-plug1",
      "version": "1.0.5",
      "model": "squinkylabs-mixStereo",
      "params": [
        {
          "id": 0,
          "value": 0.0
        },
        {
          "id": 1,
          "value": 0.882000625
        },
        {
          "id": 2,
          "value": 0.0
        },
        {
          "id": 3,
          "value": 0.0
        },
        {
          "id": 4,
          "value": 0.0
        },
        {
          "id": 5,
          "value": 0.0
        },
        {
          "id": 6,
          "value": 0.0
        },
        {
          "id": 7,
          "value": 0.0
        },
        {
          "id": 8,
          "value": 0.0
        },
        {
          "id": 9,
          "value": 0.0
        },
        {
          "id": 10,
          "value": 1.0
        },
        {
          "id": 11,
          "value": 0.0
        },
        {
          "id": 12,
          "value": 0.0
        },
        {
          "id": 13,
          "value": 0.0
        },
        {
          "id": 14,
          "value": 0.0
        },
        {
          "id": 15,
          "value": 0.0
        },
        {
          "id": 16,
          "value": 1.0
        },
        {
          "id": 17,
          "value": 0.0
        }
      ],
      "rightModuleId": 422,
      "pos": [
        98,
        2
      ]
    }
  ],
  "cables": [
    {
      "id": 676,
      "outputModuleId": 208,
      "outputId": 4,
      "inputModuleId": 207,
      "inputId": 2,
      "color": "#0c8e15"
    },
    {
      "id": 677,
      "outputModuleId": 207,
      "outputId": 0,
      "inputModuleId": 209,
      "inputId": 4,
      "color": "#c91847"
    },
    {
      "id": 678,
      "outputModuleId": 208,
      "outputId": 4,
      "inputModuleId": 209,
      "inputId": 2,
      "color": "#c9b70e"
    },
    {
      "id": 679,
      "outputModuleId": 210,
      "outputId": 4,
      "inputModuleId": 207,
      "inputId": 0,
      "color": "#0c8e15"
    },
    {
      "id": 681,
      "outputModuleId": 211,
      "outputId": 4,
      "inputModuleId": 211,
      "inputId": 12,
      "color": "#0986ad"
    },
    {
      "id": 682,
      "outputModuleId": 211,
      "outputId": 0,
      "inputModuleId": 211,
      "inputId": 8,
      "color": "#c91847"
    },
    {
      "id": 685,
      "outputModuleId": 202,
      "outputId": 4,
      "inputModuleId": 211,
      "inputId": 0,
      "color": "#0c8e15"
    },
    {
      "id": 687,
      "outputModuleId": 212,
      "outputId": 2,
      "inputModuleId": 1,
      "inputId": 0,
      "color": "#0986ad"
    },
    {
      "id": 778,
      "outputModuleId": 236,
      "outputId": 0,
      "inputModuleId": 236,
      "inputId": 0,
      "color": "#c9b70e"
    },
    {
      "id": 779,
      "outputModuleId": 236,
      "outputId": 0,
      "inputModuleId": 236,
      "inputId": 1,
      "color": "#0c8e15"
    },
    {
      "id": 812,
      "outputModuleId": 206,
      "outputId": 0,
      "inputModuleId": 246,
      "inputId": 0,
      "color": "#0c8e15"
    },
    {
      "id": 813,
      "outputModuleId": 246,
      "outputId": 0,
      "inputModuleId": 211,
      "inputId": 4,
      "color": "#0986ad"
    },
    {
      "id": 814,
      "outputModuleId": 246,
      "outputId": 1,
      "inputModuleId": 211,
      "inputId": 5,
      "color": "#c9b70e"
    },
    {
      "id": 815,
      "outputModuleId": 211,
      "outputId": 1,
      "inputModuleId": 211,
      "inputId": 9,
      "color": "#c91847"
    },
    {
      "id": 816,
      "outputModuleId": 211,
      "outputId": 5,
      "inputModuleId": 211,
      "inputId": 13,
      "color": "#0986ad"
    },
    {
      "id": 820,
      "outputModuleId": 211,
      "outputId": 8,
      "inputModuleId": 207,
      "inputId": 4,
      "color": "#c9b70e"
    },
    {
      "id": 821,
      "outputModuleId": 210,
      "outputId": 4,
      "inputModuleId": 248,
      "inputId": 0,
      "color": "#0c8e15"
    },
    {
      "id": 822,
      "outputModuleId": 210,
      "outputId": 4,
      "inputModuleId": 249,
      "inputId": 0,
      "color": "#c91847"
    },
    {
      "id": 823,
      "outputModuleId": 208,
      "outputId": 4,
      "inputModuleId": 248,
      "inputId": 2,
      "color": "#0986ad"
    },
    {
      "id": 824,
      "outputModuleId": 208,
      "outputId": 4,
      "inputModuleId": 249,
      "inputId": 2,
      "color": "#c9b70e"
    },
    {
      "id": 825,
      "outputModuleId": 211,
      "outputId": 9,
      "inputModuleId": 248,
      "inputId": 4,
      "color": "#0c8e15"
    },
    {
      "id": 826,
      "outputModuleId": 248,
      "outputId": 0,
      "inputModuleId": 249,
      "inputId": 4,
      "color": "#c91847"
    },
    {
      "id": 832,
      "outputModuleId": 251,
      "outputId": 1,
      "inputModuleId": 245,
      "inputId": 1,
      "color": "#c9b70e"
    },
    {
      "id": 833,
      "outputModuleId": 251,
      "outputId": 0,
      "inputModuleId": 245,
      "inputId": 0,
      "color": "#0c8e15"
    },
    {
      "id": 688,
      "outputModuleId": 212,
      "outputId": 3,
      "inputModuleId": 1,
      "inputId": 1,
      "color": "#c9b70e"
    },
    {
      "id": 842,
      "outputModuleId": 255,
      "outputId": 0,
      "inputModuleId": 251,
      "inputId": 0,
      "color": "#c91847"
    },
    {
      "id": 843,
      "outputModuleId": 255,
      "outputId": 0,
      "inputModuleId": 251,
      "inputId": 1,
      "color": "#c9b70e"
    },
    {
      "id": 809,
      "outputModuleId": 245,
      "outputId": 0,
      "inputModuleId": 206,
      "inputId": 4,
      "color": "#c91847"
    },
    {
      "id": 680,
      "outputModuleId": 210,
      "outputId": 4,
      "inputModuleId": 209,
      "inputId": 0,
      "color": "#c91847"
    },
    {
      "id": 673,
      "outputModuleId": 196,
      "outputId": 0,
      "inputModuleId": 206,
      "inputId": 1,
      "color": "#0c8e15"
    },
    {
      "id": 874,
      "outputModuleId": 269,
      "outputId": 0,
      "inputModuleId": 268,
      "inputId": 4,
      "color": "#c9b70e"
    },
    {
      "id": 875,
      "outputModuleId": 269,
      "outputId": 1,
      "inputModuleId": 268,
      "inputId": 5,
      "color": "#0c8e15"
    },
    {
      "id": 876,
      "outputModuleId": 269,
      "outputId": 2,
      "inputModuleId": 268,
      "inputId": 6,
      "color": "#c91847"
    },
    {
      "id": 877,
      "outputModuleId": 269,
      "outputId": 3,
      "inputModuleId": 268,
      "inputId": 7,
      "color": "#0986ad"
    },
    {
      "id": 878,
      "outputModuleId": 222,
      "outputId": 1,
      "inputModuleId": 269,
      "inputId": 0,
      "color": "#c9b70e"
    },
    {
      "id": 879,
      "outputModuleId": 222,
      "outputId": 1,
      "inputModuleId": 269,
      "inputId": 1,
      "color": "#0c8e15"
    },
    {
      "id": 880,
      "outputModuleId": 222,
      "outputId": 1,
      "inputModuleId": 269,
      "inputId": 2,
      "color": "#c91847"
    },
    {
      "id": 881,
      "outputModuleId": 222,
      "outputId": 1,
      "inputModuleId": 269,
      "inputId": 3,
      "color": "#0986ad"
    },
    {
      "id": 895,
      "outputModuleId": 211,
      "outputId": 2,
      "inputModuleId": 211,
      "inputId": 10,
      "color": "#0c8e15"
    },
    {
      "id": 896,
      "outputModuleId": 211,
      "outputId": 6,
      "inputModuleId": 211,
      "inputId": 14,
      "color": "#c91847"
    },
    {
      "id": 897,
      "outputModuleId": 272,
      "outputId": 0,
      "inputModuleId": 211,
      "inputId": 2,
      "color": "#0986ad"
    },
    {
      "id": 894,
      "outputModuleId": 271,
      "outputId": 6,
      "inputModuleId": 211,
      "inputId": 6,
      "color": "#c9b70e"
    },
    {
      "id": 903,
      "outputModuleId": 274,
      "outputId": 0,
      "inputModuleId": 272,
      "inputId": 0,
      "color": "#0c8e15"
    },
    {
      "id": 904,
      "outputModuleId": 276,
      "outputId": 0,
      "inputModuleId": 274,
      "inputId": 0,
      "color": "#c91847"
    },
    {
      "id": 906,
      "outputModuleId": 211,
      "outputId": 3,
      "inputModuleId": 211,
      "inputId": 11,
      "color": "#c91847"
    },
    {
      "id": 907,
      "outputModuleId": 211,
      "outputId": 7,
      "inputModuleId": 211,
      "inputId": 15,
      "color": "#0986ad"
    },
    {
      "id": 908,
      "outputModuleId": 279,
      "outputId": 0,
      "inputModuleId": 278,
      "inputId": 0,
      "color": "#0c8e15"
    },
    {
      "id": 909,
      "outputModuleId": 278,
      "outputId": 0,
      "inputModuleId": 211,
      "inputId": 3,
      "color": "#c91847"
    },
    {
      "id": 910,
      "outputModuleId": 271,
      "outputId": 2,
      "inputModuleId": 211,
      "inputId": 7,
      "color": "#0986ad"
    },
    {
      "id": 911,
      "outputModuleId": 241,
      "outputId": 0,
      "inputModuleId": 279,
      "inputId": 0,
      "color": "#c9b70e"
    },
    {
      "id": 828,
      "outputModuleId": 285,
      "outputId": 4,
      "inputModuleId": 211,
      "inputId": 1,
      "color": "#c9b70e"
    },
    {
      "id": 938,
      "outputModuleId": 286,
      "outputId": 4,
      "inputModuleId": 207,
      "inputId": 1,
      "color": "#0986ad"
    },
    {
      "id": 939,
      "outputModuleId": 286,
      "outputId": 4,
      "inputModuleId": 209,
      "inputId": 1,
      "color": "#c9b70e"
    },
    {
      "id": 940,
      "outputModuleId": 286,
      "outputId": 4,
      "inputModuleId": 248,
      "inputId": 1,
      "color": "#0c8e15"
    },
    {
      "id": 941,
      "outputModuleId": 286,
      "outputId": 4,
      "inputModuleId": 249,
      "inputId": 1,
      "color": "#c91847"
    },
    {
      "id": 952,
      "outputModuleId": 288,
      "outputId": 3,
      "inputModuleId": 253,
      "inputId": 1,
      "color": "#0c8e15"
    },
    {
      "id": 1012,
      "outputModuleId": 252,
      "outputId": 0,
      "inputModuleId": 212,
      "inputId": 0,
      "color": "#0986ad"
    },
    {
      "id": 1023,
      "outputModuleId": 253,
      "outputId": 0,
      "inputModuleId": 212,
      "inputId": 1,
      "color": "#c91847"
    },
    {
      "id": 951,
      "outputModuleId": 288,
      "outputId": 3,
      "inputModuleId": 252,
      "inputId": 1,
      "color": "#c9b70e"
    },
    {
      "id": 1028,
      "outputModuleId": 288,
      "outputId": 4,
      "inputModuleId": 252,
      "inputId": 3,
      "color": "#c9b70e"
    },
    {
      "id": 1029,
      "outputModuleId": 288,
      "outputId": 4,
      "inputModuleId": 253,
      "inputId": 3,
      "color": "#0c8e15"
    },
    {
      "id": 885,
      "outputModuleId": 267,
      "outputId": 0,
      "inputModuleId": 268,
      "inputId": 3,
      "color": "#0986ad"
    },
    {
      "id": 884,
      "outputModuleId": 267,
      "outputId": 0,
      "inputModuleId": 268,
      "inputId": 2,
      "color": "#c91847"
    },
    {
      "id": 883,
      "outputModuleId": 267,
      "outputId": 0,
      "inputModuleId": 268,
      "inputId": 1,
      "color": "#0c8e15"
    },
    {
      "id": 882,
      "outputModuleId": 267,
      "outputId": 0,
      "inputModuleId": 268,
      "inputId": 0,
      "color": "#c9b70e"
    },
    {
      "id": 1379,
      "outputModuleId": 267,
      "outputId": 0,
      "inputModuleId": 269,
      "inputId": 9,
      "color": "#c9b70e"
    },
    {
      "id": 1387,
      "outputModuleId": 236,
      "outputId": 0,
      "inputModuleId": 420,
      "inputId": 9,
      "color": "#c9b70e"
    },
    {
      "id": 1388,
      "outputModuleId": 236,
      "outputId": 0,
      "inputModuleId": 420,
      "inputId": 8,
      "color": "#0c8e15"
    },
    {
      "id": 1389,
      "outputModuleId": 211,
      "outputId": 11,
      "inputModuleId": 420,
      "inputId": 3,
      "color": "#c91847"
    },
    {
      "id": 1390,
      "outputModuleId": 211,
      "outputId": 10,
      "inputModuleId": 420,
      "inputId": 2,
      "color": "#0986ad"
    },
    {
      "id": 1391,
      "outputModuleId": 249,
      "outputId": 0,
      "inputModuleId": 420,
      "inputId": 1,
      "color": "#c9b70e"
    },
    {
      "id": 1392,
      "outputModuleId": 209,
      "outputId": 0,
      "inputModuleId": 420,
      "inputId": 0,
      "color": "#0c8e15"
    },
    {
      "id": 1401,
      "outputModuleId": 268,
      "outputId": 0,
      "inputModuleId": 421,
      "inputId": 0,
      "color": "#c91847"
    },
    {
      "id": 1403,
      "outputModuleId": 268,
      "outputId": 2,
      "inputModuleId": 421,
      "inputId": 2,
      "color": "#c9b70e"
    },
    {
      "id": 1404,
      "outputModuleId": 268,
      "outputId": 3,
      "inputModuleId": 421,
      "inputId": 3,
      "color": "#0c8e15"
    },
    {
      "id": 1399,
      "outputModuleId": 236,
      "outputId": 0,
      "inputModuleId": 421,
      "inputId": 10,
      "color": "#c9b70e"
    },
    {
      "id": 1417,
      "outputModuleId": 420,
      "outputId": 6,
      "inputModuleId": 429,
      "inputId": 0,
      "color": "#0986ad"
    },
    {
      "id": 1418,
      "outputModuleId": 420,
      "outputId": 7,
      "inputModuleId": 429,
      "inputId": 1,
      "color": "#c9b70e"
    },
    {
      "id": 1432,
      "outputModuleId": 438,
      "outputId": 0,
      "inputModuleId": 430,
      "inputId": 0,
      "color": "#c9b70e"
    },
    {
      "id": 1435,
      "outputModuleId": 430,
      "outputId": 0,
      "inputModuleId": 422,
      "inputId": 2,
      "color": "#c9b70e"
    },
    {
      "id": 1438,
      "outputModuleId": 430,
      "outputId": 1,
      "inputModuleId": 438,
      "inputId": 4,
      "color": "#0986ad"
    },
    {
      "id": 1442,
      "outputModuleId": 430,
      "outputId": 1,
      "inputModuleId": 422,
      "inputId": 10,
      "color": "#0986ad"
    },
    {
      "id": 1414,
      "outputModuleId": 420,
      "outputId": 0,
      "inputModuleId": 252,
      "inputId": 4,
      "color": "#c91847"
    },
    {
      "id": 1415,
      "outputModuleId": 420,
      "outputId": 1,
      "inputModuleId": 253,
      "inputId": 4,
      "color": "#0986ad"
    },
    {
      "id": 1443,
      "outputModuleId": 212,
      "outputId": 2,
      "inputModuleId": 225,
      "inputId": 0,
      "color": "#c9b70e"
    },
    {
      "id": 1444,
      "outputModuleId": 212,
      "outputId": 3,
      "inputModuleId": 225,
      "inputId": 1,
      "color": "#0c8e15"
    },
    {
      "id": 1449,
      "outputModuleId": 236,
      "outputId": 0,
      "inputModuleId": 441,
      "inputId": 0,
      "color": "#c91847"
    },
    {
      "id": 1400,
      "outputModuleId": 441,
      "outputId": 0,
      "inputModuleId": 421,
      "inputId": 11,
      "color": "#0c8e15"
    },
    {
      "id": 1398,
      "outputModuleId": 441,
      "outputId": 0,
      "inputModuleId": 421,
      "inputId": 9,
      "color": "#0986ad"
    },
    {
      "id": 1397,
      "outputModuleId": 441,
      "outputId": 0,
      "inputModuleId": 421,
      "inputId": 8,
      "color": "#c91847"
    },
    {
      "id": 1384,
      "outputModuleId": 441,
      "outputId": 0,
      "inputModuleId": 420,
      "inputId": 10,
      "color": "#0c8e15"
    },
    {
      "id": 1383,
      "outputModuleId": 441,
      "outputId": 0,
      "inputModuleId": 420,
      "inputId": 11,
      "color": "#c9b70e"
    },
    {
      "id": 639,
      "outputModuleId": 442,
      "outputId": 1,
      "inputModuleId": 196,
      "inputId": 0,
      "color": "#0c8e15"
    },
    {
      "id": 924,
      "outputModuleId": 287,
      "outputId": 0,
      "inputModuleId": 268,
      "inputId": 13,
      "color": "#0c8e15"
    },
    {
      "id": 956,
      "outputModuleId": 287,
      "outputId": 0,
      "inputModuleId": 268,
      "inputId": 14,
      "color": "#0986ad"
    },
    {
      "id": 1402,
      "outputModuleId": 268,
      "outputId": 1,
      "inputModuleId": 421,
      "inputId": 1,
      "color": "#0986ad"
    },
    {
      "id": 957,
      "outputModuleId": 292,
      "outputId": 4,
      "inputModuleId": 268,
      "inputId": 15,
      "color": "#0c8e15"
    },
    {
      "id": 1450,
      "outputModuleId": 442,
      "outputId": 4,
      "inputModuleId": 450,
      "inputId": 1,
      "color": "#0c8e15"
    },
    {
      "id": 942,
      "outputModuleId": 450,
      "outputId": 0,
      "inputModuleId": 287,
      "inputId": 2,
      "color": "#c9b70e"
    },
    {
      "id": 1454,
      "outputModuleId": 236,
      "outputId": 0,
      "inputModuleId": 237,
      "inputId": 0,
      "color": "#c91847"
    },
    {
      "id": 1455,
      "outputModuleId": 451,
      "outputId": 0,
      "inputModuleId": 452,
      "inputId": 0,
      "color": "#c9b70e"
    },
    {
      "id": 1457,
      "outputModuleId": 442,
      "outputId": 1,
      "inputModuleId": 451,
      "inputId": 0,
      "color": "#c91847"
    },
    {
      "id": 1420,
      "outputModuleId": 429,
      "outputId": 1,
      "inputModuleId": 420,
      "inputId": 17,
      "color": "#c91847"
    },
    {
      "id": 1419,
      "outputModuleId": 429,
      "outputId": 0,
      "inputModuleId": 420,
      "inputId": 16,
      "color": "#0c8e15"
    },
    {
      "id": 1460,
      "outputModuleId": 452,
      "outputId": 0,
      "inputModuleId": 455,
      "inputId": 0,
      "color": "#0c8e15"
    },
    {
      "id": 1467,
      "outputModuleId": 457,
      "outputId": 1,
      "inputModuleId": 458,
      "inputId": 0,
      "color": "#c91847"
    },
    {
      "id": 1465,
      "outputModuleId": 457,
      "outputId": 1,
      "inputModuleId": 455,
      "inputId": 1,
      "color": "#c9b70e"
    },
    {
      "id": 1470,
      "outputModuleId": 456,
      "outputId": 0,
      "inputModuleId": 460,
      "inputId": 0,
      "color": "#0c8e15"
    },
    {
      "id": 1472,
      "outputModuleId": 461,
      "outputId": 0,
      "inputModuleId": 422,
      "inputId": 9,
      "color": "#0986ad"
    },
    {
      "id": 1473,
      "outputModuleId": 462,
      "outputId": 9,
      "inputModuleId": 456,
      "inputId": 0,
      "color": "#c9b70e"
    },
    {
      "id": 1476,
      "outputModuleId": 288,
      "outputId": 9,
      "inputModuleId": 464,
      "inputId": 1,
      "color": "#0986ad"
    },
    {
      "id": 1477,
      "outputModuleId": 288,
      "outputId": 9,
      "inputModuleId": 464,
      "inputId": 4,
      "color": "#c9b70e"
    },
    {
      "id": 1393,
      "outputModuleId": 464,
      "outputId": 0,
      "inputModuleId": 421,
      "inputId": 4,
      "color": "#c91847"
    },
    {
      "id": 1394,
      "outputModuleId": 464,
      "outputId": 0,
      "inputModuleId": 421,
      "inputId": 5,
      "color": "#0986ad"
    },
    {
      "id": 1395,
      "outputModuleId": 464,
      "outputId": 0,
      "inputModuleId": 421,
      "inputId": 6,
      "color": "#c9b70e"
    },
    {
      "id": 1396,
      "outputModuleId": 464,
      "outputId": 0,
      "inputModuleId": 421,
      "inputId": 7,
      "color": "#0c8e15"
    },
    {
      "id": 1478,
      "outputModuleId": 288,
      "outputId": 0,
      "inputModuleId": 464,
      "inputId": 2,
      "color": "#0986ad"
    },
    {
      "id": 1382,
      "outputModuleId": 464,
      "outputId": 1,
      "inputModuleId": 420,
      "inputId": 6,
      "color": "#0986ad"
    },
    {
      "id": 1381,
      "outputModuleId": 464,
      "outputId": 1,
      "inputModuleId": 420,
      "inputId": 7,
      "color": "#c91847"
    },
    {
      "id": 1479,
      "outputModuleId": 288,
      "outputId": 1,
      "inputModuleId": 464,
      "inputId": 5,
      "color": "#c9b70e"
    },
    {
      "id": 1480,
      "outputModuleId": 288,
      "outputId": 9,
      "inputModuleId": 465,
      "inputId": 1,
      "color": "#c91847"
    },
    {
      "id": 1475,
      "outputModuleId": 465,
      "outputId": 0,
      "inputModuleId": 420,
      "inputId": 5,
      "color": "#c91847"
    },
    {
      "id": 1474,
      "outputModuleId": 465,
      "outputId": 0,
      "inputModuleId": 420,
      "inputId": 4,
      "color": "#0c8e15"
    },
    {
      "id": 1481,
      "outputModuleId": 288,
      "outputId": 2,
      "inputModuleId": 465,
      "inputId": 2,
      "color": "#0986ad"
    },
    {
      "id": 1482,
      "outputModuleId": 456,
      "outputId": 0,
      "inputModuleId": 465,
      "inputId": 5,
      "color": "#c9b70e"
    },
    {
      "id": 1484,
      "outputModuleId": 465,
      "outputId": 1,
      "inputModuleId": 422,
      "inputId": 5,
      "color": "#c91847"
    },
    {
      "id": 1485,
      "outputModuleId": 455,
      "outputId": 0,
      "inputModuleId": 466,
      "inputId": 0,
      "color": "#0986ad"
    },
    {
      "id": 1486,
      "outputModuleId": 466,
      "outputId": 0,
      "inputModuleId": 454,
      "inputId": 4,
      "color": "#c9b70e"
    },
    {
      "id": 1487,
      "outputModuleId": 467,
      "outputId": 0,
      "inputModuleId": 466,
      "inputId": 1,
      "color": "#0c8e15"
    },
    {
      "id": 1459,
      "outputModuleId": 454,
      "outputId": 0,
      "inputModuleId": 468,
      "inputId": 0,
      "color": "#c9b70e"
    },
    {
      "id": 1488,
      "outputModuleId": 468,
      "outputId": 0,
      "inputModuleId": 422,
      "inputId": 1,
      "color": "#c91847"
    },
    {
      "id": 1489,
      "outputModuleId": 455,
      "outputId": 0,
      "inputModuleId": 467,
      "inputId": 0,
      "color": "#0986ad"
    },
    {
      "id": 1491,
      "outputModuleId": 467,
      "outputId": 1,
      "inputModuleId": 466,
      "inputId": 2,
      "color": "#0c8e15"
    },
    {
      "id": 1492,
      "outputModuleId": 455,
      "outputId": 0,
      "inputModuleId": 467,
      "inputId": 1,
      "color": "#c91847"
    },
    {
      "id": 1495,
      "outputModuleId": 454,
      "outputId": 0,
      "inputModuleId": 458,
      "inputId": 1,
      "color": "#c91847"
    },
    {
      "id": 1496,
      "outputModuleId": 236,
      "outputId": 0,
      "inputModuleId": 469,
      "inputId": 1,
      "color": "#0986ad"
    },
    {
      "id": 1497,
      "outputModuleId": 469,
      "outputId": 1,
      "inputModuleId": 465,
      "inputId": 4,
      "color": "#c9b70e"
    },
    {
      "id": 1441,
      "outputModuleId": 236,
      "outputId": 0,
      "inputModuleId": 422,
      "inputId": 6,
      "color": "#c91847"
    },
    {
      "id": 1498,
      "outputModuleId": 472,
      "outputId": 0,
      "inputModuleId": 473,
      "inputId": 1,
      "color": "#c91847"
    },
    {
      "id": 1500,
      "outputModuleId": 473,
      "outputId": 0,
      "inputModuleId": 469,
      "inputId": 0,
      "color": "#c9b70e"
    },
    {
      "id": 1502,
      "outputModuleId": 469,
      "outputId": 0,
      "inputModuleId": 465,
      "inputId": 3,
      "color": "#c91847"
    },
    {
      "id": 1503,
      "outputModuleId": 469,
      "outputId": 0,
      "inputModuleId": 465,
      "inputId": 0,
      "color": "#0986ad"
    },
    {
      "id": 1504,
      "outputModuleId": 469,
      "outputId": 0,
      "inputModuleId": 464,
      "inputId": 0,
      "color": "#c9b70e"
    },
    {
      "id": 1505,
      "outputModuleId": 469,
      "outputId": 0,
      "inputModuleId": 464,
      "inputId": 3,
      "color": "#0c8e15"
    },
    {
      "id": 1501,
      "outputModuleId": 473,
      "outputId": 0,
      "inputModuleId": 422,
      "inputId": 7,
      "color": "#0c8e15"
    },
    {
      "id": 1506,
      "outputModuleId": 442,
      "outputId": 1,
      "inputModuleId": 474,
      "inputId": 0,
      "color": "#c91847"
    },
    {
      "id": 1507,
      "outputModuleId": 442,
      "outputId": 4,
      "inputModuleId": 474,
      "inputId": 1,
      "color": "#0986ad"
    },
    {
      "id": 1462,
      "outputModuleId": 474,
      "outputId": 1,
      "inputModuleId": 462,
      "inputId": 9,
      "color": "#c9b70e"
    },
    {
      "id": 1494,
      "outputModuleId": 474,
      "outputId": 1,
      "inputModuleId": 454,
      "inputId": 1,
      "color": "#0c8e15"
    },
    {
      "id": 785,
      "outputModuleId": 474,
      "outputId": 1,
      "inputModuleId": 236,
      "inputId": 2,
      "color": "#0986ad"
    },
    {
      "id": 1451,
      "outputModuleId": 474,
      "outputId": 3,
      "inputModuleId": 450,
      "inputId": 0,
      "color": "#c91847"
    },
    {
      "id": 905,
      "outputModuleId": 474,
      "outputId": 3,
      "inputModuleId": 276,
      "inputId": 0,
      "color": "#c9b70e"
    },
    {
      "id": 1512,
      "outputModuleId": 442,
      "outputId": 4,
      "inputModuleId": 476,
      "inputId": 1,
      "color": "#0c8e15"
    },
    {
      "id": 1513,
      "outputModuleId": 474,
      "outputId": 3,
      "inputModuleId": 476,
      "inputId": 0,
      "color": "#c91847"
    },
    {
      "id": 790,
      "outputModuleId": 476,
      "outputId": 1,
      "inputModuleId": 241,
      "inputId": 0,
      "color": "#0c8e15"
    },
    {
      "id": 1468,
      "outputModuleId": 474,
      "outputId": 3,
      "inputModuleId": 457,
      "inputId": 2,
      "color": "#0986ad"
    },
    {
      "id": 1516,
      "outputModuleId": 442,
      "outputId": 2,
      "inputModuleId": 472,
      "inputId": 0,
      "color": "#0986ad"
    },
    {
      "id": 1517,
      "outputModuleId": 477,
      "outputId": 0,
      "inputModuleId": 478,
      "inputId": 2,
      "color": "#c9b70e"
    },
    {
      "id": 1518,
      "outputModuleId": 477,
      "outputId": 1,
      "inputModuleId": 478,
      "inputId": 3,
      "color": "#0c8e15"
    },
    {
      "id": 1519,
      "outputModuleId": 473,
      "outputId": 0,
      "inputModuleId": 478,
      "inputId": 5,
      "color": "#c91847"
    },
    {
      "id": 1522,
      "outputModuleId": 442,
      "outputId": 2,
      "inputModuleId": 477,
      "inputId": 5,
      "color": "#0c8e15"
    },
    {
      "id": 1523,
      "outputModuleId": 420,
      "outputId": 0,
      "inputModuleId": 439,
      "inputId": 3,
      "color": "#c91847"
    },
    {
      "id": 1525,
      "outputModuleId": 477,
      "outputId": 0,
      "inputModuleId": 439,
      "inputId": 2,
      "color": "#c9b70e"
    },
    {
      "id": 1526,
      "outputModuleId": 477,
      "outputId": 0,
      "inputModuleId": 422,
      "inputId": 3,
      "color": "#0c8e15"
    }
  ]
}