{
  "version": "0.5.1",
  "modules": [
    {
      "plugin": "Fundamental",
      "model": "VCO",
      "pos": [
        135.0,
        0.0
      ],
      "params": [
        1.0,
        1.0,
        0.0,
        0.0,
        0.062999986112117767,
        1.0,
        1.0
      ]
    },
    {
      "plugin": "Fundamental",
      "model": "ADSR",
      "pos": [
        345.0,
        0.0
      ],
      "params": [
        0.38400036096572876,
        0.76549971103668213,
        0.11400005966424942,
        0.47049990296363831
      ]
    },
    {
      "plugin": "Fundamental",
      "model": "VCA",
      "pos": [
        465.0,
        0.0
      ],
      "params": [
        1.0,
        0.80749994516372681
      ]
    },
    {
      "plugin": "Core",
      "model": "AudioInterface",
      "pos": [
        1710.0,
        0.0
      ],
      "params": [],
      "data": {
        "driver": 8,
        "device": 0,
        "sampleRate": 44100.0,
        "blockSize": 256
      }
    },
    {
      "plugin": "Fundamental",
      "model": "VCMixer",
      "pos": [
        1470.0,
        0.0
      ],
      "params": [
        0.76800000667572021,
        0.0,
        0.7080000638961792,
        0.10350008308887482
      ]
    },
    {
      "plugin": "Fundamental",
      "model": "Unity",
      "pos": [
        1260.0,
        0.0
      ],
      "params": [
        0.0,
        0.0
      ],
      "data": {
        "merge": false
      }
    },
    {
      "plugin": "Core",
      "model": "MIDIToCVInterface",
      "pos": [
        0.0,
        0.0
      ],
      "params": [
        0.0
      ],
      "data": {}
    },
    {
      "plugin": "Fundamental",
      "model": "LFO",
      "pos": [
        645.0,
        0.0
      ],
      "params": [
        0.0,
        1.0,
        -0.075999073684215546,
        0.28500053286552429,
        1.0,
        0.086999982595443726,
        0.0
      ]
    },
    {
      "plugin": "Fundamental",
      "model": "Mutes",
      "pos": [
        1350.0,
        0.0
      ],
      "params": [
        0.0,
        0.0,
        0.0,
        0.0,
        0.0,
        0.0,
        0.0,
        0.0,
        0.0,
        0.0
      ],
      "data": {
        "states": [
          true,
          true,
          true,
          true,
          true,
          true,
          true,
          true,
          true,
          true
        ]
      }
    },
    {
      "plugin": "Fundamental",
      "model": "SequentialSwitch2",
      "pos": [
        1620.0,
        0.0
      ],
      "params": [
        2.0
      ]
    },
    {
      "plugin": "Fundamental",
      "model": "SequentialSwitch2",
      "pos": [
        1665.0,
        0.0
      ],
      "params": [
        2.0
      ]
    },
    {
      "plugin": "Fundamental",
      "model": "Scope",
      "pos": [
        1065.0,
        0.0
      ],
      "params": [
        0.0,
        0.0,
        0.0,
        0.0,
        -16.0,
        0.0,
        1.3799996376037598,
        0.0
      ],
      "data": {
        "lissajous": 1,
        "external": 0
      }
    },
    {
      "plugin": "Fundamental",
      "model": "VCO",
      "pos": [
        180.0,
        380.0
      ],
      "params": [
        0.0,
        1.0,
        8.2079954147338867,
        0.0,
        0.5,
        0.71050018072128296,
        0.0
      ]
    },
    {
      "plugin": "Bogaudio",
      "model": "Bogaudio-Analyzer",
      "pos": [
        630.0,
        380.0
      ],
      "params": [
        0.37039995193481445,
        0.37250000238418579,
        2.0,
        1.0
      ]
    },
    {
      "plugin": "Fundamental",
      "model": "Scope",
      "pos": [
        855.0,
        0.0
      ],
      "params": [
        0.0,
        0.0,
        0.0,
        0.0,
        -6.0,
        0.0,
        0.0,
        0.0
      ],
      "data": {
        "lissajous": 0,
        "external": 0
      }
    },
    {
      "plugin": "AudibleInstruments",
      "model": "Links",
      "pos": [
        285.0,
        0.0
      ],
      "params": []
    },
    {
      "plugin": "Bogaudio",
      "model": "Bogaudio-Reftone",
      "pos": [
        1080.0,
        380.0
      ],
      "params": [
        8.0,
        4.0,
        0.0
      ]
    },
    {
      "plugin": "Fundamental",
      "model": "VCA",
      "pos": [
        360.0,
        380.0
      ],
      "params": [
        0.79599934816360474,
        0.50000083446502686
      ]
    },
    {
      "plugin": "Fundamental",
      "model": "Scope",
      "pos": [
        1695.0,
        380.0
      ],
      "params": [
        1.0,
        0.0,
        0.0,
        0.0,
        -16.0,
        0.0,
        0.0,
        0.0
      ],
      "data": {
        "lissajous": 0,
        "external": 0
      }
    },
    {
      "plugin": "TechTechTechnologies",
      "model": "Prometheus",
      "pos": [
        1275.0,
        380.0
      ],
      "params": [
        8.0
      ]
    },
    {
      "plugin": "TechTechTechnologies",
      "model": "mDAC",
      "pos": [
        1125.0,
        380.0
      ],
      "params": [
        12.0
      ],
      "text0": "0x4b",
      "text1": "",
      "text2": "",
      "text3": "",
      "text4": "",
      "text5": "",
      "text6": "",
      "text7": ""
    }
  ],
  "wires": [
    {
      "outputModuleId": 1,
      "outputId": 0,
      "inputModuleId": 2,
      "inputId": 4
    },
    {
      "outputModuleId": 2,
      "outputId": 1,
      "inputModuleId": 2,
      "inputId": 2
    },
    {
      "outputModuleId": 5,
      "outputId": 0,
      "inputModuleId": 8,
      "inputId": 0
    },
    {
      "outputModuleId": 4,
      "outputId": 0,
      "inputModuleId": 9,
      "inputId": 2
    },
    {
      "outputModuleId": 8,
      "outputId": 0,
      "inputModuleId": 4,
      "inputId": 1
    },
    {
      "outputModuleId": 9,
      "outputId": 0,
      "inputModuleId": 3,
      "inputId": 0
    },
    {
      "outputModuleId": 10,
      "outputId": 0,
      "inputModuleId": 3,
      "inputId": 1
    },
    {
      "outputModuleId": 4,
      "outputId": 0,
      "inputModuleId": 10,
      "inputId": 2
    },
    {
      "outputModuleId": 2,
      "outputId": 0,
      "inputModuleId": 5,
      "inputId": 4
    },
    {
      "outputModuleId": 12,
      "outputId": 0,
      "inputModuleId": 17,
      "inputId": 5
    },
    {
      "outputModuleId": 15,
      "outputId": 0,
      "inputModuleId": 11,
      "inputId": 1
    },
    {
      "outputModuleId": 15,
      "outputId": 2,
      "inputModuleId": 13,
      "inputId": 0
    },
    {
      "outputModuleId": 7,
      "outputId": 3,
      "inputModuleId": 1,
      "inputId": 4
    },
    {
      "outputModuleId": 15,
      "outputId": 1,
      "inputModuleId": 2,
      "inputId": 5
    },
    {
      "outputModuleId": 0,
      "outputId": 0,
      "inputModuleId": 15,
      "inputId": 0
    },
    {
      "outputModuleId": 0,
      "outputId": 0,
      "inputModuleId": 17,
      "inputId": 2
    },
    {
      "outputModuleId": 12,
      "outputId": 0,
      "inputModuleId": 11,
      "inputId": 0
    },
    {
      "outputModuleId": 16,
      "outputId": 0,
      "inputModuleId": 0,
      "inputId": 0
    },
    {
      "outputModuleId": 16,
      "outputId": 0,
      "inputModuleId": 12,
      "inputId": 0
    },
    {
      "outputModuleId": 17,
      "outputId": 1,
      "inputModuleId": 0,
      "inputId": 1
    },
    {
      "outputModuleId": 1,
      "outputId": 0,
      "inputModuleId": 17,
      "inputId": 4
    },
    {
      "outputModuleId": 17,
      "outputId": 0,
      "inputModuleId": 12,
      "inputId": 1
    },
    {
      "outputModuleId": 1,
      "outputId": 0,
      "inputModuleId": 17,
      "inputId": 0
    },
    {
      "outputModuleId": 1,
      "outputId": 0,
      "inputModuleId": 14,
      "inputId": 0
    },
    {
      "outputModuleId": 19,
      "outputId": 2,
      "inputModuleId": 4,
      "inputId": 5
    },
    {
      "outputModuleId": 20,
      "outputId": 1,
      "inputModuleId": 19,
      "inputId": 1
    },
    {
      "outputModuleId": 20,
      "outputId": 0,
      "inputModuleId": 19,
      "inputId": 0
    }
  ]
}