{
  "version": "0.5.1",
  "modules": [
    {
      "plugin": "Fundamental",
      "model": "VCO",
      "pos": [
        135.0,
        0.0
      ],
      "params": [
        1.0,
        1.0,
        0.0,
        0.0,
        0.062999986112117767,
        0.5774955153465271,
        1.0
      ]
    },
    {
      "plugin": "Fundamental",
      "model": "ADSR",
      "pos": [
        285.0,
        0.0
      ],
      "params": [
        0.38550016283988953,
        0.67099970579147339,
        0.0,
        0.47049990296363831
      ]
    },
    {
      "plugin": "Fundamental",
      "model": "VCA",
      "pos": [
        405.0,
        0.0
      ],
      "params": [
        1.0,
        0.80749994516372681
      ]
    },
    {
      "plugin": "Core",
      "model": "AudioInterface",
      "pos": [
        1710.0,
        0.0
      ],
      "params": [],
      "data": {
        "driver": 8,
        "device": 0,
        "sampleRate": 44100.0,
        "blockSize": 256
      }
    },
    {
      "plugin": "Fundamental",
      "model": "VCMixer",
      "pos": [
        1470.0,
        0.0
      ],
      "params": [
        1.0,
        1.0,
        0.0,
        0.019500084221363068
      ]
    },
    {
      "plugin": "Fundamental",
      "model": "Unity",
      "pos": [
        1260.0,
        0.0
      ],
      "params": [
        0.0,
        0.0
      ],
      "data": {
        "merge": false
      }
    },
    {
      "plugin": "Core",
      "model": "MIDIToCVInterface",
      "pos": [
        0.0,
        0.0
      ],
      "params": [
        0.0
      ],
      "data": {
        "interfaceName": "loopMIDI Port 1",
        "channel": -1
      }
    },
    {
      "plugin": "Fundamental",
      "model": "LFO",
      "pos": [
        495.0,
        0.0
      ],
      "params": [
        0.0,
        1.0,
        1.6250005960464478,
        0.28500053286552429,
        0.65750014781951904,
        0.086999982595443726,
        0.0
      ]
    },
    {
      "plugin": "Fundamental",
      "model": "Mutes",
      "pos": [
        1350.0,
        0.0
      ],
      "params": [
        0.0,
        0.0,
        0.0,
        0.0,
        0.0,
        0.0,
        0.0,
        0.0,
        0.0,
        0.0
      ],
      "data": {
        "states": [
          true,
          true,
          true,
          true,
          true,
          true,
          true,
          true,
          true,
          true
        ]
      }
    },
    {
      "plugin": "Fundamental",
      "model": "SequentialSwitch2",
      "pos": [
        1620.0,
        0.0
      ],
      "params": [
        2.0
      ]
    },
    {
      "plugin": "Fundamental",
      "model": "SequentialSwitch2",
      "pos": [
        1665.0,
        0.0
      ],
      "params": [
        2.0
      ]
    },
    {
      "plugin": "Fundamental",
      "model": "Scope",
      "pos": [
        1065.0,
        0.0
      ],
      "params": [
        0.0,
        0.0,
        0.0,
        0.0,
        -16.0,
        0.0,
        1.3799996376037598,
        0.0
      ],
      "data": {
        "lissajous": 0,
        "external": 0
      }
    },
    {
      "plugin": "Fundamental",
      "model": "VCO",
      "pos": [
        135.0,
        380.0
      ],
      "params": [
        0.0,
        1.0,
        -31.26600456237793,
        0.0,
        0.5,
        0.0,
        0.0
      ]
    },
    {
      "plugin": "Bogaudio",
      "model": "Bogaudio-Analyzer",
      "pos": [
        630.0,
        380.0
      ],
      "params": [
        0.37039995193481445,
        0.37250000238418579,
        2.0,
        1.0
      ]
    },
    {
      "plugin": "Bogaudio",
      "model": "Bogaudio-Noise",
      "pos": [
        645.0,
        0.0
      ],
      "params": []
    },
    {
      "plugin": "Bogaudio",
      "model": "Bogaudio-SampleHold",
      "pos": [
        735.0,
        0.0
      ],
      "params": [
        0.0,
        0.0
      ]
    },
    {
      "plugin": "Fundamental",
      "model": "Scope",
      "pos": [
        870.0,
        0.0
      ],
      "params": [
        3.0,
        0.0,
        0.0,
        0.0,
        -6.0,
        0.0,
        0.0,
        0.0
      ],
      "data": {
        "lissajous": 0,
        "external": 0
      }
    },
    {
      "plugin": "Bogaudio",
      "model": "Bogaudio-Offset",
      "pos": [
        810.0,
        0.0
      ],
      "params": [
        0.0,
        0.31600001454353333
      ]
    },
    {
      "plugin": "Fundamental",
      "model": "LFO",
      "pos": [
        1065.0,
        380.0
      ],
      "params": [
        0.0,
        1.0,
        -4.3530006408691406,
        0.0,
        0.5,
        0.0,
        0.0
      ]
    },
    {
      "plugin": "Fundamental",
      "model": "VCO",
      "pos": [
        1320.0,
        380.0
      ],
      "params": [
        1.0,
        1.0,
        -11.826004028320313,
        0.0,
        0.5,
        0.46750029921531677,
        0.0
      ]
    },
    {
      "plugin": "AudibleInstruments",
      "model": "Links",
      "pos": [
        75.0,
        380.0
      ],
      "params": []
    }
  ],
  "wires": [
    {
      "outputModuleId": 1,
      "outputId": 0,
      "inputModuleId": 2,
      "inputId": 4
    },
    {
      "outputModuleId": 2,
      "outputId": 1,
      "inputModuleId": 2,
      "inputId": 2
    },
    {
      "outputModuleId": 5,
      "outputId": 0,
      "inputModuleId": 8,
      "inputId": 0
    },
    {
      "outputModuleId": 4,
      "outputId": 0,
      "inputModuleId": 9,
      "inputId": 2
    },
    {
      "outputModuleId": 8,
      "outputId": 0,
      "inputModuleId": 4,
      "inputId": 1
    },
    {
      "outputModuleId": 9,
      "outputId": 0,
      "inputModuleId": 3,
      "inputId": 0
    },
    {
      "outputModuleId": 10,
      "outputId": 0,
      "inputModuleId": 3,
      "inputId": 1
    },
    {
      "outputModuleId": 4,
      "outputId": 0,
      "inputModuleId": 10,
      "inputId": 2
    },
    {
      "outputModuleId": 2,
      "outputId": 0,
      "inputModuleId": 5,
      "inputId": 4
    },
    {
      "outputModuleId": 12,
      "outputId": 0,
      "inputModuleId": 0,
      "inputId": 1
    },
    {
      "outputModuleId": 20,
      "outputId": 0,
      "inputModuleId": 11,
      "inputId": 1
    },
    {
      "outputModuleId": 20,
      "outputId": 2,
      "inputModuleId": 13,
      "inputId": 0
    },
    {
      "outputModuleId": 14,
      "outputId": 2,
      "inputModuleId": 15,
      "inputId": 1
    },
    {
      "outputModuleId": 17,
      "outputId": 0,
      "inputModuleId": 16,
      "inputId": 0
    },
    {
      "outputModuleId": 17,
      "outputId": 0,
      "inputModuleId": 0,
      "inputId": 0
    },
    {
      "outputModuleId": 7,
      "outputId": 3,
      "inputModuleId": 15,
      "inputId": 0
    },
    {
      "outputModuleId": 7,
      "outputId": 3,
      "inputModuleId": 1,
      "inputId": 4
    },
    {
      "outputModuleId": 17,
      "outputId": 0,
      "inputModuleId": 7,
      "inputId": 0
    },
    {
      "outputModuleId": 19,
      "outputId": 0,
      "inputModuleId": 17,
      "inputId": 1
    },
    {
      "outputModuleId": 20,
      "outputId": 1,
      "inputModuleId": 2,
      "inputId": 5
    },
    {
      "outputModuleId": 0,
      "outputId": 0,
      "inputModuleId": 20,
      "inputId": 0
    },
    {
      "outputModuleId": 18,
      "outputId": 0,
      "inputModuleId": 7,
      "inputId": 1
    },
    {
      "outputModuleId": 17,
      "outputId": 0,
      "inputModuleId": 12,
      "inputId": 0
    },
    {
      "outputModuleId": 15,
      "outputId": 0,
      "inputModuleId": 17,
      "inputId": 2
    }
  ]
}