{
  "version": "1.1.6",
  "modules": [
    {
      "id": 1,
      "plugin": "Core",
      "version": "1.1.6",
      "model": "AudioInterface",
      "params": [],
      "leftModuleId": 2,
      "rightModuleId": 8,
      "data": {
        "audio": {
          "driver": 6,
          "deviceName": "Speakers (Realtek High Definition Audio)",
          "offset": 0,
          "maxChannels": 8,
          "sampleRate": 48000,
          "blockSize": 512
        }
      },
      "pos": [
        83,
        1
      ]
    },
    {
      "id": 2,
      "plugin": "Fundamental",
      "version": "1.4.0",
      "model": "VCMixer",
      "params": [
        {
          "id": 0,
          "value": 0.918750763
        },
        {
          "id": 1,
          "value": 0.220617369
        },
        {
          "id": 2,
          "value": 1.0
        },
        {
          "id": 3,
          "value": 1.0
        },
        {
          "id": 4,
          "value": 1.0
        }
      ],
      "leftModuleId": 7,
      "rightModuleId": 1,
      "pos": [
        73,
        1
      ]
    },
    {
      "id": 4,
      "plugin": "Fundamental",
      "version": "1.4.0",
      "model": "VCF",
      "params": [
        {
          "id": 0,
          "value": 0.0
        },
        {
          "id": 1,
          "value": 0.5
        },
        {
          "id": 2,
          "value": 0.440999448
        },
        {
          "id": 3,
          "value": 1.0
        },
        {
          "id": 4,
          "value": 0.0
        }
      ],
      "rightModuleId": 6,
      "pos": [
        44,
        1
      ]
    },
    {
      "id": 5,
      "plugin": "Core",
      "version": "1.1.6",
      "model": "MIDIToCVInterface",
      "params": [],
      "leftModuleId": 27,
      "rightModuleId": 34,
      "data": {
        "channels": 2,
        "polyMode": 0,
        "clockDivision": 24,
        "lastPitch": 8192,
        "lastMod": 0,
        "midi": {
          "driver": -11,
          "deviceName": "QWERTY keyboard (US)",
          "channel": -1
        }
      },
      "pos": [
        26,
        1
      ]
    },
    {
      "id": 6,
      "plugin": "Fundamental",
      "version": "1.4.0",
      "model": "ADSR",
      "params": [
        {
          "id": 0,
          "value": 0.258000046
        },
        {
          "id": 1,
          "value": 0.743000448
        },
        {
          "id": 2,
          "value": 0.711500049
        },
        {
          "id": 3,
          "value": 0.86800009
        }
      ],
      "leftModuleId": 4,
      "rightModuleId": 7,
      "pos": [
        52,
        1
      ]
    },
    {
      "id": 7,
      "plugin": "Fundamental",
      "version": "1.4.0",
      "model": "Scope",
      "params": [
        {
          "id": 0,
          "value": 0.0
        },
        {
          "id": 1,
          "value": 0.0
        },
        {
          "id": 2,
          "value": 0.0
        },
        {
          "id": 3,
          "value": 0.0
        },
        {
          "id": 4,
          "value": 14.6950045
        },
        {
          "id": 5,
          "value": 0.0
        },
        {
          "id": 6,
          "value": 0.0
        },
        {
          "id": 7,
          "value": 0.0
        }
      ],
      "leftModuleId": 6,
      "rightModuleId": 2,
      "data": {
        "lissajous": 0,
        "external": 0
      },
      "pos": [
        60,
        1
      ]
    },
    {
      "id": 8,
      "plugin": "Core",
      "version": "1.1.6",
      "model": "Notes",
      "params": [],
      "leftModuleId": 1,
      "rightModuleId": 18,
      "text": "Demo patch instructions:\n\n1. Choose an audio driver and device in the AUDIO-8 module.\n\n2. Use the QWERTY and ZXCVB rows of your keyboard to generate MIDI notes, which are converted to 1V/oct and GATE signals.\n\n3. Drag knobs up/down. Hold Ctrl (Cmd on Mac) while dragging to fine-tune. Right-click knobs to edit, or double-click to initialize.\n\n4. Drag ports to create and move cables. Stack multiple cables on outputs by holding Ctrl (Cmd on Mac) and dragging from an output.\n\n5. Right-click on an empty rack space to add new modules.",
      "pos": [
        93,
        1
      ]
    },
    {
      "id": 9,
      "plugin": "Bogaudio",
      "version": "1.1.26",
      "model": "Bogaudio-AnalyzerXL",
      "params": [],
      "data": {
        "range": 0.0,
        "range_db": 140.0,
        "smooth": 0.25,
        "quality": "ultra",
        "window": "kaiser"
      },
      "pos": [
        60,
        2
      ]
    },
    {
      "id": 11,
      "plugin": "Bogaudio",
      "version": "1.1.26",
      "model": "Bogaudio-Clpr",
      "params": [
        {
          "id": 0,
          "value": 0.0195000004
        },
        {
          "id": 1,
          "value": 0.904500484
        },
        {
          "id": 2,
          "value": 1.0
        }
      ],
      "leftModuleId": 12,
      "pos": [
        47,
        2
      ]
    },
    {
      "id": 12,
      "plugin": "Bogaudio",
      "version": "1.1.26",
      "model": "Bogaudio-UMix",
      "params": [],
      "rightModuleId": 11,
      "data": {
        "clipping_mode": 0,
        "input_gain_db": 0.0,
        "sum": true
      },
      "pos": [
        44,
        2
      ]
    },
    {
      "id": 13,
      "plugin": "Bogaudio",
      "version": "1.1.26",
      "model": "Bogaudio-VCO",
      "params": [
        {
          "id": 0,
          "value": 3.13199782
        },
        {
          "id": 1,
          "value": 0.0
        },
        {
          "id": 2,
          "value": 0.0
        },
        {
          "id": 3,
          "value": 0.0
        },
        {
          "id": 4,
          "value": 0.0
        },
        {
          "id": 5,
          "value": 1.0
        },
        {
          "id": 6,
          "value": 0.0
        }
      ],
      "leftModuleId": 29,
      "data": {
        "poly_input": 0
      },
      "pos": [
        24,
        2
      ]
    },
    {
      "id": 14,
      "plugin": "Bogaudio",
      "version": "1.1.26",
      "model": "Bogaudio-VCO",
      "params": [
        {
          "id": 0,
          "value": 2.99699831
        },
        {
          "id": 1,
          "value": 0.0
        },
        {
          "id": 2,
          "value": 0.0
        },
        {
          "id": 3,
          "value": 0.0
        },
        {
          "id": 4,
          "value": 0.882001221
        },
        {
          "id": 5,
          "value": 0.0
        },
        {
          "id": 6,
          "value": 0.0
        }
      ],
      "leftModuleId": 16,
      "rightModuleId": 17,
      "data": {
        "poly_input": 0
      },
      "pos": [
        112,
        2
      ]
    },
    {
      "id": 15,
      "plugin": "Fundamental",
      "version": "1.4.0",
      "model": "Noise",
      "params": [],
      "rightModuleId": 16,
      "pos": [
        103,
        2
      ]
    },
    {
      "id": 16,
      "plugin": "CountModula",
      "version": "1.7.1",
      "model": "Comparator",
      "params": [
        {
          "id": 0,
          "value": 0.0
        }
      ],
      "leftModuleId": 15,
      "rightModuleId": 14,
      "data": {
        "moduleVersion": "1.1",
        "theme": 0
      },
      "pos": [
        106,
        2
      ]
    },
    {
      "id": 17,
      "plugin": "Befaco",
      "version": "1.0.0",
      "model": "Mixer",
      "params": [
        {
          "id": 0,
          "value": 1.0
        },
        {
          "id": 1,
          "value": 1.0
        },
        {
          "id": 2,
          "value": 0.0
        },
        {
          "id": 3,
          "value": 0.0
        }
      ],
      "leftModuleId": 14,
      "rightModuleId": 32,
      "pos": [
        122,
        2
      ]
    },
    {
      "id": 18,
      "plugin": "Befaco",
      "version": "1.0.0",
      "model": "DualAtenuverter",
      "params": [
        {
          "id": 0,
          "value": 1.0
        },
        {
          "id": 1,
          "value": 10.0
        },
        {
          "id": 2,
          "value": -0.20299992
        },
        {
          "id": 3,
          "value": 1.94999957
        }
      ],
      "leftModuleId": 8,
      "rightModuleId": 19,
      "pos": [
        109,
        1
      ]
    },
    {
      "id": 19,
      "plugin": "NYSTHI",
      "version": "1.0.9",
      "model": "4DCBlock",
      "params": [
        {
          "id": 0,
          "value": 0.0
        }
      ],
      "leftModuleId": 18,
      "rightModuleId": 31,
      "data": {
        "m_current_dc_block_frequency": 10.0
      },
      "pos": [
        114,
        1
      ]
    },
    {
      "id": 22,
      "plugin": "Fundamental",
      "version": "1.4.0",
      "model": "Unity",
      "params": [
        {
          "id": 0,
          "value": 0.0
        },
        {
          "id": 1,
          "value": 0.0
        }
      ],
      "data": {
        "merge": false
      },
      "pos": [
        36,
        2
      ]
    },
    {
      "id": 25,
      "plugin": "ImpromptuModular",
      "version": "1.1.3",
      "model": "Twelve-Key",
      "params": [
        {
          "id": 0,
          "value": 0.0
        },
        {
          "id": 1,
          "value": 0.0
        },
        {
          "id": 2,
          "value": 0.0
        },
        {
          "id": 3,
          "value": 0.0
        }
      ],
      "rightModuleId": 28,
      "data": {
        "panelTheme": 0,
        "octave": 4,
        "cv": 0.166666672,
        "vel": 0.46495533,
        "maxVel": 10.0,
        "stateInternal": true,
        "invertVel": false,
        "linkVelSettings": false
      },
      "pos": [
        0,
        1
      ]
    },
    {
      "id": 27,
      "plugin": "ML_modules",
      "version": "1.0.5",
      "model": "Sum8",
      "params": [],
      "leftModuleId": 28,
      "rightModuleId": 5,
      "pos": [
        23,
        1
      ]
    },
    {
      "id": 28,
      "plugin": "Bogaudio",
      "version": "1.1.26",
      "model": "Bogaudio-Unison",
      "params": [
        {
          "id": 0,
          "value": 2.0
        },
        {
          "id": 1,
          "value": 0.0
        }
      ],
      "leftModuleId": 25,
      "rightModuleId": 27,
      "pos": [
        20,
        1
      ]
    },
    {
      "id": 29,
      "plugin": "TechTechTechnologies",
      "version": "1.0.0",
      "model": "Odysseus",
      "params": [
        {
          "id": 0,
          "value": 0.5
        },
        {
          "id": 1,
          "value": 0.5
        },
        {
          "id": 2,
          "value": 0.99849999
        },
        {
          "id": 3,
          "value": 0.0
        },
        {
          "id": 4,
          "value": 0.0
        },
        {
          "id": 5,
          "value": 0.929500937
        },
        {
          "id": 6,
          "value": 0.0
        },
        {
          "id": 7,
          "value": 0.0
        },
        {
          "id": 8,
          "value": 0.0
        },
        {
          "id": 9,
          "value": 0.0
        },
        {
          "id": 10,
          "value": 0.0
        }
      ],
      "leftModuleId": 30,
      "rightModuleId": 13,
      "pos": [
        14,
        2
      ]
    },
    {
      "id": 30,
      "plugin": "Fundamental",
      "version": "1.4.0",
      "model": "Scope",
      "params": [
        {
          "id": 0,
          "value": 0.0
        },
        {
          "id": 1,
          "value": 0.0
        },
        {
          "id": 2,
          "value": 0.0
        },
        {
          "id": 3,
          "value": 0.0
        },
        {
          "id": 4,
          "value": 6.0
        },
        {
          "id": 5,
          "value": 0.0
        },
        {
          "id": 6,
          "value": 0.0
        },
        {
          "id": 7,
          "value": 0.0
        }
      ],
      "rightModuleId": 29,
      "data": {
        "lissajous": 0,
        "external": 0
      },
      "pos": [
        1,
        2
      ]
    },
    {
      "id": 31,
      "plugin": "Befaco",
      "version": "1.0.0",
      "model": "DualAtenuverter",
      "params": [
        {
          "id": 0,
          "value": 1.0
        },
        {
          "id": 1,
          "value": 0.0
        },
        {
          "id": 2,
          "value": 0.0370000713
        },
        {
          "id": 3,
          "value": 0.0
        }
      ],
      "leftModuleId": 19,
      "rightModuleId": 33,
      "pos": [
        116,
        1
      ]
    },
    {
      "id": 32,
      "plugin": "MSM",
      "version": "1.0.0",
      "model": "DualDelay",
      "params": [
        {
          "id": 0,
          "value": 1.0
        },
        {
          "id": 1,
          "value": 1.0
        },
        {
          "id": 2,
          "value": 0.773800731
        },
        {
          "id": 3,
          "value": 0.811300516
        },
        {
          "id": 4,
          "value": 0.912000239
        },
        {
          "id": 5,
          "value": 0.933000267
        },
        {
          "id": 6,
          "value": 0.676000118
        },
        {
          "id": 7,
          "value": 0.18599999
        },
        {
          "id": 8,
          "value": 0.695499897
        },
        {
          "id": 9,
          "value": 0.204000026
        },
        {
          "id": 10,
          "value": 0.5
        },
        {
          "id": 11,
          "value": 0.5
        },
        {
          "id": 12,
          "value": 0.5
        },
        {
          "id": 13,
          "value": 0.5
        },
        {
          "id": 14,
          "value": 0.0
        },
        {
          "id": 15,
          "value": 0.0
        },
        {
          "id": 16,
          "value": 0.0
        },
        {
          "id": 17,
          "value": 0.0
        }
      ],
      "leftModuleId": 17,
      "data": {
        "Theme": 0,
        "DISPLAYA": 1,
        "DISPLAYB": 1
      },
      "pos": [
        127,
        2
      ]
    },
    {
      "id": 33,
      "plugin": "Fundamental",
      "version": "1.4.0",
      "model": "Sum",
      "params": [
        {
          "id": 0,
          "value": 1.0
        }
      ],
      "leftModuleId": 31,
      "pos": [
        121,
        1
      ]
    },
    {
      "id": 34,
      "plugin": "Fundamental",
      "version": "1.4.0",
      "model": "Split",
      "params": [],
      "leftModuleId": 5,
      "pos": [
        34,
        1
      ]
    },
    {
      "id": 35,
      "plugin": "Bogaudio",
      "version": "1.1.26",
      "model": "Bogaudio-LFO",
      "params": [
        {
          "id": 0,
          "value": 0.0
        },
        {
          "id": 1,
          "value": 0.0
        },
        {
          "id": 2,
          "value": 0.0
        },
        {
          "id": 3,
          "value": 0.0
        },
        {
          "id": 4,
          "value": 0.0
        },
        {
          "id": 5,
          "value": 1.0
        }
      ],
      "rightModuleId": 36,
      "pos": [
        130,
        1
      ]
    },
    {
      "id": 36,
      "plugin": "Fundamental",
      "version": "1.4.0",
      "model": "Scope",
      "params": [
        {
          "id": 0,
          "value": 0.0
        },
        {
          "id": 1,
          "value": 0.0
        },
        {
          "id": 2,
          "value": 0.0
        },
        {
          "id": 3,
          "value": 0.0
        },
        {
          "id": 4,
          "value": 12.2349863
        },
        {
          "id": 5,
          "value": 0.0
        },
        {
          "id": 6,
          "value": 0.0
        },
        {
          "id": 7,
          "value": 0.0
        }
      ],
      "leftModuleId": 35,
      "rightModuleId": 52,
      "data": {
        "lissajous": 0,
        "external": 0
      },
      "pos": [
        140,
        1
      ]
    },
    {
      "id": 37,
      "plugin": "ImpromptuModular",
      "version": "1.1.3",
      "model": "Foundry",
      "params": [
        {
          "id": 0,
          "value": 0.0
        },
        {
          "id": 3,
          "value": 0.0
        },
        {
          "id": 4,
          "value": 0.0
        },
        {
          "id": 5,
          "value": 0.0
        },
        {
          "id": 6,
          "value": 0.0
        },
        {
          "id": 7,
          "value": 0.0
        },
        {
          "id": 8,
          "value": 0.0
        },
        {
          "id": 9,
          "value": 0.0
        },
        {
          "id": 10,
          "value": 0.0
        },
        {
          "id": 11,
          "value": 0.0
        },
        {
          "id": 12,
          "value": 0.0
        },
        {
          "id": 13,
          "value": 0.0
        },
        {
          "id": 14,
          "value": 0.0
        },
        {
          "id": 15,
          "value": 0.0
        },
        {
          "id": 16,
          "value": 1.0
        },
        {
          "id": 17,
          "value": 0.0
        },
        {
          "id": 18,
          "value": 0.0
        },
        {
          "id": 19,
          "value": 0.0
        },
        {
          "id": 20,
          "value": 0.0
        },
        {
          "id": 21,
          "value": 0.0
        },
        {
          "id": 22,
          "value": 0.0
        },
        {
          "id": 23,
          "value": 0.0
        },
        {
          "id": 24,
          "value": 0.0
        },
        {
          "id": 25,
          "value": 0.0
        },
        {
          "id": 26,
          "value": 0.0
        },
        {
          "id": 27,
          "value": 0.0
        },
        {
          "id": 28,
          "value": 0.0
        },
        {
          "id": 29,
          "value": 0.0
        },
        {
          "id": 30,
          "value": 0.0
        },
        {
          "id": 31,
          "value": 0.0
        },
        {
          "id": 32,
          "value": 0.0
        },
        {
          "id": 33,
          "value": 0.0
        },
        {
          "id": 34,
          "value": 0.0
        },
        {
          "id": 35,
          "value": 0.0
        },
        {
          "id": 36,
          "value": 0.0
        },
        {
          "id": 37,
          "value": 0.0
        },
        {
          "id": 38,
          "value": 0.0
        },
        {
          "id": 39,
          "value": 0.0
        },
        {
          "id": 40,
          "value": 0.0
        },
        {
          "id": 41,
          "value": 0.0
        },
        {
          "id": 42,
          "value": 0.0
        },
        {
          "id": 43,
          "value": 0.0
        },
        {
          "id": 44,
          "value": 0.0
        },
        {
          "id": 45,
          "value": 0.0
        },
        {
          "id": 46,
          "value": 0.0
        },
        {
          "id": 47,
          "value": 0.0
        },
        {
          "id": 48,
          "value": 0.0
        },
        {
          "id": 49,
          "value": 0.0
        },
        {
          "id": 50,
          "value": 0.0
        },
        {
          "id": 51,
          "value": 0.0
        },
        {
          "id": 52,
          "value": 0.0
        },
        {
          "id": 53,
          "value": 0.0
        },
        {
          "id": 54,
          "value": 0.0
        },
        {
          "id": 55,
          "value": 0.0
        },
        {
          "id": 56,
          "value": 0.0
        },
        {
          "id": 57,
          "value": 0.0
        },
        {
          "id": 58,
          "value": 0.0
        },
        {
          "id": 59,
          "value": 0.0
        },
        {
          "id": 60,
          "value": 0.0
        },
        {
          "id": 61,
          "value": 0.0
        },
        {
          "id": 62,
          "value": 0.0
        },
        {
          "id": 63,
          "value": 0.0
        },
        {
          "id": 64,
          "value": 0.0
        },
        {
          "id": 65,
          "value": 0.0
        },
        {
          "id": 66,
          "value": 0.0
        },
        {
          "id": 67,
          "value": 0.0
        },
        {
          "id": 68,
          "value": 0.0
        },
        {
          "id": 70,
          "value": 0.0
        },
        {
          "id": 71,
          "value": 0.0
        },
        {
          "id": 72,
          "value": 0.0
        },
        {
          "id": 73,
          "value": 0.0
        },
        {
          "id": 74,
          "value": 0.0
        },
        {
          "id": 75,
          "value": 1.0
        },
        {
          "id": 76,
          "value": 0.0
        },
        {
          "id": 77,
          "value": 0.0
        },
        {
          "id": 78,
          "value": 1.0
        }
      ],
      "data": {
        "panelTheme": 0,
        "velocityMode": 0,
        "velocityBipol": 0,
        "autostepLen": false,
        "multiTracks": false,
        "autoseq": false,
        "holdTiedNotes": true,
        "showSharp": true,
        "seqCVmethod": 0,
        "running": true,
        "resetOnRun": false,
        "attached": false,
        "velEditMode": 0,
        "writeMode": 0,
        "stopAtEndOfSong": 4,
        "stepIndexEdit": 21,
        "phraseIndexEdit": 0,
        "trackIndexEdit": 0,
        "id0_pulsesPerStep": 1,
        "id0_delay": 0,
        "id0_runModeSong": 0,
        "id0_songBeginIndex": 0,
        "id0_songEndIndex": 0,
        "id0_phrases": [
          0,
          0,
          0,
          0,
          0,
          0,
          0,
          0,
          0,
          0,
          0,
          0,
          0,
          0,
          0,
          0,
          0,
          0,
          0,
          0,
          0,
          0,
          0,
          0,
          0,
          0,
          0,
          0,
          0,
          0,
          0,
          0,
          0,
          0,
          0,
          0,
          0,
          0,
          0,
          0,
          0,
          0,
          0,
          0,
          0,
          0,
          0,
          0,
          0,
          0,
          0,
          0,
          0,
          0,
          0,
          0,
          0,
          0,
          0,
          0,
          0,
          0,
          0,
          0,
          0,
          0,
          0,
          0,
          0,
          0,
          0,
          0,
          0,
          0,
          0,
          0,
          0,
          0,
          0,
          0,
          0,
          0,
          0,
          0,
          0,
          0,
          0,
          0,
          0,
          0,
          0,
          0,
          0,
          0,
          0,
          0,
          0,
          0,
          0
        ],
        "id0_sequences": [
          32,
          32,
          32,
          32,
          32,
          32,
          32,
          32,
          32,
          32,
          32,
          32,
          32,
          32,
          32,
          32,
          32,
          32,
          32,
          32,
          32,
          32,
          32,
          32,
          32,
          32,
          32,
          32,
          32,
          32,
          32,
          32,
          32,
          32,
          32,
          32,
          32,
          32,
          32,
          32,
          32,
          32,
          32,
          32,
          32,
          32,
          32,
          32,
          32,
          32,
          32,
          32,
          32,
          32,
          32,
          32,
          32,
          32,
          32,
          32,
          32,
          32,
          32,
          32
        ],
        "id0_seqSaved": [
          1,
          0,
          0,
          0,
          0,
          0,
          0,
          0,
          0,
          0,
          0,
          0,
          0,
          0,
          0,
          0,
          0,
          0,
          0,
          0,
          0,
          0,
          0,
          0,
          0,
          0,
          0,
          0,
          0,
          0,
          0,
          0,
          0,
          0,
          0,
          0,
          0,
          0,
          0,
          0,
          0,
          0,
          0,
          0,
          0,
          0,
          0,
          0,
          0,
          0,
          0,
          0,
          0,
          0,
          0,
          0,
          0,
          0,
          0,
          0,
          0,
          0,
          0,
          0
        ],
        "id0_cv": [
          -2.97422028,
          -2.98010683,
          -2.97616506,
          -2.97306395,
          -2.97051668,
          -2.96801853,
          -2.96620846,
          -2.96598125,
          -2.96695852,
          -2.9665134,
          -2.96462345,
          -2.9682169,
          -2.99926472,
          -2.0,
          -2.0,
          -2.0,
          -3.0,
          -2.0,
          -2.99347568,
          -2.99146414,
          -2.99183154,
          -1.95897639,
          -1.9584105,
          -1.95833337,
          -2.96180558,
          -2.96748471,
          -2.97476506,
          -2.98104191,
          -2.98087478,
          -2.98164368,
          -2.9897213,
          -2.97819328
        ],
        "id0_attributes": [
          17445476,
          17445476,
          17445476,
          17445476,
          17445476,
          17445476,
          17445476,
          17445476,
          17445476,
          17445476,
          17445476,
          17445476,
          17445476,
          17445476,
          17445476,
          17445476,
          17445476,
          17445476,
          17445476,
          17445476,
          17445476,
          17445476,
          17445476,
          17445476,
          17445476,
          17445476,
          17445476,
          17445476,
          17445476,
          17445476,
          17445476,
          17445476
        ],
        "id0_seqIndexEdit": 0,
        "id1_pulsesPerStep": 1,
        "id1_delay": 0,
        "id1_runModeSong": 0,
        "id1_songBeginIndex": 0,
        "id1_songEndIndex": 0,
        "id1_phrases": [
          0,
          0,
          0,
          0,
          0,
          0,
          0,
          0,
          0,
          0,
          0,
          0,
          0,
          0,
          0,
          0,
          0,
          0,
          0,
          0,
          0,
          0,
          0,
          0,
          0,
          0,
          0,
          0,
          0,
          0,
          0,
          0,
          0,
          0,
          0,
          0,
          0,
          0,
          0,
          0,
          0,
          0,
          0,
          0,
          0,
          0,
          0,
          0,
          0,
          0,
          0,
          0,
          0,
          0,
          0,
          0,
          0,
          0,
          0,
          0,
          0,
          0,
          0,
          0,
          0,
          0,
          0,
          0,
          0,
          0,
          0,
          0,
          0,
          0,
          0,
          0,
          0,
          0,
          0,
          0,
          0,
          0,
          0,
          0,
          0,
          0,
          0,
          0,
          0,
          0,
          0,
          0,
          0,
          0,
          0,
          0,
          0,
          0,
          0
        ],
        "id1_sequences": [
          32,
          32,
          32,
          32,
          32,
          32,
          32,
          32,
          32,
          32,
          32,
          32,
          32,
          32,
          32,
          32,
          32,
          32,
          32,
          32,
          32,
          32,
          32,
          32,
          32,
          32,
          32,
          32,
          32,
          32,
          32,
          32,
          32,
          32,
          32,
          32,
          32,
          32,
          32,
          32,
          32,
          32,
          32,
          32,
          32,
          32,
          32,
          32,
          32,
          32,
          32,
          32,
          32,
          32,
          32,
          32,
          32,
          32,
          32,
          32,
          32,
          32,
          32,
          32
        ],
        "id1_seqSaved": [
          0,
          0,
          0,
          0,
          0,
          0,
          0,
          0,
          0,
          0,
          0,
          0,
          0,
          0,
          0,
          0,
          0,
          0,
          0,
          0,
          0,
          0,
          0,
          0,
          0,
          0,
          0,
          0,
          0,
          0,
          0,
          0,
          0,
          0,
          0,
          0,
          0,
          0,
          0,
          0,
          0,
          0,
          0,
          0,
          0,
          0,
          0,
          0,
          0,
          0,
          0,
          0,
          0,
          0,
          0,
          0,
          0,
          0,
          0,
          0,
          0,
          0,
          0,
          0
        ],
        "id1_cv": [],
        "id1_attributes": [],
        "id1_seqIndexEdit": 0,
        "id2_pulsesPerStep": 1,
        "id2_delay": 0,
        "id2_runModeSong": 0,
        "id2_songBeginIndex": 0,
        "id2_songEndIndex": 0,
        "id2_phrases": [
          0,
          0,
          0,
          0,
          0,
          0,
          0,
          0,
          0,
          0,
          0,
          0,
          0,
          0,
          0,
          0,
          0,
          0,
          0,
          0,
          0,
          0,
          0,
          0,
          0,
          0,
          0,
          0,
          0,
          0,
          0,
          0,
          0,
          0,
          0,
          0,
          0,
          0,
          0,
          0,
          0,
          0,
          0,
          0,
          0,
          0,
          0,
          0,
          0,
          0,
          0,
          0,
          0,
          0,
          0,
          0,
          0,
          0,
          0,
          0,
          0,
          0,
          0,
          0,
          0,
          0,
          0,
          0,
          0,
          0,
          0,
          0,
          0,
          0,
          0,
          0,
          0,
          0,
          0,
          0,
          0,
          0,
          0,
          0,
          0,
          0,
          0,
          0,
          0,
          0,
          0,
          0,
          0,
          0,
          0,
          0,
          0,
          0,
          0
        ],
        "id2_sequences": [
          32,
          32,
          32,
          32,
          32,
          32,
          32,
          32,
          32,
          32,
          32,
          32,
          32,
          32,
          32,
          32,
          32,
          32,
          32,
          32,
          32,
          32,
          32,
          32,
          32,
          32,
          32,
          32,
          32,
          32,
          32,
          32,
          32,
          32,
          32,
          32,
          32,
          32,
          32,
          32,
          32,
          32,
          32,
          32,
          32,
          32,
          32,
          32,
          32,
          32,
          32,
          32,
          32,
          32,
          32,
          32,
          32,
          32,
          32,
          32,
          32,
          32,
          32,
          32
        ],
        "id2_seqSaved": [
          0,
          0,
          0,
          0,
          0,
          0,
          0,
          0,
          0,
          0,
          0,
          0,
          0,
          0,
          0,
          0,
          0,
          0,
          0,
          0,
          0,
          0,
          0,
          0,
          0,
          0,
          0,
          0,
          0,
          0,
          0,
          0,
          0,
          0,
          0,
          0,
          0,
          0,
          0,
          0,
          0,
          0,
          0,
          0,
          0,
          0,
          0,
          0,
          0,
          0,
          0,
          0,
          0,
          0,
          0,
          0,
          0,
          0,
          0,
          0,
          0,
          0,
          0,
          0
        ],
        "id2_cv": [],
        "id2_attributes": [],
        "id2_seqIndexEdit": 0,
        "id3_pulsesPerStep": 1,
        "id3_delay": 0,
        "id3_runModeSong": 0,
        "id3_songBeginIndex": 0,
        "id3_songEndIndex": 0,
        "id3_phrases": [
          0,
          0,
          0,
          0,
          0,
          0,
          0,
          0,
          0,
          0,
          0,
          0,
          0,
          0,
          0,
          0,
          0,
          0,
          0,
          0,
          0,
          0,
          0,
          0,
          0,
          0,
          0,
          0,
          0,
          0,
          0,
          0,
          0,
          0,
          0,
          0,
          0,
          0,
          0,
          0,
          0,
          0,
          0,
          0,
          0,
          0,
          0,
          0,
          0,
          0,
          0,
          0,
          0,
          0,
          0,
          0,
          0,
          0,
          0,
          0,
          0,
          0,
          0,
          0,
          0,
          0,
          0,
          0,
          0,
          0,
          0,
          0,
          0,
          0,
          0,
          0,
          0,
          0,
          0,
          0,
          0,
          0,
          0,
          0,
          0,
          0,
          0,
          0,
          0,
          0,
          0,
          0,
          0,
          0,
          0,
          0,
          0,
          0,
          0
        ],
        "id3_sequences": [
          32,
          32,
          32,
          32,
          32,
          32,
          32,
          32,
          32,
          32,
          32,
          32,
          32,
          32,
          32,
          32,
          32,
          32,
          32,
          32,
          32,
          32,
          32,
          32,
          32,
          32,
          32,
          32,
          32,
          32,
          32,
          32,
          32,
          32,
          32,
          32,
          32,
          32,
          32,
          32,
          32,
          32,
          32,
          32,
          32,
          32,
          32,
          32,
          32,
          32,
          32,
          32,
          32,
          32,
          32,
          32,
          32,
          32,
          32,
          32,
          32,
          32,
          32,
          32
        ],
        "id3_seqSaved": [
          0,
          0,
          0,
          0,
          0,
          0,
          0,
          0,
          0,
          0,
          0,
          0,
          0,
          0,
          0,
          0,
          0,
          0,
          0,
          0,
          0,
          0,
          0,
          0,
          0,
          0,
          0,
          0,
          0,
          0,
          0,
          0,
          0,
          0,
          0,
          0,
          0,
          0,
          0,
          0,
          0,
          0,
          0,
          0,
          0,
          0,
          0,
          0,
          0,
          0,
          0,
          0,
          0,
          0,
          0,
          0,
          0,
          0,
          0,
          0,
          0,
          0,
          0,
          0
        ],
        "id3_cv": [],
        "id3_attributes": [],
        "id3_seqIndexEdit": 0,
        "mergeTracks": 0
      },
      "pos": [
        54,
        3
      ]
    },
    {
      "id": 38,
      "plugin": "Fundamental",
      "version": "1.4.0",
      "model": "Split",
      "params": [],
      "pos": [
        35,
        0
      ]
    },
    {
      "id": 39,
      "plugin": "TechTechTechnologies",
      "version": "1.0.0",
      "model": "Prometheus2",
      "params": [
        {
          "id": 0,
          "value": 1.0
        },
        {
          "id": 1,
          "value": 1.0
        },
        {
          "id": 2,
          "value": 1.0
        },
        {
          "id": 3,
          "value": 1.0
        },
        {
          "id": 4,
          "value": 0.0
        },
        {
          "id": 5,
          "value": 0.0
        },
        {
          "id": 6,
          "value": 7.80401134
        },
        {
          "id": 7,
          "value": 1.0
        },
        {
          "id": 8,
          "value": 1.0
        },
        {
          "id": 9,
          "value": 0.0
        },
        {
          "id": 10,
          "value": 0.0
        },
        {
          "id": 11,
          "value": 0.0
        },
        {
          "id": 12,
          "value": 0.0
        }
      ],
      "rightModuleId": 40,
      "pos": [
        94,
        3
      ]
    },
    {
      "id": 40,
      "plugin": "Fundamental",
      "version": "1.4.0",
      "model": "Merge",
      "params": [],
      "leftModuleId": 39,
      "rightModuleId": 41,
      "data": {
        "channels": -1
      },
      "pos": [
        102,
        3
      ]
    },
    {
      "id": 41,
      "plugin": "Fundamental",
      "version": "1.4.0",
      "model": "Merge",
      "params": [],
      "leftModuleId": 40,
      "data": {
        "channels": -1
      },
      "pos": [
        107,
        3
      ]
    },
    {
      "id": 42,
      "plugin": "Fundamental",
      "version": "1.4.0",
      "model": "Sum",
      "params": [
        {
          "id": 0,
          "value": 1.0
        }
      ],
      "pos": [
        50,
        3
      ]
    },
    {
      "id": 43,
      "plugin": "MockbaModular",
      "version": "1.2.1",
      "model": "Dividah",
      "params": [],
      "leftModuleId": 49,
      "pos": [
        119,
        3
      ]
    },
    {
      "id": 44,
      "plugin": "Bogaudio",
      "version": "1.1.26",
      "model": "Bogaudio-LFO",
      "params": [
        {
          "id": 0,
          "value": 0.290565968
        },
        {
          "id": 1,
          "value": 0.0
        },
        {
          "id": 2,
          "value": 0.0
        },
        {
          "id": 3,
          "value": 0.0
        },
        {
          "id": 4,
          "value": 0.0
        },
        {
          "id": 5,
          "value": 1.0
        }
      ],
      "rightModuleId": 51,
      "pos": [
        122,
        3
      ]
    },
    {
      "id": 45,
      "plugin": "squinkylabs-plug1",
      "version": "1.0.6",
      "model": "squinkylabs-mixm",
      "params": [
        {
          "id": 0,
          "value": 0.910500228
        },
        {
          "id": 1,
          "value": 0.0
        },
        {
          "id": 2,
          "value": 0.0
        },
        {
          "id": 3,
          "value": 0.0
        },
        {
          "id": 4,
          "value": 0.0
        },
        {
          "id": 5,
          "value": 0.0
        },
        {
          "id": 6,
          "value": 0.0
        },
        {
          "id": 7,
          "value": 0.0
        },
        {
          "id": 8,
          "value": 0.0
        },
        {
          "id": 9,
          "value": 0.0
        },
        {
          "id": 10,
          "value": 0.0
        },
        {
          "id": 11,
          "value": 0.0
        },
        {
          "id": 12,
          "value": 0.0
        },
        {
          "id": 13,
          "value": 0.0
        },
        {
          "id": 14,
          "value": 0.0
        },
        {
          "id": 15,
          "value": 0.0
        },
        {
          "id": 16,
          "value": 0.0
        },
        {
          "id": 17,
          "value": 0.0
        },
        {
          "id": 18,
          "value": 0.0
        },
        {
          "id": 19,
          "value": 0.688500166
        },
        {
          "id": 20,
          "value": 0.0
        },
        {
          "id": 21,
          "value": 0.0
        },
        {
          "id": 22,
          "value": 0.0
        },
        {
          "id": 23,
          "value": 0.0
        },
        {
          "id": 24,
          "value": 0.0
        },
        {
          "id": 25,
          "value": 0.0
        },
        {
          "id": 26,
          "value": 0.0
        },
        {
          "id": 27,
          "value": 1.0
        },
        {
          "id": 28,
          "value": 0.0
        },
        {
          "id": 29,
          "value": 0.86950022
        },
        {
          "id": 30,
          "value": 0.0
        },
        {
          "id": 31,
          "value": 0.0
        },
        {
          "id": 32,
          "value": 0.0
        },
        {
          "id": 33,
          "value": 0.0
        },
        {
          "id": 34,
          "value": 0.0
        },
        {
          "id": 35,
          "value": 0.0
        },
        {
          "id": 36,
          "value": 0.0
        }
      ],
      "leftModuleId": 46,
      "rightModuleId": 47,
      "pos": [
        74,
        0
      ]
    },
    {
      "id": 46,
      "plugin": "squinkylabs-plug1",
      "version": "1.0.6",
      "model": "squinkylabs-mixStereo",
      "params": [
        {
          "id": 0,
          "value": 0.968499959
        },
        {
          "id": 1,
          "value": 1.0
        },
        {
          "id": 2,
          "value": 0.0
        },
        {
          "id": 3,
          "value": 0.0
        },
        {
          "id": 4,
          "value": 0.0
        },
        {
          "id": 5,
          "value": 0.0
        },
        {
          "id": 6,
          "value": 0.0
        },
        {
          "id": 7,
          "value": 0.0
        },
        {
          "id": 8,
          "value": 0.0
        },
        {
          "id": 9,
          "value": 0.0
        },
        {
          "id": 10,
          "value": 0.804000258
        },
        {
          "id": 11,
          "value": 0.0
        },
        {
          "id": 12,
          "value": 0.0
        },
        {
          "id": 13,
          "value": 0.0
        },
        {
          "id": 14,
          "value": 0.0
        },
        {
          "id": 15,
          "value": 0.0
        },
        {
          "id": 16,
          "value": 0.0
        },
        {
          "id": 17,
          "value": 0.0
        }
      ],
      "rightModuleId": 45,
      "pos": [
        66,
        0
      ]
    },
    {
      "id": 47,
      "plugin": "Valley",
      "version": "1.0.1",
      "model": "Plateau",
      "params": [
        {
          "id": 0,
          "value": 0.0449999981
        },
        {
          "id": 1,
          "value": 1.0
        },
        {
          "id": 2,
          "value": 0.250500083
        },
        {
          "id": 3,
          "value": 0.674999893
        },
        {
          "id": 4,
          "value": 10.0
        },
        {
          "id": 5,
          "value": 0.878500104
        },
        {
          "id": 6,
          "value": 3.60999894
        },
        {
          "id": 7,
          "value": 0.313726634
        },
        {
          "id": 8,
          "value": 10.0
        },
        {
          "id": 9,
          "value": 1.08999622
        },
        {
          "id": 10,
          "value": 0.0
        },
        {
          "id": 11,
          "value": 0.5
        },
        {
          "id": 12,
          "value": 0.5
        },
        {
          "id": 13,
          "value": 0.0
        },
        {
          "id": 14,
          "value": 0.0
        },
        {
          "id": 15,
          "value": 0.0
        },
        {
          "id": 16,
          "value": 0.0
        },
        {
          "id": 17,
          "value": 0.0
        },
        {
          "id": 18,
          "value": 0.0
        },
        {
          "id": 19,
          "value": 0.0
        },
        {
          "id": 20,
          "value": 0.0
        },
        {
          "id": 21,
          "value": 0.0
        },
        {
          "id": 22,
          "value": 0.0
        },
        {
          "id": 23,
          "value": 0.0
        },
        {
          "id": 24,
          "value": 0.0
        },
        {
          "id": 25,
          "value": 0.0
        },
        {
          "id": 26,
          "value": 0.0
        },
        {
          "id": 27,
          "value": 0.0
        },
        {
          "id": 28,
          "value": 0.0
        },
        {
          "id": 29,
          "value": 0.0
        },
        {
          "id": 30,
          "value": 1.0
        }
      ],
      "leftModuleId": 45,
      "rightModuleId": 48,
      "data": {
        "frozen": false,
        "freezeToggle": false,
        "panelStyle": 0,
        "tuned": 0,
        "diffuseInput": 1,
        "preDelayCVSens": 0,
        "inputSensitivity": 0,
        "outputSaturation": 0
      },
      "pos": [
        91,
        0
      ]
    },
    {
      "id": 48,
      "plugin": "NYSTHI",
      "version": "1.0.9",
      "model": "MasterRecorder2",
      "params": [
        {
          "id": 0,
          "value": 0.0
        },
        {
          "id": 1,
          "value": 0.0
        },
        {
          "id": 2,
          "value": 0.0
        },
        {
          "id": 3,
          "value": 1.0
        },
        {
          "id": 4,
          "value": 1.0
        },
        {
          "id": 5,
          "value": 0.0
        },
        {
          "id": 6,
          "value": 0.0
        },
        {
          "id": 7,
          "value": 0.0
        },
        {
          "id": 8,
          "value": 0.0
        },
        {
          "id": 9,
          "value": 0.00499999989
        },
        {
          "id": 10,
          "value": 0.00999999978
        },
        {
          "id": 11,
          "value": 2.0
        },
        {
          "id": 12,
          "value": 0.5
        },
        {
          "id": 13,
          "value": 0.0
        },
        {
          "id": 14,
          "value": 0.100000001
        },
        {
          "id": 15,
          "value": 0.0
        },
        {
          "id": 16,
          "value": 1.0
        }
      ],
      "leftModuleId": 47,
      "rightModuleId": 50,
      "data": {
        "wavebits": 9,
        "rms_time": 0.00100000005,
        "peak_time": 0.5,
        "m_invertphaseleft": false,
        "m_invertphaseright": false,
        "m_locklevelleftright": false,
        "m_kompressor_active": false,
        "m_distort": false,
        "m_attenuation": 1.0,
        "m_enconding_format": "mp3",
        "m_encoding_bitrate": 320000,
        "m_autoenumeratefiles": true
      },
      "pos": [
        103,
        0
      ]
    },
    {
      "id": 49,
      "plugin": "Befaco",
      "version": "1.0.0",
      "model": "SlewLimiter",
      "params": [
        {
          "id": 0,
          "value": 1.0
        },
        {
          "id": 1,
          "value": 0.453000307
        },
        {
          "id": 2,
          "value": 0.269999921
        }
      ],
      "rightModuleId": 43,
      "pos": [
        113,
        3
      ]
    },
    {
      "id": 50,
      "plugin": "Fundamental",
      "version": "1.4.0",
      "model": "VCA-1",
      "params": [
        {
          "id": 0,
          "value": 1.0
        },
        {
          "id": 1,
          "value": 1.0
        }
      ],
      "leftModuleId": 48,
      "rightModuleId": 53,
      "pos": [
        112,
        0
      ]
    },
    {
      "id": 51,
      "plugin": "Befaco",
      "version": "1.0.0",
      "model": "DualAtenuverter",
      "params": [
        {
          "id": 0,
          "value": 1.0
        },
        {
          "id": 1,
          "value": 0.0
        },
        {
          "id": 2,
          "value": -1.0
        },
        {
          "id": 3,
          "value": 10.0
        }
      ],
      "leftModuleId": 44,
      "pos": [
        132,
        3
      ]
    },
    {
      "id": 52,
      "plugin": "Fundamental",
      "version": "1.4.0",
      "model": "Scope",
      "params": [
        {
          "id": 0,
          "value": 0.0
        },
        {
          "id": 1,
          "value": 0.0
        },
        {
          "id": 2,
          "value": 0.0
        },
        {
          "id": 3,
          "value": 0.0
        },
        {
          "id": 4,
          "value": 6.0
        },
        {
          "id": 5,
          "value": 0.0
        },
        {
          "id": 6,
          "value": 0.0
        },
        {
          "id": 7,
          "value": 0.0
        }
      ],
      "leftModuleId": 36,
      "data": {
        "lissajous": 0,
        "external": 0
      },
      "pos": [
        153,
        1
      ]
    },
    {
      "id": 53,
      "plugin": "Fundamental",
      "version": "1.4.0",
      "model": "VCA",
      "params": [
        {
          "id": 0,
          "value": 1.0
        },
        {
          "id": 1,
          "value": 1.0
        }
      ],
      "leftModuleId": 50,
      "rightModuleId": 54,
      "pos": [
        115,
        0
      ]
    },
    {
      "id": 54,
      "plugin": "Befaco",
      "version": "1.0.0",
      "model": "DualAtenuverter",
      "params": [
        {
          "id": 0,
          "value": 0.0
        },
        {
          "id": 1,
          "value": 10.0
        },
        {
          "id": 2,
          "value": 0.0370000713
        },
        {
          "id": 3,
          "value": 0.0
        }
      ],
      "leftModuleId": 53,
      "pos": [
        120,
        0
      ]
    }
  ],
  "cables": [
    {
      "id": 1538,
      "outputModuleId": 6,
      "outputId": 0,
      "inputModuleId": 4,
      "inputId": 0,
      "color": "#c91847"
    },
    {
      "id": 1543,
      "outputModuleId": 5,
      "outputId": 6,
      "inputModuleId": 6,
      "inputId": 5,
      "color": "#c91847"
    },
    {
      "id": 1549,
      "outputModuleId": 13,
      "outputId": 3,
      "inputModuleId": 12,
      "inputId": 1,
      "color": "#0986ad"
    },
    {
      "id": 1562,
      "outputModuleId": 16,
      "outputId": 0,
      "inputModuleId": 9,
      "inputId": 0,
      "color": "#c9b70e"
    },
    {
      "id": 1569,
      "outputModuleId": 16,
      "outputId": 0,
      "inputModuleId": 18,
      "inputId": 1,
      "color": "#0986ad"
    },
    {
      "id": 1561,
      "outputModuleId": 16,
      "outputId": 0,
      "inputModuleId": 7,
      "inputId": 0,
      "color": "#0986ad"
    },
    {
      "id": 1573,
      "outputModuleId": 17,
      "outputId": 0,
      "inputModuleId": 16,
      "inputId": 1,
      "color": "#0986ad"
    },
    {
      "id": 1574,
      "outputModuleId": 18,
      "outputId": 1,
      "inputModuleId": 16,
      "inputId": 0,
      "color": "#c9b70e"
    },
    {
      "id": 1580,
      "outputModuleId": 11,
      "outputId": 0,
      "inputModuleId": 4,
      "inputId": 3,
      "color": "#c91847"
    },
    {
      "id": 1581,
      "outputModuleId": 6,
      "outputId": 0,
      "inputModuleId": 11,
      "inputId": 2,
      "color": "#0986ad"
    },
    {
      "id": 1584,
      "outputModuleId": 19,
      "outputId": 3,
      "inputModuleId": 9,
      "inputId": 3,
      "color": "#c91847"
    },
    {
      "id": 1588,
      "outputModuleId": 5,
      "outputId": 0,
      "inputModuleId": 22,
      "inputId": 0,
      "color": "#0986ad"
    },
    {
      "id": 1601,
      "outputModuleId": 27,
      "outputId": 0,
      "inputModuleId": 7,
      "inputId": 1,
      "color": "#0c8e15"
    },
    {
      "id": 1603,
      "outputModuleId": 25,
      "outputId": 1,
      "inputModuleId": 28,
      "inputId": 1,
      "color": "#c9b70e"
    },
    {
      "id": 1604,
      "outputModuleId": 28,
      "outputId": 0,
      "inputModuleId": 27,
      "inputId": 1,
      "color": "#c91847"
    },
    {
      "id": 1606,
      "outputModuleId": 29,
      "outputId": 0,
      "inputModuleId": 30,
      "inputId": 1,
      "color": "#c9b70e"
    },
    {
      "id": 1607,
      "outputModuleId": 29,
      "outputId": 0,
      "inputModuleId": 18,
      "inputId": 0,
      "color": "#0c8e15"
    },
    {
      "id": 1608,
      "outputModuleId": 18,
      "outputId": 0,
      "inputModuleId": 28,
      "inputId": 0,
      "color": "#c91847"
    },
    {
      "id": 1609,
      "outputModuleId": 18,
      "outputId": 0,
      "inputModuleId": 30,
      "inputId": 0,
      "color": "#0986ad"
    },
    {
      "id": 1610,
      "outputModuleId": 19,
      "outputId": 3,
      "inputModuleId": 31,
      "inputId": 1,
      "color": "#c9b70e"
    },
    {
      "id": 1611,
      "outputModuleId": 31,
      "outputId": 1,
      "inputModuleId": 14,
      "inputId": 3,
      "color": "#0c8e15"
    },
    {
      "id": 1575,
      "outputModuleId": 14,
      "outputId": 3,
      "inputModuleId": 9,
      "inputId": 1,
      "color": "#0c8e15"
    },
    {
      "id": 1616,
      "outputModuleId": 32,
      "outputId": 0,
      "inputModuleId": 2,
      "inputId": 2,
      "color": "#c91847"
    },
    {
      "id": 1615,
      "outputModuleId": 4,
      "outputId": 0,
      "inputModuleId": 2,
      "inputId": 1,
      "color": "#0c8e15"
    },
    {
      "id": 1618,
      "outputModuleId": 33,
      "outputId": 0,
      "inputModuleId": 32,
      "inputId": 11,
      "color": "#c9b70e"
    },
    {
      "id": 1619,
      "outputModuleId": 5,
      "outputId": 1,
      "inputModuleId": 34,
      "inputId": 0,
      "color": "#0c8e15"
    },
    {
      "id": 1583,
      "outputModuleId": 15,
      "outputId": 2,
      "inputModuleId": 19,
      "inputId": 3,
      "color": "#0c8e15"
    },
    {
      "id": 1623,
      "outputModuleId": 35,
      "outputId": 2,
      "inputModuleId": 32,
      "inputId": 0,
      "color": "#0c8e15"
    },
    {
      "id": 1624,
      "outputModuleId": 35,
      "outputId": 2,
      "inputModuleId": 14,
      "inputId": 1,
      "color": "#c91847"
    },
    {
      "id": 1625,
      "outputModuleId": 35,
      "outputId": 2,
      "inputModuleId": 31,
      "inputId": 0,
      "color": "#0986ad"
    },
    {
      "id": 1630,
      "outputModuleId": 38,
      "outputId": 0,
      "inputModuleId": 37,
      "inputId": 1,
      "color": "#0986ad"
    },
    {
      "id": 1631,
      "outputModuleId": 38,
      "outputId": 1,
      "inputModuleId": 37,
      "inputId": 2,
      "color": "#c9b70e"
    },
    {
      "id": 1632,
      "outputModuleId": 38,
      "outputId": 2,
      "inputModuleId": 37,
      "inputId": 3,
      "color": "#0c8e15"
    },
    {
      "id": 1633,
      "outputModuleId": 38,
      "outputId": 3,
      "inputModuleId": 37,
      "inputId": 4,
      "color": "#c91847"
    },
    {
      "id": 1636,
      "outputModuleId": 39,
      "outputId": 0,
      "inputModuleId": 11,
      "inputId": 0,
      "color": "#c91847"
    },
    {
      "id": 1637,
      "outputModuleId": 27,
      "outputId": 0,
      "inputModuleId": 38,
      "inputId": 0,
      "color": "#0986ad"
    },
    {
      "id": 1638,
      "outputModuleId": 37,
      "outputId": 0,
      "inputModuleId": 40,
      "inputId": 0,
      "color": "#c9b70e"
    },
    {
      "id": 1639,
      "outputModuleId": 37,
      "outputId": 1,
      "inputModuleId": 40,
      "inputId": 1,
      "color": "#0c8e15"
    },
    {
      "id": 1644,
      "outputModuleId": 37,
      "outputId": 8,
      "inputModuleId": 41,
      "inputId": 0,
      "color": "#c91847"
    },
    {
      "id": 1645,
      "outputModuleId": 37,
      "outputId": 9,
      "inputModuleId": 41,
      "inputId": 1,
      "color": "#0986ad"
    },
    {
      "id": 1646,
      "outputModuleId": 41,
      "outputId": 0,
      "inputModuleId": 6,
      "inputId": 4,
      "color": "#c9b70e"
    },
    {
      "id": 1648,
      "outputModuleId": 37,
      "outputId": 9,
      "inputModuleId": 39,
      "inputId": 1,
      "color": "#0986ad"
    },
    {
      "id": 1649,
      "outputModuleId": 5,
      "outputId": 1,
      "inputModuleId": 42,
      "inputId": 0,
      "color": "#c9b70e"
    },
    {
      "id": 1650,
      "outputModuleId": 42,
      "outputId": 0,
      "inputModuleId": 37,
      "inputId": 0,
      "color": "#0986ad"
    },
    {
      "id": 1652,
      "outputModuleId": 43,
      "outputId": 0,
      "inputModuleId": 37,
      "inputId": 6,
      "color": "#0c8e15"
    },
    {
      "id": 1653,
      "outputModuleId": 43,
      "outputId": 1,
      "inputModuleId": 37,
      "inputId": 7,
      "color": "#c91847"
    },
    {
      "id": 1654,
      "outputModuleId": 14,
      "outputId": 0,
      "inputModuleId": 39,
      "inputId": 0,
      "color": "#0986ad"
    },
    {
      "id": 1655,
      "outputModuleId": 39,
      "outputId": 0,
      "inputModuleId": 36,
      "inputId": 0,
      "color": "#c9b70e"
    },
    {
      "id": 1657,
      "outputModuleId": 44,
      "outputId": 2,
      "inputModuleId": 43,
      "inputId": 0,
      "color": "#c91847"
    },
    {
      "id": 1658,
      "outputModuleId": 40,
      "outputId": 0,
      "inputModuleId": 27,
      "inputId": 0,
      "color": "#0986ad"
    },
    {
      "id": 1659,
      "outputModuleId": 27,
      "outputId": 0,
      "inputModuleId": 14,
      "inputId": 0,
      "color": "#c9b70e"
    },
    {
      "id": 1617,
      "outputModuleId": 4,
      "outputId": 1,
      "inputModuleId": 33,
      "inputId": 0,
      "color": "#0986ad"
    },
    {
      "id": 1660,
      "outputModuleId": 40,
      "outputId": 0,
      "inputModuleId": 39,
      "inputId": 4,
      "color": "#0c8e15"
    },
    {
      "id": 1579,
      "outputModuleId": 11,
      "outputId": 0,
      "inputModuleId": 9,
      "inputId": 2,
      "color": "#0c8e15"
    },
    {
      "id": 1661,
      "outputModuleId": 33,
      "outputId": 0,
      "inputModuleId": 32,
      "inputId": 12,
      "color": "#c9b70e"
    },
    {
      "id": 1664,
      "outputModuleId": 32,
      "outputId": 1,
      "inputModuleId": 46,
      "inputId": 3,
      "color": "#0986ad"
    },
    {
      "id": 1665,
      "outputModuleId": 45,
      "outputId": 1,
      "inputModuleId": 1,
      "inputId": 1,
      "color": "#c9b70e"
    },
    {
      "id": 1666,
      "outputModuleId": 45,
      "outputId": 0,
      "inputModuleId": 1,
      "inputId": 0,
      "color": "#0c8e15"
    },
    {
      "id": 1663,
      "outputModuleId": 32,
      "outputId": 0,
      "inputModuleId": 46,
      "inputId": 2,
      "color": "#c91847"
    },
    {
      "id": 1670,
      "outputModuleId": 47,
      "outputId": 1,
      "inputModuleId": 45,
      "inputId": 17,
      "color": "#0c8e15"
    },
    {
      "id": 1669,
      "outputModuleId": 47,
      "outputId": 0,
      "inputModuleId": 45,
      "inputId": 16,
      "color": "#c9b70e"
    },
    {
      "id": 1671,
      "outputModuleId": 45,
      "outputId": 0,
      "inputModuleId": 48,
      "inputId": 0,
      "color": "#c91847"
    },
    {
      "id": 1672,
      "outputModuleId": 45,
      "outputId": 1,
      "inputModuleId": 48,
      "inputId": 1,
      "color": "#0986ad"
    },
    {
      "id": 1662,
      "outputModuleId": 4,
      "outputId": 0,
      "inputModuleId": 50,
      "inputId": 1,
      "color": "#0c8e15"
    },
    {
      "id": 1677,
      "outputModuleId": 50,
      "outputId": 0,
      "inputModuleId": 45,
      "inputId": 0,
      "color": "#c9b70e"
    },
    {
      "id": 1678,
      "outputModuleId": 49,
      "outputId": 0,
      "inputModuleId": 50,
      "inputId": 0,
      "color": "#0c8e15"
    },
    {
      "id": 1675,
      "outputModuleId": 37,
      "outputId": 9,
      "inputModuleId": 51,
      "inputId": 1,
      "color": "#c91847"
    },
    {
      "id": 1679,
      "outputModuleId": 51,
      "outputId": 1,
      "inputModuleId": 49,
      "inputId": 2,
      "color": "#c91847"
    },
    {
      "id": 1680,
      "outputModuleId": 49,
      "outputId": 0,
      "inputModuleId": 52,
      "inputId": 0,
      "color": "#0986ad"
    },
    {
      "id": 1681,
      "outputModuleId": 45,
      "outputId": 6,
      "inputModuleId": 53,
      "inputId": 2,
      "color": "#c9b70e"
    },
    {
      "id": 1682,
      "outputModuleId": 45,
      "outputId": 7,
      "inputModuleId": 53,
      "inputId": 5,
      "color": "#0c8e15"
    },
    {
      "id": 1683,
      "outputModuleId": 53,
      "outputId": 0,
      "inputModuleId": 47,
      "inputId": 0,
      "color": "#c91847"
    },
    {
      "id": 1684,
      "outputModuleId": 53,
      "outputId": 1,
      "inputModuleId": 47,
      "inputId": 1,
      "color": "#0986ad"
    },
    {
      "id": 1685,
      "outputModuleId": 54,
      "outputId": 0,
      "inputModuleId": 53,
      "inputId": 0,
      "color": "#c9b70e"
    },
    {
      "id": 1686,
      "outputModuleId": 54,
      "outputId": 0,
      "inputModuleId": 53,
      "inputId": 3,
      "color": "#0c8e15"
    },
    {
      "id": 1687,
      "outputModuleId": 54,
      "outputId": 0,
      "inputModuleId": 46,
      "inputId": 5,
      "color": "#c91847"
    },
    {
      "id": 1688,
      "outputModuleId": 43,
      "outputId": 2,
      "inputModuleId": 54,
      "inputId": 0,
      "color": "#0986ad"
    }
  ]
}