{
  "version": "1.1.6",
  "modules": [
    {
      "id": 1,
      "plugin": "Core",
      "version": "1.1.6",
      "model": "AudioInterface",
      "params": [],
      "leftModuleId": 658,
      "data": {
        "audio": {
          "driver": 6,
          "deviceName": "Speakers (Realtek High Definition Audio)",
          "offset": 0,
          "maxChannels": 8,
          "sampleRate": 44100,
          "blockSize": 256
        }
      },
      "pos": [
        141,
        2
      ]
    },
    {
      "id": 8,
      "plugin": "Core",
      "version": "1.1.6",
      "model": "Notes",
      "params": [],
      "text": "Demo patch instructions:\n\n1. Choose an audio driver and device in the AUDIO-8 module.\n\n2. Use the QWERTY and ZXCVB rows of your keyboard to generate MIDI notes, which are converted to 1V/oct and GATE signals.\n\n3. Drag knobs up/down. Hold Ctrl (Cmd on Mac) while dragging to fine-tune. Right-click knobs to edit, or double-click to initialize.\n\n4. Drag ports to create and move cables. Stack multiple cables on outputs by holding Ctrl (Cmd on Mac) and dragging from an output.\n\n5. Right-click on an empty rack space to add new modules.",
      "pos": [
        80,
        3
      ]
    },
    {
      "id": 642,
      "plugin": "TechTechTechnologies",
      "version": "1.0.0",
      "model": "Prometheus2",
      "params": [
        {
          "id": 0,
          "value": 1.0
        },
        {
          "id": 1,
          "value": 1.0
        },
        {
          "id": 2,
          "value": 0.0
        },
        {
          "id": 3,
          "value": 1.0
        },
        {
          "id": 4,
          "value": 0.0
        },
        {
          "id": 5,
          "value": 0.0
        },
        {
          "id": 6,
          "value": 5.91400814
        },
        {
          "id": 7,
          "value": 1.0
        },
        {
          "id": 8,
          "value": 1.0
        },
        {
          "id": 9,
          "value": 0.0
        },
        {
          "id": 10,
          "value": -4.0
        },
        {
          "id": 11,
          "value": 0.0
        },
        {
          "id": 12,
          "value": 0.0
        }
      ],
      "leftModuleId": 648,
      "rightModuleId": 650,
      "pos": [
        54,
        2
      ]
    },
    {
      "id": 643,
      "plugin": "squinkylabs-plug1",
      "version": "1.0.8",
      "model": "squinkylabs-mixm",
      "params": [
        {
          "id": 0,
          "value": 0.0
        },
        {
          "id": 1,
          "value": 0.0
        },
        {
          "id": 2,
          "value": 0.0
        },
        {
          "id": 3,
          "value": 0.831002235
        },
        {
          "id": 4,
          "value": 0.0
        },
        {
          "id": 5,
          "value": 0.0
        },
        {
          "id": 6,
          "value": 0.0
        },
        {
          "id": 7,
          "value": 0.0
        },
        {
          "id": 8,
          "value": 0.0
        },
        {
          "id": 9,
          "value": 0.0
        },
        {
          "id": 10,
          "value": 0.0
        },
        {
          "id": 11,
          "value": 0.0
        },
        {
          "id": 12,
          "value": 0.0
        },
        {
          "id": 13,
          "value": 0.0
        },
        {
          "id": 14,
          "value": 0.0
        },
        {
          "id": 15,
          "value": 0.0
        },
        {
          "id": 16,
          "value": 0.0
        },
        {
          "id": 17,
          "value": 0.0
        },
        {
          "id": 18,
          "value": 0.0
        },
        {
          "id": 19,
          "value": 0.0
        },
        {
          "id": 20,
          "value": 0.458500087
        },
        {
          "id": 21,
          "value": 0.441000015
        },
        {
          "id": 22,
          "value": 0.0
        },
        {
          "id": 23,
          "value": 0.0
        },
        {
          "id": 24,
          "value": 0.340499759
        },
        {
          "id": 25,
          "value": 0.403500438
        },
        {
          "id": 26,
          "value": 0.0
        },
        {
          "id": 27,
          "value": 1.0
        },
        {
          "id": 28,
          "value": 1.0
        },
        {
          "id": 29,
          "value": 0.0
        },
        {
          "id": 30,
          "value": 0.0
        },
        {
          "id": 31,
          "value": 0.0
        },
        {
          "id": 32,
          "value": 0.0
        },
        {
          "id": 33,
          "value": 0.0
        },
        {
          "id": 34,
          "value": 0.0
        },
        {
          "id": 35,
          "value": 0.0
        },
        {
          "id": 36,
          "value": 0.0
        }
      ],
      "leftModuleId": 644,
      "rightModuleId": 646,
      "pos": [
        91,
        2
      ]
    },
    {
      "id": 644,
      "plugin": "squinkylabs-plug1",
      "version": "1.0.8",
      "model": "squinkylabs-mix4",
      "params": [
        {
          "id": 0,
          "value": 0.0
        },
        {
          "id": 1,
          "value": 0.0
        },
        {
          "id": 2,
          "value": 0.0
        },
        {
          "id": 3,
          "value": 0.0
        },
        {
          "id": 4,
          "value": 0.0
        },
        {
          "id": 5,
          "value": 0.0
        },
        {
          "id": 6,
          "value": 0.0
        },
        {
          "id": 7,
          "value": 0.0
        },
        {
          "id": 8,
          "value": 0.0
        },
        {
          "id": 9,
          "value": 0.0
        },
        {
          "id": 10,
          "value": 0.0
        },
        {
          "id": 11,
          "value": 0.0
        },
        {
          "id": 12,
          "value": 0.0
        },
        {
          "id": 13,
          "value": 0.0
        },
        {
          "id": 14,
          "value": 0.0
        },
        {
          "id": 15,
          "value": 0.0
        },
        {
          "id": 16,
          "value": 0.0
        },
        {
          "id": 17,
          "value": 0.0
        },
        {
          "id": 18,
          "value": 0.0
        },
        {
          "id": 19,
          "value": 0.0
        },
        {
          "id": 20,
          "value": 0.0
        },
        {
          "id": 21,
          "value": 0.0
        },
        {
          "id": 22,
          "value": 0.0
        },
        {
          "id": 23,
          "value": 0.0
        },
        {
          "id": 24,
          "value": 0.0
        },
        {
          "id": 25,
          "value": 1.0
        },
        {
          "id": 26,
          "value": 0.0
        },
        {
          "id": 27,
          "value": 0.0
        },
        {
          "id": 28,
          "value": 0.0
        },
        {
          "id": 29,
          "value": 0.0
        },
        {
          "id": 30,
          "value": 0.0
        },
        {
          "id": 31,
          "value": 0.0
        }
      ],
      "leftModuleId": 645,
      "rightModuleId": 643,
      "pos": [
        81,
        2
      ]
    },
    {
      "id": 645,
      "plugin": "squinkylabs-plug1",
      "version": "1.0.8",
      "model": "squinkylabs-mixStereo",
      "params": [
        {
          "id": 0,
          "value": 0.496500134
        },
        {
          "id": 1,
          "value": 0.232499972
        },
        {
          "id": 2,
          "value": 0.0
        },
        {
          "id": 3,
          "value": 0.0
        },
        {
          "id": 4,
          "value": 0.0
        },
        {
          "id": 5,
          "value": 0.0
        },
        {
          "id": 6,
          "value": 0.0
        },
        {
          "id": 7,
          "value": 0.0
        },
        {
          "id": 8,
          "value": 0.0
        },
        {
          "id": 9,
          "value": 0.433500022
        },
        {
          "id": 10,
          "value": 0.604500055
        },
        {
          "id": 11,
          "value": 0.0
        },
        {
          "id": 12,
          "value": 0.0
        },
        {
          "id": 13,
          "value": 0.0
        },
        {
          "id": 14,
          "value": 0.0
        },
        {
          "id": 15,
          "value": 1.0
        },
        {
          "id": 16,
          "value": 1.0
        },
        {
          "id": 17,
          "value": 0.0
        }
      ],
      "leftModuleId": 647,
      "rightModuleId": 644,
      "pos": [
        73,
        2
      ]
    },
    {
      "id": 646,
      "plugin": "AlrightDevices",
      "version": "1.0.2",
      "model": "Chronoblob2",
      "params": [
        {
          "id": 0,
          "value": 0.747500479
        },
        {
          "id": 1,
          "value": 0.5
        },
        {
          "id": 2,
          "value": 1.0
        },
        {
          "id": 3,
          "value": 0.0
        },
        {
          "id": 4,
          "value": 0.0
        },
        {
          "id": 5,
          "value": 0.0
        },
        {
          "id": 6,
          "value": 0.0
        },
        {
          "id": 7,
          "value": 0.0
        },
        {
          "id": 8,
          "value": 1.0
        },
        {
          "id": 9,
          "value": 0.0
        }
      ],
      "leftModuleId": 643,
      "rightModuleId": 712,
      "data": {
        "delay_mode": 1,
        "hold_behavior": 0,
        "sync_prescaler": 6
      },
      "pos": [
        108,
        2
      ]
    },
    {
      "id": 647,
      "plugin": "Valley",
      "version": "1.0.1",
      "model": "Feline",
      "params": [
        {
          "id": 0,
          "value": 0.0
        },
        {
          "id": 1,
          "value": 2.42999887
        },
        {
          "id": 2,
          "value": 1.0
        },
        {
          "id": 3,
          "value": 0.0
        },
        {
          "id": 4,
          "value": 0.0
        },
        {
          "id": 5,
          "value": 0.0
        },
        {
          "id": 6,
          "value": 0.0
        },
        {
          "id": 7,
          "value": 0.0
        },
        {
          "id": 8,
          "value": 0.0
        },
        {
          "id": 9,
          "value": 0.0
        },
        {
          "id": 10,
          "value": 0.0
        },
        {
          "id": 11,
          "value": 0.0
        },
        {
          "id": 12,
          "value": 1.0
        },
        {
          "id": 13,
          "value": 0.0
        },
        {
          "id": 14,
          "value": 0.0
        },
        {
          "id": 15,
          "value": 0.0
        },
        {
          "id": 16,
          "value": 0.0
        }
      ],
      "leftModuleId": 650,
      "rightModuleId": 645,
      "data": {
        "panelStyle": 0
      },
      "pos": [
        65,
        2
      ]
    },
    {
      "id": 648,
      "plugin": "ImpromptuModular",
      "version": "1.1.5",
      "model": "Clocked",
      "params": [
        {
          "id": 0,
          "value": 120.0
        },
        {
          "id": 1,
          "value": -5.0
        },
        {
          "id": 2,
          "value": -17.0
        },
        {
          "id": 3,
          "value": 4.0
        },
        {
          "id": 4,
          "value": 0.0
        },
        {
          "id": 5,
          "value": 0.0
        },
        {
          "id": 6,
          "value": 0.0
        },
        {
          "id": 7,
          "value": 0.0
        },
        {
          "id": 8,
          "value": 0.5
        },
        {
          "id": 9,
          "value": 0.5
        },
        {
          "id": 10,
          "value": 0.25
        },
        {
          "id": 11,
          "value": 0.5
        },
        {
          "id": 12,
          "value": 0.0
        },
        {
          "id": 13,
          "value": 0.0
        },
        {
          "id": 14,
          "value": 0.0
        },
        {
          "id": 15,
          "value": 0.0
        },
        {
          "id": 16,
          "value": 5.0
        },
        {
          "id": 17,
          "value": 0.0
        },
        {
          "id": 18,
          "value": 0.0
        },
        {
          "id": 19,
          "value": 0.0
        }
      ],
      "leftModuleId": 661,
      "rightModuleId": 642,
      "data": {
        "panelTheme": 0,
        "running": true,
        "displayDelayNoteMode": true,
        "bpmDetectionMode": false,
        "resetOnStartStop": 0,
        "ppqn": 4,
        "resetClockOutputsHigh": true,
        "momentaryRunInput": true
      },
      "pos": [
        34,
        2
      ]
    },
    {
      "id": 650,
      "plugin": "Bogaudio",
      "version": "1.1.31",
      "model": "Bogaudio-ADSR",
      "params": [
        {
          "id": 0,
          "value": 0.141421005
        },
        {
          "id": 1,
          "value": 0.316229999
        },
        {
          "id": 2,
          "value": 0.0
        },
        {
          "id": 3,
          "value": 0.331229985
        },
        {
          "id": 4,
          "value": 0.0
        }
      ],
      "leftModuleId": 642,
      "rightModuleId": 647,
      "data": {
        "invert": 1.0
      },
      "pos": [
        62,
        2
      ]
    },
    {
      "id": 651,
      "plugin": "TechTechTechnologies",
      "version": "1.0.0",
      "model": "Prometheus2",
      "params": [
        {
          "id": 0,
          "value": 1.0
        },
        {
          "id": 1,
          "value": 1.0
        },
        {
          "id": 2,
          "value": 1.0
        },
        {
          "id": 3,
          "value": 4.38661146
        },
        {
          "id": 4,
          "value": 0.0
        },
        {
          "id": 5,
          "value": 0.0
        },
        {
          "id": 6,
          "value": 6.97600746
        },
        {
          "id": 7,
          "value": 1.0
        },
        {
          "id": 8,
          "value": 1.0
        },
        {
          "id": 9,
          "value": 0.0
        },
        {
          "id": 10,
          "value": 0.0
        },
        {
          "id": 11,
          "value": 0.0
        },
        {
          "id": 12,
          "value": 0.0
        }
      ],
      "leftModuleId": 654,
      "rightModuleId": 653,
      "pos": [
        54,
        3
      ]
    },
    {
      "id": 652,
      "plugin": "Valley",
      "version": "1.0.1",
      "model": "Feline",
      "params": [
        {
          "id": 0,
          "value": 0.0
        },
        {
          "id": 1,
          "value": 4.14000082
        },
        {
          "id": 2,
          "value": 1.0
        },
        {
          "id": 3,
          "value": 0.0
        },
        {
          "id": 4,
          "value": -1.0
        },
        {
          "id": 5,
          "value": 0.366000146
        },
        {
          "id": 6,
          "value": 0.0
        },
        {
          "id": 7,
          "value": 0.0
        },
        {
          "id": 8,
          "value": 0.0
        },
        {
          "id": 9,
          "value": 0.0
        },
        {
          "id": 10,
          "value": 0.0
        },
        {
          "id": 11,
          "value": 0.0
        },
        {
          "id": 12,
          "value": 1.0
        },
        {
          "id": 13,
          "value": 0.0
        },
        {
          "id": 14,
          "value": 0.0
        },
        {
          "id": 15,
          "value": 0.987000108
        },
        {
          "id": 16,
          "value": 0.0
        }
      ],
      "leftModuleId": 653,
      "data": {
        "panelStyle": 0
      },
      "pos": [
        65,
        3
      ]
    },
    {
      "id": 653,
      "plugin": "Bogaudio",
      "version": "1.1.31",
      "model": "Bogaudio-ADSR",
      "params": [
        {
          "id": 0,
          "value": 0.0
        },
        {
          "id": 1,
          "value": 0.128729999
        },
        {
          "id": 2,
          "value": 0.0
        },
        {
          "id": 3,
          "value": 0.331229985
        },
        {
          "id": 4,
          "value": 0.0
        }
      ],
      "leftModuleId": 651,
      "rightModuleId": 652,
      "data": {
        "invert": 1.0
      },
      "pos": [
        62,
        3
      ]
    },
    {
      "id": 657,
      "plugin": "Bogaudio",
      "version": "1.1.31",
      "model": "Bogaudio-AddrSeq",
      "params": [
        {
          "id": 0,
          "value": 2.0
        },
        {
          "id": 1,
          "value": 0.0
        },
        {
          "id": 2,
          "value": 3.0
        },
        {
          "id": 3,
          "value": -0.955731511
        },
        {
          "id": 4,
          "value": 0.972206116
        },
        {
          "id": 5,
          "value": -0.370566607
        },
        {
          "id": 6,
          "value": -0.597585678
        },
        {
          "id": 7,
          "value": 0.415867567
        },
        {
          "id": 8,
          "value": -0.931387067
        },
        {
          "id": 9,
          "value": 0.240045309
        },
        {
          "id": 10,
          "value": -0.136117458
        }
      ],
      "leftModuleId": 662,
      "data": {
        "poly_input": 0,
        "select_on_clock": false,
        "triggered_select": false,
        "reverse_on_negative_clock": false,
        "range_offset": 0.0,
        "range_scale": 3.0
      },
      "pos": [
        40,
        3
      ]
    },
    {
      "id": 658,
      "plugin": "NYSTHI",
      "version": "1.0.11",
      "model": "MasterRecorder2",
      "params": [
        {
          "id": 0,
          "value": 0.0
        },
        {
          "id": 1,
          "value": 0.0
        },
        {
          "id": 2,
          "value": 0.0
        },
        {
          "id": 3,
          "value": 1.0
        },
        {
          "id": 4,
          "value": 1.0
        },
        {
          "id": 5,
          "value": 0.0
        },
        {
          "id": 6,
          "value": 0.0
        },
        {
          "id": 7,
          "value": 0.0
        },
        {
          "id": 8,
          "value": 0.0
        },
        {
          "id": 9,
          "value": 0.0112504987
        },
        {
          "id": 10,
          "value": 0.100000001
        },
        {
          "id": 11,
          "value": 4.27999878
        },
        {
          "id": 12,
          "value": 0.26834026
        },
        {
          "id": 13,
          "value": 0.0
        },
        {
          "id": 14,
          "value": 0.100000001
        },
        {
          "id": 15,
          "value": 0.0
        },
        {
          "id": 16,
          "value": 1.0
        }
      ],
      "leftModuleId": 712,
      "rightModuleId": 1,
      "data": {
        "wavebits": 9,
        "rms_time": 0.00100000005,
        "peak_time": 0.5,
        "m_invertphaseleft": false,
        "m_invertphaseright": false,
        "m_locklevelleftright": false,
        "m_kompressor_active": false,
        "m_distort": false,
        "m_attenuation": 1.0,
        "m_enconding_format": "mp3",
        "m_encoding_bitrate": 320000,
        "m_autoenumeratefiles": true
      },
      "pos": [
        132,
        2
      ]
    },
    {
      "id": 661,
      "plugin": "MockbaModular",
      "version": "1.2.1",
      "model": "Dividah",
      "params": [],
      "rightModuleId": 648,
      "pos": [
        32,
        2
      ]
    },
    {
      "id": 654,
      "plugin": "CountModula",
      "version": "1.9.0",
      "model": "BooleanAND",
      "params": [],
      "rightModuleId": 651,
      "data": {
        "moduleVersion": "1.2",
        "theme": 0
      },
      "pos": [
        50,
        3
      ]
    },
    {
      "id": 662,
      "plugin": "ML_modules",
      "version": "1.1.0",
      "model": "Quantum",
      "params": [
        {
          "id": 0,
          "value": 0.0
        },
        {
          "id": 1,
          "value": 0.0
        },
        {
          "id": 2,
          "value": 0.0
        },
        {
          "id": 3,
          "value": 0.0
        },
        {
          "id": 4,
          "value": 0.0
        },
        {
          "id": 5,
          "value": 0.0
        },
        {
          "id": 6,
          "value": 0.0
        },
        {
          "id": 7,
          "value": 0.0
        },
        {
          "id": 8,
          "value": 0.0
        },
        {
          "id": 9,
          "value": 0.0
        },
        {
          "id": 10,
          "value": 0.0
        },
        {
          "id": 11,
          "value": 0.0
        }
      ],
      "leftModuleId": 698,
      "rightModuleId": 657,
      "data": {
        "scale": [
          1,
          1,
          0,
          1,
          0,
          1,
          0,
          1,
          1,
          0,
          1,
          0
        ],
        "mode": 1,
        "transpose_select": 1,
        "toggle_mode": 0
      },
      "pos": [
        32,
        3
      ]
    },
    {
      "id": 684,
      "plugin": "ML_modules",
      "version": "1.1.0",
      "model": "Quantum",
      "params": [
        {
          "id": 0,
          "value": 0.0
        },
        {
          "id": 1,
          "value": 0.0
        },
        {
          "id": 2,
          "value": 0.0
        },
        {
          "id": 3,
          "value": 0.0
        },
        {
          "id": 4,
          "value": 0.0
        },
        {
          "id": 5,
          "value": 0.0
        },
        {
          "id": 6,
          "value": 0.0
        },
        {
          "id": 7,
          "value": 0.0
        },
        {
          "id": 8,
          "value": 0.0
        },
        {
          "id": 9,
          "value": 0.0
        },
        {
          "id": 10,
          "value": 0.0
        },
        {
          "id": 11,
          "value": 0.0
        }
      ],
      "leftModuleId": 685,
      "rightModuleId": 686,
      "data": {
        "scale": [
          1,
          0,
          1,
          1,
          0,
          1,
          0,
          1,
          1,
          0,
          0,
          1
        ],
        "mode": 1,
        "transpose_select": 1,
        "toggle_mode": 0
      },
      "pos": [
        58,
        1
      ]
    },
    {
      "id": 685,
      "plugin": "Bogaudio",
      "version": "1.1.31",
      "model": "Bogaudio-AddrSeq",
      "params": [
        {
          "id": 0,
          "value": 2.0
        },
        {
          "id": 1,
          "value": 0.0
        },
        {
          "id": 2,
          "value": 3.0
        },
        {
          "id": 3,
          "value": -0.00600000005
        },
        {
          "id": 4,
          "value": 0.972206116
        },
        {
          "id": 5,
          "value": -0.370566607
        },
        {
          "id": 6,
          "value": -0.597585678
        },
        {
          "id": 7,
          "value": 0.415867567
        },
        {
          "id": 8,
          "value": -0.931387067
        },
        {
          "id": 9,
          "value": 0.240045309
        },
        {
          "id": 10,
          "value": -0.136117458
        }
      ],
      "leftModuleId": 687,
      "rightModuleId": 684,
      "data": {
        "poly_input": 0,
        "select_on_clock": false,
        "triggered_select": false,
        "reverse_on_negative_clock": false,
        "range_offset": 0.0,
        "range_scale": 3.0
      },
      "pos": [
        52,
        1
      ]
    },
    {
      "id": 686,
      "plugin": "TechTechTechnologies",
      "version": "1.0.0",
      "model": "Prometheus2",
      "params": [
        {
          "id": 0,
          "value": 1.0
        },
        {
          "id": 1,
          "value": 1.0
        },
        {
          "id": 2,
          "value": 0.0
        },
        {
          "id": 3,
          "value": 1.0
        },
        {
          "id": 4,
          "value": 0.0
        },
        {
          "id": 5,
          "value": 0.0
        },
        {
          "id": 6,
          "value": 5.37400723
        },
        {
          "id": 7,
          "value": 1.0
        },
        {
          "id": 8,
          "value": 1.0
        },
        {
          "id": 9,
          "value": 0.0
        },
        {
          "id": 10,
          "value": -3.0
        },
        {
          "id": 11,
          "value": 0.0
        },
        {
          "id": 12,
          "value": 0.0
        }
      ],
      "leftModuleId": 684,
      "rightModuleId": 707,
      "pos": [
        66,
        1
      ]
    },
    {
      "id": 687,
      "plugin": "voxglitch",
      "version": "1.12.0",
      "model": "digitalsequencer",
      "params": [
        {
          "id": 0,
          "value": 0.0
        },
        {
          "id": 1,
          "value": 32.0
        },
        {
          "id": 2,
          "value": 16.9804955
        },
        {
          "id": 3,
          "value": 32.0
        },
        {
          "id": 4,
          "value": 32.0
        },
        {
          "id": 5,
          "value": 32.0
        },
        {
          "id": 6,
          "value": 32.0
        },
        {
          "id": 7,
          "value": 0.0
        },
        {
          "id": 8,
          "value": 0.0
        },
        {
          "id": 9,
          "value": 0.0
        },
        {
          "id": 10,
          "value": 0.0
        },
        {
          "id": 11,
          "value": 0.0
        },
        {
          "id": 12,
          "value": 0.0
        },
        {
          "id": 13,
          "value": 0.0
        }
      ],
      "leftModuleId": 688,
      "rightModuleId": 685,
      "data": {
        "patterns": [
          [
            0,
            0,
            16,
            8,
            27,
            18,
            36,
            27,
            51,
            41,
            65,
            51,
            78,
            60,
            91,
            74,
            71,
            67,
            47,
            55,
            78,
            70,
            76,
            52,
            27,
            21,
            31,
            39,
            52,
            102,
            23,
            73
          ],
          [
            76,
            86,
            95,
            105,
            125,
            141,
            157,
            214,
            0,
            1,
            6,
            11,
            26,
            39,
            52,
            58,
            0,
            0,
            0,
            0,
            0,
            0,
            0,
            0,
            0,
            0,
            0,
            0,
            0,
            0,
            0,
            0
          ],
          [
            0,
            0,
            0,
            0,
            0,
            0,
            0,
            0,
            0,
            0,
            0,
            0,
            0,
            0,
            0,
            0,
            0,
            0,
            0,
            0,
            0,
            0,
            0,
            0,
            0,
            0,
            0,
            0,
            0,
            0,
            0,
            0
          ],
          [
            0,
            0,
            0,
            0,
            0,
            0,
            0,
            0,
            0,
            0,
            0,
            0,
            0,
            0,
            0,
            0,
            0,
            0,
            0,
            0,
            0,
            0,
            0,
            0,
            0,
            0,
            0,
            0,
            0,
            0,
            0,
            0
          ],
          [
            0,
            0,
            0,
            0,
            0,
            0,
            0,
            0,
            0,
            0,
            0,
            0,
            0,
            0,
            0,
            0,
            0,
            0,
            0,
            0,
            0,
            0,
            0,
            0,
            0,
            0,
            0,
            0,
            0,
            0,
            0,
            0
          ],
          [
            0,
            0,
            0,
            0,
            0,
            0,
            0,
            0,
            0,
            0,
            0,
            0,
            0,
            0,
            0,
            0,
            0,
            0,
            0,
            0,
            0,
            0,
            0,
            0,
            0,
            0,
            0,
            0,
            0,
            0,
            0,
            0
          ]
        ],
        "gates": [
          [
            1,
            0,
            1,
            0,
            1,
            0,
            1,
            0,
            1,
            0,
            1,
            0,
            1,
            0,
            1,
            0,
            1,
            1,
            1,
            0,
            1,
            1,
            1,
            0,
            1,
            1,
            1,
            0,
            1,
            1,
            1,
            1
          ],
          [
            0,
            0,
            0,
            0,
            0,
            0,
            0,
            0,
            1,
            0,
            0,
            0,
            0,
            0,
            0,
            0,
            0,
            0,
            0,
            0,
            0,
            0,
            0,
            0,
            0,
            0,
            0,
            0,
            0,
            0,
            0,
            0
          ],
          [
            0,
            0,
            0,
            0,
            0,
            0,
            0,
            0,
            0,
            0,
            0,
            0,
            0,
            0,
            0,
            0,
            0,
            0,
            0,
            0,
            0,
            0,
            0,
            0,
            0,
            0,
            0,
            0,
            0,
            0,
            0,
            0
          ],
          [
            0,
            0,
            0,
            0,
            0,
            0,
            0,
            0,
            0,
            0,
            0,
            0,
            0,
            0,
            0,
            0,
            0,
            0,
            0,
            0,
            0,
            0,
            0,
            0,
            0,
            0,
            0,
            0,
            0,
            0,
            0,
            0
          ],
          [
            0,
            0,
            0,
            0,
            0,
            0,
            0,
            0,
            0,
            0,
            0,
            0,
            0,
            0,
            0,
            0,
            0,
            0,
            0,
            0,
            0,
            0,
            0,
            0,
            0,
            0,
            0,
            0,
            0,
            0,
            0,
            0
          ],
          [
            0,
            0,
            0,
            0,
            0,
            0,
            0,
            0,
            0,
            0,
            0,
            0,
            0,
            0,
            0,
            0,
            0,
            0,
            0,
            0,
            0,
            0,
            0,
            0,
            0,
            0,
            0,
            0,
            0,
            0,
            0,
            0
          ]
        ],
        "lengths": [
          32,
          16,
          32,
          32,
          32,
          32
        ],
        "voltage_ranges": [
          4,
          0,
          0,
          0,
          0,
          0
        ],
        "snap_divisions": [
          0,
          0,
          0,
          0,
          0,
          0
        ],
        "sample_and_hold": [
          0,
          0,
          0,
          0,
          0,
          0
        ]
      },
      "pos": [
        16,
        1
      ]
    },
    {
      "id": 688,
      "plugin": "Bogaudio",
      "version": "1.1.31",
      "model": "Bogaudio-Manual",
      "params": [
        {
          "id": 0,
          "value": 0.0
        }
      ],
      "leftModuleId": 694,
      "rightModuleId": 687,
      "data": {
        "triggerOnLoad": false,
        "shouldTriggerOnLoad": true
      },
      "pos": [
        13,
        1
      ]
    },
    {
      "id": 692,
      "plugin": "Befaco",
      "version": "1.0.1",
      "model": "ABC",
      "params": [
        {
          "id": 0,
          "value": 1.0
        },
        {
          "id": 1,
          "value": 0.0
        },
        {
          "id": 2,
          "value": 0.0
        },
        {
          "id": 3,
          "value": 0.0
        }
      ],
      "leftModuleId": 693,
      "pos": [
        13,
        2
      ]
    },
    {
      "id": 693,
      "plugin": "Fundamental",
      "version": "1.4.0",
      "model": "Scope",
      "params": [
        {
          "id": 0,
          "value": 0.0
        },
        {
          "id": 1,
          "value": 0.0
        },
        {
          "id": 2,
          "value": 0.0
        },
        {
          "id": 3,
          "value": 0.0
        },
        {
          "id": 4,
          "value": 8.02999973
        },
        {
          "id": 5,
          "value": 0.0
        },
        {
          "id": 6,
          "value": 0.0
        },
        {
          "id": 7,
          "value": 0.0
        }
      ],
      "rightModuleId": 692,
      "data": {
        "lissajous": 0,
        "external": 0
      },
      "pos": [
        0,
        2
      ]
    },
    {
      "id": 694,
      "plugin": "CountModula",
      "version": "1.9.0",
      "model": "VoltageScaler",
      "params": [
        {
          "id": 0,
          "value": 0.0
        },
        {
          "id": 1,
          "value": 5.0
        },
        {
          "id": 2,
          "value": 0.0
        },
        {
          "id": 3,
          "value": 1.0
        }
      ],
      "rightModuleId": 688,
      "data": {
        "moduleVersion": "1.0",
        "theme": 0
      },
      "pos": [
        5,
        1
      ]
    },
    {
      "id": 696,
      "plugin": "Bogaudio",
      "version": "1.1.31",
      "model": "Bogaudio-ADSR",
      "params": [
        {
          "id": 0,
          "value": 0.0
        },
        {
          "id": 1,
          "value": 0.316229999
        },
        {
          "id": 2,
          "value": 0.0
        },
        {
          "id": 3,
          "value": 0.205499887
        },
        {
          "id": 4,
          "value": 0.0
        }
      ],
      "leftModuleId": 707,
      "rightModuleId": 711,
      "data": {
        "invert": 1.0
      },
      "pos": [
        82,
        1
      ]
    },
    {
      "id": 698,
      "plugin": "ImpromptuModular",
      "version": "1.1.5",
      "model": "Clocked",
      "params": [
        {
          "id": 0,
          "value": 120.0
        },
        {
          "id": 1,
          "value": 9.0
        },
        {
          "id": 2,
          "value": 0.0
        },
        {
          "id": 3,
          "value": 0.0
        },
        {
          "id": 4,
          "value": 0.0
        },
        {
          "id": 5,
          "value": 0.0
        },
        {
          "id": 6,
          "value": 0.0
        },
        {
          "id": 7,
          "value": 0.0
        },
        {
          "id": 8,
          "value": 0.5
        },
        {
          "id": 9,
          "value": 0.5
        },
        {
          "id": 10,
          "value": 0.25
        },
        {
          "id": 11,
          "value": 0.5
        },
        {
          "id": 12,
          "value": 0.0
        },
        {
          "id": 13,
          "value": 0.0
        },
        {
          "id": 14,
          "value": 0.0
        },
        {
          "id": 15,
          "value": 0.0
        },
        {
          "id": 16,
          "value": 5.0
        },
        {
          "id": 17,
          "value": 0.0
        },
        {
          "id": 18,
          "value": 0.0
        },
        {
          "id": 19,
          "value": 0.0
        }
      ],
      "rightModuleId": 662,
      "data": {
        "panelTheme": 0,
        "running": true,
        "displayDelayNoteMode": true,
        "bpmDetectionMode": false,
        "resetOnStartStop": 0,
        "ppqn": 4,
        "resetClockOutputsHigh": true,
        "momentaryRunInput": true
      },
      "pos": [
        12,
        3
      ]
    },
    {
      "id": 699,
      "plugin": "Fundamental",
      "version": "1.4.0",
      "model": "Noise",
      "params": [],
      "rightModuleId": 700,
      "pos": [
        90,
        1
      ]
    },
    {
      "id": 700,
      "plugin": "Bogaudio",
      "version": "1.1.31",
      "model": "Bogaudio-SampleHold",
      "params": [
        {
          "id": 0,
          "value": 0.0
        },
        {
          "id": 1,
          "value": 0.0
        },
        {
          "id": 2,
          "value": 0.0
        },
        {
          "id": 3,
          "value": 0.0
        },
        {
          "id": 4,
          "value": 0.0
        },
        {
          "id": 5,
          "value": 0.0
        }
      ],
      "leftModuleId": 699,
      "data": {
        "poly_input": 0,
        "noise_type": 0,
        "range_offset": 1.0,
        "range_scale": 5.0
      },
      "pos": [
        93,
        1
      ]
    },
    {
      "id": 701,
      "plugin": "LittleUtils",
      "version": "1.0.3",
      "model": "PulseGenerator",
      "params": [
        {
          "id": 0,
          "value": 2.02500319
        },
        {
          "id": 1,
          "value": 0.0
        },
        {
          "id": 2,
          "value": 1.0
        }
      ],
      "data": {
        "realtimeUpdate": true,
        "allowRetrigger": true
      },
      "pos": [
        98,
        1
      ]
    },
    {
      "id": 702,
      "plugin": "Bogaudio",
      "version": "1.1.31",
      "model": "Bogaudio-XFade",
      "params": [
        {
          "id": 0,
          "value": -1.0
        },
        {
          "id": 1,
          "value": 0.5
        },
        {
          "id": 2,
          "value": 0.0
        }
      ],
      "rightModuleId": 703,
      "pos": [
        102,
        1
      ]
    },
    {
      "id": 703,
      "plugin": "Bogaudio",
      "version": "1.1.31",
      "model": "Bogaudio-VCO",
      "params": [
        {
          "id": 0,
          "value": 4.91399908
        },
        {
          "id": 1,
          "value": 0.0
        },
        {
          "id": 2,
          "value": 0.0
        },
        {
          "id": 3,
          "value": 0.0
        },
        {
          "id": 4,
          "value": 0.0
        },
        {
          "id": 5,
          "value": 1.0
        },
        {
          "id": 6,
          "value": 0.0
        }
      ],
      "leftModuleId": 702,
      "rightModuleId": 705,
      "data": {
        "poly_input": 0
      },
      "pos": [
        105,
        1
      ]
    },
    {
      "id": 705,
      "plugin": "Fundamental",
      "version": "1.4.0",
      "model": "Scope",
      "params": [
        {
          "id": 0,
          "value": 0.0
        },
        {
          "id": 1,
          "value": 0.0
        },
        {
          "id": 2,
          "value": 0.0
        },
        {
          "id": 3,
          "value": 0.0
        },
        {
          "id": 4,
          "value": 16.0
        },
        {
          "id": 5,
          "value": 0.0
        },
        {
          "id": 6,
          "value": 0.0
        },
        {
          "id": 7,
          "value": 0.0
        }
      ],
      "leftModuleId": 703,
      "data": {
        "lissajous": 0,
        "external": 0
      },
      "pos": [
        115,
        1
      ]
    },
    {
      "id": 706,
      "plugin": "Befaco",
      "version": "1.0.1",
      "model": "DualAtenuverter",
      "params": [
        {
          "id": 0,
          "value": 0.0
        },
        {
          "id": 1,
          "value": 0.0
        },
        {
          "id": 2,
          "value": 1.0
        },
        {
          "id": 3,
          "value": -5.0
        }
      ],
      "leftModuleId": 708,
      "pos": [
        103,
        0
      ]
    },
    {
      "id": 707,
      "plugin": "AudibleInstruments",
      "version": "1.2.0",
      "model": "Ripples",
      "params": [
        {
          "id": 0,
          "value": 0.180000052
        },
        {
          "id": 1,
          "value": 5.15905714
        },
        {
          "id": 2,
          "value": 0.789999962
        }
      ],
      "leftModuleId": 686,
      "rightModuleId": 696,
      "pos": [
        74,
        1
      ]
    },
    {
      "id": 708,
      "plugin": "Bogaudio",
      "version": "1.1.31",
      "model": "Bogaudio-AnalyzerXL",
      "params": [],
      "leftModuleId": 709,
      "rightModuleId": 706,
      "data": {
        "range": 0.0,
        "range_db": 140.0,
        "smooth": 0.0,
        "quality": "ultra",
        "window": "kaiser"
      },
      "pos": [
        61,
        0
      ]
    },
    {
      "id": 709,
      "plugin": "AudibleInstruments",
      "version": "1.2.0",
      "model": "Ripples",
      "params": [
        {
          "id": 0,
          "value": 0.0
        },
        {
          "id": 1,
          "value": 5.9983592
        },
        {
          "id": 2,
          "value": -0.0120000001
        }
      ],
      "rightModuleId": 708,
      "pos": [
        53,
        0
      ]
    },
    {
      "id": 711,
      "plugin": "Bogaudio",
      "version": "1.1.31",
      "model": "Bogaudio-ADSR",
      "params": [
        {
          "id": 0,
          "value": 0.0
        },
        {
          "id": 1,
          "value": 0.316229999
        },
        {
          "id": 2,
          "value": 0.0
        },
        {
          "id": 3,
          "value": 0.0944998935
        },
        {
          "id": 4,
          "value": 0.0
        }
      ],
      "leftModuleId": 696,
      "data": {
        "invert": 1.0
      },
      "pos": [
        85,
        1
      ]
    },
    {
      "id": 712,
      "plugin": "Valley",
      "version": "1.0.1",
      "model": "Plateau",
      "params": [
        {
          "id": 0,
          "value": 0.0
        },
        {
          "id": 1,
          "value": 1.0
        },
        {
          "id": 2,
          "value": 0.0
        },
        {
          "id": 3,
          "value": 7.71999598
        },
        {
          "id": 4,
          "value": 7.14999676
        },
        {
          "id": 5,
          "value": 0.861499786
        },
        {
          "id": 6,
          "value": 5.09500027
        },
        {
          "id": 7,
          "value": 0.549950004
        },
        {
          "id": 8,
          "value": 8.00499535
        },
        {
          "id": 9,
          "value": 6.93999958
        },
        {
          "id": 10,
          "value": 0.0
        },
        {
          "id": 11,
          "value": 0.5
        },
        {
          "id": 12,
          "value": 0.5
        },
        {
          "id": 13,
          "value": 0.0
        },
        {
          "id": 14,
          "value": 0.0
        },
        {
          "id": 15,
          "value": 0.0
        },
        {
          "id": 16,
          "value": 0.0
        },
        {
          "id": 17,
          "value": 0.0
        },
        {
          "id": 18,
          "value": 0.0
        },
        {
          "id": 19,
          "value": 0.0
        },
        {
          "id": 20,
          "value": 0.0
        },
        {
          "id": 21,
          "value": 0.0
        },
        {
          "id": 22,
          "value": 0.0
        },
        {
          "id": 23,
          "value": 0.0
        },
        {
          "id": 24,
          "value": 0.0
        },
        {
          "id": 25,
          "value": 0.0
        },
        {
          "id": 26,
          "value": 0.0
        },
        {
          "id": 27,
          "value": 0.0
        },
        {
          "id": 28,
          "value": 0.0
        },
        {
          "id": 29,
          "value": 0.0
        },
        {
          "id": 30,
          "value": 1.0
        }
      ],
      "leftModuleId": 646,
      "rightModuleId": 658,
      "data": {
        "frozen": false,
        "freezeToggle": false,
        "panelStyle": 0,
        "tuned": 0,
        "diffuseInput": 1,
        "preDelayCVSens": 0,
        "inputSensitivity": 0,
        "outputSaturation": 0
      },
      "pos": [
        120,
        2
      ]
    }
  ],
  "cables": [
    {
      "id": 2226,
      "outputModuleId": 643,
      "outputId": 6,
      "inputModuleId": 646,
      "inputId": 5,
      "color": "#0986ad"
    },
    {
      "id": 2227,
      "outputModuleId": 643,
      "outputId": 7,
      "inputModuleId": 646,
      "inputId": 6,
      "color": "#c9b70e"
    },
    {
      "id": 2228,
      "outputModuleId": 648,
      "outputId": 1,
      "inputModuleId": 646,
      "inputId": 7,
      "color": "#0c8e15"
    },
    {
      "id": 2229,
      "outputModuleId": 642,
      "outputId": 0,
      "inputModuleId": 647,
      "inputId": 0,
      "color": "#c91847"
    },
    {
      "id": 2231,
      "outputModuleId": 647,
      "outputId": 1,
      "inputModuleId": 645,
      "inputId": 3,
      "color": "#c9b70e"
    },
    {
      "id": 2230,
      "outputModuleId": 647,
      "outputId": 0,
      "inputModuleId": 645,
      "inputId": 2,
      "color": "#0986ad"
    },
    {
      "id": 2233,
      "outputModuleId": 650,
      "outputId": 0,
      "inputModuleId": 647,
      "inputId": 7,
      "color": "#c91847"
    },
    {
      "id": 2234,
      "outputModuleId": 646,
      "outputId": 0,
      "inputModuleId": 643,
      "inputId": 16,
      "color": "#0986ad"
    },
    {
      "id": 2235,
      "outputModuleId": 646,
      "outputId": 1,
      "inputModuleId": 643,
      "inputId": 17,
      "color": "#c9b70e"
    },
    {
      "id": 2239,
      "outputModuleId": 653,
      "outputId": 0,
      "inputModuleId": 652,
      "inputId": 7,
      "color": "#0c8e15"
    },
    {
      "id": 2240,
      "outputModuleId": 652,
      "outputId": 0,
      "inputModuleId": 645,
      "inputId": 0,
      "color": "#0986ad"
    },
    {
      "id": 2241,
      "outputModuleId": 652,
      "outputId": 1,
      "inputModuleId": 645,
      "inputId": 1,
      "color": "#c9b70e"
    },
    {
      "id": 2242,
      "outputModuleId": 651,
      "outputId": 0,
      "inputModuleId": 652,
      "inputId": 0,
      "color": "#0c8e15"
    },
    {
      "id": 2250,
      "outputModuleId": 648,
      "outputId": 3,
      "inputModuleId": 652,
      "inputId": 10,
      "color": "#0986ad"
    },
    {
      "id": 2219,
      "outputModuleId": 643,
      "outputId": 1,
      "inputModuleId": 658,
      "inputId": 1,
      "color": "#c9b70e"
    },
    {
      "id": 2218,
      "outputModuleId": 643,
      "outputId": 0,
      "inputModuleId": 658,
      "inputId": 0,
      "color": "#0986ad"
    },
    {
      "id": 2251,
      "outputModuleId": 658,
      "outputId": 2,
      "inputModuleId": 1,
      "inputId": 0,
      "color": "#c9b70e"
    },
    {
      "id": 2252,
      "outputModuleId": 658,
      "outputId": 3,
      "inputModuleId": 1,
      "inputId": 1,
      "color": "#0c8e15"
    },
    {
      "id": 2265,
      "outputModuleId": 648,
      "outputId": 0,
      "inputModuleId": 661,
      "inputId": 0,
      "color": "#0986ad"
    },
    {
      "id": 2266,
      "outputModuleId": 648,
      "outputId": 4,
      "inputModuleId": 661,
      "inputId": 1,
      "color": "#c9b70e"
    },
    {
      "id": 2232,
      "outputModuleId": 661,
      "outputId": 3,
      "inputModuleId": 650,
      "inputId": 0,
      "color": "#0c8e15"
    },
    {
      "id": 2245,
      "outputModuleId": 648,
      "outputId": 3,
      "inputModuleId": 654,
      "inputId": 1,
      "color": "#0c8e15"
    },
    {
      "id": 2268,
      "outputModuleId": 648,
      "outputId": 2,
      "inputModuleId": 654,
      "inputId": 0,
      "color": "#c9b70e"
    },
    {
      "id": 2269,
      "outputModuleId": 654,
      "outputId": 0,
      "inputModuleId": 653,
      "inputId": 0,
      "color": "#0c8e15"
    },
    {
      "id": 2270,
      "outputModuleId": 654,
      "outputId": 0,
      "inputModuleId": 657,
      "inputId": 0,
      "color": "#c91847"
    },
    {
      "id": 2248,
      "outputModuleId": 662,
      "outputId": 0,
      "inputModuleId": 651,
      "inputId": 4,
      "color": "#0c8e15"
    },
    {
      "id": 2272,
      "outputModuleId": 657,
      "outputId": 0,
      "inputModuleId": 662,
      "inputId": 0,
      "color": "#c9b70e"
    },
    {
      "id": 2310,
      "outputModuleId": 684,
      "outputId": 0,
      "inputModuleId": 686,
      "inputId": 4,
      "color": "#0c8e15"
    },
    {
      "id": 2311,
      "outputModuleId": 687,
      "outputId": 2,
      "inputModuleId": 684,
      "inputId": 0,
      "color": "#c91847"
    },
    {
      "id": 2321,
      "outputModuleId": 648,
      "outputId": 0,
      "inputModuleId": 693,
      "inputId": 1,
      "color": "#c9b70e"
    },
    {
      "id": 2317,
      "outputModuleId": 688,
      "outputId": 7,
      "inputModuleId": 694,
      "inputId": 0,
      "color": "#c9b70e"
    },
    {
      "id": 2322,
      "outputModuleId": 694,
      "outputId": 0,
      "inputModuleId": 693,
      "inputId": 0,
      "color": "#c91847"
    },
    {
      "id": 2324,
      "outputModuleId": 687,
      "outputId": 8,
      "inputModuleId": 696,
      "inputId": 0,
      "color": "#c9b70e"
    },
    {
      "id": 2328,
      "outputModuleId": 648,
      "outputId": 6,
      "inputModuleId": 698,
      "inputId": 6,
      "color": "#c9b70e"
    },
    {
      "id": 2329,
      "outputModuleId": 648,
      "outputId": 5,
      "inputModuleId": 698,
      "inputId": 5,
      "color": "#0c8e15"
    },
    {
      "id": 2330,
      "outputModuleId": 648,
      "outputId": 4,
      "inputModuleId": 698,
      "inputId": 4,
      "color": "#c91847"
    },
    {
      "id": 2331,
      "outputModuleId": 698,
      "outputId": 1,
      "inputModuleId": 687,
      "inputId": 3,
      "color": "#0986ad"
    },
    {
      "id": 2332,
      "outputModuleId": 698,
      "outputId": 1,
      "inputModuleId": 687,
      "inputId": 4,
      "color": "#c9b70e"
    },
    {
      "id": 2333,
      "outputModuleId": 648,
      "outputId": 4,
      "inputModuleId": 687,
      "inputId": 2,
      "color": "#0c8e15"
    },
    {
      "id": 2334,
      "outputModuleId": 687,
      "outputId": 9,
      "inputModuleId": 686,
      "inputId": 1,
      "color": "#c91847"
    },
    {
      "id": 2336,
      "outputModuleId": 699,
      "outputId": 0,
      "inputModuleId": 700,
      "inputId": 1,
      "color": "#c9b70e"
    },
    {
      "id": 2339,
      "outputModuleId": 687,
      "outputId": 9,
      "inputModuleId": 701,
      "inputId": 0,
      "color": "#0986ad"
    },
    {
      "id": 2345,
      "outputModuleId": 703,
      "outputId": 0,
      "inputModuleId": 700,
      "inputId": 0,
      "color": "#0c8e15"
    },
    {
      "id": 2348,
      "outputModuleId": 701,
      "outputId": 0,
      "inputModuleId": 706,
      "inputId": 1,
      "color": "#c91847"
    },
    {
      "id": 2349,
      "outputModuleId": 706,
      "outputId": 1,
      "inputModuleId": 702,
      "inputId": 0,
      "color": "#0986ad"
    },
    {
      "id": 2341,
      "outputModuleId": 700,
      "outputId": 0,
      "inputModuleId": 702,
      "inputId": 1,
      "color": "#0c8e15"
    },
    {
      "id": 2342,
      "outputModuleId": 686,
      "outputId": 0,
      "inputModuleId": 702,
      "inputId": 2,
      "color": "#c91847"
    },
    {
      "id": 2350,
      "outputModuleId": 706,
      "outputId": 1,
      "inputModuleId": 705,
      "inputId": 0,
      "color": "#c9b70e"
    },
    {
      "id": 2351,
      "outputModuleId": 696,
      "outputId": 0,
      "inputModuleId": 707,
      "inputId": 2,
      "color": "#0c8e15"
    },
    {
      "id": 2343,
      "outputModuleId": 702,
      "outputId": 0,
      "inputModuleId": 707,
      "inputId": 3,
      "color": "#0986ad"
    },
    {
      "id": 2327,
      "outputModuleId": 707,
      "outputId": 2,
      "inputModuleId": 643,
      "inputId": 1,
      "color": "#0986ad"
    },
    {
      "id": 2355,
      "outputModuleId": 709,
      "outputId": 2,
      "inputModuleId": 708,
      "inputId": 5,
      "color": "#0c8e15"
    },
    {
      "id": 2357,
      "outputModuleId": 709,
      "outputId": 2,
      "inputModuleId": 643,
      "inputId": 2,
      "color": "#0986ad"
    },
    {
      "id": 2358,
      "outputModuleId": 684,
      "outputId": 0,
      "inputModuleId": 709,
      "inputId": 1,
      "color": "#c9b70e"
    },
    {
      "id": 2361,
      "outputModuleId": 711,
      "outputId": 0,
      "inputModuleId": 709,
      "inputId": 0,
      "color": "#0986ad"
    },
    {
      "id": 2362,
      "outputModuleId": 687,
      "outputId": 8,
      "inputModuleId": 711,
      "inputId": 0,
      "color": "#c9b70e"
    },
    {
      "id": 2359,
      "outputModuleId": 699,
      "outputId": 0,
      "inputModuleId": 709,
      "inputId": 3,
      "color": "#0c8e15"
    },
    {
      "id": 2364,
      "outputModuleId": 712,
      "outputId": 0,
      "inputModuleId": 643,
      "inputId": 18,
      "color": "#c91847"
    },
    {
      "id": 2365,
      "outputModuleId": 712,
      "outputId": 1,
      "inputModuleId": 643,
      "inputId": 19,
      "color": "#0986ad"
    },
    {
      "id": 2366,
      "outputModuleId": 643,
      "outputId": 8,
      "inputModuleId": 712,
      "inputId": 0,
      "color": "#c9b70e"
    },
    {
      "id": 2367,
      "outputModuleId": 643,
      "outputId": 9,
      "inputModuleId": 712,
      "inputId": 1,
      "color": "#0c8e15"
    },
    {
      "id": 2371,
      "outputModuleId": 651,
      "outputId": 0,
      "inputModuleId": 644,
      "inputId": 3,
      "color": "#0c8e15"
    },
    {
      "id": 2356,
      "outputModuleId": 699,
      "outputId": 0,
      "inputModuleId": 708,
      "inputId": 4,
      "color": "#c91847"
    }
  ]
}