{
  "version": "1.dev.a5fc589",
  "modules": [
    {
      "id": 8,
      "plugin": "Core",
      "version": "1.1.6",
      "model": "Notes",
      "params": [],
      "text": "Demo patch instructions:\n\n1. Choose an audio driver and device in the AUDIO-8 module.\n\n2. Use the QWERTY and ZXCVB rows of your keyboard to generate MIDI notes, which are converted to 1V/oct and GATE signals.\n\n3. Drag knobs up/down. Hold Ctrl (Cmd on Mac) while dragging to fine-tune. Right-click knobs to edit, or double-click to initialize.\n\n4. Drag ports to create and move cables. Stack multiple cables on outputs by holding Ctrl (Cmd on Mac) and dragging from an output.\n\n5. Right-click on an empty rack space to add new modules.",
      "pos": [
        59,
        0
      ]
    },
    {
      "id": 9,
      "plugin": "Fundamental",
      "version": "1.4.0",
      "model": "Scope",
      "params": [
        {
          "id": 0,
          "value": 0.0
        },
        {
          "id": 1,
          "value": 0.0
        },
        {
          "id": 2,
          "value": 0.0
        },
        {
          "id": 3,
          "value": 0.0
        },
        {
          "id": 4,
          "value": 11.8099957
        },
        {
          "id": 5,
          "value": 0.0
        },
        {
          "id": 6,
          "value": 4.62000036
        },
        {
          "id": 7,
          "value": 0.0
        }
      ],
      "leftModuleId": 12,
      "data": {
        "lissajous": 0,
        "external": 0
      },
      "pos": [
        29,
        1
      ]
    },
    {
      "id": 10,
      "plugin": "Fundamental",
      "version": "1.4.0",
      "model": "LFO",
      "params": [
        {
          "id": 0,
          "value": 1.0
        },
        {
          "id": 1,
          "value": 1.0
        },
        {
          "id": 2,
          "value": 3.6190021
        },
        {
          "id": 3,
          "value": 0.0
        },
        {
          "id": 4,
          "value": 0.0
        },
        {
          "id": 5,
          "value": 0.5
        },
        {
          "id": 6,
          "value": 0.0
        }
      ],
      "rightModuleId": 12,
      "pos": [
        0,
        1
      ]
    },
    {
      "id": 12,
      "plugin": "Core",
      "version": "1.1.6",
      "model": "AudioInterface16",
      "params": [],
      "leftModuleId": 10,
      "rightModuleId": 9,
      "data": {
        "audio": {
          "driver": 4,
          "deviceName": "ES8",
          "offset": 0,
          "maxChannels": 16,
          "sampleRate": 44100,
          "blockSize": 1024
        }
      },
      "pos": [
        10,
        1
      ]
    },
    {
      "id": 11,
      "plugin": "Core",
      "version": "1.1.6",
      "model": "AudioInterface",
      "params": [],
      "leftModuleId": 26,
      "rightModuleId": 13,
      "data": {
        "audio": {
          "driver": 4,
          "deviceName": "system",
          "offset": 0,
          "maxChannels": 8,
          "sampleRate": 44100,
          "blockSize": 1024
        }
      },
      "pos": [
        85,
        1
      ]
    },
    {
      "id": 13,
      "plugin": "TechTechTechnologies",
      "version": "1.0.0",
      "model": "LatComp",
      "params": [
        {
          "id": 0,
          "value": 0.0
        }
      ],
      "leftModuleId": 11,
      "rightModuleId": 14,
      "pos": [
        95,
        1
      ]
    },
    {
      "id": 14,
      "plugin": "Fundamental",
      "version": "1.4.0",
      "model": "Scope",
      "params": [
        {
          "id": 0,
          "value": 0.0
        },
        {
          "id": 1,
          "value": 0.0
        },
        {
          "id": 2,
          "value": 0.0
        },
        {
          "id": 3,
          "value": 0.0
        },
        {
          "id": 4,
          "value": 11.4949913
        },
        {
          "id": 5,
          "value": 0.0
        },
        {
          "id": 6,
          "value": 4.62000036
        },
        {
          "id": 7,
          "value": 0.0
        }
      ],
      "leftModuleId": 13,
      "rightModuleId": 25,
      "data": {
        "lissajous": 0,
        "external": 0
      },
      "pos": [
        105,
        1
      ]
    },
    {
      "id": 17,
      "plugin": "Fundamental",
      "version": "1.4.0",
      "model": "VCA-1",
      "params": [
        {
          "id": 0,
          "value": 0.499500155
        },
        {
          "id": 1,
          "value": 1.0
        }
      ],
      "rightModuleId": 20,
      "pos": [
        28,
        2
      ]
    },
    {
      "id": 18,
      "plugin": "Fundamental",
      "version": "1.4.0",
      "model": "VCF",
      "params": [
        {
          "id": 0,
          "value": 0.71450001
        },
        {
          "id": 1,
          "value": 0.5
        },
        {
          "id": 2,
          "value": 0.0
        },
        {
          "id": 3,
          "value": 0.0
        },
        {
          "id": 4,
          "value": 0.0
        }
      ],
      "rightModuleId": 22,
      "pos": [
        44,
        2
      ]
    },
    {
      "id": 19,
      "plugin": "Fundamental",
      "version": "1.4.0",
      "model": "VCA-1",
      "params": [
        {
          "id": 0,
          "value": 1.0
        },
        {
          "id": 1,
          "value": 1.0
        }
      ],
      "leftModuleId": 20,
      "pos": [
        39,
        2
      ]
    },
    {
      "id": 20,
      "plugin": "Fundamental",
      "version": "1.4.0",
      "model": "VCF",
      "params": [
        {
          "id": 0,
          "value": 1.0
        },
        {
          "id": 1,
          "value": 0.5
        },
        {
          "id": 2,
          "value": 0.618001163
        },
        {
          "id": 3,
          "value": 0.0
        },
        {
          "id": 4,
          "value": 0.0164999999
        }
      ],
      "leftModuleId": 17,
      "rightModuleId": 19,
      "pos": [
        31,
        2
      ]
    },
    {
      "id": 22,
      "plugin": "Fundamental",
      "version": "1.4.0",
      "model": "Delay",
      "params": [
        {
          "id": 0,
          "value": 0.0
        },
        {
          "id": 1,
          "value": 0.0
        },
        {
          "id": 2,
          "value": 0.569500327
        },
        {
          "id": 3,
          "value": 1.0
        }
      ],
      "leftModuleId": 18,
      "rightModuleId": 23,
      "pos": [
        52,
        2
      ]
    },
    {
      "id": 23,
      "plugin": "Fundamental",
      "version": "1.4.0",
      "model": "Delay",
      "params": [
        {
          "id": 0,
          "value": 0.0
        },
        {
          "id": 1,
          "value": 0.0
        },
        {
          "id": 2,
          "value": 0.569500327
        },
        {
          "id": 3,
          "value": 1.0
        }
      ],
      "leftModuleId": 22,
      "rightModuleId": 24,
      "pos": [
        60,
        2
      ]
    },
    {
      "id": 24,
      "plugin": "Fundamental",
      "version": "1.4.0",
      "model": "8vert",
      "params": [
        {
          "id": 0,
          "value": 0.0
        },
        {
          "id": 1,
          "value": 0.300000012
        },
        {
          "id": 2,
          "value": -1.0
        },
        {
          "id": 3,
          "value": 0.0
        },
        {
          "id": 4,
          "value": 0.0
        },
        {
          "id": 5,
          "value": 0.0
        },
        {
          "id": 6,
          "value": 0.0
        },
        {
          "id": 7,
          "value": 0.0
        }
      ],
      "leftModuleId": 23,
      "rightModuleId": 28,
      "pos": [
        68,
        2
      ]
    },
    {
      "id": 25,
      "plugin": "Fundamental",
      "version": "1.4.0",
      "model": "Scope",
      "params": [
        {
          "id": 0,
          "value": 0.0
        },
        {
          "id": 1,
          "value": 0.0
        },
        {
          "id": 2,
          "value": 0.0
        },
        {
          "id": 3,
          "value": 0.0
        },
        {
          "id": 4,
          "value": 11.8699932
        },
        {
          "id": 5,
          "value": 0.0
        },
        {
          "id": 6,
          "value": 4.62000036
        },
        {
          "id": 7,
          "value": 0.0
        }
      ],
      "leftModuleId": 14,
      "data": {
        "lissajous": 0,
        "external": 0
      },
      "pos": [
        118,
        1
      ]
    },
    {
      "id": 26,
      "plugin": "NYSTHI",
      "version": "1.0.17",
      "model": "MasterRecorder2",
      "params": [
        {
          "id": 0,
          "value": 0.0
        },
        {
          "id": 1,
          "value": 0.0
        },
        {
          "id": 2,
          "value": 0.0
        },
        {
          "id": 3,
          "value": 1.0
        },
        {
          "id": 4,
          "value": 1.0
        },
        {
          "id": 5,
          "value": 0.0
        },
        {
          "id": 6,
          "value": 0.0
        },
        {
          "id": 7,
          "value": 0.0
        },
        {
          "id": 8,
          "value": 0.0
        },
        {
          "id": 9,
          "value": 0.00499999989
        },
        {
          "id": 10,
          "value": 0.00999999978
        },
        {
          "id": 11,
          "value": 2.0
        },
        {
          "id": 12,
          "value": 0.5
        },
        {
          "id": 13,
          "value": 0.0
        },
        {
          "id": 14,
          "value": 0.100000001
        },
        {
          "id": 15,
          "value": 0.0
        },
        {
          "id": 16,
          "value": 1.0
        }
      ],
      "leftModuleId": 30,
      "rightModuleId": 11,
      "data": {
        "wavebits": 9,
        "rms_time": 0.00100000005,
        "peak_time": 0.5,
        "m_invertphaseleft": false,
        "m_invertphaseright": false,
        "m_locklevelleftright": false,
        "m_kompressor_active": false,
        "m_distort": false,
        "m_attenuation": 1.0,
        "m_enconding_format": "mp3",
        "m_encoding_bitrate": 320000,
        "m_autoenumeratefiles": true
      },
      "pos": [
        76,
        1
      ]
    },
    {
      "id": 27,
      "plugin": "squinkylabs-plug1",
      "version": "1.0.20",
      "model": "squinkylabs-mixm",
      "params": [
        {
          "id": 0,
          "value": 0.595499992
        },
        {
          "id": 1,
          "value": 0.0
        },
        {
          "id": 2,
          "value": 1.0
        },
        {
          "id": 3,
          "value": 0.976000011
        },
        {
          "id": 4,
          "value": 0.0
        },
        {
          "id": 5,
          "value": 0.0
        },
        {
          "id": 6,
          "value": 0.0
        },
        {
          "id": 7,
          "value": 0.0
        },
        {
          "id": 8,
          "value": 0.0
        },
        {
          "id": 9,
          "value": 0.0
        },
        {
          "id": 10,
          "value": 0.0
        },
        {
          "id": 11,
          "value": 0.0
        },
        {
          "id": 12,
          "value": 0.0
        },
        {
          "id": 13,
          "value": 0.0
        },
        {
          "id": 14,
          "value": 0.0
        },
        {
          "id": 15,
          "value": 0.0
        },
        {
          "id": 16,
          "value": 0.0
        },
        {
          "id": 17,
          "value": 0.0
        },
        {
          "id": 18,
          "value": 0.0
        },
        {
          "id": 19,
          "value": 0.0
        },
        {
          "id": 20,
          "value": 0.0
        },
        {
          "id": 21,
          "value": 0.0
        },
        {
          "id": 22,
          "value": 0.0
        },
        {
          "id": 23,
          "value": 0.0
        },
        {
          "id": 24,
          "value": 0.0
        },
        {
          "id": 25,
          "value": 0.0
        },
        {
          "id": 26,
          "value": 0.0
        },
        {
          "id": 27,
          "value": 0.0
        },
        {
          "id": 28,
          "value": 0.0
        },
        {
          "id": 29,
          "value": 0.00131249987
        },
        {
          "id": 30,
          "value": 0.0
        },
        {
          "id": 31,
          "value": 0.0
        },
        {
          "id": 32,
          "value": 1.0
        },
        {
          "id": 33,
          "value": 0.0
        },
        {
          "id": 34,
          "value": 0.0
        },
        {
          "id": 35,
          "value": 0.0
        },
        {
          "id": 36,
          "value": 0.0
        }
      ],
      "rightModuleId": 30,
      "pos": [
        56,
        1
      ]
    },
    {
      "id": 28,
      "plugin": "TechTechTechnologies",
      "version": "1.0.0",
      "model": "MetadataFiles",
      "params": [
        {
          "id": 0,
          "value": 0.0
        },
        {
          "id": 1,
          "value": 0.0
        }
      ],
      "leftModuleId": 24,
      "rightModuleId": 29,
      "files": "/home/wlaub/.Rack/screenshots/20210803-181016.png",
      "dir": "/home/wlaub/.Rack/screenshots",
      "file_type": "image",
      "file_type_id": 0,
      "pos": [
        76,
        2
      ]
    },
    {
      "id": 29,
      "plugin": "TechTechTechnologies",
      "version": "1.0.0",
      "model": "MetadataMain",
      "params": [
        {
          "id": 0,
          "value": 0.0
        },
        {
          "id": 1,
          "value": 0.0
        },
        {
          "id": 2,
          "value": 1.0
        }
      ],
      "leftModuleId": 28,
      "rightModuleId": 32,
      "description": "Made some progress on ES-8 issues. I may be having some additional issues relating to performance, but I'm reluctant to risk real-time priority with so many other irons in the fire atm. Using the rev 00 here, because the freq lock switch on the rev 01 is missing a pullup.",
      "tags": "prometheus II, wet, noise",
      "authors": "Roots of Unity",
      "override_time": "",
      "trigger_time": 1628039419,
      "time_source": "trigger",
      "pos": [
        106,
        2
      ]
    },
    {
      "id": 30,
      "plugin": "Bogaudio",
      "version": "1.1.37",
      "model": "Bogaudio-Manual",
      "params": [
        {
          "id": 0,
          "value": 1.0
        }
      ],
      "leftModuleId": 27,
      "rightModuleId": 26,
      "data": {
        "triggerOnLoad": false,
        "shouldTriggerOnLoad": true,
        "output_scale": 1.0
      },
      "pos": [
        73,
        1
      ]
    },
    {
      "id": 32,
      "plugin": "TechTechTechnologies",
      "version": "1.0.0",
      "model": "MetadataFiles",
      "params": [
        {
          "id": 0,
          "value": 0.0
        },
        {
          "id": 1,
          "value": 0.0
        }
      ],
      "leftModuleId": 29,
      "files": "/home/wlaub/RackDev/src/core/AudioInterface.cpp\n/home/wlaub/RackDev/dep/rtaudio/RtAudio.cpp\n/home/wlaub/RackDev/plugins/vcv/README.md",
      "dir": "/home/wlaub/RackDev/plugins/vcv",
      "file_type": "git",
      "file_type_id": 2,
      "pos": [
        126,
        2
      ]
    },
    {
      "id": 33,
      "plugin": "ML_modules",
      "version": "1.1.3",
      "model": "VoltMeter",
      "params": [],
      "pos": [
        44,
        1
      ]
    }
  ],
  "cables": [
    {
      "id": 8,
      "outputModuleId": 12,
      "outputId": 2,
      "inputModuleId": 9,
      "inputId": 1,
      "color": "#c91847"
    },
    {
      "id": 13,
      "outputModuleId": 13,
      "outputId": 0,
      "inputModuleId": 12,
      "inputId": 7,
      "color": "#0986ad"
    },
    {
      "id": 14,
      "outputModuleId": 12,
      "outputId": 3,
      "inputModuleId": 13,
      "inputId": 0,
      "color": "#c9b70e"
    },
    {
      "id": 15,
      "outputModuleId": 12,
      "outputId": 3,
      "inputModuleId": 14,
      "inputId": 0,
      "color": "#c91847"
    },
    {
      "id": 16,
      "outputModuleId": 13,
      "outputId": 0,
      "inputModuleId": 14,
      "inputId": 1,
      "color": "#0986ad"
    },
    {
      "id": 17,
      "outputModuleId": 10,
      "outputId": 0,
      "inputModuleId": 12,
      "inputId": 6,
      "color": "#c9b70e"
    },
    {
      "id": 18,
      "outputModuleId": 10,
      "outputId": 0,
      "inputModuleId": 9,
      "inputId": 0,
      "color": "#c91847"
    },
    {
      "id": 21,
      "outputModuleId": 12,
      "outputId": 0,
      "inputModuleId": 17,
      "inputId": 1,
      "color": "#0986ad"
    },
    {
      "id": 23,
      "outputModuleId": 12,
      "outputId": 1,
      "inputModuleId": 19,
      "inputId": 1,
      "color": "#0c8e15"
    },
    {
      "id": 26,
      "outputModuleId": 17,
      "outputId": 0,
      "inputModuleId": 20,
      "inputId": 3,
      "color": "#c9b70e"
    },
    {
      "id": 28,
      "outputModuleId": 20,
      "outputId": 0,
      "inputModuleId": 22,
      "inputId": 4,
      "color": "#c91847"
    },
    {
      "id": 29,
      "outputModuleId": 22,
      "outputId": 0,
      "inputModuleId": 23,
      "inputId": 4,
      "color": "#0986ad"
    },
    {
      "id": 31,
      "outputModuleId": 24,
      "outputId": 0,
      "inputModuleId": 23,
      "inputId": 1,
      "color": "#0c8e15"
    },
    {
      "id": 32,
      "outputModuleId": 24,
      "outputId": 0,
      "inputModuleId": 22,
      "inputId": 1,
      "color": "#c91847"
    },
    {
      "id": 22,
      "outputModuleId": 23,
      "outputId": 0,
      "inputModuleId": 27,
      "inputId": 0,
      "color": "#c9b70e"
    },
    {
      "id": 33,
      "outputModuleId": 27,
      "outputId": 0,
      "inputModuleId": 26,
      "inputId": 0,
      "color": "#0c8e15"
    },
    {
      "id": 34,
      "outputModuleId": 27,
      "outputId": 1,
      "inputModuleId": 26,
      "inputId": 1,
      "color": "#c91847"
    },
    {
      "id": 36,
      "outputModuleId": 26,
      "outputId": 3,
      "inputModuleId": 11,
      "inputId": 1,
      "color": "#c9b70e"
    },
    {
      "id": 35,
      "outputModuleId": 26,
      "outputId": 2,
      "inputModuleId": 11,
      "inputId": 0,
      "color": "#0986ad"
    },
    {
      "id": 37,
      "outputModuleId": 30,
      "outputId": 0,
      "inputModuleId": 29,
      "inputId": 0,
      "color": "#0c8e15"
    },
    {
      "id": 38,
      "outputModuleId": 30,
      "outputId": 0,
      "inputModuleId": 26,
      "inputId": 2,
      "color": "#c91847"
    },
    {
      "id": 39,
      "outputModuleId": 30,
      "outputId": 0,
      "inputModuleId": 29,
      "inputId": 1,
      "color": "#0986ad"
    },
    {
      "id": 24,
      "outputModuleId": 19,
      "outputId": 0,
      "inputModuleId": 18,
      "inputId": 3,
      "color": "#c91847"
    },
    {
      "id": 40,
      "outputModuleId": 18,
      "outputId": 0,
      "inputModuleId": 27,
      "inputId": 1,
      "color": "#c9b70e"
    },
    {
      "id": 41,
      "outputModuleId": 24,
      "outputId": 2,
      "inputModuleId": 12,
      "inputId": 0,
      "color": "#c91847"
    },
    {
      "id": 44,
      "outputModuleId": 24,
      "outputId": 1,
      "inputModuleId": 24,
      "inputId": 2,
      "color": "#0c8e15"
    }
  ]
}