{
  "version": "1.dev.a5fc589",
  "modules": [
    {
      "id": 8,
      "plugin": "Core",
      "version": "1.1.6",
      "model": "Notes",
      "params": [],
      "text": "Demo patch instructions:\n\n1. Choose an audio driver and device in the AUDIO-8 module.\n\n2. Use the QWERTY and ZXCVB rows of your keyboard to generate MIDI notes, which are converted to 1V/oct and GATE signals.\n\n3. Drag knobs up/down. Hold Ctrl (Cmd on Mac) while dragging to fine-tune. Right-click knobs to edit, or double-click to initialize.\n\n4. Drag ports to create and move cables. Stack multiple cables on outputs by holding Ctrl (Cmd on Mac) and dragging from an output.\n\n5. Right-click on an empty rack space to add new modules.",
      "pos": [
        107,
        0
      ]
    },
    {
      "id": 12,
      "plugin": "Core",
      "version": "1.1.6",
      "model": "AudioInterface16",
      "params": [],
      "leftModuleId": 63,
      "rightModuleId": 13,
      "data": {
        "audio": {
          "driver": 4,
          "deviceName": "ES8",
          "offset": 0,
          "maxChannels": 16,
          "sampleRate": 44100,
          "blockSize": 1024
        }
      },
      "pos": [
        24,
        1
      ]
    },
    {
      "id": 11,
      "plugin": "Core",
      "version": "1.1.6",
      "model": "AudioInterface",
      "params": [],
      "leftModuleId": 26,
      "rightModuleId": 185,
      "data": {
        "audio": {
          "driver": 4,
          "deviceName": "system",
          "offset": 0,
          "maxChannels": 8,
          "sampleRate": 44100,
          "blockSize": 1024
        }
      },
      "pos": [
        130,
        1
      ]
    },
    {
      "id": 13,
      "plugin": "TechTechTechnologies",
      "version": "1.0.0",
      "model": "LatComp",
      "params": [
        {
          "id": 0,
          "value": 0.0
        }
      ],
      "leftModuleId": 12,
      "rightModuleId": 154,
      "pos": [
        43,
        1
      ]
    },
    {
      "id": 26,
      "plugin": "NYSTHI",
      "version": "1.0.17",
      "model": "MasterRecorder2",
      "params": [
        {
          "id": 0,
          "value": 0.0
        },
        {
          "id": 1,
          "value": 0.0
        },
        {
          "id": 2,
          "value": 0.0
        },
        {
          "id": 3,
          "value": 1.0
        },
        {
          "id": 4,
          "value": 1.0
        },
        {
          "id": 5,
          "value": 0.0
        },
        {
          "id": 6,
          "value": 0.0
        },
        {
          "id": 7,
          "value": 0.0
        },
        {
          "id": 8,
          "value": 0.0
        },
        {
          "id": 9,
          "value": 0.00499999989
        },
        {
          "id": 10,
          "value": 0.00999999978
        },
        {
          "id": 11,
          "value": 2.0
        },
        {
          "id": 12,
          "value": 0.5
        },
        {
          "id": 13,
          "value": 0.0
        },
        {
          "id": 14,
          "value": 0.100000001
        },
        {
          "id": 15,
          "value": 0.0
        },
        {
          "id": 16,
          "value": 1.0
        }
      ],
      "leftModuleId": 30,
      "rightModuleId": 11,
      "data": {
        "wavebits": 9,
        "rms_time": 0.00100000005,
        "peak_time": 0.5,
        "m_invertphaseleft": false,
        "m_invertphaseright": false,
        "m_locklevelleftright": false,
        "m_kompressor_active": false,
        "m_distort": false,
        "m_attenuation": 1.0,
        "m_enconding_format": "mp3",
        "m_encoding_bitrate": 320000,
        "m_autoenumeratefiles": true
      },
      "pos": [
        121,
        1
      ]
    },
    {
      "id": 27,
      "plugin": "squinkylabs-plug1",
      "version": "1.0.22",
      "model": "squinkylabs-mixm",
      "params": [
        {
          "id": 0,
          "value": 0.75
        },
        {
          "id": 1,
          "value": 0.0
        },
        {
          "id": 2,
          "value": 0.0
        },
        {
          "id": 3,
          "value": 0.0
        },
        {
          "id": 4,
          "value": 0.879000306
        },
        {
          "id": 5,
          "value": 1.0
        },
        {
          "id": 6,
          "value": 0.0
        },
        {
          "id": 7,
          "value": 0.0
        },
        {
          "id": 8,
          "value": 0.0
        },
        {
          "id": 9,
          "value": 0.0
        },
        {
          "id": 10,
          "value": 0.0
        },
        {
          "id": 11,
          "value": 0.0
        },
        {
          "id": 12,
          "value": 0.0
        },
        {
          "id": 13,
          "value": 0.0
        },
        {
          "id": 14,
          "value": 0.0
        },
        {
          "id": 15,
          "value": 0.0
        },
        {
          "id": 16,
          "value": 0.0
        },
        {
          "id": 17,
          "value": 0.0
        },
        {
          "id": 18,
          "value": 0.0
        },
        {
          "id": 19,
          "value": 0.0
        },
        {
          "id": 20,
          "value": 0.0
        },
        {
          "id": 21,
          "value": 0.429000229
        },
        {
          "id": 22,
          "value": 0.111999877
        },
        {
          "id": 23,
          "value": 0.0
        },
        {
          "id": 24,
          "value": 0.0
        },
        {
          "id": 25,
          "value": 0.582000017
        },
        {
          "id": 26,
          "value": 0.123000003
        },
        {
          "id": 27,
          "value": 0.0
        },
        {
          "id": 28,
          "value": 0.0
        },
        {
          "id": 29,
          "value": 0.58950007
        },
        {
          "id": 30,
          "value": 0.384000033
        },
        {
          "id": 31,
          "value": 0.0
        },
        {
          "id": 32,
          "value": 0.0
        },
        {
          "id": 33,
          "value": 0.0
        },
        {
          "id": 34,
          "value": 1.0
        },
        {
          "id": 35,
          "value": 0.0
        },
        {
          "id": 36,
          "value": 0.0
        }
      ],
      "leftModuleId": 188,
      "rightModuleId": 59,
      "pos": [
        77,
        1
      ]
    },
    {
      "id": 28,
      "plugin": "TechTechTechnologies",
      "version": "1.0.0",
      "model": "MetadataFiles",
      "params": [
        {
          "id": 0,
          "value": 0.0
        },
        {
          "id": 1,
          "value": 0.0
        }
      ],
      "rightModuleId": 29,
      "files": "/home/wlaub/.Rack/screenshots/20211029-181648.png",
      "dir": "/home/wlaub/.Rack/screenshots",
      "file_type": "image",
      "file_type_id": 0,
      "pos": [
        72,
        2
      ]
    },
    {
      "id": 29,
      "plugin": "TechTechTechnologies",
      "version": "1.0.0",
      "model": "MetadataMain",
      "params": [
        {
          "id": 0,
          "value": 0.0
        },
        {
          "id": 1,
          "value": 0.0
        },
        {
          "id": 2,
          "value": 1.0
        }
      ],
      "leftModuleId": 28,
      "rightModuleId": 32,
      "description": "Working on wave sounds and a drone for most high honors. Ultimately this will want multiple prometheus II units operating independently. At present the rev01 prototype is in a configuration that consumes excessive power, so the rev00 isn't even plugged in.",
      "tags": "prometheus II, wet, drone, green cathedral",
      "authors": "Roots of Unity",
      "override_time": "",
      "trigger_time": 1635556739,
      "time_source": "trigger",
      "pos": [
        102,
        2
      ]
    },
    {
      "id": 30,
      "plugin": "Bogaudio",
      "version": "1.1.37",
      "model": "Bogaudio-Manual",
      "params": [
        {
          "id": 0,
          "value": 1.0
        }
      ],
      "leftModuleId": 57,
      "rightModuleId": 26,
      "data": {
        "triggerOnLoad": false,
        "shouldTriggerOnLoad": true,
        "output_scale": 1.0
      },
      "pos": [
        118,
        1
      ]
    },
    {
      "id": 32,
      "plugin": "TechTechTechnologies",
      "version": "1.0.0",
      "model": "MetadataFiles",
      "params": [
        {
          "id": 0,
          "value": 0.0
        },
        {
          "id": 1,
          "value": 0.0
        }
      ],
      "leftModuleId": 29,
      "files": "/home/wlaub/RackDev/plugins/vcv/README.md\n/home/wlaub/pcbs/PrometheusII/Teensy/prometheus2/prometheus2.ino",
      "dir": "/home/wlaub/pcbs/PrometheusII/Teensy/prometheus2",
      "file_type": "git",
      "file_type_id": 2,
      "pos": [
        122,
        2
      ]
    },
    {
      "id": 57,
      "plugin": "Valley",
      "version": "1.1.7",
      "model": "Plateau",
      "params": [
        {
          "id": 0,
          "value": 0.0
        },
        {
          "id": 1,
          "value": 1.0
        },
        {
          "id": 2,
          "value": 0.0419999808
        },
        {
          "id": 3,
          "value": 9.92500019
        },
        {
          "id": 4,
          "value": 6.39999914
        },
        {
          "id": 5,
          "value": 1.0
        },
        {
          "id": 6,
          "value": 10.0
        },
        {
          "id": 7,
          "value": 0.100000001
        },
        {
          "id": 8,
          "value": 5.05000019
        },
        {
          "id": 9,
          "value": 10.0
        },
        {
          "id": 10,
          "value": 0.0
        },
        {
          "id": 11,
          "value": 0.5
        },
        {
          "id": 12,
          "value": 0.0
        },
        {
          "id": 13,
          "value": 0.0
        },
        {
          "id": 14,
          "value": 0.0
        },
        {
          "id": 15,
          "value": 0.0
        },
        {
          "id": 16,
          "value": 0.0
        },
        {
          "id": 17,
          "value": 0.0
        },
        {
          "id": 18,
          "value": 0.0
        },
        {
          "id": 19,
          "value": 0.0
        },
        {
          "id": 20,
          "value": 0.0
        },
        {
          "id": 21,
          "value": 0.0
        },
        {
          "id": 22,
          "value": 0.0
        },
        {
          "id": 23,
          "value": 0.0
        },
        {
          "id": 24,
          "value": 0.0
        },
        {
          "id": 25,
          "value": 0.0
        },
        {
          "id": 26,
          "value": 0.0
        },
        {
          "id": 27,
          "value": 0.0
        },
        {
          "id": 28,
          "value": 0.0
        },
        {
          "id": 29,
          "value": 0.0
        },
        {
          "id": 30,
          "value": 1.0
        }
      ],
      "leftModuleId": 59,
      "rightModuleId": 30,
      "data": {
        "frozen": false,
        "freezeToggle": false,
        "panelStyle": 0,
        "tuned": 0,
        "diffuseInput": 1,
        "preDelayCVSens": 0,
        "inputSensitivity": 0,
        "outputSaturation": 0
      },
      "pos": [
        106,
        1
      ]
    },
    {
      "id": 59,
      "plugin": "AlrightDevices",
      "version": "1.0.3",
      "model": "Chronoblob2",
      "params": [
        {
          "id": 0,
          "value": 0.481999964
        },
        {
          "id": 1,
          "value": 1.0
        },
        {
          "id": 2,
          "value": 1.0
        },
        {
          "id": 3,
          "value": 0.0
        },
        {
          "id": 4,
          "value": 0.0
        },
        {
          "id": 5,
          "value": 0.0
        },
        {
          "id": 6,
          "value": 0.0
        },
        {
          "id": 7,
          "value": 0.0
        },
        {
          "id": 8,
          "value": 0.0
        },
        {
          "id": 9,
          "value": 0.0
        }
      ],
      "leftModuleId": 27,
      "rightModuleId": 57,
      "data": {
        "delay_mode": 0,
        "hold_behavior": 0,
        "sync_prescaler": 12
      },
      "pos": [
        94,
        1
      ]
    },
    {
      "id": 63,
      "plugin": "Fundamental",
      "version": "1.4.0",
      "model": "Octave",
      "params": [
        {
          "id": 0,
          "value": 0.0
        }
      ],
      "leftModuleId": 189,
      "rightModuleId": 12,
      "pos": [
        21,
        1
      ]
    },
    {
      "id": 99,
      "plugin": "AudibleInstruments",
      "version": "1.5.0",
      "model": "Ripples",
      "params": [
        {
          "id": 0,
          "value": 0.24150002
        },
        {
          "id": 1,
          "value": 10.0572414
        },
        {
          "id": 2,
          "value": 0.0
        }
      ],
      "leftModuleId": 178,
      "rightModuleId": 175,
      "pos": [
        35,
        4
      ]
    },
    {
      "id": 154,
      "plugin": "Fundamental",
      "version": "1.4.0",
      "model": "Scope",
      "params": [
        {
          "id": 0,
          "value": 0.0
        },
        {
          "id": 1,
          "value": 0.0
        },
        {
          "id": 2,
          "value": 0.0
        },
        {
          "id": 3,
          "value": 0.0
        },
        {
          "id": 4,
          "value": 9.98000336
        },
        {
          "id": 5,
          "value": 0.0
        },
        {
          "id": 6,
          "value": 2.57999992
        },
        {
          "id": 7,
          "value": 0.0
        }
      ],
      "leftModuleId": 13,
      "data": {
        "lissajous": 0,
        "external": 0
      },
      "pos": [
        53,
        1
      ]
    },
    {
      "id": 156,
      "plugin": "Bogaudio",
      "version": "1.1.37",
      "model": "Bogaudio-LFO",
      "params": [
        {
          "id": 0,
          "value": -3.35329056
        },
        {
          "id": 1,
          "value": 0.0
        },
        {
          "id": 2,
          "value": 0.0
        },
        {
          "id": 3,
          "value": -0.773999929
        },
        {
          "id": 4,
          "value": 0.0
        },
        {
          "id": 5,
          "value": 1.0
        },
        {
          "id": 6,
          "value": 0.0
        }
      ],
      "leftModuleId": 161,
      "rightModuleId": 157,
      "data": {
        "offset_cv_to_smoothing": false
      },
      "pos": [
        26,
        2
      ]
    },
    {
      "id": 157,
      "plugin": "Fundamental",
      "version": "1.4.0",
      "model": "ADSR",
      "params": [
        {
          "id": 0,
          "value": 0.0
        },
        {
          "id": 1,
          "value": 1.0
        },
        {
          "id": 2,
          "value": 0.0
        },
        {
          "id": 3,
          "value": 0.958999991
        }
      ],
      "leftModuleId": 156,
      "pos": [
        36,
        2
      ]
    },
    {
      "id": 159,
      "plugin": "TechTechTechnologies",
      "version": "1.0.0",
      "model": "Polyphemus2",
      "params": [
        {
          "id": 0,
          "value": 0.0
        },
        {
          "id": 1,
          "value": 0.0
        },
        {
          "id": 2,
          "value": 0.0
        },
        {
          "id": 3,
          "value": 0.0
        },
        {
          "id": 4,
          "value": 0.0
        },
        {
          "id": 5,
          "value": 0.0
        },
        {
          "id": 6,
          "value": 0.0
        },
        {
          "id": 7,
          "value": 0.0
        },
        {
          "id": 8,
          "value": 0.5
        },
        {
          "id": 9,
          "value": 1.0
        },
        {
          "id": 10,
          "value": 1.0
        },
        {
          "id": 11,
          "value": 1.0
        },
        {
          "id": 12,
          "value": 9.0
        },
        {
          "id": 13,
          "value": 9.0
        },
        {
          "id": 14,
          "value": 9.0
        },
        {
          "id": 15,
          "value": 9.0
        },
        {
          "id": 16,
          "value": 0.5
        },
        {
          "id": 17,
          "value": 0.5
        },
        {
          "id": 18,
          "value": 0.5
        },
        {
          "id": 19,
          "value": 0.5
        },
        {
          "id": 20,
          "value": 1.46699786
        },
        {
          "id": 21,
          "value": 0.0
        },
        {
          "id": 22,
          "value": 0.0
        },
        {
          "id": 23,
          "value": 0.0
        }
      ],
      "leftModuleId": 162,
      "rightModuleId": 170,
      "pos": [
        36,
        3
      ]
    },
    {
      "id": 161,
      "plugin": "CountModula",
      "version": "1.15.1",
      "model": "Chances",
      "params": [
        {
          "id": 0,
          "value": 0.271500111
        },
        {
          "id": 1,
          "value": 1.0
        }
      ],
      "leftModuleId": 165,
      "rightModuleId": 156,
      "data": {
        "moduleVersion": 1.10000002,
        "theme": 6
      },
      "pos": [
        22,
        2
      ]
    },
    {
      "id": 162,
      "plugin": "Befaco",
      "version": "1.1.1",
      "model": "DualAtenuverter",
      "params": [
        {
          "id": 0,
          "value": 0.398999959
        },
        {
          "id": 1,
          "value": 5.0
        },
        {
          "id": 2,
          "value": -1.0
        },
        {
          "id": 3,
          "value": 0.0
        }
      ],
      "leftModuleId": 163,
      "rightModuleId": 159,
      "pos": [
        31,
        3
      ]
    },
    {
      "id": 163,
      "plugin": "Befaco",
      "version": "1.1.1",
      "model": "Rampage",
      "params": [
        {
          "id": 0,
          "value": 2.0
        },
        {
          "id": 1,
          "value": 0.0
        },
        {
          "id": 2,
          "value": 0.0
        },
        {
          "id": 3,
          "value": 0.324000001
        },
        {
          "id": 4,
          "value": 0.0
        },
        {
          "id": 5,
          "value": 0.0
        },
        {
          "id": 6,
          "value": 0.0
        },
        {
          "id": 7,
          "value": 0.774000108
        },
        {
          "id": 8,
          "value": 0.80499959
        },
        {
          "id": 9,
          "value": 0.863999903
        },
        {
          "id": 10,
          "value": 0.0
        },
        {
          "id": 11,
          "value": 0.0
        },
        {
          "id": 12,
          "value": 0.5
        }
      ],
      "leftModuleId": 164,
      "rightModuleId": 162,
      "pos": [
        13,
        3
      ]
    },
    {
      "id": 164,
      "plugin": "Fundamental",
      "version": "1.4.0",
      "model": "Scope",
      "params": [
        {
          "id": 0,
          "value": 0.0
        },
        {
          "id": 1,
          "value": 0.0
        },
        {
          "id": 2,
          "value": 0.0
        },
        {
          "id": 3,
          "value": 0.0
        },
        {
          "id": 4,
          "value": 6.0
        },
        {
          "id": 5,
          "value": 0.0
        },
        {
          "id": 6,
          "value": 0.870000124
        },
        {
          "id": 7,
          "value": 0.0
        }
      ],
      "rightModuleId": 163,
      "data": {
        "lissajous": 0,
        "external": 0
      },
      "pos": [
        0,
        3
      ]
    },
    {
      "id": 165,
      "plugin": "Instruo",
      "version": "1.1.0",
      "model": "harmonaig",
      "params": [
        {
          "id": 0,
          "value": 0.0
        },
        {
          "id": 1,
          "value": 0.0
        },
        {
          "id": 2,
          "value": 0.0
        },
        {
          "id": 3,
          "value": 0.0
        },
        {
          "id": 4,
          "value": 0.0
        },
        {
          "id": 5,
          "value": 0.0
        },
        {
          "id": 6,
          "value": 0.0
        },
        {
          "id": 7,
          "value": 0.0
        },
        {
          "id": 8,
          "value": 0.0
        },
        {
          "id": 9,
          "value": 0.0
        },
        {
          "id": 10,
          "value": 0.0
        },
        {
          "id": 11,
          "value": 0.0
        },
        {
          "id": 12,
          "value": 0.0
        },
        {
          "id": 13,
          "value": 0.0
        },
        {
          "id": 14,
          "value": 0.0
        },
        {
          "id": 15,
          "value": 0.0
        },
        {
          "id": 16,
          "value": 0.0
        },
        {
          "id": 17,
          "value": 0.0
        },
        {
          "id": 18,
          "value": 0.0
        },
        {
          "id": 19,
          "value": 0.0
        },
        {
          "id": 20,
          "value": 0.0
        },
        {
          "id": 21,
          "value": 0.0
        },
        {
          "id": 22,
          "value": 0.0
        },
        {
          "id": 23,
          "value": 0.0
        },
        {
          "id": 24,
          "value": 1.0
        },
        {
          "id": 25,
          "value": 1.0
        },
        {
          "id": 26,
          "value": 1.0
        },
        {
          "id": 27,
          "value": 1.0
        },
        {
          "id": 28,
          "value": 1.0
        },
        {
          "id": 29,
          "value": 1.0
        },
        {
          "id": 30,
          "value": 1.0
        },
        {
          "id": 31,
          "value": 1.0
        },
        {
          "id": 32,
          "value": 1.0
        },
        {
          "id": 33,
          "value": 1.0
        },
        {
          "id": 34,
          "value": 1.0
        },
        {
          "id": 35,
          "value": 1.0
        },
        {
          "id": 36,
          "value": 1.0
        },
        {
          "id": 37,
          "value": 1.0
        },
        {
          "id": 38,
          "value": 2.0
        },
        {
          "id": 39,
          "value": 0.0
        },
        {
          "id": 40,
          "value": 0.0
        },
        {
          "id": 41,
          "value": 0.0
        },
        {
          "id": 42,
          "value": 1.0
        },
        {
          "id": 43,
          "value": 1.0
        },
        {
          "id": 44,
          "value": 1.0
        },
        {
          "id": 45,
          "value": 1.0
        }
      ],
      "rightModuleId": 161,
      "data": {
        "mode": 1
      },
      "pos": [
        4,
        2
      ]
    },
    {
      "id": 167,
      "plugin": "CountModula",
      "version": "1.15.1",
      "model": "BooleanAND",
      "params": [],
      "rightModuleId": 168,
      "data": {
        "moduleVersion": 3,
        "theme": 6
      },
      "pos": [
        52,
        2
      ]
    },
    {
      "id": 168,
      "plugin": "CountModula",
      "version": "1.15.1",
      "model": "BooleanVCNOT",
      "params": [
        {
          "id": 0,
          "value": 0.0
        },
        {
          "id": 1,
          "value": 0.0
        }
      ],
      "leftModuleId": 167,
      "rightModuleId": 169,
      "data": {
        "moduleVersion": 3,
        "theme": 6
      },
      "pos": [
        56,
        2
      ]
    },
    {
      "id": 169,
      "plugin": "Bogaudio",
      "version": "1.1.37",
      "model": "Bogaudio-LFO",
      "params": [
        {
          "id": 0,
          "value": 0.968637943
        },
        {
          "id": 1,
          "value": 0.0
        },
        {
          "id": 2,
          "value": 0.0
        },
        {
          "id": 3,
          "value": 0.0
        },
        {
          "id": 4,
          "value": 0.0
        },
        {
          "id": 5,
          "value": 0.425999939
        },
        {
          "id": 6,
          "value": 0.0
        }
      ],
      "leftModuleId": 168,
      "data": {
        "offset_cv_to_smoothing": false
      },
      "pos": [
        60,
        2
      ]
    },
    {
      "id": 170,
      "plugin": "Befaco",
      "version": "1.1.1",
      "model": "DualAtenuverter",
      "params": [
        {
          "id": 0,
          "value": 0.306000024
        },
        {
          "id": 1,
          "value": 0.0300000012
        },
        {
          "id": 2,
          "value": 0.747999907
        },
        {
          "id": 3,
          "value": 0.0
        }
      ],
      "leftModuleId": 159,
      "rightModuleId": 171,
      "pos": [
        71,
        3
      ]
    },
    {
      "id": 171,
      "plugin": "CountModula",
      "version": "1.15.1",
      "model": "SRFlipFlop",
      "params": [],
      "leftModuleId": 170,
      "rightModuleId": 172,
      "data": {
        "moduleVersion": 1,
        "QStates": [
          true,
          false
        ],
        "NQStates": [
          false,
          true
        ],
        "theme": 6
      },
      "pos": [
        76,
        3
      ]
    },
    {
      "id": 172,
      "plugin": "Fundamental",
      "version": "1.4.0",
      "model": "VCA-1",
      "params": [
        {
          "id": 0,
          "value": 1.0
        },
        {
          "id": 1,
          "value": 1.0
        }
      ],
      "leftModuleId": 171,
      "rightModuleId": 173,
      "pos": [
        84,
        3
      ]
    },
    {
      "id": 173,
      "plugin": "Fundamental",
      "version": "1.4.0",
      "model": "VCA-1",
      "params": [
        {
          "id": 0,
          "value": 1.0
        },
        {
          "id": 1,
          "value": 1.0
        }
      ],
      "leftModuleId": 172,
      "rightModuleId": 174,
      "pos": [
        87,
        3
      ]
    },
    {
      "id": 174,
      "plugin": "Befaco",
      "version": "1.1.1",
      "model": "SlewLimiter",
      "params": [
        {
          "id": 0,
          "value": 0.0
        },
        {
          "id": 1,
          "value": 0.0870000049
        },
        {
          "id": 2,
          "value": 0.0989999846
        }
      ],
      "leftModuleId": 173,
      "pos": [
        90,
        3
      ]
    },
    {
      "id": 175,
      "plugin": "TechTechTechnologies",
      "version": "1.0.0",
      "model": "Odysseus",
      "params": [
        {
          "id": 0,
          "value": 0.5
        },
        {
          "id": 1,
          "value": 0.0
        },
        {
          "id": 2,
          "value": 1.0
        },
        {
          "id": 3,
          "value": 0.0
        },
        {
          "id": 4,
          "value": 0.119500242
        },
        {
          "id": 5,
          "value": 0.780999899
        },
        {
          "id": 6,
          "value": 0.0
        },
        {
          "id": 7,
          "value": 0.0
        },
        {
          "id": 8,
          "value": 0.0
        },
        {
          "id": 9,
          "value": 0.0
        },
        {
          "id": 10,
          "value": 0.0
        }
      ],
      "leftModuleId": 99,
      "rightModuleId": 176,
      "pos": [
        43,
        4
      ]
    },
    {
      "id": 176,
      "plugin": "Fundamental",
      "version": "1.4.0",
      "model": "Scope",
      "params": [
        {
          "id": 0,
          "value": 0.0
        },
        {
          "id": 1,
          "value": 0.0
        },
        {
          "id": 2,
          "value": 0.0
        },
        {
          "id": 3,
          "value": 0.0
        },
        {
          "id": 4,
          "value": 6.03000021
        },
        {
          "id": 5,
          "value": 0.0
        },
        {
          "id": 6,
          "value": 0.0
        },
        {
          "id": 7,
          "value": 0.0
        }
      ],
      "leftModuleId": 175,
      "rightModuleId": 181,
      "data": {
        "lissajous": 0,
        "external": 0
      },
      "pos": [
        53,
        4
      ]
    },
    {
      "id": 155,
      "plugin": "Fundamental",
      "version": "1.4.0",
      "model": "Scope",
      "params": [
        {
          "id": 0,
          "value": 0.0
        },
        {
          "id": 1,
          "value": 0.0
        },
        {
          "id": 2,
          "value": 0.0
        },
        {
          "id": 3,
          "value": 0.0
        },
        {
          "id": 4,
          "value": 16.0
        },
        {
          "id": 5,
          "value": 0.0
        },
        {
          "id": 6,
          "value": 0.840000033
        },
        {
          "id": 7,
          "value": 0.0
        }
      ],
      "data": {
        "lissajous": 0,
        "external": 0
      },
      "pos": [
        52,
        0
      ]
    },
    {
      "id": 178,
      "plugin": "Bogaudio",
      "version": "1.1.37",
      "model": "Bogaudio-UMix",
      "params": [],
      "leftModuleId": 182,
      "rightModuleId": 99,
      "data": {
        "clipping_mode": 0,
        "input_gain_db": 0.0,
        "sum": true
      },
      "pos": [
        32,
        4
      ]
    },
    {
      "id": 181,
      "plugin": "Bogaudio",
      "version": "1.1.37",
      "model": "Bogaudio-AnalyzerXL",
      "params": [],
      "leftModuleId": 176,
      "data": {
        "frequency_plot": "log",
        "range": 0.0,
        "amplitude_plot": "decibels_140",
        "smooth": 0.25,
        "quality": "ultra",
        "window": "kaiser"
      },
      "pos": [
        66,
        4
      ]
    },
    {
      "id": 182,
      "plugin": "AudibleInstruments",
      "version": "1.5.0",
      "model": "Ripples",
      "params": [
        {
          "id": 0,
          "value": 0.0
        },
        {
          "id": 1,
          "value": 11.163434
        },
        {
          "id": 2,
          "value": 0.0
        }
      ],
      "rightModuleId": 178,
      "pos": [
        24,
        4
      ]
    },
    {
      "id": 183,
      "plugin": "Fundamental",
      "version": "1.4.0",
      "model": "VCA-1",
      "params": [
        {
          "id": 0,
          "value": 1.0
        },
        {
          "id": 1,
          "value": 1.0
        }
      ],
      "pos": [
        107,
        3
      ]
    },
    {
      "id": 184,
      "plugin": "Befaco",
      "version": "1.1.1",
      "model": "DualAtenuverter",
      "params": [
        {
          "id": 0,
          "value": 1.0
        },
        {
          "id": 1,
          "value": 0.0
        },
        {
          "id": 2,
          "value": 0.661000013
        },
        {
          "id": 3,
          "value": 0.0
        }
      ],
      "pos": [
        98,
        3
      ]
    },
    {
      "id": 185,
      "plugin": "Bogaudio",
      "version": "1.1.37",
      "model": "Bogaudio-LFO",
      "params": [
        {
          "id": 0,
          "value": -1.03136253
        },
        {
          "id": 1,
          "value": 0.0
        },
        {
          "id": 2,
          "value": 0.0
        },
        {
          "id": 3,
          "value": 0.0
        },
        {
          "id": 4,
          "value": 1.0
        },
        {
          "id": 5,
          "value": 1.0
        },
        {
          "id": 6,
          "value": 0.0
        }
      ],
      "leftModuleId": 11,
      "data": {
        "offset_cv_to_smoothing": false
      },
      "pos": [
        140,
        1
      ]
    },
    {
      "id": 186,
      "plugin": "NYSTHI",
      "version": "1.0.17",
      "model": "ClockableDelay",
      "params": [
        {
          "id": 0,
          "value": 0.0
        },
        {
          "id": 1,
          "value": 0.0
        },
        {
          "id": 2,
          "value": 0.0
        },
        {
          "id": 3,
          "value": 1.0
        },
        {
          "id": 4,
          "value": 1.0
        },
        {
          "id": 5,
          "value": 1.0
        },
        {
          "id": 6,
          "value": 1.0
        },
        {
          "id": 7,
          "value": 0.0
        },
        {
          "id": 8,
          "value": 0.0
        },
        {
          "id": 9,
          "value": 0.0
        }
      ],
      "leftModuleId": 187,
      "data": {
        "m_delay_time": 1.0,
        "m_delay_time_multiplier": 19.9700012,
        "m_feedback": 0.280000001,
        "m_feed_in": 1.0
      },
      "pos": [
        138,
        3
      ]
    },
    {
      "id": 187,
      "plugin": "squinkylabs-plug1",
      "version": "1.0.22",
      "model": "squinkylabs-mixm",
      "params": [
        {
          "id": 0,
          "value": 0.75
        },
        {
          "id": 1,
          "value": 0.0
        },
        {
          "id": 2,
          "value": 0.0
        },
        {
          "id": 3,
          "value": 0.0
        },
        {
          "id": 4,
          "value": 0.879000306
        },
        {
          "id": 5,
          "value": 1.0
        },
        {
          "id": 6,
          "value": 0.0
        },
        {
          "id": 7,
          "value": 0.0
        },
        {
          "id": 8,
          "value": 0.0
        },
        {
          "id": 9,
          "value": 0.0
        },
        {
          "id": 10,
          "value": 0.0
        },
        {
          "id": 11,
          "value": 0.0
        },
        {
          "id": 12,
          "value": 0.0
        },
        {
          "id": 13,
          "value": 0.0
        },
        {
          "id": 14,
          "value": 0.0
        },
        {
          "id": 15,
          "value": 0.0
        },
        {
          "id": 16,
          "value": 0.0
        },
        {
          "id": 17,
          "value": 0.0
        },
        {
          "id": 18,
          "value": 0.0
        },
        {
          "id": 19,
          "value": 0.0
        },
        {
          "id": 20,
          "value": 0.0
        },
        {
          "id": 21,
          "value": 0.0
        },
        {
          "id": 22,
          "value": 0.0
        },
        {
          "id": 23,
          "value": 0.0
        },
        {
          "id": 24,
          "value": 0.0
        },
        {
          "id": 25,
          "value": 0.582000017
        },
        {
          "id": 26,
          "value": 0.596999764
        },
        {
          "id": 27,
          "value": 0.0
        },
        {
          "id": 28,
          "value": 0.0
        },
        {
          "id": 29,
          "value": 0.0
        },
        {
          "id": 30,
          "value": 1.0
        },
        {
          "id": 31,
          "value": 0.0
        },
        {
          "id": 32,
          "value": 0.0
        },
        {
          "id": 33,
          "value": 0.0
        },
        {
          "id": 34,
          "value": 0.0
        },
        {
          "id": 35,
          "value": 0.0
        },
        {
          "id": 36,
          "value": 0.0
        }
      ],
      "rightModuleId": 186,
      "pos": [
        121,
        3
      ]
    },
    {
      "id": 188,
      "plugin": "squinkylabs-plug1",
      "version": "1.0.22",
      "model": "squinkylabs-mixStereo",
      "params": [
        {
          "id": 0,
          "value": 0.0
        },
        {
          "id": 1,
          "value": 1.0
        },
        {
          "id": 2,
          "value": 0.0
        },
        {
          "id": 3,
          "value": 0.0
        },
        {
          "id": 4,
          "value": 0.0
        },
        {
          "id": 5,
          "value": 0.0
        },
        {
          "id": 6,
          "value": 0.0
        },
        {
          "id": 7,
          "value": 0.0
        },
        {
          "id": 8,
          "value": 0.0
        },
        {
          "id": 9,
          "value": 0.0
        },
        {
          "id": 10,
          "value": 0.379499942
        },
        {
          "id": 11,
          "value": 0.0
        },
        {
          "id": 12,
          "value": 0.0
        },
        {
          "id": 13,
          "value": 0.0
        },
        {
          "id": 14,
          "value": 0.0
        },
        {
          "id": 15,
          "value": 0.0
        },
        {
          "id": 16,
          "value": 0.0
        },
        {
          "id": 17,
          "value": 0.0
        }
      ],
      "rightModuleId": 27,
      "pos": [
        69,
        1
      ]
    },
    {
      "id": 189,
      "plugin": "Fundamental",
      "version": "1.4.0",
      "model": "Octave",
      "params": [
        {
          "id": 0,
          "value": -1.0
        }
      ],
      "leftModuleId": 193,
      "rightModuleId": 63,
      "pos": [
        18,
        1
      ]
    },
    {
      "id": 193,
      "plugin": "Fundamental",
      "version": "1.4.0",
      "model": "Octave",
      "params": [
        {
          "id": 0,
          "value": 0.0
        }
      ],
      "rightModuleId": 189,
      "pos": [
        15,
        1
      ]
    },
    {
      "id": 194,
      "plugin": "Befaco",
      "version": "1.1.1",
      "model": "DualAtenuverter",
      "params": [
        {
          "id": 0,
          "value": 1.0
        },
        {
          "id": 1,
          "value": 0.0
        },
        {
          "id": 2,
          "value": 0.661000013
        },
        {
          "id": 3,
          "value": 0.0
        }
      ],
      "pos": [
        146,
        3
      ]
    }
  ],
  "cables": [
    {
      "id": 13,
      "outputModuleId": 13,
      "outputId": 0,
      "inputModuleId": 12,
      "inputId": 7,
      "color": "#0986ad"
    },
    {
      "id": 14,
      "outputModuleId": 12,
      "outputId": 3,
      "inputModuleId": 13,
      "inputId": 0,
      "color": "#c9b70e"
    },
    {
      "id": 36,
      "outputModuleId": 26,
      "outputId": 3,
      "inputModuleId": 11,
      "inputId": 1,
      "color": "#c9b70e"
    },
    {
      "id": 35,
      "outputModuleId": 26,
      "outputId": 2,
      "inputModuleId": 11,
      "inputId": 0,
      "color": "#0986ad"
    },
    {
      "id": 37,
      "outputModuleId": 30,
      "outputId": 0,
      "inputModuleId": 29,
      "inputId": 0,
      "color": "#0c8e15"
    },
    {
      "id": 39,
      "outputModuleId": 30,
      "outputId": 0,
      "inputModuleId": 29,
      "inputId": 1,
      "color": "#0986ad"
    },
    {
      "id": 107,
      "outputModuleId": 27,
      "outputId": 6,
      "inputModuleId": 57,
      "inputId": 0,
      "color": "#c91847"
    },
    {
      "id": 108,
      "outputModuleId": 27,
      "outputId": 7,
      "inputModuleId": 57,
      "inputId": 1,
      "color": "#0986ad"
    },
    {
      "id": 126,
      "outputModuleId": 63,
      "outputId": 0,
      "inputModuleId": 12,
      "inputId": 3,
      "color": "#0c8e15"
    },
    {
      "id": 143,
      "outputModuleId": 30,
      "outputId": 1,
      "inputModuleId": 26,
      "inputId": 2,
      "color": "#c9b70e"
    },
    {
      "id": 320,
      "outputModuleId": 13,
      "outputId": 0,
      "inputModuleId": 154,
      "inputId": 0,
      "color": "#0c8e15"
    },
    {
      "id": 321,
      "outputModuleId": 12,
      "outputId": 3,
      "inputModuleId": 154,
      "inputId": 1,
      "color": "#c91847"
    },
    {
      "id": 329,
      "outputModuleId": 27,
      "outputId": 0,
      "inputModuleId": 26,
      "inputId": 0,
      "color": "#0c8e15"
    },
    {
      "id": 330,
      "outputModuleId": 27,
      "outputId": 1,
      "inputModuleId": 26,
      "inputId": 1,
      "color": "#c91847"
    },
    {
      "id": 332,
      "outputModuleId": 12,
      "outputId": 1,
      "inputModuleId": 159,
      "inputId": 4,
      "color": "#c9b70e"
    },
    {
      "id": 333,
      "outputModuleId": 159,
      "outputId": 0,
      "inputModuleId": 159,
      "inputId": 8,
      "color": "#0c8e15"
    },
    {
      "id": 334,
      "outputModuleId": 159,
      "outputId": 4,
      "inputModuleId": 159,
      "inputId": 12,
      "color": "#c91847"
    },
    {
      "id": 337,
      "outputModuleId": 156,
      "outputId": 2,
      "inputModuleId": 161,
      "inputId": 0,
      "color": "#0c8e15"
    },
    {
      "id": 338,
      "outputModuleId": 161,
      "outputId": 0,
      "inputModuleId": 157,
      "inputId": 4,
      "color": "#0986ad"
    },
    {
      "id": 345,
      "outputModuleId": 161,
      "outputId": 1,
      "inputModuleId": 162,
      "inputId": 1,
      "color": "#c91847"
    },
    {
      "id": 346,
      "outputModuleId": 162,
      "outputId": 1,
      "inputModuleId": 163,
      "inputId": 6,
      "color": "#0986ad"
    },
    {
      "id": 349,
      "outputModuleId": 165,
      "outputId": 0,
      "inputModuleId": 63,
      "inputId": 0,
      "color": "#c9b70e"
    },
    {
      "id": 342,
      "outputModuleId": 162,
      "outputId": 0,
      "inputModuleId": 13,
      "inputId": 1,
      "color": "#0986ad"
    },
    {
      "id": 352,
      "outputModuleId": 163,
      "outputId": 2,
      "inputModuleId": 168,
      "inputId": 0,
      "color": "#0c8e15"
    },
    {
      "id": 353,
      "outputModuleId": 168,
      "outputId": 0,
      "inputModuleId": 167,
      "inputId": 0,
      "color": "#c91847"
    },
    {
      "id": 344,
      "outputModuleId": 161,
      "outputId": 0,
      "inputModuleId": 167,
      "inputId": 1,
      "color": "#0c8e15"
    },
    {
      "id": 354,
      "outputModuleId": 167,
      "outputId": 0,
      "inputModuleId": 163,
      "inputId": 2,
      "color": "#c9b70e"
    },
    {
      "id": 359,
      "outputModuleId": 167,
      "outputId": 0,
      "inputModuleId": 171,
      "inputId": 0,
      "color": "#c91847"
    },
    {
      "id": 360,
      "outputModuleId": 161,
      "outputId": 1,
      "inputModuleId": 171,
      "inputId": 2,
      "color": "#0986ad"
    },
    {
      "id": 356,
      "outputModuleId": 172,
      "outputId": 0,
      "inputModuleId": 169,
      "inputId": 3,
      "color": "#0986ad"
    },
    {
      "id": 343,
      "outputModuleId": 172,
      "outputId": 0,
      "inputModuleId": 164,
      "inputId": 1,
      "color": "#c9b70e"
    },
    {
      "id": 347,
      "outputModuleId": 172,
      "outputId": 0,
      "inputModuleId": 162,
      "inputId": 0,
      "color": "#c9b70e"
    },
    {
      "id": 351,
      "outputModuleId": 13,
      "outputId": 1,
      "inputModuleId": 173,
      "inputId": 0,
      "color": "#c91847"
    },
    {
      "id": 361,
      "outputModuleId": 171,
      "outputId": 0,
      "inputModuleId": 174,
      "inputId": 2,
      "color": "#c9b70e"
    },
    {
      "id": 365,
      "outputModuleId": 174,
      "outputId": 0,
      "inputModuleId": 172,
      "inputId": 0,
      "color": "#c9b70e"
    },
    {
      "id": 366,
      "outputModuleId": 174,
      "outputId": 0,
      "inputModuleId": 172,
      "inputId": 1,
      "color": "#0c8e15"
    },
    {
      "id": 367,
      "outputModuleId": 170,
      "outputId": 1,
      "inputModuleId": 12,
      "inputId": 2,
      "color": "#0986ad"
    },
    {
      "id": 368,
      "outputModuleId": 163,
      "outputId": 7,
      "inputModuleId": 164,
      "inputId": 0,
      "color": "#c9b70e"
    },
    {
      "id": 369,
      "outputModuleId": 163,
      "outputId": 7,
      "inputModuleId": 170,
      "inputId": 1,
      "color": "#0c8e15"
    },
    {
      "id": 370,
      "outputModuleId": 175,
      "outputId": 0,
      "inputModuleId": 176,
      "inputId": 0,
      "color": "#c91847"
    },
    {
      "id": 371,
      "outputModuleId": 175,
      "outputId": 0,
      "inputModuleId": 175,
      "inputId": 0,
      "color": "#0986ad"
    },
    {
      "id": 373,
      "outputModuleId": 175,
      "outputId": 0,
      "inputModuleId": 170,
      "inputId": 0,
      "color": "#0c8e15"
    },
    {
      "id": 374,
      "outputModuleId": 170,
      "outputId": 0,
      "inputModuleId": 159,
      "inputId": 16,
      "color": "#c91847"
    },
    {
      "id": 375,
      "outputModuleId": 159,
      "outputId": 8,
      "inputModuleId": 99,
      "inputId": 3,
      "color": "#0986ad"
    },
    {
      "id": 376,
      "outputModuleId": 170,
      "outputId": 0,
      "inputModuleId": 99,
      "inputId": 1,
      "color": "#c9b70e"
    },
    {
      "id": 324,
      "outputModuleId": 12,
      "outputId": 1,
      "inputModuleId": 155,
      "inputId": 0,
      "color": "#0c8e15"
    },
    {
      "id": 379,
      "outputModuleId": 159,
      "outputId": 8,
      "inputModuleId": 178,
      "inputId": 0,
      "color": "#0c8e15"
    },
    {
      "id": 384,
      "outputModuleId": 99,
      "outputId": 0,
      "inputModuleId": 181,
      "inputId": 5,
      "color": "#c91847"
    },
    {
      "id": 383,
      "outputModuleId": 99,
      "outputId": 0,
      "inputModuleId": 178,
      "inputId": 1,
      "color": "#0c8e15"
    },
    {
      "id": 355,
      "outputModuleId": 169,
      "outputId": 4,
      "inputModuleId": 12,
      "inputId": 5,
      "color": "#c91847"
    },
    {
      "id": 388,
      "outputModuleId": 27,
      "outputId": 5,
      "inputModuleId": 181,
      "inputId": 6,
      "color": "#c91847"
    },
    {
      "id": 386,
      "outputModuleId": 182,
      "outputId": 2,
      "inputModuleId": 181,
      "inputId": 4,
      "color": "#c9b70e"
    },
    {
      "id": 319,
      "outputModuleId": 182,
      "outputId": 2,
      "inputModuleId": 173,
      "inputId": 1,
      "color": "#0986ad"
    },
    {
      "id": 389,
      "outputModuleId": 178,
      "outputId": 0,
      "inputModuleId": 182,
      "inputId": 3,
      "color": "#0986ad"
    },
    {
      "id": 390,
      "outputModuleId": 167,
      "outputId": 0,
      "inputModuleId": 12,
      "inputId": 4,
      "color": "#0c8e15"
    },
    {
      "id": 364,
      "outputModuleId": 173,
      "outputId": 0,
      "inputModuleId": 27,
      "inputId": 3,
      "color": "#0986ad"
    },
    {
      "id": 394,
      "outputModuleId": 163,
      "outputId": 7,
      "inputModuleId": 184,
      "inputId": 0,
      "color": "#0c8e15"
    },
    {
      "id": 397,
      "outputModuleId": 184,
      "outputId": 0,
      "inputModuleId": 183,
      "inputId": 0,
      "color": "#c9b70e"
    },
    {
      "id": 398,
      "outputModuleId": 12,
      "outputId": 1,
      "inputModuleId": 159,
      "inputId": 5,
      "color": "#0c8e15"
    },
    {
      "id": 399,
      "outputModuleId": 159,
      "outputId": 1,
      "inputModuleId": 159,
      "inputId": 9,
      "color": "#0986ad"
    },
    {
      "id": 400,
      "outputModuleId": 159,
      "outputId": 5,
      "inputModuleId": 159,
      "inputId": 13,
      "color": "#c9b70e"
    },
    {
      "id": 401,
      "outputModuleId": 159,
      "outputId": 9,
      "inputModuleId": 183,
      "inputId": 1,
      "color": "#0c8e15"
    },
    {
      "id": 402,
      "outputModuleId": 185,
      "outputId": 2,
      "inputModuleId": 59,
      "inputId": 7,
      "color": "#c91847"
    },
    {
      "id": 403,
      "outputModuleId": 185,
      "outputId": 2,
      "inputModuleId": 186,
      "inputId": 11,
      "color": "#0986ad"
    },
    {
      "id": 395,
      "outputModuleId": 183,
      "outputId": 0,
      "inputModuleId": 187,
      "inputId": 3,
      "color": "#c91847"
    },
    {
      "id": 404,
      "outputModuleId": 187,
      "outputId": 8,
      "inputModuleId": 186,
      "inputId": 0,
      "color": "#0c8e15"
    },
    {
      "id": 405,
      "outputModuleId": 187,
      "outputId": 9,
      "inputModuleId": 186,
      "inputId": 1,
      "color": "#c91847"
    },
    {
      "id": 406,
      "outputModuleId": 27,
      "outputId": 8,
      "inputModuleId": 59,
      "inputId": 5,
      "color": "#0986ad"
    },
    {
      "id": 407,
      "outputModuleId": 27,
      "outputId": 9,
      "inputModuleId": 59,
      "inputId": 6,
      "color": "#c9b70e"
    },
    {
      "id": 410,
      "outputModuleId": 187,
      "outputId": 0,
      "inputModuleId": 188,
      "inputId": 2,
      "color": "#0986ad"
    },
    {
      "id": 411,
      "outputModuleId": 187,
      "outputId": 1,
      "inputModuleId": 188,
      "inputId": 3,
      "color": "#c9b70e"
    },
    {
      "id": 417,
      "outputModuleId": 189,
      "outputId": 0,
      "inputModuleId": 63,
      "inputId": 1,
      "color": "#0986ad"
    },
    {
      "id": 419,
      "outputModuleId": 184,
      "outputId": 1,
      "inputModuleId": 163,
      "inputId": 9,
      "color": "#c91847"
    },
    {
      "id": 117,
      "outputModuleId": 186,
      "outputId": 8,
      "inputModuleId": 187,
      "inputId": 18,
      "color": "#0c8e15"
    },
    {
      "id": 118,
      "outputModuleId": 186,
      "outputId": 9,
      "inputModuleId": 187,
      "inputId": 19,
      "color": "#c91847"
    },
    {
      "id": 408,
      "outputModuleId": 59,
      "outputId": 0,
      "inputModuleId": 27,
      "inputId": 18,
      "color": "#0c8e15"
    },
    {
      "id": 409,
      "outputModuleId": 59,
      "outputId": 1,
      "inputModuleId": 27,
      "inputId": 19,
      "color": "#c91847"
    },
    {
      "id": 420,
      "outputModuleId": 57,
      "outputId": 0,
      "inputModuleId": 27,
      "inputId": 16,
      "color": "#c9b70e"
    },
    {
      "id": 421,
      "outputModuleId": 57,
      "outputId": 1,
      "inputModuleId": 27,
      "inputId": 17,
      "color": "#0c8e15"
    },
    {
      "id": 418,
      "outputModuleId": 193,
      "outputId": 0,
      "inputModuleId": 184,
      "inputId": 1,
      "color": "#0c8e15"
    },
    {
      "id": 423,
      "outputModuleId": 189,
      "outputId": 0,
      "inputModuleId": 193,
      "inputId": 1,
      "color": "#0986ad"
    },
    {
      "id": 424,
      "outputModuleId": 194,
      "outputId": 0,
      "inputModuleId": 186,
      "inputId": 9,
      "color": "#c9b70e"
    }
  ]
}