{
  "version": "0.5.1",
  "modules": [
    {
      "plugin": "Core",
      "model": "AudioInterface",
      "pos": [
        1890.0,
        0.0
      ],
      "params": [],
      "data": {
        "driver": 8,
        "device": 0,
        "sampleRate": 48000.0,
        "blockSize": 256
      }
    },
    {
      "plugin": "Fundamental",
      "model": "VCMixer",
      "pos": [
        1425.0,
        0.0
      ],
      "params": [
        0.5,
        1.0,
        1.0,
        1.0
      ]
    },
    {
      "plugin": "Fundamental",
      "model": "Scope",
      "pos": [
        1980.0,
        380.0
      ],
      "params": [
        0.0,
        0.0,
        0.0,
        0.0,
        -14.0,
        0.0,
        0.0,
        0.0
      ],
      "data": {
        "lissajous": 0,
        "external": 0
      }
    },
    {
      "plugin": "Fundamental",
      "model": "Scope",
      "pos": [
        1785.0,
        380.0
      ],
      "params": [
        0.0,
        0.0,
        -0.0,
        0.0,
        -16.0,
        0.0,
        1.2900002002716064,
        0.0
      ],
      "data": {
        "lissajous": 0,
        "external": 0
      }
    },
    {
      "plugin": "Fundamental",
      "model": "VCMixer",
      "pos": [
        1665.0,
        0.0
      ],
      "params": [
        0.5,
        0.0,
        1.0,
        0.0
      ]
    },
    {
      "plugin": "Fundamental",
      "model": "Scope",
      "pos": [
        1590.0,
        380.0
      ],
      "params": [
        0.0,
        0.0,
        1.0,
        0.0,
        -16.0,
        0.0,
        2.9400007724761963,
        0.0
      ],
      "data": {
        "lissajous": 0,
        "external": 0
      }
    },
    {
      "plugin": "AudibleInstruments",
      "model": "Warps",
      "pos": [
        645.0,
        380.0
      ],
      "params": [
        2.9639999866485596,
        0.0,
        0.0,
        0.68349987268447876,
        0.46599963307380676
      ],
      "data": {
        "shape": 0
      }
    },
    {
      "plugin": "Bogaudio",
      "model": "Bogaudio-Analyzer",
      "pos": [
        1440.0,
        760.0
      ],
      "params": [
        0.5,
        0.5,
        2.0,
        1.0
      ]
    },
    {
      "plugin": "Fundamental",
      "model": "VCO",
      "pos": [
        1095.0,
        760.0
      ],
      "params": [
        0.0,
        1.0,
        0.0,
        0.0,
        0.5,
        0.46149969100952148,
        0.0
      ]
    },
    {
      "plugin": "Fundamental",
      "model": "VCO",
      "pos": [
        270.0,
        380.0
      ],
      "params": [
        1.0,
        1.0,
        0.53997713327407837,
        0.0,
        0.5,
        0.0,
        0.0
      ]
    },
    {
      "plugin": "AudibleInstruments",
      "model": "Warps",
      "pos": [
        1245.0,
        380.0
      ],
      "params": [
        2.951995849609375,
        0.0,
        0.0,
        0.5649992823600769,
        0.57550013065338135
      ],
      "data": {
        "shape": 0
      }
    },
    {
      "plugin": "Fundamental",
      "model": "VCO",
      "pos": [
        1245.0,
        760.0
      ],
      "params": [
        0.0,
        1.0,
        0.0,
        0.0,
        0.5,
        0.0494999960064888,
        0.0
      ]
    },
    {
      "plugin": "TechTechTechnologies",
      "model": "mDAC",
      "pos": [
        960.0,
        760.0
      ],
      "params": [
        8.0
      ],
      "text0": "0x86",
      "text1": "0x10",
      "text2": "",
      "text3": "",
      "text4": "",
      "text5": "",
      "text6": "",
      "text7": ""
    },
    {
      "plugin": "Fundamental",
      "model": "VCF",
      "pos": [
        1395.0,
        380.0
      ],
      "params": [
        0.69799923896789551,
        0.5,
        0.0,
        0.0,
        0.6100003719329834
      ]
    },
    {
      "plugin": "AudibleInstruments",
      "model": "Links",
      "pos": [
        585.0,
        380.0
      ],
      "params": []
    },
    {
      "plugin": "Bogaudio",
      "model": "Bogaudio-Noise",
      "pos": [
        555.0,
        760.0
      ],
      "params": []
    },
    {
      "plugin": "Bogaudio",
      "model": "Bogaudio-SampleHold",
      "pos": [
        600.0,
        760.0
      ],
      "params": [
        0.0,
        0.0
      ]
    },
    {
      "plugin": "Fundamental",
      "model": "LFO",
      "pos": [
        660.0,
        760.0
      ],
      "params": [
        0.0,
        1.0,
        -6.2079992294311523,
        0.0,
        0.5,
        0.0,
        0.0
      ]
    },
    {
      "plugin": "Fundamental",
      "model": "Mutes",
      "pos": [
        825.0,
        760.0
      ],
      "params": [
        0.0,
        0.0,
        0.0,
        0.0,
        0.0,
        0.0,
        0.0,
        0.0,
        0.0,
        0.0
      ],
      "data": {
        "states": [
          false,
          false,
          true,
          true,
          true,
          true,
          true,
          true,
          true,
          true
        ]
      }
    },
    {
      "plugin": "Fundamental",
      "model": "VCF",
      "pos": [
        465.0,
        380.0
      ],
      "params": [
        1.0,
        0.5,
        0.0,
        0.0,
        0.10199999809265137
      ]
    },
    {
      "plugin": "Core",
      "model": "AudioInterface",
      "pos": [
        900.0,
        0.0
      ],
      "params": [],
      "data": {
        "driver": 8,
        "device": 8,
        "sampleRate": 44100.0,
        "blockSize": 256
      }
    },
    {
      "plugin": "Fundamental",
      "model": "VCMixer",
      "pos": [
        1095.0,
        380.0
      ],
      "params": [
        0.5,
        1.0,
        1.0,
        0.0
      ]
    },
    {
      "plugin": "Fundamental",
      "model": "Delay",
      "pos": [
        930.0,
        380.0
      ],
      "params": [
        0.75800013542175293,
        1.0,
        0.5,
        1.0
      ]
    }
  ],
  "wires": [
    {
      "outputModuleId": 1,
      "outputId": 0,
      "inputModuleId": 0,
      "inputId": 0
    },
    {
      "outputModuleId": 4,
      "outputId": 0,
      "inputModuleId": 0,
      "inputId": 1
    },
    {
      "outputModuleId": 8,
      "outputId": 0,
      "inputModuleId": 6,
      "inputId": 4
    },
    {
      "outputModuleId": 14,
      "outputId": 1,
      "inputModuleId": 6,
      "inputId": 5
    },
    {
      "outputModuleId": 11,
      "outputId": 0,
      "inputModuleId": 10,
      "inputId": 5
    },
    {
      "outputModuleId": 13,
      "outputId": 0,
      "inputModuleId": 7,
      "inputId": 2
    },
    {
      "outputModuleId": 14,
      "outputId": 2,
      "inputModuleId": 7,
      "inputId": 0
    },
    {
      "outputModuleId": 14,
      "outputId": 0,
      "inputModuleId": 5,
      "inputId": 0
    },
    {
      "outputModuleId": 12,
      "outputId": 1,
      "inputModuleId": 8,
      "inputId": 0
    },
    {
      "outputModuleId": 12,
      "outputId": 1,
      "inputModuleId": 11,
      "inputId": 0
    },
    {
      "outputModuleId": 13,
      "outputId": 0,
      "inputModuleId": 1,
      "inputId": 1
    },
    {
      "outputModuleId": 13,
      "outputId": 0,
      "inputModuleId": 5,
      "inputId": 1
    },
    {
      "outputModuleId": 10,
      "outputId": 0,
      "inputModuleId": 13,
      "inputId": 3
    },
    {
      "outputModuleId": 6,
      "outputId": 0,
      "inputModuleId": 3,
      "inputId": 0
    },
    {
      "outputModuleId": 22,
      "outputId": 0,
      "inputModuleId": 7,
      "inputId": 1
    },
    {
      "outputModuleId": 14,
      "outputId": 0,
      "inputModuleId": 4,
      "inputId": 1
    },
    {
      "outputModuleId": 18,
      "outputId": 0,
      "inputModuleId": 11,
      "inputId": 1
    },
    {
      "outputModuleId": 13,
      "outputId": 0,
      "inputModuleId": 4,
      "inputId": 3
    },
    {
      "outputModuleId": 18,
      "outputId": 1,
      "inputModuleId": 8,
      "inputId": 1
    },
    {
      "outputModuleId": 17,
      "outputId": 0,
      "inputModuleId": 18,
      "inputId": 0
    },
    {
      "outputModuleId": 19,
      "outputId": 0,
      "inputModuleId": 14,
      "inputId": 0
    },
    {
      "outputModuleId": 18,
      "outputId": 4,
      "inputModuleId": 19,
      "inputId": 3
    },
    {
      "outputModuleId": 17,
      "outputId": 0,
      "inputModuleId": 18,
      "inputId": 1
    },
    {
      "outputModuleId": 0,
      "outputId": 0,
      "inputModuleId": 18,
      "inputId": 4
    },
    {
      "outputModuleId": 22,
      "outputId": 0,
      "inputModuleId": 10,
      "inputId": 4
    },
    {
      "outputModuleId": 6,
      "outputId": 0,
      "inputModuleId": 22,
      "inputId": 4
    }
  ]
}