{
  "version": "1.1.6",
  "modules": [
    {
      "id": 1,
      "plugin": "Core",
      "version": "1.1.6",
      "model": "AudioInterface",
      "params": [],
      "leftModuleId": 25,
      "rightModuleId": 317,
      "data": {
        "audio": {
          "driver": 4,
          "deviceName": "system",
          "offset": 0,
          "maxChannels": 8,
          "sampleRate": 44100,
          "blockSize": 1024
        }
      },
      "pos": [
        132,
        4
      ]
    },
    {
      "id": 8,
      "plugin": "Core",
      "version": "1.1.6",
      "model": "Notes",
      "params": [],
      "leftModuleId": 303,
      "rightModuleId": 297,
      "text": "Demo patch instructions:\n\n1. Choose an audio driver and device in the AUDIO-8 module.\n\n2. Use the QWERTY and ZXCVB rows of your keyboard to generate MIDI notes, which are converted to 1V/oct and GATE signals.\n\n3. Drag knobs up/down. Hold Ctrl (Cmd on Mac) while dragging to fine-tune. Right-click knobs to edit, or double-click to initialize.\n\n4. Drag ports to create and move cables. Stack multiple cables on outputs by holding Ctrl (Cmd on Mac) and dragging from an output.\n\n5. Right-click on an empty rack space to add new modules.",
      "pos": [
        102,
        5
      ]
    },
    {
      "id": 20,
      "plugin": "Valley",
      "version": "1.1.7",
      "model": "Plateau",
      "params": [
        {
          "id": 0,
          "value": 0.00600000005
        },
        {
          "id": 1,
          "value": 1.0
        },
        {
          "id": 2,
          "value": 0.0
        },
        {
          "id": 3,
          "value": 6.54999924
        },
        {
          "id": 4,
          "value": 9.38500023
        },
        {
          "id": 5,
          "value": 0.5
        },
        {
          "id": 6,
          "value": 10.0
        },
        {
          "id": 7,
          "value": 0.549950004
        },
        {
          "id": 8,
          "value": 7.64499617
        },
        {
          "id": 9,
          "value": 10.0
        },
        {
          "id": 10,
          "value": 0.0
        },
        {
          "id": 11,
          "value": 0.5
        },
        {
          "id": 12,
          "value": 0.5
        },
        {
          "id": 13,
          "value": 0.0
        },
        {
          "id": 14,
          "value": 0.0
        },
        {
          "id": 15,
          "value": 0.0
        },
        {
          "id": 16,
          "value": 0.0
        },
        {
          "id": 17,
          "value": 0.0
        },
        {
          "id": 18,
          "value": 0.0
        },
        {
          "id": 19,
          "value": 0.0
        },
        {
          "id": 20,
          "value": 0.0
        },
        {
          "id": 21,
          "value": 0.0
        },
        {
          "id": 22,
          "value": 0.0
        },
        {
          "id": 23,
          "value": 0.0
        },
        {
          "id": 24,
          "value": 0.0
        },
        {
          "id": 25,
          "value": 0.0
        },
        {
          "id": 26,
          "value": 0.0
        },
        {
          "id": 27,
          "value": 0.0
        },
        {
          "id": 28,
          "value": 0.0
        },
        {
          "id": 29,
          "value": 0.0
        },
        {
          "id": 30,
          "value": 1.0
        }
      ],
      "leftModuleId": 317,
      "data": {
        "frozen": false,
        "freezeToggle": false,
        "panelStyle": 0,
        "tuned": 0,
        "diffuseInput": 1,
        "preDelayCVSens": 0,
        "inputSensitivity": 0,
        "outputSaturation": 0
      },
      "pos": [
        154,
        4
      ]
    },
    {
      "id": 22,
      "plugin": "squinkylabs-plug1",
      "version": "1.0.20",
      "model": "squinkylabs-mixm",
      "params": [
        {
          "id": 0,
          "value": 0.600000024
        },
        {
          "id": 1,
          "value": 0.0
        },
        {
          "id": 2,
          "value": 0.0699995905
        },
        {
          "id": 3,
          "value": 0.789000213
        },
        {
          "id": 4,
          "value": 0.0
        },
        {
          "id": 5,
          "value": 0.0
        },
        {
          "id": 6,
          "value": 0.0
        },
        {
          "id": 7,
          "value": 0.0
        },
        {
          "id": 8,
          "value": 0.0
        },
        {
          "id": 9,
          "value": 0.0
        },
        {
          "id": 10,
          "value": 0.0
        },
        {
          "id": 11,
          "value": 0.0
        },
        {
          "id": 12,
          "value": 0.0
        },
        {
          "id": 13,
          "value": 0.0
        },
        {
          "id": 14,
          "value": 0.0
        },
        {
          "id": 15,
          "value": 0.0
        },
        {
          "id": 16,
          "value": 0.0
        },
        {
          "id": 17,
          "value": 0.0
        },
        {
          "id": 18,
          "value": 0.0
        },
        {
          "id": 19,
          "value": 1.0
        },
        {
          "id": 20,
          "value": 0.418499887
        },
        {
          "id": 21,
          "value": 0.0
        },
        {
          "id": 22,
          "value": 0.0
        },
        {
          "id": 23,
          "value": 0.37499997
        },
        {
          "id": 24,
          "value": 0.476999968
        },
        {
          "id": 25,
          "value": 0.0
        },
        {
          "id": 26,
          "value": 0.0
        },
        {
          "id": 27,
          "value": 0.0
        },
        {
          "id": 28,
          "value": 0.0
        },
        {
          "id": 29,
          "value": 0.585802019
        },
        {
          "id": 30,
          "value": 0.707616985
        },
        {
          "id": 31,
          "value": 0.0
        },
        {
          "id": 32,
          "value": 0.0
        },
        {
          "id": 33,
          "value": 0.0
        },
        {
          "id": 34,
          "value": 0.0
        },
        {
          "id": 35,
          "value": 0.0
        },
        {
          "id": 36,
          "value": 0.0
        }
      ],
      "leftModuleId": 52,
      "rightModuleId": 628,
      "pos": [
        138,
        3
      ]
    },
    {
      "id": 25,
      "plugin": "NYSTHI",
      "version": "1.0.17",
      "model": "MasterRecorder2",
      "params": [
        {
          "id": 0,
          "value": 0.0
        },
        {
          "id": 1,
          "value": 0.0
        },
        {
          "id": 2,
          "value": 0.0
        },
        {
          "id": 3,
          "value": 1.0
        },
        {
          "id": 4,
          "value": 1.0
        },
        {
          "id": 5,
          "value": 0.0
        },
        {
          "id": 6,
          "value": 0.0
        },
        {
          "id": 7,
          "value": 0.0
        },
        {
          "id": 8,
          "value": 0.0
        },
        {
          "id": 9,
          "value": 0.00499999989
        },
        {
          "id": 10,
          "value": 0.00999999978
        },
        {
          "id": 11,
          "value": 2.0
        },
        {
          "id": 12,
          "value": 0.5
        },
        {
          "id": 13,
          "value": 0.0
        },
        {
          "id": 14,
          "value": 0.100000001
        },
        {
          "id": 15,
          "value": 0.0
        },
        {
          "id": 16,
          "value": 1.0
        }
      ],
      "rightModuleId": 1,
      "data": {
        "wavebits": 9,
        "rms_time": 0.00100000005,
        "peak_time": 0.5,
        "m_invertphaseleft": false,
        "m_invertphaseright": false,
        "m_locklevelleftright": false,
        "m_kompressor_active": false,
        "m_distort": false,
        "m_attenuation": 1.0,
        "m_enconding_format": "mp3",
        "m_encoding_bitrate": 320000,
        "m_autoenumeratefiles": true
      },
      "pos": [
        123,
        4
      ]
    },
    {
      "id": 52,
      "plugin": "squinkylabs-plug1",
      "version": "1.0.20",
      "model": "squinkylabs-mix4",
      "params": [
        {
          "id": 0,
          "value": 0.576999843
        },
        {
          "id": 1,
          "value": 0.436499923
        },
        {
          "id": 2,
          "value": 0.391500175
        },
        {
          "id": 3,
          "value": 0.584499955
        },
        {
          "id": 4,
          "value": 0.110999987
        },
        {
          "id": 5,
          "value": 0.0
        },
        {
          "id": 6,
          "value": 0.0
        },
        {
          "id": 7,
          "value": 0.0
        },
        {
          "id": 8,
          "value": 0.0
        },
        {
          "id": 9,
          "value": 0.0
        },
        {
          "id": 10,
          "value": 0.0
        },
        {
          "id": 11,
          "value": 0.0
        },
        {
          "id": 12,
          "value": 0.0
        },
        {
          "id": 13,
          "value": 0.0
        },
        {
          "id": 14,
          "value": 0.0
        },
        {
          "id": 15,
          "value": 0.0
        },
        {
          "id": 16,
          "value": 0.0
        },
        {
          "id": 17,
          "value": 0.26850006
        },
        {
          "id": 18,
          "value": 0.00449999981
        },
        {
          "id": 19,
          "value": 0.0
        },
        {
          "id": 20,
          "value": 0.763500035
        },
        {
          "id": 21,
          "value": 0.076500006
        },
        {
          "id": 22,
          "value": 0.0
        },
        {
          "id": 23,
          "value": 0.0
        },
        {
          "id": 24,
          "value": 1.0
        },
        {
          "id": 25,
          "value": 0.0
        },
        {
          "id": 26,
          "value": 0.0
        },
        {
          "id": 27,
          "value": 0.0
        },
        {
          "id": 28,
          "value": 0.0
        },
        {
          "id": 29,
          "value": 0.0
        },
        {
          "id": 30,
          "value": 0.0
        },
        {
          "id": 31,
          "value": 0.0
        }
      ],
      "leftModuleId": 644,
      "rightModuleId": 22,
      "pos": [
        128,
        3
      ]
    },
    {
      "id": 82,
      "plugin": "Bogaudio",
      "version": "1.1.37",
      "model": "Bogaudio-LFO",
      "params": [
        {
          "id": 0,
          "value": 1.58710074
        },
        {
          "id": 1,
          "value": 0.0
        },
        {
          "id": 2,
          "value": 0.0
        },
        {
          "id": 3,
          "value": 0.0
        },
        {
          "id": 4,
          "value": 0.0
        },
        {
          "id": 5,
          "value": 0.00200000009
        },
        {
          "id": 6,
          "value": 0.0
        }
      ],
      "leftModuleId": 87,
      "rightModuleId": 207,
      "data": {
        "offset_cv_to_smoothing": false
      },
      "pos": [
        106,
        4
      ]
    },
    {
      "id": 87,
      "plugin": "Bogaudio",
      "version": "1.1.37",
      "model": "Bogaudio-VCAmp",
      "params": [
        {
          "id": 0,
          "value": 0.982677102
        }
      ],
      "bypass": true,
      "leftModuleId": 302,
      "rightModuleId": 82,
      "data": {},
      "pos": [
        103,
        4
      ]
    },
    {
      "id": 119,
      "plugin": "squinkylabs-plug1",
      "version": "1.0.20",
      "model": "squinkylabs-mixStereo",
      "params": [
        {
          "id": 0,
          "value": 0.487499952
        },
        {
          "id": 1,
          "value": 0.16050002
        },
        {
          "id": 2,
          "value": 0.0
        },
        {
          "id": 3,
          "value": 0.0
        },
        {
          "id": 4,
          "value": 0.0
        },
        {
          "id": 5,
          "value": 0.0
        },
        {
          "id": 6,
          "value": 0.0
        },
        {
          "id": 7,
          "value": 0.0
        },
        {
          "id": 8,
          "value": 0.0
        },
        {
          "id": 9,
          "value": 0.0
        },
        {
          "id": 10,
          "value": 0.0
        },
        {
          "id": 11,
          "value": 0.451500028
        },
        {
          "id": 12,
          "value": 0.342000186
        },
        {
          "id": 13,
          "value": 0.0
        },
        {
          "id": 14,
          "value": 0.0
        },
        {
          "id": 15,
          "value": 0.0
        },
        {
          "id": 16,
          "value": 0.0
        },
        {
          "id": 17,
          "value": 0.0
        }
      ],
      "leftModuleId": 294,
      "rightModuleId": 644,
      "pos": [
        110,
        3
      ]
    },
    {
      "id": 207,
      "plugin": "Bogaudio",
      "version": "1.1.37",
      "model": "Bogaudio-VCAmp",
      "params": [
        {
          "id": 0,
          "value": 0.874467373
        }
      ],
      "leftModuleId": 82,
      "rightModuleId": 296,
      "data": {},
      "pos": [
        116,
        4
      ]
    },
    {
      "id": 292,
      "plugin": "CountModula",
      "version": "1.14.0",
      "model": "LightStrip",
      "params": [],
      "leftModuleId": 686,
      "rightModuleId": 393,
      "data": {
        "moduleVersion": 1,
        "color": [
          0.999000013,
          0.345000148,
          0.0
        ],
        "narrowMode": false,
        "theme": 0
      },
      "pos": [
        101,
        3
      ]
    },
    {
      "id": 294,
      "plugin": "CountModula",
      "version": "1.14.0",
      "model": "LightStrip",
      "params": [],
      "rightModuleId": 119,
      "data": {
        "moduleVersion": 1,
        "color": [
          0.608999729,
          0.0,
          0.0
        ],
        "narrowMode": false,
        "theme": 0
      },
      "pos": [
        109,
        3
      ]
    },
    {
      "id": 296,
      "plugin": "CountModula",
      "version": "1.14.0",
      "model": "LightStrip",
      "params": [],
      "leftModuleId": 207,
      "data": {
        "moduleVersion": 1,
        "color": [
          0.608999729,
          0.0,
          0.0
        ],
        "narrowMode": false,
        "theme": 0
      },
      "pos": [
        119,
        4
      ]
    },
    {
      "id": 297,
      "plugin": "CountModula",
      "version": "1.14.0",
      "model": "LightStrip",
      "params": [],
      "leftModuleId": 8,
      "rightModuleId": 680,
      "data": {
        "moduleVersion": 1,
        "color": [
          0.608999729,
          0.0,
          0.0
        ],
        "narrowMode": false,
        "theme": 0
      },
      "pos": [
        118,
        5
      ]
    },
    {
      "id": 302,
      "plugin": "CountModula",
      "version": "1.14.0",
      "model": "LightStrip",
      "params": [],
      "rightModuleId": 87,
      "data": {
        "moduleVersion": 1,
        "color": [
          0.999000013,
          0.345000148,
          0.0
        ],
        "narrowMode": false,
        "theme": 0
      },
      "pos": [
        102,
        4
      ]
    },
    {
      "id": 303,
      "plugin": "CountModula",
      "version": "1.14.0",
      "model": "LightStrip",
      "params": [],
      "rightModuleId": 8,
      "data": {
        "moduleVersion": 1,
        "color": [
          0.999000013,
          0.345000148,
          0.0
        ],
        "narrowMode": false,
        "theme": 0
      },
      "pos": [
        101,
        5
      ]
    },
    {
      "id": 317,
      "plugin": "AlrightDevices",
      "version": "1.0.3",
      "model": "Chronoblob2",
      "params": [
        {
          "id": 0,
          "value": 0.527000308
        },
        {
          "id": 1,
          "value": 0.269499779
        },
        {
          "id": 2,
          "value": 1.0
        },
        {
          "id": 3,
          "value": 0.0
        },
        {
          "id": 4,
          "value": 0.0
        },
        {
          "id": 5,
          "value": 0.0
        },
        {
          "id": 6,
          "value": 0.0
        },
        {
          "id": 7,
          "value": 0.0
        },
        {
          "id": 8,
          "value": 0.0
        },
        {
          "id": 9,
          "value": 0.0
        }
      ],
      "leftModuleId": 1,
      "rightModuleId": 20,
      "data": {
        "delay_mode": 0,
        "hold_behavior": 0,
        "sync_prescaler": 6
      },
      "pos": [
        142,
        4
      ]
    },
    {
      "id": 336,
      "plugin": "Bogaudio",
      "version": "1.1.37",
      "model": "Bogaudio-AnalyzerXL",
      "params": [],
      "bypass": true,
      "rightModuleId": 636,
      "data": {
        "frequency_plot": "log",
        "range": 0.0,
        "amplitude_plot": "decibels_80",
        "smooth": 0.25,
        "quality": "ultra_ultra",
        "window": "kaiser"
      },
      "pos": [
        0,
        2
      ]
    },
    {
      "id": 352,
      "plugin": "Fundamental",
      "version": "1.4.0",
      "model": "Scope",
      "params": [
        {
          "id": 0,
          "value": 0.0
        },
        {
          "id": 1,
          "value": 6.57000113
        },
        {
          "id": 2,
          "value": 0.0
        },
        {
          "id": 3,
          "value": -2.27999973
        },
        {
          "id": 4,
          "value": 16.0
        },
        {
          "id": 5,
          "value": 0.0
        },
        {
          "id": 6,
          "value": -3.75000119
        },
        {
          "id": 7,
          "value": 0.0
        }
      ],
      "leftModuleId": 606,
      "rightModuleId": 353,
      "data": {
        "lissajous": 0,
        "external": 1
      },
      "pos": [
        145,
        2
      ]
    },
    {
      "id": 353,
      "plugin": "Bogaudio",
      "version": "1.1.37",
      "model": "Bogaudio-AnalyzerXL",
      "params": [],
      "leftModuleId": 352,
      "data": {
        "frequency_plot": "log",
        "range": 0.0,
        "amplitude_plot": "decibels_140",
        "smooth": 0.00999999978,
        "quality": "ultra",
        "window": "kaiser"
      },
      "pos": [
        158,
        2
      ]
    },
    {
      "id": 361,
      "plugin": "NYSTHI",
      "version": "1.0.17",
      "model": "HotTuna",
      "params": [
        {
          "id": 0,
          "value": 0.0
        },
        {
          "id": 1,
          "value": 0.0
        },
        {
          "id": 2,
          "value": 0.0
        },
        {
          "id": 3,
          "value": 0.0
        },
        {
          "id": 4,
          "value": 0.0
        },
        {
          "id": 5,
          "value": 0.0
        }
      ],
      "leftModuleId": 392,
      "rightModuleId": 606,
      "data": {
        "m_use_DOREMI": false,
        "m_low_power_mode": false,
        "m_use_bemolle": false
      },
      "pos": [
        133,
        2
      ]
    },
    {
      "id": 390,
      "plugin": "Stoermelder-P1",
      "version": "1.10.0",
      "model": "Glue",
      "params": [
        {
          "id": 0,
          "value": 0.0
        },
        {
          "id": 1,
          "value": 0.0
        },
        {
          "id": 2,
          "value": 0.0
        },
        {
          "id": 3,
          "value": 0.0
        },
        {
          "id": 4,
          "value": 0.0
        }
      ],
      "leftModuleId": 393,
      "data": {
        "panelTheme": 0,
        "defaultSize": 16.0,
        "defaultWidth": 80.0,
        "defaultAngle": 0.0,
        "defaultOpacity": 1.0,
        "defaultColor": "#dcff46",
        "defaultFont": 0,
        "defaultFontColor": "#080808",
        "skewLabels": false,
        "labels": [
          {
            "moduleId": 82,
            "x": 34.7734375,
            "y": 11.2890625,
            "angle": 0.0,
            "skew": -0.616013587,
            "opacity": 1.0,
            "width": 80.0,
            "size": 16.0,
            "text": "Vibrato",
            "color": "#dcff46",
            "font": 0,
            "fontColor": "#080808"
          },
          {
            "moduleId": 392,
            "x": 6.6015625,
            "y": 238.128906,
            "angle": 0.0,
            "skew": 0.798143327,
            "opacity": 1.0,
            "width": 109.919914,
            "size": 14.9920044,
            "text": "v/oct gltch len",
            "color": "#dcff46",
            "font": 0,
            "fontColor": "#080808"
          },
          {
            "moduleId": 392,
            "x": 6.87695312,
            "y": 133.984375,
            "angle": 0.0,
            "skew": -3.47949481,
            "opacity": 1.0,
            "width": 107.999878,
            "size": 14.9920044,
            "text": "v/oct gltch len",
            "color": "#dcff46",
            "font": 0,
            "fontColor": "#080808"
          },
          {
            "moduleId": 389,
            "x": -13.0,
            "y": 142.855469,
            "angle": 0.0,
            "skew": 0.269978106,
            "opacity": 1.0,
            "width": 80.0,
            "size": 16.0,
            "text": "MATRIX81",
            "color": "#dcff46",
            "font": 0,
            "fontColor": "#080808"
          },
          {
            "moduleId": 392,
            "x": 15.6503906,
            "y": 7.3828125,
            "angle": 0.0,
            "skew": 1.68511558,
            "opacity": 1.0,
            "width": 122.400063,
            "size": 16.0,
            "text": "ES-8 Interface",
            "color": "#dcff46",
            "font": 0,
            "fontColor": "#080808"
          },
          {
            "moduleId": 392,
            "x": 15.8574219,
            "y": 24.03125,
            "angle": 0.0,
            "skew": 0.0848565772,
            "opacity": 1.0,
            "width": 122.400063,
            "size": 16.0,
            "text": "Shift + 3",
            "color": "#dcff46",
            "font": 0,
            "fontColor": "#080808"
          },
          {
            "moduleId": 631,
            "x": 37.9042969,
            "y": 2.62890625,
            "angle": 0.0,
            "skew": -5.70384073,
            "opacity": 1.0,
            "width": 122.400063,
            "size": 16.0,
            "text": "ES-8 Loopback",
            "color": "#dcff46",
            "font": 0,
            "fontColor": "#080808"
          },
          {
            "moduleId": 631,
            "x": 39.0909843,
            "y": 20.4648438,
            "angle": 0.0,
            "skew": -3.06641245,
            "opacity": 1.0,
            "width": 122.400063,
            "size": 16.0,
            "text": "Shift + 1",
            "color": "#dcff46",
            "font": 0,
            "fontColor": "#080808"
          },
          {
            "moduleId": 606,
            "x": 3.97851562,
            "y": 6.1953125,
            "angle": 0.0,
            "skew": 1.7543242,
            "opacity": 1.0,
            "width": 80.0,
            "size": 16.0,
            "text": "Rev 00",
            "color": "#dcff46",
            "font": 0,
            "fontColor": "#080808"
          },
          {
            "moduleId": 361,
            "x": 8.35546875,
            "y": 7.3828125,
            "angle": 0.0,
            "skew": -3.2297678,
            "opacity": 1.0,
            "width": 80.0,
            "size": 16.0,
            "text": "Rev 01",
            "color": "#dcff46",
            "font": 0,
            "fontColor": "#080808"
          }
        ]
      },
      "pos": [
        105,
        3
      ]
    },
    {
      "id": 392,
      "plugin": "Core",
      "version": "1.1.6",
      "model": "AudioInterface",
      "params": [],
      "leftModuleId": 442,
      "rightModuleId": 361,
      "data": {
        "audio": {
          "driver": 1,
          "deviceName": "hw:ES-8,0",
          "offset": 0,
          "maxChannels": 8,
          "sampleRate": 44100,
          "blockSize": 1024
        }
      },
      "pos": [
        123,
        2
      ]
    },
    {
      "id": 393,
      "plugin": "Stoermelder-P1",
      "version": "1.10.0",
      "model": "Goto",
      "params": [
        {
          "id": 0,
          "value": 0.0
        },
        {
          "id": 1,
          "value": 0.0
        },
        {
          "id": 2,
          "value": 0.0
        },
        {
          "id": 3,
          "value": 0.0
        },
        {
          "id": 4,
          "value": 0.0
        },
        {
          "id": 5,
          "value": 0.0
        },
        {
          "id": 6,
          "value": 0.0
        },
        {
          "id": 7,
          "value": 0.0
        },
        {
          "id": 8,
          "value": 0.0
        },
        {
          "id": 9,
          "value": 0.0
        }
      ],
      "leftModuleId": 292,
      "rightModuleId": 390,
      "data": {
        "panelTheme": 0,
        "triggerMode": 0,
        "smoothTransition": false,
        "centerModule": true,
        "ignoreZoom": false,
        "jumpPoints": [
          {
            "moduleId": -1,
            "x": 30513.3809,
            "y": 39922.4766,
            "zoom": 0.0
          },
          {
            "moduleId": -1,
            "x": 31986.4648,
            "y": 39544.3828,
            "zoom": -0.25
          },
          {
            "moduleId": 392,
            "x": 32699.9902,
            "y": 39247.082,
            "zoom": -0.25
          },
          {
            "moduleId": -1,
            "x": 33647.2773,
            "y": 39336.9609,
            "zoom": -0.75
          },
          {
            "moduleId": -1,
            "x": 0.0,
            "y": 0.0,
            "zoom": 1.0
          },
          {
            "moduleId": -1,
            "x": 0.0,
            "y": 0.0,
            "zoom": 1.0
          },
          {
            "moduleId": -1,
            "x": 0.0,
            "y": 0.0,
            "zoom": 1.0
          },
          {
            "moduleId": -1,
            "x": 0.0,
            "y": 0.0,
            "zoom": 1.0
          },
          {
            "moduleId": -1,
            "x": 0.0,
            "y": 0.0,
            "zoom": 1.0
          },
          {
            "moduleId": -1,
            "x": 0.0,
            "y": 0.0,
            "zoom": 1.0
          }
        ]
      },
      "pos": [
        102,
        3
      ]
    },
    {
      "id": 400,
      "plugin": "CountModula",
      "version": "1.14.0",
      "model": "LightStrip",
      "params": [],
      "leftModuleId": 614,
      "rightModuleId": 607,
      "data": {
        "moduleVersion": 1,
        "color": [
          0.999000013,
          0.345000148,
          0.0
        ],
        "narrowMode": false,
        "theme": 0
      },
      "pos": [
        104,
        2
      ]
    },
    {
      "id": 401,
      "plugin": "CountModula",
      "version": "1.14.0",
      "model": "LightStrip",
      "params": [],
      "rightModuleId": 667,
      "data": {
        "moduleVersion": 1,
        "color": [
          0.999000013,
          0.345000148,
          0.0
        ],
        "narrowMode": false,
        "theme": 0
      },
      "pos": [
        72,
        2
      ]
    },
    {
      "id": 442,
      "plugin": "Fundamental",
      "version": "1.4.0",
      "model": "Octave",
      "params": [
        {
          "id": 0,
          "value": -1.0
        }
      ],
      "leftModuleId": 389,
      "rightModuleId": 392,
      "pos": [
        120,
        2
      ]
    },
    {
      "id": 503,
      "plugin": "CountModula",
      "version": "1.14.0",
      "model": "LightStrip",
      "params": [],
      "data": {
        "moduleVersion": 1,
        "color": [
          0.608999729,
          0.0,
          0.0
        ],
        "narrowMode": false,
        "theme": 0
      },
      "pos": [
        257,
        3
      ]
    },
    {
      "id": 606,
      "plugin": "NYSTHI",
      "version": "1.0.17",
      "model": "HotTuna",
      "params": [
        {
          "id": 0,
          "value": 0.0
        },
        {
          "id": 1,
          "value": 0.0
        },
        {
          "id": 2,
          "value": 0.0
        },
        {
          "id": 3,
          "value": 0.0
        },
        {
          "id": 4,
          "value": 0.0
        },
        {
          "id": 5,
          "value": 0.0
        }
      ],
      "leftModuleId": 361,
      "rightModuleId": 352,
      "data": {
        "m_use_DOREMI": false,
        "m_low_power_mode": false,
        "m_use_bemolle": false
      },
      "pos": [
        139,
        2
      ]
    },
    {
      "id": 389,
      "plugin": "Bogaudio",
      "version": "1.1.37",
      "model": "Bogaudio-Matrix81",
      "params": [
        {
          "id": 0,
          "value": 1.0
        },
        {
          "id": 1,
          "value": 1.0
        },
        {
          "id": 2,
          "value": 0.315999568
        },
        {
          "id": 3,
          "value": 1.0
        },
        {
          "id": 4,
          "value": 0.0
        },
        {
          "id": 5,
          "value": 0.0
        },
        {
          "id": 6,
          "value": 0.0
        },
        {
          "id": 7,
          "value": 0.0
        }
      ],
      "leftModuleId": 608,
      "rightModuleId": 442,
      "data": {
        "clipping_mode": 1,
        "input_gain_db": 0.0,
        "sum": true,
        "indicator_knobs": true
      },
      "pos": [
        114,
        2
      ]
    },
    {
      "id": 607,
      "plugin": "Bogaudio",
      "version": "1.1.37",
      "model": "Bogaudio-Matrix81",
      "params": [
        {
          "id": 0,
          "value": 1.0
        },
        {
          "id": 1,
          "value": 1.0
        },
        {
          "id": 2,
          "value": 0.0
        },
        {
          "id": 3,
          "value": 1.0
        },
        {
          "id": 4,
          "value": 0.0
        },
        {
          "id": 5,
          "value": 0.0
        },
        {
          "id": 6,
          "value": 0.0
        },
        {
          "id": 7,
          "value": 0.0
        }
      ],
      "leftModuleId": 400,
      "rightModuleId": 608,
      "data": {
        "clipping_mode": 1,
        "input_gain_db": 0.0,
        "sum": true,
        "indicator_knobs": true
      },
      "pos": [
        105,
        2
      ]
    },
    {
      "id": 608,
      "plugin": "Fundamental",
      "version": "1.4.0",
      "model": "Octave",
      "params": [
        {
          "id": 0,
          "value": -1.0
        }
      ],
      "leftModuleId": 607,
      "rightModuleId": 389,
      "pos": [
        111,
        2
      ]
    },
    {
      "id": 614,
      "plugin": "ML_modules",
      "version": "1.1.3",
      "model": "VoltMeter",
      "params": [],
      "leftModuleId": 631,
      "rightModuleId": 400,
      "pos": [
        96,
        2
      ]
    },
    {
      "id": 625,
      "plugin": "CountModula",
      "version": "1.14.0",
      "model": "SRFlipFlop",
      "params": [],
      "leftModuleId": 626,
      "rightModuleId": 647,
      "data": {
        "moduleVersion": 1,
        "QStates": [
          true,
          false
        ],
        "NQStates": [
          false,
          true
        ],
        "theme": 0
      },
      "pos": [
        53,
        2
      ]
    },
    {
      "id": 626,
      "plugin": "Bogaudio",
      "version": "1.1.37",
      "model": "Bogaudio-SampleHold",
      "params": [
        {
          "id": 0,
          "value": 0.0
        },
        {
          "id": 1,
          "value": 0.0
        },
        {
          "id": 2,
          "value": 0.0
        },
        {
          "id": 3,
          "value": 0.0
        },
        {
          "id": 4,
          "value": 0.0
        },
        {
          "id": 5,
          "value": 0.0
        }
      ],
      "leftModuleId": 627,
      "rightModuleId": 625,
      "data": {
        "poly_input": 0,
        "noise_type": 0,
        "range_offset": 1.0,
        "range_scale": 5.0
      },
      "pos": [
        50,
        2
      ]
    },
    {
      "id": 627,
      "plugin": "Befaco",
      "version": "1.0.1",
      "model": "DualAtenuverter",
      "params": [
        {
          "id": 0,
          "value": 0.0
        },
        {
          "id": 1,
          "value": 0.0
        },
        {
          "id": 2,
          "value": 1.0
        },
        {
          "id": 3,
          "value": 0.0
        }
      ],
      "leftModuleId": 636,
      "rightModuleId": 626,
      "pos": [
        45,
        2
      ]
    },
    {
      "id": 628,
      "plugin": "Bogaudio",
      "version": "1.1.37",
      "model": "Bogaudio-LFO",
      "params": [
        {
          "id": 0,
          "value": -0.0313620567
        },
        {
          "id": 1,
          "value": 0.0
        },
        {
          "id": 2,
          "value": 0.0
        },
        {
          "id": 3,
          "value": 0.0
        },
        {
          "id": 4,
          "value": 0.0
        },
        {
          "id": 5,
          "value": 1.0
        },
        {
          "id": 6,
          "value": 0.0
        }
      ],
      "leftModuleId": 22,
      "rightModuleId": 629,
      "data": {
        "offset_cv_to_smoothing": false
      },
      "pos": [
        155,
        3
      ]
    },
    {
      "id": 629,
      "plugin": "Bogaudio",
      "version": "1.1.37",
      "model": "Bogaudio-AnalyzerXL",
      "params": [],
      "leftModuleId": 628,
      "data": {
        "frequency_plot": "log",
        "range": 0.0,
        "amplitude_plot": "decibels_140",
        "smooth": 0.5,
        "quality": "ultra",
        "window": "kaiser"
      },
      "pos": [
        165,
        3
      ]
    },
    {
      "id": 630,
      "plugin": "Fundamental",
      "version": "1.4.0",
      "model": "Scope",
      "params": [
        {
          "id": 0,
          "value": 3.0
        },
        {
          "id": 1,
          "value": 0.0
        },
        {
          "id": 2,
          "value": 0.0
        },
        {
          "id": 3,
          "value": -2.27999973
        },
        {
          "id": 4,
          "value": 14.1849937
        },
        {
          "id": 5,
          "value": 0.0
        },
        {
          "id": 6,
          "value": 0.180000097
        },
        {
          "id": 7,
          "value": 0.0
        }
      ],
      "data": {
        "lissajous": 0,
        "external": 0
      },
      "pos": [
        202,
        2
      ]
    },
    {
      "id": 631,
      "plugin": "Fundamental",
      "version": "1.4.0",
      "model": "Scope",
      "params": [
        {
          "id": 0,
          "value": 0.0
        },
        {
          "id": 1,
          "value": 0.0
        },
        {
          "id": 2,
          "value": 0.0
        },
        {
          "id": 3,
          "value": 0.0
        },
        {
          "id": 4,
          "value": 11.1849985
        },
        {
          "id": 5,
          "value": 0.0
        },
        {
          "id": 6,
          "value": 1.73999977
        },
        {
          "id": 7,
          "value": 0.0
        }
      ],
      "leftModuleId": 667,
      "rightModuleId": 614,
      "data": {
        "lissajous": 0,
        "external": 1
      },
      "pos": [
        83,
        2
      ]
    },
    {
      "id": 633,
      "plugin": "NYSTHI",
      "version": "1.0.17",
      "model": "Spectre",
      "params": [
        {
          "id": 0,
          "value": 0.56400007
        },
        {
          "id": 1,
          "value": 0.0
        },
        {
          "id": 2,
          "value": 0.0
        },
        {
          "id": 3,
          "value": 0.900999904
        }
      ],
      "rightModuleId": 675,
      "data": {
        "m_windowing_function": 1,
        "m_bgnd_style": 0,
        "m_color_style": 0,
        "m_scroll_mode": 1,
        "m_fft_active": true
      },
      "pos": [
        167,
        4
      ]
    },
    {
      "id": 636,
      "plugin": "Bogaudio",
      "version": "1.1.37",
      "model": "Bogaudio-SampleHold",
      "params": [
        {
          "id": 0,
          "value": 0.0
        },
        {
          "id": 1,
          "value": 0.0
        },
        {
          "id": 2,
          "value": 0.0
        },
        {
          "id": 3,
          "value": 0.0
        },
        {
          "id": 4,
          "value": 0.0
        },
        {
          "id": 5,
          "value": 0.0
        }
      ],
      "leftModuleId": 336,
      "rightModuleId": 627,
      "data": {
        "poly_input": 0,
        "noise_type": 0,
        "range_offset": 0.0,
        "range_scale": 5.0
      },
      "pos": [
        42,
        2
      ]
    },
    {
      "id": 637,
      "plugin": "Bogaudio",
      "version": "1.1.37",
      "model": "Bogaudio-LFO",
      "params": [
        {
          "id": 0,
          "value": 1.58710074
        },
        {
          "id": 1,
          "value": 0.0
        },
        {
          "id": 2,
          "value": 0.0
        },
        {
          "id": 3,
          "value": 0.0
        },
        {
          "id": 4,
          "value": 1.0
        },
        {
          "id": 5,
          "value": 1.0
        },
        {
          "id": 6,
          "value": 0.0
        }
      ],
      "leftModuleId": 643,
      "rightModuleId": 641,
      "data": {
        "offset_cv_to_smoothing": false
      },
      "pos": [
        52,
        1
      ]
    },
    {
      "id": 638,
      "plugin": "Bogaudio",
      "version": "1.1.37",
      "model": "Bogaudio-SampleHold",
      "params": [
        {
          "id": 0,
          "value": 0.0
        },
        {
          "id": 1,
          "value": 0.0
        },
        {
          "id": 2,
          "value": 0.0
        },
        {
          "id": 3,
          "value": 0.0
        },
        {
          "id": 4,
          "value": 0.0
        },
        {
          "id": 5,
          "value": 0.0
        }
      ],
      "leftModuleId": 684,
      "rightModuleId": 650,
      "data": {
        "poly_input": 0,
        "noise_type": 0,
        "range_offset": 0.0,
        "range_scale": 1.0
      },
      "pos": [
        43,
        0
      ]
    },
    {
      "id": 641,
      "plugin": "Bogaudio",
      "version": "1.1.37",
      "model": "Bogaudio-LFO",
      "params": [
        {
          "id": 0,
          "value": 0.586876392
        },
        {
          "id": 1,
          "value": 0.0
        },
        {
          "id": 2,
          "value": 0.0
        },
        {
          "id": 3,
          "value": 0.0
        },
        {
          "id": 4,
          "value": 1.0
        },
        {
          "id": 5,
          "value": 1.0
        },
        {
          "id": 6,
          "value": 0.0
        }
      ],
      "leftModuleId": 637,
      "data": {
        "offset_cv_to_smoothing": false
      },
      "pos": [
        62,
        1
      ]
    },
    {
      "id": 642,
      "plugin": "Bogaudio",
      "version": "1.1.37",
      "model": "Bogaudio-LLPG",
      "params": [
        {
          "id": 0,
          "value": 0.626000226
        },
        {
          "id": 1,
          "value": -0.25
        },
        {
          "id": 2,
          "value": 0.0
        },
        {
          "id": 3,
          "value": 0.0
        }
      ],
      "data": {},
      "pos": [
        79,
        1
      ]
    },
    {
      "id": 643,
      "plugin": "Bogaudio",
      "version": "1.1.37",
      "model": "Bogaudio-LFO",
      "params": [
        {
          "id": 0,
          "value": 1.58687639
        },
        {
          "id": 1,
          "value": 0.0
        },
        {
          "id": 2,
          "value": 0.0
        },
        {
          "id": 3,
          "value": 0.0
        },
        {
          "id": 4,
          "value": 1.0
        },
        {
          "id": 5,
          "value": 1.0
        },
        {
          "id": 6,
          "value": 0.0
        }
      ],
      "rightModuleId": 637,
      "data": {
        "offset_cv_to_smoothing": false
      },
      "pos": [
        42,
        1
      ]
    },
    {
      "id": 644,
      "plugin": "squinkylabs-plug1",
      "version": "1.0.20",
      "model": "squinkylabs-mix4",
      "params": [
        {
          "id": 0,
          "value": 0.789999902
        },
        {
          "id": 1,
          "value": 0.436499923
        },
        {
          "id": 2,
          "value": 0.391500175
        },
        {
          "id": 3,
          "value": 0.133000046
        },
        {
          "id": 4,
          "value": 0.0
        },
        {
          "id": 5,
          "value": 0.0
        },
        {
          "id": 6,
          "value": 0.0
        },
        {
          "id": 7,
          "value": -0.0659999996
        },
        {
          "id": 8,
          "value": 0.0
        },
        {
          "id": 9,
          "value": 0.0
        },
        {
          "id": 10,
          "value": 0.0
        },
        {
          "id": 11,
          "value": 0.0
        },
        {
          "id": 12,
          "value": 0.0
        },
        {
          "id": 13,
          "value": 0.0
        },
        {
          "id": 14,
          "value": 0.0
        },
        {
          "id": 15,
          "value": 0.0
        },
        {
          "id": 16,
          "value": 0.0
        },
        {
          "id": 17,
          "value": 0.26850006
        },
        {
          "id": 18,
          "value": 0.00449999981
        },
        {
          "id": 19,
          "value": 0.0
        },
        {
          "id": 20,
          "value": 0.00600000005
        },
        {
          "id": 21,
          "value": 0.0
        },
        {
          "id": 22,
          "value": 0.0
        },
        {
          "id": 23,
          "value": 0.0
        },
        {
          "id": 24,
          "value": 0.367500037
        },
        {
          "id": 25,
          "value": 0.0
        },
        {
          "id": 26,
          "value": 0.0
        },
        {
          "id": 27,
          "value": 0.0
        },
        {
          "id": 28,
          "value": 0.0
        },
        {
          "id": 29,
          "value": 1.0
        },
        {
          "id": 30,
          "value": 0.0
        },
        {
          "id": 31,
          "value": 0.0
        }
      ],
      "leftModuleId": 119,
      "rightModuleId": 52,
      "pos": [
        118,
        3
      ]
    },
    {
      "id": 646,
      "plugin": "Fundamental",
      "version": "1.4.0",
      "model": "Unity",
      "params": [
        {
          "id": 0,
          "value": 0.0
        },
        {
          "id": 1,
          "value": 0.0
        }
      ],
      "leftModuleId": 648,
      "rightModuleId": 655,
      "data": {
        "merge": false
      },
      "pos": [
        127,
        1
      ]
    },
    {
      "id": 647,
      "plugin": "Bogaudio",
      "version": "1.1.37",
      "model": "Bogaudio-SampleHold",
      "params": [
        {
          "id": 0,
          "value": 0.0
        },
        {
          "id": 1,
          "value": 0.0
        },
        {
          "id": 2,
          "value": 0.0
        },
        {
          "id": 3,
          "value": 0.0
        },
        {
          "id": 4,
          "value": 0.0
        },
        {
          "id": 5,
          "value": 0.0
        }
      ],
      "leftModuleId": 625,
      "data": {
        "poly_input": 0,
        "noise_type": 0,
        "range_offset": 0.0,
        "range_scale": 5.0
      },
      "pos": [
        61,
        2
      ]
    },
    {
      "id": 648,
      "plugin": "CountModula",
      "version": "1.14.0",
      "model": "TriggerSequencer8",
      "params": [
        {
          "id": 0,
          "value": 2.0
        },
        {
          "id": 1,
          "value": 1.0
        },
        {
          "id": 2,
          "value": 1.0
        },
        {
          "id": 3,
          "value": 1.0
        },
        {
          "id": 4,
          "value": 2.0
        },
        {
          "id": 5,
          "value": 1.0
        },
        {
          "id": 6,
          "value": 1.0
        },
        {
          "id": 7,
          "value": 1.0
        },
        {
          "id": 8,
          "value": 1.0
        },
        {
          "id": 9,
          "value": 1.0
        },
        {
          "id": 10,
          "value": 1.0
        },
        {
          "id": 11,
          "value": 1.0
        },
        {
          "id": 12,
          "value": 1.0
        },
        {
          "id": 13,
          "value": 1.0
        },
        {
          "id": 14,
          "value": 1.0
        },
        {
          "id": 15,
          "value": 1.0
        },
        {
          "id": 16,
          "value": 1.0
        },
        {
          "id": 17,
          "value": 1.0
        },
        {
          "id": 18,
          "value": 1.0
        },
        {
          "id": 19,
          "value": 1.0
        },
        {
          "id": 20,
          "value": 1.0
        },
        {
          "id": 21,
          "value": 1.0
        },
        {
          "id": 22,
          "value": 1.0
        },
        {
          "id": 23,
          "value": 1.0
        },
        {
          "id": 24,
          "value": 1.0
        },
        {
          "id": 25,
          "value": 1.0
        },
        {
          "id": 26,
          "value": 1.0
        },
        {
          "id": 27,
          "value": 1.0
        },
        {
          "id": 28,
          "value": 1.0
        },
        {
          "id": 29,
          "value": 1.0
        },
        {
          "id": 30,
          "value": 1.0
        },
        {
          "id": 31,
          "value": 1.0
        },
        {
          "id": 32,
          "value": 7.0
        },
        {
          "id": 33,
          "value": 8.0
        },
        {
          "id": 34,
          "value": 8.0
        },
        {
          "id": 35,
          "value": 8.0
        },
        {
          "id": 36,
          "value": 0.0
        },
        {
          "id": 37,
          "value": 0.0
        },
        {
          "id": 38,
          "value": 0.0
        },
        {
          "id": 39,
          "value": 0.0
        },
        {
          "id": 40,
          "value": 0.0
        },
        {
          "id": 41,
          "value": 0.0
        },
        {
          "id": 42,
          "value": 0.0
        },
        {
          "id": 43,
          "value": 0.0
        },
        {
          "id": 44,
          "value": 0.0
        },
        {
          "id": 45,
          "value": 0.0
        },
        {
          "id": 46,
          "value": 0.0
        },
        {
          "id": 47,
          "value": 0.0
        }
      ],
      "rightModuleId": 646,
      "data": {
        "moduleVersion": 1.10000002,
        "currentStep": [
          5,
          1,
          1,
          1
        ],
        "clockState": [
          true,
          true,
          true,
          true
        ],
        "runState": [
          true,
          true,
          true,
          true
        ],
        "theme": 0
      },
      "pos": [
        93,
        1
      ]
    },
    {
      "id": 649,
      "plugin": "MockbaModular",
      "version": "1.2.1",
      "model": "Dividah",
      "params": [],
      "pos": [
        88,
        1
      ]
    },
    {
      "id": 650,
      "plugin": "Instruo",
      "version": "1.1.0",
      "model": "harmonaig",
      "params": [
        {
          "id": 0,
          "value": 1.0
        },
        {
          "id": 1,
          "value": 1.0
        },
        {
          "id": 2,
          "value": 0.0
        },
        {
          "id": 3,
          "value": 1.0
        },
        {
          "id": 4,
          "value": 0.0
        },
        {
          "id": 5,
          "value": 1.0
        },
        {
          "id": 6,
          "value": 1.0
        },
        {
          "id": 7,
          "value": 0.0
        },
        {
          "id": 8,
          "value": 1.0
        },
        {
          "id": 9,
          "value": 0.0
        },
        {
          "id": 10,
          "value": 1.0
        },
        {
          "id": 11,
          "value": 0.0
        },
        {
          "id": 12,
          "value": 2.42400122
        },
        {
          "id": 13,
          "value": 0.0
        },
        {
          "id": 14,
          "value": 0.0
        },
        {
          "id": 15,
          "value": 1.10000002
        },
        {
          "id": 16,
          "value": 0.0
        },
        {
          "id": 17,
          "value": 0.0
        },
        {
          "id": 18,
          "value": 0.0
        },
        {
          "id": 19,
          "value": 0.0
        },
        {
          "id": 20,
          "value": 0.0
        },
        {
          "id": 21,
          "value": 0.0
        },
        {
          "id": 22,
          "value": 0.0
        },
        {
          "id": 23,
          "value": 0.0
        },
        {
          "id": 24,
          "value": 1.0
        },
        {
          "id": 25,
          "value": 1.0
        },
        {
          "id": 26,
          "value": 0.0
        },
        {
          "id": 27,
          "value": 1.0
        },
        {
          "id": 28,
          "value": 0.0
        },
        {
          "id": 29,
          "value": 1.0
        },
        {
          "id": 30,
          "value": 1.0
        },
        {
          "id": 31,
          "value": 0.0
        },
        {
          "id": 32,
          "value": 1.0
        },
        {
          "id": 33,
          "value": 0.0
        },
        {
          "id": 34,
          "value": 1.0
        },
        {
          "id": 35,
          "value": 0.0
        },
        {
          "id": 36,
          "value": 1.0
        },
        {
          "id": 37,
          "value": 0.0
        },
        {
          "id": 38,
          "value": 0.0
        },
        {
          "id": 39,
          "value": 0.0
        },
        {
          "id": 40,
          "value": 0.0
        },
        {
          "id": 41,
          "value": 0.0
        },
        {
          "id": 42,
          "value": 1.0
        },
        {
          "id": 43,
          "value": 1.0
        },
        {
          "id": 44,
          "value": 1.0
        },
        {
          "id": 45,
          "value": 1.0
        }
      ],
      "leftModuleId": 638,
      "rightModuleId": 652,
      "data": {
        "mode": 0
      },
      "pos": [
        46,
        0
      ]
    },
    {
      "id": 651,
      "plugin": "Bogaudio",
      "version": "1.1.37",
      "model": "Bogaudio-Arp",
      "params": [
        {
          "id": 0,
          "value": 5.0
        },
        {
          "id": 1,
          "value": 0.5
        },
        {
          "id": 2,
          "value": 0.0
        }
      ],
      "leftModuleId": 652,
      "data": {
        "notes_immediate": false,
        "fixed_gate": false
      },
      "pos": [
        69,
        0
      ]
    },
    {
      "id": 652,
      "plugin": "Fundamental",
      "version": "1.4.0",
      "model": "Merge",
      "params": [],
      "leftModuleId": 650,
      "rightModuleId": 651,
      "data": {
        "channels": -1
      },
      "pos": [
        64,
        0
      ]
    },
    {
      "id": 653,
      "plugin": "Fundamental",
      "version": "1.4.0",
      "model": "Scope",
      "params": [
        {
          "id": 0,
          "value": 2.0
        },
        {
          "id": 1,
          "value": 0.0
        },
        {
          "id": 2,
          "value": 2.0
        },
        {
          "id": 3,
          "value": 0.0
        },
        {
          "id": 4,
          "value": 16.0
        },
        {
          "id": 5,
          "value": 0.0
        },
        {
          "id": 6,
          "value": 0.689999819
        },
        {
          "id": 7,
          "value": 0.0
        }
      ],
      "data": {
        "lissajous": 0,
        "external": 0
      },
      "pos": [
        85,
        0
      ]
    },
    {
      "id": 655,
      "plugin": "TechTechTechnologies",
      "version": "1.0.0",
      "model": "Polyphemus2",
      "params": [
        {
          "id": 0,
          "value": 0.5
        },
        {
          "id": 1,
          "value": 0.5
        },
        {
          "id": 2,
          "value": 0.5
        },
        {
          "id": 3,
          "value": 0.0
        },
        {
          "id": 4,
          "value": 0.0
        },
        {
          "id": 5,
          "value": 0.0
        },
        {
          "id": 6,
          "value": 0.0
        },
        {
          "id": 7,
          "value": 0.0
        },
        {
          "id": 8,
          "value": 1.0
        },
        {
          "id": 9,
          "value": 1.0
        },
        {
          "id": 10,
          "value": 1.0
        },
        {
          "id": 11,
          "value": 1.0
        },
        {
          "id": 12,
          "value": 9.0
        },
        {
          "id": 13,
          "value": 9.0
        },
        {
          "id": 14,
          "value": 9.0
        },
        {
          "id": 15,
          "value": 9.0
        },
        {
          "id": 16,
          "value": 0.5
        },
        {
          "id": 17,
          "value": 0.5
        },
        {
          "id": 18,
          "value": 0.5
        },
        {
          "id": 19,
          "value": 0.5
        },
        {
          "id": 20,
          "value": 0.0
        },
        {
          "id": 21,
          "value": 0.0
        },
        {
          "id": 22,
          "value": 0.0
        },
        {
          "id": 23,
          "value": 0.0
        }
      ],
      "leftModuleId": 646,
      "pos": [
        133,
        1
      ]
    },
    {
      "id": 656,
      "plugin": "TechTechTechnologies",
      "version": "1.0.0",
      "model": "Odysseus",
      "params": [
        {
          "id": 0,
          "value": 0.5
        },
        {
          "id": 1,
          "value": 0.5
        },
        {
          "id": 2,
          "value": 0.904499829
        },
        {
          "id": 3,
          "value": 0.0
        },
        {
          "id": 4,
          "value": 0.533500552
        },
        {
          "id": 5,
          "value": 1.0
        },
        {
          "id": 6,
          "value": 0.0
        },
        {
          "id": 7,
          "value": 0.0
        },
        {
          "id": 8,
          "value": 0.0
        },
        {
          "id": 9,
          "value": 0.0
        },
        {
          "id": 10,
          "value": 0.0
        }
      ],
      "rightModuleId": 657,
      "pos": [
        101,
        0
      ]
    },
    {
      "id": 657,
      "plugin": "Fundamental",
      "version": "1.4.0",
      "model": "Scope",
      "params": [
        {
          "id": 0,
          "value": 0.0
        },
        {
          "id": 1,
          "value": 0.0
        },
        {
          "id": 2,
          "value": 0.0
        },
        {
          "id": 3,
          "value": 0.0
        },
        {
          "id": 4,
          "value": 6.01499987
        },
        {
          "id": 5,
          "value": 0.0
        },
        {
          "id": 6,
          "value": 0.689999819
        },
        {
          "id": 7,
          "value": 0.0
        }
      ],
      "leftModuleId": 656,
      "rightModuleId": 658,
      "data": {
        "lissajous": 0,
        "external": 0
      },
      "pos": [
        111,
        0
      ]
    },
    {
      "id": 658,
      "plugin": "Befaco",
      "version": "1.0.1",
      "model": "DualAtenuverter",
      "params": [
        {
          "id": 0,
          "value": 0.0
        },
        {
          "id": 1,
          "value": 0.0
        },
        {
          "id": 2,
          "value": 0.235000148
        },
        {
          "id": 3,
          "value": 0.0
        }
      ],
      "leftModuleId": 657,
      "pos": [
        124,
        0
      ]
    },
    {
      "id": 660,
      "plugin": "Bogaudio",
      "version": "1.1.37",
      "model": "Bogaudio-Mix1",
      "params": [
        {
          "id": 0,
          "value": 1.0
        },
        {
          "id": 1,
          "value": 0.0
        }
      ],
      "leftModuleId": 662,
      "data": {},
      "pos": [
        174,
        1
      ]
    },
    {
      "id": 661,
      "plugin": "CountModula",
      "version": "1.14.0",
      "model": "Rectifier",
      "params": [
        {
          "id": 0,
          "value": 0.0
        },
        {
          "id": 1,
          "value": 0.0
        }
      ],
      "data": {
        "moduleVersion": 1,
        "theme": 0
      },
      "pos": [
        157,
        0
      ]
    },
    {
      "id": 662,
      "plugin": "Bogaudio",
      "version": "1.1.37",
      "model": "Bogaudio-Mix1",
      "params": [
        {
          "id": 0,
          "value": 0.895000756
        },
        {
          "id": 1,
          "value": 0.0
        }
      ],
      "rightModuleId": 660,
      "data": {},
      "pos": [
        171,
        1
      ]
    },
    {
      "id": 667,
      "plugin": "TechTechTechnologies",
      "version": "1.0.0",
      "model": "LatComp",
      "params": [
        {
          "id": 0,
          "value": 0.0
        }
      ],
      "leftModuleId": 401,
      "rightModuleId": 631,
      "pos": [
        73,
        2
      ]
    },
    {
      "id": 674,
      "plugin": "Core",
      "version": "1.1.6",
      "model": "Notes",
      "params": [],
      "text": "/home/wlaub/.Rack/patches/filename.vcv\n/media/wlaub/Archive/Patches\n/home/wlaub/\n/media/wlaub/Archive/Patches/prometheusIIrev01bringup_musescore_202102121736_1U.000.mp3\n",
      "pos": [
        10,
        1
      ]
    },
    {
      "id": 680,
      "plugin": "TechTechTechnologies",
      "version": "1.0.0",
      "model": "MetadataFiles",
      "params": [
        {
          "id": 0,
          "value": 0.0
        },
        {
          "id": 1,
          "value": 0.0
        }
      ],
      "leftModuleId": 297,
      "rightModuleId": 681,
      "files": "",
      "dir": "/home/wlaub/.Rack",
      "file_type": "image",
      "file_type_id": 0,
      "pos": [
        119,
        5
      ]
    },
    {
      "id": 681,
      "plugin": "TechTechTechnologies",
      "version": "1.0.0",
      "model": "MetadataFiles",
      "params": [
        {
          "id": 0,
          "value": 0.0
        },
        {
          "id": 1,
          "value": 0.0
        }
      ],
      "leftModuleId": 680,
      "rightModuleId": 682,
      "files": "\n",
      "dir": "/media/wlaub/Archive/Patches",
      "file_type": "file",
      "file_type_id": 1,
      "pos": [
        149,
        5
      ]
    },
    {
      "id": 682,
      "plugin": "TechTechTechnologies",
      "version": "1.0.0",
      "model": "MetadataFiles",
      "params": [
        {
          "id": 0,
          "value": 0.0
        },
        {
          "id": 1,
          "value": 0.0
        }
      ],
      "leftModuleId": 681,
      "files": "/home/wlaub/RackDev/plugins/vcv/README.md\n/home/wlaub/projects/afum/vcvmon.py",
      "dir": "/home/wlaub/projects/afum",
      "file_type": "git",
      "file_type_id": 2,
      "pos": [
        179,
        5
      ]
    },
    {
      "id": 675,
      "plugin": "TechTechTechnologies",
      "version": "1.0.0",
      "model": "MetadataMain",
      "params": [
        {
          "id": 0,
          "value": 0.0
        },
        {
          "id": 1,
          "value": 0.0
        },
        {
          "id": 2,
          "value": 0.0
        }
      ],
      "leftModuleId": 633,
      "rightModuleId": 683,
      "description": "Small patch for testing the recording monitor and automated upload system",
      "tags": "prometheus II, demo",
      "authors": "Roots of Unity",
      "override_time": "2020-04-20",
      "trigger_time": 1623369017,
      "time_source": "file",
      "pos": [
        185,
        4
      ]
    },
    {
      "id": 683,
      "plugin": "CountModula",
      "version": "1.14.0",
      "model": "SRFlipFlop",
      "params": [],
      "leftModuleId": 675,
      "data": {
        "moduleVersion": 1,
        "QStates": [
          false,
          false
        ],
        "NQStates": [
          true,
          true
        ],
        "theme": 0
      },
      "pos": [
        205,
        4
      ]
    },
    {
      "id": 684,
      "plugin": "Bogaudio",
      "version": "1.1.37",
      "model": "Bogaudio-AddrSeq",
      "params": [
        {
          "id": 0,
          "value": 6.91617632
        },
        {
          "id": 1,
          "value": 1.0
        },
        {
          "id": 2,
          "value": 0.0
        },
        {
          "id": 3,
          "value": 0.00599999214
        },
        {
          "id": 4,
          "value": 0.493583828
        },
        {
          "id": 5,
          "value": 0.430586308
        },
        {
          "id": 6,
          "value": 0.674868643
        },
        {
          "id": 7,
          "value": 0.504170239
        },
        {
          "id": 8,
          "value": 0.191947877
        },
        {
          "id": 9,
          "value": 0.113149405
        },
        {
          "id": 10,
          "value": -0.796517611
        }
      ],
      "leftModuleId": 685,
      "rightModuleId": 638,
      "data": {
        "poly_input": 0,
        "select_on_clock": false,
        "triggered_select": false,
        "reverse_on_negative_clock": false,
        "range_offset": 0.0,
        "range_scale": 1.0
      },
      "pos": [
        37,
        0
      ]
    },
    {
      "id": 685,
      "plugin": "Bogaudio",
      "version": "1.1.37",
      "model": "Bogaudio-Manual",
      "params": [
        {
          "id": 0,
          "value": 0.0
        }
      ],
      "rightModuleId": 684,
      "data": {
        "triggerOnLoad": false,
        "shouldTriggerOnLoad": true,
        "output_scale": 1.0
      },
      "pos": [
        34,
        0
      ]
    },
    {
      "id": 686,
      "plugin": "Bogaudio",
      "version": "1.1.37",
      "model": "Bogaudio-VCO",
      "params": [
        {
          "id": 0,
          "value": 0.0
        },
        {
          "id": 1,
          "value": 0.0
        },
        {
          "id": 2,
          "value": 0.0
        },
        {
          "id": 3,
          "value": 0.0
        },
        {
          "id": 4,
          "value": 0.0
        },
        {
          "id": 5,
          "value": 1.0
        },
        {
          "id": 6,
          "value": 0.0
        }
      ],
      "leftModuleId": 687,
      "rightModuleId": 292,
      "data": {
        "poly_input": 0
      },
      "pos": [
        91,
        3
      ]
    },
    {
      "id": 687,
      "plugin": "AudibleInstruments",
      "version": "1.5.0",
      "model": "Ripples",
      "params": [
        {
          "id": 0,
          "value": 0.0
        },
        {
          "id": 1,
          "value": 9.60877609
        },
        {
          "id": 2,
          "value": 0.0
        }
      ],
      "leftModuleId": 688,
      "rightModuleId": 686,
      "pos": [
        83,
        3
      ]
    },
    {
      "id": 688,
      "plugin": "Bogaudio",
      "version": "1.1.37",
      "model": "Bogaudio-LFO",
      "params": [
        {
          "id": 0,
          "value": 1.70413828
        },
        {
          "id": 1,
          "value": 0.0
        },
        {
          "id": 2,
          "value": 0.0
        },
        {
          "id": 3,
          "value": 0.0
        },
        {
          "id": 4,
          "value": 0.0
        },
        {
          "id": 5,
          "value": 1.0
        },
        {
          "id": 6,
          "value": 0.0
        }
      ],
      "rightModuleId": 687,
      "data": {
        "offset_cv_to_smoothing": false
      },
      "pos": [
        73,
        3
      ]
    }
  ],
  "cables": [
    {
      "id": 23,
      "outputModuleId": 22,
      "outputId": 8,
      "inputModuleId": 20,
      "inputId": 0,
      "color": "#0986ad"
    },
    {
      "id": 24,
      "outputModuleId": 22,
      "outputId": 9,
      "inputModuleId": 20,
      "inputId": 1,
      "color": "#c9b70e"
    },
    {
      "id": 25,
      "outputModuleId": 20,
      "outputId": 0,
      "inputModuleId": 22,
      "inputId": 18,
      "color": "#0c8e15"
    },
    {
      "id": 26,
      "outputModuleId": 20,
      "outputId": 1,
      "inputModuleId": 22,
      "inputId": 19,
      "color": "#c91847"
    },
    {
      "id": 41,
      "outputModuleId": 25,
      "outputId": 2,
      "inputModuleId": 1,
      "inputId": 0,
      "color": "#c91847"
    },
    {
      "id": 42,
      "outputModuleId": 25,
      "outputId": 3,
      "inputModuleId": 1,
      "inputId": 1,
      "color": "#0986ad"
    },
    {
      "id": 354,
      "outputModuleId": 22,
      "outputId": 0,
      "inputModuleId": 25,
      "inputId": 0,
      "color": "#0c8e15"
    },
    {
      "id": 355,
      "outputModuleId": 22,
      "outputId": 1,
      "inputModuleId": 25,
      "inputId": 1,
      "color": "#c91847"
    },
    {
      "id": 473,
      "outputModuleId": 82,
      "outputId": 4,
      "inputModuleId": 207,
      "inputId": 1,
      "color": "#0986ad"
    },
    {
      "id": 686,
      "outputModuleId": 22,
      "outputId": 6,
      "inputModuleId": 317,
      "inputId": 5,
      "color": "#c91847"
    },
    {
      "id": 687,
      "outputModuleId": 22,
      "outputId": 7,
      "inputModuleId": 317,
      "inputId": 6,
      "color": "#0986ad"
    },
    {
      "id": 688,
      "outputModuleId": 317,
      "outputId": 0,
      "inputModuleId": 22,
      "inputId": 16,
      "color": "#c9b70e"
    },
    {
      "id": 689,
      "outputModuleId": 317,
      "outputId": 1,
      "inputModuleId": 22,
      "inputId": 17,
      "color": "#0c8e15"
    },
    {
      "id": 779,
      "outputModuleId": 392,
      "outputId": 1,
      "inputModuleId": 361,
      "inputId": 0,
      "color": "#0c8e15"
    },
    {
      "id": 762,
      "outputModuleId": 392,
      "outputId": 1,
      "inputModuleId": 352,
      "inputId": 0,
      "color": "#0986ad"
    },
    {
      "id": 763,
      "outputModuleId": 392,
      "outputId": 1,
      "inputModuleId": 353,
      "inputId": 5,
      "color": "#0c8e15"
    },
    {
      "id": 1169,
      "outputModuleId": 392,
      "outputId": 0,
      "inputModuleId": 352,
      "inputId": 1,
      "color": "#0986ad"
    },
    {
      "id": 1170,
      "outputModuleId": 392,
      "outputId": 0,
      "inputModuleId": 353,
      "inputId": 6,
      "color": "#c9b70e"
    },
    {
      "id": 1220,
      "outputModuleId": 392,
      "outputId": 0,
      "inputModuleId": 606,
      "inputId": 0,
      "color": "#0986ad"
    },
    {
      "id": 1226,
      "outputModuleId": 608,
      "outputId": 0,
      "inputModuleId": 607,
      "inputId": 0,
      "color": "#c91847"
    },
    {
      "id": 1250,
      "outputModuleId": 442,
      "outputId": 0,
      "inputModuleId": 389,
      "inputId": 0,
      "color": "#0c8e15"
    },
    {
      "id": 1272,
      "outputModuleId": 608,
      "outputId": 0,
      "inputModuleId": 614,
      "inputId": 2,
      "color": "#c91847"
    },
    {
      "id": 1300,
      "outputModuleId": 627,
      "outputId": 0,
      "inputModuleId": 626,
      "inputId": 1,
      "color": "#0986ad"
    },
    {
      "id": 1303,
      "outputModuleId": 628,
      "outputId": 2,
      "inputModuleId": 317,
      "inputId": 2,
      "color": "#0986ad"
    },
    {
      "id": 1304,
      "outputModuleId": 207,
      "outputId": 0,
      "inputModuleId": 607,
      "inputId": 1,
      "color": "#c9b70e"
    },
    {
      "id": 1305,
      "outputModuleId": 607,
      "outputId": 0,
      "inputModuleId": 392,
      "inputId": 0,
      "color": "#0c8e15"
    },
    {
      "id": 1307,
      "outputModuleId": 207,
      "outputId": 0,
      "inputModuleId": 389,
      "inputId": 1,
      "color": "#0986ad"
    },
    {
      "id": 1312,
      "outputModuleId": 392,
      "outputId": 1,
      "inputModuleId": 629,
      "inputId": 5,
      "color": "#0c8e15"
    },
    {
      "id": 1323,
      "outputModuleId": 636,
      "outputId": 1,
      "inputModuleId": 627,
      "inputId": 1,
      "color": "#0c8e15"
    },
    {
      "id": 1324,
      "outputModuleId": 637,
      "outputId": 2,
      "inputModuleId": 636,
      "inputId": 2,
      "color": "#c91847"
    },
    {
      "id": 1325,
      "outputModuleId": 641,
      "outputId": 2,
      "inputModuleId": 638,
      "inputId": 2,
      "color": "#0986ad"
    },
    {
      "id": 1322,
      "outputModuleId": 392,
      "outputId": 1,
      "inputModuleId": 642,
      "inputId": 1,
      "color": "#c9b70e"
    },
    {
      "id": 1329,
      "outputModuleId": 637,
      "outputId": 2,
      "inputModuleId": 642,
      "inputId": 0,
      "color": "#0986ad"
    },
    {
      "id": 1330,
      "outputModuleId": 392,
      "outputId": 1,
      "inputModuleId": 633,
      "inputId": 0,
      "color": "#c9b70e"
    },
    {
      "id": 1301,
      "outputModuleId": 627,
      "outputId": 1,
      "inputModuleId": 392,
      "inputId": 6,
      "color": "#c9b70e"
    },
    {
      "id": 1309,
      "outputModuleId": 389,
      "outputId": 0,
      "inputModuleId": 392,
      "inputId": 4,
      "color": "#0c8e15"
    },
    {
      "id": 1336,
      "outputModuleId": 638,
      "outputId": 1,
      "inputModuleId": 647,
      "inputId": 3,
      "color": "#0986ad"
    },
    {
      "id": 1339,
      "outputModuleId": 648,
      "outputId": 0,
      "inputModuleId": 647,
      "inputId": 2,
      "color": "#0986ad"
    },
    {
      "id": 1338,
      "outputModuleId": 641,
      "outputId": 2,
      "inputModuleId": 649,
      "inputId": 0,
      "color": "#c91847"
    },
    {
      "id": 1340,
      "outputModuleId": 649,
      "outputId": 0,
      "inputModuleId": 648,
      "inputId": 4,
      "color": "#c9b70e"
    },
    {
      "id": 1341,
      "outputModuleId": 650,
      "outputId": 0,
      "inputModuleId": 652,
      "inputId": 0,
      "color": "#0c8e15"
    },
    {
      "id": 1342,
      "outputModuleId": 650,
      "outputId": 1,
      "inputModuleId": 652,
      "inputId": 1,
      "color": "#c91847"
    },
    {
      "id": 1343,
      "outputModuleId": 650,
      "outputId": 2,
      "inputModuleId": 652,
      "inputId": 2,
      "color": "#0986ad"
    },
    {
      "id": 1344,
      "outputModuleId": 650,
      "outputId": 3,
      "inputModuleId": 652,
      "inputId": 3,
      "color": "#c9b70e"
    },
    {
      "id": 1345,
      "outputModuleId": 652,
      "outputId": 0,
      "inputModuleId": 651,
      "inputId": 2,
      "color": "#0c8e15"
    },
    {
      "id": 1333,
      "outputModuleId": 650,
      "outputId": 0,
      "inputModuleId": 607,
      "inputId": 3,
      "color": "#0986ad"
    },
    {
      "id": 1347,
      "outputModuleId": 648,
      "outputId": 0,
      "inputModuleId": 638,
      "inputId": 0,
      "color": "#0986ad"
    },
    {
      "id": 1327,
      "outputModuleId": 651,
      "outputId": 0,
      "inputModuleId": 389,
      "inputId": 3,
      "color": "#0c8e15"
    },
    {
      "id": 1349,
      "outputModuleId": 651,
      "outputId": 0,
      "inputModuleId": 653,
      "inputId": 0,
      "color": "#0c8e15"
    },
    {
      "id": 1346,
      "outputModuleId": 641,
      "outputId": 2,
      "inputModuleId": 651,
      "inputId": 0,
      "color": "#c91847"
    },
    {
      "id": 1352,
      "outputModuleId": 652,
      "outputId": 0,
      "inputModuleId": 653,
      "inputId": 1,
      "color": "#c9b70e"
    },
    {
      "id": 1354,
      "outputModuleId": 641,
      "outputId": 2,
      "inputModuleId": 651,
      "inputId": 3,
      "color": "#0986ad"
    },
    {
      "id": 1355,
      "outputModuleId": 607,
      "outputId": 0,
      "inputModuleId": 655,
      "inputId": 16,
      "color": "#c91847"
    },
    {
      "id": 1357,
      "outputModuleId": 655,
      "outputId": 0,
      "inputModuleId": 655,
      "inputId": 8,
      "color": "#0c8e15"
    },
    {
      "id": 1358,
      "outputModuleId": 655,
      "outputId": 4,
      "inputModuleId": 655,
      "inputId": 12,
      "color": "#c91847"
    },
    {
      "id": 1332,
      "outputModuleId": 392,
      "outputId": 0,
      "inputModuleId": 655,
      "inputId": 4,
      "color": "#c91847"
    },
    {
      "id": 1359,
      "outputModuleId": 655,
      "outputId": 8,
      "inputModuleId": 644,
      "inputId": 3,
      "color": "#c9b70e"
    },
    {
      "id": 1365,
      "outputModuleId": 52,
      "outputId": 0,
      "inputModuleId": 353,
      "inputId": 7,
      "color": "#c91847"
    },
    {
      "id": 1366,
      "outputModuleId": 656,
      "outputId": 0,
      "inputModuleId": 657,
      "inputId": 0,
      "color": "#0986ad"
    },
    {
      "id": 1367,
      "outputModuleId": 658,
      "outputId": 1,
      "inputModuleId": 637,
      "inputId": 4,
      "color": "#c9b70e"
    },
    {
      "id": 1368,
      "outputModuleId": 656,
      "outputId": 0,
      "inputModuleId": 658,
      "inputId": 1,
      "color": "#0c8e15"
    },
    {
      "id": 1373,
      "outputModuleId": 656,
      "outputId": 0,
      "inputModuleId": 661,
      "inputId": 0,
      "color": "#0986ad"
    },
    {
      "id": 1375,
      "outputModuleId": 661,
      "outputId": 0,
      "inputModuleId": 657,
      "inputId": 1,
      "color": "#0c8e15"
    },
    {
      "id": 1377,
      "outputModuleId": 648,
      "outputId": 0,
      "inputModuleId": 656,
      "inputId": 3,
      "color": "#0986ad"
    },
    {
      "id": 1374,
      "outputModuleId": 661,
      "outputId": 0,
      "inputModuleId": 662,
      "inputId": 2,
      "color": "#c9b70e"
    },
    {
      "id": 1378,
      "outputModuleId": 662,
      "outputId": 0,
      "inputModuleId": 660,
      "inputId": 1,
      "color": "#c9b70e"
    },
    {
      "id": 1331,
      "outputModuleId": 643,
      "outputId": 2,
      "inputModuleId": 392,
      "inputId": 5,
      "color": "#0c8e15"
    },
    {
      "id": 1379,
      "outputModuleId": 607,
      "outputId": 0,
      "inputModuleId": 655,
      "inputId": 17,
      "color": "#c91847"
    },
    {
      "id": 1381,
      "outputModuleId": 655,
      "outputId": 1,
      "inputModuleId": 655,
      "inputId": 9,
      "color": "#c9b70e"
    },
    {
      "id": 1382,
      "outputModuleId": 655,
      "outputId": 5,
      "inputModuleId": 655,
      "inputId": 13,
      "color": "#0c8e15"
    },
    {
      "id": 1383,
      "outputModuleId": 655,
      "outputId": 8,
      "inputModuleId": 655,
      "inputId": 5,
      "color": "#c91847"
    },
    {
      "id": 1371,
      "outputModuleId": 655,
      "outputId": 0,
      "inputModuleId": 660,
      "inputId": 2,
      "color": "#0c8e15"
    },
    {
      "id": 1393,
      "outputModuleId": 667,
      "outputId": 0,
      "inputModuleId": 392,
      "inputId": 7,
      "color": "#c9b70e"
    },
    {
      "id": 1394,
      "outputModuleId": 392,
      "outputId": 3,
      "inputModuleId": 667,
      "inputId": 0,
      "color": "#0c8e15"
    },
    {
      "id": 1408,
      "outputModuleId": 667,
      "outputId": 0,
      "inputModuleId": 631,
      "inputId": 0,
      "color": "#c9b70e"
    },
    {
      "id": 1409,
      "outputModuleId": 392,
      "outputId": 3,
      "inputModuleId": 631,
      "inputId": 1,
      "color": "#0c8e15"
    },
    {
      "id": 1410,
      "outputModuleId": 392,
      "outputId": 3,
      "inputModuleId": 631,
      "inputId": 2,
      "color": "#c9b70e"
    },
    {
      "id": 1411,
      "outputModuleId": 25,
      "outputId": 0,
      "inputModuleId": 675,
      "inputId": 0,
      "color": "#0c8e15"
    },
    {
      "id": 1413,
      "outputModuleId": 25,
      "outputId": 1,
      "inputModuleId": 683,
      "inputId": 1,
      "color": "#0986ad"
    },
    {
      "id": 1348,
      "outputModuleId": 684,
      "outputId": 0,
      "inputModuleId": 650,
      "inputId": 0,
      "color": "#c9b70e"
    },
    {
      "id": 1416,
      "outputModuleId": 392,
      "outputId": 0,
      "inputModuleId": 352,
      "inputId": 2,
      "color": "#c91847"
    },
    {
      "id": 1313,
      "outputModuleId": 392,
      "outputId": 1,
      "inputModuleId": 630,
      "inputId": 0,
      "color": "#c91847"
    },
    {
      "id": 1418,
      "outputModuleId": 686,
      "outputId": 1,
      "inputModuleId": 644,
      "inputId": 2,
      "color": "#c9b70e"
    },
    {
      "id": 1417,
      "outputModuleId": 607,
      "outputId": 0,
      "inputModuleId": 686,
      "inputId": 0,
      "color": "#0986ad"
    },
    {
      "id": 1372,
      "outputModuleId": 660,
      "outputId": 0,
      "inputModuleId": 607,
      "inputId": 4,
      "color": "#c91847"
    },
    {
      "id": 1419,
      "outputModuleId": 648,
      "outputId": 0,
      "inputModuleId": 684,
      "inputId": 0,
      "color": "#0c8e15"
    },
    {
      "id": 1364,
      "outputModuleId": 642,
      "outputId": 0,
      "inputModuleId": 687,
      "inputId": 3,
      "color": "#0c8e15"
    },
    {
      "id": 1420,
      "outputModuleId": 687,
      "outputId": 2,
      "inputModuleId": 52,
      "inputId": 0,
      "color": "#c91847"
    },
    {
      "id": 1421,
      "outputModuleId": 688,
      "outputId": 4,
      "inputModuleId": 687,
      "inputId": 2,
      "color": "#0986ad"
    }
  ]
}