{
  "version": "0.6.2b",
  "modules": [
    {
      "plugin": "Core",
      "version": "0.6.2b",
      "model": "AudioInterface",
      "params": [],
      "data": {
        "audio": {
          "driver": 8,
          "deviceName": "Default Device",
          "offset": 0,
          "maxChannels": 8,
          "sampleRate": 44100,
          "blockSize": 256
        }
      },
      "pos": [
        115,
        0
      ]
    },
    {
      "plugin": "AudibleInstruments",
      "version": "0.6.3",
      "model": "Plaits",
      "params": [
        {
          "paramId": 0,
          "value": 0.0
        },
        {
          "paramId": 1,
          "value": 0.0
        },
        {
          "paramId": 2,
          "value": -3.78399968
        },
        {
          "paramId": 3,
          "value": 0.5
        },
        {
          "paramId": 4,
          "value": 0.543999791
        },
        {
          "paramId": 5,
          "value": 0.633499563
        },
        {
          "paramId": 6,
          "value": 0.0
        },
        {
          "paramId": 7,
          "value": 0.0
        },
        {
          "paramId": 8,
          "value": 0.0
        }
      ],
      "data": {
        "lowCpu": false,
        "model": 3,
        "lpgColor": 0.5,
        "decay": 0.5
      },
      "pos": [
        64,
        0
      ]
    },
    {
      "plugin": "Fundamental",
      "version": "0.6.2",
      "model": "VCMixer",
      "params": [
        {
          "paramId": 0,
          "value": 2.0
        },
        {
          "paramId": 1,
          "value": 0.0
        },
        {
          "paramId": 2,
          "value": 0.0
        },
        {
          "paramId": 3,
          "value": 1.0
        },
        {
          "paramId": 4,
          "value": 0.672999561
        }
      ],
      "pos": [
        88,
        1
      ]
    },
    {
      "plugin": "Fundamental",
      "version": "0.6.2",
      "model": "VCMixer",
      "params": [
        {
          "paramId": 0,
          "value": 0.686999917
        },
        {
          "paramId": 1,
          "value": 1.0
        },
        {
          "paramId": 2,
          "value": 1.0
        },
        {
          "paramId": 3,
          "value": 1.0
        },
        {
          "paramId": 4,
          "value": 1.0
        }
      ],
      "pos": [
        98,
        1
      ]
    },
    {
      "plugin": "Fundamental",
      "version": "0.6.2",
      "model": "Delay",
      "params": [
        {
          "paramId": 0,
          "value": 0.537500083
        },
        {
          "paramId": 1,
          "value": 0.5
        },
        {
          "paramId": 2,
          "value": 0.265999973
        },
        {
          "paramId": 3,
          "value": 0.5
        }
      ],
      "pos": [
        107,
        0
      ]
    },
    {
      "plugin": "Fundamental",
      "version": "0.6.2",
      "model": "Delay",
      "params": [
        {
          "paramId": 0,
          "value": 0.545000196
        },
        {
          "paramId": 1,
          "value": 0.5
        },
        {
          "paramId": 2,
          "value": 0.327500015
        },
        {
          "paramId": 3,
          "value": 0.5
        }
      ],
      "pos": [
        99,
        0
      ]
    },
    {
      "plugin": "Befaco",
      "version": "0.6.0",
      "model": "DualAtenuverter",
      "params": [
        {
          "paramId": 0,
          "value": 0.0
        },
        {
          "paramId": 1,
          "value": 3.36000013
        },
        {
          "paramId": 2,
          "value": 0.0
        },
        {
          "paramId": 3,
          "value": 0.0
        }
      ],
      "pos": [
        94,
        0
      ]
    },
    {
      "plugin": "Fundamental",
      "version": "0.6.2",
      "model": "Scope",
      "params": [
        {
          "paramId": 0,
          "value": 0.0
        },
        {
          "paramId": 1,
          "value": 0.0
        },
        {
          "paramId": 2,
          "value": 0.0
        },
        {
          "paramId": 3,
          "value": 0.0
        },
        {
          "paramId": 4,
          "value": -14.0
        },
        {
          "paramId": 5,
          "value": 0.0
        },
        {
          "paramId": 6,
          "value": 0.0
        },
        {
          "paramId": 7,
          "value": 0.0
        }
      ],
      "data": {
        "lissajous": 0,
        "external": 0
      },
      "pos": [
        79,
        0
      ]
    },
    {
      "plugin": "Bogaudio",
      "version": "0.6.12",
      "model": "Bogaudio-Analyzer",
      "params": [
        {
          "paramId": 5,
          "value": 0.0
        },
        {
          "paramId": 1,
          "value": 0.414500117
        },
        {
          "paramId": 2,
          "value": 3.0
        },
        {
          "paramId": 4,
          "value": 1.0
        }
      ],
      "pos": [
        108,
        1
      ]
    },
    {
      "plugin": "Fundamental",
      "version": "0.6.2",
      "model": "LFO",
      "params": [
        {
          "paramId": 0,
          "value": 1.0
        },
        {
          "paramId": 1,
          "value": 1.0
        },
        {
          "paramId": 2,
          "value": -3.09499359
        },
        {
          "paramId": 3,
          "value": 0.58949995
        },
        {
          "paramId": 5,
          "value": 0.5
        },
        {
          "paramId": 4,
          "value": 0.136500001
        },
        {
          "paramId": 6,
          "value": 0.0
        }
      ],
      "pos": [
        47,
        0
      ]
    },
    {
      "plugin": "Befaco",
      "version": "0.6.0",
      "model": "DualAtenuverter",
      "params": [
        {
          "paramId": 0,
          "value": 0.111000098
        },
        {
          "paramId": 1,
          "value": 0.0
        },
        {
          "paramId": 2,
          "value": 0.0600000471
        },
        {
          "paramId": 3,
          "value": 0.0
        }
      ],
      "pos": [
        59,
        0
      ]
    },
    {
      "plugin": "Fundamental",
      "version": "0.6.2",
      "model": "SEQ3",
      "params": [
        {
          "paramId": 0,
          "value": 2.0
        },
        {
          "paramId": 1,
          "value": 0.0
        },
        {
          "paramId": 2,
          "value": 0.0
        },
        {
          "paramId": 3,
          "value": 8.0
        },
        {
          "paramId": 4,
          "value": 0.0
        },
        {
          "paramId": 12,
          "value": 0.0
        },
        {
          "paramId": 20,
          "value": 0.0
        },
        {
          "paramId": 28,
          "value": 0.0
        },
        {
          "paramId": 5,
          "value": 1.22999966
        },
        {
          "paramId": 13,
          "value": 0.0
        },
        {
          "paramId": 21,
          "value": 0.0
        },
        {
          "paramId": 29,
          "value": 0.0
        },
        {
          "paramId": 6,
          "value": 1.52999997
        },
        {
          "paramId": 14,
          "value": 0.0
        },
        {
          "paramId": 22,
          "value": 0.0
        },
        {
          "paramId": 30,
          "value": 0.0
        },
        {
          "paramId": 7,
          "value": 1.3950001
        },
        {
          "paramId": 15,
          "value": 0.0
        },
        {
          "paramId": 23,
          "value": 0.0
        },
        {
          "paramId": 31,
          "value": 0.0
        },
        {
          "paramId": 8,
          "value": 0.854999959
        },
        {
          "paramId": 16,
          "value": 0.0
        },
        {
          "paramId": 24,
          "value": 0.0
        },
        {
          "paramId": 32,
          "value": 0.0
        },
        {
          "paramId": 9,
          "value": 0.0
        },
        {
          "paramId": 17,
          "value": 0.0
        },
        {
          "paramId": 25,
          "value": 0.0
        },
        {
          "paramId": 33,
          "value": 0.0
        },
        {
          "paramId": 10,
          "value": 0.0
        },
        {
          "paramId": 18,
          "value": 0.0
        },
        {
          "paramId": 26,
          "value": 0.0
        },
        {
          "paramId": 34,
          "value": 0.0
        },
        {
          "paramId": 11,
          "value": 0.0
        },
        {
          "paramId": 19,
          "value": 0.0
        },
        {
          "paramId": 27,
          "value": 0.0
        },
        {
          "paramId": 35,
          "value": 0.0
        }
      ],
      "data": {
        "running": true,
        "gates": [
          1,
          1,
          1,
          1,
          1,
          1,
          1,
          1
        ]
      },
      "pos": [
        48,
        1
      ]
    },
    {
      "plugin": "Bogaudio",
      "version": "0.6.12",
      "model": "Bogaudio-SampleHold",
      "params": [
        {
          "paramId": 0,
          "value": 0.0
        },
        {
          "paramId": 1,
          "value": 0.0
        }
      ],
      "pos": [
        75,
        1
      ]
    },
    {
      "plugin": "Bogaudio",
      "version": "0.6.12",
      "model": "Bogaudio-Noise",
      "params": [],
      "pos": [
        72,
        1
      ]
    },
    {
      "plugin": "Befaco",
      "version": "0.6.0",
      "model": "SlewLimiter",
      "params": [
        {
          "paramId": 0,
          "value": 0.0
        },
        {
          "paramId": 1,
          "value": 0.600000083
        },
        {
          "paramId": 2,
          "value": 0.585000038
        }
      ],
      "pos": [
        79,
        1
      ]
    },
    {
      "plugin": "Fundamental",
      "version": "0.6.2",
      "model": "LFO",
      "params": [
        {
          "paramId": 0,
          "value": 1.0
        },
        {
          "paramId": 1,
          "value": 1.0
        },
        {
          "paramId": 2,
          "value": -0.701000273
        },
        {
          "paramId": 3,
          "value": 0.172500014
        },
        {
          "paramId": 5,
          "value": 0.5
        },
        {
          "paramId": 4,
          "value": 0.0
        },
        {
          "paramId": 6,
          "value": 0.0
        }
      ],
      "pos": [
        38,
        1
      ]
    },
    {
      "plugin": "Fundamental",
      "version": "0.6.2",
      "model": "Scope",
      "params": [
        {
          "paramId": 0,
          "value": 0.0
        },
        {
          "paramId": 1,
          "value": 0.0
        },
        {
          "paramId": 2,
          "value": 0.0
        },
        {
          "paramId": 3,
          "value": 0.0
        },
        {
          "paramId": 4,
          "value": -6.0
        },
        {
          "paramId": 5,
          "value": 0.0
        },
        {
          "paramId": 6,
          "value": 0.0
        },
        {
          "paramId": 7,
          "value": 0.0
        }
      ],
      "data": {
        "lissajous": 0,
        "external": 0
      },
      "pos": [
        34,
        0
      ]
    },
    {
      "plugin": "Fundamental",
      "version": "0.6.2",
      "model": "Unity",
      "params": [
        {
          "paramId": 0,
          "value": 0.0
        },
        {
          "paramId": 1,
          "value": 0.0
        }
      ],
      "data": {
        "merge": false
      },
      "pos": [
        57,
        2
      ]
    },
    {
      "plugin": "Fundamental",
      "version": "0.6.2",
      "model": "Delay",
      "params": [
        {
          "paramId": 0,
          "value": 0.34100008
        },
        {
          "paramId": 1,
          "value": 0.929000199
        },
        {
          "paramId": 2,
          "value": 0.0704999939
        },
        {
          "paramId": 3,
          "value": 1.0
        }
      ],
      "pos": [
        78,
        2
      ]
    },
    {
      "plugin": "Fundamental",
      "version": "0.6.2",
      "model": "VCA-1",
      "params": [
        {
          "paramId": 0,
          "value": 1.0
        },
        {
          "paramId": 1,
          "value": 1.0
        }
      ],
      "pos": [
        75,
        2
      ]
    },
    {
      "plugin": "Fundamental",
      "version": "0.6.2",
      "model": "ADSR",
      "params": [
        {
          "paramId": 0,
          "value": 0.210500002
        },
        {
          "paramId": 1,
          "value": 0.112500027
        },
        {
          "paramId": 2,
          "value": 0.0
        },
        {
          "paramId": 3,
          "value": 0.0
        }
      ],
      "pos": [
        65,
        2
      ]
    },
    {
      "plugin": "Befaco",
      "version": "0.6.0",
      "model": "DualAtenuverter",
      "params": [
        {
          "paramId": 0,
          "value": 0.0330001228
        },
        {
          "paramId": 1,
          "value": 0.0
        },
        {
          "paramId": 2,
          "value": 1.0
        },
        {
          "paramId": 3,
          "value": 0.0
        }
      ],
      "pos": [
        90,
        2
      ]
    },
    {
      "plugin": "NYSTHI",
      "version": "0.6.14",
      "model": "MasterRecorder2",
      "params": [
        {
          "paramId": 0,
          "value": 0.0
        },
        {
          "paramId": 1,
          "value": 0.0
        },
        {
          "paramId": 2,
          "value": 0.0
        },
        {
          "paramId": 8,
          "value": 0.0
        },
        {
          "paramId": 9,
          "value": 0.00499999989
        },
        {
          "paramId": 10,
          "value": 0.00999999978
        },
        {
          "paramId": 11,
          "value": 2.0
        },
        {
          "paramId": 12,
          "value": 0.5
        },
        {
          "paramId": 3,
          "value": 1.0
        },
        {
          "paramId": 4,
          "value": 1.0
        },
        {
          "paramId": 13,
          "value": 0.0
        },
        {
          "paramId": 14,
          "value": 0.100000001
        },
        {
          "paramId": 5,
          "value": 0.0
        },
        {
          "paramId": 6,
          "value": 0.0
        },
        {
          "paramId": 7,
          "value": 0.0
        }
      ],
      "data": {
        "nysthi_id": "MR2_8E2Px6I2",
        "wavebits": 9,
        "rms_time": 0.00100000005,
        "peak_time": 0.5,
        "m_invertphaseleft": false,
        "m_invertphaseright": false,
        "m_locklevelleftright": false,
        "m_kompressor_active": false,
        "m_autosave": true,
        "m_distort": false
      },
      "pos": [
        128,
        0
      ]
    },
    {
      "plugin": "Fundamental",
      "version": "0.6.2",
      "model": "ADSR",
      "params": [
        {
          "paramId": 0,
          "value": 0.736999869
        },
        {
          "paramId": 1,
          "value": 0.225000039
        },
        {
          "paramId": 2,
          "value": 1.0
        },
        {
          "paramId": 3,
          "value": 0.131999999
        }
      ],
      "pos": [
        97,
        2
      ]
    },
    {
      "plugin": "NYSTHI",
      "version": "0.6.14",
      "model": "DOPPLAB",
      "params": [
        {
          "paramId": 10,
          "value": 0.0
        },
        {
          "paramId": 0,
          "value": 4.0
        },
        {
          "paramId": 2,
          "value": 1.0
        },
        {
          "paramId": 3,
          "value": 0.0
        },
        {
          "paramId": 4,
          "value": 0.0
        },
        {
          "paramId": 5,
          "value": 0.0
        },
        {
          "paramId": 6,
          "value": 0.0
        },
        {
          "paramId": 7,
          "value": 0.0
        },
        {
          "paramId": 8,
          "value": 0.0
        },
        {
          "paramId": 9,
          "value": 0.0
        }
      ],
      "data": {
        "m_path_pointsX": [
          0.813594341,
          -7.75038338,
          5.15441895,
          1.08114922
        ],
        "m_path_pointsY": [
          -9.07776165,
          2.96525192,
          4.97793579,
          -9.3453722
        ],
        "m_pitch_shift": false,
        "m_looping": true,
        "m_binaural": true,
        "m_volume_attenuation": true,
        "m_show_info": true,
        "m_speed": 13.0999985
      },
      "pos": [
        144,
        1
      ]
    },
    {
      "plugin": "Fundamental",
      "version": "0.6.2",
      "model": "ADSR",
      "params": [
        {
          "paramId": 0,
          "value": 0.210500002
        },
        {
          "paramId": 1,
          "value": 0.112500027
        },
        {
          "paramId": 2,
          "value": 0.0
        },
        {
          "paramId": 3,
          "value": 0.0
        }
      ],
      "pos": [
        65,
        3
      ]
    },
    {
      "plugin": "Fundamental",
      "version": "0.6.2",
      "model": "VCA-1",
      "params": [
        {
          "paramId": 0,
          "value": 1.0
        },
        {
          "paramId": 1,
          "value": 1.0
        }
      ],
      "pos": [
        75,
        3
      ]
    },
    {
      "plugin": "Fundamental",
      "version": "0.6.2",
      "model": "Delay",
      "params": [
        {
          "paramId": 0,
          "value": 0.333000004
        },
        {
          "paramId": 1,
          "value": 0.712999225
        },
        {
          "paramId": 2,
          "value": 0.389999926
        },
        {
          "paramId": 3,
          "value": 1.0
        }
      ],
      "pos": [
        78,
        3
      ]
    },
    {
      "plugin": "Befaco",
      "version": "0.6.0",
      "model": "DualAtenuverter",
      "params": [
        {
          "paramId": 0,
          "value": 0.0330001228
        },
        {
          "paramId": 1,
          "value": 0.509999931
        },
        {
          "paramId": 2,
          "value": 1.0
        },
        {
          "paramId": 3,
          "value": 0.0
        }
      ],
      "pos": [
        90,
        3
      ]
    },
    {
      "plugin": "Fundamental",
      "version": "0.6.2",
      "model": "ADSR",
      "params": [
        {
          "paramId": 0,
          "value": 0.444499969
        },
        {
          "paramId": 1,
          "value": 0.225000039
        },
        {
          "paramId": 2,
          "value": 1.0
        },
        {
          "paramId": 3,
          "value": 0.131999999
        }
      ],
      "pos": [
        97,
        3
      ]
    },
    {
      "plugin": "AudibleInstruments",
      "version": "0.6.3",
      "model": "Branches",
      "params": [
        {
          "paramId": 0,
          "value": 0.5
        },
        {
          "paramId": 2,
          "value": 0.0
        },
        {
          "paramId": 1,
          "value": 0.5
        },
        {
          "paramId": 3,
          "value": 0.0
        }
      ],
      "data": {
        "modes": [
          false,
          false
        ]
      },
      "pos": [
        40,
        2
      ]
    },
    {
      "plugin": "Bogaudio",
      "version": "0.6.12",
      "model": "Bogaudio-CVD",
      "params": [
        {
          "paramId": 0,
          "value": 0.558499932
        },
        {
          "paramId": 1,
          "value": 1.0
        },
        {
          "paramId": 2,
          "value": 1.0
        }
      ],
      "pos": [
        52,
        2
      ]
    },
    {
      "plugin": "Fundamental",
      "version": "0.6.2",
      "model": "Scope",
      "params": [
        {
          "paramId": 0,
          "value": 0.0
        },
        {
          "paramId": 1,
          "value": 0.0
        },
        {
          "paramId": 2,
          "value": 0.0
        },
        {
          "paramId": 3,
          "value": 0.0
        },
        {
          "paramId": 4,
          "value": -8.85999203
        },
        {
          "paramId": 5,
          "value": 0.0
        },
        {
          "paramId": 6,
          "value": 0.0
        },
        {
          "paramId": 7,
          "value": 0.0
        }
      ],
      "data": {
        "lissajous": 0,
        "external": 1
      },
      "pos": [
        106,
        3
      ]
    },
    {
      "plugin": "Fundamental",
      "version": "0.6.2",
      "model": "Scope",
      "params": [
        {
          "paramId": 0,
          "value": 0.0
        },
        {
          "paramId": 1,
          "value": 0.0
        },
        {
          "paramId": 2,
          "value": 0.0
        },
        {
          "paramId": 3,
          "value": 0.0
        },
        {
          "paramId": 4,
          "value": -8.85999203
        },
        {
          "paramId": 5,
          "value": 0.0
        },
        {
          "paramId": 6,
          "value": 0.0
        },
        {
          "paramId": 7,
          "value": 0.0
        }
      ],
      "data": {
        "lissajous": 0,
        "external": 1
      },
      "pos": [
        106,
        2
      ]
    },
    {
      "plugin": "Bogaudio",
      "version": "0.6.12",
      "model": "Bogaudio-CVD",
      "params": [
        {
          "paramId": 0,
          "value": 0.558499932
        },
        {
          "paramId": 1,
          "value": 1.0
        },
        {
          "paramId": 2,
          "value": 1.0
        }
      ],
      "pos": [
        52,
        3
      ]
    },
    {
      "plugin": "Fundamental",
      "version": "0.6.2",
      "model": "Unity",
      "params": [
        {
          "paramId": 0,
          "value": 0.0
        },
        {
          "paramId": 1,
          "value": 0.0
        }
      ],
      "data": {
        "merge": false
      },
      "pos": [
        57,
        3
      ]
    },
    {
      "plugin": "Fundamental",
      "version": "0.6.2",
      "model": "ADSR",
      "params": [
        {
          "paramId": 0,
          "value": 0.210500002
        },
        {
          "paramId": 1,
          "value": 0.112500027
        },
        {
          "paramId": 2,
          "value": 0.0
        },
        {
          "paramId": 3,
          "value": 0.0
        }
      ],
      "pos": [
        65,
        4
      ]
    },
    {
      "plugin": "Fundamental",
      "version": "0.6.2",
      "model": "VCA-1",
      "params": [
        {
          "paramId": 0,
          "value": 1.0
        },
        {
          "paramId": 1,
          "value": 1.0
        }
      ],
      "pos": [
        75,
        4
      ]
    },
    {
      "plugin": "Fundamental",
      "version": "0.6.2",
      "model": "Delay",
      "params": [
        {
          "paramId": 0,
          "value": 0.333000004
        },
        {
          "paramId": 1,
          "value": 0.712999225
        },
        {
          "paramId": 2,
          "value": 0.389999926
        },
        {
          "paramId": 3,
          "value": 1.0
        }
      ],
      "pos": [
        78,
        4
      ]
    },
    {
      "plugin": "Befaco",
      "version": "0.6.0",
      "model": "DualAtenuverter",
      "params": [
        {
          "paramId": 0,
          "value": 0.0330001228
        },
        {
          "paramId": 1,
          "value": 0.509999931
        },
        {
          "paramId": 2,
          "value": 1.0
        },
        {
          "paramId": 3,
          "value": 0.0
        }
      ],
      "pos": [
        90,
        4
      ]
    },
    {
      "plugin": "Fundamental",
      "version": "0.6.2",
      "model": "ADSR",
      "params": [
        {
          "paramId": 0,
          "value": 0.444499969
        },
        {
          "paramId": 1,
          "value": 0.225000039
        },
        {
          "paramId": 2,
          "value": 1.0
        },
        {
          "paramId": 3,
          "value": 0.131999999
        }
      ],
      "pos": [
        97,
        4
      ]
    }
  ],
  "wires": [
    {
      "color": "#0986ad",
      "outputModuleId": 3,
      "outputId": 0,
      "inputModuleId": 4,
      "inputId": 4
    },
    {
      "color": "#c9b70e",
      "outputModuleId": 3,
      "outputId": 0,
      "inputModuleId": 5,
      "inputId": 4
    },
    {
      "color": "#c91847",
      "outputModuleId": 2,
      "outputId": 0,
      "inputModuleId": 3,
      "inputId": 1
    },
    {
      "color": "#0c8e15",
      "outputModuleId": 1,
      "outputId": 0,
      "inputModuleId": 2,
      "inputId": 1
    },
    {
      "color": "#0986ad",
      "outputModuleId": 6,
      "outputId": 1,
      "inputModuleId": 5,
      "inputId": 3
    },
    {
      "color": "#c9b70e",
      "outputModuleId": 6,
      "outputId": 1,
      "inputModuleId": 4,
      "inputId": 3
    },
    {
      "color": "#c91847",
      "outputModuleId": 6,
      "outputId": 0,
      "inputModuleId": 4,
      "inputId": 1
    },
    {
      "color": "#0c8e15",
      "outputModuleId": 6,
      "outputId": 0,
      "inputModuleId": 5,
      "inputId": 1
    },
    {
      "color": "#0986ad",
      "outputModuleId": 1,
      "outputId": 1,
      "inputModuleId": 7,
      "inputId": 0
    },
    {
      "color": "#c9b70e",
      "outputModuleId": 1,
      "outputId": 0,
      "inputModuleId": 7,
      "inputId": 1
    },
    {
      "color": "#0c8e15",
      "outputModuleId": 3,
      "outputId": 0,
      "inputModuleId": 8,
      "inputId": 0
    },
    {
      "color": "#0986ad",
      "outputModuleId": 9,
      "outputId": 0,
      "inputModuleId": 10,
      "inputId": 1
    },
    {
      "color": "#c9b70e",
      "outputModuleId": 10,
      "outputId": 1,
      "inputModuleId": 1,
      "inputId": 4
    },
    {
      "color": "#0c8e15",
      "outputModuleId": 10,
      "outputId": 0,
      "inputModuleId": 1,
      "inputId": 7
    },
    {
      "color": "#0986ad",
      "outputModuleId": 13,
      "outputId": 2,
      "inputModuleId": 12,
      "inputId": 1
    },
    {
      "color": "#c91847",
      "outputModuleId": 12,
      "outputId": 0,
      "inputModuleId": 14,
      "inputId": 2
    },
    {
      "color": "#0c8e15",
      "outputModuleId": 11,
      "outputId": 0,
      "inputModuleId": 12,
      "inputId": 0
    },
    {
      "color": "#0986ad",
      "outputModuleId": 14,
      "outputId": 0,
      "inputModuleId": 10,
      "inputId": 0
    },
    {
      "color": "#c9b70e",
      "outputModuleId": 15,
      "outputId": 3,
      "inputModuleId": 11,
      "inputId": 1
    },
    {
      "color": "#c91847",
      "outputModuleId": 11,
      "outputId": 1,
      "inputModuleId": 15,
      "inputId": 0
    },
    {
      "color": "#0c8e15",
      "outputModuleId": 1,
      "outputId": 1,
      "inputModuleId": 2,
      "inputId": 2
    },
    {
      "color": "#0986ad",
      "outputModuleId": 14,
      "outputId": 0,
      "inputModuleId": 9,
      "inputId": 0
    },
    {
      "color": "#c9b70e",
      "outputModuleId": 9,
      "outputId": 0,
      "inputModuleId": 16,
      "inputId": 0
    },
    {
      "color": "#c91847",
      "outputModuleId": 11,
      "outputId": 0,
      "inputModuleId": 12,
      "inputId": 2
    },
    {
      "color": "#0c8e15",
      "outputModuleId": 13,
      "outputId": 0,
      "inputModuleId": 12,
      "inputId": 3
    },
    {
      "color": "#0986ad",
      "outputModuleId": 12,
      "outputId": 1,
      "inputModuleId": 9,
      "inputId": 1
    },
    {
      "color": "#c9b70e",
      "outputModuleId": 11,
      "outputId": 4,
      "inputModuleId": 17,
      "inputId": 0
    },
    {
      "color": "#c91847",
      "outputModuleId": 11,
      "outputId": 5,
      "inputModuleId": 17,
      "inputId": 2
    },
    {
      "color": "#0986ad",
      "outputModuleId": 20,
      "outputId": 0,
      "inputModuleId": 19,
      "inputId": 0
    },
    {
      "color": "#c9b70e",
      "outputModuleId": 11,
      "outputId": 9,
      "inputModuleId": 17,
      "inputId": 4
    },
    {
      "color": "#c91847",
      "outputModuleId": 11,
      "outputId": 7,
      "inputModuleId": 17,
      "inputId": 1
    },
    {
      "color": "#0c8e15",
      "outputModuleId": 11,
      "outputId": 10,
      "inputModuleId": 17,
      "inputId": 3
    },
    {
      "color": "#0986ad",
      "outputModuleId": 18,
      "outputId": 0,
      "inputModuleId": 2,
      "inputId": 3
    },
    {
      "color": "#c9b70e",
      "outputModuleId": 19,
      "outputId": 0,
      "inputModuleId": 18,
      "inputId": 4
    },
    {
      "color": "#c91847",
      "outputModuleId": 13,
      "outputId": 0,
      "inputModuleId": 19,
      "inputId": 1
    },
    {
      "color": "#0c8e15",
      "outputModuleId": 17,
      "outputId": 0,
      "inputModuleId": 20,
      "inputId": 4
    },
    {
      "color": "#0c8e15",
      "outputModuleId": 14,
      "outputId": 0,
      "inputModuleId": 21,
      "inputId": 0
    },
    {
      "color": "#0986ad",
      "outputModuleId": 21,
      "outputId": 0,
      "inputModuleId": 18,
      "inputId": 0
    },
    {
      "color": "#c9b70e",
      "outputModuleId": 21,
      "outputId": 1,
      "inputModuleId": 18,
      "inputId": 2
    },
    {
      "color": "#c91847",
      "outputModuleId": 14,
      "outputId": 0,
      "inputModuleId": 21,
      "inputId": 1
    },
    {
      "color": "#0c8e15",
      "outputModuleId": 5,
      "outputId": 0,
      "inputModuleId": 22,
      "inputId": 0
    },
    {
      "color": "#0986ad",
      "outputModuleId": 4,
      "outputId": 0,
      "inputModuleId": 22,
      "inputId": 1
    },
    {
      "color": "#c9b70e",
      "outputModuleId": 17,
      "outputId": 0,
      "inputModuleId": 23,
      "inputId": 4
    },
    {
      "color": "#c91847",
      "outputModuleId": 23,
      "outputId": 0,
      "inputModuleId": 2,
      "inputId": 7
    },
    {
      "color": "#0c8e15",
      "outputModuleId": 5,
      "outputId": 0,
      "inputModuleId": 24,
      "inputId": 0
    },
    {
      "color": "#0986ad",
      "outputModuleId": 4,
      "outputId": 0,
      "inputModuleId": 24,
      "inputId": 1
    },
    {
      "color": "#c9b70e",
      "outputModuleId": 24,
      "outputId": 0,
      "inputModuleId": 0,
      "inputId": 0
    },
    {
      "color": "#c91847",
      "outputModuleId": 24,
      "outputId": 1,
      "inputModuleId": 0,
      "inputId": 1
    },
    {
      "color": "#0c8e15",
      "outputModuleId": 24,
      "outputId": 0,
      "inputModuleId": 8,
      "inputId": 1
    },
    {
      "color": "#c9b70e",
      "outputModuleId": 17,
      "outputId": 2,
      "inputModuleId": 25,
      "inputId": 4
    },
    {
      "color": "#c91847",
      "outputModuleId": 17,
      "outputId": 2,
      "inputModuleId": 29,
      "inputId": 4
    },
    {
      "color": "#0c8e15",
      "outputModuleId": 25,
      "outputId": 0,
      "inputModuleId": 26,
      "inputId": 0
    },
    {
      "color": "#0986ad",
      "outputModuleId": 13,
      "outputId": 2,
      "inputModuleId": 26,
      "inputId": 1
    },
    {
      "color": "#c9b70e",
      "outputModuleId": 26,
      "outputId": 0,
      "inputModuleId": 27,
      "inputId": 4
    },
    {
      "color": "#c91847",
      "outputModuleId": 27,
      "outputId": 0,
      "inputModuleId": 2,
      "inputId": 4
    },
    {
      "color": "#0986ad",
      "outputModuleId": 29,
      "outputId": 0,
      "inputModuleId": 2,
      "inputId": 8
    },
    {
      "color": "#c91847",
      "outputModuleId": 28,
      "outputId": 0,
      "inputModuleId": 27,
      "inputId": 0
    },
    {
      "color": "#0c8e15",
      "outputModuleId": 14,
      "outputId": 0,
      "inputModuleId": 28,
      "inputId": 0
    },
    {
      "color": "#0986ad",
      "outputModuleId": 14,
      "outputId": 0,
      "inputModuleId": 28,
      "inputId": 1
    },
    {
      "color": "#c9b70e",
      "outputModuleId": 28,
      "outputId": 1,
      "inputModuleId": 27,
      "inputId": 2
    },
    {
      "color": "#c91847",
      "outputModuleId": 30,
      "outputId": 0,
      "inputModuleId": 17,
      "inputId": 6
    },
    {
      "color": "#c91847",
      "outputModuleId": 11,
      "outputId": 6,
      "inputModuleId": 17,
      "inputId": 8
    },
    {
      "color": "#0c8e15",
      "outputModuleId": 17,
      "outputId": 0,
      "inputModuleId": 31,
      "inputId": 2
    },
    {
      "color": "#0986ad",
      "outputModuleId": 31,
      "outputId": 0,
      "inputModuleId": 30,
      "inputId": 0
    },
    {
      "color": "#c91847",
      "outputModuleId": 17,
      "outputId": 2,
      "inputModuleId": 32,
      "inputId": 2
    },
    {
      "color": "#0c8e15",
      "outputModuleId": 25,
      "outputId": 0,
      "inputModuleId": 32,
      "inputId": 1
    },
    {
      "color": "#0986ad",
      "outputModuleId": 27,
      "outputId": 0,
      "inputModuleId": 32,
      "inputId": 0
    },
    {
      "color": "#c9b70e",
      "outputModuleId": 20,
      "outputId": 0,
      "inputModuleId": 33,
      "inputId": 0
    },
    {
      "color": "#c91847",
      "outputModuleId": 18,
      "outputId": 0,
      "inputModuleId": 33,
      "inputId": 1
    },
    {
      "color": "#0c8e15",
      "outputModuleId": 17,
      "outputId": 2,
      "inputModuleId": 34,
      "inputId": 2
    },
    {
      "color": "#0986ad",
      "outputModuleId": 34,
      "outputId": 0,
      "inputModuleId": 30,
      "inputId": 1
    },
    {
      "color": "#c9b70e",
      "outputModuleId": 11,
      "outputId": 11,
      "inputModuleId": 35,
      "inputId": 0
    },
    {
      "color": "#c91847",
      "outputModuleId": 40,
      "outputId": 0,
      "inputModuleId": 3,
      "inputId": 6
    },
    {
      "color": "#0c8e15",
      "outputModuleId": 38,
      "outputId": 0,
      "inputModuleId": 3,
      "inputId": 2
    },
    {
      "color": "#0986ad",
      "outputModuleId": 39,
      "outputId": 0,
      "inputModuleId": 38,
      "inputId": 0
    },
    {
      "color": "#c9b70e",
      "outputModuleId": 39,
      "outputId": 1,
      "inputModuleId": 38,
      "inputId": 2
    },
    {
      "color": "#c91847",
      "outputModuleId": 14,
      "outputId": 0,
      "inputModuleId": 39,
      "inputId": 1
    },
    {
      "color": "#0c8e15",
      "outputModuleId": 14,
      "outputId": 0,
      "inputModuleId": 39,
      "inputId": 0
    },
    {
      "color": "#c9b70e",
      "outputModuleId": 36,
      "outputId": 0,
      "inputModuleId": 37,
      "inputId": 0
    },
    {
      "color": "#c91847",
      "outputModuleId": 37,
      "outputId": 0,
      "inputModuleId": 38,
      "inputId": 4
    },
    {
      "color": "#0986ad",
      "outputModuleId": 35,
      "outputId": 0,
      "inputModuleId": 40,
      "inputId": 4
    },
    {
      "color": "#c9b70e",
      "outputModuleId": 35,
      "outputId": 0,
      "inputModuleId": 36,
      "inputId": 4
    },
    {
      "color": "#c91847",
      "outputModuleId": 13,
      "outputId": 3,
      "inputModuleId": 37,
      "inputId": 1
    },
    {
      "color": "#0c8e15",
      "outputModuleId": 30,
      "outputId": 1,
      "inputModuleId": 35,
      "inputId": 2
    }
  ]
}