{
  "version": "0.6.2b",
  "modules": [
    {
      "plugin": "Core",
      "version": "0.6.2b",
      "model": "AudioInterface",
      "params": [],
      "data": {
        "audio": {
          "driver": 6,
          "deviceName": "Speakers (Realtek High Definition Audio)",
          "offset": 0,
          "maxChannels": 8,
          "sampleRate": 48000,
          "blockSize": 256
        }
      },
      "pos": [
        139,
        0
      ]
    },
    {
      "plugin": "Fundamental",
      "version": "0.6.2",
      "model": "VCMixer",
      "params": [
        {
          "paramId": 0,
          "value": 2.0
        },
        {
          "paramId": 1,
          "value": 0.552999914
        },
        {
          "paramId": 2,
          "value": 0.486999869
        },
        {
          "paramId": 3,
          "value": 0.42899999
        },
        {
          "paramId": 4,
          "value": 0.67299974
        }
      ],
      "pos": [
        109,
        1
      ]
    },
    {
      "plugin": "Bogaudio",
      "version": "0.6.12",
      "model": "Bogaudio-Analyzer",
      "params": [
        {
          "paramId": 5,
          "value": 0.0
        },
        {
          "paramId": 1,
          "value": 0.0
        },
        {
          "paramId": 2,
          "value": 2.0
        },
        {
          "paramId": 4,
          "value": 1.0
        }
      ],
      "pos": [
        129,
        1
      ]
    },
    {
      "plugin": "NYSTHI",
      "version": "0.6.14",
      "model": "MasterRecorder2",
      "params": [
        {
          "paramId": 0,
          "value": 0.0
        },
        {
          "paramId": 1,
          "value": 0.0
        },
        {
          "paramId": 2,
          "value": 0.0
        },
        {
          "paramId": 8,
          "value": 0.0
        },
        {
          "paramId": 9,
          "value": 0.00499999989
        },
        {
          "paramId": 10,
          "value": 0.00999999978
        },
        {
          "paramId": 11,
          "value": 2.0
        },
        {
          "paramId": 12,
          "value": 0.5
        },
        {
          "paramId": 3,
          "value": 1.0
        },
        {
          "paramId": 4,
          "value": 1.0
        },
        {
          "paramId": 13,
          "value": 0.0
        },
        {
          "paramId": 14,
          "value": 0.100000001
        },
        {
          "paramId": 5,
          "value": 0.0
        },
        {
          "paramId": 6,
          "value": 0.0
        },
        {
          "paramId": 7,
          "value": 0.0
        }
      ],
      "data": {
        "nysthi_id": "MR2_lRIGMCZ8",
        "wavebits": 9,
        "rms_time": 0.00100000005,
        "peak_time": 0.5,
        "m_invertphaseleft": false,
        "m_invertphaseright": false,
        "m_locklevelleftright": false,
        "m_kompressor_active": false,
        "m_autosave": true,
        "m_distort": false
      },
      "pos": [
        149,
        0
      ]
    },
    {
      "plugin": "Befaco",
      "version": "0.6.0",
      "model": "ABC",
      "params": [
        {
          "paramId": 0,
          "value": 0.0
        },
        {
          "paramId": 1,
          "value": 0.78399992
        },
        {
          "paramId": 2,
          "value": 0.949000001
        },
        {
          "paramId": 3,
          "value": 0.0999998525
        }
      ],
      "pos": [
        111,
        0
      ]
    },
    {
      "plugin": "Fundamental",
      "version": "0.6.2",
      "model": "Delay",
      "params": [
        {
          "paramId": 0,
          "value": 0.0389999971
        },
        {
          "paramId": 1,
          "value": 0.0
        },
        {
          "paramId": 2,
          "value": 0.161999941
        },
        {
          "paramId": 3,
          "value": 0.5
        }
      ],
      "pos": [
        117,
        0
      ]
    },
    {
      "plugin": "Fundamental",
      "version": "0.6.2",
      "model": "Delay",
      "params": [
        {
          "paramId": 0,
          "value": 0.0870000198
        },
        {
          "paramId": 1,
          "value": 0.0
        },
        {
          "paramId": 2,
          "value": 0.150000036
        },
        {
          "paramId": 3,
          "value": 0.5
        }
      ],
      "pos": [
        125,
        0
      ]
    },
    {
      "plugin": "Fundamental",
      "version": "0.6.2",
      "model": "VCMixer",
      "params": [
        {
          "paramId": 0,
          "value": 0.813000083
        },
        {
          "paramId": 1,
          "value": 1.0
        },
        {
          "paramId": 2,
          "value": 1.0
        },
        {
          "paramId": 3,
          "value": 1.0
        },
        {
          "paramId": 4,
          "value": 0.00300000003
        }
      ],
      "pos": [
        119,
        1
      ]
    },
    {
      "plugin": "Bogaudio",
      "version": "0.6.12",
      "model": "Bogaudio-UMix",
      "params": [
        {
          "paramId": 0,
          "value": 1.0
        }
      ],
      "data": {
        "sum": true
      },
      "pos": [
        133,
        0
      ]
    },
    {
      "plugin": "Bogaudio",
      "version": "0.6.12",
      "model": "Bogaudio-UMix",
      "params": [
        {
          "paramId": 0,
          "value": 1.0
        }
      ],
      "data": {
        "sum": true
      },
      "pos": [
        136,
        0
      ]
    },
    {
      "plugin": "Befaco",
      "version": "0.6.0",
      "model": "ABC",
      "params": [
        {
          "paramId": 0,
          "value": 0.0
        },
        {
          "paramId": 1,
          "value": 0.882999957
        },
        {
          "paramId": 2,
          "value": 0.876999795
        },
        {
          "paramId": 3,
          "value": 0.0
        }
      ],
      "pos": [
        105,
        0
      ]
    },
    {
      "plugin": "Bogaudio",
      "version": "0.6.12",
      "model": "Bogaudio-Manual",
      "params": [
        {
          "paramId": 0,
          "value": 0.0
        }
      ],
      "data": {
        "triggerOnLoad": false,
        "shouldTriggerOnLoad": true
      },
      "pos": [
        75,
        1
      ]
    },
    {
      "plugin": "Fundamental",
      "version": "0.6.2",
      "model": "Scope",
      "params": [
        {
          "paramId": 0,
          "value": 0.0
        },
        {
          "paramId": 1,
          "value": 0.0
        },
        {
          "paramId": 2,
          "value": 0.0
        },
        {
          "paramId": 3,
          "value": 0.0
        },
        {
          "paramId": 4,
          "value": -7.68000078
        },
        {
          "paramId": 5,
          "value": 0.0
        },
        {
          "paramId": 6,
          "value": 0.0
        },
        {
          "paramId": 7,
          "value": 0.0
        }
      ],
      "data": {
        "lissajous": 0,
        "external": 0
      },
      "pos": [
        149,
        1
      ]
    },
    {
      "plugin": "Bogaudio",
      "version": "0.6.12",
      "model": "Bogaudio-Noise",
      "params": [],
      "pos": [
        110,
        2
      ]
    },
    {
      "plugin": "TechTechTechnologies",
      "version": "0.6.1",
      "model": "Odysseus",
      "params": [
        {
          "paramId": 1,
          "value": 0.5
        },
        {
          "paramId": 3,
          "value": 0.0
        },
        {
          "paramId": 0,
          "value": 0.5
        },
        {
          "paramId": 2,
          "value": 1.0
        },
        {
          "paramId": 4,
          "value": 0.899499714
        },
        {
          "paramId": 5,
          "value": 0.0554999895
        },
        {
          "paramId": 6,
          "value": 0.269999832
        },
        {
          "paramId": 7,
          "value": 0.0
        },
        {
          "paramId": 8,
          "value": 0.0
        },
        {
          "paramId": 9,
          "value": 1.0
        },
        {
          "paramId": 10,
          "value": 0.0
        }
      ],
      "pos": [
        42,
        1
      ]
    },
    {
      "plugin": "Befaco",
      "version": "0.6.0",
      "model": "DualAtenuverter",
      "params": [
        {
          "paramId": 0,
          "value": 0.431999892
        },
        {
          "paramId": 1,
          "value": -10.0
        },
        {
          "paramId": 2,
          "value": 0.0970001146
        },
        {
          "paramId": 3,
          "value": 0.0
        }
      ],
      "pos": [
        62,
        1
      ]
    },
    {
      "plugin": "Fundamental",
      "version": "0.6.2",
      "model": "Scope",
      "params": [
        {
          "paramId": 0,
          "value": 1.0
        },
        {
          "paramId": 1,
          "value": 0.0
        },
        {
          "paramId": 2,
          "value": 1.0
        },
        {
          "paramId": 3,
          "value": 0.0
        },
        {
          "paramId": 4,
          "value": -14.0
        },
        {
          "paramId": 5,
          "value": 0.0
        },
        {
          "paramId": 6,
          "value": 0.0
        },
        {
          "paramId": 7,
          "value": 0.0
        }
      ],
      "data": {
        "lissajous": 1,
        "external": 0
      },
      "pos": [
        161,
        0
      ]
    },
    {
      "plugin": "TechTechTechnologies",
      "version": "0.6.1",
      "model": "Ouroboros",
      "params": [
        {
          "paramId": 1,
          "value": 0.0
        },
        {
          "paramId": 0,
          "value": 0.0
        },
        {
          "paramId": 11,
          "value": 0.146999985
        },
        {
          "paramId": 6,
          "value": 0.0
        },
        {
          "paramId": 12,
          "value": 0.0959999859
        },
        {
          "paramId": 7,
          "value": 0.0
        },
        {
          "paramId": 13,
          "value": 0.0
        },
        {
          "paramId": 8,
          "value": 0.0
        },
        {
          "paramId": 14,
          "value": 0.189000025
        },
        {
          "paramId": 9,
          "value": 0.0
        },
        {
          "paramId": 15,
          "value": 0.311999977
        },
        {
          "paramId": 10,
          "value": 0.384000033
        }
      ],
      "pos": [
        83,
        1
      ]
    },
    {
      "plugin": "Fundamental",
      "version": "0.6.2",
      "model": "SEQ3",
      "params": [
        {
          "paramId": 0,
          "value": 2.55599689
        },
        {
          "paramId": 1,
          "value": 0.0
        },
        {
          "paramId": 2,
          "value": 0.0
        },
        {
          "paramId": 3,
          "value": 8.0
        },
        {
          "paramId": 4,
          "value": 0.0
        },
        {
          "paramId": 12,
          "value": 0.0
        },
        {
          "paramId": 20,
          "value": 0.0
        },
        {
          "paramId": 28,
          "value": 0.0
        },
        {
          "paramId": 5,
          "value": 0.375
        },
        {
          "paramId": 13,
          "value": 0.585000038
        },
        {
          "paramId": 21,
          "value": 0.914999843
        },
        {
          "paramId": 29,
          "value": 0.0
        },
        {
          "paramId": 6,
          "value": 0.674999833
        },
        {
          "paramId": 14,
          "value": 1.42499983
        },
        {
          "paramId": 22,
          "value": 2.08500051
        },
        {
          "paramId": 30,
          "value": 0.0
        },
        {
          "paramId": 7,
          "value": 1.25999975
        },
        {
          "paramId": 15,
          "value": 0.0
        },
        {
          "paramId": 23,
          "value": 3.33000016
        },
        {
          "paramId": 31,
          "value": 0.0
        },
        {
          "paramId": 8,
          "value": 1.60499942
        },
        {
          "paramId": 16,
          "value": 0.584999919
        },
        {
          "paramId": 24,
          "value": 5.17500067
        },
        {
          "paramId": 32,
          "value": 0.0
        },
        {
          "paramId": 9,
          "value": 2.24999952
        },
        {
          "paramId": 17,
          "value": 1.13999963
        },
        {
          "paramId": 25,
          "value": 7.57500029
        },
        {
          "paramId": 33,
          "value": 0.0
        },
        {
          "paramId": 10,
          "value": 2.47500086
        },
        {
          "paramId": 18,
          "value": 0.0
        },
        {
          "paramId": 26,
          "value": 7.74000216
        },
        {
          "paramId": 34,
          "value": 0.0
        },
        {
          "paramId": 11,
          "value": 3.04500103
        },
        {
          "paramId": 19,
          "value": 0.61500001
        },
        {
          "paramId": 27,
          "value": 10.0
        },
        {
          "paramId": 35,
          "value": 0.0
        }
      ],
      "data": {
        "running": true,
        "gates": [
          1,
          1,
          1,
          1,
          1,
          1,
          1,
          1
        ]
      },
      "pos": [
        79,
        2
      ]
    },
    {
      "plugin": "Befaco",
      "version": "0.6.0",
      "model": "DualAtenuverter",
      "params": [
        {
          "paramId": 0,
          "value": 0.0
        },
        {
          "paramId": 1,
          "value": 0.0
        },
        {
          "paramId": 2,
          "value": 0.0840000063
        },
        {
          "paramId": 3,
          "value": 0.0
        }
      ],
      "pos": [
        78,
        1
      ]
    },
    {
      "plugin": "Bogaudio",
      "version": "0.6.12",
      "model": "Bogaudio-SampleHold",
      "params": [
        {
          "paramId": 0,
          "value": 0.0
        },
        {
          "paramId": 1,
          "value": 0.0
        }
      ],
      "pos": [
        52,
        0
      ]
    },
    {
      "plugin": "Fundamental",
      "version": "0.6.2",
      "model": "VCO",
      "params": [
        {
          "paramId": 0,
          "value": 1.0
        },
        {
          "paramId": 1,
          "value": 1.0
        },
        {
          "paramId": 2,
          "value": -0.324000001
        },
        {
          "paramId": 3,
          "value": 0.0
        },
        {
          "paramId": 5,
          "value": 0.5
        },
        {
          "paramId": 4,
          "value": 0.727502167
        },
        {
          "paramId": 6,
          "value": 0.372000247
        }
      ],
      "pos": [
        73,
        0
      ]
    },
    {
      "plugin": "Fundamental",
      "version": "0.6.2",
      "model": "VCF",
      "params": [
        {
          "paramId": 0,
          "value": 0.671499968
        },
        {
          "paramId": 1,
          "value": 0.5
        },
        {
          "paramId": 2,
          "value": 0.196499944
        },
        {
          "paramId": 3,
          "value": 0.399999559
        },
        {
          "paramId": 4,
          "value": 0.0
        }
      ],
      "pos": [
        87,
        0
      ]
    },
    {
      "plugin": "Bogaudio",
      "version": "0.6.12",
      "model": "Bogaudio-UMix",
      "params": [
        {
          "paramId": 0,
          "value": 1.0
        }
      ],
      "data": {
        "sum": true
      },
      "pos": [
        106,
        2
      ]
    },
    {
      "plugin": "Fundamental",
      "version": "0.6.2",
      "model": "VCF",
      "params": [
        {
          "paramId": 0,
          "value": 0.0
        },
        {
          "paramId": 1,
          "value": 0.5
        },
        {
          "paramId": 2,
          "value": 0.0
        },
        {
          "paramId": 3,
          "value": 0.934000313
        },
        {
          "paramId": 4,
          "value": 0.0
        }
      ],
      "pos": [
        118,
        2
      ]
    },
    {
      "plugin": "Fundamental",
      "version": "0.6.2",
      "model": "VCA-1",
      "params": [
        {
          "paramId": 0,
          "value": 1.0
        },
        {
          "paramId": 1,
          "value": 1.0
        }
      ],
      "pos": [
        115,
        2
      ]
    },
    {
      "plugin": "Fundamental",
      "version": "0.6.2",
      "model": "Delay",
      "params": [
        {
          "paramId": 0,
          "value": 0.235500187
        },
        {
          "paramId": 1,
          "value": 0.97149992
        },
        {
          "paramId": 2,
          "value": 0.135000005
        },
        {
          "paramId": 3,
          "value": 1.0
        }
      ],
      "pos": [
        126,
        2
      ]
    },
    {
      "plugin": "Befaco",
      "version": "0.6.0",
      "model": "SlewLimiter",
      "params": [
        {
          "paramId": 0,
          "value": 0.0
        },
        {
          "paramId": 1,
          "value": 0.765000224
        },
        {
          "paramId": 2,
          "value": 0.786000252
        }
      ],
      "pos": [
        54,
        2
      ]
    },
    {
      "plugin": "Fundamental",
      "version": "0.6.2",
      "model": "SequentialSwitch2",
      "params": [
        {
          "paramId": 0,
          "value": 0.0
        }
      ],
      "pos": [
        76,
        2
      ]
    },
    {
      "plugin": "Fundamental",
      "version": "0.6.2",
      "model": "Delay",
      "params": [
        {
          "paramId": 0,
          "value": 0.67350018
        },
        {
          "paramId": 1,
          "value": 0.730000257
        },
        {
          "paramId": 2,
          "value": 0.5
        },
        {
          "paramId": 3,
          "value": 0.5
        }
      ],
      "pos": [
        100,
        1
      ]
    },
    {
      "plugin": "Befaco",
      "version": "0.6.0",
      "model": "DualAtenuverter",
      "params": [
        {
          "paramId": 0,
          "value": 0.471000224
        },
        {
          "paramId": 1,
          "value": 0.0
        },
        {
          "paramId": 2,
          "value": 0.0959999785
        },
        {
          "paramId": 3,
          "value": -1.88999963
        }
      ],
      "pos": [
        63,
        0
      ]
    },
    {
      "plugin": "Fundamental",
      "version": "0.6.2",
      "model": "SEQ3",
      "params": [
        {
          "paramId": 0,
          "value": 2.55599689
        },
        {
          "paramId": 1,
          "value": 0.0
        },
        {
          "paramId": 2,
          "value": 0.0
        },
        {
          "paramId": 3,
          "value": 8.0
        },
        {
          "paramId": 4,
          "value": 0.0
        },
        {
          "paramId": 12,
          "value": 0.0
        },
        {
          "paramId": 20,
          "value": 0.0
        },
        {
          "paramId": 28,
          "value": 0.0
        },
        {
          "paramId": 5,
          "value": 0.0
        },
        {
          "paramId": 13,
          "value": 0.0
        },
        {
          "paramId": 21,
          "value": 0.914999843
        },
        {
          "paramId": 29,
          "value": 0.0
        },
        {
          "paramId": 6,
          "value": 0.419999957
        },
        {
          "paramId": 14,
          "value": 0.0
        },
        {
          "paramId": 22,
          "value": 2.08500051
        },
        {
          "paramId": 30,
          "value": 0.0
        },
        {
          "paramId": 7,
          "value": 0.0
        },
        {
          "paramId": 15,
          "value": 0.0
        },
        {
          "paramId": 23,
          "value": 3.33000016
        },
        {
          "paramId": 31,
          "value": 0.0
        },
        {
          "paramId": 8,
          "value": 0.0
        },
        {
          "paramId": 16,
          "value": 0.0
        },
        {
          "paramId": 24,
          "value": 5.17500067
        },
        {
          "paramId": 32,
          "value": 0.0
        },
        {
          "paramId": 9,
          "value": 0.195000008
        },
        {
          "paramId": 17,
          "value": 0.0
        },
        {
          "paramId": 25,
          "value": 7.57500029
        },
        {
          "paramId": 33,
          "value": 0.0
        },
        {
          "paramId": 10,
          "value": 0.0
        },
        {
          "paramId": 18,
          "value": 0.0
        },
        {
          "paramId": 26,
          "value": 7.74000216
        },
        {
          "paramId": 34,
          "value": 0.0
        },
        {
          "paramId": 11,
          "value": 0.314999938
        },
        {
          "paramId": 19,
          "value": 0.61500001
        },
        {
          "paramId": 27,
          "value": 10.0
        },
        {
          "paramId": 35,
          "value": 0.0
        }
      ],
      "data": {
        "running": true,
        "gates": [
          1,
          1,
          1,
          1,
          1,
          1,
          1,
          1
        ]
      },
      "pos": [
        30,
        0
      ]
    },
    {
      "plugin": "Befaco",
      "version": "0.6.0",
      "model": "SlewLimiter",
      "params": [
        {
          "paramId": 0,
          "value": 0.0
        },
        {
          "paramId": 1,
          "value": 0.726000726
        },
        {
          "paramId": 2,
          "value": 0.648000538
        }
      ],
      "pos": [
        56,
        0
      ]
    }
  ],
  "wires": [
    {
      "color": "#0c8e15",
      "outputModuleId": 7,
      "outputId": 0,
      "inputModuleId": 2,
      "inputId": 0
    },
    {
      "color": "#0986ad",
      "outputModuleId": 7,
      "outputId": 0,
      "inputModuleId": 5,
      "inputId": 4
    },
    {
      "color": "#c91847",
      "outputModuleId": 5,
      "outputId": 0,
      "inputModuleId": 8,
      "inputId": 7
    },
    {
      "color": "#0c8e15",
      "outputModuleId": 6,
      "outputId": 0,
      "inputModuleId": 9,
      "inputId": 7
    },
    {
      "color": "#0986ad",
      "outputModuleId": 7,
      "outputId": 0,
      "inputModuleId": 6,
      "inputId": 4
    },
    {
      "color": "#c9b70e",
      "outputModuleId": 4,
      "outputId": 1,
      "inputModuleId": 5,
      "inputId": 2
    },
    {
      "color": "#c91847",
      "outputModuleId": 4,
      "outputId": 1,
      "inputModuleId": 6,
      "inputId": 2
    },
    {
      "color": "#0c8e15",
      "outputModuleId": 8,
      "outputId": 0,
      "inputModuleId": 3,
      "inputId": 0
    },
    {
      "color": "#0986ad",
      "outputModuleId": 9,
      "outputId": 0,
      "inputModuleId": 3,
      "inputId": 1
    },
    {
      "color": "#c9b70e",
      "outputModuleId": 1,
      "outputId": 0,
      "inputModuleId": 7,
      "inputId": 1
    },
    {
      "color": "#0986ad",
      "outputModuleId": 4,
      "outputId": 0,
      "inputModuleId": 6,
      "inputId": 1
    },
    {
      "color": "#c9b70e",
      "outputModuleId": 4,
      "outputId": 0,
      "inputModuleId": 5,
      "inputId": 1
    },
    {
      "color": "#c91847",
      "outputModuleId": 10,
      "outputId": 0,
      "inputModuleId": 5,
      "inputId": 0
    },
    {
      "color": "#0c8e15",
      "outputModuleId": 10,
      "outputId": 0,
      "inputModuleId": 6,
      "inputId": 0
    },
    {
      "color": "#0986ad",
      "outputModuleId": 10,
      "outputId": 1,
      "inputModuleId": 5,
      "inputId": 3
    },
    {
      "color": "#c9b70e",
      "outputModuleId": 10,
      "outputId": 1,
      "inputModuleId": 6,
      "inputId": 3
    },
    {
      "color": "#0c8e15",
      "outputModuleId": 14,
      "outputId": 0,
      "inputModuleId": 17,
      "inputId": 0
    },
    {
      "color": "#c9b70e",
      "outputModuleId": 9,
      "outputId": 0,
      "inputModuleId": 16,
      "inputId": 0
    },
    {
      "color": "#c91847",
      "outputModuleId": 8,
      "outputId": 0,
      "inputModuleId": 16,
      "inputId": 1
    },
    {
      "color": "#0c8e15",
      "outputModuleId": 8,
      "outputId": 0,
      "inputModuleId": 0,
      "inputId": 0
    },
    {
      "color": "#0986ad",
      "outputModuleId": 9,
      "outputId": 0,
      "inputModuleId": 0,
      "inputId": 1
    },
    {
      "color": "#c91847",
      "outputModuleId": 11,
      "outputId": 0,
      "inputModuleId": 1,
      "inputId": 1
    },
    {
      "color": "#0c8e15",
      "outputModuleId": 17,
      "outputId": 0,
      "inputModuleId": 1,
      "inputId": 2
    },
    {
      "color": "#0986ad",
      "outputModuleId": 15,
      "outputId": 0,
      "inputModuleId": 17,
      "inputId": 9
    },
    {
      "color": "#c91847",
      "outputModuleId": 18,
      "outputId": 0,
      "inputModuleId": 19,
      "inputId": 1
    },
    {
      "color": "#0c8e15",
      "outputModuleId": 19,
      "outputId": 1,
      "inputModuleId": 17,
      "inputId": 1
    },
    {
      "color": "#c9b70e",
      "outputModuleId": 18,
      "outputId": 2,
      "inputModuleId": 14,
      "inputId": 4
    },
    {
      "color": "#c91847",
      "outputModuleId": 14,
      "outputId": 0,
      "inputModuleId": 20,
      "inputId": 3
    },
    {
      "color": "#0c8e15",
      "outputModuleId": 18,
      "outputId": 11,
      "inputModuleId": 20,
      "inputId": 2
    },
    {
      "color": "#0986ad",
      "outputModuleId": 20,
      "outputId": 1,
      "inputModuleId": 30,
      "inputId": 1
    },
    {
      "color": "#0986ad",
      "outputModuleId": 21,
      "outputId": 3,
      "inputModuleId": 22,
      "inputId": 3
    },
    {
      "color": "#c9b70e",
      "outputModuleId": 22,
      "outputId": 0,
      "inputModuleId": 7,
      "inputId": 2
    },
    {
      "color": "#0c8e15",
      "outputModuleId": 18,
      "outputId": 11,
      "inputModuleId": 23,
      "inputId": 0
    },
    {
      "color": "#c9b70e",
      "outputModuleId": 18,
      "outputId": 4,
      "inputModuleId": 23,
      "inputId": 1
    },
    {
      "color": "#c91847",
      "outputModuleId": 18,
      "outputId": 6,
      "inputModuleId": 23,
      "inputId": 2
    },
    {
      "color": "#c9b70e",
      "outputModuleId": 23,
      "outputId": 0,
      "inputModuleId": 25,
      "inputId": 0
    },
    {
      "color": "#0986ad",
      "outputModuleId": 23,
      "outputId": 0,
      "inputModuleId": 24,
      "inputId": 0
    },
    {
      "color": "#c9b70e",
      "outputModuleId": 14,
      "outputId": 0,
      "inputModuleId": 23,
      "inputId": 4
    },
    {
      "color": "#c91847",
      "outputModuleId": 24,
      "outputId": 0,
      "inputModuleId": 26,
      "inputId": 4
    },
    {
      "color": "#0c8e15",
      "outputModuleId": 26,
      "outputId": 0,
      "inputModuleId": 1,
      "inputId": 3
    },
    {
      "color": "#0986ad",
      "outputModuleId": 14,
      "outputId": 0,
      "inputModuleId": 26,
      "inputId": 1
    },
    {
      "color": "#c9b70e",
      "outputModuleId": 13,
      "outputId": 2,
      "inputModuleId": 24,
      "inputId": 3
    },
    {
      "color": "#0c8e15",
      "outputModuleId": 20,
      "outputId": 1,
      "inputModuleId": 27,
      "inputId": 2
    },
    {
      "color": "#c9b70e",
      "outputModuleId": 27,
      "outputId": 0,
      "inputModuleId": 15,
      "inputId": 1
    },
    {
      "color": "#c91847",
      "outputModuleId": 15,
      "outputId": 1,
      "inputModuleId": 26,
      "inputId": 0
    },
    {
      "color": "#c9b70e",
      "outputModuleId": 18,
      "outputId": 4,
      "inputModuleId": 28,
      "inputId": 0
    },
    {
      "color": "#c91847",
      "outputModuleId": 18,
      "outputId": 5,
      "inputModuleId": 28,
      "inputId": 2
    },
    {
      "color": "#0c8e15",
      "outputModuleId": 18,
      "outputId": 8,
      "inputModuleId": 28,
      "inputId": 3
    },
    {
      "color": "#0986ad",
      "outputModuleId": 18,
      "outputId": 9,
      "inputModuleId": 28,
      "inputId": 4
    },
    {
      "color": "#c91847",
      "outputModuleId": 18,
      "outputId": 10,
      "inputModuleId": 28,
      "inputId": 5
    },
    {
      "color": "#0c8e15",
      "outputModuleId": 28,
      "outputId": 0,
      "inputModuleId": 23,
      "inputId": 3
    },
    {
      "color": "#0c8e15",
      "outputModuleId": 23,
      "outputId": 0,
      "inputModuleId": 29,
      "inputId": 4
    },
    {
      "color": "#0986ad",
      "outputModuleId": 29,
      "outputId": 0,
      "inputModuleId": 1,
      "inputId": 6
    },
    {
      "color": "#0986ad",
      "outputModuleId": 19,
      "outputId": 0,
      "inputModuleId": 3,
      "inputId": 3
    },
    {
      "color": "#c91847",
      "outputModuleId": 17,
      "outputId": 1,
      "inputModuleId": 21,
      "inputId": 3
    },
    {
      "color": "#0c8e15",
      "outputModuleId": 31,
      "outputId": 1,
      "inputModuleId": 32,
      "inputId": 2
    },
    {
      "color": "#c91847",
      "outputModuleId": 21,
      "outputId": 0,
      "inputModuleId": 21,
      "inputId": 1
    },
    {
      "color": "#0986ad",
      "outputModuleId": 18,
      "outputId": 6,
      "inputModuleId": 31,
      "inputId": 1
    },
    {
      "color": "#c9b70e",
      "outputModuleId": 30,
      "outputId": 0,
      "inputModuleId": 21,
      "inputId": 0
    },
    {
      "color": "#c91847",
      "outputModuleId": 32,
      "outputId": 0,
      "inputModuleId": 30,
      "inputId": 0
    },
    {
      "color": "#c9b70e",
      "outputModuleId": 31,
      "outputId": 1,
      "inputModuleId": 22,
      "inputId": 0
    },
    {
      "color": "#c9b70e",
      "outputModuleId": 18,
      "outputId": 3,
      "inputModuleId": 15,
      "inputId": 0
    },
    {
      "color": "#c91847",
      "outputModuleId": 31,
      "outputId": 6,
      "inputModuleId": 19,
      "inputId": 0
    },
    {
      "color": "#0986ad",
      "outputModuleId": 24,
      "outputId": 0,
      "inputModuleId": 12,
      "inputId": 0
    },
    {
      "color": "#c9b70e",
      "outputModuleId": 26,
      "outputId": 0,
      "inputModuleId": 12,
      "inputId": 1
    }
  ]
}