{
  "version": "0.5.1",
  "modules": [
    {
      "plugin": "Fundamental",
      "model": "Scope",
      "pos": [
        1950.0,
        380.0
      ],
      "params": [
        0.0,
        0.0,
        0.0,
        0.0,
        -16.0,
        0.0,
        0.0,
        0.0
      ],
      "data": {
        "lissajous": 1,
        "external": 0
      }
    },
    {
      "plugin": "Core",
      "model": "AudioInterface",
      "pos": [
        1425.0,
        380.0
      ],
      "params": [],
      "data": {
        "driver": 8,
        "device": 1,
        "sampleRate": 44100.0,
        "blockSize": 1024
      }
    },
    {
      "plugin": "Bogaudio",
      "model": "Bogaudio-Analyzer",
      "pos": [
        1185.0,
        0.0
      ],
      "params": [
        0.5,
        0.16699986159801483,
        2.0,
        1.0
      ]
    },
    {
      "plugin": "Fundamental",
      "model": "VCMixer",
      "pos": [
        1275.0,
        380.0
      ],
      "params": [
        0.42450010776519775,
        0.0,
        1.0,
        0.97800004482269287
      ]
    },
    {
      "plugin": "TechTechTechnologies",
      "model": "Ouroboros",
      "pos": [
        855.0,
        380.0
      ],
      "params": [
        -0.89600032567977905,
        1.5659984350204468,
        0.04899989441037178,
        0.0,
        1.0,
        2.0,
        1.0,
        2.0,
        1.0,
        2.0,
        1.0,
        2.0
      ]
    },
    {
      "plugin": "Fundamental",
      "model": "VCO",
      "pos": [
        945.0,
        0.0
      ],
      "params": [
        1.0,
        1.0,
        -5.9400010108947754,
        -0.045000001788139343,
        0.5,
        1.0,
        0.0
      ]
    },
    {
      "plugin": "Fundamental",
      "model": "SEQ3",
      "pos": [
        255.0,
        380.0
      ],
      "params": [
        -2.0,
        0.0,
        0.0,
        8.0,
        0.0,
        0.12000000476837158,
        10.0,
        0.0,
        0.90999901294708252,
        0.0,
        10.0,
        0.0,
        2.6250002384185791,
        0.16500000655651093,
        2.4449987411499023,
        0.0,
        1.4549996852874756,
        0.37500074505805969,
        10.0,
        0.0,
        0.0,
        0.37500065565109253,
        3.0400009155273437,
        0.0,
        1.9800001382827759,
        0.0,
        10.0,
        0.0,
        0.37500005960464478,
        0.30000001192092896,
        10.0,
        0.0,
        0.030000003054738045,
        0.0,
        10.0,
        0.0
      ],
      "data": {
        "running": true,
        "gates": [
          1,
          1,
          1,
          1,
          1,
          1,
          1,
          1
        ],
        "gateMode": 0
      }
    },
    {
      "plugin": "Befaco",
      "model": "SlewLimiter",
      "pos": [
        585.0,
        380.0
      ],
      "params": [
        0.0,
        0.29100000858306885,
        0.31200003623962402
      ]
    },
    {
      "plugin": "Fundamental",
      "model": "LFO",
      "pos": [
        1455.0,
        760.0
      ],
      "params": [
        1.0,
        1.0,
        2.7029993534088135,
        0.69400006532669067,
        0.5,
        0.0,
        0.0
      ]
    },
    {
      "plugin": "Fundamental",
      "model": "VCF",
      "pos": [
        1155.0,
        380.0
      ],
      "params": [
        1.0,
        0.5,
        0.0,
        0.0,
        0.0
      ]
    },
    {
      "plugin": "Befaco",
      "model": "ABC",
      "pos": [
        420.0,
        0.0
      ],
      "params": [
        1.0,
        -1.0,
        0.083999983966350555,
        0.0
      ]
    },
    {
      "plugin": "Bogaudio",
      "model": "Bogaudio-SampleHold",
      "pos": [
        1050.0,
        380.0
      ],
      "params": [
        0.0,
        0.0
      ]
    },
    {
      "plugin": "Fundamental",
      "model": "Unity",
      "pos": [
        765.0,
        380.0
      ],
      "params": [
        0.0,
        0.0
      ],
      "data": {
        "merge": false
      }
    },
    {
      "plugin": "Fundamental",
      "model": "VCO",
      "pos": [
        1485.0,
        0.0
      ],
      "params": [
        1.0,
        1.0,
        -6.2640032768249512,
        -0.045000001788139343,
        0.5,
        0.0,
        0.0
      ]
    },
    {
      "plugin": "Fundamental",
      "model": "ADSR",
      "pos": [
        1020.0,
        760.0
      ],
      "params": [
        0.0,
        0.57200014591217041,
        0.21199990808963776,
        0.61999964714050293
      ]
    },
    {
      "plugin": "Befaco",
      "model": "SpringReverb",
      "pos": [
        1320.0,
        760.0
      ],
      "params": [
        0.60599970817565918,
        0.65549981594085693,
        0.62399977445602417,
        0.5
      ]
    },
    {
      "plugin": "Fundamental",
      "model": "VCA",
      "pos": [
        1185.0,
        760.0
      ],
      "params": [
        0.5,
        1.0
      ]
    },
    {
      "plugin": "Bogaudio",
      "model": "Bogaudio-SampleHold",
      "pos": [
        315.0,
        0.0
      ],
      "params": [
        0.0,
        0.0
      ]
    },
    {
      "plugin": "Bogaudio",
      "model": "Bogaudio-Noise",
      "pos": [
        210.0,
        0.0
      ],
      "params": []
    },
    {
      "plugin": "Fundamental",
      "model": "VCO",
      "pos": [
        45.0,
        0.0
      ],
      "params": [
        1.0,
        1.0,
        -54.0,
        0.0,
        0.5,
        0.0,
        0.0
      ]
    },
    {
      "plugin": "Fundamental",
      "model": "LFO",
      "pos": [
        60.0,
        380.0
      ],
      "params": [
        1.0,
        1.0,
        3.3050003051757813,
        0.0,
        0.5,
        0.0,
        0.0
      ]
    },
    {
      "plugin": "AudibleInstruments",
      "model": "Elements",
      "pos": [
        1665.0,
        760.0
      ],
      "params": [
        0.70149993896484375,
        1.0,
        1.0,
        0.21599984169006348,
        -30.0,
        0.0,
        0.0,
        1.0,
        0.61350047588348389,
        0.58050066232681274,
        0.0,
        1.0,
        1.0,
        0.0,
        0.99099987745285034,
        1.0,
        0.045000210404396057,
        0.0,
        0.0,
        0.0,
        0.0,
        0.0,
        0.0,
        -0.5,
        0.0,
        0.0,
        0.0,
        0.0
      ],
      "data": {
        "model": 0
      }
    },
    {
      "plugin": "Fundamental",
      "model": "Unity",
      "pos": [
        2205.0,
        760.0
      ],
      "params": [
        0.0,
        0.0
      ],
      "data": {
        "merge": false
      }
    },
    {
      "plugin": "AudibleInstruments",
      "model": "Frames",
      "pos": [
        1755.0,
        0.0
      ],
      "params": [
        0.0,
        0.090000003576278687,
        0.1784999668598175,
        0.0,
        0.0,
        1.0,
        0.0,
        0.0,
        1.0
      ],
      "data": {
        "polyLfo": false,
        "keyframes": [
          [
            0,
            65535,
            5898,
            11697,
            0
          ],
          [
            45907,
            0,
            0,
            11697,
            0
          ]
        ],
        "channels": [
          {
            "curve": 1,
            "response": 0
          },
          {
            "curve": 1,
            "response": 0
          },
          {
            "curve": 1,
            "response": 0
          },
          {
            "curve": 1,
            "response": 0
          }
        ]
      }
    },
    {
      "plugin": "Fundamental",
      "model": "Scope",
      "pos": [
        825.0,
        760.0
      ],
      "params": [
        0.0,
        0.0,
        0.0,
        0.0,
        -6.4249935150146484,
        0.0,
        5.0400009155273437,
        0.0
      ],
      "data": {
        "lissajous": 0,
        "external": 0
      }
    },
    {
      "plugin": "Befaco",
      "model": "ABC",
      "pos": [
        390.0,
        760.0
      ],
      "params": [
        1.0,
        0.0,
        1.0,
        0.0
      ]
    },
    {
      "plugin": "AudibleInstruments",
      "model": "Kinks",
      "pos": [
        210.0,
        760.0
      ],
      "params": []
    },
    {
      "plugin": "Fundamental",
      "model": "LFO",
      "pos": [
        15.0,
        760.0
      ],
      "params": [
        1.0,
        1.0,
        -3.4640090465545654,
        0.0,
        0.48600015044212341,
        0.0,
        0.0
      ]
    },
    {
      "plugin": "Befaco",
      "model": "DualAtenuverter",
      "pos": [
        315.0,
        760.0
      ],
      "params": [
        0.0,
        0.0,
        -1.0,
        10.0
      ]
    },
    {
      "plugin": "Befaco",
      "model": "SlewLimiter",
      "pos": [
        540.0,
        760.0
      ],
      "params": [
        0.0,
        0.74499934911727905,
        0.0
      ]
    },
    {
      "plugin": "Befaco",
      "model": "Mixer",
      "pos": [
        675.0,
        760.0
      ],
      "params": [
        1.0,
        1.0,
        1.0,
        1.0
      ]
    },
    {
      "plugin": "AudibleInstruments",
      "model": "Kinks",
      "pos": [
        510.0,
        0.0
      ],
      "params": []
    },
    {
      "plugin": "Fundamental",
      "model": "LFO",
      "pos": [
        600.0,
        0.0
      ],
      "params": [
        1.0,
        1.0,
        -1.0,
        0.0,
        0.5,
        0.0,
        0.0
      ]
    }
  ],
  "wires": [
    {
      "outputModuleId": 3,
      "outputId": 0,
      "inputModuleId": 1,
      "inputId": 0
    },
    {
      "outputModuleId": 3,
      "outputId": 0,
      "inputModuleId": 1,
      "inputId": 1
    },
    {
      "outputModuleId": 4,
      "outputId": 0,
      "inputModuleId": 2,
      "inputId": 0
    },
    {
      "outputModuleId": 6,
      "outputId": 1,
      "inputModuleId": 7,
      "inputId": 2
    },
    {
      "outputModuleId": 6,
      "outputId": 2,
      "inputModuleId": 7,
      "inputId": 0
    },
    {
      "outputModuleId": 6,
      "outputId": 2,
      "inputModuleId": 7,
      "inputId": 1
    },
    {
      "outputModuleId": 4,
      "outputId": 0,
      "inputModuleId": 11,
      "inputId": 3
    },
    {
      "outputModuleId": 4,
      "outputId": 0,
      "inputModuleId": 3,
      "inputId": 1
    },
    {
      "outputModuleId": 5,
      "outputId": 3,
      "inputModuleId": 11,
      "inputId": 2
    },
    {
      "outputModuleId": 7,
      "outputId": 0,
      "inputModuleId": 12,
      "inputId": 2
    },
    {
      "outputModuleId": 11,
      "outputId": 1,
      "inputModuleId": 16,
      "inputId": 5
    },
    {
      "outputModuleId": 11,
      "outputId": 1,
      "inputModuleId": 2,
      "inputId": 1
    },
    {
      "outputModuleId": 13,
      "outputId": 0,
      "inputModuleId": 5,
      "inputId": 1
    },
    {
      "outputModuleId": 14,
      "outputId": 0,
      "inputModuleId": 16,
      "inputId": 4
    },
    {
      "outputModuleId": 6,
      "outputId": 0,
      "inputModuleId": 14,
      "inputId": 4
    },
    {
      "outputModuleId": 16,
      "outputId": 1,
      "inputModuleId": 15,
      "inputId": 2
    },
    {
      "outputModuleId": 15,
      "outputId": 0,
      "inputModuleId": 21,
      "inputId": 3
    },
    {
      "outputModuleId": 16,
      "outputId": 1,
      "inputModuleId": 15,
      "inputId": 3
    },
    {
      "outputModuleId": 8,
      "outputId": 0,
      "inputModuleId": 15,
      "inputId": 4
    },
    {
      "outputModuleId": 6,
      "outputId": 3,
      "inputModuleId": 12,
      "inputId": 6
    },
    {
      "outputModuleId": 12,
      "outputId": 2,
      "inputModuleId": 6,
      "inputId": 0
    },
    {
      "outputModuleId": 20,
      "outputId": 3,
      "inputModuleId": 17,
      "inputId": 2
    },
    {
      "outputModuleId": 18,
      "outputId": 0,
      "inputModuleId": 17,
      "inputId": 3
    },
    {
      "outputModuleId": 17,
      "outputId": 1,
      "inputModuleId": 10,
      "inputId": 3
    },
    {
      "outputModuleId": 10,
      "outputId": 1,
      "inputModuleId": 12,
      "inputId": 8
    },
    {
      "outputModuleId": 21,
      "outputId": 0,
      "inputModuleId": 3,
      "inputId": 3
    },
    {
      "outputModuleId": 6,
      "outputId": 0,
      "inputModuleId": 22,
      "inputId": 2
    },
    {
      "outputModuleId": 22,
      "outputId": 0,
      "inputModuleId": 21,
      "inputId": 2
    },
    {
      "outputModuleId": 15,
      "outputId": 0,
      "inputModuleId": 3,
      "inputId": 5
    },
    {
      "outputModuleId": 23,
      "outputId": 1,
      "inputModuleId": 22,
      "inputId": 4
    },
    {
      "outputModuleId": 23,
      "outputId": 3,
      "inputModuleId": 21,
      "inputId": 12
    },
    {
      "outputModuleId": 27,
      "outputId": 3,
      "inputModuleId": 28,
      "inputId": 1
    },
    {
      "outputModuleId": 28,
      "outputId": 1,
      "inputModuleId": 25,
      "inputId": 4
    },
    {
      "outputModuleId": 6,
      "outputId": 0,
      "inputModuleId": 25,
      "inputId": 3
    },
    {
      "outputModuleId": 25,
      "outputId": 1,
      "inputModuleId": 27,
      "inputId": 2
    },
    {
      "outputModuleId": 27,
      "outputId": 3,
      "inputModuleId": 29,
      "inputId": 2
    },
    {
      "outputModuleId": 29,
      "outputId": 0,
      "inputModuleId": 30,
      "inputId": 0
    },
    {
      "outputModuleId": 28,
      "outputId": 1,
      "inputModuleId": 30,
      "inputId": 2
    },
    {
      "outputModuleId": 30,
      "outputId": 0,
      "inputModuleId": 23,
      "inputId": 5
    },
    {
      "outputModuleId": 30,
      "outputId": 0,
      "inputModuleId": 24,
      "inputId": 0
    },
    {
      "outputModuleId": 32,
      "outputId": 1,
      "inputModuleId": 10,
      "inputId": 0
    },
    {
      "outputModuleId": 10,
      "outputId": 0,
      "inputModuleId": 31,
      "inputId": 0
    },
    {
      "outputModuleId": 31,
      "outputId": 2,
      "inputModuleId": 31,
      "inputId": 1
    },
    {
      "outputModuleId": 3,
      "outputId": 2,
      "inputModuleId": 0,
      "inputId": 0
    },
    {
      "outputModuleId": 3,
      "outputId": 3,
      "inputModuleId": 0,
      "inputId": 1
    }
  ]
}