{
  "version": "0.5.1",
  "modules": [
    {
      "plugin": "Core",
      "model": "AudioInterface",
      "pos": [
        1455.0,
        0.0
      ],
      "params": [],
      "data": {
        "driver": 8,
        "device": 1,
        "sampleRate": 48000.0,
        "blockSize": 256
      }
    },
    {
      "plugin": "Fundamental",
      "model": "VCMixer",
      "pos": [
        1275.0,
        0.0
      ],
      "params": [
        0.401999831199646,
        1.0,
        0.72450000047683716,
        0.63300007581710815
      ]
    },
    {
      "plugin": "Bogaudio",
      "model": "Bogaudio-Analyzer",
      "pos": [
        945.0,
        0.0
      ],
      "params": [
        1.0,
        1.0,
        2.0,
        1.0
      ]
    },
    {
      "plugin": "Fundamental",
      "model": "Scope",
      "pos": [
        1470.0,
        380.0
      ],
      "params": [
        0.0,
        0.0,
        0.0,
        0.0,
        -16.0,
        0.0,
        0.68999999761581421,
        0.0
      ],
      "data": {
        "lissajous": 0,
        "external": 0
      }
    },
    {
      "plugin": "TechTechTechnologies",
      "model": "Ouroboros",
      "pos": [
        780.0,
        380.0
      ],
      "params": [
        -2.0,
        0.75599944591522217,
        0.13199999928474426,
        0.0,
        0.16499999165534973,
        0.0,
        0.10199999809265137,
        0.0,
        0.1080000028014183,
        0.0,
        0.15900002419948578,
        0.0
      ]
    },
    {
      "plugin": "Bogaudio",
      "model": "Bogaudio-Noise",
      "pos": [
        600.0,
        380.0
      ],
      "params": []
    },
    {
      "plugin": "Befaco",
      "model": "ABC",
      "pos": [
        690.0,
        380.0
      ],
      "params": [
        0.56700003147125244,
        0.0,
        0.0,
        0.0
      ]
    },
    {
      "plugin": "Fundamental",
      "model": "Unity",
      "pos": [
        960.0,
        380.0
      ],
      "params": [
        0.0,
        0.0
      ],
      "data": {
        "merge": false
      }
    },
    {
      "plugin": "Fundamental",
      "model": "Unity",
      "pos": [
        1290.0,
        380.0
      ],
      "params": [
        0.0,
        0.0
      ],
      "data": {
        "merge": false
      }
    },
    {
      "plugin": "Fundamental",
      "model": "VCO",
      "pos": [
        765.0,
        0.0
      ],
      "params": [
        0.0,
        1.0,
        -54.0,
        0.0,
        0.5,
        0.0,
        0.0
      ]
    },
    {
      "plugin": "Fundamental",
      "model": "SEQ3",
      "pos": [
        255.0,
        0.0
      ],
      "params": [
        2.0,
        0.0,
        0.0,
        8.0,
        0.0,
        0.0,
        0.0,
        0.0,
        0.40499997138977051,
        0.0,
        0.0,
        0.0,
        1.2599998712539673,
        0.0,
        0.0,
        0.0,
        1.0349997282028198,
        0.0,
        0.0,
        0.0,
        1.0799999237060547,
        0.0,
        0.0,
        0.0,
        2.010000467300415,
        0.0,
        0.0,
        0.0,
        1.8300018310546875,
        0.0,
        0.0,
        0.0,
        1.0800007581710815,
        0.0,
        0.0,
        0.0
      ],
      "data": {
        "running": true,
        "gates": [
          1,
          1,
          1,
          1,
          1,
          1,
          1,
          1
        ],
        "gateMode": 0
      }
    },
    {
      "plugin": "Bogaudio",
      "model": "Bogaudio-SampleHold",
      "pos": [
        645.0,
        380.0
      ],
      "params": [
        0.0,
        0.0
      ]
    },
    {
      "plugin": "Fundamental",
      "model": "VCO",
      "pos": [
        90.0,
        380.0
      ],
      "params": [
        1.0,
        1.0,
        -3.1320102214813232,
        0.0,
        0.5,
        1.0,
        0.0
      ]
    },
    {
      "plugin": "Fundamental",
      "model": "LFO",
      "pos": [
        255.0,
        380.0
      ],
      "params": [
        1.0,
        1.0,
        0.41400063037872314,
        1.0,
        0.5,
        0.0,
        0.0
      ]
    },
    {
      "plugin": "Fundamental",
      "model": "Scope",
      "pos": [
        405.0,
        380.0
      ],
      "params": [
        0.0,
        0.0,
        0.0,
        0.0,
        -6.0,
        0.0,
        0.0,
        0.0
      ],
      "data": {
        "lissajous": 0,
        "external": 0
      }
    }
  ],
  "wires": [
    {
      "outputModuleId": 8,
      "outputId": 0,
      "inputModuleId": 0,
      "inputId": 0
    },
    {
      "outputModuleId": 8,
      "outputId": 0,
      "inputModuleId": 0,
      "inputId": 1
    },
    {
      "outputModuleId": 4,
      "outputId": 0,
      "inputModuleId": 7,
      "inputId": 0
    },
    {
      "outputModuleId": 4,
      "outputId": 0,
      "inputModuleId": 2,
      "inputId": 0
    },
    {
      "outputModuleId": 5,
      "outputId": 2,
      "inputModuleId": 11,
      "inputId": 1
    },
    {
      "outputModuleId": 4,
      "outputId": 0,
      "inputModuleId": 4,
      "inputId": 2
    },
    {
      "outputModuleId": 4,
      "outputId": 1,
      "inputModuleId": 4,
      "inputId": 3
    },
    {
      "outputModuleId": 4,
      "outputId": 1,
      "inputModuleId": 7,
      "inputId": 2
    },
    {
      "outputModuleId": 4,
      "outputId": 2,
      "inputModuleId": 4,
      "inputId": 4
    },
    {
      "outputModuleId": 4,
      "outputId": 2,
      "inputModuleId": 7,
      "inputId": 4
    },
    {
      "outputModuleId": 4,
      "outputId": 1,
      "inputModuleId": 2,
      "inputId": 1
    },
    {
      "outputModuleId": 4,
      "outputId": 2,
      "inputModuleId": 2,
      "inputId": 2
    },
    {
      "outputModuleId": 7,
      "outputId": 0,
      "inputModuleId": 1,
      "inputId": 1
    },
    {
      "outputModuleId": 7,
      "outputId": 0,
      "inputModuleId": 2,
      "inputId": 3
    },
    {
      "outputModuleId": 1,
      "outputId": 0,
      "inputModuleId": 8,
      "inputId": 4
    },
    {
      "outputModuleId": 8,
      "outputId": 0,
      "inputModuleId": 3,
      "inputId": 0
    },
    {
      "outputModuleId": 4,
      "outputId": 3,
      "inputModuleId": 4,
      "inputId": 5
    },
    {
      "outputModuleId": 4,
      "outputId": 4,
      "inputModuleId": 4,
      "inputId": 6
    },
    {
      "outputModuleId": 4,
      "outputId": 3,
      "inputModuleId": 7,
      "inputId": 1
    },
    {
      "outputModuleId": 4,
      "outputId": 4,
      "inputModuleId": 7,
      "inputId": 3
    },
    {
      "outputModuleId": 10,
      "outputId": 1,
      "inputModuleId": 4,
      "inputId": 0
    },
    {
      "outputModuleId": 6,
      "outputId": 0,
      "inputModuleId": 4,
      "inputId": 1
    },
    {
      "outputModuleId": 11,
      "outputId": 0,
      "inputModuleId": 6,
      "inputId": 0
    },
    {
      "outputModuleId": 9,
      "outputId": 3,
      "inputModuleId": 11,
      "inputId": 0
    },
    {
      "outputModuleId": 13,
      "outputId": 3,
      "inputModuleId": 10,
      "inputId": 1
    },
    {
      "outputModuleId": 12,
      "outputId": 3,
      "inputModuleId": 13,
      "inputId": 0
    },
    {
      "outputModuleId": 13,
      "outputId": 0,
      "inputModuleId": 12,
      "inputId": 1
    },
    {
      "outputModuleId": 13,
      "outputId": 3,
      "inputModuleId": 14,
      "inputId": 0
    }
  ]
}