{
  "version": "0.5.1",
  "modules": [
    {
      "plugin": "Core",
      "model": "AudioInterface",
      "pos": [
        1455.0,
        0.0
      ],
      "params": [],
      "data": {
        "driver": 8,
        "device": 0,
        "sampleRate": 48000.0,
        "blockSize": 256
      }
    },
    {
      "plugin": "Fundamental",
      "model": "LFO",
      "pos": [
        285.0,
        0.0
      ],
      "params": [
        1.0,
        1.0,
        -2.6169989109039307,
        0.0,
        0.5,
        0.0,
        0.0
      ]
    },
    {
      "plugin": "Fundamental",
      "model": "VCO",
      "pos": [
        495.0,
        380.0
      ],
      "params": [
        1.0,
        1.0,
        -21.438022613525391,
        0.0,
        0.5,
        0.20999999344348907,
        0.0
      ]
    },
    {
      "plugin": "Fundamental",
      "model": "VCMixer",
      "pos": [
        1275.0,
        0.0
      ],
      "params": [
        0.0089999446645379066,
        0.094500079751014709,
        0.0,
        1.0
      ]
    },
    {
      "plugin": "Fundamental",
      "model": "Scope",
      "pos": [
        1680.0,
        380.0
      ],
      "params": [
        1.0,
        0.0,
        -0.0,
        0.0,
        -16.0,
        0.0,
        0.15000030398368835,
        0.0
      ],
      "data": {
        "lissajous": 0,
        "external": 0
      }
    },
    {
      "plugin": "TechTechTechnologies",
      "model": "Polyphemus",
      "pos": [
        780.0,
        0.0
      ],
      "params": [
        0.051999922841787338,
        -0.024000003933906555,
        1.0,
        0.050999995321035385,
        0.24021004140377045,
        -0.026999998837709427,
        1.0,
        0.065999999642372131,
        0.32969999313354492,
        -0.0090000126510858536,
        1.0,
        0.071999989449977875,
        0.3956393301486969
      ]
    },
    {
      "plugin": "Bogaudio",
      "model": "Bogaudio-Noise",
      "pos": [
        615.0,
        0.0
      ],
      "params": []
    },
    {
      "plugin": "Fundamental",
      "model": "Mutes",
      "pos": [
        660.0,
        0.0
      ],
      "params": [
        0.0,
        0.0,
        0.0,
        0.0,
        0.0,
        0.0,
        0.0,
        0.0,
        0.0,
        0.0
      ],
      "data": {
        "states": [
          true,
          true,
          true,
          true,
          true,
          true,
          true,
          true,
          true,
          true
        ]
      }
    },
    {
      "plugin": "Bogaudio",
      "model": "Bogaudio-Analyzer",
      "pos": [
        945.0,
        0.0
      ],
      "params": [
        1.0,
        0.5,
        1.0,
        1.0
      ]
    },
    {
      "plugin": "Fundamental",
      "model": "VCMixer",
      "pos": [
        645.0,
        380.0
      ],
      "params": [
        1.0,
        0.32499957084655762,
        1.0,
        0.0
      ]
    },
    {
      "plugin": "Fundamental",
      "model": "LFO",
      "pos": [
        255.0,
        380.0
      ],
      "params": [
        1.0,
        1.0,
        1.5619992017745972,
        0.0,
        0.5,
        0.0,
        0.0
      ]
    },
    {
      "plugin": "Bogaudio",
      "model": "Bogaudio-Noise",
      "pos": [
        405.0,
        380.0
      ],
      "params": []
    },
    {
      "plugin": "Bogaudio",
      "model": "Bogaudio-SampleHold",
      "pos": [
        450.0,
        380.0
      ],
      "params": [
        0.0,
        0.0
      ]
    },
    {
      "plugin": "Fundamental",
      "model": "LFO",
      "pos": [
        810.0,
        380.0
      ],
      "params": [
        1.0,
        1.0,
        1.7719999551773071,
        0.22349999845027924,
        0.96649962663650513,
        0.0,
        0.0
      ]
    },
    {
      "plugin": "Befaco",
      "model": "ABC",
      "pos": [
        960.0,
        380.0
      ],
      "params": [
        0.0,
        1.0,
        -0.34799998998641968,
        -1.0
      ]
    },
    {
      "plugin": "TechTechTechnologies",
      "model": "Polyphemus",
      "pos": [
        1170.0,
        380.0
      ],
      "params": [
        2.0,
        1.0,
        0.0,
        0.0,
        0.084780268371105194,
        1.0,
        0.0,
        0.0,
        0.12716999650001526,
        1.0,
        0.0,
        0.0,
        0.17898017168045044
      ]
    },
    {
      "plugin": "Fundamental",
      "model": "Scope",
      "pos": [
        1455.0,
        380.0
      ],
      "params": [
        0.0,
        0.0,
        0.0,
        0.0,
        -14.0,
        0.0,
        0.0,
        0.0
      ],
      "data": {
        "lissajous": 0,
        "external": 0
      }
    },
    {
      "plugin": "Befaco",
      "model": "ABC",
      "pos": [
        1050.0,
        380.0
      ],
      "params": [
        0.86100000143051147,
        0.51299971342086792,
        0.0,
        0.0
      ]
    }
  ],
  "wires": [
    {
      "outputModuleId": 7,
      "outputId": 0,
      "inputModuleId": 5,
      "inputId": 0
    },
    {
      "outputModuleId": 7,
      "outputId": 0,
      "inputModuleId": 8,
      "inputId": 0
    },
    {
      "outputModuleId": 7,
      "outputId": 1,
      "inputModuleId": 5,
      "inputId": 1
    },
    {
      "outputModuleId": 7,
      "outputId": 1,
      "inputModuleId": 5,
      "inputId": 3
    },
    {
      "outputModuleId": 7,
      "outputId": 1,
      "inputModuleId": 5,
      "inputId": 5
    },
    {
      "outputModuleId": 7,
      "outputId": 2,
      "inputModuleId": 5,
      "inputId": 2
    },
    {
      "outputModuleId": 7,
      "outputId": 2,
      "inputModuleId": 5,
      "inputId": 4
    },
    {
      "outputModuleId": 7,
      "outputId": 2,
      "inputModuleId": 5,
      "inputId": 6
    },
    {
      "outputModuleId": 6,
      "outputId": 0,
      "inputModuleId": 7,
      "inputId": 0
    },
    {
      "outputModuleId": 14,
      "outputId": 1,
      "inputModuleId": 7,
      "inputId": 2
    },
    {
      "outputModuleId": 3,
      "outputId": 0,
      "inputModuleId": 4,
      "inputId": 0
    },
    {
      "outputModuleId": 3,
      "outputId": 0,
      "inputModuleId": 8,
      "inputId": 1
    },
    {
      "outputModuleId": 1,
      "outputId": 0,
      "inputModuleId": 2,
      "inputId": 1
    },
    {
      "outputModuleId": 2,
      "outputId": 3,
      "inputModuleId": 9,
      "inputId": 1
    },
    {
      "outputModuleId": 10,
      "outputId": 0,
      "inputModuleId": 9,
      "inputId": 2
    },
    {
      "outputModuleId": 9,
      "outputId": 1,
      "inputModuleId": 7,
      "inputId": 1
    },
    {
      "outputModuleId": 10,
      "outputId": 3,
      "inputModuleId": 12,
      "inputId": 0
    },
    {
      "outputModuleId": 11,
      "outputId": 2,
      "inputModuleId": 12,
      "inputId": 1
    },
    {
      "outputModuleId": 12,
      "outputId": 0,
      "inputModuleId": 2,
      "inputId": 0
    },
    {
      "outputModuleId": 2,
      "outputId": 1,
      "inputModuleId": 14,
      "inputId": 3
    },
    {
      "outputModuleId": 12,
      "outputId": 0,
      "inputModuleId": 13,
      "inputId": 0
    },
    {
      "outputModuleId": 14,
      "outputId": 1,
      "inputModuleId": 4,
      "inputId": 1
    },
    {
      "outputModuleId": 3,
      "outputId": 0,
      "inputModuleId": 0,
      "inputId": 0
    },
    {
      "outputModuleId": 3,
      "outputId": 0,
      "inputModuleId": 0,
      "inputId": 1
    },
    {
      "outputModuleId": 5,
      "outputId": 0,
      "inputModuleId": 3,
      "inputId": 1
    },
    {
      "outputModuleId": 6,
      "outputId": 0,
      "inputModuleId": 15,
      "inputId": 0
    },
    {
      "outputModuleId": 14,
      "outputId": 0,
      "inputModuleId": 17,
      "inputId": 0
    },
    {
      "outputModuleId": 17,
      "outputId": 0,
      "inputModuleId": 16,
      "inputId": 0
    },
    {
      "outputModuleId": 17,
      "outputId": 0,
      "inputModuleId": 15,
      "inputId": 1
    },
    {
      "outputModuleId": 17,
      "outputId": 0,
      "inputModuleId": 15,
      "inputId": 3
    },
    {
      "outputModuleId": 17,
      "outputId": 0,
      "inputModuleId": 15,
      "inputId": 5
    }
  ]
}