{
  "version": "0.5.1",
  "modules": [
    {
      "plugin": "Core",
      "model": "AudioInterface",
      "pos": [
        1455.0,
        0.0
      ],
      "params": [],
      "data": {
        "driver": 8,
        "device": 0,
        "sampleRate": 48000.0,
        "blockSize": 256
      }
    },
    {
      "plugin": "Fundamental",
      "model": "LFO",
      "pos": [
        285.0,
        0.0
      ],
      "params": [
        1.0,
        1.0,
        -2.6169989109039307,
        0.0,
        0.5,
        0.0,
        0.0
      ]
    },
    {
      "plugin": "Fundamental",
      "model": "VCO",
      "pos": [
        495.0,
        380.0
      ],
      "params": [
        1.0,
        1.0,
        -5.0759696960449219,
        0.0,
        0.5,
        0.20999999344348907,
        0.0
      ]
    },
    {
      "plugin": "Fundamental",
      "model": "VCMixer",
      "pos": [
        1275.0,
        0.0
      ],
      "params": [
        0.090000003576278687,
        0.011999927461147308,
        0.60550022125244141,
        1.0
      ]
    },
    {
      "plugin": "Fundamental",
      "model": "Scope",
      "pos": [
        1335.0,
        380.0
      ],
      "params": [
        0.0,
        0.0,
        0.0,
        0.0,
        -16.0,
        0.0,
        0.0,
        0.0
      ],
      "data": {
        "lissajous": 0,
        "external": 0
      }
    },
    {
      "plugin": "TechTechTechnologies",
      "model": "Polyphemus",
      "pos": [
        780.0,
        0.0
      ],
      "params": [
        0.21999889612197876,
        -0.024000003933906555,
        1.0,
        0.053999990224838257,
        0.26376008987426758,
        -0.026999998837709427,
        1.0,
        0.065999999642372131,
        0.63585007190704346,
        -0.0090000126510858536,
        1.0,
        0.071999989449977875,
        1.0220696926116943
      ]
    },
    {
      "plugin": "Bogaudio",
      "model": "Bogaudio-Noise",
      "pos": [
        555.0,
        0.0
      ],
      "params": []
    },
    {
      "plugin": "Fundamental",
      "model": "Mutes",
      "pos": [
        660.0,
        0.0
      ],
      "params": [
        0.0,
        0.0,
        0.0,
        0.0,
        0.0,
        0.0,
        0.0,
        0.0,
        0.0,
        0.0
      ],
      "data": {
        "states": [
          true,
          true,
          true,
          true,
          true,
          true,
          true,
          true,
          true,
          true
        ]
      }
    },
    {
      "plugin": "Bogaudio",
      "model": "Bogaudio-Analyzer",
      "pos": [
        945.0,
        0.0
      ],
      "params": [
        0.5,
        0.5,
        1.0,
        1.0
      ]
    }
  ],
  "wires": [
    {
      "outputModuleId": 3,
      "outputId": 0,
      "inputModuleId": 0,
      "inputId": 1
    },
    {
      "outputModuleId": 3,
      "outputId": 0,
      "inputModuleId": 0,
      "inputId": 0
    },
    {
      "outputModuleId": 7,
      "outputId": 0,
      "inputModuleId": 5,
      "inputId": 0
    },
    {
      "outputModuleId": 7,
      "outputId": 0,
      "inputModuleId": 8,
      "inputId": 0
    },
    {
      "outputModuleId": 7,
      "outputId": 1,
      "inputModuleId": 5,
      "inputId": 1
    },
    {
      "outputModuleId": 7,
      "outputId": 1,
      "inputModuleId": 5,
      "inputId": 3
    },
    {
      "outputModuleId": 7,
      "outputId": 1,
      "inputModuleId": 5,
      "inputId": 5
    },
    {
      "outputModuleId": 7,
      "outputId": 2,
      "inputModuleId": 5,
      "inputId": 2
    },
    {
      "outputModuleId": 7,
      "outputId": 2,
      "inputModuleId": 5,
      "inputId": 4
    },
    {
      "outputModuleId": 7,
      "outputId": 2,
      "inputModuleId": 5,
      "inputId": 6
    },
    {
      "outputModuleId": 6,
      "outputId": 0,
      "inputModuleId": 7,
      "inputId": 0
    },
    {
      "outputModuleId": 2,
      "outputId": 0,
      "inputModuleId": 7,
      "inputId": 2
    },
    {
      "outputModuleId": 3,
      "outputId": 0,
      "inputModuleId": 4,
      "inputId": 1
    },
    {
      "outputModuleId": 2,
      "outputId": 1,
      "inputModuleId": 7,
      "inputId": 1
    },
    {
      "outputModuleId": 3,
      "outputId": 0,
      "inputModuleId": 8,
      "inputId": 1
    },
    {
      "outputModuleId": 5,
      "outputId": 0,
      "inputModuleId": 3,
      "inputId": 1
    },
    {
      "outputModuleId": 1,
      "outputId": 0,
      "inputModuleId": 2,
      "inputId": 1
    }
  ]
}