{
  "version": "0.5.1",
  "modules": [
    {
      "plugin": "Core",
      "model": "AudioInterface",
      "pos": [
        1455.0,
        0.0
      ],
      "params": [],
      "data": {
        "driver": 8,
        "device": 0,
        "sampleRate": 48000.0,
        "blockSize": 256
      }
    },
    {
      "plugin": "Fundamental",
      "model": "VCMixer",
      "pos": [
        1275.0,
        0.0
      ],
      "params": [
        0.92749971151351929,
        0.57150006294250488,
        0.0,
        0.0
      ]
    },
    {
      "plugin": "Fundamental",
      "model": "Scope",
      "pos": [
        1680.0,
        380.0
      ],
      "params": [
        2.0,
        0.0,
        -0.0,
        0.0,
        -16.0,
        0.0,
        -0.90000057220458984,
        0.0
      ],
      "data": {
        "lissajous": 0,
        "external": 0
      }
    },
    {
      "plugin": "TechTechTechnologies",
      "model": "Polyphemus",
      "pos": [
        630.0,
        380.0
      ],
      "params": [
        1.0,
        0.30900022387504578,
        1.0,
        0.10500001162290573,
        0.56048965454101563,
        0.28200000524520874,
        1.0,
        0.11999999731779099,
        0.20723998546600342,
        0.29099997878074646,
        1.0,
        0.083999983966350555,
        0.94200003147125244,
        0.38099971413612366,
        0.0,
        0.086999863386154175,
        0.10832998156547546,
        0.0,
        0.9030001163482666,
        0.0,
        0.0
      ]
    },
    {
      "plugin": "Bogaudio",
      "model": "Bogaudio-Analyzer",
      "pos": [
        945.0,
        0.0
      ],
      "params": [
        1.0,
        0.5,
        2.0,
        1.0
      ]
    },
    {
      "plugin": "Fundamental",
      "model": "Scope",
      "pos": [
        1410.0,
        380.0
      ],
      "params": [
        0.0,
        0.0,
        0.0,
        0.0,
        -16.0,
        0.0,
        0.0,
        0.0
      ],
      "data": {
        "lissajous": 1,
        "external": 0
      }
    },
    {
      "plugin": "Fundamental",
      "model": "VCO",
      "pos": [
        510.0,
        0.0
      ],
      "params": [
        0.0,
        1.0,
        19.116003036499023,
        0.0,
        0.5,
        0.33449995517730713,
        1.0
      ]
    },
    {
      "plugin": "Fundamental",
      "model": "VCO",
      "pos": [
        900.0,
        380.0
      ],
      "params": [
        0.0,
        1.0,
        25.109992980957031,
        0.0,
        0.5,
        0.1465001255273819,
        0.0
      ]
    },
    {
      "plugin": "Fundamental",
      "model": "VCMixer",
      "pos": [
        690.0,
        0.0
      ],
      "params": [
        1.0,
        0.0,
        0.96899968385696411,
        0.0
      ]
    },
    {
      "plugin": "Bogaudio",
      "model": "Bogaudio-Noise",
      "pos": [
        225.0,
        0.0
      ],
      "params": []
    },
    {
      "plugin": "Fundamental",
      "model": "LFO",
      "pos": [
        90.0,
        380.0
      ],
      "params": [
        1.0,
        1.0,
        -4.9619994163513184,
        0.0,
        0.0,
        0.0,
        0.0
      ]
    },
    {
      "plugin": "Fundamental",
      "model": "LFO",
      "pos": [
        255.0,
        380.0
      ],
      "params": [
        1.0,
        1.0,
        1.8910044431686401,
        0.0,
        0.76800018548965454,
        0.0,
        0.0
      ]
    },
    {
      "plugin": "Bogaudio",
      "model": "Bogaudio-SampleHold",
      "pos": [
        270.0,
        0.0
      ],
      "params": [
        0.0,
        0.0
      ]
    },
    {
      "plugin": "Befaco",
      "model": "SlewLimiter",
      "pos": [
        435.0,
        380.0
      ],
      "params": [
        0.0,
        0.7844998836517334,
        0.7709999680519104
      ]
    },
    {
      "plugin": "Fundamental",
      "model": "VCO",
      "pos": [
        1110.0,
        380.0
      ],
      "params": [
        0.0,
        1.0,
        21.383987426757813,
        0.0,
        0.5,
        0.53199988603591919,
        0.65100014209747314
      ]
    },
    {
      "plugin": "Fundamental",
      "model": "VCO",
      "pos": [
        1260.0,
        380.0
      ],
      "params": [
        0.0,
        1.0,
        0.0,
        0.0,
        0.5,
        0.80349975824356079,
        0.65250003337860107
      ]
    },
    {
      "plugin": "Fundamental",
      "model": "SEQ3",
      "pos": [
        810.0,
        760.0
      ],
      "params": [
        2.0,
        0.0,
        0.0,
        8.0,
        0.74999988079071045,
        0.0,
        0.0,
        0.0,
        0.44999992847442627,
        0.0,
        0.0,
        0.0,
        0.62999922037124634,
        0.0,
        0.0,
        0.0,
        0.77999937534332275,
        0.0,
        0.0,
        0.0,
        1.1099988222122192,
        0.0,
        0.0,
        0.0,
        1.2449979782104492,
        0.0,
        0.0,
        0.0,
        1.439997673034668,
        0.0,
        0.0,
        0.0,
        1.2000007629394531,
        0.0,
        0.0,
        0.0
      ],
      "data": {
        "running": true,
        "gates": [
          1,
          1,
          1,
          1,
          1,
          1,
          1,
          1
        ],
        "gateMode": 0
      }
    }
  ],
  "wires": [
    {
      "outputModuleId": 1,
      "outputId": 0,
      "inputModuleId": 2,
      "inputId": 0
    },
    {
      "outputModuleId": 1,
      "outputId": 0,
      "inputModuleId": 4,
      "inputId": 1
    },
    {
      "outputModuleId": 1,
      "outputId": 0,
      "inputModuleId": 0,
      "inputId": 0
    },
    {
      "outputModuleId": 1,
      "outputId": 0,
      "inputModuleId": 0,
      "inputId": 1
    },
    {
      "outputModuleId": 3,
      "outputId": 0,
      "inputModuleId": 1,
      "inputId": 1
    },
    {
      "outputModuleId": 8,
      "outputId": 0,
      "inputModuleId": 3,
      "inputId": 0
    },
    {
      "outputModuleId": 6,
      "outputId": 3,
      "inputModuleId": 8,
      "inputId": 1
    },
    {
      "outputModuleId": 8,
      "outputId": 0,
      "inputModuleId": 4,
      "inputId": 0
    },
    {
      "outputModuleId": 9,
      "outputId": 2,
      "inputModuleId": 12,
      "inputId": 1
    },
    {
      "outputModuleId": 12,
      "outputId": 0,
      "inputModuleId": 13,
      "inputId": 2
    },
    {
      "outputModuleId": 11,
      "outputId": 3,
      "inputModuleId": 12,
      "inputId": 0
    },
    {
      "outputModuleId": 13,
      "outputId": 0,
      "inputModuleId": 6,
      "inputId": 1
    },
    {
      "outputModuleId": 13,
      "outputId": 0,
      "inputModuleId": 6,
      "inputId": 3
    },
    {
      "outputModuleId": 13,
      "outputId": 0,
      "inputModuleId": 2,
      "inputId": 1
    },
    {
      "outputModuleId": 7,
      "outputId": 0,
      "inputModuleId": 3,
      "inputId": 4
    },
    {
      "outputModuleId": 14,
      "outputId": 3,
      "inputModuleId": 15,
      "inputId": 1
    },
    {
      "outputModuleId": 1,
      "outputId": 2,
      "inputModuleId": 4,
      "inputId": 2
    },
    {
      "outputModuleId": 15,
      "outputId": 3,
      "inputModuleId": 14,
      "inputId": 1
    },
    {
      "outputModuleId": 15,
      "outputId": 0,
      "inputModuleId": 1,
      "inputId": 3
    },
    {
      "outputModuleId": 16,
      "outputId": 1,
      "inputModuleId": 14,
      "inputId": 0
    },
    {
      "outputModuleId": 16,
      "outputId": 1,
      "inputModuleId": 15,
      "inputId": 0
    },
    {
      "outputModuleId": 3,
      "outputId": 3,
      "inputModuleId": 4,
      "inputId": 3
    },
    {
      "outputModuleId": 3,
      "outputId": 4,
      "inputModuleId": 5,
      "inputId": 0
    },
    {
      "outputModuleId": 8,
      "outputId": 0,
      "inputModuleId": 3,
      "inputId": 8
    },
    {
      "outputModuleId": 3,
      "outputId": 5,
      "inputModuleId": 5,
      "inputId": 1
    },
    {
      "outputModuleId": 14,
      "outputId": 0,
      "inputModuleId": 3,
      "inputId": 9
    },
    {
      "outputModuleId": 15,
      "outputId": 0,
      "inputModuleId": 8,
      "inputId": 3
    },
    {
      "outputModuleId": 3,
      "outputId": 2,
      "inputModuleId": 1,
      "inputId": 5
    },
    {
      "outputModuleId": 7,
      "outputId": 0,
      "inputModuleId": 3,
      "inputId": 6
    },
    {
      "outputModuleId": 7,
      "outputId": 0,
      "inputModuleId": 3,
      "inputId": 2
    },
    {
      "outputModuleId": 7,
      "outputId": 1,
      "inputModuleId": 3,
      "inputId": 3
    },
    {
      "outputModuleId": 7,
      "outputId": 1,
      "inputModuleId": 3,
      "inputId": 5
    },
    {
      "outputModuleId": 7,
      "outputId": 1,
      "inputModuleId": 3,
      "inputId": 7
    }
  ]
}