{
  "version": "1.1.6",
  "modules": [
    {
      "id": 1,
      "plugin": "Core",
      "version": "1.1.6",
      "model": "AudioInterface",
      "params": [],
      "leftModuleId": 655,
      "rightModuleId": 656,
      "data": {
        "audio": {
          "driver": 1,
          "deviceName": "default",
          "offset": 0,
          "maxChannels": 8,
          "sampleRate": 48000,
          "blockSize": 512
        }
      },
      "pos": [
        147,
        1
      ]
    },
    {
      "id": 212,
      "plugin": "NYSTHI",
      "version": "1.0.9",
      "model": "MasterRecorder2",
      "params": [
        {
          "id": 0,
          "value": 0.0
        },
        {
          "id": 1,
          "value": 0.0
        },
        {
          "id": 2,
          "value": 0.0
        },
        {
          "id": 3,
          "value": 1.0
        },
        {
          "id": 4,
          "value": 1.0
        },
        {
          "id": 5,
          "value": 0.0
        },
        {
          "id": 6,
          "value": 0.0
        },
        {
          "id": 7,
          "value": 0.0
        },
        {
          "id": 8,
          "value": 0.0
        },
        {
          "id": 9,
          "value": 0.00499999989
        },
        {
          "id": 10,
          "value": 0.00999999978
        },
        {
          "id": 11,
          "value": 2.0
        },
        {
          "id": 12,
          "value": 0.5
        },
        {
          "id": 13,
          "value": 0.0
        },
        {
          "id": 14,
          "value": 0.100000001
        },
        {
          "id": 15,
          "value": 0.0
        },
        {
          "id": 16,
          "value": 1.0
        }
      ],
      "leftModuleId": 555,
      "rightModuleId": 651,
      "data": {
        "wavebits": 9,
        "rms_time": 0.00100000005,
        "peak_time": 0.5,
        "m_invertphaseleft": false,
        "m_invertphaseright": false,
        "m_locklevelleftright": false,
        "m_kompressor_active": false,
        "m_distort": false,
        "m_attenuation": 1.0,
        "m_enconding_format": "mp3",
        "m_encoding_bitrate": 320000,
        "m_autoenumeratefiles": true
      },
      "pos": [
        86,
        1
      ]
    },
    {
      "id": 225,
      "plugin": "Fundamental",
      "version": "1.4.0",
      "model": "Scope",
      "params": [
        {
          "id": 0,
          "value": 0.0
        },
        {
          "id": 1,
          "value": 0.0
        },
        {
          "id": 2,
          "value": 0.0
        },
        {
          "id": 3,
          "value": 0.0
        },
        {
          "id": 4,
          "value": 12.2799997
        },
        {
          "id": 5,
          "value": 0.0
        },
        {
          "id": 6,
          "value": 0.0
        },
        {
          "id": 7,
          "value": 0.0
        }
      ],
      "leftModuleId": 651,
      "rightModuleId": 576,
      "data": {
        "lissajous": 0,
        "external": 0
      },
      "pos": [
        105,
        1
      ]
    },
    {
      "id": 420,
      "plugin": "squinkylabs-plug1",
      "version": "1.0.5",
      "model": "squinkylabs-mixm",
      "params": [
        {
          "id": 0,
          "value": 0.538499832
        },
        {
          "id": 1,
          "value": 0.0
        },
        {
          "id": 2,
          "value": 0.0
        },
        {
          "id": 3,
          "value": 0.0
        },
        {
          "id": 4,
          "value": 0.0
        },
        {
          "id": 5,
          "value": 1.0
        },
        {
          "id": 6,
          "value": 0.0
        },
        {
          "id": 7,
          "value": 0.0
        },
        {
          "id": 8,
          "value": 0.0
        },
        {
          "id": 9,
          "value": 0.0
        },
        {
          "id": 10,
          "value": 0.0
        },
        {
          "id": 11,
          "value": 0.0
        },
        {
          "id": 12,
          "value": 0.0
        },
        {
          "id": 13,
          "value": 0.0
        },
        {
          "id": 14,
          "value": 0.0
        },
        {
          "id": 15,
          "value": 0.0
        },
        {
          "id": 16,
          "value": 0.0
        },
        {
          "id": 17,
          "value": 0.0
        },
        {
          "id": 18,
          "value": 0.0
        },
        {
          "id": 19,
          "value": 0.0
        },
        {
          "id": 20,
          "value": 0.0
        },
        {
          "id": 21,
          "value": 0.0
        },
        {
          "id": 22,
          "value": 0.228000045
        },
        {
          "id": 23,
          "value": 0.0
        },
        {
          "id": 24,
          "value": 0.0
        },
        {
          "id": 25,
          "value": 0.0
        },
        {
          "id": 26,
          "value": 0.0
        },
        {
          "id": 27,
          "value": 1.0
        },
        {
          "id": 28,
          "value": 0.0
        },
        {
          "id": 29,
          "value": 0.218999982
        },
        {
          "id": 30,
          "value": 0.0
        },
        {
          "id": 31,
          "value": 0.0
        },
        {
          "id": 32,
          "value": 0.0
        },
        {
          "id": 33,
          "value": 0.0
        },
        {
          "id": 34,
          "value": 0.0
        },
        {
          "id": 35,
          "value": 0.0
        },
        {
          "id": 36,
          "value": 0.0
        }
      ],
      "leftModuleId": 421,
      "rightModuleId": 429,
      "pos": [
        50,
        1
      ]
    },
    {
      "id": 421,
      "plugin": "squinkylabs-plug1",
      "version": "1.0.5",
      "model": "squinkylabs-mix4",
      "params": [
        {
          "id": 0,
          "value": 0.0
        },
        {
          "id": 1,
          "value": 0.0
        },
        {
          "id": 2,
          "value": 0.0
        },
        {
          "id": 3,
          "value": 0.0
        },
        {
          "id": 4,
          "value": 0.0
        },
        {
          "id": 5,
          "value": 0.0
        },
        {
          "id": 6,
          "value": 0.0
        },
        {
          "id": 7,
          "value": 0.0
        },
        {
          "id": 8,
          "value": 0.0
        },
        {
          "id": 9,
          "value": 0.0
        },
        {
          "id": 10,
          "value": 0.0
        },
        {
          "id": 11,
          "value": 0.0
        },
        {
          "id": 12,
          "value": 0.0
        },
        {
          "id": 13,
          "value": 0.0
        },
        {
          "id": 14,
          "value": 0.0
        },
        {
          "id": 15,
          "value": 0.0
        },
        {
          "id": 16,
          "value": 0.0
        },
        {
          "id": 17,
          "value": 0.0
        },
        {
          "id": 18,
          "value": 0.0
        },
        {
          "id": 19,
          "value": 0.0
        },
        {
          "id": 20,
          "value": 0.0
        },
        {
          "id": 21,
          "value": 0.0
        },
        {
          "id": 22,
          "value": 0.0
        },
        {
          "id": 23,
          "value": 0.0
        },
        {
          "id": 24,
          "value": 0.0
        },
        {
          "id": 25,
          "value": 0.0
        },
        {
          "id": 26,
          "value": 0.0
        },
        {
          "id": 27,
          "value": 0.0
        },
        {
          "id": 28,
          "value": 0.0
        },
        {
          "id": 29,
          "value": 0.0
        },
        {
          "id": 30,
          "value": 0.0
        },
        {
          "id": 31,
          "value": 0.0
        }
      ],
      "leftModuleId": 422,
      "rightModuleId": 420,
      "pos": [
        40,
        1
      ]
    },
    {
      "id": 422,
      "plugin": "squinkylabs-plug1",
      "version": "1.0.5",
      "model": "squinkylabs-mix4",
      "params": [
        {
          "id": 0,
          "value": 0.0
        },
        {
          "id": 1,
          "value": 0.0
        },
        {
          "id": 2,
          "value": 0.0
        },
        {
          "id": 3,
          "value": 0.0
        },
        {
          "id": 4,
          "value": 0.0
        },
        {
          "id": 5,
          "value": 0.0
        },
        {
          "id": 6,
          "value": 0.0
        },
        {
          "id": 7,
          "value": 0.0
        },
        {
          "id": 8,
          "value": 0.0
        },
        {
          "id": 9,
          "value": 0.0
        },
        {
          "id": 10,
          "value": 0.0
        },
        {
          "id": 11,
          "value": 0.0
        },
        {
          "id": 12,
          "value": 0.0
        },
        {
          "id": 13,
          "value": 0.0
        },
        {
          "id": 14,
          "value": 0.0
        },
        {
          "id": 15,
          "value": 0.0
        },
        {
          "id": 16,
          "value": 0.0
        },
        {
          "id": 17,
          "value": 0.0
        },
        {
          "id": 18,
          "value": 0.0
        },
        {
          "id": 19,
          "value": 0.0
        },
        {
          "id": 20,
          "value": 0.0
        },
        {
          "id": 21,
          "value": 0.0
        },
        {
          "id": 22,
          "value": 0.0
        },
        {
          "id": 23,
          "value": 0.0
        },
        {
          "id": 24,
          "value": 0.0
        },
        {
          "id": 25,
          "value": 0.0
        },
        {
          "id": 26,
          "value": 0.0
        },
        {
          "id": 27,
          "value": 0.0
        },
        {
          "id": 28,
          "value": 0.0
        },
        {
          "id": 29,
          "value": 0.0
        },
        {
          "id": 30,
          "value": 0.0
        },
        {
          "id": 31,
          "value": 0.0
        }
      ],
      "leftModuleId": 484,
      "rightModuleId": 421,
      "pos": [
        30,
        1
      ]
    },
    {
      "id": 429,
      "plugin": "Valley",
      "version": "1.0.1",
      "model": "Plateau",
      "params": [
        {
          "id": 0,
          "value": 0.0
        },
        {
          "id": 1,
          "value": 1.0
        },
        {
          "id": 2,
          "value": 0.0
        },
        {
          "id": 3,
          "value": 10.0
        },
        {
          "id": 4,
          "value": 10.0
        },
        {
          "id": 5,
          "value": 0.695000768
        },
        {
          "id": 6,
          "value": 10.0
        },
        {
          "id": 7,
          "value": 0.6322909
        },
        {
          "id": 8,
          "value": 10.0
        },
        {
          "id": 9,
          "value": 10.0
        },
        {
          "id": 10,
          "value": 0.0
        },
        {
          "id": 11,
          "value": 0.5
        },
        {
          "id": 12,
          "value": 0.5
        },
        {
          "id": 13,
          "value": 0.0
        },
        {
          "id": 14,
          "value": 0.0
        },
        {
          "id": 15,
          "value": 0.0
        },
        {
          "id": 16,
          "value": 0.0
        },
        {
          "id": 17,
          "value": 0.0
        },
        {
          "id": 18,
          "value": 0.0
        },
        {
          "id": 19,
          "value": 0.0
        },
        {
          "id": 20,
          "value": 0.0
        },
        {
          "id": 21,
          "value": 0.0
        },
        {
          "id": 22,
          "value": 0.0
        },
        {
          "id": 23,
          "value": 0.0
        },
        {
          "id": 24,
          "value": 0.0
        },
        {
          "id": 25,
          "value": 0.0
        },
        {
          "id": 26,
          "value": 0.0
        },
        {
          "id": 27,
          "value": 0.0
        },
        {
          "id": 28,
          "value": 0.0
        },
        {
          "id": 29,
          "value": 0.0
        },
        {
          "id": 30,
          "value": 1.0
        }
      ],
      "leftModuleId": 420,
      "rightModuleId": 555,
      "data": {
        "frozen": false,
        "freezeToggle": false,
        "panelStyle": 0,
        "tuned": 0,
        "diffuseInput": 1,
        "preDelayCVSens": 0,
        "inputSensitivity": 0,
        "outputSaturation": 0
      },
      "pos": [
        67,
        1
      ]
    },
    {
      "id": 439,
      "plugin": "Bogaudio",
      "version": "1.1.26",
      "model": "Bogaudio-AnalyzerXL",
      "params": [],
      "rightModuleId": 653,
      "data": {
        "range": 0.0,
        "range_db": 80.0,
        "smooth": 0.25,
        "quality": "good",
        "window": "kaiser"
      },
      "pos": [
        93,
        2
      ]
    },
    {
      "id": 442,
      "plugin": "ImpromptuModular",
      "version": "1.1.3",
      "model": "Clocked",
      "params": [
        {
          "id": 0,
          "value": 120.0
        },
        {
          "id": 1,
          "value": 5.0
        },
        {
          "id": 2,
          "value": 1.0
        },
        {
          "id": 3,
          "value": 0.0
        },
        {
          "id": 4,
          "value": 0.0
        },
        {
          "id": 5,
          "value": 0.0
        },
        {
          "id": 6,
          "value": 0.0
        },
        {
          "id": 7,
          "value": 0.0
        },
        {
          "id": 8,
          "value": 0.5
        },
        {
          "id": 9,
          "value": 0.5
        },
        {
          "id": 10,
          "value": 0.5
        },
        {
          "id": 11,
          "value": 0.5
        },
        {
          "id": 12,
          "value": 0.0
        },
        {
          "id": 13,
          "value": 0.0
        },
        {
          "id": 14,
          "value": 0.0
        },
        {
          "id": 15,
          "value": 0.0
        },
        {
          "id": 16,
          "value": 0.0
        },
        {
          "id": 17,
          "value": 0.0
        },
        {
          "id": 18,
          "value": 0.0
        },
        {
          "id": 19,
          "value": 0.0
        }
      ],
      "leftModuleId": 476,
      "rightModuleId": 566,
      "data": {
        "panelTheme": 0,
        "running": true,
        "displayDelayNoteMode": true,
        "bpmDetectionMode": false,
        "restartOnStopStartRun": 0,
        "sendResetOnRestart": false,
        "ppqn": 4,
        "resetClockOutputsHigh": true,
        "momentaryRunInput": true
      },
      "pos": [
        20,
        2
      ]
    },
    {
      "id": 474,
      "plugin": "MockbaModular",
      "version": "1.1.8",
      "model": "Dividah",
      "params": [],
      "leftModuleId": 579,
      "rightModuleId": 476,
      "pos": [
        16,
        2
      ]
    },
    {
      "id": 476,
      "plugin": "MockbaModular",
      "version": "1.1.8",
      "model": "Dividah",
      "params": [],
      "leftModuleId": 474,
      "rightModuleId": 442,
      "pos": [
        18,
        2
      ]
    },
    {
      "id": 484,
      "plugin": "squinkylabs-plug1",
      "version": "1.0.5",
      "model": "squinkylabs-mix4",
      "params": [
        {
          "id": 0,
          "value": 0.0
        },
        {
          "id": 1,
          "value": 0.0
        },
        {
          "id": 2,
          "value": 0.0
        },
        {
          "id": 3,
          "value": 0.0
        },
        {
          "id": 4,
          "value": 0.0
        },
        {
          "id": 5,
          "value": 0.0
        },
        {
          "id": 6,
          "value": 0.0
        },
        {
          "id": 7,
          "value": 0.0
        },
        {
          "id": 8,
          "value": 0.0
        },
        {
          "id": 9,
          "value": 0.0
        },
        {
          "id": 10,
          "value": 0.0
        },
        {
          "id": 11,
          "value": 0.0
        },
        {
          "id": 12,
          "value": 0.0
        },
        {
          "id": 13,
          "value": 0.0
        },
        {
          "id": 14,
          "value": 0.0
        },
        {
          "id": 15,
          "value": 0.0
        },
        {
          "id": 16,
          "value": 0.0
        },
        {
          "id": 17,
          "value": 0.0
        },
        {
          "id": 18,
          "value": 0.0
        },
        {
          "id": 19,
          "value": 0.0
        },
        {
          "id": 20,
          "value": 0.0
        },
        {
          "id": 21,
          "value": 0.0
        },
        {
          "id": 22,
          "value": 0.0
        },
        {
          "id": 23,
          "value": 0.0
        },
        {
          "id": 24,
          "value": 0.0
        },
        {
          "id": 25,
          "value": 0.0
        },
        {
          "id": 26,
          "value": 0.0
        },
        {
          "id": 27,
          "value": 0.0
        },
        {
          "id": 28,
          "value": 0.0
        },
        {
          "id": 29,
          "value": 0.0
        },
        {
          "id": 30,
          "value": 0.0
        },
        {
          "id": 31,
          "value": 0.0
        }
      ],
      "rightModuleId": 422,
      "pos": [
        20,
        1
      ]
    },
    {
      "id": 555,
      "plugin": "NYSTHI",
      "version": "1.0.9",
      "model": "ClockableDelay",
      "params": [
        {
          "id": 0,
          "value": 0.0
        },
        {
          "id": 1,
          "value": 0.0
        },
        {
          "id": 2,
          "value": 0.0
        },
        {
          "id": 3,
          "value": 1.0
        },
        {
          "id": 4,
          "value": 1.0
        },
        {
          "id": 5,
          "value": 1.0
        },
        {
          "id": 6,
          "value": 1.0
        },
        {
          "id": 7,
          "value": 0.0
        },
        {
          "id": 8,
          "value": 0.0
        },
        {
          "id": 9,
          "value": 0.0
        }
      ],
      "leftModuleId": 429,
      "rightModuleId": 212,
      "data": {
        "m_delay_time": 0.333251953,
        "m_delay_time_multiplier": 1.0,
        "m_feedback": 0.775999963,
        "m_feed_in": 0.0
      },
      "pos": [
        79,
        1
      ]
    },
    {
      "id": 557,
      "plugin": "squinkylabs-plug1",
      "version": "1.0.5",
      "model": "squinkylabs-filt",
      "params": [
        {
          "id": 0,
          "value": -2.29500031
        },
        {
          "id": 1,
          "value": 0.0
        },
        {
          "id": 2,
          "value": 0.0
        },
        {
          "id": 3,
          "value": -3.20000052
        },
        {
          "id": 4,
          "value": 0.0
        },
        {
          "id": 5,
          "value": 0.0
        },
        {
          "id": 6,
          "value": -5.0
        },
        {
          "id": 7,
          "value": 0.0
        },
        {
          "id": 8,
          "value": 0.0
        },
        {
          "id": 9,
          "value": 0.0
        },
        {
          "id": 10,
          "value": 0.0
        },
        {
          "id": 11,
          "value": 5.0
        },
        {
          "id": 12,
          "value": 0.0
        },
        {
          "id": 13,
          "value": 0.0
        },
        {
          "id": 14,
          "value": 0.685000181
        },
        {
          "id": 15,
          "value": 0.0
        }
      ],
      "leftModuleId": 566,
      "pos": [
        78,
        2
      ]
    },
    {
      "id": 562,
      "plugin": "ImpromptuModular",
      "version": "1.1.3",
      "model": "Twelve-Key",
      "params": [
        {
          "id": 0,
          "value": 0.0
        },
        {
          "id": 1,
          "value": 0.0
        },
        {
          "id": 2,
          "value": 0.0
        },
        {
          "id": 3,
          "value": 0.0
        }
      ],
      "leftModuleId": 575,
      "rightModuleId": 563,
      "data": {
        "panelTheme": 0,
        "octave": 2,
        "cv": -2.25,
        "vel": 0.357924104,
        "maxVel": 10.0,
        "stateInternal": false,
        "invertVel": false,
        "linkVelSettings": false
      },
      "pos": [
        20,
        3
      ]
    },
    {
      "id": 563,
      "plugin": "ImpromptuModular",
      "version": "1.1.3",
      "model": "Twelve-Key",
      "params": [
        {
          "id": 0,
          "value": 0.0
        },
        {
          "id": 1,
          "value": 0.0
        },
        {
          "id": 2,
          "value": 0.0
        },
        {
          "id": 3,
          "value": 0.0
        }
      ],
      "leftModuleId": 562,
      "rightModuleId": 564,
      "data": {
        "panelTheme": 0,
        "octave": 3,
        "cv": -2.25,
        "vel": 0.680747747,
        "maxVel": 10.0,
        "stateInternal": false,
        "invertVel": false,
        "linkVelSettings": false
      },
      "pos": [
        40,
        3
      ]
    },
    {
      "id": 564,
      "plugin": "ImpromptuModular",
      "version": "1.1.3",
      "model": "Twelve-Key",
      "params": [
        {
          "id": 0,
          "value": 0.0
        },
        {
          "id": 1,
          "value": 0.0
        },
        {
          "id": 2,
          "value": 0.0
        },
        {
          "id": 3,
          "value": 0.0
        }
      ],
      "leftModuleId": 563,
      "data": {
        "panelTheme": 0,
        "octave": 4,
        "cv": -2.25,
        "vel": 0.748660684,
        "maxVel": 10.0,
        "stateInternal": false,
        "invertVel": false,
        "linkVelSettings": false
      },
      "pos": [
        60,
        3
      ]
    },
    {
      "id": 566,
      "plugin": "ImpromptuModular",
      "version": "1.1.3",
      "model": "Foundry",
      "params": [
        {
          "id": 0,
          "value": 0.0
        },
        {
          "id": 3,
          "value": 0.0
        },
        {
          "id": 4,
          "value": 0.0
        },
        {
          "id": 5,
          "value": 0.0
        },
        {
          "id": 6,
          "value": 0.0
        },
        {
          "id": 7,
          "value": 0.0
        },
        {
          "id": 8,
          "value": 0.0
        },
        {
          "id": 9,
          "value": 0.0
        },
        {
          "id": 10,
          "value": 0.0
        },
        {
          "id": 11,
          "value": 0.0
        },
        {
          "id": 12,
          "value": 0.0
        },
        {
          "id": 13,
          "value": 0.0
        },
        {
          "id": 14,
          "value": 0.0
        },
        {
          "id": 15,
          "value": 0.0
        },
        {
          "id": 16,
          "value": 1.0
        },
        {
          "id": 17,
          "value": 0.0
        },
        {
          "id": 18,
          "value": 0.0
        },
        {
          "id": 19,
          "value": 0.0
        },
        {
          "id": 20,
          "value": 0.0
        },
        {
          "id": 21,
          "value": 0.0
        },
        {
          "id": 22,
          "value": 0.0
        },
        {
          "id": 23,
          "value": 0.0
        },
        {
          "id": 24,
          "value": 0.0
        },
        {
          "id": 25,
          "value": 0.0
        },
        {
          "id": 26,
          "value": 0.0
        },
        {
          "id": 27,
          "value": 0.0
        },
        {
          "id": 28,
          "value": 0.0
        },
        {
          "id": 29,
          "value": 0.0
        },
        {
          "id": 30,
          "value": 0.0
        },
        {
          "id": 31,
          "value": 0.0
        },
        {
          "id": 32,
          "value": 0.0
        },
        {
          "id": 33,
          "value": 0.0
        },
        {
          "id": 34,
          "value": 0.0
        },
        {
          "id": 35,
          "value": 0.0
        },
        {
          "id": 36,
          "value": 0.0
        },
        {
          "id": 37,
          "value": 0.0
        },
        {
          "id": 38,
          "value": 0.0
        },
        {
          "id": 39,
          "value": 0.0
        },
        {
          "id": 40,
          "value": 0.0
        },
        {
          "id": 41,
          "value": 0.0
        },
        {
          "id": 42,
          "value": 0.0
        },
        {
          "id": 43,
          "value": 0.0
        },
        {
          "id": 44,
          "value": 0.0
        },
        {
          "id": 45,
          "value": 0.0
        },
        {
          "id": 46,
          "value": 0.0
        },
        {
          "id": 47,
          "value": 0.0
        },
        {
          "id": 48,
          "value": 0.0
        },
        {
          "id": 49,
          "value": 0.0
        },
        {
          "id": 50,
          "value": 0.0
        },
        {
          "id": 51,
          "value": 0.0
        },
        {
          "id": 52,
          "value": 0.0
        },
        {
          "id": 53,
          "value": 0.0
        },
        {
          "id": 54,
          "value": 0.0
        },
        {
          "id": 55,
          "value": 0.0
        },
        {
          "id": 56,
          "value": 0.0
        },
        {
          "id": 57,
          "value": 0.0
        },
        {
          "id": 58,
          "value": 0.0
        },
        {
          "id": 59,
          "value": 0.0
        },
        {
          "id": 60,
          "value": 0.0
        },
        {
          "id": 61,
          "value": 0.0
        },
        {
          "id": 62,
          "value": 0.0
        },
        {
          "id": 63,
          "value": 0.0
        },
        {
          "id": 64,
          "value": 0.0
        },
        {
          "id": 65,
          "value": 0.0
        },
        {
          "id": 66,
          "value": 0.0
        },
        {
          "id": 67,
          "value": 0.0
        },
        {
          "id": 68,
          "value": 0.0
        },
        {
          "id": 70,
          "value": 0.0
        },
        {
          "id": 71,
          "value": 0.0
        },
        {
          "id": 72,
          "value": 0.0
        },
        {
          "id": 73,
          "value": 0.0
        },
        {
          "id": 74,
          "value": 0.0
        },
        {
          "id": 75,
          "value": 1.0
        },
        {
          "id": 76,
          "value": 0.0
        },
        {
          "id": 77,
          "value": 0.0
        },
        {
          "id": 78,
          "value": 1.0
        }
      ],
      "leftModuleId": 442,
      "rightModuleId": 557,
      "data": {
        "panelTheme": 0,
        "velocityMode": 0,
        "velocityBipol": 0,
        "autostepLen": false,
        "multiTracks": false,
        "autoseq": false,
        "holdTiedNotes": true,
        "showSharp": true,
        "seqCVmethod": 0,
        "running": true,
        "resetOnRun": false,
        "attached": false,
        "velEditMode": 0,
        "writeMode": 0,
        "stopAtEndOfSong": 4,
        "stepIndexEdit": 0,
        "phraseIndexEdit": 0,
        "trackIndexEdit": 1,
        "id0_pulsesPerStep": 1,
        "id0_delay": 0,
        "id0_runModeSong": 0,
        "id0_songBeginIndex": 0,
        "id0_songEndIndex": 0,
        "id0_phrases": [
          0,
          0,
          0,
          0,
          0,
          0,
          0,
          0,
          0,
          0,
          0,
          0,
          0,
          0,
          0,
          0,
          0,
          0,
          0,
          0,
          0,
          0,
          0,
          0,
          0,
          0,
          0,
          0,
          0,
          0,
          0,
          0,
          0,
          0,
          0,
          0,
          0,
          0,
          0,
          0,
          0,
          0,
          0,
          0,
          0,
          0,
          0,
          0,
          0,
          0,
          0,
          0,
          0,
          0,
          0,
          0,
          0,
          0,
          0,
          0,
          0,
          0,
          0,
          0,
          0,
          0,
          0,
          0,
          0,
          0,
          0,
          0,
          0,
          0,
          0,
          0,
          0,
          0,
          0,
          0,
          0,
          0,
          0,
          0,
          0,
          0,
          0,
          0,
          0,
          0,
          0,
          0,
          0,
          0,
          0,
          0,
          0,
          0,
          0
        ],
        "id0_sequences": [
          32,
          32,
          32,
          32,
          32,
          32,
          32,
          32,
          32,
          32,
          32,
          32,
          32,
          32,
          32,
          32,
          32,
          32,
          32,
          32,
          32,
          32,
          32,
          32,
          32,
          32,
          32,
          32,
          32,
          32,
          32,
          32,
          32,
          32,
          32,
          32,
          32,
          32,
          32,
          32,
          32,
          32,
          32,
          32,
          32,
          32,
          32,
          32,
          32,
          32,
          32,
          32,
          32,
          32,
          32,
          32,
          32,
          32,
          32,
          32,
          32,
          32,
          32,
          32
        ],
        "id0_seqSaved": [
          1,
          0,
          0,
          0,
          0,
          0,
          0,
          0,
          0,
          0,
          0,
          0,
          0,
          0,
          0,
          0,
          0,
          0,
          0,
          0,
          0,
          0,
          0,
          0,
          0,
          0,
          0,
          0,
          0,
          0,
          0,
          0,
          0,
          0,
          0,
          0,
          0,
          0,
          0,
          0,
          0,
          0,
          0,
          0,
          0,
          0,
          0,
          0,
          0,
          0,
          0,
          0,
          0,
          0,
          0,
          0,
          0,
          0,
          0,
          0,
          0,
          0,
          0,
          0
        ],
        "id0_cv": [
          -2.0,
          -1.66666663,
          -1.41666663,
          -1.0,
          -0.666666627,
          -0.416666627,
          0.0,
          0.333333343,
          0.75,
          -2.0,
          -1.66666663,
          -1.25,
          -1.0,
          -0.666666627,
          -0.25,
          0.0,
          0.416666687,
          -1.58333325,
          -1.25,
          -1.0,
          -0.583333313,
          -0.25,
          0.0,
          0.416666687,
          0.75,
          -2.0,
          -1.66666663,
          -1.41666663,
          -1.0,
          -0.666666627,
          -0.416666627,
          0.166666672
        ],
        "id0_attributes": [
          17445476,
          17445476,
          17445476,
          17445476,
          17445476,
          17445476,
          17445476,
          17445476,
          17445476,
          17445476,
          17445476,
          17445476,
          17445476,
          17445476,
          17445476,
          17445476,
          17445476,
          17445476,
          17445476,
          17445476,
          17445476,
          17445476,
          17445476,
          17445476,
          17445476,
          17445476,
          17445476,
          17445476,
          17445476,
          17445476,
          17445476,
          17445476
        ],
        "id0_seqIndexEdit": 0,
        "id1_pulsesPerStep": 1,
        "id1_delay": 0,
        "id1_runModeSong": 0,
        "id1_songBeginIndex": 0,
        "id1_songEndIndex": 0,
        "id1_phrases": [
          0,
          0,
          0,
          0,
          0,
          0,
          0,
          0,
          0,
          0,
          0,
          0,
          0,
          0,
          0,
          0,
          0,
          0,
          0,
          0,
          0,
          0,
          0,
          0,
          0,
          0,
          0,
          0,
          0,
          0,
          0,
          0,
          0,
          0,
          0,
          0,
          0,
          0,
          0,
          0,
          0,
          0,
          0,
          0,
          0,
          0,
          0,
          0,
          0,
          0,
          0,
          0,
          0,
          0,
          0,
          0,
          0,
          0,
          0,
          0,
          0,
          0,
          0,
          0,
          0,
          0,
          0,
          0,
          0,
          0,
          0,
          0,
          0,
          0,
          0,
          0,
          0,
          0,
          0,
          0,
          0,
          0,
          0,
          0,
          0,
          0,
          0,
          0,
          0,
          0,
          0,
          0,
          0,
          0,
          0,
          0,
          0,
          0,
          0
        ],
        "id1_sequences": [
          32,
          32,
          32,
          32,
          32,
          32,
          32,
          32,
          32,
          32,
          32,
          32,
          32,
          32,
          32,
          32,
          32,
          32,
          32,
          32,
          32,
          32,
          32,
          32,
          32,
          32,
          32,
          32,
          32,
          32,
          32,
          32,
          32,
          32,
          32,
          32,
          32,
          32,
          32,
          32,
          32,
          32,
          32,
          32,
          32,
          32,
          32,
          32,
          32,
          32,
          32,
          32,
          32,
          32,
          32,
          32,
          32,
          32,
          32,
          32,
          32,
          32,
          32,
          32
        ],
        "id1_seqSaved": [
          1,
          0,
          0,
          0,
          0,
          0,
          0,
          0,
          0,
          0,
          0,
          0,
          0,
          0,
          0,
          0,
          0,
          0,
          0,
          0,
          0,
          0,
          0,
          0,
          0,
          0,
          0,
          0,
          0,
          0,
          0,
          0,
          0,
          0,
          0,
          0,
          0,
          0,
          0,
          0,
          0,
          0,
          0,
          0,
          0,
          0,
          0,
          0,
          0,
          0,
          0,
          0,
          0,
          0,
          0,
          0,
          0,
          0,
          0,
          0,
          0,
          0,
          0,
          0
        ],
        "id1_cv": [
          -2.25,
          -2.25,
          -2.25,
          -2.25,
          -2.25,
          -2.25,
          -2.25,
          -2.25,
          -2.25,
          -2.25,
          -2.25,
          -2.25,
          -2.25,
          -2.25,
          -2.25,
          -2.25,
          -2.25,
          -2.25,
          -2.25,
          -2.25,
          -2.25,
          -2.25,
          -2.25,
          -2.25,
          -2.25,
          -2.25,
          -2.25,
          -2.25,
          -2.25,
          -2.25,
          -2.25,
          -2.25
        ],
        "id1_attributes": [
          17445476,
          17445476,
          17445476,
          17445476,
          17445476,
          17445476,
          17445476,
          17445476,
          17445476,
          17445476,
          17445476,
          17445476,
          17445476,
          17445476,
          17445476,
          17445476,
          17445476,
          17445476,
          17445476,
          17445476,
          17445476,
          17445476,
          17445476,
          17445476,
          17445476,
          17445476,
          17445476,
          17445476,
          17445476,
          17445476,
          17445476,
          17445476
        ],
        "id1_seqIndexEdit": 0,
        "id2_pulsesPerStep": 1,
        "id2_delay": 0,
        "id2_runModeSong": 0,
        "id2_songBeginIndex": 0,
        "id2_songEndIndex": 0,
        "id2_phrases": [
          0,
          0,
          0,
          0,
          0,
          0,
          0,
          0,
          0,
          0,
          0,
          0,
          0,
          0,
          0,
          0,
          0,
          0,
          0,
          0,
          0,
          0,
          0,
          0,
          0,
          0,
          0,
          0,
          0,
          0,
          0,
          0,
          0,
          0,
          0,
          0,
          0,
          0,
          0,
          0,
          0,
          0,
          0,
          0,
          0,
          0,
          0,
          0,
          0,
          0,
          0,
          0,
          0,
          0,
          0,
          0,
          0,
          0,
          0,
          0,
          0,
          0,
          0,
          0,
          0,
          0,
          0,
          0,
          0,
          0,
          0,
          0,
          0,
          0,
          0,
          0,
          0,
          0,
          0,
          0,
          0,
          0,
          0,
          0,
          0,
          0,
          0,
          0,
          0,
          0,
          0,
          0,
          0,
          0,
          0,
          0,
          0,
          0,
          0
        ],
        "id2_sequences": [
          32,
          32,
          32,
          32,
          32,
          32,
          32,
          32,
          32,
          32,
          32,
          32,
          32,
          32,
          32,
          32,
          32,
          32,
          32,
          32,
          32,
          32,
          32,
          32,
          32,
          32,
          32,
          32,
          32,
          32,
          32,
          32,
          32,
          32,
          32,
          32,
          32,
          32,
          32,
          32,
          32,
          32,
          32,
          32,
          32,
          32,
          32,
          32,
          32,
          32,
          32,
          32,
          32,
          32,
          32,
          32,
          32,
          32,
          32,
          32,
          32,
          32,
          32,
          32
        ],
        "id2_seqSaved": [
          0,
          0,
          0,
          0,
          0,
          0,
          0,
          0,
          0,
          0,
          0,
          0,
          0,
          0,
          0,
          0,
          0,
          0,
          0,
          0,
          0,
          0,
          0,
          0,
          0,
          0,
          0,
          0,
          0,
          0,
          0,
          0,
          0,
          0,
          0,
          0,
          0,
          0,
          0,
          0,
          0,
          0,
          0,
          0,
          0,
          0,
          0,
          0,
          0,
          0,
          0,
          0,
          0,
          0,
          0,
          0,
          0,
          0,
          0,
          0,
          0,
          0,
          0,
          0
        ],
        "id2_cv": [],
        "id2_attributes": [],
        "id2_seqIndexEdit": 0,
        "id3_pulsesPerStep": 1,
        "id3_delay": 0,
        "id3_runModeSong": 0,
        "id3_songBeginIndex": 0,
        "id3_songEndIndex": 0,
        "id3_phrases": [
          0,
          0,
          0,
          0,
          0,
          0,
          0,
          0,
          0,
          0,
          0,
          0,
          0,
          0,
          0,
          0,
          0,
          0,
          0,
          0,
          0,
          0,
          0,
          0,
          0,
          0,
          0,
          0,
          0,
          0,
          0,
          0,
          0,
          0,
          0,
          0,
          0,
          0,
          0,
          0,
          0,
          0,
          0,
          0,
          0,
          0,
          0,
          0,
          0,
          0,
          0,
          0,
          0,
          0,
          0,
          0,
          0,
          0,
          0,
          0,
          0,
          0,
          0,
          0,
          0,
          0,
          0,
          0,
          0,
          0,
          0,
          0,
          0,
          0,
          0,
          0,
          0,
          0,
          0,
          0,
          0,
          0,
          0,
          0,
          0,
          0,
          0,
          0,
          0,
          0,
          0,
          0,
          0,
          0,
          0,
          0,
          0,
          0,
          0
        ],
        "id3_sequences": [
          32,
          32,
          32,
          32,
          32,
          32,
          32,
          32,
          32,
          32,
          32,
          32,
          32,
          32,
          32,
          32,
          32,
          32,
          32,
          32,
          32,
          32,
          32,
          32,
          32,
          32,
          32,
          32,
          32,
          32,
          32,
          32,
          32,
          32,
          32,
          32,
          32,
          32,
          32,
          32,
          32,
          32,
          32,
          32,
          32,
          32,
          32,
          32,
          32,
          32,
          32,
          32,
          32,
          32,
          32,
          32,
          32,
          32,
          32,
          32,
          32,
          32,
          32,
          32
        ],
        "id3_seqSaved": [
          0,
          0,
          0,
          0,
          0,
          0,
          0,
          0,
          0,
          0,
          0,
          0,
          0,
          0,
          0,
          0,
          0,
          0,
          0,
          0,
          0,
          0,
          0,
          0,
          0,
          0,
          0,
          0,
          0,
          0,
          0,
          0,
          0,
          0,
          0,
          0,
          0,
          0,
          0,
          0,
          0,
          0,
          0,
          0,
          0,
          0,
          0,
          0,
          0,
          0,
          0,
          0,
          0,
          0,
          0,
          0,
          0,
          0,
          0,
          0,
          0,
          0,
          0,
          0
        ],
        "id3_cv": [],
        "id3_attributes": [],
        "id3_seqIndexEdit": 0,
        "mergeTracks": 0
      },
      "pos": [
        40,
        2
      ]
    },
    {
      "id": 569,
      "plugin": "CountModula",
      "version": "1.6.0",
      "model": "TriggerSequencer16",
      "params": [
        {
          "id": 0,
          "value": 2.0
        },
        {
          "id": 1,
          "value": 2.0
        },
        {
          "id": 2,
          "value": 2.0
        },
        {
          "id": 3,
          "value": 2.0
        },
        {
          "id": 4,
          "value": 1.0
        },
        {
          "id": 5,
          "value": 2.0
        },
        {
          "id": 6,
          "value": 2.0
        },
        {
          "id": 7,
          "value": 1.0
        },
        {
          "id": 8,
          "value": 2.0
        },
        {
          "id": 9,
          "value": 1.0
        },
        {
          "id": 10,
          "value": 2.0
        },
        {
          "id": 11,
          "value": 2.0
        },
        {
          "id": 12,
          "value": 1.0
        },
        {
          "id": 13,
          "value": 1.0
        },
        {
          "id": 14,
          "value": 2.0
        },
        {
          "id": 15,
          "value": 2.0
        },
        {
          "id": 16,
          "value": 2.0
        },
        {
          "id": 17,
          "value": 2.0
        },
        {
          "id": 18,
          "value": 2.0
        },
        {
          "id": 19,
          "value": 2.0
        },
        {
          "id": 20,
          "value": 2.0
        },
        {
          "id": 21,
          "value": 1.0
        },
        {
          "id": 22,
          "value": 1.0
        },
        {
          "id": 23,
          "value": 2.0
        },
        {
          "id": 24,
          "value": 1.0
        },
        {
          "id": 25,
          "value": 2.0
        },
        {
          "id": 26,
          "value": 1.0
        },
        {
          "id": 27,
          "value": 1.0
        },
        {
          "id": 28,
          "value": 2.0
        },
        {
          "id": 29,
          "value": 2.0
        },
        {
          "id": 30,
          "value": 1.0
        },
        {
          "id": 31,
          "value": 1.0
        },
        {
          "id": 32,
          "value": 1.0
        },
        {
          "id": 33,
          "value": 2.0
        },
        {
          "id": 34,
          "value": 2.0
        },
        {
          "id": 35,
          "value": 1.0
        },
        {
          "id": 36,
          "value": 2.0
        },
        {
          "id": 37,
          "value": 0.0
        },
        {
          "id": 38,
          "value": 1.0
        },
        {
          "id": 39,
          "value": 2.0
        },
        {
          "id": 40,
          "value": 2.0
        },
        {
          "id": 41,
          "value": 1.0
        },
        {
          "id": 42,
          "value": 2.0
        },
        {
          "id": 43,
          "value": 2.0
        },
        {
          "id": 44,
          "value": 1.0
        },
        {
          "id": 45,
          "value": 2.0
        },
        {
          "id": 46,
          "value": 2.0
        },
        {
          "id": 47,
          "value": 1.0
        },
        {
          "id": 48,
          "value": 1.0
        },
        {
          "id": 49,
          "value": 1.0
        },
        {
          "id": 50,
          "value": 1.0
        },
        {
          "id": 51,
          "value": 1.0
        },
        {
          "id": 52,
          "value": 1.0
        },
        {
          "id": 53,
          "value": 1.0
        },
        {
          "id": 54,
          "value": 1.0
        },
        {
          "id": 55,
          "value": 1.0
        },
        {
          "id": 56,
          "value": 1.0
        },
        {
          "id": 57,
          "value": 1.0
        },
        {
          "id": 58,
          "value": 2.0
        },
        {
          "id": 59,
          "value": 1.0
        },
        {
          "id": 60,
          "value": 1.0
        },
        {
          "id": 61,
          "value": 1.0
        },
        {
          "id": 62,
          "value": 1.0
        },
        {
          "id": 63,
          "value": 1.0
        },
        {
          "id": 64,
          "value": 16.0
        },
        {
          "id": 65,
          "value": 16.0
        },
        {
          "id": 66,
          "value": 16.0
        },
        {
          "id": 67,
          "value": 16.0
        },
        {
          "id": 68,
          "value": 0.0
        },
        {
          "id": 69,
          "value": 0.0
        },
        {
          "id": 70,
          "value": 0.0
        },
        {
          "id": 71,
          "value": 0.0
        },
        {
          "id": 72,
          "value": 0.0
        },
        {
          "id": 73,
          "value": 0.0
        },
        {
          "id": 74,
          "value": 0.0
        },
        {
          "id": 75,
          "value": 0.0
        },
        {
          "id": 76,
          "value": 0.0
        },
        {
          "id": 77,
          "value": 0.0
        },
        {
          "id": 78,
          "value": 0.0
        },
        {
          "id": 79,
          "value": 0.0
        }
      ],
      "data": {
        "moduleVersion": "1.1",
        "theme": 0
      },
      "pos": [
        75,
        0
      ]
    },
    {
      "id": 575,
      "plugin": "ImpromptuModular",
      "version": "1.1.3",
      "model": "Twelve-Key",
      "params": [
        {
          "id": 0,
          "value": 0.0
        },
        {
          "id": 1,
          "value": 0.0
        },
        {
          "id": 2,
          "value": 0.0
        },
        {
          "id": 3,
          "value": 0.0
        }
      ],
      "rightModuleId": 562,
      "data": {
        "panelTheme": 0,
        "octave": 1,
        "cv": -2.25,
        "vel": 0.612779021,
        "maxVel": 10.0,
        "stateInternal": true,
        "invertVel": false,
        "linkVelSettings": false
      },
      "pos": [
        0,
        3
      ]
    },
    {
      "id": 576,
      "plugin": "Fundamental",
      "version": "1.4.0",
      "model": "Scope",
      "params": [
        {
          "id": 0,
          "value": 0.0
        },
        {
          "id": 1,
          "value": 0.0
        },
        {
          "id": 2,
          "value": 0.0
        },
        {
          "id": 3,
          "value": 0.0
        },
        {
          "id": 4,
          "value": 16.0
        },
        {
          "id": 5,
          "value": 0.0
        },
        {
          "id": 6,
          "value": 0.0
        },
        {
          "id": 7,
          "value": 0.0
        }
      ],
      "leftModuleId": 225,
      "data": {
        "lissajous": 0,
        "external": 0
      },
      "pos": [
        118,
        1
      ]
    },
    {
      "id": 579,
      "plugin": "Fundamental",
      "version": "1.4.0",
      "model": "Scope",
      "params": [
        {
          "id": 0,
          "value": 0.0
        },
        {
          "id": 1,
          "value": 0.0
        },
        {
          "id": 2,
          "value": 0.0
        },
        {
          "id": 3,
          "value": 0.0
        },
        {
          "id": 4,
          "value": 12.2799997
        },
        {
          "id": 5,
          "value": 0.0
        },
        {
          "id": 6,
          "value": 0.0
        },
        {
          "id": 7,
          "value": 0.0
        }
      ],
      "rightModuleId": 474,
      "data": {
        "lissajous": 0,
        "external": 0
      },
      "pos": [
        3,
        2
      ]
    },
    {
      "id": 651,
      "plugin": "Core",
      "version": "1.1.6",
      "model": "AudioInterface",
      "params": [],
      "leftModuleId": 212,
      "rightModuleId": 225,
      "data": {
        "audio": {
          "driver": 1,
          "deviceName": "hw:HDA Intel PCH,0",
          "offset": 0,
          "maxChannels": 8,
          "sampleRate": 48000,
          "blockSize": 512
        }
      },
      "pos": [
        95,
        1
      ]
    },
    {
      "id": 653,
      "plugin": "NYSTHI",
      "version": "1.0.9",
      "model": "b208_dualLPG",
      "params": [
        {
          "id": 0,
          "value": 0.0
        },
        {
          "id": 1,
          "value": 1.0
        },
        {
          "id": 2,
          "value": 0.091500029
        },
        {
          "id": 3,
          "value": 1.0
        },
        {
          "id": 4,
          "value": 0.0
        },
        {
          "id": 5,
          "value": 0.670000076
        },
        {
          "id": 6,
          "value": 0.0
        },
        {
          "id": 7,
          "value": 1.0
        },
        {
          "id": 8,
          "value": 0.5
        },
        {
          "id": 9,
          "value": 0.0
        },
        {
          "id": 10,
          "value": 0.0
        },
        {
          "id": 11,
          "value": 1.0
        },
        {
          "id": 12,
          "value": 0.5
        },
        {
          "id": 13,
          "value": 0.0
        },
        {
          "id": 14,
          "value": 0.0
        },
        {
          "id": 15,
          "value": 1.0
        },
        {
          "id": 16,
          "value": 0.0
        },
        {
          "id": 17,
          "value": 0.0
        },
        {
          "id": 18,
          "value": 0.0
        },
        {
          "id": 19,
          "value": 0.0
        }
      ],
      "leftModuleId": 439,
      "rightModuleId": 654,
      "data": {
        "m_vactrol_speed0": 1,
        "m_vactrol_speed1": 1,
        "m_vactrol_speed2": 1,
        "m_vactrol_speed3": 1,
        "m_vactrol_lineartities0": false,
        "m_vactrol_lineartities1": false,
        "m_vactrol_lineartities2": false,
        "m_vactrol_lineartities3": false,
        "m_last_vcalp_value0": 2,
        "m_last_vcalp_value1": 1,
        "m_last_vcalp_value2": 1,
        "m_last_vcalp_value3": 1
      },
      "pos": [
        135,
        2
      ]
    },
    {
      "id": 654,
      "plugin": "Bogaudio",
      "version": "1.1.26",
      "model": "Bogaudio-ADSR",
      "params": [
        {
          "id": 0,
          "value": 0.0634209961
        },
        {
          "id": 1,
          "value": 0.206729993
        },
        {
          "id": 2,
          "value": 0.0
        },
        {
          "id": 3,
          "value": 0.26522994
        },
        {
          "id": 4,
          "value": 0.0
        }
      ],
      "leftModuleId": 653,
      "rightModuleId": 657,
      "data": {
        "invert": 1.0
      },
      "pos": [
        144,
        2
      ]
    },
    {
      "id": 655,
      "plugin": "NYSTHI",
      "version": "1.0.9",
      "model": "HotTuna",
      "params": [
        {
          "id": 0,
          "value": 0.0
        },
        {
          "id": 1,
          "value": 0.0
        },
        {
          "id": 2,
          "value": 0.0
        },
        {
          "id": 3,
          "value": 0.0
        },
        {
          "id": 4,
          "value": 0.0
        }
      ],
      "leftModuleId": 660,
      "rightModuleId": 1,
      "data": {
        "m_use_DOREMI": false,
        "m_low_power_mode": false
      },
      "pos": [
        141,
        1
      ]
    },
    {
      "id": 656,
      "plugin": "Befaco",
      "version": "1.0.0",
      "model": "DualAtenuverter",
      "params": [
        {
          "id": 0,
          "value": 0.5
        },
        {
          "id": 1,
          "value": 0.0
        },
        {
          "id": 2,
          "value": 0.0
        },
        {
          "id": 3,
          "value": 0.0
        }
      ],
      "leftModuleId": 1,
      "rightModuleId": 659,
      "pos": [
        157,
        1
      ]
    },
    {
      "id": 657,
      "plugin": "Bogaudio",
      "version": "1.1.26",
      "model": "Bogaudio-AddrSeq",
      "params": [
        {
          "id": 0,
          "value": 8.0
        },
        {
          "id": 1,
          "value": 1.0
        },
        {
          "id": 2,
          "value": 0.0
        },
        {
          "id": 3,
          "value": 0.636335135
        },
        {
          "id": 4,
          "value": 0.283228159
        },
        {
          "id": 5,
          "value": 0.203974247
        },
        {
          "id": 6,
          "value": 0.582776546
        },
        {
          "id": 7,
          "value": -0.58464098
        },
        {
          "id": 8,
          "value": 0.583407283
        },
        {
          "id": 9,
          "value": 0.110193253
        },
        {
          "id": 10,
          "value": 0.343325973
        }
      ],
      "leftModuleId": 654,
      "rightModuleId": 658,
      "data": {
        "poly_input": 0,
        "select_on_clock": false,
        "triggered_select": false,
        "range_offset": 0.0,
        "range_scale": 1.0
      },
      "pos": [
        147,
        2
      ]
    },
    {
      "id": 658,
      "plugin": "ML_modules",
      "version": "1.0.5",
      "model": "Quantum",
      "params": [
        {
          "id": 0,
          "value": 0.0
        },
        {
          "id": 1,
          "value": 0.0
        },
        {
          "id": 2,
          "value": 0.0
        },
        {
          "id": 3,
          "value": 0.0
        },
        {
          "id": 4,
          "value": 0.0
        },
        {
          "id": 5,
          "value": 0.0
        },
        {
          "id": 6,
          "value": 0.0
        },
        {
          "id": 7,
          "value": 0.0
        },
        {
          "id": 8,
          "value": 0.0
        },
        {
          "id": 9,
          "value": 0.0
        },
        {
          "id": 10,
          "value": 0.0
        },
        {
          "id": 11,
          "value": 0.0
        }
      ],
      "leftModuleId": 657,
      "data": {
        "scale": [
          1,
          0,
          1,
          1,
          0,
          1,
          0,
          1,
          0,
          1,
          0,
          1
        ],
        "mode": 1,
        "transpose_select": 1,
        "toggle_mode": 0
      },
      "pos": [
        153,
        2
      ]
    },
    {
      "id": 659,
      "plugin": "Bogaudio",
      "version": "1.1.26",
      "model": "Bogaudio-VCO",
      "params": [
        {
          "id": 0,
          "value": 0.0135000004
        },
        {
          "id": 1,
          "value": 0.0
        },
        {
          "id": 2,
          "value": 0.0
        },
        {
          "id": 3,
          "value": 0.0
        },
        {
          "id": 4,
          "value": 0.0
        },
        {
          "id": 5,
          "value": 1.0
        },
        {
          "id": 6,
          "value": 0.0
        }
      ],
      "leftModuleId": 656,
      "rightModuleId": 662,
      "data": {
        "poly_input": 0
      },
      "pos": [
        162,
        1
      ]
    },
    {
      "id": 660,
      "plugin": "NYSTHI",
      "version": "1.0.9",
      "model": "HotTuna",
      "params": [
        {
          "id": 0,
          "value": 0.0
        },
        {
          "id": 1,
          "value": 0.0
        },
        {
          "id": 2,
          "value": 0.0
        },
        {
          "id": 3,
          "value": 0.0
        },
        {
          "id": 4,
          "value": 0.0
        }
      ],
      "leftModuleId": 664,
      "rightModuleId": 655,
      "data": {
        "m_use_DOREMI": false,
        "m_low_power_mode": false
      },
      "pos": [
        135,
        1
      ]
    },
    {
      "id": 661,
      "plugin": "ML_modules",
      "version": "1.0.5",
      "model": "VoltMeter",
      "params": [],
      "rightModuleId": 663,
      "pos": [
        167,
        2
      ]
    },
    {
      "id": 662,
      "plugin": "Fundamental",
      "version": "1.4.0",
      "model": "Scope",
      "params": [
        {
          "id": 0,
          "value": 0.0
        },
        {
          "id": 1,
          "value": 0.0
        },
        {
          "id": 2,
          "value": 0.0
        },
        {
          "id": 3,
          "value": 0.0
        },
        {
          "id": 4,
          "value": 7.97499943
        },
        {
          "id": 5,
          "value": 0.0
        },
        {
          "id": 6,
          "value": 0.0
        },
        {
          "id": 7,
          "value": 0.0
        }
      ],
      "leftModuleId": 659,
      "data": {
        "lissajous": 0,
        "external": 0
      },
      "pos": [
        172,
        1
      ]
    },
    {
      "id": 663,
      "plugin": "Bogaudio",
      "version": "1.1.26",
      "model": "Bogaudio-LFO",
      "params": [
        {
          "id": 0,
          "value": 1.91599917
        },
        {
          "id": 1,
          "value": 0.0
        },
        {
          "id": 2,
          "value": 0.0
        },
        {
          "id": 3,
          "value": 0.0
        },
        {
          "id": 4,
          "value": 0.0
        },
        {
          "id": 5,
          "value": 0.0
        }
      ],
      "leftModuleId": 661,
      "pos": [
        175,
        2
      ]
    },
    {
      "id": 664,
      "plugin": "Bogaudio",
      "version": "1.1.26",
      "model": "Bogaudio-Manual",
      "params": [
        {
          "id": 0,
          "value": 0.0
        }
      ],
      "rightModuleId": 660,
      "data": {
        "triggerOnLoad": false,
        "shouldTriggerOnLoad": true
      },
      "pos": [
        132,
        1
      ]
    },
    {
      "id": 665,
      "plugin": "Bogaudio",
      "version": "1.1.26",
      "model": "Bogaudio-UMix",
      "params": [],
      "data": {
        "clipping_mode": 0,
        "input_gain_db": 0.0,
        "sum": true
      },
      "pos": [
        162,
        2
      ]
    },
    {
      "id": 666,
      "plugin": "Fundamental",
      "version": "1.4.0",
      "model": "Scope",
      "params": [
        {
          "id": 0,
          "value": 0.0
        },
        {
          "id": 1,
          "value": 0.0
        },
        {
          "id": 2,
          "value": 0.0
        },
        {
          "id": 3,
          "value": 0.0
        },
        {
          "id": 4,
          "value": 7.97499943
        },
        {
          "id": 5,
          "value": 0.0
        },
        {
          "id": 6,
          "value": 0.0
        },
        {
          "id": 7,
          "value": 0.0
        }
      ],
      "rightModuleId": 667,
      "data": {
        "lissajous": 0,
        "external": 0
      },
      "pos": [
        142,
        0
      ]
    },
    {
      "id": 667,
      "plugin": "Bogaudio",
      "version": "1.1.26",
      "model": "Bogaudio-LFO",
      "params": [
        {
          "id": 0,
          "value": 0.0
        },
        {
          "id": 1,
          "value": 0.0
        },
        {
          "id": 2,
          "value": 0.0
        },
        {
          "id": 3,
          "value": 0.0
        },
        {
          "id": 4,
          "value": 1.0
        },
        {
          "id": 5,
          "value": 1.0
        }
      ],
      "leftModuleId": 666,
      "pos": [
        155,
        0
      ]
    }
  ],
  "cables": [
    {
      "id": 1417,
      "outputModuleId": 420,
      "outputId": 6,
      "inputModuleId": 429,
      "inputId": 0,
      "color": "#0986ad"
    },
    {
      "id": 1418,
      "outputModuleId": 420,
      "outputId": 7,
      "inputModuleId": 429,
      "inputId": 1,
      "color": "#c9b70e"
    },
    {
      "id": 1443,
      "outputModuleId": 212,
      "outputId": 2,
      "inputModuleId": 225,
      "inputId": 0,
      "color": "#c9b70e"
    },
    {
      "id": 1444,
      "outputModuleId": 212,
      "outputId": 3,
      "inputModuleId": 225,
      "inputId": 1,
      "color": "#0c8e15"
    },
    {
      "id": 1420,
      "outputModuleId": 429,
      "outputId": 1,
      "inputModuleId": 420,
      "inputId": 17,
      "color": "#c91847"
    },
    {
      "id": 1419,
      "outputModuleId": 429,
      "outputId": 0,
      "inputModuleId": 420,
      "inputId": 16,
      "color": "#0c8e15"
    },
    {
      "id": 1507,
      "outputModuleId": 442,
      "outputId": 4,
      "inputModuleId": 474,
      "inputId": 1,
      "color": "#0986ad"
    },
    {
      "id": 1512,
      "outputModuleId": 442,
      "outputId": 4,
      "inputModuleId": 476,
      "inputId": 1,
      "color": "#0c8e15"
    },
    {
      "id": 1513,
      "outputModuleId": 474,
      "outputId": 3,
      "inputModuleId": 476,
      "inputId": 0,
      "color": "#c91847"
    },
    {
      "id": 1528,
      "outputModuleId": 442,
      "outputId": 4,
      "inputModuleId": 429,
      "inputId": 16,
      "color": "#0986ad"
    },
    {
      "id": 1751,
      "outputModuleId": 420,
      "outputId": 0,
      "inputModuleId": 212,
      "inputId": 0,
      "color": "#0c8e15"
    },
    {
      "id": 1752,
      "outputModuleId": 420,
      "outputId": 1,
      "inputModuleId": 212,
      "inputId": 1,
      "color": "#c91847"
    },
    {
      "id": 1753,
      "outputModuleId": 420,
      "outputId": 8,
      "inputModuleId": 555,
      "inputId": 0,
      "color": "#0986ad"
    },
    {
      "id": 1754,
      "outputModuleId": 420,
      "outputId": 9,
      "inputModuleId": 555,
      "inputId": 1,
      "color": "#c9b70e"
    },
    {
      "id": 1755,
      "outputModuleId": 555,
      "outputId": 8,
      "inputModuleId": 420,
      "inputId": 18,
      "color": "#0c8e15"
    },
    {
      "id": 1756,
      "outputModuleId": 555,
      "outputId": 9,
      "inputModuleId": 420,
      "inputId": 19,
      "color": "#c91847"
    },
    {
      "id": 1758,
      "outputModuleId": 555,
      "outputId": 7,
      "inputModuleId": 557,
      "inputId": 1,
      "color": "#c9b70e"
    },
    {
      "id": 1759,
      "outputModuleId": 557,
      "outputId": 0,
      "inputModuleId": 555,
      "inputId": 6,
      "color": "#0c8e15"
    },
    {
      "id": 1760,
      "outputModuleId": 557,
      "outputId": 1,
      "inputModuleId": 555,
      "inputId": 7,
      "color": "#c91847"
    },
    {
      "id": 1762,
      "outputModuleId": 557,
      "outputId": 0,
      "inputModuleId": 439,
      "inputId": 1,
      "color": "#c9b70e"
    },
    {
      "id": 1765,
      "outputModuleId": 555,
      "outputId": 6,
      "inputModuleId": 557,
      "inputId": 0,
      "color": "#0986ad"
    },
    {
      "id": 1766,
      "outputModuleId": 555,
      "outputId": 6,
      "inputModuleId": 439,
      "inputId": 0,
      "color": "#c9b70e"
    },
    {
      "id": 1506,
      "outputModuleId": 442,
      "outputId": 1,
      "inputModuleId": 474,
      "inputId": 0,
      "color": "#c91847"
    },
    {
      "id": 1773,
      "outputModuleId": 442,
      "outputId": 2,
      "inputModuleId": 555,
      "inputId": 11,
      "color": "#0986ad"
    },
    {
      "id": 1778,
      "outputModuleId": 562,
      "outputId": 2,
      "inputModuleId": 563,
      "inputId": 2,
      "color": "#c9b70e"
    },
    {
      "id": 1779,
      "outputModuleId": 563,
      "outputId": 2,
      "inputModuleId": 564,
      "inputId": 2,
      "color": "#c91847"
    },
    {
      "id": 1780,
      "outputModuleId": 563,
      "outputId": 0,
      "inputModuleId": 564,
      "inputId": 0,
      "color": "#0986ad"
    },
    {
      "id": 1781,
      "outputModuleId": 563,
      "outputId": 1,
      "inputModuleId": 564,
      "inputId": 1,
      "color": "#c9b70e"
    },
    {
      "id": 1782,
      "outputModuleId": 562,
      "outputId": 1,
      "inputModuleId": 563,
      "inputId": 1,
      "color": "#0c8e15"
    },
    {
      "id": 1783,
      "outputModuleId": 562,
      "outputId": 0,
      "inputModuleId": 563,
      "inputId": 0,
      "color": "#c91847"
    },
    {
      "id": 1784,
      "outputModuleId": 562,
      "outputId": 3,
      "inputModuleId": 563,
      "inputId": 3,
      "color": "#0986ad"
    },
    {
      "id": 1785,
      "outputModuleId": 563,
      "outputId": 3,
      "inputModuleId": 564,
      "inputId": 3,
      "color": "#c9b70e"
    },
    {
      "id": 1791,
      "outputModuleId": 442,
      "outputId": 4,
      "inputModuleId": 566,
      "inputId": 5,
      "color": "#c91847"
    },
    {
      "id": 1794,
      "outputModuleId": 564,
      "outputId": 0,
      "inputModuleId": 566,
      "inputId": 0,
      "color": "#0c8e15"
    },
    {
      "id": 1798,
      "outputModuleId": 474,
      "outputId": 1,
      "inputModuleId": 566,
      "inputId": 6,
      "color": "#c9b70e"
    },
    {
      "id": 1806,
      "outputModuleId": 442,
      "outputId": 1,
      "inputModuleId": 569,
      "inputId": 4,
      "color": "#c9b70e"
    },
    {
      "id": 1807,
      "outputModuleId": 442,
      "outputId": 4,
      "inputModuleId": 569,
      "inputId": 8,
      "color": "#0c8e15"
    },
    {
      "id": 1824,
      "outputModuleId": 575,
      "outputId": 2,
      "inputModuleId": 562,
      "inputId": 2,
      "color": "#c91847"
    },
    {
      "id": 1825,
      "outputModuleId": 575,
      "outputId": 1,
      "inputModuleId": 562,
      "inputId": 1,
      "color": "#0986ad"
    },
    {
      "id": 1826,
      "outputModuleId": 575,
      "outputId": 0,
      "inputModuleId": 562,
      "inputId": 0,
      "color": "#c9b70e"
    },
    {
      "id": 1827,
      "outputModuleId": 575,
      "outputId": 3,
      "inputModuleId": 562,
      "inputId": 3,
      "color": "#0c8e15"
    },
    {
      "id": 1828,
      "outputModuleId": 564,
      "outputId": 1,
      "inputModuleId": 566,
      "inputId": 2,
      "color": "#c91847"
    },
    {
      "id": 1836,
      "outputModuleId": 566,
      "outputId": 1,
      "inputModuleId": 579,
      "inputId": 0,
      "color": "#c91847"
    },
    {
      "id": 1529,
      "outputModuleId": 212,
      "outputId": 3,
      "inputModuleId": 651,
      "inputId": 1,
      "color": "#c9b70e"
    },
    {
      "id": 687,
      "outputModuleId": 212,
      "outputId": 2,
      "inputModuleId": 651,
      "inputId": 0,
      "color": "#0986ad"
    },
    {
      "id": 2035,
      "outputModuleId": 1,
      "outputId": 0,
      "inputModuleId": 439,
      "inputId": 2,
      "color": "#c91847"
    },
    {
      "id": 2037,
      "outputModuleId": 1,
      "outputId": 0,
      "inputModuleId": 576,
      "inputId": 0,
      "color": "#c9b70e"
    },
    {
      "id": 2036,
      "outputModuleId": 1,
      "outputId": 0,
      "inputModuleId": 653,
      "inputId": 0,
      "color": "#0986ad"
    },
    {
      "id": 2040,
      "outputModuleId": 654,
      "outputId": 0,
      "inputModuleId": 653,
      "inputId": 4,
      "color": "#c9b70e"
    },
    {
      "id": 2042,
      "outputModuleId": 1,
      "outputId": 0,
      "inputModuleId": 655,
      "inputId": 0,
      "color": "#c91847"
    },
    {
      "id": 2050,
      "outputModuleId": 657,
      "outputId": 0,
      "inputModuleId": 658,
      "inputId": 0,
      "color": "#0986ad"
    },
    {
      "id": 2053,
      "outputModuleId": 653,
      "outputId": 1,
      "inputModuleId": 420,
      "inputId": 2,
      "color": "#c91847"
    },
    {
      "id": 2054,
      "outputModuleId": 654,
      "outputId": 0,
      "inputModuleId": 653,
      "inputId": 5,
      "color": "#0986ad"
    },
    {
      "id": 2056,
      "outputModuleId": 658,
      "outputId": 0,
      "inputModuleId": 576,
      "inputId": 1,
      "color": "#0c8e15"
    },
    {
      "id": 2038,
      "outputModuleId": 653,
      "outputId": 0,
      "inputModuleId": 420,
      "inputId": 3,
      "color": "#0c8e15"
    },
    {
      "id": 2044,
      "outputModuleId": 474,
      "outputId": 1,
      "inputModuleId": 657,
      "inputId": 0,
      "color": "#0c8e15"
    },
    {
      "id": 2059,
      "outputModuleId": 474,
      "outputId": 0,
      "inputModuleId": 654,
      "inputId": 0,
      "color": "#c9b70e"
    },
    {
      "id": 2061,
      "outputModuleId": 658,
      "outputId": 0,
      "inputModuleId": 661,
      "inputId": 0,
      "color": "#c91847"
    },
    {
      "id": 2062,
      "outputModuleId": 656,
      "outputId": 1,
      "inputModuleId": 661,
      "inputId": 1,
      "color": "#0986ad"
    },
    {
      "id": 2066,
      "outputModuleId": 1,
      "outputId": 1,
      "inputModuleId": 662,
      "inputId": 0,
      "color": "#c9b70e"
    },
    {
      "id": 2065,
      "outputModuleId": 1,
      "outputId": 1,
      "inputModuleId": 660,
      "inputId": 1,
      "color": "#0986ad"
    },
    {
      "id": 2073,
      "outputModuleId": 664,
      "outputId": 0,
      "inputModuleId": 657,
      "inputId": 1,
      "color": "#0986ad"
    },
    {
      "id": 2070,
      "outputModuleId": 663,
      "outputId": 4,
      "inputModuleId": 662,
      "inputId": 1,
      "color": "#0c8e15"
    },
    {
      "id": 2069,
      "outputModuleId": 663,
      "outputId": 4,
      "inputModuleId": 1,
      "inputId": 6,
      "color": "#c9b70e"
    },
    {
      "id": 2076,
      "outputModuleId": 663,
      "outputId": 4,
      "inputModuleId": 665,
      "inputId": 0,
      "color": "#c91847"
    },
    {
      "id": 2077,
      "outputModuleId": 658,
      "outputId": 0,
      "inputModuleId": 665,
      "inputId": 1,
      "color": "#0986ad"
    },
    {
      "id": 2078,
      "outputModuleId": 665,
      "outputId": 0,
      "inputModuleId": 1,
      "inputId": 7,
      "color": "#c9b70e"
    },
    {
      "id": 2079,
      "outputModuleId": 665,
      "outputId": 0,
      "inputModuleId": 659,
      "inputId": 0,
      "color": "#0c8e15"
    },
    {
      "id": 2052,
      "outputModuleId": 659,
      "outputId": 0,
      "inputModuleId": 653,
      "inputId": 1,
      "color": "#0c8e15"
    },
    {
      "id": 2081,
      "outputModuleId": 656,
      "outputId": 0,
      "inputModuleId": 666,
      "inputId": 0,
      "color": "#c9b70e"
    },
    {
      "id": 2082,
      "outputModuleId": 656,
      "outputId": 0,
      "inputModuleId": 1,
      "inputId": 5,
      "color": "#0c8e15"
    },
    {
      "id": 2084,
      "outputModuleId": 442,
      "outputId": 2,
      "inputModuleId": 656,
      "inputId": 0,
      "color": "#0986ad"
    }
  ]
}