{
  "version": "0.6.2b",
  "modules": [
    {
      "plugin": "Fundamental",
      "version": "0.6.2",
      "model": "VCMixer",
      "params": [
        {
          "paramId": 0,
          "value": 1.5880003
        },
        {
          "paramId": 1,
          "value": 1.0
        },
        {
          "paramId": 2,
          "value": 0.994000018
        },
        {
          "paramId": 3,
          "value": 1.0
        },
        {
          "paramId": 4,
          "value": 1.0
        }
      ],
      "pos": [
        72,
        1
      ]
    },
    {
      "plugin": "Core",
      "version": "0.6.2b",
      "model": "AudioInterface",
      "params": [],
      "data": {
        "audio": {
          "driver": 8,
          "deviceName": "Speakers (Realtek High Definition Audio)",
          "offset": 0,
          "maxChannels": 8,
          "sampleRate": 48000,
          "blockSize": 4096
        }
      },
      "pos": [
        130,
        1
      ]
    },
    {
      "plugin": "TechTechTechnologies",
      "version": "0.6.1",
      "model": "Odysseus",
      "params": [
        {
          "paramId": 1,
          "value": 0.5
        },
        {
          "paramId": 3,
          "value": 0.0
        },
        {
          "paramId": 0,
          "value": 0.5
        },
        {
          "paramId": 2,
          "value": 1.0
        },
        {
          "paramId": 4,
          "value": 0.588998735
        },
        {
          "paramId": 5,
          "value": 0.83349967
        },
        {
          "paramId": 6,
          "value": 0.0
        },
        {
          "paramId": 7,
          "value": 0.0
        },
        {
          "paramId": 8,
          "value": 0.0
        },
        {
          "paramId": 9,
          "value": 0.0
        },
        {
          "paramId": 10,
          "value": 0.0
        }
      ],
      "pos": [
        17,
        0
      ]
    },
    {
      "plugin": "Fundamental",
      "version": "0.6.2",
      "model": "SEQ3",
      "params": [
        {
          "paramId": 0,
          "value": 2.0
        },
        {
          "paramId": 1,
          "value": 0.0
        },
        {
          "paramId": 2,
          "value": 0.0
        },
        {
          "paramId": 3,
          "value": 7.0
        },
        {
          "paramId": 4,
          "value": 0.0
        },
        {
          "paramId": 12,
          "value": 3.70500135
        },
        {
          "paramId": 20,
          "value": 0.0
        },
        {
          "paramId": 28,
          "value": 0.0
        },
        {
          "paramId": 5,
          "value": 1.39499998
        },
        {
          "paramId": 13,
          "value": 1.3949995
        },
        {
          "paramId": 21,
          "value": 0.0
        },
        {
          "paramId": 29,
          "value": 0.0
        },
        {
          "paramId": 6,
          "value": 0.614999831
        },
        {
          "paramId": 14,
          "value": 2.93530846
        },
        {
          "paramId": 22,
          "value": 0.629999936
        },
        {
          "paramId": 30,
          "value": 0.0
        },
        {
          "paramId": 7,
          "value": 1.22999954
        },
        {
          "paramId": 15,
          "value": 0.0
        },
        {
          "paramId": 23,
          "value": 0.0
        },
        {
          "paramId": 31,
          "value": 0.0
        },
        {
          "paramId": 8,
          "value": 0.479999959
        },
        {
          "paramId": 16,
          "value": 0.0
        },
        {
          "paramId": 24,
          "value": 1.85999703
        },
        {
          "paramId": 32,
          "value": 0.0
        },
        {
          "paramId": 9,
          "value": 1.58999932
        },
        {
          "paramId": 17,
          "value": 2.41500139
        },
        {
          "paramId": 25,
          "value": 1.54499936
        },
        {
          "paramId": 33,
          "value": 0.0
        },
        {
          "paramId": 10,
          "value": 0.524999976
        },
        {
          "paramId": 18,
          "value": 0.0
        },
        {
          "paramId": 26,
          "value": 0.0
        },
        {
          "paramId": 34,
          "value": 0.0
        },
        {
          "paramId": 11,
          "value": 0.0
        },
        {
          "paramId": 19,
          "value": 0.0
        },
        {
          "paramId": 27,
          "value": 0.0
        },
        {
          "paramId": 35,
          "value": 0.0
        }
      ],
      "data": {
        "running": true,
        "gates": [
          1,
          1,
          1,
          1,
          1,
          1,
          1,
          1
        ]
      },
      "pos": [
        42,
        2
      ]
    },
    {
      "plugin": "Fundamental",
      "version": "0.6.2",
      "model": "SequentialSwitch2",
      "params": [
        {
          "paramId": 0,
          "value": 1.0
        }
      ],
      "pos": [
        64,
        2
      ]
    },
    {
      "plugin": "Bogaudio",
      "version": "0.6.12",
      "model": "Bogaudio-Manual",
      "params": [
        {
          "paramId": 0,
          "value": 0.0
        }
      ],
      "data": {
        "triggerOnLoad": false,
        "shouldTriggerOnLoad": true
      },
      "pos": [
        127,
        2
      ]
    },
    {
      "plugin": "Fundamental",
      "version": "0.6.2",
      "model": "Delay",
      "params": [
        {
          "paramId": 0,
          "value": 0.5
        },
        {
          "paramId": 1,
          "value": 0.562999964
        },
        {
          "paramId": 2,
          "value": 0.5
        },
        {
          "paramId": 3,
          "value": 0.5
        }
      ],
      "pos": [
        95,
        1
      ]
    },
    {
      "plugin": "Fundamental",
      "version": "0.6.2",
      "model": "Delay",
      "params": [
        {
          "paramId": 0,
          "value": 0.49699989
        },
        {
          "paramId": 1,
          "value": 0.587000012
        },
        {
          "paramId": 2,
          "value": 0.5
        },
        {
          "paramId": 3,
          "value": 0.5
        }
      ],
      "pos": [
        106,
        1
      ]
    },
    {
      "plugin": "NYSTHI",
      "version": "0.6.14",
      "model": "MasterRecorder2",
      "params": [
        {
          "paramId": 0,
          "value": 0.0
        },
        {
          "paramId": 1,
          "value": 0.0
        },
        {
          "paramId": 2,
          "value": 0.0
        },
        {
          "paramId": 8,
          "value": 0.0
        },
        {
          "paramId": 9,
          "value": 0.00499999989
        },
        {
          "paramId": 10,
          "value": 0.00999999978
        },
        {
          "paramId": 11,
          "value": 2.0
        },
        {
          "paramId": 12,
          "value": 0.5
        },
        {
          "paramId": 3,
          "value": 1.0
        },
        {
          "paramId": 4,
          "value": 1.0
        },
        {
          "paramId": 13,
          "value": 0.0
        },
        {
          "paramId": 14,
          "value": 0.100000001
        },
        {
          "paramId": 5,
          "value": 0.0
        },
        {
          "paramId": 6,
          "value": 0.0
        },
        {
          "paramId": 7,
          "value": 0.0
        }
      ],
      "data": {
        "nysthi_id": "MR2_w9S3tY52",
        "wavebits": 9,
        "rms_time": 0.00100000005,
        "peak_time": 0.5,
        "m_invertphaseleft": false,
        "m_invertphaseright": false,
        "m_locklevelleftright": false,
        "m_kompressor_active": false,
        "m_autosave": true,
        "m_distort": false
      },
      "pos": [
        118,
        2
      ]
    },
    {
      "plugin": "Fundamental",
      "version": "0.6.2",
      "model": "VCA-1",
      "params": [
        {
          "paramId": 0,
          "value": 0.143499985
        },
        {
          "paramId": 1,
          "value": 1.0
        }
      ],
      "pos": [
        114,
        1
      ]
    },
    {
      "plugin": "Bogaudio",
      "version": "0.6.12",
      "model": "Bogaudio-UMix",
      "params": [
        {
          "paramId": 0,
          "value": 1.0
        }
      ],
      "data": {
        "sum": true
      },
      "pos": [
        122,
        1
      ]
    },
    {
      "plugin": "Befaco",
      "version": "0.6.0",
      "model": "DualAtenuverter",
      "params": [
        {
          "paramId": 0,
          "value": 0.216999412
        },
        {
          "paramId": 1,
          "value": 0.989999592
        },
        {
          "paramId": 2,
          "value": -1.0
        },
        {
          "paramId": 3,
          "value": 9.93999958
        }
      ],
      "pos": [
        117,
        1
      ]
    },
    {
      "plugin": "Fundamental",
      "version": "0.6.2",
      "model": "LFO",
      "params": [
        {
          "paramId": 0,
          "value": 1.0
        },
        {
          "paramId": 1,
          "value": 1.0
        },
        {
          "paramId": 2,
          "value": 1.40499985
        },
        {
          "paramId": 3,
          "value": 0.0960000679
        },
        {
          "paramId": 5,
          "value": 0.5
        },
        {
          "paramId": 4,
          "value": 0.0
        },
        {
          "paramId": 6,
          "value": 0.0
        }
      ],
      "pos": [
        32,
        2
      ]
    },
    {
      "plugin": "Befaco",
      "version": "0.6.0",
      "model": "DualAtenuverter",
      "params": [
        {
          "paramId": 0,
          "value": -1.0
        },
        {
          "paramId": 1,
          "value": 0.0
        },
        {
          "paramId": 2,
          "value": -0.891999781
        },
        {
          "paramId": 3,
          "value": 1.05000007
        }
      ],
      "pos": [
        125,
        1
      ]
    },
    {
      "plugin": "Befaco",
      "version": "0.6.0",
      "model": "DualAtenuverter",
      "params": [
        {
          "paramId": 0,
          "value": -0.276000023
        },
        {
          "paramId": 1,
          "value": 3.46000099
        },
        {
          "paramId": 2,
          "value": -0.891999781
        },
        {
          "paramId": 3,
          "value": 0.0
        }
      ],
      "pos": [
        121,
        0
      ]
    },
    {
      "plugin": "Bogaudio",
      "version": "0.6.12",
      "model": "Bogaudio-Analyzer",
      "params": [
        {
          "paramId": 5,
          "value": 0.0
        },
        {
          "paramId": 1,
          "value": 0.0
        },
        {
          "paramId": 2,
          "value": 3.0
        },
        {
          "paramId": 4,
          "value": 1.0
        }
      ],
      "pos": [
        27,
        0
      ]
    },
    {
      "plugin": "Fundamental",
      "version": "0.6.2",
      "model": "VCMixer",
      "params": [
        {
          "paramId": 0,
          "value": 1.5819999
        },
        {
          "paramId": 1,
          "value": 1.0
        },
        {
          "paramId": 2,
          "value": 1.0
        },
        {
          "paramId": 3,
          "value": 1.0
        },
        {
          "paramId": 4,
          "value": 1.0
        }
      ],
      "pos": [
        82,
        1
      ]
    },
    {
      "plugin": "NYSTHI",
      "version": "0.6.14",
      "model": "ScalaQuantizer",
      "params": [
        {
          "paramId": 2,
          "value": 0.0
        },
        {
          "paramId": 3,
          "value": 0.0
        }
      ],
      "data": {
        "m_current_octave": 0,
        "m_current_tuning": 0.0,
        "m_current_scale": "Ancient Greek Archytas Diatonic.scl - Archytas' Diatonic",
        "m_bypass": false
      },
      "pos": [
        67,
        2
      ]
    },
    {
      "plugin": "Bogaudio",
      "version": "0.6.12",
      "model": "Bogaudio-Analyzer",
      "params": [
        {
          "paramId": 5,
          "value": -0.009999929
        },
        {
          "paramId": 1,
          "value": 0.0
        },
        {
          "paramId": 2,
          "value": 3.0
        },
        {
          "paramId": 4,
          "value": 1.0
        }
      ],
      "pos": [
        140,
        1
      ]
    },
    {
      "plugin": "Bogaudio",
      "version": "0.6.12",
      "model": "Bogaudio-UMix",
      "params": [
        {
          "paramId": 0,
          "value": 1.0
        }
      ],
      "data": {
        "sum": true
      },
      "pos": [
        29,
        3
      ]
    },
    {
      "plugin": "Fundamental",
      "version": "0.6.2",
      "model": "SequentialSwitch2",
      "params": [
        {
          "paramId": 0,
          "value": 0.0
        }
      ],
      "pos": [
        50,
        3
      ]
    },
    {
      "plugin": "Bogaudio",
      "version": "0.6.12",
      "model": "Bogaudio-UMix",
      "params": [
        {
          "paramId": 0,
          "value": 1.0
        }
      ],
      "data": {
        "sum": true
      },
      "pos": [
        32,
        3
      ]
    },
    {
      "plugin": "Bogaudio",
      "version": "0.6.12",
      "model": "Bogaudio-UMix",
      "params": [
        {
          "paramId": 0,
          "value": 1.0
        }
      ],
      "data": {
        "sum": true
      },
      "pos": [
        26,
        3
      ]
    },
    {
      "plugin": "Bogaudio",
      "version": "0.6.12",
      "model": "Bogaudio-UMix",
      "params": [
        {
          "paramId": 0,
          "value": 1.0
        }
      ],
      "data": {
        "sum": true
      },
      "pos": [
        35,
        3
      ]
    },
    {
      "plugin": "Bogaudio",
      "version": "0.6.12",
      "model": "Bogaudio-UMix",
      "params": [
        {
          "paramId": 0,
          "value": 1.0
        }
      ],
      "data": {
        "sum": true
      },
      "pos": [
        103,
        1
      ]
    },
    {
      "plugin": "TechTechTechnologies",
      "version": "0.6.1",
      "model": "QMod",
      "params": [
        {
          "paramId": 8,
          "value": 1.0
        },
        {
          "paramId": 4,
          "value": 3.0
        },
        {
          "paramId": 0,
          "value": 0.00543749984
        },
        {
          "paramId": 5,
          "value": -0.710999727
        },
        {
          "paramId": 1,
          "value": 1.0
        },
        {
          "paramId": 6,
          "value": 3.0
        },
        {
          "paramId": 2,
          "value": 0.0
        },
        {
          "paramId": 7,
          "value": 3.0
        },
        {
          "paramId": 3,
          "value": 0.291000009
        },
        {
          "paramId": 9,
          "value": 1.0
        },
        {
          "paramId": 10,
          "value": 1.0
        },
        {
          "paramId": 11,
          "value": 1.0
        }
      ],
      "pos": [
        32,
        1
      ]
    },
    {
      "plugin": "Befaco",
      "version": "0.6.0",
      "model": "DualAtenuverter",
      "params": [
        {
          "paramId": 0,
          "value": 0.0
        },
        {
          "paramId": 1,
          "value": 2.07002354
        },
        {
          "paramId": 2,
          "value": 0.0
        },
        {
          "paramId": 3,
          "value": 1.78000474
        }
      ],
      "pos": [
        106,
        0
      ]
    },
    {
      "plugin": "Bogaudio",
      "version": "0.6.12",
      "model": "Bogaudio-UMix",
      "params": [
        {
          "paramId": 0,
          "value": 1.0
        }
      ],
      "data": {
        "sum": true
      },
      "pos": [
        28,
        1
      ]
    },
    {
      "plugin": "Fundamental",
      "version": "0.6.2",
      "model": "VCF",
      "params": [
        {
          "paramId": 0,
          "value": 0.0
        },
        {
          "paramId": 1,
          "value": 0.5
        },
        {
          "paramId": 2,
          "value": 0.0
        },
        {
          "paramId": 3,
          "value": 0.83499974
        },
        {
          "paramId": 4,
          "value": 0.0
        }
      ],
      "pos": [
        20,
        1
      ]
    },
    {
      "plugin": "Bogaudio",
      "version": "0.6.12",
      "model": "Bogaudio-VCO",
      "params": [
        {
          "paramId": 0,
          "value": -0.998999834
        },
        {
          "paramId": 1,
          "value": 0.0
        },
        {
          "paramId": 2,
          "value": 0.0
        },
        {
          "paramId": 3,
          "value": 0.0
        },
        {
          "paramId": 4,
          "value": 0.0
        },
        {
          "paramId": 5,
          "value": 1.0
        }
      ],
      "pos": [
        7,
        1
      ]
    },
    {
      "plugin": "Bogaudio",
      "version": "0.6.12",
      "model": "Bogaudio-ADSR",
      "params": [
        {
          "paramId": 0,
          "value": 0.121499985
        },
        {
          "paramId": 1,
          "value": 0.0
        },
        {
          "paramId": 2,
          "value": 1.0
        },
        {
          "paramId": 3,
          "value": 0.1557298
        },
        {
          "paramId": 4,
          "value": 0.0
        }
      ],
      "pos": [
        17,
        1
      ]
    },
    {
      "plugin": "Fundamental",
      "version": "0.6.2",
      "model": "VCF",
      "params": [
        {
          "paramId": 0,
          "value": 0.5
        },
        {
          "paramId": 1,
          "value": 0.5
        },
        {
          "paramId": 2,
          "value": 0.0
        },
        {
          "paramId": 3,
          "value": 1.0
        },
        {
          "paramId": 4,
          "value": 0.0
        }
      ],
      "pos": [
        53,
        1
      ]
    },
    {
      "plugin": "Fundamental",
      "version": "0.6.2",
      "model": "VCF",
      "params": [
        {
          "paramId": 0,
          "value": 0.5
        },
        {
          "paramId": 1,
          "value": 0.5
        },
        {
          "paramId": 2,
          "value": 0.0
        },
        {
          "paramId": 3,
          "value": 1.0
        },
        {
          "paramId": 4,
          "value": 0.0
        }
      ],
      "pos": [
        61,
        1
      ]
    },
    {
      "plugin": "Befaco",
      "version": "0.6.0",
      "model": "DualAtenuverter",
      "params": [
        {
          "paramId": 0,
          "value": -0.276000023
        },
        {
          "paramId": 1,
          "value": -0.360000014
        },
        {
          "paramId": 2,
          "value": 0.0479999892
        },
        {
          "paramId": 3,
          "value": 1.98999834
        }
      ],
      "pos": [
        55,
        0
      ]
    },
    {
      "plugin": "Bogaudio",
      "version": "0.6.12",
      "model": "Bogaudio-Noise",
      "params": [],
      "pos": [
        14,
        0
      ]
    },
    {
      "plugin": "Befaco",
      "version": "0.6.0",
      "model": "DualAtenuverter",
      "params": [
        {
          "paramId": 0,
          "value": 0.0
        },
        {
          "paramId": 1,
          "value": 0.0
        },
        {
          "paramId": 2,
          "value": 0.0
        },
        {
          "paramId": 3,
          "value": 2.9099977
        }
      ],
      "pos": [
        70,
        0
      ]
    },
    {
      "plugin": "Fundamental",
      "version": "0.6.2",
      "model": "Scope",
      "params": [
        {
          "paramId": 0,
          "value": 1.0
        },
        {
          "paramId": 1,
          "value": 0.0
        },
        {
          "paramId": 2,
          "value": 1.0
        },
        {
          "paramId": 3,
          "value": 0.0
        },
        {
          "paramId": 4,
          "value": -14.0
        },
        {
          "paramId": 5,
          "value": 0.0
        },
        {
          "paramId": 6,
          "value": 0.840000033
        },
        {
          "paramId": 7,
          "value": 0.0
        }
      ],
      "data": {
        "lissajous": 0,
        "external": 0
      },
      "pos": [
        80,
        0
      ]
    },
    {
      "plugin": "Bogaudio",
      "version": "0.6.12",
      "model": "Bogaudio-SampleHold",
      "params": [
        {
          "paramId": 0,
          "value": 0.0
        },
        {
          "paramId": 1,
          "value": 0.0
        }
      ],
      "pos": [
        11,
        0
      ]
    },
    {
      "plugin": "Bogaudio",
      "version": "0.6.12",
      "model": "Bogaudio-VCO",
      "params": [
        {
          "paramId": 0,
          "value": -1.56900251
        },
        {
          "paramId": 1,
          "value": 0.0
        },
        {
          "paramId": 2,
          "value": 0.0
        },
        {
          "paramId": 3,
          "value": 0.0
        },
        {
          "paramId": 4,
          "value": 0.0
        },
        {
          "paramId": 5,
          "value": 1.0
        }
      ],
      "pos": [
        1,
        0
      ]
    },
    {
      "plugin": "Befaco",
      "version": "0.6.0",
      "model": "DualAtenuverter",
      "params": [
        {
          "paramId": 0,
          "value": 0.828000367
        },
        {
          "paramId": 1,
          "value": -1.28999972
        },
        {
          "paramId": 2,
          "value": 0.0
        },
        {
          "paramId": 3,
          "value": 0.0
        }
      ],
      "pos": [
        75,
        0
      ]
    },
    {
      "plugin": "Fundamental",
      "version": "0.6.2",
      "model": "Scope",
      "params": [
        {
          "paramId": 0,
          "value": 1.0
        },
        {
          "paramId": 1,
          "value": 0.0
        },
        {
          "paramId": 2,
          "value": 2.0
        },
        {
          "paramId": 3,
          "value": 0.0
        },
        {
          "paramId": 4,
          "value": -13.2800016
        },
        {
          "paramId": 5,
          "value": 0.0
        },
        {
          "paramId": 6,
          "value": 0.0
        },
        {
          "paramId": 7,
          "value": 0.0
        }
      ],
      "data": {
        "lissajous": 1,
        "external": 0
      },
      "pos": [
        93,
        0
      ]
    },
    {
      "plugin": "Fundamental",
      "version": "0.6.2",
      "model": "VCF",
      "params": [
        {
          "paramId": 0,
          "value": 0.353000611
        },
        {
          "paramId": 1,
          "value": 0.5
        },
        {
          "paramId": 2,
          "value": 0.507000208
        },
        {
          "paramId": 3,
          "value": 1.0
        },
        {
          "paramId": 4,
          "value": 0.569999814
        }
      ],
      "pos": [
        47,
        0
      ]
    },
    {
      "plugin": "Bogaudio",
      "version": "0.6.12",
      "model": "Bogaudio-VCO",
      "params": [
        {
          "paramId": 0,
          "value": 0.0
        },
        {
          "paramId": 1,
          "value": 0.0
        },
        {
          "paramId": 2,
          "value": 0.0
        },
        {
          "paramId": 3,
          "value": 0.0
        },
        {
          "paramId": 4,
          "value": 0.0
        },
        {
          "paramId": 5,
          "value": 1.0
        }
      ],
      "pos": [
        111,
        0
      ]
    },
    {
      "plugin": "Fundamental",
      "version": "0.6.2",
      "model": "VCF",
      "params": [
        {
          "paramId": 0,
          "value": 0.5
        },
        {
          "paramId": 1,
          "value": 0.5
        },
        {
          "paramId": 2,
          "value": 0.0
        },
        {
          "paramId": 3,
          "value": 1.0
        },
        {
          "paramId": 4,
          "value": 0.0
        }
      ],
      "pos": [
        126,
        0
      ]
    },
    {
      "plugin": "Fundamental",
      "version": "0.6.2",
      "model": "VCF",
      "params": [
        {
          "paramId": 0,
          "value": 0.5
        },
        {
          "paramId": 1,
          "value": 0.5
        },
        {
          "paramId": 2,
          "value": 0.0
        },
        {
          "paramId": 3,
          "value": 1.0
        },
        {
          "paramId": 4,
          "value": 0.0
        }
      ],
      "pos": [
        134,
        0
      ]
    },
    {
      "plugin": "Bogaudio",
      "version": "0.6.12",
      "model": "Bogaudio-VCO",
      "params": [
        {
          "paramId": 0,
          "value": 0.00168593589
        },
        {
          "paramId": 1,
          "value": 0.0
        },
        {
          "paramId": 2,
          "value": 0.0
        },
        {
          "paramId": 3,
          "value": 0.0
        },
        {
          "paramId": 4,
          "value": 0.369000405
        },
        {
          "paramId": 5,
          "value": 1.0
        }
      ],
      "pos": [
        142,
        0
      ]
    },
    {
      "plugin": "Fundamental",
      "version": "0.6.2",
      "model": "Scope",
      "params": [
        {
          "paramId": 0,
          "value": 0.0
        },
        {
          "paramId": 1,
          "value": 0.0
        },
        {
          "paramId": 2,
          "value": 1.0
        },
        {
          "paramId": 3,
          "value": 0.0
        },
        {
          "paramId": 4,
          "value": -14.0
        },
        {
          "paramId": 5,
          "value": 0.0
        },
        {
          "paramId": 6,
          "value": 0.0
        },
        {
          "paramId": 7,
          "value": 0.0
        }
      ],
      "data": {
        "lissajous": 1,
        "external": 0
      },
      "pos": [
        152,
        0
      ]
    },
    {
      "plugin": "Fundamental",
      "version": "0.6.2",
      "model": "VCF",
      "params": [
        {
          "paramId": 0,
          "value": 0.5
        },
        {
          "paramId": 1,
          "value": 0.5
        },
        {
          "paramId": 2,
          "value": 0.0
        },
        {
          "paramId": 3,
          "value": 1.0
        },
        {
          "paramId": 4,
          "value": 0.0
        }
      ],
      "pos": [
        168,
        1
      ]
    },
    {
      "plugin": "Fundamental",
      "version": "0.6.2",
      "model": "VCF",
      "params": [
        {
          "paramId": 0,
          "value": 0.5
        },
        {
          "paramId": 1,
          "value": 0.5
        },
        {
          "paramId": 2,
          "value": 0.0
        },
        {
          "paramId": 3,
          "value": 1.0
        },
        {
          "paramId": 4,
          "value": 0.0
        }
      ],
      "pos": [
        160,
        1
      ]
    },
    {
      "plugin": "Fundamental",
      "version": "0.6.2",
      "model": "Scope",
      "params": [
        {
          "paramId": 0,
          "value": 0.0
        },
        {
          "paramId": 1,
          "value": 0.0
        },
        {
          "paramId": 2,
          "value": 0.0
        },
        {
          "paramId": 3,
          "value": 0.0
        },
        {
          "paramId": 4,
          "value": -14.0
        },
        {
          "paramId": 5,
          "value": 0.0
        },
        {
          "paramId": 6,
          "value": 0.0
        },
        {
          "paramId": 7,
          "value": 0.0
        }
      ],
      "data": {
        "lissajous": 0,
        "external": 0
      },
      "pos": [
        165,
        0
      ]
    },
    {
      "plugin": "Fundamental",
      "version": "0.6.2",
      "model": "Scope",
      "params": [
        {
          "paramId": 0,
          "value": 0.0
        },
        {
          "paramId": 1,
          "value": 0.0
        },
        {
          "paramId": 2,
          "value": 0.0
        },
        {
          "paramId": 3,
          "value": 0.0
        },
        {
          "paramId": 4,
          "value": -6.67999744
        },
        {
          "paramId": 5,
          "value": 0.0
        },
        {
          "paramId": 6,
          "value": 0.840000033
        },
        {
          "paramId": 7,
          "value": 0.0
        }
      ],
      "data": {
        "lissajous": 0,
        "external": 0
      },
      "pos": [
        11,
        2
      ]
    },
    {
      "plugin": "Fundamental",
      "version": "0.6.2",
      "model": "Delay",
      "params": [
        {
          "paramId": 0,
          "value": 0.150498554
        },
        {
          "paramId": 1,
          "value": 1.0
        },
        {
          "paramId": 2,
          "value": 0.292500049
        },
        {
          "paramId": 3,
          "value": 1.0
        }
      ],
      "pos": [
        62,
        0
      ]
    },
    {
      "plugin": "Fundamental",
      "version": "0.6.2",
      "model": "Scope",
      "params": [
        {
          "paramId": 0,
          "value": 1.0
        },
        {
          "paramId": 1,
          "value": 0.0
        },
        {
          "paramId": 2,
          "value": 1.0
        },
        {
          "paramId": 3,
          "value": 0.0
        },
        {
          "paramId": 4,
          "value": -14.0
        },
        {
          "paramId": 5,
          "value": 0.0
        },
        {
          "paramId": 6,
          "value": 0.840000033
        },
        {
          "paramId": 7,
          "value": 0.0
        }
      ],
      "data": {
        "lissajous": 0,
        "external": 0
      },
      "pos": [
        77,
        2
      ]
    }
  ],
  "wires": [
    {
      "color": "#0c8e15",
      "outputModuleId": 3,
      "outputId": 1,
      "inputModuleId": 4,
      "inputId": 2
    },
    {
      "color": "#0986ad",
      "outputModuleId": 3,
      "outputId": 2,
      "inputModuleId": 4,
      "inputId": 3
    },
    {
      "color": "#c9b70e",
      "outputModuleId": 3,
      "outputId": 3,
      "inputModuleId": 4,
      "inputId": 4
    },
    {
      "color": "#0c8e15",
      "outputModuleId": 3,
      "outputId": 0,
      "inputModuleId": 4,
      "inputId": 0
    },
    {
      "color": "#c9b70e",
      "outputModuleId": 5,
      "outputId": 2,
      "inputModuleId": 3,
      "inputId": 2
    },
    {
      "color": "#0c8e15",
      "outputModuleId": 6,
      "outputId": 0,
      "inputModuleId": 8,
      "inputId": 0
    },
    {
      "color": "#0986ad",
      "outputModuleId": 7,
      "outputId": 0,
      "inputModuleId": 8,
      "inputId": 1
    },
    {
      "color": "#c91847",
      "outputModuleId": 2,
      "outputId": 0,
      "inputModuleId": 9,
      "inputId": 1
    },
    {
      "color": "#0c8e15",
      "outputModuleId": 5,
      "outputId": 1,
      "inputModuleId": 4,
      "inputId": 1
    },
    {
      "color": "#c91847",
      "outputModuleId": 11,
      "outputId": 0,
      "inputModuleId": 24,
      "inputId": 1
    },
    {
      "color": "#0c8e15",
      "outputModuleId": 11,
      "outputId": 0,
      "inputModuleId": 6,
      "inputId": 0
    },
    {
      "color": "#c91847",
      "outputModuleId": 10,
      "outputId": 0,
      "inputModuleId": 7,
      "inputId": 1
    },
    {
      "color": "#0c8e15",
      "outputModuleId": 10,
      "outputId": 0,
      "inputModuleId": 6,
      "inputId": 1
    },
    {
      "color": "#0986ad",
      "outputModuleId": 13,
      "outputId": 1,
      "inputModuleId": 10,
      "inputId": 7
    },
    {
      "color": "#0986ad",
      "outputModuleId": 12,
      "outputId": 3,
      "inputModuleId": 3,
      "inputId": 1
    },
    {
      "color": "#c9b70e",
      "outputModuleId": 2,
      "outputId": 0,
      "inputModuleId": 12,
      "inputId": 1
    },
    {
      "color": "#0986ad",
      "outputModuleId": 8,
      "outputId": 2,
      "inputModuleId": 1,
      "inputId": 0
    },
    {
      "color": "#c9b70e",
      "outputModuleId": 8,
      "outputId": 3,
      "inputModuleId": 1,
      "inputId": 1
    },
    {
      "color": "#c91847",
      "outputModuleId": 5,
      "outputId": 0,
      "inputModuleId": 13,
      "inputId": 0
    },
    {
      "color": "#0c8e15",
      "outputModuleId": 13,
      "outputId": 0,
      "inputModuleId": 10,
      "inputId": 6
    },
    {
      "color": "#0986ad",
      "outputModuleId": 13,
      "outputId": 0,
      "inputModuleId": 10,
      "inputId": 5
    },
    {
      "color": "#c9b70e",
      "outputModuleId": 13,
      "outputId": 0,
      "inputModuleId": 10,
      "inputId": 4
    },
    {
      "color": "#0986ad",
      "outputModuleId": 9,
      "outputId": 0,
      "inputModuleId": 13,
      "inputId": 1
    },
    {
      "color": "#0c8e15",
      "outputModuleId": 9,
      "outputId": 0,
      "inputModuleId": 11,
      "inputId": 0
    },
    {
      "color": "#c9b70e",
      "outputModuleId": 5,
      "outputId": 3,
      "inputModuleId": 2,
      "inputId": 3
    },
    {
      "color": "#c9b70e",
      "outputModuleId": 14,
      "outputId": 0,
      "inputModuleId": 6,
      "inputId": 3
    },
    {
      "color": "#c91847",
      "outputModuleId": 14,
      "outputId": 0,
      "inputModuleId": 7,
      "inputId": 3
    },
    {
      "color": "#0c8e15",
      "outputModuleId": 0,
      "outputId": 0,
      "inputModuleId": 6,
      "inputId": 4
    },
    {
      "color": "#0986ad",
      "outputModuleId": 16,
      "outputId": 0,
      "inputModuleId": 7,
      "inputId": 4
    },
    {
      "color": "#0c8e15",
      "outputModuleId": 4,
      "outputId": 0,
      "inputModuleId": 17,
      "inputId": 0
    },
    {
      "color": "#0986ad",
      "outputModuleId": 14,
      "outputId": 1,
      "inputModuleId": 16,
      "inputId": 0
    },
    {
      "color": "#c9b70e",
      "outputModuleId": 14,
      "outputId": 1,
      "inputModuleId": 0,
      "inputId": 0
    },
    {
      "color": "#c9b70e",
      "outputModuleId": 5,
      "outputId": 4,
      "inputModuleId": 20,
      "inputId": 1
    },
    {
      "color": "#c9b70e",
      "outputModuleId": 19,
      "outputId": 0,
      "inputModuleId": 20,
      "inputId": 3
    },
    {
      "color": "#c91847",
      "outputModuleId": 23,
      "outputId": 0,
      "inputModuleId": 20,
      "inputId": 5
    },
    {
      "color": "#0c8e15",
      "outputModuleId": 21,
      "outputId": 0,
      "inputModuleId": 20,
      "inputId": 4
    },
    {
      "color": "#0986ad",
      "outputModuleId": 22,
      "outputId": 0,
      "inputModuleId": 20,
      "inputId": 2
    },
    {
      "color": "#c9b70e",
      "outputModuleId": 3,
      "outputId": 5,
      "inputModuleId": 22,
      "inputId": 0
    },
    {
      "color": "#c91847",
      "outputModuleId": 3,
      "outputId": 7,
      "inputModuleId": 19,
      "inputId": 0
    },
    {
      "color": "#0c8e15",
      "outputModuleId": 3,
      "outputId": 9,
      "inputModuleId": 21,
      "inputId": 0
    },
    {
      "color": "#0986ad",
      "outputModuleId": 3,
      "outputId": 11,
      "inputModuleId": 23,
      "inputId": 0
    },
    {
      "color": "#c91847",
      "outputModuleId": 3,
      "outputId": 5,
      "inputModuleId": 20,
      "inputId": 0
    },
    {
      "color": "#0c8e15",
      "outputModuleId": 24,
      "outputId": 0,
      "inputModuleId": 7,
      "inputId": 0
    },
    {
      "color": "#c91847",
      "outputModuleId": 17,
      "outputId": 0,
      "inputModuleId": 29,
      "inputId": 0
    },
    {
      "color": "#0986ad",
      "outputModuleId": 27,
      "outputId": 0,
      "inputModuleId": 25,
      "inputId": 14
    },
    {
      "color": "#0c8e15",
      "outputModuleId": 27,
      "outputId": 0,
      "inputModuleId": 0,
      "inputId": 2
    },
    {
      "color": "#0986ad",
      "outputModuleId": 27,
      "outputId": 0,
      "inputModuleId": 16,
      "inputId": 2
    },
    {
      "color": "#c91847",
      "outputModuleId": 27,
      "outputId": 0,
      "inputModuleId": 15,
      "inputId": 0
    },
    {
      "color": "#0c8e15",
      "outputModuleId": 27,
      "outputId": 0,
      "inputModuleId": 25,
      "inputId": 6
    },
    {
      "color": "#c9b70e",
      "outputModuleId": 2,
      "outputId": 0,
      "inputModuleId": 25,
      "inputId": 2
    },
    {
      "color": "#c91847",
      "outputModuleId": 29,
      "outputId": 0,
      "inputModuleId": 28,
      "inputId": 3
    },
    {
      "color": "#0c8e15",
      "outputModuleId": 28,
      "outputId": 0,
      "inputModuleId": 27,
      "inputId": 7
    },
    {
      "color": "#0986ad",
      "outputModuleId": 3,
      "outputId": 0,
      "inputModuleId": 30,
      "inputId": 0
    },
    {
      "color": "#c9b70e",
      "outputModuleId": 30,
      "outputId": 0,
      "inputModuleId": 28,
      "inputId": 0
    },
    {
      "color": "#c91847",
      "outputModuleId": 25,
      "outputId": 2,
      "inputModuleId": 31,
      "inputId": 3
    },
    {
      "color": "#0c8e15",
      "outputModuleId": 31,
      "outputId": 0,
      "inputModuleId": 15,
      "inputId": 2
    },
    {
      "color": "#0986ad",
      "outputModuleId": 31,
      "outputId": 0,
      "inputModuleId": 0,
      "inputId": 1
    },
    {
      "color": "#c91847",
      "outputModuleId": 25,
      "outputId": 10,
      "inputModuleId": 32,
      "inputId": 3
    },
    {
      "color": "#0c8e15",
      "outputModuleId": 32,
      "outputId": 0,
      "inputModuleId": 16,
      "inputId": 1
    },
    {
      "color": "#0986ad",
      "outputModuleId": 33,
      "outputId": 1,
      "inputModuleId": 32,
      "inputId": 0
    },
    {
      "color": "#c91847",
      "outputModuleId": 33,
      "outputId": 1,
      "inputModuleId": 31,
      "inputId": 0
    },
    {
      "color": "#0986ad",
      "outputModuleId": 35,
      "outputId": 1,
      "inputModuleId": 0,
      "inputId": 5
    },
    {
      "color": "#c9b70e",
      "outputModuleId": 35,
      "outputId": 1,
      "inputModuleId": 16,
      "inputId": 5
    },
    {
      "color": "#c91847",
      "outputModuleId": 35,
      "outputId": 0,
      "inputModuleId": 0,
      "inputId": 6
    },
    {
      "color": "#0c8e15",
      "outputModuleId": 35,
      "outputId": 0,
      "inputModuleId": 16,
      "inputId": 6
    },
    {
      "color": "#c9b70e",
      "outputModuleId": 35,
      "outputId": 1,
      "inputModuleId": 35,
      "inputId": 0
    },
    {
      "color": "#c9b70e",
      "outputModuleId": 2,
      "outputId": 0,
      "inputModuleId": 25,
      "inputId": 4
    },
    {
      "color": "#c9b70e",
      "outputModuleId": 2,
      "outputId": 0,
      "inputModuleId": 33,
      "inputId": 1
    },
    {
      "color": "#c9b70e",
      "outputModuleId": 41,
      "outputId": 0,
      "inputModuleId": 25,
      "inputId": 7
    },
    {
      "color": "#c91847",
      "outputModuleId": 17,
      "outputId": 0,
      "inputModuleId": 25,
      "inputId": 3
    },
    {
      "color": "#0986ad",
      "outputModuleId": 39,
      "outputId": 0,
      "inputModuleId": 0,
      "inputId": 7
    },
    {
      "color": "#c9b70e",
      "outputModuleId": 39,
      "outputId": 0,
      "inputModuleId": 16,
      "inputId": 7
    },
    {
      "color": "#c91847",
      "outputModuleId": 25,
      "outputId": 5,
      "inputModuleId": 16,
      "inputId": 3
    },
    {
      "color": "#0c8e15",
      "outputModuleId": 30,
      "outputId": 0,
      "inputModuleId": 39,
      "inputId": 0
    },
    {
      "color": "#c91847",
      "outputModuleId": 38,
      "outputId": 0,
      "inputModuleId": 37,
      "inputId": 0
    },
    {
      "color": "#c9b70e",
      "outputModuleId": 34,
      "outputId": 2,
      "inputModuleId": 41,
      "inputId": 3
    },
    {
      "color": "#0c8e15",
      "outputModuleId": 25,
      "outputId": 5,
      "inputModuleId": 0,
      "inputId": 3
    },
    {
      "color": "#0986ad",
      "outputModuleId": 25,
      "outputId": 7,
      "inputModuleId": 25,
      "inputId": 13
    },
    {
      "color": "#0986ad",
      "outputModuleId": 25,
      "outputId": 3,
      "inputModuleId": 43,
      "inputId": 3
    },
    {
      "color": "#c9b70e",
      "outputModuleId": 25,
      "outputId": 11,
      "inputModuleId": 44,
      "inputId": 3
    },
    {
      "color": "#c91847",
      "outputModuleId": 43,
      "outputId": 0,
      "inputModuleId": 40,
      "inputId": 0
    },
    {
      "color": "#0c8e15",
      "outputModuleId": 44,
      "outputId": 0,
      "inputModuleId": 40,
      "inputId": 1
    },
    {
      "color": "#0986ad",
      "outputModuleId": 43,
      "outputId": 0,
      "inputModuleId": 15,
      "inputId": 1
    },
    {
      "color": "#c9b70e",
      "outputModuleId": 26,
      "outputId": 0,
      "inputModuleId": 44,
      "inputId": 0
    },
    {
      "color": "#c91847",
      "outputModuleId": 26,
      "outputId": 0,
      "inputModuleId": 43,
      "inputId": 0
    },
    {
      "color": "#0986ad",
      "outputModuleId": 39,
      "outputId": 1,
      "inputModuleId": 16,
      "inputId": 8
    },
    {
      "color": "#c9b70e",
      "outputModuleId": 39,
      "outputId": 1,
      "inputModuleId": 0,
      "inputId": 8
    },
    {
      "color": "#0c8e15",
      "outputModuleId": 43,
      "outputId": 0,
      "inputModuleId": 0,
      "inputId": 4
    },
    {
      "color": "#0986ad",
      "outputModuleId": 44,
      "outputId": 0,
      "inputModuleId": 16,
      "inputId": 4
    },
    {
      "color": "#c9b70e",
      "outputModuleId": 25,
      "outputId": 7,
      "inputModuleId": 18,
      "inputId": 2
    },
    {
      "color": "#0c8e15",
      "outputModuleId": 26,
      "outputId": 1,
      "inputModuleId": 48,
      "inputId": 0
    },
    {
      "color": "#0986ad",
      "outputModuleId": 26,
      "outputId": 1,
      "inputModuleId": 47,
      "inputId": 0
    },
    {
      "color": "#c9b70e",
      "outputModuleId": 42,
      "outputId": 0,
      "inputModuleId": 48,
      "inputId": 3
    },
    {
      "color": "#c91847",
      "outputModuleId": 45,
      "outputId": 0,
      "inputModuleId": 47,
      "inputId": 3
    },
    {
      "color": "#0986ad",
      "outputModuleId": 48,
      "outputId": 0,
      "inputModuleId": 25,
      "inputId": 9
    },
    {
      "color": "#c9b70e",
      "outputModuleId": 47,
      "outputId": 0,
      "inputModuleId": 25,
      "inputId": 17
    },
    {
      "color": "#c91847",
      "outputModuleId": 48,
      "outputId": 0,
      "inputModuleId": 46,
      "inputId": 0
    },
    {
      "color": "#0c8e15",
      "outputModuleId": 47,
      "outputId": 0,
      "inputModuleId": 46,
      "inputId": 1
    },
    {
      "color": "#0986ad",
      "outputModuleId": 48,
      "outputId": 0,
      "inputModuleId": 49,
      "inputId": 0
    },
    {
      "color": "#c9b70e",
      "outputModuleId": 47,
      "outputId": 0,
      "inputModuleId": 49,
      "inputId": 1
    },
    {
      "color": "#c91847",
      "outputModuleId": 48,
      "outputId": 0,
      "inputModuleId": 18,
      "inputId": 1
    },
    {
      "color": "#c9b70e",
      "outputModuleId": 44,
      "outputId": 0,
      "inputModuleId": 36,
      "inputId": 1
    },
    {
      "color": "#c91847",
      "outputModuleId": 43,
      "outputId": 0,
      "inputModuleId": 36,
      "inputId": 0
    },
    {
      "color": "#0986ad",
      "outputModuleId": 17,
      "outputId": 0,
      "inputModuleId": 26,
      "inputId": 0
    },
    {
      "color": "#0c8e15",
      "outputModuleId": 2,
      "outputId": 0,
      "inputModuleId": 50,
      "inputId": 0
    },
    {
      "color": "#0986ad",
      "outputModuleId": 25,
      "outputId": 4,
      "inputModuleId": 51,
      "inputId": 4
    },
    {
      "color": "#c9b70e",
      "outputModuleId": 51,
      "outputId": 0,
      "inputModuleId": 25,
      "inputId": 12
    },
    {
      "color": "#c91847",
      "outputModuleId": 27,
      "outputId": 0,
      "inputModuleId": 52,
      "inputId": 0
    },
    {
      "color": "#0c8e15",
      "outputModuleId": 25,
      "outputId": 2,
      "inputModuleId": 52,
      "inputId": 1
    },
    {
      "color": "#c91847",
      "outputModuleId": 51,
      "outputId": 0,
      "inputModuleId": 15,
      "inputId": 3
    }
  ]
}