{
  "version": "0.6.2b",
  "modules": [
    {
      "plugin": "Fundamental",
      "version": "0.6.2",
      "model": "VCMixer",
      "params": [
        {
          "paramId": 0,
          "value": 2.0
        },
        {
          "paramId": 1,
          "value": 0.54099977
        },
        {
          "paramId": 2,
          "value": 0.549999833
        },
        {
          "paramId": 3,
          "value": 1.0
        },
        {
          "paramId": 4,
          "value": 1.0
        }
      ],
      "pos": [
        65,
        1
      ]
    },
    {
      "plugin": "Core",
      "version": "0.6.2b",
      "model": "AudioInterface",
      "params": [],
      "data": {
        "audio": {
          "driver": 8,
          "deviceName": "Speakers (Realtek High Definition Audio)",
          "offset": 0,
          "maxChannels": 8,
          "sampleRate": 44100,
          "blockSize": 4096
        }
      },
      "pos": [
        130,
        1
      ]
    },
    {
      "plugin": "TechTechTechnologies",
      "version": "0.6.1",
      "model": "Odysseus",
      "params": [
        {
          "paramId": 1,
          "value": 0.5
        },
        {
          "paramId": 3,
          "value": 0.0
        },
        {
          "paramId": 0,
          "value": 0.5
        },
        {
          "paramId": 2,
          "value": 1.0
        },
        {
          "paramId": 4,
          "value": 0.588998735
        },
        {
          "paramId": 5,
          "value": 0.83349967
        },
        {
          "paramId": 6,
          "value": 0.0
        },
        {
          "paramId": 7,
          "value": 0.0
        },
        {
          "paramId": 8,
          "value": 0.0
        },
        {
          "paramId": 9,
          "value": 0.0
        },
        {
          "paramId": 10,
          "value": 0.0
        }
      ],
      "pos": [
        22,
        2
      ]
    },
    {
      "plugin": "Fundamental",
      "version": "0.6.2",
      "model": "SEQ3",
      "params": [
        {
          "paramId": 0,
          "value": 2.0
        },
        {
          "paramId": 1,
          "value": 0.0
        },
        {
          "paramId": 2,
          "value": 0.0
        },
        {
          "paramId": 3,
          "value": 7.0
        },
        {
          "paramId": 4,
          "value": 0.0
        },
        {
          "paramId": 12,
          "value": 3.70500135
        },
        {
          "paramId": 20,
          "value": 0.0
        },
        {
          "paramId": 28,
          "value": 0.0
        },
        {
          "paramId": 5,
          "value": 1.39499998
        },
        {
          "paramId": 13,
          "value": 1.3949995
        },
        {
          "paramId": 21,
          "value": 0.0
        },
        {
          "paramId": 29,
          "value": 0.0
        },
        {
          "paramId": 6,
          "value": 0.614999831
        },
        {
          "paramId": 14,
          "value": 2.93530846
        },
        {
          "paramId": 22,
          "value": 0.629999936
        },
        {
          "paramId": 30,
          "value": 0.0
        },
        {
          "paramId": 7,
          "value": 1.22999954
        },
        {
          "paramId": 15,
          "value": 0.0
        },
        {
          "paramId": 23,
          "value": 0.0
        },
        {
          "paramId": 31,
          "value": 0.0
        },
        {
          "paramId": 8,
          "value": 0.479999959
        },
        {
          "paramId": 16,
          "value": 0.0
        },
        {
          "paramId": 24,
          "value": 1.85999703
        },
        {
          "paramId": 32,
          "value": 0.0
        },
        {
          "paramId": 9,
          "value": 1.58999932
        },
        {
          "paramId": 17,
          "value": 2.41500139
        },
        {
          "paramId": 25,
          "value": 1.54499936
        },
        {
          "paramId": 33,
          "value": 0.0
        },
        {
          "paramId": 10,
          "value": 0.524999976
        },
        {
          "paramId": 18,
          "value": 0.0
        },
        {
          "paramId": 26,
          "value": 0.0
        },
        {
          "paramId": 34,
          "value": 0.0
        },
        {
          "paramId": 11,
          "value": 0.0
        },
        {
          "paramId": 19,
          "value": 0.0
        },
        {
          "paramId": 27,
          "value": 0.0
        },
        {
          "paramId": 35,
          "value": 0.0
        }
      ],
      "data": {
        "running": true,
        "gates": [
          1,
          1,
          1,
          1,
          1,
          1,
          1,
          1
        ]
      },
      "pos": [
        42,
        2
      ]
    },
    {
      "plugin": "Fundamental",
      "version": "0.6.2",
      "model": "SequentialSwitch2",
      "params": [
        {
          "paramId": 0,
          "value": 1.0
        }
      ],
      "pos": [
        64,
        2
      ]
    },
    {
      "plugin": "Bogaudio",
      "version": "0.6.12",
      "model": "Bogaudio-Manual",
      "params": [
        {
          "paramId": 0,
          "value": 0.0
        }
      ],
      "data": {
        "triggerOnLoad": false,
        "shouldTriggerOnLoad": true
      },
      "pos": [
        127,
        2
      ]
    },
    {
      "plugin": "Fundamental",
      "version": "0.6.2",
      "model": "Delay",
      "params": [
        {
          "paramId": 0,
          "value": 0.5
        },
        {
          "paramId": 1,
          "value": 0.562999964
        },
        {
          "paramId": 2,
          "value": 0.5
        },
        {
          "paramId": 3,
          "value": 0.5
        }
      ],
      "pos": [
        95,
        1
      ]
    },
    {
      "plugin": "NYSTHI",
      "version": "0.6.14",
      "model": "MasterRecorder2",
      "params": [
        {
          "paramId": 0,
          "value": 0.0
        },
        {
          "paramId": 1,
          "value": 0.0
        },
        {
          "paramId": 2,
          "value": 0.0
        },
        {
          "paramId": 8,
          "value": 0.0
        },
        {
          "paramId": 9,
          "value": 0.00499999989
        },
        {
          "paramId": 10,
          "value": 0.0233649909
        },
        {
          "paramId": 11,
          "value": 4.37974882
        },
        {
          "paramId": 12,
          "value": 0.00999999978
        },
        {
          "paramId": 3,
          "value": 1.0
        },
        {
          "paramId": 4,
          "value": 1.0
        },
        {
          "paramId": 13,
          "value": 0.0
        },
        {
          "paramId": 14,
          "value": 0.100000001
        },
        {
          "paramId": 5,
          "value": 0.0
        },
        {
          "paramId": 6,
          "value": 0.0
        },
        {
          "paramId": 7,
          "value": 0.0
        }
      ],
      "data": {
        "nysthi_id": "MR2_w9S3tY52",
        "wavebits": 9,
        "rms_time": 0.00100000005,
        "peak_time": 0.5,
        "m_invertphaseleft": false,
        "m_invertphaseright": false,
        "m_locklevelleftright": false,
        "m_kompressor_active": false,
        "m_autosave": true,
        "m_distort": false
      },
      "pos": [
        118,
        2
      ]
    },
    {
      "plugin": "Fundamental",
      "version": "0.6.2",
      "model": "VCA-1",
      "params": [
        {
          "paramId": 0,
          "value": 0.143499985
        },
        {
          "paramId": 1,
          "value": 1.0
        }
      ],
      "pos": [
        114,
        1
      ]
    },
    {
      "plugin": "Bogaudio",
      "version": "0.6.12",
      "model": "Bogaudio-UMix",
      "params": [
        {
          "paramId": 0,
          "value": 1.0
        }
      ],
      "data": {
        "sum": true
      },
      "pos": [
        122,
        1
      ]
    },
    {
      "plugin": "Befaco",
      "version": "0.6.0",
      "model": "DualAtenuverter",
      "params": [
        {
          "paramId": 0,
          "value": 0.216999412
        },
        {
          "paramId": 1,
          "value": 0.989999592
        },
        {
          "paramId": 2,
          "value": -1.0
        },
        {
          "paramId": 3,
          "value": 9.93999958
        }
      ],
      "pos": [
        117,
        1
      ]
    },
    {
      "plugin": "Fundamental",
      "version": "0.6.2",
      "model": "LFO",
      "params": [
        {
          "paramId": 0,
          "value": 1.0
        },
        {
          "paramId": 1,
          "value": 1.0
        },
        {
          "paramId": 2,
          "value": 1.40499985
        },
        {
          "paramId": 3,
          "value": 0.0960000679
        },
        {
          "paramId": 5,
          "value": 0.5
        },
        {
          "paramId": 4,
          "value": 0.0
        },
        {
          "paramId": 6,
          "value": 0.0
        }
      ],
      "pos": [
        32,
        2
      ]
    },
    {
      "plugin": "Befaco",
      "version": "0.6.0",
      "model": "DualAtenuverter",
      "params": [
        {
          "paramId": 0,
          "value": -1.0
        },
        {
          "paramId": 1,
          "value": 0.0
        },
        {
          "paramId": 2,
          "value": -0.891999781
        },
        {
          "paramId": 3,
          "value": 1.05000007
        }
      ],
      "pos": [
        125,
        1
      ]
    },
    {
      "plugin": "Befaco",
      "version": "0.6.0",
      "model": "DualAtenuverter",
      "params": [
        {
          "paramId": 0,
          "value": -0.276000023
        },
        {
          "paramId": 1,
          "value": 10.0
        },
        {
          "paramId": 2,
          "value": -1.0
        },
        {
          "paramId": 3,
          "value": 0.0
        }
      ],
      "pos": [
        60,
        1
      ]
    },
    {
      "plugin": "Bogaudio",
      "version": "0.6.12",
      "model": "Bogaudio-Analyzer",
      "params": [
        {
          "paramId": 5,
          "value": 0.0
        },
        {
          "paramId": 1,
          "value": 0.0
        },
        {
          "paramId": 2,
          "value": 3.0
        },
        {
          "paramId": 4,
          "value": 1.0
        }
      ],
      "pos": [
        37,
        0
      ]
    },
    {
      "plugin": "Fundamental",
      "version": "0.6.2",
      "model": "VCMixer",
      "params": [
        {
          "paramId": 0,
          "value": 2.0
        },
        {
          "paramId": 1,
          "value": 0.504999816
        },
        {
          "paramId": 2,
          "value": 0.543999851
        },
        {
          "paramId": 3,
          "value": 1.0
        },
        {
          "paramId": 4,
          "value": 1.0
        }
      ],
      "pos": [
        85,
        1
      ]
    },
    {
      "plugin": "NYSTHI",
      "version": "0.6.14",
      "model": "ScalaQuantizer",
      "params": [
        {
          "paramId": 2,
          "value": 0.0
        },
        {
          "paramId": 3,
          "value": 0.0
        }
      ],
      "data": {
        "m_current_octave": 0,
        "m_current_tuning": 0.0,
        "m_current_scale": "Ancient Greek Archytas Diatonic.scl - Archytas' Diatonic",
        "m_bypass": false
      },
      "pos": [
        67,
        2
      ]
    },
    {
      "plugin": "Bogaudio",
      "version": "0.6.12",
      "model": "Bogaudio-UMix",
      "params": [
        {
          "paramId": 0,
          "value": 1.0
        }
      ],
      "data": {
        "sum": true
      },
      "pos": [
        29,
        3
      ]
    },
    {
      "plugin": "Fundamental",
      "version": "0.6.2",
      "model": "SequentialSwitch2",
      "params": [
        {
          "paramId": 0,
          "value": 0.0
        }
      ],
      "pos": [
        50,
        3
      ]
    },
    {
      "plugin": "Bogaudio",
      "version": "0.6.12",
      "model": "Bogaudio-UMix",
      "params": [
        {
          "paramId": 0,
          "value": 1.0
        }
      ],
      "data": {
        "sum": true
      },
      "pos": [
        32,
        3
      ]
    },
    {
      "plugin": "Bogaudio",
      "version": "0.6.12",
      "model": "Bogaudio-UMix",
      "params": [
        {
          "paramId": 0,
          "value": 1.0
        }
      ],
      "data": {
        "sum": true
      },
      "pos": [
        26,
        3
      ]
    },
    {
      "plugin": "Bogaudio",
      "version": "0.6.12",
      "model": "Bogaudio-UMix",
      "params": [
        {
          "paramId": 0,
          "value": 1.0
        }
      ],
      "data": {
        "sum": true
      },
      "pos": [
        35,
        3
      ]
    },
    {
      "plugin": "Bogaudio",
      "version": "0.6.12",
      "model": "Bogaudio-UMix",
      "params": [
        {
          "paramId": 0,
          "value": 1.0
        }
      ],
      "data": {
        "sum": true
      },
      "pos": [
        103,
        1
      ]
    },
    {
      "plugin": "TechTechTechnologies",
      "version": "0.6.1",
      "model": "QMod",
      "params": [
        {
          "paramId": 8,
          "value": 1.0
        },
        {
          "paramId": 4,
          "value": 0.0
        },
        {
          "paramId": 0,
          "value": 1.0
        },
        {
          "paramId": 5,
          "value": 1.72200167
        },
        {
          "paramId": 1,
          "value": 0.158999979
        },
        {
          "paramId": 6,
          "value": 0.0
        },
        {
          "paramId": 2,
          "value": 1.0
        },
        {
          "paramId": 7,
          "value": 0.993003547
        },
        {
          "paramId": 3,
          "value": -0.0989999771
        },
        {
          "paramId": 9,
          "value": 1.0
        },
        {
          "paramId": 10,
          "value": 1.0
        },
        {
          "paramId": 11,
          "value": 1.0
        }
      ],
      "pos": [
        42,
        1
      ]
    },
    {
      "plugin": "Befaco",
      "version": "0.6.0",
      "model": "DualAtenuverter",
      "params": [
        {
          "paramId": 0,
          "value": 0.0
        },
        {
          "paramId": 1,
          "value": 10.0
        },
        {
          "paramId": 2,
          "value": -0.166936651
        },
        {
          "paramId": 3,
          "value": 0.150001287
        }
      ],
      "pos": [
        75,
        1
      ]
    },
    {
      "plugin": "Befaco",
      "version": "0.6.0",
      "model": "DualAtenuverter",
      "params": [
        {
          "paramId": 0,
          "value": 0.0
        },
        {
          "paramId": 1,
          "value": 0.0
        },
        {
          "paramId": 2,
          "value": 0.0
        },
        {
          "paramId": 3,
          "value": 0.0524999872
        }
      ],
      "pos": [
        80,
        1
      ]
    },
    {
      "plugin": "TechTechTechnologies",
      "version": "0.6.1",
      "model": "Achilles",
      "params": [
        {
          "paramId": 7,
          "value": 0.0
        },
        {
          "paramId": 11,
          "value": 0.0
        },
        {
          "paramId": 12,
          "value": -0.830999613
        },
        {
          "paramId": 8,
          "value": 0.0
        },
        {
          "paramId": 9,
          "value": 0.0
        },
        {
          "paramId": 13,
          "value": 0.170999974
        },
        {
          "paramId": 14,
          "value": 0.975000322
        },
        {
          "paramId": 10,
          "value": 0.0
        },
        {
          "paramId": 15,
          "value": 0.978999853
        },
        {
          "paramId": 40,
          "value": 0.5
        },
        {
          "paramId": 41,
          "value": -1.0
        },
        {
          "paramId": 16,
          "value": 0.0
        },
        {
          "paramId": 33,
          "value": 1.0
        },
        {
          "paramId": 27,
          "value": 0.0
        },
        {
          "paramId": 34,
          "value": 0.0
        },
        {
          "paramId": 35,
          "value": 0.5
        },
        {
          "paramId": 32,
          "value": 1.0
        },
        {
          "paramId": 24,
          "value": 1.0
        },
        {
          "paramId": 4,
          "value": 1.0
        },
        {
          "paramId": 19,
          "value": 1.0
        },
        {
          "paramId": 25,
          "value": 0.0
        },
        {
          "paramId": 22,
          "value": 0.0
        },
        {
          "paramId": 26,
          "value": 0.0
        },
        {
          "paramId": 23,
          "value": 0.5
        },
        {
          "paramId": 5,
          "value": 0.0
        },
        {
          "paramId": 2,
          "value": 1.0
        },
        {
          "paramId": 6,
          "value": 0.0
        },
        {
          "paramId": 3,
          "value": 0.5
        },
        {
          "paramId": 20,
          "value": 0.0
        },
        {
          "paramId": 17,
          "value": 0.0
        },
        {
          "paramId": 21,
          "value": 0.0
        },
        {
          "paramId": 18,
          "value": 0.5
        },
        {
          "paramId": 36,
          "value": 0.342000008
        },
        {
          "paramId": 29,
          "value": 0.916999996
        },
        {
          "paramId": 28,
          "value": 0.5
        },
        {
          "paramId": 37,
          "value": 0.392000109
        },
        {
          "paramId": 31,
          "value": 0.939499378
        },
        {
          "paramId": 30,
          "value": 0.628999949
        },
        {
          "paramId": 38,
          "value": -0.384000063
        },
        {
          "paramId": 1,
          "value": -1.0
        },
        {
          "paramId": 0,
          "value": -0.0639997572
        },
        {
          "paramId": 39,
          "value": 0.521999896
        }
      ],
      "pos": [
        15,
        1
      ]
    },
    {
      "plugin": "Fundamental",
      "version": "0.6.2",
      "model": "Scope",
      "params": [
        {
          "paramId": 0,
          "value": 0.0
        },
        {
          "paramId": 1,
          "value": 0.0
        },
        {
          "paramId": 2,
          "value": 0.0
        },
        {
          "paramId": 3,
          "value": 0.0
        },
        {
          "paramId": 4,
          "value": -9.26000118
        },
        {
          "paramId": 5,
          "value": 0.0
        },
        {
          "paramId": 6,
          "value": -2.12999988
        },
        {
          "paramId": 7,
          "value": 0.0
        }
      ],
      "data": {
        "lissajous": 0,
        "external": 0
      },
      "pos": [
        57,
        0
      ]
    },
    {
      "plugin": "Bogaudio",
      "version": "0.6.12",
      "model": "Bogaudio-VCO",
      "params": [
        {
          "paramId": 0,
          "value": -3.0
        },
        {
          "paramId": 1,
          "value": 0.0
        },
        {
          "paramId": 2,
          "value": 0.0
        },
        {
          "paramId": 3,
          "value": -0.802000701
        },
        {
          "paramId": 4,
          "value": 0.962499976
        },
        {
          "paramId": 5,
          "value": 1.0
        }
      ],
      "pos": [
        77,
        2
      ]
    },
    {
      "plugin": "Fundamental",
      "version": "0.6.2",
      "model": "VCF",
      "params": [
        {
          "paramId": 0,
          "value": 0.404500633
        },
        {
          "paramId": 1,
          "value": 0.5
        },
        {
          "paramId": 2,
          "value": 0.0
        },
        {
          "paramId": 3,
          "value": 0.862000763
        },
        {
          "paramId": 4,
          "value": 0.339000076
        }
      ],
      "pos": [
        92,
        2
      ]
    },
    {
      "plugin": "Bogaudio",
      "version": "0.6.12",
      "model": "Bogaudio-ADSR",
      "params": [
        {
          "paramId": 0,
          "value": 0.193499863
        },
        {
          "paramId": 1,
          "value": 0.309000283
        },
        {
          "paramId": 2,
          "value": 0.930999696
        },
        {
          "paramId": 3,
          "value": 0.191730469
        },
        {
          "paramId": 4,
          "value": 0.0
        }
      ],
      "pos": [
        89,
        2
      ]
    },
    {
      "plugin": "Befaco",
      "version": "0.6.0",
      "model": "DualAtenuverter",
      "params": [
        {
          "paramId": 0,
          "value": -1.0
        },
        {
          "paramId": 1,
          "value": 9.9100008
        },
        {
          "paramId": 2,
          "value": -0.891999781
        },
        {
          "paramId": 3,
          "value": 0.689999819
        }
      ],
      "pos": [
        100,
        2
      ]
    },
    {
      "plugin": "Fundamental",
      "version": "0.6.2",
      "model": "Delay",
      "params": [
        {
          "paramId": 0,
          "value": 0.5
        },
        {
          "paramId": 1,
          "value": 0.562999964
        },
        {
          "paramId": 2,
          "value": 0.5
        },
        {
          "paramId": 3,
          "value": 0.5
        }
      ],
      "pos": [
        106,
        1
      ]
    },
    {
      "plugin": "Bogaudio",
      "version": "0.6.12",
      "model": "Bogaudio-DGate",
      "params": [
        {
          "paramId": 0,
          "value": 0.133500084
        },
        {
          "paramId": 1,
          "value": 0.0980001092
        },
        {
          "paramId": 2,
          "value": 1.0
        },
        {
          "paramId": 3,
          "value": 0.0
        }
      ],
      "data": {
        "triggerOnLoad": true,
        "shouldTriggerOnLoad": true
      },
      "pos": [
        109,
        2
      ]
    },
    {
      "plugin": "Fundamental",
      "version": "0.6.2",
      "model": "VCF",
      "params": [
        {
          "paramId": 0,
          "value": 0.613500774
        },
        {
          "paramId": 1,
          "value": 0.5
        },
        {
          "paramId": 2,
          "value": 0.0
        },
        {
          "paramId": 3,
          "value": 0.0
        },
        {
          "paramId": 4,
          "value": 0.0
        }
      ],
      "pos": [
        70,
        0
      ]
    },
    {
      "plugin": "Fundamental",
      "version": "0.6.2",
      "model": "VCF",
      "params": [
        {
          "paramId": 0,
          "value": 0.63749814
        },
        {
          "paramId": 1,
          "value": 0.5
        },
        {
          "paramId": 2,
          "value": 0.0
        },
        {
          "paramId": 3,
          "value": 0.0
        },
        {
          "paramId": 4,
          "value": 0.0
        }
      ],
      "pos": [
        78,
        0
      ]
    },
    {
      "plugin": "Befaco",
      "version": "0.6.0",
      "model": "DualAtenuverter",
      "params": [
        {
          "paramId": 0,
          "value": 0.0630000606
        },
        {
          "paramId": 1,
          "value": 0.0
        },
        {
          "paramId": 2,
          "value": 0.063000001
        },
        {
          "paramId": 3,
          "value": 0.0
        }
      ],
      "pos": [
        10,
        1
      ]
    },
    {
      "plugin": "TechTechTechnologies",
      "version": "0.6.1",
      "model": "Odysseus",
      "params": [
        {
          "paramId": 1,
          "value": 0.5
        },
        {
          "paramId": 3,
          "value": 0.0
        },
        {
          "paramId": 0,
          "value": 0.5
        },
        {
          "paramId": 2,
          "value": 1.0
        },
        {
          "paramId": 4,
          "value": 0.588998735
        },
        {
          "paramId": 5,
          "value": 0.83349967
        },
        {
          "paramId": 6,
          "value": 0.0
        },
        {
          "paramId": 7,
          "value": 0.0
        },
        {
          "paramId": 8,
          "value": 0.0
        },
        {
          "paramId": 9,
          "value": 0.0
        },
        {
          "paramId": 10,
          "value": 0.0
        }
      ],
      "pos": [
        12,
        2
      ]
    },
    {
      "plugin": "Befaco",
      "version": "0.6.0",
      "model": "DualAtenuverter",
      "params": [
        {
          "paramId": 0,
          "value": 0.0900000259
        },
        {
          "paramId": 1,
          "value": 0.0
        },
        {
          "paramId": 2,
          "value": 0.063000001
        },
        {
          "paramId": 3,
          "value": 0.0
        }
      ],
      "pos": [
        5,
        1
      ]
    },
    {
      "plugin": "Fundamental",
      "version": "0.6.2",
      "model": "Scope",
      "params": [
        {
          "paramId": 0,
          "value": 8.0
        },
        {
          "paramId": 1,
          "value": 0.0
        },
        {
          "paramId": 2,
          "value": 0.0
        },
        {
          "paramId": 3,
          "value": 0.0
        },
        {
          "paramId": 4,
          "value": -8.36000156
        },
        {
          "paramId": 5,
          "value": 0.0
        },
        {
          "paramId": 6,
          "value": -2.12999988
        },
        {
          "paramId": 7,
          "value": 0.0
        }
      ],
      "data": {
        "lissajous": 0,
        "external": 0
      },
      "pos": [
        86,
        0
      ]
    },
    {
      "plugin": "Fundamental",
      "version": "0.6.2",
      "model": "VCMixer",
      "params": [
        {
          "paramId": 0,
          "value": 1.0
        },
        {
          "paramId": 1,
          "value": 1.0
        },
        {
          "paramId": 2,
          "value": 0.996999979
        },
        {
          "paramId": 3,
          "value": 1.0
        },
        {
          "paramId": 4,
          "value": 1.0
        }
      ],
      "pos": [
        99,
        0
      ]
    },
    {
      "plugin": "Fundamental",
      "version": "0.6.2",
      "model": "VCMixer",
      "params": [
        {
          "paramId": 0,
          "value": 1.0
        },
        {
          "paramId": 1,
          "value": 1.0
        },
        {
          "paramId": 2,
          "value": 0.994000018
        },
        {
          "paramId": 3,
          "value": 1.0
        },
        {
          "paramId": 4,
          "value": 1.0
        }
      ],
      "pos": [
        109,
        0
      ]
    },
    {
      "plugin": "Bogaudio",
      "version": "0.6.12",
      "model": "Bogaudio-DGate",
      "params": [
        {
          "paramId": 0,
          "value": 0.0554999933
        },
        {
          "paramId": 1,
          "value": 0.166499883
        },
        {
          "paramId": 2,
          "value": 1.0
        },
        {
          "paramId": 3,
          "value": 0.0
        }
      ],
      "data": {
        "triggerOnLoad": true,
        "shouldTriggerOnLoad": true
      },
      "pos": [
        19,
        0
      ]
    },
    {
      "plugin": "Befaco",
      "version": "0.6.0",
      "model": "DualAtenuverter",
      "params": [
        {
          "paramId": 0,
          "value": 0.0
        },
        {
          "paramId": 1,
          "value": 0.0
        },
        {
          "paramId": 2,
          "value": -0.891999781
        },
        {
          "paramId": 3,
          "value": 0.0
        }
      ],
      "pos": [
        119,
        0
      ]
    },
    {
      "plugin": "cf",
      "version": "0.6.8",
      "model": "PLAYER",
      "params": [
        {
          "paramId": 2,
          "value": 0.0
        },
        {
          "paramId": 3,
          "value": 0.0
        },
        {
          "paramId": 4,
          "value": 0.0
        },
        {
          "paramId": 5,
          "value": 0.0
        },
        {
          "paramId": 8,
          "value": 0.0
        },
        {
          "paramId": 7,
          "value": 0.0
        },
        {
          "paramId": 9,
          "value": 0.0
        }
      ],
      "data": {
        "lastPath": "C:\\Users\\Gravyman3321\\Documents\\VCV\\samples\\relay_off/relay_off_6.wav",
        "oscstate": 0
      },
      "pos": [
        10,
        0
      ]
    },
    {
      "plugin": "cf",
      "version": "0.6.8",
      "model": "PLAYER",
      "params": [
        {
          "paramId": 2,
          "value": 0.0
        },
        {
          "paramId": 3,
          "value": 0.0
        },
        {
          "paramId": 4,
          "value": 0.0
        },
        {
          "paramId": 5,
          "value": 0.0
        },
        {
          "paramId": 8,
          "value": 0.0
        },
        {
          "paramId": 7,
          "value": 0.0
        },
        {
          "paramId": 9,
          "value": 0.0
        }
      ],
      "data": {
        "lastPath": "C:\\Users\\Gravyman3321\\Documents\\VCV\\samples\\relay_on/relay_on_3.wav",
        "oscstate": 0
      },
      "pos": [
        22,
        0
      ]
    },
    {
      "plugin": "Bogaudio",
      "version": "0.6.12",
      "model": "Bogaudio-UMix",
      "params": [
        {
          "paramId": 0,
          "value": 1.0
        }
      ],
      "data": {
        "sum": true
      },
      "pos": [
        7,
        0
      ]
    },
    {
      "plugin": "Bogaudio",
      "version": "0.6.12",
      "model": "Bogaudio-UMix",
      "params": [
        {
          "paramId": 0,
          "value": 1.0
        }
      ],
      "data": {
        "sum": true
      },
      "pos": [
        31,
        0
      ]
    },
    {
      "plugin": "Bogaudio",
      "version": "0.6.12",
      "model": "Bogaudio-UMix",
      "params": [
        {
          "paramId": 0,
          "value": 1.0
        }
      ],
      "data": {
        "sum": true
      },
      "pos": [
        34,
        0
      ]
    },
    {
      "plugin": "Bogaudio",
      "version": "0.6.12",
      "model": "Bogaudio-UMix",
      "params": [
        {
          "paramId": 0,
          "value": 1.0
        }
      ],
      "data": {
        "sum": true
      },
      "pos": [
        130,
        2
      ]
    },
    {
      "plugin": "Befaco",
      "version": "0.6.0",
      "model": "DualAtenuverter",
      "params": [
        {
          "paramId": 0,
          "value": 0.0
        },
        {
          "paramId": 1,
          "value": 0.0
        },
        {
          "paramId": 2,
          "value": -0.891999781
        },
        {
          "paramId": 3,
          "value": 1.05000007
        }
      ],
      "pos": [
        135,
        2
      ]
    }
  ],
  "wires": [
    {
      "color": "#0c8e15",
      "outputModuleId": 3,
      "outputId": 1,
      "inputModuleId": 4,
      "inputId": 2
    },
    {
      "color": "#0986ad",
      "outputModuleId": 3,
      "outputId": 2,
      "inputModuleId": 4,
      "inputId": 3
    },
    {
      "color": "#c9b70e",
      "outputModuleId": 3,
      "outputId": 3,
      "inputModuleId": 4,
      "inputId": 4
    },
    {
      "color": "#0c8e15",
      "outputModuleId": 3,
      "outputId": 0,
      "inputModuleId": 4,
      "inputId": 0
    },
    {
      "color": "#c9b70e",
      "outputModuleId": 49,
      "outputId": 0,
      "inputModuleId": 3,
      "inputId": 2
    },
    {
      "color": "#0c8e15",
      "outputModuleId": 6,
      "outputId": 0,
      "inputModuleId": 40,
      "inputId": 1
    },
    {
      "color": "#c91847",
      "outputModuleId": 2,
      "outputId": 0,
      "inputModuleId": 8,
      "inputId": 1
    },
    {
      "color": "#0c8e15",
      "outputModuleId": 49,
      "outputId": 0,
      "inputModuleId": 4,
      "inputId": 1
    },
    {
      "color": "#c91847",
      "outputModuleId": 10,
      "outputId": 0,
      "inputModuleId": 22,
      "inputId": 1
    },
    {
      "color": "#0c8e15",
      "outputModuleId": 10,
      "outputId": 0,
      "inputModuleId": 6,
      "inputId": 0
    },
    {
      "color": "#0c8e15",
      "outputModuleId": 9,
      "outputId": 0,
      "inputModuleId": 6,
      "inputId": 1
    },
    {
      "color": "#0986ad",
      "outputModuleId": 12,
      "outputId": 1,
      "inputModuleId": 9,
      "inputId": 7
    },
    {
      "color": "#0986ad",
      "outputModuleId": 11,
      "outputId": 3,
      "inputModuleId": 3,
      "inputId": 1
    },
    {
      "color": "#c9b70e",
      "outputModuleId": 2,
      "outputId": 0,
      "inputModuleId": 11,
      "inputId": 1
    },
    {
      "color": "#0986ad",
      "outputModuleId": 7,
      "outputId": 2,
      "inputModuleId": 1,
      "inputId": 0
    },
    {
      "color": "#c9b70e",
      "outputModuleId": 7,
      "outputId": 3,
      "inputModuleId": 1,
      "inputId": 1
    },
    {
      "color": "#c91847",
      "outputModuleId": 49,
      "outputId": 0,
      "inputModuleId": 12,
      "inputId": 0
    },
    {
      "color": "#0c8e15",
      "outputModuleId": 12,
      "outputId": 0,
      "inputModuleId": 9,
      "inputId": 6
    },
    {
      "color": "#0986ad",
      "outputModuleId": 12,
      "outputId": 0,
      "inputModuleId": 9,
      "inputId": 5
    },
    {
      "color": "#c9b70e",
      "outputModuleId": 12,
      "outputId": 0,
      "inputModuleId": 9,
      "inputId": 4
    },
    {
      "color": "#0986ad",
      "outputModuleId": 8,
      "outputId": 0,
      "inputModuleId": 12,
      "inputId": 1
    },
    {
      "color": "#0c8e15",
      "outputModuleId": 8,
      "outputId": 0,
      "inputModuleId": 10,
      "inputId": 0
    },
    {
      "color": "#c9b70e",
      "outputModuleId": 49,
      "outputId": 0,
      "inputModuleId": 2,
      "inputId": 3
    },
    {
      "color": "#c9b70e",
      "outputModuleId": 13,
      "outputId": 0,
      "inputModuleId": 6,
      "inputId": 3
    },
    {
      "color": "#0c8e15",
      "outputModuleId": 0,
      "outputId": 0,
      "inputModuleId": 6,
      "inputId": 4
    },
    {
      "color": "#0c8e15",
      "outputModuleId": 4,
      "outputId": 0,
      "inputModuleId": 16,
      "inputId": 0
    },
    {
      "color": "#0986ad",
      "outputModuleId": 13,
      "outputId": 1,
      "inputModuleId": 15,
      "inputId": 0
    },
    {
      "color": "#c9b70e",
      "outputModuleId": 13,
      "outputId": 1,
      "inputModuleId": 0,
      "inputId": 0
    },
    {
      "color": "#c9b70e",
      "outputModuleId": 49,
      "outputId": 0,
      "inputModuleId": 18,
      "inputId": 1
    },
    {
      "color": "#c9b70e",
      "outputModuleId": 17,
      "outputId": 0,
      "inputModuleId": 18,
      "inputId": 3
    },
    {
      "color": "#c91847",
      "outputModuleId": 21,
      "outputId": 0,
      "inputModuleId": 18,
      "inputId": 5
    },
    {
      "color": "#0c8e15",
      "outputModuleId": 19,
      "outputId": 0,
      "inputModuleId": 18,
      "inputId": 4
    },
    {
      "color": "#0986ad",
      "outputModuleId": 20,
      "outputId": 0,
      "inputModuleId": 18,
      "inputId": 2
    },
    {
      "color": "#c9b70e",
      "outputModuleId": 3,
      "outputId": 5,
      "inputModuleId": 20,
      "inputId": 0
    },
    {
      "color": "#c91847",
      "outputModuleId": 3,
      "outputId": 7,
      "inputModuleId": 17,
      "inputId": 0
    },
    {
      "color": "#0c8e15",
      "outputModuleId": 3,
      "outputId": 9,
      "inputModuleId": 19,
      "inputId": 0
    },
    {
      "color": "#0986ad",
      "outputModuleId": 3,
      "outputId": 11,
      "inputModuleId": 21,
      "inputId": 0
    },
    {
      "color": "#c91847",
      "outputModuleId": 3,
      "outputId": 5,
      "inputModuleId": 18,
      "inputId": 0
    },
    {
      "color": "#0986ad",
      "outputModuleId": 23,
      "outputId": 7,
      "inputModuleId": 23,
      "inputId": 13
    },
    {
      "color": "#c91847",
      "outputModuleId": 24,
      "outputId": 1,
      "inputModuleId": 0,
      "inputId": 6
    },
    {
      "color": "#0c8e15",
      "outputModuleId": 24,
      "outputId": 1,
      "inputModuleId": 15,
      "inputId": 6
    },
    {
      "color": "#0986ad",
      "outputModuleId": 24,
      "outputId": 0,
      "inputModuleId": 0,
      "inputId": 5
    },
    {
      "color": "#c9b70e",
      "outputModuleId": 24,
      "outputId": 0,
      "inputModuleId": 15,
      "inputId": 5
    },
    {
      "color": "#c91847",
      "outputModuleId": 25,
      "outputId": 0,
      "inputModuleId": 0,
      "inputId": 7
    },
    {
      "color": "#0c8e15",
      "outputModuleId": 25,
      "outputId": 0,
      "inputModuleId": 15,
      "inputId": 7
    },
    {
      "color": "#0986ad",
      "outputModuleId": 25,
      "outputId": 1,
      "inputModuleId": 0,
      "inputId": 8
    },
    {
      "color": "#c9b70e",
      "outputModuleId": 25,
      "outputId": 1,
      "inputModuleId": 15,
      "inputId": 8
    },
    {
      "color": "#0c8e15",
      "outputModuleId": 3,
      "outputId": 0,
      "inputModuleId": 26,
      "inputId": 13
    },
    {
      "color": "#c9b70e",
      "outputModuleId": 16,
      "outputId": 0,
      "inputModuleId": 26,
      "inputId": 30
    },
    {
      "color": "#0986ad",
      "outputModuleId": 2,
      "outputId": 0,
      "inputModuleId": 38,
      "inputId": 0
    },
    {
      "color": "#c9b70e",
      "outputModuleId": 2,
      "outputId": 0,
      "inputModuleId": 26,
      "inputId": 12
    },
    {
      "color": "#0986ad",
      "outputModuleId": 23,
      "outputId": 0,
      "inputModuleId": 23,
      "inputId": 8
    },
    {
      "color": "#c9b70e",
      "outputModuleId": 23,
      "outputId": 8,
      "inputModuleId": 23,
      "inputId": 16
    },
    {
      "color": "#0986ad",
      "outputModuleId": 23,
      "outputId": 2,
      "inputModuleId": 23,
      "inputId": 7
    },
    {
      "color": "#c9b70e",
      "outputModuleId": 23,
      "outputId": 10,
      "inputModuleId": 23,
      "inputId": 15
    },
    {
      "color": "#0986ad",
      "outputModuleId": 23,
      "outputId": 1,
      "inputModuleId": 23,
      "inputId": 9
    },
    {
      "color": "#c9b70e",
      "outputModuleId": 23,
      "outputId": 9,
      "inputModuleId": 23,
      "inputId": 17
    },
    {
      "color": "#0c8e15",
      "outputModuleId": 2,
      "outputId": 0,
      "inputModuleId": 23,
      "inputId": 3
    },
    {
      "color": "#0986ad",
      "outputModuleId": 2,
      "outputId": 0,
      "inputModuleId": 23,
      "inputId": 5
    },
    {
      "color": "#c91847",
      "outputModuleId": 26,
      "outputId": 5,
      "inputModuleId": 26,
      "inputId": 0
    },
    {
      "color": "#0986ad",
      "outputModuleId": 16,
      "outputId": 0,
      "inputModuleId": 28,
      "inputId": 0
    },
    {
      "color": "#0986ad",
      "outputModuleId": 23,
      "outputId": 4,
      "inputModuleId": 28,
      "inputId": 3
    },
    {
      "color": "#0986ad",
      "outputModuleId": 23,
      "outputId": 4,
      "inputModuleId": 14,
      "inputId": 1
    },
    {
      "color": "#c91847",
      "outputModuleId": 28,
      "outputId": 0,
      "inputModuleId": 29,
      "inputId": 3
    },
    {
      "color": "#0986ad",
      "outputModuleId": 29,
      "outputId": 0,
      "inputModuleId": 15,
      "inputId": 3
    },
    {
      "color": "#c9b70e",
      "outputModuleId": 29,
      "outputId": 0,
      "inputModuleId": 0,
      "inputId": 3
    },
    {
      "color": "#0986ad",
      "outputModuleId": 30,
      "outputId": 0,
      "inputModuleId": 29,
      "inputId": 0
    },
    {
      "color": "#c91847",
      "outputModuleId": 29,
      "outputId": 0,
      "inputModuleId": 27,
      "inputId": 1
    },
    {
      "color": "#0c8e15",
      "outputModuleId": 30,
      "outputId": 0,
      "inputModuleId": 27,
      "inputId": 0
    },
    {
      "color": "#0986ad",
      "outputModuleId": 3,
      "outputId": 0,
      "inputModuleId": 33,
      "inputId": 0
    },
    {
      "color": "#c91847",
      "outputModuleId": 32,
      "outputId": 0,
      "inputModuleId": 41,
      "inputId": 1
    },
    {
      "color": "#0c8e15",
      "outputModuleId": 15,
      "outputId": 0,
      "inputModuleId": 32,
      "inputId": 4
    },
    {
      "color": "#0986ad",
      "outputModuleId": 13,
      "outputId": 0,
      "inputModuleId": 32,
      "inputId": 3
    },
    {
      "color": "#0c8e15",
      "outputModuleId": 9,
      "outputId": 0,
      "inputModuleId": 32,
      "inputId": 1
    },
    {
      "color": "#c9b70e",
      "outputModuleId": 22,
      "outputId": 0,
      "inputModuleId": 32,
      "inputId": 0
    },
    {
      "color": "#c91847",
      "outputModuleId": 33,
      "outputId": 0,
      "inputModuleId": 30,
      "inputId": 0
    },
    {
      "color": "#0986ad",
      "outputModuleId": 26,
      "outputId": 1,
      "inputModuleId": 0,
      "inputId": 2
    },
    {
      "color": "#c9b70e",
      "outputModuleId": 26,
      "outputId": 1,
      "inputModuleId": 15,
      "inputId": 2
    },
    {
      "color": "#0c8e15",
      "outputModuleId": 26,
      "outputId": 1,
      "inputModuleId": 34,
      "inputId": 3
    },
    {
      "color": "#c9b70e",
      "outputModuleId": 34,
      "outputId": 0,
      "inputModuleId": 14,
      "inputId": 0
    },
    {
      "color": "#c91847",
      "outputModuleId": 23,
      "outputId": 0,
      "inputModuleId": 14,
      "inputId": 2
    },
    {
      "color": "#0c8e15",
      "outputModuleId": 23,
      "outputId": 2,
      "inputModuleId": 35,
      "inputId": 3
    },
    {
      "color": "#c9b70e",
      "outputModuleId": 35,
      "outputId": 0,
      "inputModuleId": 0,
      "inputId": 1
    },
    {
      "color": "#c91847",
      "outputModuleId": 35,
      "outputId": 0,
      "inputModuleId": 15,
      "inputId": 1
    },
    {
      "color": "#0c8e15",
      "outputModuleId": 26,
      "outputId": 1,
      "inputModuleId": 23,
      "inputId": 6
    },
    {
      "color": "#0986ad",
      "outputModuleId": 26,
      "outputId": 1,
      "inputModuleId": 23,
      "inputId": 14
    },
    {
      "color": "#c9b70e",
      "outputModuleId": 36,
      "outputId": 1,
      "inputModuleId": 23,
      "inputId": 2
    },
    {
      "color": "#c91847",
      "outputModuleId": 37,
      "outputId": 0,
      "inputModuleId": 36,
      "inputId": 0
    },
    {
      "color": "#0986ad",
      "outputModuleId": 38,
      "outputId": 1,
      "inputModuleId": 23,
      "inputId": 4
    },
    {
      "color": "#c9b70e",
      "outputModuleId": 24,
      "outputId": 0,
      "inputModuleId": 24,
      "inputId": 1
    },
    {
      "color": "#0c8e15",
      "outputModuleId": 23,
      "outputId": 4,
      "inputModuleId": 23,
      "inputId": 12
    },
    {
      "color": "#0986ad",
      "outputModuleId": 38,
      "outputId": 0,
      "inputModuleId": 38,
      "inputId": 1
    },
    {
      "color": "#c9b70e",
      "outputModuleId": 36,
      "outputId": 0,
      "inputModuleId": 36,
      "inputId": 1
    },
    {
      "color": "#0986ad",
      "outputModuleId": 40,
      "outputId": 0,
      "inputModuleId": 7,
      "inputId": 0
    },
    {
      "color": "#c9b70e",
      "outputModuleId": 41,
      "outputId": 0,
      "inputModuleId": 7,
      "inputId": 1
    },
    {
      "color": "#c91847",
      "outputModuleId": 11,
      "outputId": 3,
      "inputModuleId": 42,
      "inputId": 0
    },
    {
      "color": "#0986ad",
      "outputModuleId": 43,
      "outputId": 0,
      "inputModuleId": 41,
      "inputId": 6
    },
    {
      "color": "#c91847",
      "outputModuleId": 43,
      "outputId": 0,
      "inputModuleId": 41,
      "inputId": 8
    },
    {
      "color": "#0c8e15",
      "outputModuleId": 43,
      "outputId": 0,
      "inputModuleId": 41,
      "inputId": 7
    },
    {
      "color": "#0986ad",
      "outputModuleId": 43,
      "outputId": 0,
      "inputModuleId": 40,
      "inputId": 8
    },
    {
      "color": "#c9b70e",
      "outputModuleId": 43,
      "outputId": 0,
      "inputModuleId": 40,
      "inputId": 7
    },
    {
      "color": "#c91847",
      "outputModuleId": 43,
      "outputId": 0,
      "inputModuleId": 40,
      "inputId": 6
    },
    {
      "color": "#c91847",
      "outputModuleId": 11,
      "outputId": 3,
      "inputModuleId": 44,
      "inputId": 5
    },
    {
      "color": "#0c8e15",
      "outputModuleId": 42,
      "outputId": 0,
      "inputModuleId": 45,
      "inputId": 5
    },
    {
      "color": "#c9b70e",
      "outputModuleId": 46,
      "outputId": 0,
      "inputModuleId": 45,
      "inputId": 4
    },
    {
      "color": "#c91847",
      "outputModuleId": 46,
      "outputId": 0,
      "inputModuleId": 44,
      "inputId": 4
    },
    {
      "color": "#0c8e15",
      "outputModuleId": 3,
      "outputId": 0,
      "inputModuleId": 46,
      "inputId": 7
    },
    {
      "color": "#0986ad",
      "outputModuleId": 44,
      "outputId": 0,
      "inputModuleId": 47,
      "inputId": 7
    },
    {
      "color": "#c9b70e",
      "outputModuleId": 45,
      "outputId": 0,
      "inputModuleId": 47,
      "inputId": 6
    },
    {
      "color": "#c91847",
      "outputModuleId": 44,
      "outputId": 1,
      "inputModuleId": 48,
      "inputId": 6
    },
    {
      "color": "#0c8e15",
      "outputModuleId": 45,
      "outputId": 1,
      "inputModuleId": 48,
      "inputId": 7
    },
    {
      "color": "#0986ad",
      "outputModuleId": 47,
      "outputId": 0,
      "inputModuleId": 40,
      "inputId": 2
    },
    {
      "color": "#c9b70e",
      "outputModuleId": 48,
      "outputId": 0,
      "inputModuleId": 41,
      "inputId": 2
    },
    {
      "color": "#c91847",
      "outputModuleId": 47,
      "outputId": 0,
      "inputModuleId": 0,
      "inputId": 4
    },
    {
      "color": "#0c8e15",
      "outputModuleId": 48,
      "outputId": 0,
      "inputModuleId": 15,
      "inputId": 4
    },
    {
      "color": "#c9b70e",
      "outputModuleId": 49,
      "outputId": 0,
      "inputModuleId": 7,
      "inputId": 2
    },
    {
      "color": "#c91847",
      "outputModuleId": 5,
      "outputId": 5,
      "inputModuleId": 49,
      "inputId": 7
    },
    {
      "color": "#0986ad",
      "outputModuleId": 50,
      "outputId": 0,
      "inputModuleId": 49,
      "inputId": 6
    }
  ]
}