{
  "version": "1.0.0",
  "modules": [
    {
      "plugin": "Core",
      "version": "1.0.0",
      "model": "AudioInterface",
      "params": [],
      "data": {
        "audio": {
          "driver": 8,
          "deviceName": "Default Device",
          "offset": 0,
          "maxChannels": 8,
          "sampleRate": 44100,
          "blockSize": 256
        }
      },
      "leftModuleId": 90,
      "rightModuleId": 96,
      "id": 1,
      "pos": [
        110,
        1
      ]
    },
    {
      "plugin": "Fundamental",
      "version": "1.0.0",
      "model": "Scope",
      "params": [
        {
          "id": 0,
          "value": 0.0
        },
        {
          "id": 1,
          "value": 0.0
        },
        {
          "id": 2,
          "value": 0.0
        },
        {
          "id": 3,
          "value": 0.0
        },
        {
          "id": 4,
          "value": 10.8400002
        },
        {
          "id": 5,
          "value": 0.0
        },
        {
          "id": 6,
          "value": 0.0
        },
        {
          "id": 7,
          "value": 0.0
        }
      ],
      "data": {
        "lissajous": 1,
        "external": 0
      },
      "leftModuleId": 79,
      "rightModuleId": 85,
      "id": 7,
      "pos": [
        64,
        1
      ]
    },
    {
      "plugin": "TechTechTechnologies",
      "version": "1.0.0",
      "model": "QMod",
      "params": [
        {
          "id": 0,
          "value": 1.0
        },
        {
          "id": 1,
          "value": -0.36800012
        },
        {
          "id": 2,
          "value": -0.989000261
        },
        {
          "id": 3,
          "value": 0.0
        },
        {
          "id": 4,
          "value": 3.0
        },
        {
          "id": 5,
          "value": 3.0
        },
        {
          "id": 6,
          "value": 3.0
        },
        {
          "id": 7,
          "value": 0.0
        },
        {
          "id": 8,
          "value": 0.289000005
        },
        {
          "id": 9,
          "value": 0.791999936
        },
        {
          "id": 10,
          "value": 0.639000118
        },
        {
          "id": 11,
          "value": 0.0
        }
      ],
      "leftModuleId": 84,
      "rightModuleId": 86,
      "id": 77,
      "pos": [
        78,
        2
      ]
    },
    {
      "plugin": "TechTechTechnologies",
      "version": "1.0.0",
      "model": "DAC",
      "params": [
        {
          "id": 0,
          "value": 0.0
        },
        {
          "id": 1,
          "value": 8.0
        },
        {
          "id": 2,
          "value": 0.0
        },
        {
          "id": 3,
          "value": 1.0
        },
        {
          "id": 4,
          "value": 0.0
        },
        {
          "id": 5,
          "value": 0.0
        },
        {
          "id": 6,
          "value": 0.0
        },
        {
          "id": 7,
          "value": 0.0
        },
        {
          "id": 8,
          "value": 0.0
        },
        {
          "id": 9,
          "value": 0.0
        },
        {
          "id": 10,
          "value": 0.0
        },
        {
          "id": 11,
          "value": 0.0
        },
        {
          "id": 12,
          "value": 0.0
        },
        {
          "id": 13,
          "value": 0.0
        },
        {
          "id": 14,
          "value": 0.0
        },
        {
          "id": 15,
          "value": 0.0
        },
        {
          "id": 16,
          "value": 0.0
        },
        {
          "id": 17,
          "value": 0.0
        },
        {
          "id": 18,
          "value": 0.0
        }
      ],
      "leftModuleId": 98,
      "rightModuleId": 82,
      "id": 78,
      "pos": [
        31,
        0
      ]
    },
    {
      "plugin": "TechTechTechnologies",
      "version": "1.0.0",
      "model": "Prometheus",
      "params": [
        {
          "id": 0,
          "value": 2.0
        }
      ],
      "leftModuleId": 80,
      "rightModuleId": 7,
      "id": 79,
      "pos": [
        46,
        1
      ]
    },
    {
      "plugin": "Bogaudio",
      "version": "1.0.17",
      "model": "Bogaudio-VCO",
      "params": [
        {
          "id": 0,
          "value": 6.0
        },
        {
          "id": 1,
          "value": 0.0
        },
        {
          "id": 2,
          "value": 0.0
        },
        {
          "id": 3,
          "value": 0.0
        },
        {
          "id": 4,
          "value": 0.0
        },
        {
          "id": 5,
          "value": 1.0
        }
      ],
      "leftModuleId": 91,
      "rightModuleId": 79,
      "id": 80,
      "pos": [
        36,
        1
      ]
    },
    {
      "plugin": "Bogaudio",
      "version": "1.0.17",
      "model": "Bogaudio-Analyzer",
      "params": [
        {
          "id": 0,
          "value": 0.0
        },
        {
          "id": 1,
          "value": 1.0
        },
        {
          "id": 2,
          "value": 3.0
        },
        {
          "id": 3,
          "value": 0.0
        },
        {
          "id": 4,
          "value": 1.0
        },
        {
          "id": 5,
          "value": 0.0
        }
      ],
      "data": {
        "range_db": 80.0
      },
      "leftModuleId": 95,
      "rightModuleId": 83,
      "id": 81,
      "pos": [
        27,
        2
      ]
    },
    {
      "plugin": "TechTechTechnologies",
      "version": "1.0.0",
      "model": "DAC",
      "params": [
        {
          "id": 0,
          "value": 0.0
        },
        {
          "id": 1,
          "value": 8.0
        },
        {
          "id": 2,
          "value": 0.0
        },
        {
          "id": 3,
          "value": 1.0
        },
        {
          "id": 4,
          "value": 0.0
        },
        {
          "id": 5,
          "value": 0.0
        },
        {
          "id": 6,
          "value": 0.0
        },
        {
          "id": 7,
          "value": 0.0
        },
        {
          "id": 8,
          "value": 0.0
        },
        {
          "id": 9,
          "value": 0.0
        },
        {
          "id": 10,
          "value": 0.0
        },
        {
          "id": 11,
          "value": 0.0
        },
        {
          "id": 12,
          "value": 0.0
        },
        {
          "id": 13,
          "value": 0.0
        },
        {
          "id": 14,
          "value": 0.0
        },
        {
          "id": 15,
          "value": 0.0
        },
        {
          "id": 16,
          "value": 0.0
        },
        {
          "id": 17,
          "value": 0.0
        },
        {
          "id": 18,
          "value": 0.0
        }
      ],
      "leftModuleId": 78,
      "rightModuleId": 104,
      "id": 82,
      "pos": [
        47,
        0
      ]
    },
    {
      "plugin": "TechTechTechnologies",
      "version": "1.0.0",
      "model": "Polyphemus",
      "params": [
        {
          "id": 0,
          "value": 1.0
        },
        {
          "id": 1,
          "value": 0.0
        },
        {
          "id": 2,
          "value": 0.0
        },
        {
          "id": 3,
          "value": 0.0
        },
        {
          "id": 4,
          "value": 1.0
        },
        {
          "id": 5,
          "value": 0.0
        },
        {
          "id": 6,
          "value": 0.0
        },
        {
          "id": 7,
          "value": 0.0
        },
        {
          "id": 8,
          "value": 0.762999952
        },
        {
          "id": 9,
          "value": 0.82799989
        },
        {
          "id": 10,
          "value": 0.828000188
        },
        {
          "id": 11,
          "value": 0.0
        },
        {
          "id": 12,
          "value": 0.0
        },
        {
          "id": 13,
          "value": 0.0
        },
        {
          "id": 14,
          "value": 0.0
        },
        {
          "id": 15,
          "value": 0.0
        },
        {
          "id": 16,
          "value": 0.0
        },
        {
          "id": 17,
          "value": 0.0
        },
        {
          "id": 18,
          "value": 0.0
        },
        {
          "id": 19,
          "value": 1.0
        },
        {
          "id": 20,
          "value": 0.0
        },
        {
          "id": 21,
          "value": 0.0
        },
        {
          "id": 22,
          "value": 0.0
        },
        {
          "id": 23,
          "value": 0.0
        }
      ],
      "leftModuleId": 81,
      "rightModuleId": 84,
      "id": 83,
      "pos": [
        47,
        2
      ]
    },
    {
      "plugin": "Fundamental",
      "version": "1.0.0",
      "model": "Scope",
      "params": [
        {
          "id": 0,
          "value": 0.0
        },
        {
          "id": 1,
          "value": 0.0
        },
        {
          "id": 2,
          "value": 0.0
        },
        {
          "id": 3,
          "value": 0.0
        },
        {
          "id": 4,
          "value": 16.0
        },
        {
          "id": 5,
          "value": 0.0
        },
        {
          "id": 6,
          "value": 0.0
        },
        {
          "id": 7,
          "value": 0.0
        }
      ],
      "data": {
        "lissajous": 1,
        "external": 0
      },
      "leftModuleId": 83,
      "rightModuleId": 77,
      "id": 84,
      "pos": [
        65,
        2
      ]
    },
    {
      "plugin": "Bogaudio",
      "version": "1.0.17",
      "model": "Bogaudio-Analyzer",
      "params": [
        {
          "id": 0,
          "value": 0.0
        },
        {
          "id": 1,
          "value": 0.0
        },
        {
          "id": 2,
          "value": 3.0
        },
        {
          "id": 3,
          "value": 0.0
        },
        {
          "id": 4,
          "value": 1.0
        },
        {
          "id": 5,
          "value": 0.0
        }
      ],
      "data": {
        "range_db": 80.0
      },
      "leftModuleId": 7,
      "rightModuleId": 90,
      "id": 85,
      "pos": [
        77,
        1
      ]
    },
    {
      "plugin": "Fundamental",
      "version": "1.0.0",
      "model": "Scope",
      "params": [
        {
          "id": 0,
          "value": 0.0
        },
        {
          "id": 1,
          "value": 0.0
        },
        {
          "id": 2,
          "value": 0.0
        },
        {
          "id": 3,
          "value": 0.0
        },
        {
          "id": 4,
          "value": 16.0
        },
        {
          "id": 5,
          "value": 0.0
        },
        {
          "id": 6,
          "value": 0.0
        },
        {
          "id": 7,
          "value": 0.0
        }
      ],
      "data": {
        "lissajous": 1,
        "external": 0
      },
      "leftModuleId": 77,
      "rightModuleId": 89,
      "id": 86,
      "pos": [
        96,
        2
      ]
    },
    {
      "plugin": "Bogaudio",
      "version": "1.0.17",
      "model": "Bogaudio-Mix8",
      "params": [
        {
          "id": 0,
          "value": 0.909090936
        },
        {
          "id": 1,
          "value": 0.0
        },
        {
          "id": 2,
          "value": 0.0
        },
        {
          "id": 3,
          "value": 0.909090936
        },
        {
          "id": 4,
          "value": 0.0
        },
        {
          "id": 5,
          "value": 0.0
        },
        {
          "id": 6,
          "value": 0.909090936
        },
        {
          "id": 7,
          "value": 0.0
        },
        {
          "id": 8,
          "value": 0.0
        },
        {
          "id": 9,
          "value": 0.909090936
        },
        {
          "id": 10,
          "value": 0.0
        },
        {
          "id": 11,
          "value": 0.0
        },
        {
          "id": 12,
          "value": 0.909090936
        },
        {
          "id": 13,
          "value": 0.0
        },
        {
          "id": 14,
          "value": -1.0
        },
        {
          "id": 15,
          "value": 0.909090936
        },
        {
          "id": 16,
          "value": 0.0
        },
        {
          "id": 17,
          "value": 1.0
        },
        {
          "id": 18,
          "value": 0.909090936
        },
        {
          "id": 19,
          "value": 0.0
        },
        {
          "id": 20,
          "value": -1.0
        },
        {
          "id": 21,
          "value": 0.909090936
        },
        {
          "id": 22,
          "value": 0.0
        },
        {
          "id": 23,
          "value": 1.0
        },
        {
          "id": 24,
          "value": 0.773999989
        },
        {
          "id": 25,
          "value": 1.0
        }
      ],
      "leftModuleId": 96,
      "rightModuleId": 106,
      "id": 87,
      "pos": [
        129,
        1
      ]
    },
    {
      "plugin": "Bogaudio",
      "version": "1.0.17",
      "model": "Bogaudio-Analyzer",
      "params": [
        {
          "id": 0,
          "value": 0.0
        },
        {
          "id": 1,
          "value": 0.0
        },
        {
          "id": 2,
          "value": 3.0
        },
        {
          "id": 3,
          "value": 0.0
        },
        {
          "id": 4,
          "value": 1.0
        },
        {
          "id": 5,
          "value": 0.0
        }
      ],
      "data": {
        "range_db": 80.0
      },
      "leftModuleId": 89,
      "id": 88,
      "pos": [
        127,
        2
      ]
    },
    {
      "plugin": "TechTechTechnologies",
      "version": "1.0.0",
      "model": "Polyphemus",
      "params": [
        {
          "id": 0,
          "value": 1.0
        },
        {
          "id": 1,
          "value": 0.0
        },
        {
          "id": 2,
          "value": 0.0
        },
        {
          "id": 3,
          "value": 0.0
        },
        {
          "id": 4,
          "value": 1.0
        },
        {
          "id": 5,
          "value": 0.0
        },
        {
          "id": 6,
          "value": 0.0
        },
        {
          "id": 7,
          "value": 0.0
        },
        {
          "id": 8,
          "value": 0.763000011
        },
        {
          "id": 9,
          "value": 0.828000009
        },
        {
          "id": 10,
          "value": 0.828000009
        },
        {
          "id": 11,
          "value": 0.0
        },
        {
          "id": 12,
          "value": 0.0
        },
        {
          "id": 13,
          "value": 0.0
        },
        {
          "id": 14,
          "value": 0.0
        },
        {
          "id": 15,
          "value": 0.0
        },
        {
          "id": 16,
          "value": 0.0
        },
        {
          "id": 17,
          "value": 0.0
        },
        {
          "id": 18,
          "value": 0.0
        },
        {
          "id": 19,
          "value": 1.0
        },
        {
          "id": 20,
          "value": 0.0
        },
        {
          "id": 21,
          "value": 0.0
        },
        {
          "id": 22,
          "value": 0.0
        },
        {
          "id": 23,
          "value": 0.0
        }
      ],
      "leftModuleId": 86,
      "rightModuleId": 88,
      "id": 89,
      "pos": [
        109,
        2
      ]
    },
    {
      "plugin": "Fundamental",
      "version": "1.0.0",
      "model": "Scope",
      "params": [
        {
          "id": 0,
          "value": -2.0
        },
        {
          "id": 1,
          "value": 0.0
        },
        {
          "id": 2,
          "value": -2.0
        },
        {
          "id": 3,
          "value": 0.0
        },
        {
          "id": 4,
          "value": 16.0
        },
        {
          "id": 5,
          "value": 0.0
        },
        {
          "id": 6,
          "value": 0.0
        },
        {
          "id": 7,
          "value": 0.0
        }
      ],
      "data": {
        "lissajous": 1,
        "external": 0
      },
      "leftModuleId": 85,
      "rightModuleId": 1,
      "id": 90,
      "pos": [
        97,
        1
      ]
    },
    {
      "plugin": "TechTechTechnologies",
      "version": "1.0.0",
      "model": "Odysseus",
      "params": [
        {
          "id": 0,
          "value": 0.181499988
        },
        {
          "id": 1,
          "value": 0.842499971
        },
        {
          "id": 2,
          "value": 0.0
        },
        {
          "id": 3,
          "value": 0.0
        },
        {
          "id": 4,
          "value": 1.0
        },
        {
          "id": 5,
          "value": 0.814499855
        },
        {
          "id": 6,
          "value": 0.0
        },
        {
          "id": 7,
          "value": 1.0
        },
        {
          "id": 8,
          "value": 0.0
        },
        {
          "id": 9,
          "value": 0.0
        },
        {
          "id": 10,
          "value": 0.0
        }
      ],
      "leftModuleId": 92,
      "rightModuleId": 80,
      "id": 91,
      "pos": [
        26,
        1
      ]
    },
    {
      "plugin": "Fundamental",
      "version": "1.0.0",
      "model": "Scope",
      "params": [
        {
          "id": 0,
          "value": 0.0
        },
        {
          "id": 1,
          "value": 0.0
        },
        {
          "id": 2,
          "value": 0.0
        },
        {
          "id": 3,
          "value": 0.0
        },
        {
          "id": 4,
          "value": 6.0
        },
        {
          "id": 5,
          "value": 0.0
        },
        {
          "id": 6,
          "value": 0.0
        },
        {
          "id": 7,
          "value": 0.0
        }
      ],
      "data": {
        "lissajous": 0,
        "external": 0
      },
      "leftModuleId": 109,
      "rightModuleId": 91,
      "id": 92,
      "pos": [
        13,
        1
      ]
    },
    {
      "plugin": "TechTechTechnologies",
      "version": "1.0.0",
      "model": "Odysseus",
      "params": [
        {
          "id": 0,
          "value": 0.181499988
        },
        {
          "id": 1,
          "value": 0.842499971
        },
        {
          "id": 2,
          "value": 0.0
        },
        {
          "id": 3,
          "value": 0.0
        },
        {
          "id": 4,
          "value": 1.0
        },
        {
          "id": 5,
          "value": 0.814499855
        },
        {
          "id": 6,
          "value": 0.0
        },
        {
          "id": 7,
          "value": 1.0
        },
        {
          "id": 8,
          "value": 0.0
        },
        {
          "id": 9,
          "value": 0.0
        },
        {
          "id": 10,
          "value": 0.0
        }
      ],
      "rightModuleId": 81,
      "id": 95,
      "pos": [
        17,
        2
      ]
    },
    {
      "plugin": "NYSTHI",
      "version": "1.0.1",
      "model": "MasterRecorder2",
      "params": [
        {
          "id": 0,
          "value": 0.0
        },
        {
          "id": 1,
          "value": 0.0
        },
        {
          "id": 2,
          "value": 0.0
        },
        {
          "id": 3,
          "value": 1.0
        },
        {
          "id": 4,
          "value": 1.0
        },
        {
          "id": 5,
          "value": 0.0
        },
        {
          "id": 6,
          "value": 0.0
        },
        {
          "id": 7,
          "value": 0.0
        },
        {
          "id": 8,
          "value": 0.0
        },
        {
          "id": 9,
          "value": 0.00499999989
        },
        {
          "id": 10,
          "value": 0.00999999978
        },
        {
          "id": 11,
          "value": 2.0
        },
        {
          "id": 12,
          "value": 0.5
        },
        {
          "id": 13,
          "value": 0.0
        },
        {
          "id": 14,
          "value": 0.100000001
        },
        {
          "id": 15,
          "value": 0.0
        },
        {
          "id": 16,
          "value": 1.0
        }
      ],
      "data": {
        "nysthi_id": "MR2_fWIaiarr",
        "wavebits": 9,
        "rms_time": 0.00100000005,
        "peak_time": 0.5,
        "m_invertphaseleft": false,
        "m_invertphaseright": false,
        "m_locklevelleftright": false,
        "m_kompressor_active": false,
        "m_autosave": true,
        "m_distort": false,
        "m_attenuation": 1.0
      },
      "leftModuleId": 1,
      "rightModuleId": 87,
      "id": 96,
      "pos": [
        120,
        1
      ]
    },
    {
      "plugin": "Bogaudio",
      "version": "1.0.17",
      "model": "Bogaudio-LFO",
      "params": [
        {
          "id": 0,
          "value": 0.0
        },
        {
          "id": 1,
          "value": 0.0
        },
        {
          "id": 2,
          "value": 0.0
        },
        {
          "id": 3,
          "value": -0.754000008
        },
        {
          "id": 4,
          "value": 1.0
        },
        {
          "id": 5,
          "value": 1.0
        }
      ],
      "leftModuleId": 108,
      "rightModuleId": 98,
      "id": 97,
      "pos": [
        15,
        0
      ]
    },
    {
      "plugin": "AudibleInstruments",
      "version": "1.0.0",
      "model": "Branches",
      "params": [
        {
          "id": 0,
          "value": 0.5
        },
        {
          "id": 1,
          "value": 0.5
        },
        {
          "id": 2,
          "value": 0.0
        },
        {
          "id": 3,
          "value": 0.0
        }
      ],
      "data": {
        "modes": [
          false,
          false
        ]
      },
      "leftModuleId": 97,
      "rightModuleId": 78,
      "id": 98,
      "pos": [
        25,
        0
      ]
    },
    {
      "plugin": "Fundamental",
      "version": "1.0.0",
      "model": "Delay",
      "params": [
        {
          "id": 0,
          "value": 0.663303137
        },
        {
          "id": 1,
          "value": 0.949999988
        },
        {
          "id": 2,
          "value": 0.396500051
        },
        {
          "id": 3,
          "value": 1.0
        }
      ],
      "leftModuleId": 103,
      "rightModuleId": 102,
      "id": 101,
      "pos": [
        120,
        0
      ]
    },
    {
      "plugin": "Fundamental",
      "version": "1.0.0",
      "model": "Delay",
      "params": [
        {
          "id": 0,
          "value": 0.685090661
        },
        {
          "id": 1,
          "value": 0.949999988
        },
        {
          "id": 2,
          "value": 0.369499981
        },
        {
          "id": 3,
          "value": 1.0
        }
      ],
      "leftModuleId": 101,
      "rightModuleId": 110,
      "id": 102,
      "pos": [
        128,
        0
      ]
    },
    {
      "plugin": "Befaco",
      "version": "1.0.0",
      "model": "DualAtenuverter",
      "params": [
        {
          "id": 0,
          "value": 0.0
        },
        {
          "id": 1,
          "value": -8.15999794
        },
        {
          "id": 2,
          "value": 0.0
        },
        {
          "id": 3,
          "value": 0.0
        }
      ],
      "leftModuleId": 111,
      "rightModuleId": 101,
      "id": 103,
      "pos": [
        115,
        0
      ]
    },
    {
      "plugin": "TechTechTechnologies",
      "version": "1.0.0",
      "model": "DAC",
      "params": [
        {
          "id": 0,
          "value": 0.0
        },
        {
          "id": 1,
          "value": 1.0
        },
        {
          "id": 2,
          "value": 0.0
        },
        {
          "id": 3,
          "value": 1.0
        },
        {
          "id": 4,
          "value": 1.0
        },
        {
          "id": 5,
          "value": 0.0
        },
        {
          "id": 6,
          "value": 0.0
        },
        {
          "id": 7,
          "value": 0.0
        },
        {
          "id": 8,
          "value": 0.0
        },
        {
          "id": 9,
          "value": 0.0
        },
        {
          "id": 10,
          "value": 0.0
        },
        {
          "id": 11,
          "value": 0.0
        },
        {
          "id": 12,
          "value": 0.0
        },
        {
          "id": 13,
          "value": 0.0
        },
        {
          "id": 14,
          "value": 0.0
        },
        {
          "id": 15,
          "value": 0.0
        },
        {
          "id": 16,
          "value": 0.0
        },
        {
          "id": 17,
          "value": 0.0
        },
        {
          "id": 18,
          "value": 0.0
        }
      ],
      "leftModuleId": 82,
      "rightModuleId": 107,
      "id": 104,
      "pos": [
        63,
        0
      ]
    },
    {
      "plugin": "Fundamental",
      "version": "1.0.0",
      "model": "Scope",
      "params": [
        {
          "id": 0,
          "value": 0.0
        },
        {
          "id": 1,
          "value": 0.0
        },
        {
          "id": 2,
          "value": 0.0
        },
        {
          "id": 3,
          "value": 0.0
        },
        {
          "id": 4,
          "value": 16.0
        },
        {
          "id": 5,
          "value": 0.0
        },
        {
          "id": 6,
          "value": 0.0
        },
        {
          "id": 7,
          "value": 0.0
        }
      ],
      "data": {
        "lissajous": 0,
        "external": 0
      },
      "leftModuleId": 107,
      "rightModuleId": 111,
      "id": 105,
      "pos": [
        89,
        0
      ]
    },
    {
      "plugin": "Befaco",
      "version": "1.0.0",
      "model": "DualAtenuverter",
      "params": [
        {
          "id": 0,
          "value": 1.0
        },
        {
          "id": 1,
          "value": 0.0
        },
        {
          "id": 2,
          "value": 0.907749951
        },
        {
          "id": 3,
          "value": 0.0
        }
      ],
      "leftModuleId": 87,
      "id": 106,
      "pos": [
        156,
        1
      ]
    },
    {
      "plugin": "Bogaudio",
      "version": "1.0.17",
      "model": "Bogaudio-LFO",
      "params": [
        {
          "id": 0,
          "value": -4.21578693
        },
        {
          "id": 1,
          "value": 0.0
        },
        {
          "id": 2,
          "value": 0.0
        },
        {
          "id": 3,
          "value": 0.805000007
        },
        {
          "id": 4,
          "value": 1.0
        },
        {
          "id": 5,
          "value": 1.0
        }
      ],
      "leftModuleId": 104,
      "rightModuleId": 105,
      "id": 107,
      "pos": [
        79,
        0
      ]
    },
    {
      "plugin": "TechTechTechnologies",
      "version": "1.0.0",
      "model": "Odysseus",
      "params": [
        {
          "id": 0,
          "value": 0.733499765
        },
        {
          "id": 1,
          "value": 0.842499971
        },
        {
          "id": 2,
          "value": 0.0
        },
        {
          "id": 3,
          "value": 0.0
        },
        {
          "id": 4,
          "value": 1.0
        },
        {
          "id": 5,
          "value": 0.814499855
        },
        {
          "id": 6,
          "value": 0.0
        },
        {
          "id": 7,
          "value": 1.0
        },
        {
          "id": 8,
          "value": 0.0
        },
        {
          "id": 9,
          "value": 0.0
        },
        {
          "id": 10,
          "value": 0.0
        }
      ],
      "rightModuleId": 97,
      "id": 108,
      "pos": [
        5,
        0
      ]
    },
    {
      "plugin": "Fundamental",
      "version": "1.0.0",
      "model": "Scope",
      "params": [
        {
          "id": 0,
          "value": 0.0
        },
        {
          "id": 1,
          "value": 0.0
        },
        {
          "id": 2,
          "value": 0.0
        },
        {
          "id": 3,
          "value": 0.0
        },
        {
          "id": 4,
          "value": 6.0
        },
        {
          "id": 5,
          "value": 0.0
        },
        {
          "id": 6,
          "value": 0.0
        },
        {
          "id": 7,
          "value": 0.0
        }
      ],
      "data": {
        "lissajous": 0,
        "external": 0
      },
      "rightModuleId": 92,
      "id": 109,
      "pos": [
        0,
        1
      ]
    },
    {
      "plugin": "TechTechTechnologies",
      "version": "1.0.0",
      "model": "Odysseus",
      "params": [
        {
          "id": 0,
          "value": 0.733499765
        },
        {
          "id": 1,
          "value": 0.842499971
        },
        {
          "id": 2,
          "value": 0.138000011
        },
        {
          "id": 3,
          "value": 0.0
        },
        {
          "id": 4,
          "value": 1.0
        },
        {
          "id": 5,
          "value": 0.814499855
        },
        {
          "id": 6,
          "value": 0.0
        },
        {
          "id": 7,
          "value": 1.0
        },
        {
          "id": 8,
          "value": 0.0
        },
        {
          "id": 9,
          "value": 0.0
        },
        {
          "id": 10,
          "value": 0.0
        }
      ],
      "leftModuleId": 102,
      "rightModuleId": 112,
      "id": 110,
      "pos": [
        136,
        0
      ]
    },
    {
      "plugin": "Fundamental",
      "version": "1.0.0",
      "model": "Scope",
      "params": [
        {
          "id": 0,
          "value": 1.0
        },
        {
          "id": 1,
          "value": 0.0
        },
        {
          "id": 2,
          "value": 1.0
        },
        {
          "id": 3,
          "value": 0.0
        },
        {
          "id": 4,
          "value": 11.715003
        },
        {
          "id": 5,
          "value": 0.0
        },
        {
          "id": 6,
          "value": 0.0
        },
        {
          "id": 7,
          "value": 0.0
        }
      ],
      "data": {
        "lissajous": 0,
        "external": 0
      },
      "leftModuleId": 105,
      "rightModuleId": 103,
      "id": 111,
      "pos": [
        102,
        0
      ]
    },
    {
      "plugin": "Fundamental",
      "version": "1.0.0",
      "model": "Scope",
      "params": [
        {
          "id": 0,
          "value": 0.0
        },
        {
          "id": 1,
          "value": 0.0
        },
        {
          "id": 2,
          "value": 0.0
        },
        {
          "id": 3,
          "value": 0.0
        },
        {
          "id": 4,
          "value": 11.715003
        },
        {
          "id": 5,
          "value": 0.0
        },
        {
          "id": 6,
          "value": 0.0
        },
        {
          "id": 7,
          "value": 0.0
        }
      ],
      "data": {
        "lissajous": 0,
        "external": 0
      },
      "leftModuleId": 110,
      "id": 112,
      "pos": [
        146,
        0
      ]
    }
  ],
  "id": 230,
  "cables": [
    {
      "outputModuleId": 79,
      "outputId": 0,
      "inputModuleId": 78,
      "inputId": 0,
      "color": "#0986ad"
    },
    {
      "outputModuleId": 82,
      "outputId": 0,
      "inputModuleId": 79,
      "inputId": 2,
      "color": "#0986ad"
    },
    {
      "outputModuleId": 78,
      "outputId": 2,
      "inputModuleId": 82,
      "inputId": 0,
      "color": "#0c8e15"
    },
    {
      "outputModuleId": 80,
      "outputId": 0,
      "inputModuleId": 79,
      "inputId": 5,
      "color": "#0986ad"
    },
    {
      "outputModuleId": 79,
      "outputId": 4,
      "inputModuleId": 77,
      "inputId": 6,
      "color": "#c9b70e"
    },
    {
      "outputModuleId": 79,
      "outputId": 5,
      "inputModuleId": 77,
      "inputId": 14,
      "color": "#0c8e15"
    },
    {
      "outputModuleId": 79,
      "outputId": 4,
      "inputModuleId": 7,
      "inputId": 0,
      "color": "#0c8e15"
    },
    {
      "outputModuleId": 79,
      "outputId": 5,
      "inputModuleId": 7,
      "inputId": 1,
      "color": "#c91847"
    },
    {
      "outputModuleId": 79,
      "outputId": 4,
      "inputModuleId": 83,
      "inputId": 3,
      "color": "#0986ad"
    },
    {
      "outputModuleId": 79,
      "outputId": 5,
      "inputModuleId": 83,
      "inputId": 2,
      "color": "#c9b70e"
    },
    {
      "outputModuleId": 83,
      "outputId": 2,
      "inputModuleId": 84,
      "inputId": 0,
      "color": "#0986ad"
    },
    {
      "outputModuleId": 83,
      "outputId": 3,
      "inputModuleId": 84,
      "inputId": 1,
      "color": "#c9b70e"
    },
    {
      "outputModuleId": 77,
      "outputId": 4,
      "inputModuleId": 85,
      "inputId": 0,
      "color": "#c91847"
    },
    {
      "outputModuleId": 89,
      "outputId": 2,
      "inputModuleId": 90,
      "inputId": 0,
      "color": "#c9b70e"
    },
    {
      "outputModuleId": 89,
      "outputId": 3,
      "inputModuleId": 90,
      "inputId": 1,
      "color": "#0c8e15"
    },
    {
      "outputModuleId": 89,
      "outputId": 2,
      "inputModuleId": 87,
      "inputId": 20,
      "color": "#c91847"
    },
    {
      "outputModuleId": 78,
      "outputId": 0,
      "inputModuleId": 79,
      "inputId": 1,
      "color": "#0c8e15"
    },
    {
      "outputModuleId": 79,
      "outputId": 4,
      "inputModuleId": 81,
      "inputId": 0,
      "color": "#c9b70e"
    },
    {
      "outputModuleId": 79,
      "outputId": 5,
      "inputModuleId": 81,
      "inputId": 1,
      "color": "#0c8e15"
    },
    {
      "outputModuleId": 83,
      "outputId": 2,
      "inputModuleId": 81,
      "inputId": 2,
      "color": "#c91847"
    },
    {
      "outputModuleId": 83,
      "outputId": 3,
      "inputModuleId": 81,
      "inputId": 3,
      "color": "#0986ad"
    },
    {
      "outputModuleId": 77,
      "outputId": 4,
      "inputModuleId": 77,
      "inputId": 12,
      "color": "#c9b70e"
    },
    {
      "outputModuleId": 77,
      "outputId": 10,
      "inputModuleId": 89,
      "inputId": 2,
      "color": "#c9b70e"
    },
    {
      "outputModuleId": 77,
      "outputId": 2,
      "inputModuleId": 89,
      "inputId": 3,
      "color": "#0c8e15"
    },
    {
      "outputModuleId": 77,
      "outputId": 10,
      "inputModuleId": 88,
      "inputId": 1,
      "color": "#0986ad"
    },
    {
      "outputModuleId": 77,
      "outputId": 10,
      "inputModuleId": 86,
      "inputId": 1,
      "color": "#c9b70e"
    },
    {
      "outputModuleId": 77,
      "outputId": 2,
      "inputModuleId": 88,
      "inputId": 0,
      "color": "#0c8e15"
    },
    {
      "outputModuleId": 77,
      "outputId": 2,
      "inputModuleId": 86,
      "inputId": 0,
      "color": "#0986ad"
    },
    {
      "outputModuleId": 89,
      "outputId": 2,
      "inputModuleId": 88,
      "inputId": 2,
      "color": "#c91847"
    },
    {
      "outputModuleId": 89,
      "outputId": 3,
      "inputModuleId": 88,
      "inputId": 3,
      "color": "#0986ad"
    },
    {
      "outputModuleId": 77,
      "outputId": 4,
      "inputModuleId": 77,
      "inputId": 2,
      "color": "#0c8e15"
    },
    {
      "outputModuleId": 77,
      "outputId": 4,
      "inputModuleId": 77,
      "inputId": 4,
      "color": "#0986ad"
    },
    {
      "outputModuleId": 91,
      "outputId": 0,
      "inputModuleId": 89,
      "inputId": 7,
      "color": "#c91847"
    },
    {
      "outputModuleId": 91,
      "outputId": 0,
      "inputModuleId": 92,
      "inputId": 0,
      "color": "#0986ad"
    },
    {
      "outputModuleId": 91,
      "outputId": 0,
      "inputModuleId": 91,
      "inputId": 0,
      "color": "#0c8e15"
    },
    {
      "outputModuleId": 95,
      "outputId": 0,
      "inputModuleId": 92,
      "inputId": 1,
      "color": "#c9b70e"
    },
    {
      "outputModuleId": 95,
      "outputId": 0,
      "inputModuleId": 95,
      "inputId": 0,
      "color": "#c91847"
    },
    {
      "outputModuleId": 96,
      "outputId": 2,
      "inputModuleId": 1,
      "inputId": 0,
      "color": "#0986ad"
    },
    {
      "outputModuleId": 96,
      "outputId": 3,
      "inputModuleId": 1,
      "inputId": 1,
      "color": "#c9b70e"
    },
    {
      "outputModuleId": 97,
      "outputId": 2,
      "inputModuleId": 98,
      "inputId": 0,
      "color": "#0986ad"
    },
    {
      "outputModuleId": 98,
      "outputId": 0,
      "inputModuleId": 79,
      "inputId": 7,
      "color": "#c9b70e"
    },
    {
      "outputModuleId": 98,
      "outputId": 2,
      "inputModuleId": 79,
      "inputId": 8,
      "color": "#0c8e15"
    },
    {
      "outputModuleId": 80,
      "outputId": 0,
      "inputModuleId": 79,
      "inputId": 4,
      "color": "#c9b70e"
    },
    {
      "outputModuleId": 95,
      "outputId": 0,
      "inputModuleId": 83,
      "inputId": 7,
      "color": "#c91847"
    },
    {
      "outputModuleId": 87,
      "outputId": 0,
      "inputModuleId": 101,
      "inputId": 4,
      "color": "#0c8e15"
    },
    {
      "outputModuleId": 101,
      "outputId": 0,
      "inputModuleId": 96,
      "inputId": 0,
      "color": "#c91847"
    },
    {
      "outputModuleId": 87,
      "outputId": 1,
      "inputModuleId": 102,
      "inputId": 4,
      "color": "#c91847"
    },
    {
      "outputModuleId": 102,
      "outputId": 0,
      "inputModuleId": 96,
      "inputId": 1,
      "color": "#0986ad"
    },
    {
      "outputModuleId": 103,
      "outputId": 0,
      "inputModuleId": 101,
      "inputId": 1,
      "color": "#0c8e15"
    },
    {
      "outputModuleId": 103,
      "outputId": 0,
      "inputModuleId": 102,
      "inputId": 1,
      "color": "#c91847"
    },
    {
      "outputModuleId": 80,
      "outputId": 0,
      "inputModuleId": 79,
      "inputId": 6,
      "color": "#0986ad"
    },
    {
      "outputModuleId": 104,
      "outputId": 0,
      "inputModuleId": 79,
      "inputId": 3,
      "color": "#c9b70e"
    },
    {
      "outputModuleId": 79,
      "outputId": 6,
      "inputModuleId": 77,
      "inputId": 11,
      "color": "#0c8e15"
    },
    {
      "outputModuleId": 77,
      "outputId": 9,
      "inputModuleId": 85,
      "inputId": 2,
      "color": "#0c8e15"
    },
    {
      "outputModuleId": 79,
      "outputId": 6,
      "inputModuleId": 85,
      "inputId": 1,
      "color": "#c91847"
    },
    {
      "outputModuleId": 77,
      "outputId": 9,
      "inputModuleId": 105,
      "inputId": 0,
      "color": "#0986ad"
    },
    {
      "outputModuleId": 77,
      "outputId": 9,
      "inputModuleId": 87,
      "inputId": 14,
      "color": "#c91847"
    },
    {
      "outputModuleId": 77,
      "outputId": 1,
      "inputModuleId": 105,
      "inputId": 1,
      "color": "#0986ad"
    },
    {
      "outputModuleId": 106,
      "outputId": 1,
      "inputModuleId": 87,
      "inputId": 15,
      "color": "#c9b70e"
    },
    {
      "outputModuleId": 106,
      "outputId": 1,
      "inputModuleId": 87,
      "inputId": 12,
      "color": "#0c8e15"
    },
    {
      "outputModuleId": 78,
      "outputId": 2,
      "inputModuleId": 104,
      "inputId": 0,
      "color": "#c9b70e"
    },
    {
      "outputModuleId": 108,
      "outputId": 0,
      "inputModuleId": 106,
      "inputId": 1,
      "color": "#0986ad"
    },
    {
      "outputModuleId": 97,
      "outputId": 2,
      "inputModuleId": 109,
      "inputId": 0,
      "color": "#c9b70e"
    },
    {
      "outputModuleId": 107,
      "outputId": 2,
      "inputModuleId": 109,
      "inputId": 1,
      "color": "#0c8e15"
    },
    {
      "outputModuleId": 110,
      "outputId": 0,
      "inputModuleId": 106,
      "inputId": 0,
      "color": "#0986ad"
    },
    {
      "outputModuleId": 77,
      "outputId": 1,
      "inputModuleId": 87,
      "inputId": 17,
      "color": "#0c8e15"
    },
    {
      "outputModuleId": 89,
      "outputId": 3,
      "inputModuleId": 87,
      "inputId": 23,
      "color": "#0986ad"
    },
    {
      "outputModuleId": 106,
      "outputId": 0,
      "inputModuleId": 87,
      "inputId": 24,
      "color": "#c9b70e"
    },
    {
      "outputModuleId": 96,
      "outputId": 2,
      "inputModuleId": 111,
      "inputId": 0,
      "color": "#0c8e15"
    },
    {
      "outputModuleId": 96,
      "outputId": 3,
      "inputModuleId": 111,
      "inputId": 1,
      "color": "#c91847"
    },
    {
      "outputModuleId": 110,
      "outputId": 0,
      "inputModuleId": 112,
      "inputId": 0,
      "color": "#0986ad"
    },
    {
      "outputModuleId": 106,
      "outputId": 1,
      "inputModuleId": 112,
      "inputId": 1,
      "color": "#c9b70e"
    },
    {
      "outputModuleId": 107,
      "outputId": 2,
      "inputModuleId": 104,
      "inputId": 2,
      "color": "#c91847"
    }
  ]
}