{
  "version": "1.0.0",
  "modules": [
    {
      "plugin": "Core",
      "version": "1.0.0",
      "model": "AudioInterface",
      "params": [],
      "data": {
        "audio": {
          "driver": 8,
          "deviceName": "Speakers (Realtek High Definition Audio)",
          "offset": 0,
          "maxChannels": 8,
          "sampleRate": 44100,
          "blockSize": 256
        }
      },
      "leftModuleId": 90,
      "rightModuleId": 96,
      "id": 1,
      "pos": [
        125,
        1
      ]
    },
    {
      "plugin": "Fundamental",
      "version": "1.0.0",
      "model": "Scope",
      "params": [
        {
          "id": 0,
          "value": 0.0
        },
        {
          "id": 1,
          "value": 0.0
        },
        {
          "id": 2,
          "value": 0.0
        },
        {
          "id": 3,
          "value": 0.0
        },
        {
          "id": 4,
          "value": 6.0
        },
        {
          "id": 5,
          "value": 0.0
        },
        {
          "id": 6,
          "value": 0.0
        },
        {
          "id": 7,
          "value": 0.0
        }
      ],
      "data": {
        "lissajous": 1,
        "external": 0
      },
      "leftModuleId": 79,
      "rightModuleId": 175,
      "id": 7,
      "pos": [
        64,
        1
      ]
    },
    {
      "plugin": "TechTechTechnologies",
      "version": "1.0.0",
      "model": "QMod",
      "params": [
        {
          "id": 0,
          "value": 1.0
        },
        {
          "id": 1,
          "value": 1.0
        },
        {
          "id": 2,
          "value": 1.0
        },
        {
          "id": 3,
          "value": 0.0
        },
        {
          "id": 4,
          "value": 2.0
        },
        {
          "id": 5,
          "value": -2.0
        },
        {
          "id": 6,
          "value": 0.0
        },
        {
          "id": 7,
          "value": 0.0
        },
        {
          "id": 8,
          "value": 1.0
        },
        {
          "id": 9,
          "value": 1.0
        },
        {
          "id": 10,
          "value": 1.0
        },
        {
          "id": 11,
          "value": 0.0
        }
      ],
      "leftModuleId": 84,
      "rightModuleId": 86,
      "id": 77,
      "pos": [
        85,
        2
      ]
    },
    {
      "plugin": "TechTechTechnologies",
      "version": "1.0.0",
      "model": "DAC",
      "params": [
        {
          "id": 0,
          "value": 0.0
        },
        {
          "id": 1,
          "value": 8.0
        },
        {
          "id": 2,
          "value": 0.0
        },
        {
          "id": 3,
          "value": 1.0
        },
        {
          "id": 4,
          "value": 0.0
        },
        {
          "id": 5,
          "value": 0.0
        },
        {
          "id": 6,
          "value": 0.0
        },
        {
          "id": 7,
          "value": 0.0
        },
        {
          "id": 8,
          "value": 0.0
        },
        {
          "id": 9,
          "value": 1.0
        },
        {
          "id": 10,
          "value": 0.0
        },
        {
          "id": 11,
          "value": 0.0
        },
        {
          "id": 12,
          "value": 0.0
        },
        {
          "id": 13,
          "value": 0.0
        },
        {
          "id": 14,
          "value": 0.0
        },
        {
          "id": 15,
          "value": 0.0
        },
        {
          "id": 16,
          "value": 0.0
        },
        {
          "id": 17,
          "value": 0.0
        },
        {
          "id": 18,
          "value": 1.0
        }
      ],
      "leftModuleId": 98,
      "rightModuleId": 82,
      "id": 78,
      "pos": [
        38,
        0
      ]
    },
    {
      "plugin": "TechTechTechnologies",
      "version": "1.0.0",
      "model": "Prometheus",
      "params": [
        {
          "id": 0,
          "value": 16.0
        }
      ],
      "leftModuleId": 80,
      "rightModuleId": 7,
      "id": 79,
      "pos": [
        46,
        1
      ]
    },
    {
      "plugin": "Bogaudio",
      "version": "1.0.17",
      "model": "Bogaudio-VCO",
      "params": [
        {
          "id": 0,
          "value": 0.0
        },
        {
          "id": 1,
          "value": 0.0
        },
        {
          "id": 2,
          "value": 0.0
        },
        {
          "id": 3,
          "value": 0.0
        },
        {
          "id": 4,
          "value": 0.0
        },
        {
          "id": 5,
          "value": 1.0
        }
      ],
      "leftModuleId": 91,
      "rightModuleId": 79,
      "id": 80,
      "pos": [
        36,
        1
      ]
    },
    {
      "plugin": "Bogaudio",
      "version": "1.0.17",
      "model": "Bogaudio-Analyzer",
      "params": [
        {
          "id": 0,
          "value": 0.0
        },
        {
          "id": 1,
          "value": 1.0
        },
        {
          "id": 2,
          "value": 3.0
        },
        {
          "id": 3,
          "value": 0.0
        },
        {
          "id": 4,
          "value": 3.0
        },
        {
          "id": 5,
          "value": -1.0
        }
      ],
      "data": {
        "range_db": 80.0
      },
      "leftModuleId": 95,
      "rightModuleId": 84,
      "id": 81,
      "pos": [
        52,
        2
      ]
    },
    {
      "plugin": "TechTechTechnologies",
      "version": "1.0.0",
      "model": "DAC",
      "params": [
        {
          "id": 0,
          "value": 0.0
        },
        {
          "id": 1,
          "value": 8.0
        },
        {
          "id": 2,
          "value": 0.0
        },
        {
          "id": 3,
          "value": 1.0
        },
        {
          "id": 4,
          "value": 0.0
        },
        {
          "id": 5,
          "value": 0.0
        },
        {
          "id": 6,
          "value": 0.0
        },
        {
          "id": 7,
          "value": 0.0
        },
        {
          "id": 8,
          "value": 0.0
        },
        {
          "id": 9,
          "value": 0.0
        },
        {
          "id": 10,
          "value": 0.0
        },
        {
          "id": 11,
          "value": 0.0
        },
        {
          "id": 12,
          "value": 0.0
        },
        {
          "id": 13,
          "value": 0.0
        },
        {
          "id": 14,
          "value": 0.0
        },
        {
          "id": 15,
          "value": 0.0
        },
        {
          "id": 16,
          "value": 1.0
        },
        {
          "id": 17,
          "value": 0.0
        },
        {
          "id": 18,
          "value": 1.0
        }
      ],
      "leftModuleId": 78,
      "rightModuleId": 104,
      "id": 82,
      "pos": [
        54,
        0
      ]
    },
    {
      "plugin": "Fundamental",
      "version": "1.0.0",
      "model": "Scope",
      "params": [
        {
          "id": 0,
          "value": -2.0
        },
        {
          "id": 1,
          "value": 0.0
        },
        {
          "id": 2,
          "value": -2.0
        },
        {
          "id": 3,
          "value": 0.0
        },
        {
          "id": 4,
          "value": 7.9949975
        },
        {
          "id": 5,
          "value": 0.0
        },
        {
          "id": 6,
          "value": 0.0
        },
        {
          "id": 7,
          "value": 0.0
        }
      ],
      "data": {
        "lissajous": 1,
        "external": 0
      },
      "leftModuleId": 81,
      "rightModuleId": 77,
      "id": 84,
      "pos": [
        72,
        2
      ]
    },
    {
      "plugin": "Bogaudio",
      "version": "1.0.17",
      "model": "Bogaudio-Analyzer",
      "params": [
        {
          "id": 0,
          "value": 0.0
        },
        {
          "id": 1,
          "value": 0.0
        },
        {
          "id": 2,
          "value": 3.0
        },
        {
          "id": 3,
          "value": 0.0
        },
        {
          "id": 4,
          "value": 1.0
        },
        {
          "id": 5,
          "value": 0.0
        }
      ],
      "data": {
        "range_db": 80.0
      },
      "leftModuleId": 193,
      "rightModuleId": 186,
      "id": 85,
      "pos": [
        84,
        3
      ]
    },
    {
      "plugin": "Fundamental",
      "version": "1.0.0",
      "model": "Scope",
      "params": [
        {
          "id": 0,
          "value": 0.0
        },
        {
          "id": 1,
          "value": 0.0
        },
        {
          "id": 2,
          "value": 0.0
        },
        {
          "id": 3,
          "value": 0.0
        },
        {
          "id": 4,
          "value": 14.0
        },
        {
          "id": 5,
          "value": 0.0
        },
        {
          "id": 6,
          "value": 0.0
        },
        {
          "id": 7,
          "value": 0.0
        }
      ],
      "data": {
        "lissajous": 1,
        "external": 0
      },
      "leftModuleId": 77,
      "rightModuleId": 88,
      "id": 86,
      "pos": [
        103,
        2
      ]
    },
    {
      "plugin": "Bogaudio",
      "version": "1.0.17",
      "model": "Bogaudio-Mix8",
      "params": [
        {
          "id": 0,
          "value": 0.784591258
        },
        {
          "id": 1,
          "value": 0.0
        },
        {
          "id": 2,
          "value": 0.0
        },
        {
          "id": 3,
          "value": 0.791999817
        },
        {
          "id": 4,
          "value": 0.0
        },
        {
          "id": 5,
          "value": 0.0
        },
        {
          "id": 6,
          "value": 0.592000186
        },
        {
          "id": 7,
          "value": 0.0
        },
        {
          "id": 8,
          "value": -1.0
        },
        {
          "id": 9,
          "value": 0.601590395
        },
        {
          "id": 10,
          "value": 0.0
        },
        {
          "id": 11,
          "value": 1.0
        },
        {
          "id": 12,
          "value": 0.909090936
        },
        {
          "id": 13,
          "value": 1.0
        },
        {
          "id": 14,
          "value": -1.0
        },
        {
          "id": 15,
          "value": 0.709590971
        },
        {
          "id": 16,
          "value": 0.0
        },
        {
          "id": 17,
          "value": 0.0
        },
        {
          "id": 18,
          "value": 0.688500285
        },
        {
          "id": 19,
          "value": 0.0
        },
        {
          "id": 20,
          "value": 0.0
        },
        {
          "id": 21,
          "value": 0.749499738
        },
        {
          "id": 22,
          "value": 0.0
        },
        {
          "id": 23,
          "value": 0.0
        },
        {
          "id": 24,
          "value": 0.721500099
        },
        {
          "id": 25,
          "value": 0.0
        }
      ],
      "leftModuleId": 88,
      "rightModuleId": 106,
      "id": 87,
      "pos": [
        136,
        2
      ]
    },
    {
      "plugin": "Bogaudio",
      "version": "1.0.17",
      "model": "Bogaudio-Analyzer",
      "params": [
        {
          "id": 0,
          "value": 0.0
        },
        {
          "id": 1,
          "value": 0.0
        },
        {
          "id": 2,
          "value": 3.0
        },
        {
          "id": 3,
          "value": 0.0
        },
        {
          "id": 4,
          "value": 1.0
        },
        {
          "id": 5,
          "value": 0.0
        }
      ],
      "data": {
        "range_db": 80.0
      },
      "leftModuleId": 86,
      "rightModuleId": 87,
      "id": 88,
      "pos": [
        116,
        2
      ]
    },
    {
      "plugin": "Fundamental",
      "version": "1.0.0",
      "model": "Scope",
      "params": [
        {
          "id": 0,
          "value": -0.0
        },
        {
          "id": 1,
          "value": 0.0
        },
        {
          "id": 2,
          "value": -0.0
        },
        {
          "id": 3,
          "value": 0.0
        },
        {
          "id": 4,
          "value": 10.2400036
        },
        {
          "id": 5,
          "value": 0.0
        },
        {
          "id": 6,
          "value": 0.0
        },
        {
          "id": 7,
          "value": 0.0
        }
      ],
      "data": {
        "lissajous": 1,
        "external": 0
      },
      "leftModuleId": 175,
      "rightModuleId": 1,
      "id": 90,
      "pos": [
        112,
        1
      ]
    },
    {
      "plugin": "TechTechTechnologies",
      "version": "1.0.0",
      "model": "Odysseus",
      "params": [
        {
          "id": 0,
          "value": 0.181499988
        },
        {
          "id": 1,
          "value": 0.842499971
        },
        {
          "id": 2,
          "value": 0.0
        },
        {
          "id": 3,
          "value": 0.0
        },
        {
          "id": 4,
          "value": 1.0
        },
        {
          "id": 5,
          "value": 0.814499855
        },
        {
          "id": 6,
          "value": 0.0
        },
        {
          "id": 7,
          "value": 1.0
        },
        {
          "id": 8,
          "value": 0.0
        },
        {
          "id": 9,
          "value": 0.0
        },
        {
          "id": 10,
          "value": 0.0
        }
      ],
      "leftModuleId": 92,
      "rightModuleId": 80,
      "id": 91,
      "pos": [
        26,
        1
      ]
    },
    {
      "plugin": "Fundamental",
      "version": "1.0.0",
      "model": "Scope",
      "params": [
        {
          "id": 0,
          "value": 0.0
        },
        {
          "id": 1,
          "value": 0.0
        },
        {
          "id": 2,
          "value": 0.0
        },
        {
          "id": 3,
          "value": 0.0
        },
        {
          "id": 4,
          "value": 6.0
        },
        {
          "id": 5,
          "value": 0.0
        },
        {
          "id": 6,
          "value": 0.0
        },
        {
          "id": 7,
          "value": 0.0
        }
      ],
      "data": {
        "lissajous": 0,
        "external": 0
      },
      "leftModuleId": 109,
      "rightModuleId": 91,
      "id": 92,
      "pos": [
        13,
        1
      ]
    },
    {
      "plugin": "TechTechTechnologies",
      "version": "1.0.0",
      "model": "Odysseus",
      "params": [
        {
          "id": 0,
          "value": 0.181499988
        },
        {
          "id": 1,
          "value": 0.842499971
        },
        {
          "id": 2,
          "value": 0.0
        },
        {
          "id": 3,
          "value": 0.0
        },
        {
          "id": 4,
          "value": 1.0
        },
        {
          "id": 5,
          "value": 0.814499855
        },
        {
          "id": 6,
          "value": 0.0
        },
        {
          "id": 7,
          "value": 1.0
        },
        {
          "id": 8,
          "value": 0.0
        },
        {
          "id": 9,
          "value": 0.0
        },
        {
          "id": 10,
          "value": 0.0
        }
      ],
      "leftModuleId": 185,
      "rightModuleId": 81,
      "id": 95,
      "pos": [
        42,
        2
      ]
    },
    {
      "plugin": "NYSTHI",
      "version": "1.0.1",
      "model": "MasterRecorder2",
      "params": [
        {
          "id": 0,
          "value": 0.0
        },
        {
          "id": 1,
          "value": 0.0
        },
        {
          "id": 2,
          "value": 0.0
        },
        {
          "id": 3,
          "value": 1.0
        },
        {
          "id": 4,
          "value": 1.0
        },
        {
          "id": 5,
          "value": 0.0
        },
        {
          "id": 6,
          "value": 0.0
        },
        {
          "id": 7,
          "value": 0.0
        },
        {
          "id": 8,
          "value": 0.0
        },
        {
          "id": 9,
          "value": 0.00499999989
        },
        {
          "id": 10,
          "value": 0.00999999978
        },
        {
          "id": 11,
          "value": 2.0
        },
        {
          "id": 12,
          "value": 0.5
        },
        {
          "id": 13,
          "value": 0.0
        },
        {
          "id": 14,
          "value": 0.100000001
        },
        {
          "id": 15,
          "value": 0.0
        },
        {
          "id": 16,
          "value": 1.0
        }
      ],
      "data": {
        "nysthi_id": "MR2_fWIaiarr",
        "wavebits": 9,
        "rms_time": 0.00100000005,
        "peak_time": 0.5,
        "m_invertphaseleft": false,
        "m_invertphaseright": false,
        "m_locklevelleftright": false,
        "m_kompressor_active": false,
        "m_autosave": true,
        "m_distort": false,
        "m_attenuation": 1.0
      },
      "leftModuleId": 1,
      "rightModuleId": 110,
      "id": 96,
      "pos": [
        135,
        1
      ]
    },
    {
      "plugin": "Bogaudio",
      "version": "1.0.17",
      "model": "Bogaudio-LFO",
      "params": [
        {
          "id": 0,
          "value": 0.0
        },
        {
          "id": 1,
          "value": 0.0
        },
        {
          "id": 2,
          "value": 0.0
        },
        {
          "id": 3,
          "value": -0.754000008
        },
        {
          "id": 4,
          "value": 1.0
        },
        {
          "id": 5,
          "value": 1.0
        }
      ],
      "leftModuleId": 108,
      "rightModuleId": 98,
      "id": 97,
      "pos": [
        22,
        0
      ]
    },
    {
      "plugin": "AudibleInstruments",
      "version": "1.0.0",
      "model": "Branches",
      "params": [
        {
          "id": 0,
          "value": 0.5
        },
        {
          "id": 1,
          "value": 0.5
        },
        {
          "id": 2,
          "value": 0.0
        },
        {
          "id": 3,
          "value": 0.0
        }
      ],
      "data": {
        "modes": [
          false,
          false
        ]
      },
      "leftModuleId": 97,
      "rightModuleId": 78,
      "id": 98,
      "pos": [
        32,
        0
      ]
    },
    {
      "plugin": "Fundamental",
      "version": "1.0.0",
      "model": "Delay",
      "params": [
        {
          "id": 0,
          "value": 0.538834035
        },
        {
          "id": 1,
          "value": 0.949999988
        },
        {
          "id": 2,
          "value": 0.396500051
        },
        {
          "id": 3,
          "value": 0.5
        }
      ],
      "leftModuleId": 103,
      "rightModuleId": 102,
      "id": 101,
      "pos": [
        173,
        2
      ]
    },
    {
      "plugin": "Fundamental",
      "version": "1.0.0",
      "model": "Delay",
      "params": [
        {
          "id": 0,
          "value": 0.538834035
        },
        {
          "id": 1,
          "value": 0.949999988
        },
        {
          "id": 2,
          "value": 0.369499981
        },
        {
          "id": 3,
          "value": 0.5
        }
      ],
      "leftModuleId": 101,
      "rightModuleId": 142,
      "id": 102,
      "pos": [
        181,
        2
      ]
    },
    {
      "plugin": "Befaco",
      "version": "1.0.0",
      "model": "DualAtenuverter",
      "params": [
        {
          "id": 0,
          "value": 0.0
        },
        {
          "id": 1,
          "value": -10.0
        },
        {
          "id": 2,
          "value": 0.0
        },
        {
          "id": 3,
          "value": 0.170000434
        }
      ],
      "leftModuleId": 106,
      "rightModuleId": 101,
      "id": 103,
      "pos": [
        168,
        2
      ]
    },
    {
      "plugin": "TechTechTechnologies",
      "version": "1.0.0",
      "model": "DAC",
      "params": [
        {
          "id": 0,
          "value": 0.0
        },
        {
          "id": 1,
          "value": 1.0
        },
        {
          "id": 2,
          "value": 0.0
        },
        {
          "id": 3,
          "value": 1.0
        },
        {
          "id": 4,
          "value": 1.0
        },
        {
          "id": 5,
          "value": 0.0
        },
        {
          "id": 6,
          "value": 0.0
        },
        {
          "id": 7,
          "value": 0.0
        },
        {
          "id": 8,
          "value": 0.0
        },
        {
          "id": 9,
          "value": 0.0
        },
        {
          "id": 10,
          "value": 0.0
        },
        {
          "id": 11,
          "value": 0.0
        },
        {
          "id": 12,
          "value": 0.0
        },
        {
          "id": 13,
          "value": 0.0
        },
        {
          "id": 14,
          "value": 0.0
        },
        {
          "id": 15,
          "value": 0.0
        },
        {
          "id": 16,
          "value": 0.0
        },
        {
          "id": 17,
          "value": 0.0
        },
        {
          "id": 18,
          "value": 0.0
        }
      ],
      "leftModuleId": 82,
      "rightModuleId": 107,
      "id": 104,
      "pos": [
        70,
        0
      ]
    },
    {
      "plugin": "Fundamental",
      "version": "1.0.0",
      "model": "Scope",
      "params": [
        {
          "id": 0,
          "value": 0.0
        },
        {
          "id": 1,
          "value": 0.0
        },
        {
          "id": 2,
          "value": 0.0
        },
        {
          "id": 3,
          "value": 0.0
        },
        {
          "id": 4,
          "value": 16.0
        },
        {
          "id": 5,
          "value": 0.0
        },
        {
          "id": 6,
          "value": 0.0
        },
        {
          "id": 7,
          "value": 0.0
        }
      ],
      "data": {
        "lissajous": 0,
        "external": 0
      },
      "leftModuleId": 107,
      "rightModuleId": 111,
      "id": 105,
      "pos": [
        96,
        0
      ]
    },
    {
      "plugin": "Befaco",
      "version": "1.0.0",
      "model": "DualAtenuverter",
      "params": [
        {
          "id": 0,
          "value": 1.0
        },
        {
          "id": 1,
          "value": 0.0
        },
        {
          "id": 2,
          "value": 0.56400007
        },
        {
          "id": 3,
          "value": 8.30999947
        }
      ],
      "leftModuleId": 87,
      "rightModuleId": 103,
      "id": 106,
      "pos": [
        163,
        2
      ]
    },
    {
      "plugin": "Bogaudio",
      "version": "1.0.17",
      "model": "Bogaudio-LFO",
      "params": [
        {
          "id": 0,
          "value": -4.21578693
        },
        {
          "id": 1,
          "value": 0.0
        },
        {
          "id": 2,
          "value": 0.0
        },
        {
          "id": 3,
          "value": 0.805000007
        },
        {
          "id": 4,
          "value": 1.0
        },
        {
          "id": 5,
          "value": 1.0
        }
      ],
      "leftModuleId": 104,
      "rightModuleId": 105,
      "id": 107,
      "pos": [
        86,
        0
      ]
    },
    {
      "plugin": "TechTechTechnologies",
      "version": "1.0.0",
      "model": "Odysseus",
      "params": [
        {
          "id": 0,
          "value": 0.733499765
        },
        {
          "id": 1,
          "value": 0.842499971
        },
        {
          "id": 2,
          "value": 0.0
        },
        {
          "id": 3,
          "value": 0.0
        },
        {
          "id": 4,
          "value": 1.0
        },
        {
          "id": 5,
          "value": 0.814499855
        },
        {
          "id": 6,
          "value": 0.0
        },
        {
          "id": 7,
          "value": 1.0
        },
        {
          "id": 8,
          "value": 0.0
        },
        {
          "id": 9,
          "value": 0.0
        },
        {
          "id": 10,
          "value": 0.0
        }
      ],
      "rightModuleId": 97,
      "id": 108,
      "pos": [
        12,
        0
      ]
    },
    {
      "plugin": "Fundamental",
      "version": "1.0.0",
      "model": "Scope",
      "params": [
        {
          "id": 0,
          "value": 0.0
        },
        {
          "id": 1,
          "value": 0.0
        },
        {
          "id": 2,
          "value": 0.0
        },
        {
          "id": 3,
          "value": 0.0
        },
        {
          "id": 4,
          "value": 6.0
        },
        {
          "id": 5,
          "value": 0.0
        },
        {
          "id": 6,
          "value": 0.0
        },
        {
          "id": 7,
          "value": 0.0
        }
      ],
      "data": {
        "lissajous": 0,
        "external": 0
      },
      "rightModuleId": 92,
      "id": 109,
      "pos": [
        0,
        1
      ]
    },
    {
      "plugin": "TechTechTechnologies",
      "version": "1.0.0",
      "model": "Odysseus",
      "params": [
        {
          "id": 0,
          "value": 0.733499765
        },
        {
          "id": 1,
          "value": 0.842499971
        },
        {
          "id": 2,
          "value": 0.138000011
        },
        {
          "id": 3,
          "value": 0.0
        },
        {
          "id": 4,
          "value": 1.0
        },
        {
          "id": 5,
          "value": 0.814499855
        },
        {
          "id": 6,
          "value": 0.0
        },
        {
          "id": 7,
          "value": 1.0
        },
        {
          "id": 8,
          "value": 0.0
        },
        {
          "id": 9,
          "value": 0.0
        },
        {
          "id": 10,
          "value": 0.0
        }
      ],
      "leftModuleId": 96,
      "rightModuleId": 112,
      "id": 110,
      "pos": [
        144,
        1
      ]
    },
    {
      "plugin": "Fundamental",
      "version": "1.0.0",
      "model": "Scope",
      "params": [
        {
          "id": 0,
          "value": 1.0
        },
        {
          "id": 1,
          "value": 0.0
        },
        {
          "id": 2,
          "value": 1.0
        },
        {
          "id": 3,
          "value": 0.0
        },
        {
          "id": 4,
          "value": 11.715003
        },
        {
          "id": 5,
          "value": 0.0
        },
        {
          "id": 6,
          "value": 0.0
        },
        {
          "id": 7,
          "value": 0.0
        }
      ],
      "data": {
        "lissajous": 0,
        "external": 0
      },
      "leftModuleId": 105,
      "id": 111,
      "pos": [
        109,
        0
      ]
    },
    {
      "plugin": "Fundamental",
      "version": "1.0.0",
      "model": "Scope",
      "params": [
        {
          "id": 0,
          "value": 0.0
        },
        {
          "id": 1,
          "value": 0.0
        },
        {
          "id": 2,
          "value": 0.0
        },
        {
          "id": 3,
          "value": 0.0
        },
        {
          "id": 4,
          "value": 11.715003
        },
        {
          "id": 5,
          "value": 0.0
        },
        {
          "id": 6,
          "value": 0.0
        },
        {
          "id": 7,
          "value": 0.0
        }
      ],
      "data": {
        "lissajous": 0,
        "external": 0
      },
      "leftModuleId": 110,
      "rightModuleId": 205,
      "id": 112,
      "pos": [
        154,
        1
      ]
    },
    {
      "plugin": "Core",
      "version": "1.0.0",
      "model": "Blank",
      "params": [],
      "rightModuleId": 126,
      "width": 525.0,
      "id": 125,
      "pos": [
        189,
        1
      ]
    },
    {
      "plugin": "Core",
      "version": "1.0.0",
      "model": "Blank",
      "params": [],
      "leftModuleId": 125,
      "width": 525.0,
      "id": 126,
      "pos": [
        224,
        1
      ]
    },
    {
      "plugin": "Core",
      "version": "1.0.0",
      "model": "Blank",
      "params": [],
      "leftModuleId": 156,
      "width": 525.0,
      "id": 129,
      "pos": [
        224,
        3
      ]
    },
    {
      "plugin": "Core",
      "version": "1.0.0",
      "model": "Blank",
      "params": [],
      "leftModuleId": 143,
      "rightModuleId": 174,
      "width": 120.0,
      "id": 141,
      "pos": [
        205,
        2
      ]
    },
    {
      "plugin": "Core",
      "version": "1.0.0",
      "model": "Blank",
      "params": [],
      "leftModuleId": 102,
      "rightModuleId": 143,
      "width": 120.0,
      "id": 142,
      "pos": [
        189,
        2
      ]
    },
    {
      "plugin": "Core",
      "version": "1.0.0",
      "model": "Blank",
      "params": [],
      "leftModuleId": 142,
      "rightModuleId": 141,
      "width": 120.0,
      "id": 143,
      "pos": [
        197,
        2
      ]
    },
    {
      "plugin": "Core",
      "version": "1.0.0",
      "model": "Blank",
      "params": [],
      "leftModuleId": 161,
      "rightModuleId": 129,
      "width": 105.0,
      "id": 156,
      "pos": [
        217,
        3
      ]
    },
    {
      "plugin": "Core",
      "version": "1.0.0",
      "model": "Blank",
      "params": [],
      "rightModuleId": 165,
      "width": 150.0,
      "id": 157,
      "pos": [
        189,
        0
      ]
    },
    {
      "plugin": "Core",
      "version": "1.0.0",
      "model": "Blank",
      "params": [],
      "leftModuleId": 173,
      "width": 180.0,
      "id": 160,
      "pos": [
        247,
        2
      ]
    },
    {
      "plugin": "Core",
      "version": "1.0.0",
      "model": "Blank",
      "params": [],
      "leftModuleId": 162,
      "rightModuleId": 156,
      "width": 105.0,
      "id": 161,
      "pos": [
        210,
        3
      ]
    },
    {
      "plugin": "Core",
      "version": "1.0.0",
      "model": "Blank",
      "params": [],
      "leftModuleId": 163,
      "rightModuleId": 161,
      "width": 105.0,
      "id": 162,
      "pos": [
        203,
        3
      ]
    },
    {
      "plugin": "Core",
      "version": "1.0.0",
      "model": "Blank",
      "params": [],
      "leftModuleId": 164,
      "rightModuleId": 162,
      "width": 105.0,
      "id": 163,
      "pos": [
        196,
        3
      ]
    },
    {
      "plugin": "Core",
      "version": "1.0.0",
      "model": "Blank",
      "params": [],
      "rightModuleId": 163,
      "width": 105.0,
      "id": 164,
      "pos": [
        189,
        3
      ]
    },
    {
      "plugin": "Core",
      "version": "1.0.0",
      "model": "Blank",
      "params": [],
      "leftModuleId": 157,
      "rightModuleId": 166,
      "width": 150.0,
      "id": 165,
      "pos": [
        199,
        0
      ]
    },
    {
      "plugin": "Core",
      "version": "1.0.0",
      "model": "Blank",
      "params": [],
      "leftModuleId": 165,
      "rightModuleId": 167,
      "width": 150.0,
      "id": 166,
      "pos": [
        209,
        0
      ]
    },
    {
      "plugin": "Core",
      "version": "1.0.0",
      "model": "Blank",
      "params": [],
      "leftModuleId": 166,
      "rightModuleId": 168,
      "width": 150.0,
      "id": 167,
      "pos": [
        219,
        0
      ]
    },
    {
      "plugin": "Core",
      "version": "1.0.0",
      "model": "Blank",
      "params": [],
      "leftModuleId": 167,
      "rightModuleId": 169,
      "width": 150.0,
      "id": 168,
      "pos": [
        229,
        0
      ]
    },
    {
      "plugin": "Core",
      "version": "1.0.0",
      "model": "Blank",
      "params": [],
      "leftModuleId": 168,
      "rightModuleId": 170,
      "width": 150.0,
      "id": 169,
      "pos": [
        239,
        0
      ]
    },
    {
      "plugin": "Core",
      "version": "1.0.0",
      "model": "Blank",
      "params": [],
      "leftModuleId": 169,
      "rightModuleId": 171,
      "width": 150.0,
      "id": 170,
      "pos": [
        249,
        0
      ]
    },
    {
      "plugin": "Core",
      "version": "1.0.0",
      "model": "Blank",
      "params": [],
      "leftModuleId": 170,
      "rightModuleId": 172,
      "width": 150.0,
      "id": 171,
      "pos": [
        259,
        0
      ]
    },
    {
      "plugin": "Core",
      "version": "1.0.0",
      "model": "Blank",
      "params": [],
      "leftModuleId": 171,
      "width": 60.0,
      "id": 172,
      "pos": [
        269,
        0
      ]
    },
    {
      "plugin": "Core",
      "version": "1.0.0",
      "model": "Blank",
      "params": [],
      "leftModuleId": 174,
      "rightModuleId": 160,
      "width": 180.0,
      "id": 173,
      "pos": [
        235,
        2
      ]
    },
    {
      "plugin": "Core",
      "version": "1.0.0",
      "model": "Blank",
      "params": [],
      "leftModuleId": 141,
      "rightModuleId": 173,
      "width": 330.0,
      "id": 174,
      "pos": [
        213,
        2
      ]
    },
    {
      "plugin": "TechTechTechnologies",
      "version": "1.0.0",
      "model": "Polyphemus2",
      "params": [
        {
          "id": 0,
          "value": 0.5
        },
        {
          "id": 1,
          "value": 0.5
        },
        {
          "id": 2,
          "value": 0.5
        },
        {
          "id": 3,
          "value": 0.5
        },
        {
          "id": 4,
          "value": 0.0
        },
        {
          "id": 5,
          "value": 0.0
        },
        {
          "id": 6,
          "value": 0.0
        },
        {
          "id": 7,
          "value": 0.0
        },
        {
          "id": 8,
          "value": 0.0
        },
        {
          "id": 9,
          "value": 0.0
        },
        {
          "id": 10,
          "value": 1.0
        },
        {
          "id": 11,
          "value": 0.166500017
        },
        {
          "id": 12,
          "value": 9.0
        },
        {
          "id": 13,
          "value": 9.0
        },
        {
          "id": 14,
          "value": 9.0
        },
        {
          "id": 15,
          "value": 9.0
        },
        {
          "id": 16,
          "value": 0.5
        },
        {
          "id": 17,
          "value": 0.5
        },
        {
          "id": 18,
          "value": 0.5
        },
        {
          "id": 19,
          "value": 0.5
        },
        {
          "id": 20,
          "value": -0.476999819
        },
        {
          "id": 21,
          "value": -1.35889494
        },
        {
          "id": 22,
          "value": -2.09100032
        },
        {
          "id": 23,
          "value": 0.849000394
        }
      ],
      "leftModuleId": 7,
      "rightModuleId": 90,
      "id": 175,
      "pos": [
        77,
        1
      ]
    },
    {
      "plugin": "Fundamental",
      "version": "1.0.0",
      "model": "ADSR",
      "params": [
        {
          "id": 0,
          "value": 0.0784999505
        },
        {
          "id": 1,
          "value": 0.5
        },
        {
          "id": 2,
          "value": 0.0
        },
        {
          "id": 3,
          "value": 0.393000036
        }
      ],
      "leftModuleId": 189,
      "rightModuleId": 187,
      "id": 178,
      "pos": [
        144,
        3
      ]
    },
    {
      "plugin": "Befaco",
      "version": "1.0.0",
      "model": "DualAtenuverter",
      "params": [
        {
          "id": 0,
          "value": 1.0
        },
        {
          "id": 1,
          "value": -1.76000106
        },
        {
          "id": 2,
          "value": 0.0480000041
        },
        {
          "id": 3,
          "value": -1.71999836
        }
      ],
      "leftModuleId": 204,
      "rightModuleId": 95,
      "id": 185,
      "pos": [
        37,
        2
      ]
    },
    {
      "plugin": "TechTechTechnologies",
      "version": "1.0.0",
      "model": "Pleiades",
      "params": [
        {
          "id": 0,
          "value": 4.0
        },
        {
          "id": 1,
          "value": 0.0
        },
        {
          "id": 2,
          "value": 0.0
        },
        {
          "id": 3,
          "value": 0.0
        },
        {
          "id": 4,
          "value": 0.0
        },
        {
          "id": 5,
          "value": 0.0
        },
        {
          "id": 6,
          "value": 0.0
        },
        {
          "id": 7,
          "value": 0.0
        },
        {
          "id": 8,
          "value": 0.0
        },
        {
          "id": 9,
          "value": 0.0
        },
        {
          "id": 10,
          "value": 0.0
        },
        {
          "id": 11,
          "value": 0.0
        },
        {
          "id": 12,
          "value": 0.0
        },
        {
          "id": 13,
          "value": 0.0
        },
        {
          "id": 14,
          "value": 0.0
        },
        {
          "id": 15,
          "value": 0.0
        },
        {
          "id": 16,
          "value": 0.0
        },
        {
          "id": 17,
          "value": 0.0
        },
        {
          "id": 18,
          "value": 0.0
        },
        {
          "id": 19,
          "value": 0.0
        }
      ],
      "data": {
        "seq_name": "qpsk",
        "format_id": 3,
        "seq_0": "PleiadesSeq_qpsk_0.dat",
        "seq_1": "PleiadesSeq_qpsk_1.dat",
        "seq_2": "PleiadesSeq_qpsk_2.dat",
        "seq_3": "PleiadesSeq_qpsk_3.dat",
        "seq_4": "PleiadesSeq_qpsk_4.dat",
        "seq_5": "PleiadesSeq_qpsk_5.dat",
        "seq_6": "PleiadesSeq_qpsk_6.dat"
      },
      "leftModuleId": 85,
      "rightModuleId": 191,
      "id": 186,
      "pos": [
        104,
        3
      ]
    },
    {
      "plugin": "Bogaudio",
      "version": "1.0.17",
      "model": "Bogaudio-LFO",
      "params": [
        {
          "id": 0,
          "value": -1.03136253
        },
        {
          "id": 1,
          "value": 0.0
        },
        {
          "id": 2,
          "value": 0.0
        },
        {
          "id": 3,
          "value": -0.754000008
        },
        {
          "id": 4,
          "value": 1.0
        },
        {
          "id": 5,
          "value": 1.0
        }
      ],
      "leftModuleId": 178,
      "rightModuleId": 188,
      "id": 187,
      "pos": [
        152,
        3
      ]
    },
    {
      "plugin": "Bogaudio",
      "version": "1.0.17",
      "model": "Bogaudio-VCO",
      "params": [
        {
          "id": 0,
          "value": 0.0
        },
        {
          "id": 1,
          "value": 0.0
        },
        {
          "id": 2,
          "value": 0.0
        },
        {
          "id": 3,
          "value": -0.960999966
        },
        {
          "id": 4,
          "value": 0.107501015
        },
        {
          "id": 5,
          "value": 1.0
        }
      ],
      "leftModuleId": 187,
      "id": 188,
      "pos": [
        162,
        3
      ]
    },
    {
      "plugin": "TechTechTechnologies",
      "version": "1.0.0",
      "model": "Odysseus",
      "params": [
        {
          "id": 0,
          "value": 0.5
        },
        {
          "id": 1,
          "value": 0.842499971
        },
        {
          "id": 2,
          "value": 1.0
        },
        {
          "id": 3,
          "value": 0.0
        },
        {
          "id": 4,
          "value": 1.0
        },
        {
          "id": 5,
          "value": 0.574500322
        },
        {
          "id": 6,
          "value": 0.0
        },
        {
          "id": 7,
          "value": 1.0
        },
        {
          "id": 8,
          "value": 0.0
        },
        {
          "id": 9,
          "value": 0.0
        },
        {
          "id": 10,
          "value": 0.0
        }
      ],
      "leftModuleId": 191,
      "rightModuleId": 178,
      "id": 189,
      "pos": [
        134,
        3
      ]
    },
    {
      "plugin": "Fundamental",
      "version": "1.0.0",
      "model": "ADSR",
      "params": [
        {
          "id": 0,
          "value": 0.0784999505
        },
        {
          "id": 1,
          "value": 0.5
        },
        {
          "id": 2,
          "value": 0.0
        },
        {
          "id": 3,
          "value": 0.519795299
        }
      ],
      "leftModuleId": 186,
      "rightModuleId": 189,
      "id": 191,
      "pos": [
        126,
        3
      ]
    },
    {
      "plugin": "TechTechTechnologies",
      "version": "1.0.0",
      "model": "Polyphemus2",
      "params": [
        {
          "id": 0,
          "value": 0.5
        },
        {
          "id": 1,
          "value": 0.5
        },
        {
          "id": 2,
          "value": 0.0
        },
        {
          "id": 3,
          "value": 0.5
        },
        {
          "id": 4,
          "value": 0.0
        },
        {
          "id": 5,
          "value": 0.0
        },
        {
          "id": 6,
          "value": 0.0
        },
        {
          "id": 7,
          "value": 0.0
        },
        {
          "id": 8,
          "value": 0.114000089
        },
        {
          "id": 9,
          "value": 0.280500054
        },
        {
          "id": 10,
          "value": 1.0
        },
        {
          "id": 11,
          "value": 0.166500017
        },
        {
          "id": 12,
          "value": 2.65049934
        },
        {
          "id": 13,
          "value": 4.5255003
        },
        {
          "id": 14,
          "value": 9.0
        },
        {
          "id": 15,
          "value": 9.0
        },
        {
          "id": 16,
          "value": 0.5
        },
        {
          "id": 17,
          "value": 0.5
        },
        {
          "id": 18,
          "value": 0.5
        },
        {
          "id": 19,
          "value": 0.5
        },
        {
          "id": 20,
          "value": 1.09200346
        },
        {
          "id": 21,
          "value": 0.531104982
        },
        {
          "id": 22,
          "value": -2.43599987
        },
        {
          "id": 23,
          "value": 0.0
        }
      ],
      "leftModuleId": 194,
      "rightModuleId": 203,
      "id": 192,
      "pos": [
        115,
        4
      ]
    },
    {
      "plugin": "Fundamental",
      "version": "1.0.0",
      "model": "Scope",
      "params": [
        {
          "id": 0,
          "value": 0.0
        },
        {
          "id": 1,
          "value": 0.0
        },
        {
          "id": 2,
          "value": 0.0
        },
        {
          "id": 3,
          "value": 0.0
        },
        {
          "id": 4,
          "value": 8.50999451
        },
        {
          "id": 5,
          "value": 0.0
        },
        {
          "id": 6,
          "value": 0.0
        },
        {
          "id": 7,
          "value": 0.0
        }
      ],
      "data": {
        "lissajous": 0,
        "external": 0
      },
      "rightModuleId": 85,
      "id": 193,
      "pos": [
        71,
        3
      ]
    },
    {
      "plugin": "Fundamental",
      "version": "1.0.0",
      "model": "VCF",
      "params": [
        {
          "id": 0,
          "value": 0.10499984
        },
        {
          "id": 1,
          "value": 0.5
        },
        {
          "id": 2,
          "value": 0.402999729
        },
        {
          "id": 3,
          "value": 0.0
        },
        {
          "id": 4,
          "value": 0.0
        }
      ],
      "rightModuleId": 192,
      "id": 194,
      "pos": [
        107,
        4
      ]
    },
    {
      "plugin": "Bogaudio",
      "version": "1.0.17",
      "model": "Bogaudio-Noise",
      "params": [],
      "leftModuleId": 201,
      "rightModuleId": 198,
      "id": 195,
      "pos": [
        74,
        4
      ]
    },
    {
      "plugin": "Fundamental",
      "version": "1.0.0",
      "model": "ADSR",
      "params": [
        {
          "id": 0,
          "value": 0.0784999505
        },
        {
          "id": 1,
          "value": 0.5
        },
        {
          "id": 2,
          "value": 0.0
        },
        {
          "id": 3,
          "value": 0.519795299
        }
      ],
      "leftModuleId": 198,
      "rightModuleId": 200,
      "id": 196,
      "pos": [
        80,
        4
      ]
    },
    {
      "plugin": "Bogaudio",
      "version": "1.0.17",
      "model": "Bogaudio-Mix1",
      "params": [
        {
          "id": 0,
          "value": 1.0
        },
        {
          "id": 1,
          "value": 0.0
        }
      ],
      "leftModuleId": 200,
      "id": 197,
      "pos": [
        103,
        4
      ]
    },
    {
      "plugin": "Bogaudio",
      "version": "1.0.17",
      "model": "Bogaudio-SampleHold",
      "params": [
        {
          "id": 0,
          "value": 0.0
        },
        {
          "id": 1,
          "value": 0.0
        },
        {
          "id": 2,
          "value": 0.0
        },
        {
          "id": 3,
          "value": 0.0
        }
      ],
      "leftModuleId": 195,
      "rightModuleId": 196,
      "id": 198,
      "pos": [
        77,
        4
      ]
    },
    {
      "plugin": "Bogaudio",
      "version": "1.0.17",
      "model": "Bogaudio-Mix4",
      "params": [
        {
          "id": 0,
          "value": 0.909090936
        },
        {
          "id": 1,
          "value": 0.0
        },
        {
          "id": 2,
          "value": 0.0
        },
        {
          "id": 3,
          "value": 0.909090936
        },
        {
          "id": 4,
          "value": 0.0
        },
        {
          "id": 5,
          "value": 0.0
        },
        {
          "id": 6,
          "value": 0.909090936
        },
        {
          "id": 7,
          "value": 0.0
        },
        {
          "id": 8,
          "value": 0.0
        },
        {
          "id": 9,
          "value": 0.923499882
        },
        {
          "id": 10,
          "value": 0.0
        },
        {
          "id": 11,
          "value": 0.0
        },
        {
          "id": 12,
          "value": 0.909090936
        },
        {
          "id": 13,
          "value": 0.0
        }
      ],
      "leftModuleId": 196,
      "rightModuleId": 197,
      "id": 200,
      "pos": [
        88,
        4
      ]
    },
    {
      "plugin": "Befaco",
      "version": "1.0.0",
      "model": "DualAtenuverter",
      "params": [
        {
          "id": 0,
          "value": 0.0
        },
        {
          "id": 1,
          "value": 2.64000106
        },
        {
          "id": 2,
          "value": 0.0
        },
        {
          "id": 3,
          "value": 10.0
        }
      ],
      "leftModuleId": 202,
      "rightModuleId": 195,
      "id": 201,
      "pos": [
        69,
        4
      ]
    },
    {
      "plugin": "Fundamental",
      "version": "1.0.0",
      "model": "Scope",
      "params": [
        {
          "id": 0,
          "value": 0.0
        },
        {
          "id": 1,
          "value": 0.0
        },
        {
          "id": 2,
          "value": 0.0
        },
        {
          "id": 3,
          "value": 0.0
        },
        {
          "id": 4,
          "value": 8.50999451
        },
        {
          "id": 5,
          "value": 0.0
        },
        {
          "id": 6,
          "value": 0.0
        },
        {
          "id": 7,
          "value": 0.0
        }
      ],
      "data": {
        "lissajous": 0,
        "external": 0
      },
      "rightModuleId": 201,
      "id": 202,
      "pos": [
        56,
        4
      ]
    },
    {
      "plugin": "Fundamental",
      "version": "1.0.0",
      "model": "Scope",
      "params": [
        {
          "id": 0,
          "value": 0.0
        },
        {
          "id": 1,
          "value": 0.0
        },
        {
          "id": 2,
          "value": 0.0
        },
        {
          "id": 3,
          "value": 0.0
        },
        {
          "id": 4,
          "value": 8.00500011
        },
        {
          "id": 5,
          "value": 0.0
        },
        {
          "id": 6,
          "value": 0.0
        },
        {
          "id": 7,
          "value": 0.0
        }
      ],
      "data": {
        "lissajous": 0,
        "external": 0
      },
      "leftModuleId": 192,
      "id": 203,
      "pos": [
        150,
        4
      ]
    },
    {
      "plugin": "Fundamental",
      "version": "1.0.0",
      "model": "VCF",
      "params": [
        {
          "id": 0,
          "value": 0.0510000065
        },
        {
          "id": 1,
          "value": 0.5
        },
        {
          "id": 2,
          "value": 0.0
        },
        {
          "id": 3,
          "value": 0.0
        },
        {
          "id": 4,
          "value": 0.0
        }
      ],
      "rightModuleId": 185,
      "id": 204,
      "pos": [
        29,
        2
      ]
    },
    {
      "plugin": "Fundamental",
      "version": "1.0.0",
      "model": "Scope",
      "params": [
        {
          "id": 0,
          "value": 2.0
        },
        {
          "id": 1,
          "value": 0.0
        },
        {
          "id": 2,
          "value": 2.0
        },
        {
          "id": 3,
          "value": 0.0
        },
        {
          "id": 4,
          "value": 12.3750057
        },
        {
          "id": 5,
          "value": 0.0
        },
        {
          "id": 6,
          "value": 0.0
        },
        {
          "id": 7,
          "value": 0.0
        }
      ],
      "data": {
        "lissajous": 1,
        "external": 0
      },
      "leftModuleId": 112,
      "id": 205,
      "pos": [
        167,
        1
      ]
    },
    {
      "plugin": "Befaco",
      "version": "1.0.0",
      "model": "DualAtenuverter",
      "params": [
        {
          "id": 0,
          "value": 0.0
        },
        {
          "id": 1,
          "value": 2.51999903
        },
        {
          "id": 2,
          "value": -1.0
        },
        {
          "id": 3,
          "value": 0.0
        }
      ],
      "id": 206,
      "pos": [
        180,
        0
      ]
    },
    {
      "plugin": "Befaco",
      "version": "1.0.0",
      "model": "DualAtenuverter",
      "params": [
        {
          "id": 0,
          "value": 0.0
        },
        {
          "id": 1,
          "value": 0.0
        },
        {
          "id": 2,
          "value": 1.0
        },
        {
          "id": 3,
          "value": 0.0
        }
      ],
      "id": 207,
      "pos": [
        145,
        0
      ]
    },
    {
      "plugin": "Bogaudio",
      "version": "1.0.17",
      "model": "Bogaudio-Offset",
      "params": [
        {
          "id": 0,
          "value": 1.0
        },
        {
          "id": 1,
          "value": 0.316000015
        }
      ],
      "data": {
        "disableOutputLimit": false
      },
      "rightModuleId": 211,
      "id": 210,
      "pos": [
        156,
        0
      ]
    },
    {
      "plugin": "Bogaudio",
      "version": "1.0.17",
      "model": "Bogaudio-Offset",
      "params": [
        {
          "id": 0,
          "value": 1.0
        },
        {
          "id": 1,
          "value": 0.316000015
        }
      ],
      "data": {
        "disableOutputLimit": false
      },
      "leftModuleId": 210,
      "id": 211,
      "pos": [
        159,
        0
      ]
    }
  ],
  "id": 195,
  "cables": [
    {
      "outputModuleId": 79,
      "outputId": 0,
      "inputModuleId": 78,
      "inputId": 0,
      "color": "#0986ad"
    },
    {
      "outputModuleId": 82,
      "outputId": 0,
      "inputModuleId": 79,
      "inputId": 2,
      "color": "#0986ad"
    },
    {
      "outputModuleId": 78,
      "outputId": 2,
      "inputModuleId": 82,
      "inputId": 0,
      "color": "#0c8e15"
    },
    {
      "outputModuleId": 80,
      "outputId": 0,
      "inputModuleId": 79,
      "inputId": 5,
      "color": "#0986ad"
    },
    {
      "outputModuleId": 79,
      "outputId": 4,
      "inputModuleId": 7,
      "inputId": 0,
      "color": "#0c8e15"
    },
    {
      "outputModuleId": 79,
      "outputId": 5,
      "inputModuleId": 7,
      "inputId": 1,
      "color": "#c91847"
    },
    {
      "outputModuleId": 77,
      "outputId": 4,
      "inputModuleId": 85,
      "inputId": 0,
      "color": "#c91847"
    },
    {
      "outputModuleId": 78,
      "outputId": 0,
      "inputModuleId": 79,
      "inputId": 1,
      "color": "#0c8e15"
    },
    {
      "outputModuleId": 79,
      "outputId": 4,
      "inputModuleId": 81,
      "inputId": 0,
      "color": "#c9b70e"
    },
    {
      "outputModuleId": 79,
      "outputId": 5,
      "inputModuleId": 81,
      "inputId": 1,
      "color": "#0c8e15"
    },
    {
      "outputModuleId": 91,
      "outputId": 0,
      "inputModuleId": 92,
      "inputId": 0,
      "color": "#0986ad"
    },
    {
      "outputModuleId": 91,
      "outputId": 0,
      "inputModuleId": 91,
      "inputId": 0,
      "color": "#0c8e15"
    },
    {
      "outputModuleId": 95,
      "outputId": 0,
      "inputModuleId": 92,
      "inputId": 1,
      "color": "#c9b70e"
    },
    {
      "outputModuleId": 95,
      "outputId": 0,
      "inputModuleId": 95,
      "inputId": 0,
      "color": "#c91847"
    },
    {
      "outputModuleId": 96,
      "outputId": 2,
      "inputModuleId": 1,
      "inputId": 0,
      "color": "#0986ad"
    },
    {
      "outputModuleId": 96,
      "outputId": 3,
      "inputModuleId": 1,
      "inputId": 1,
      "color": "#c9b70e"
    },
    {
      "outputModuleId": 97,
      "outputId": 2,
      "inputModuleId": 98,
      "inputId": 0,
      "color": "#0986ad"
    },
    {
      "outputModuleId": 80,
      "outputId": 0,
      "inputModuleId": 79,
      "inputId": 4,
      "color": "#c9b70e"
    },
    {
      "outputModuleId": 87,
      "outputId": 0,
      "inputModuleId": 101,
      "inputId": 4,
      "color": "#0c8e15"
    },
    {
      "outputModuleId": 87,
      "outputId": 1,
      "inputModuleId": 102,
      "inputId": 4,
      "color": "#c91847"
    },
    {
      "outputModuleId": 102,
      "outputId": 0,
      "inputModuleId": 96,
      "inputId": 1,
      "color": "#0986ad"
    },
    {
      "outputModuleId": 103,
      "outputId": 0,
      "inputModuleId": 101,
      "inputId": 1,
      "color": "#0c8e15"
    },
    {
      "outputModuleId": 103,
      "outputId": 0,
      "inputModuleId": 102,
      "inputId": 1,
      "color": "#c91847"
    },
    {
      "outputModuleId": 104,
      "outputId": 0,
      "inputModuleId": 79,
      "inputId": 3,
      "color": "#c9b70e"
    },
    {
      "outputModuleId": 78,
      "outputId": 2,
      "inputModuleId": 104,
      "inputId": 0,
      "color": "#c9b70e"
    },
    {
      "outputModuleId": 108,
      "outputId": 0,
      "inputModuleId": 106,
      "inputId": 1,
      "color": "#0986ad"
    },
    {
      "outputModuleId": 97,
      "outputId": 2,
      "inputModuleId": 109,
      "inputId": 0,
      "color": "#c9b70e"
    },
    {
      "outputModuleId": 107,
      "outputId": 2,
      "inputModuleId": 109,
      "inputId": 1,
      "color": "#0c8e15"
    },
    {
      "outputModuleId": 110,
      "outputId": 0,
      "inputModuleId": 106,
      "inputId": 0,
      "color": "#0986ad"
    },
    {
      "outputModuleId": 106,
      "outputId": 0,
      "inputModuleId": 87,
      "inputId": 24,
      "color": "#c9b70e"
    },
    {
      "outputModuleId": 96,
      "outputId": 2,
      "inputModuleId": 111,
      "inputId": 0,
      "color": "#0c8e15"
    },
    {
      "outputModuleId": 96,
      "outputId": 3,
      "inputModuleId": 111,
      "inputId": 1,
      "color": "#c91847"
    },
    {
      "outputModuleId": 110,
      "outputId": 0,
      "inputModuleId": 112,
      "inputId": 0,
      "color": "#0986ad"
    },
    {
      "outputModuleId": 106,
      "outputId": 1,
      "inputModuleId": 112,
      "inputId": 1,
      "color": "#c9b70e"
    },
    {
      "outputModuleId": 107,
      "outputId": 2,
      "inputModuleId": 104,
      "inputId": 2,
      "color": "#c91847"
    },
    {
      "outputModuleId": 103,
      "outputId": 1,
      "inputModuleId": 101,
      "inputId": 3,
      "color": "#0c8e15"
    },
    {
      "outputModuleId": 103,
      "outputId": 1,
      "inputModuleId": 102,
      "inputId": 3,
      "color": "#c91847"
    },
    {
      "outputModuleId": 79,
      "outputId": 4,
      "inputModuleId": 175,
      "inputId": 4,
      "color": "#0c8e15"
    },
    {
      "outputModuleId": 79,
      "outputId": 5,
      "inputModuleId": 175,
      "inputId": 8,
      "color": "#c91847"
    },
    {
      "outputModuleId": 185,
      "outputId": 0,
      "inputModuleId": 80,
      "inputId": 0,
      "color": "#c9b70e"
    },
    {
      "outputModuleId": 185,
      "outputId": 0,
      "inputModuleId": 175,
      "inputId": 16,
      "color": "#0c8e15"
    },
    {
      "outputModuleId": 185,
      "outputId": 0,
      "inputModuleId": 175,
      "inputId": 17,
      "color": "#c91847"
    },
    {
      "outputModuleId": 175,
      "outputId": 1,
      "inputModuleId": 81,
      "inputId": 2,
      "color": "#0c8e15"
    },
    {
      "outputModuleId": 175,
      "outputId": 1,
      "inputModuleId": 84,
      "inputId": 0,
      "color": "#0986ad"
    },
    {
      "outputModuleId": 175,
      "outputId": 0,
      "inputModuleId": 175,
      "inputId": 5,
      "color": "#0986ad"
    },
    {
      "outputModuleId": 187,
      "outputId": 2,
      "inputModuleId": 186,
      "inputId": 1,
      "color": "#0986ad"
    },
    {
      "outputModuleId": 186,
      "outputId": 6,
      "inputModuleId": 178,
      "inputId": 4,
      "color": "#c9b70e"
    },
    {
      "outputModuleId": 77,
      "outputId": 8,
      "inputModuleId": 86,
      "inputId": 1,
      "color": "#c9b70e"
    },
    {
      "outputModuleId": 77,
      "outputId": 4,
      "inputModuleId": 77,
      "inputId": 10,
      "color": "#0c8e15"
    },
    {
      "outputModuleId": 77,
      "outputId": 0,
      "inputModuleId": 86,
      "inputId": 0,
      "color": "#c91847"
    },
    {
      "outputModuleId": 97,
      "outputId": 2,
      "inputModuleId": 79,
      "inputId": 6,
      "color": "#0986ad"
    },
    {
      "outputModuleId": 186,
      "outputId": 1,
      "inputModuleId": 188,
      "inputId": 0,
      "color": "#c91847"
    },
    {
      "outputModuleId": 186,
      "outputId": 5,
      "inputModuleId": 191,
      "inputId": 4,
      "color": "#0986ad"
    },
    {
      "outputModuleId": 191,
      "outputId": 0,
      "inputModuleId": 189,
      "inputId": 4,
      "color": "#c9b70e"
    },
    {
      "outputModuleId": 79,
      "outputId": 5,
      "inputModuleId": 188,
      "inputId": 3,
      "color": "#c9b70e"
    },
    {
      "outputModuleId": 77,
      "outputId": 0,
      "inputModuleId": 88,
      "inputId": 0,
      "color": "#0986ad"
    },
    {
      "outputModuleId": 77,
      "outputId": 8,
      "inputModuleId": 88,
      "inputId": 1,
      "color": "#c9b70e"
    },
    {
      "outputModuleId": 185,
      "outputId": 1,
      "inputModuleId": 185,
      "inputId": 0,
      "color": "#0c8e15"
    },
    {
      "outputModuleId": 175,
      "outputId": 5,
      "inputModuleId": 81,
      "inputId": 3,
      "color": "#0c8e15"
    },
    {
      "outputModuleId": 175,
      "outputId": 4,
      "inputModuleId": 175,
      "inputId": 9,
      "color": "#c9b70e"
    },
    {
      "outputModuleId": 175,
      "outputId": 5,
      "inputModuleId": 84,
      "inputId": 1,
      "color": "#c91847"
    },
    {
      "outputModuleId": 186,
      "outputId": 0,
      "inputModuleId": 192,
      "inputId": 18,
      "color": "#0986ad"
    },
    {
      "outputModuleId": 178,
      "outputId": 0,
      "inputModuleId": 192,
      "inputId": 2,
      "color": "#c9b70e"
    },
    {
      "outputModuleId": 77,
      "outputId": 4,
      "inputModuleId": 192,
      "inputId": 6,
      "color": "#0c8e15"
    },
    {
      "outputModuleId": 192,
      "outputId": 2,
      "inputModuleId": 87,
      "inputId": 23,
      "color": "#0c8e15"
    },
    {
      "outputModuleId": 186,
      "outputId": 1,
      "inputModuleId": 192,
      "inputId": 19,
      "color": "#c91847"
    },
    {
      "outputModuleId": 189,
      "outputId": 0,
      "inputModuleId": 192,
      "inputId": 3,
      "color": "#0986ad"
    },
    {
      "outputModuleId": 188,
      "outputId": 0,
      "inputModuleId": 192,
      "inputId": 7,
      "color": "#c9b70e"
    },
    {
      "outputModuleId": 192,
      "outputId": 3,
      "inputModuleId": 192,
      "inputId": 11,
      "color": "#0c8e15"
    },
    {
      "outputModuleId": 175,
      "outputId": 2,
      "inputModuleId": 175,
      "inputId": 7,
      "color": "#0986ad"
    },
    {
      "outputModuleId": 175,
      "outputId": 6,
      "inputModuleId": 175,
      "inputId": 11,
      "color": "#c9b70e"
    },
    {
      "outputModuleId": 77,
      "outputId": 0,
      "inputModuleId": 175,
      "inputId": 6,
      "color": "#0c8e15"
    },
    {
      "outputModuleId": 77,
      "outputId": 8,
      "inputModuleId": 175,
      "inputId": 10,
      "color": "#c91847"
    },
    {
      "outputModuleId": 175,
      "outputId": 3,
      "inputModuleId": 90,
      "inputId": 1,
      "color": "#c9b70e"
    },
    {
      "outputModuleId": 175,
      "outputId": 7,
      "inputModuleId": 90,
      "inputId": 0,
      "color": "#0c8e15"
    },
    {
      "outputModuleId": 175,
      "outputId": 3,
      "inputModuleId": 88,
      "inputId": 2,
      "color": "#c91847"
    },
    {
      "outputModuleId": 192,
      "outputId": 0,
      "inputModuleId": 192,
      "inputId": 8,
      "color": "#0986ad"
    },
    {
      "outputModuleId": 192,
      "outputId": 1,
      "inputModuleId": 192,
      "inputId": 9,
      "color": "#0c8e15"
    },
    {
      "outputModuleId": 186,
      "outputId": 3,
      "inputModuleId": 192,
      "inputId": 0,
      "color": "#c9b70e"
    },
    {
      "outputModuleId": 192,
      "outputId": 9,
      "inputModuleId": 193,
      "inputId": 1,
      "color": "#0986ad"
    },
    {
      "outputModuleId": 192,
      "outputId": 4,
      "inputModuleId": 192,
      "inputId": 13,
      "color": "#0c8e15"
    },
    {
      "outputModuleId": 192,
      "outputId": 5,
      "inputModuleId": 192,
      "inputId": 12,
      "color": "#0986ad"
    },
    {
      "outputModuleId": 186,
      "outputId": 0,
      "inputModuleId": 77,
      "inputId": 4,
      "color": "#c9b70e"
    },
    {
      "outputModuleId": 186,
      "outputId": 3,
      "inputModuleId": 196,
      "inputId": 4,
      "color": "#0c8e15"
    },
    {
      "outputModuleId": 186,
      "outputId": 3,
      "inputModuleId": 198,
      "inputId": 2,
      "color": "#c91847"
    },
    {
      "outputModuleId": 195,
      "outputId": 2,
      "inputModuleId": 195,
      "inputId": 0,
      "color": "#0c8e15"
    },
    {
      "outputModuleId": 186,
      "outputId": 3,
      "inputModuleId": 197,
      "inputId": 2,
      "color": "#c91847"
    },
    {
      "outputModuleId": 200,
      "outputId": 0,
      "inputModuleId": 197,
      "inputId": 1,
      "color": "#c91847"
    },
    {
      "outputModuleId": 198,
      "outputId": 1,
      "inputModuleId": 200,
      "inputId": 11,
      "color": "#0986ad"
    },
    {
      "outputModuleId": 201,
      "outputId": 1,
      "inputModuleId": 200,
      "inputId": 8,
      "color": "#c9b70e"
    },
    {
      "outputModuleId": 201,
      "outputId": 1,
      "inputModuleId": 202,
      "inputId": 0,
      "color": "#0c8e15"
    },
    {
      "outputModuleId": 200,
      "outputId": 0,
      "inputModuleId": 202,
      "inputId": 1,
      "color": "#c91847"
    },
    {
      "outputModuleId": 195,
      "outputId": 2,
      "inputModuleId": 198,
      "inputId": 3,
      "color": "#0986ad"
    },
    {
      "outputModuleId": 186,
      "outputId": 3,
      "inputModuleId": 192,
      "inputId": 1,
      "color": "#c9b70e"
    },
    {
      "outputModuleId": 98,
      "outputId": 0,
      "inputModuleId": 79,
      "inputId": 7,
      "color": "#0c8e15"
    },
    {
      "outputModuleId": 98,
      "outputId": 2,
      "inputModuleId": 79,
      "inputId": 8,
      "color": "#c91847"
    },
    {
      "outputModuleId": 192,
      "outputId": 2,
      "inputModuleId": 85,
      "inputId": 2,
      "color": "#0986ad"
    },
    {
      "outputModuleId": 192,
      "outputId": 2,
      "inputModuleId": 203,
      "inputId": 0,
      "color": "#c9b70e"
    },
    {
      "outputModuleId": 77,
      "outputId": 4,
      "inputModuleId": 203,
      "inputId": 1,
      "color": "#0c8e15"
    },
    {
      "outputModuleId": 79,
      "outputId": 4,
      "inputModuleId": 204,
      "inputId": 3,
      "color": "#0986ad"
    },
    {
      "outputModuleId": 175,
      "outputId": 1,
      "inputModuleId": 77,
      "inputId": 6,
      "color": "#c91847"
    },
    {
      "outputModuleId": 175,
      "outputId": 5,
      "inputModuleId": 77,
      "inputId": 14,
      "color": "#0986ad"
    },
    {
      "outputModuleId": 96,
      "outputId": 2,
      "inputModuleId": 205,
      "inputId": 0,
      "color": "#c9b70e"
    },
    {
      "outputModuleId": 96,
      "outputId": 3,
      "inputModuleId": 205,
      "inputId": 1,
      "color": "#0c8e15"
    },
    {
      "outputModuleId": 197,
      "outputId": 0,
      "inputModuleId": 194,
      "inputId": 3,
      "color": "#c9b70e"
    },
    {
      "outputModuleId": 186,
      "outputId": 3,
      "inputModuleId": 193,
      "inputId": 0,
      "color": "#c91847"
    },
    {
      "outputModuleId": 194,
      "outputId": 1,
      "inputModuleId": 192,
      "inputId": 5,
      "color": "#0986ad"
    },
    {
      "outputModuleId": 194,
      "outputId": 1,
      "inputModuleId": 192,
      "inputId": 4,
      "color": "#c91847"
    },
    {
      "outputModuleId": 192,
      "outputId": 9,
      "inputModuleId": 87,
      "inputId": 11,
      "color": "#c91847"
    },
    {
      "outputModuleId": 192,
      "outputId": 8,
      "inputModuleId": 87,
      "inputId": 8,
      "color": "#0986ad"
    },
    {
      "outputModuleId": 186,
      "outputId": 0,
      "inputModuleId": 77,
      "inputId": 2,
      "color": "#c91847"
    },
    {
      "outputModuleId": 77,
      "outputId": 0,
      "inputModuleId": 77,
      "inputId": 8,
      "color": "#c91847"
    },
    {
      "outputModuleId": 77,
      "outputId": 8,
      "inputModuleId": 77,
      "inputId": 16,
      "color": "#0986ad"
    },
    {
      "outputModuleId": 77,
      "outputId": 6,
      "inputModuleId": 192,
      "inputId": 10,
      "color": "#0c8e15"
    },
    {
      "outputModuleId": 192,
      "outputId": 6,
      "inputModuleId": 87,
      "inputId": 20,
      "color": "#c91847"
    },
    {
      "outputModuleId": 192,
      "outputId": 7,
      "inputModuleId": 87,
      "inputId": 14,
      "color": "#0986ad"
    },
    {
      "outputModuleId": 106,
      "outputId": 1,
      "inputModuleId": 87,
      "inputId": 6,
      "color": "#0c8e15"
    },
    {
      "outputModuleId": 106,
      "outputId": 1,
      "inputModuleId": 87,
      "inputId": 9,
      "color": "#c9b70e"
    },
    {
      "outputModuleId": 77,
      "outputId": 2,
      "inputModuleId": 77,
      "inputId": 7,
      "color": "#0c8e15"
    },
    {
      "outputModuleId": 77,
      "outputId": 10,
      "inputModuleId": 77,
      "inputId": 15,
      "color": "#c91847"
    },
    {
      "outputModuleId": 186,
      "outputId": 3,
      "inputModuleId": 77,
      "inputId": 3,
      "color": "#0986ad"
    },
    {
      "outputModuleId": 77,
      "outputId": 5,
      "inputModuleId": 192,
      "inputId": 14,
      "color": "#c9b70e"
    },
    {
      "outputModuleId": 192,
      "outputId": 10,
      "inputModuleId": 87,
      "inputId": 17,
      "color": "#0986ad"
    },
    {
      "outputModuleId": 101,
      "outputId": 0,
      "inputModuleId": 96,
      "inputId": 0,
      "color": "#c91847"
    },
    {
      "outputModuleId": 206,
      "outputId": 0,
      "inputModuleId": 206,
      "inputId": 1,
      "color": "#0986ad"
    },
    {
      "outputModuleId": 175,
      "outputId": 10,
      "inputModuleId": 175,
      "inputId": 15,
      "color": "#c91847"
    },
    {
      "outputModuleId": 175,
      "outputId": 8,
      "inputModuleId": 175,
      "inputId": 13,
      "color": "#0c8e15"
    },
    {
      "outputModuleId": 206,
      "outputId": 0,
      "inputModuleId": 211,
      "inputId": 2,
      "color": "#c91847"
    },
    {
      "outputModuleId": 206,
      "outputId": 1,
      "inputModuleId": 210,
      "inputId": 2,
      "color": "#0986ad"
    },
    {
      "outputModuleId": 210,
      "outputId": 0,
      "inputModuleId": 101,
      "inputId": 0,
      "color": "#c9b70e"
    },
    {
      "outputModuleId": 211,
      "outputId": 0,
      "inputModuleId": 102,
      "inputId": 0,
      "color": "#0c8e15"
    },
    {
      "outputModuleId": 207,
      "outputId": 0,
      "inputModuleId": 210,
      "inputId": 0,
      "color": "#c91847"
    },
    {
      "outputModuleId": 207,
      "outputId": 0,
      "inputModuleId": 211,
      "inputId": 0,
      "color": "#0986ad"
    }
  ]
}