{
  "version": "0.5.1",
  "modules": [
    {
      "plugin": "Core",
      "model": "AudioInterface",
      "pos": [
        1455.0,
        0.0
      ],
      "params": [],
      "data": {
        "driver": 8,
        "device": 0,
        "sampleRate": 48000.0,
        "blockSize": 256
      }
    },
    {
      "plugin": "TechTechTechnologies",
      "model": "Prometheus",
      "pos": [
        660.0,
        0.0
      ],
      "params": [
        7.0
      ]
    },
    {
      "plugin": "Fundamental",
      "model": "LFO",
      "pos": [
        285.0,
        0.0
      ],
      "params": [
        1.0,
        1.0,
        -4.3179988861083984,
        0.0,
        0.5,
        0.0,
        0.0
      ]
    },
    {
      "plugin": "Fundamental",
      "model": "VCO",
      "pos": [
        495.0,
        380.0
      ],
      "params": [
        1.0,
        1.0,
        54.0,
        0.0,
        0.5,
        0.40800029039382935,
        0.0
      ]
    },
    {
      "plugin": "Fundamental",
      "model": "SequentialSwitch2",
      "pos": [
        555.0,
        0.0
      ],
      "params": [
        2.0
      ]
    },
    {
      "plugin": "Fundamental",
      "model": "SequentialSwitch2",
      "pos": [
        510.0,
        0.0
      ],
      "params": [
        2.0
      ]
    },
    {
      "plugin": "Fundamental",
      "model": "VCMixer",
      "pos": [
        1080.0,
        0.0
      ],
      "params": [
        0.078000009059906006,
        0.0,
        1.0,
        1.0
      ]
    },
    {
      "plugin": "Fundamental",
      "model": "VCMixer",
      "pos": [
        1230.0,
        0.0
      ],
      "params": [
        0.055499996989965439,
        0.0,
        1.0,
        1.0
      ]
    },
    {
      "plugin": "TechTechTechnologies",
      "model": "Sisyphus",
      "pos": [
        1020.0,
        380.0
      ],
      "params": [
        2.0499980449676514,
        5.0,
        0.0,
        1.97499680519104,
        5.0,
        0.0,
        10.0,
        5.0,
        0.0,
        10.0,
        5.0,
        0.0
      ]
    },
    {
      "plugin": "Fundamental",
      "model": "Scope",
      "pos": [
        1335.0,
        380.0
      ],
      "params": [
        0.0,
        0.0,
        0.0,
        0.0,
        -16.0,
        0.0,
        0.0,
        0.0
      ],
      "data": {
        "lissajous": 0,
        "external": 0
      }
    }
  ],
  "wires": [
    {
      "outputModuleId": 3,
      "outputId": 3,
      "inputModuleId": 1,
      "inputId": 3
    },
    {
      "outputModuleId": 2,
      "outputId": 0,
      "inputModuleId": 3,
      "inputId": 1
    },
    {
      "outputModuleId": 3,
      "outputId": 3,
      "inputModuleId": 1,
      "inputId": 6
    },
    {
      "outputModuleId": 2,
      "outputId": 0,
      "inputModuleId": 4,
      "inputId": 3
    },
    {
      "outputModuleId": 2,
      "outputId": 3,
      "inputModuleId": 4,
      "inputId": 0
    },
    {
      "outputModuleId": 2,
      "outputId": 1,
      "inputModuleId": 5,
      "inputId": 2
    },
    {
      "outputModuleId": 2,
      "outputId": 3,
      "inputModuleId": 5,
      "inputId": 0
    },
    {
      "outputModuleId": 2,
      "outputId": 0,
      "inputModuleId": 5,
      "inputId": 3
    },
    {
      "outputModuleId": 2,
      "outputId": 1,
      "inputModuleId": 4,
      "inputId": 2
    },
    {
      "outputModuleId": 5,
      "outputId": 0,
      "inputModuleId": 1,
      "inputId": 1
    },
    {
      "outputModuleId": 4,
      "outputId": 0,
      "inputModuleId": 1,
      "inputId": 4
    },
    {
      "outputModuleId": 1,
      "outputId": 1,
      "inputModuleId": 6,
      "inputId": 1
    },
    {
      "outputModuleId": 7,
      "outputId": 0,
      "inputModuleId": 0,
      "inputId": 1
    },
    {
      "outputModuleId": 6,
      "outputId": 0,
      "inputModuleId": 0,
      "inputId": 0
    },
    {
      "outputModuleId": 1,
      "outputId": 3,
      "inputModuleId": 7,
      "inputId": 1
    },
    {
      "outputModuleId": 3,
      "outputId": 3,
      "inputModuleId": 1,
      "inputId": 9
    },
    {
      "outputModuleId": 2,
      "outputId": 0,
      "inputModuleId": 1,
      "inputId": 7
    },
    {
      "outputModuleId": 2,
      "outputId": 2,
      "inputModuleId": 1,
      "inputId": 8
    },
    {
      "outputModuleId": 1,
      "outputId": 5,
      "inputModuleId": 8,
      "inputId": 0
    },
    {
      "outputModuleId": 8,
      "outputId": 0,
      "inputModuleId": 6,
      "inputId": 3
    },
    {
      "outputModuleId": 8,
      "outputId": 0,
      "inputModuleId": 7,
      "inputId": 3
    },
    {
      "outputModuleId": 2,
      "outputId": 3,
      "inputModuleId": 8,
      "inputId": 1
    },
    {
      "outputModuleId": 8,
      "outputId": 0,
      "inputModuleId": 8,
      "inputId": 5
    },
    {
      "outputModuleId": 8,
      "outputId": 2,
      "inputModuleId": 6,
      "inputId": 5
    },
    {
      "outputModuleId": 8,
      "outputId": 0,
      "inputModuleId": 9,
      "inputId": 1
    },
    {
      "outputModuleId": 8,
      "outputId": 2,
      "inputModuleId": 7,
      "inputId": 5
    },
    {
      "outputModuleId": 2,
      "outputId": 3,
      "inputModuleId": 8,
      "inputId": 6
    }
  ]
}