{
  "version": "0.5.1",
  "modules": [
    {
      "plugin": "Fundamental",
      "model": "Scope",
      "pos": [
        1920.0,
        380.0
      ],
      "params": [
        0.0,
        0.0,
        0.0,
        0.0,
        -6.0,
        0.0,
        0.0,
        0.0
      ],
      "data": {
        "lissajous": 0,
        "external": 0
      }
    },
    {
      "plugin": "Core",
      "model": "AudioInterface",
      "pos": [
        1740.0,
        380.0
      ],
      "params": [],
      "data": {
        "driver": 8,
        "device": 1,
        "sampleRate": 44100.0,
        "blockSize": 1024
      }
    },
    {
      "plugin": "Bogaudio",
      "model": "Bogaudio-Analyzer",
      "pos": [
        1290.0,
        0.0
      ],
      "params": [
        0.5,
        0.16699986159801483,
        2.0,
        1.0
      ]
    },
    {
      "plugin": "Fundamental",
      "model": "VCMixer",
      "pos": [
        1590.0,
        380.0
      ],
      "params": [
        0.5745004415512085,
        0.0,
        1.0,
        0.97800004482269287
      ]
    },
    {
      "plugin": "Bogaudio",
      "model": "Bogaudio-SampleHold",
      "pos": [
        1050.0,
        380.0
      ],
      "params": [
        0.0,
        0.0
      ]
    },
    {
      "plugin": "Fundamental",
      "model": "VCO",
      "pos": [
        1035.0,
        0.0
      ],
      "params": [
        1.0,
        1.0,
        6.5339970588684082,
        0.0,
        0.5,
        0.45600003004074097,
        0.0
      ]
    },
    {
      "plugin": "Bogaudio",
      "model": "Bogaudio-Noise",
      "pos": [
        885.0,
        380.0
      ],
      "params": []
    },
    {
      "plugin": "Fundamental",
      "model": "VCA",
      "pos": [
        1155.0,
        380.0
      ],
      "params": [
        0.44600006937980652,
        0.0
      ]
    },
    {
      "plugin": "Fundamental",
      "model": "LFO",
      "pos": [
        855.0,
        0.0
      ],
      "params": [
        1.0,
        1.0,
        6.0,
        0.0,
        0.5,
        0.0,
        0.0
      ]
    },
    {
      "plugin": "Befaco",
      "model": "DualAtenuverter",
      "pos": [
        1260.0,
        380.0
      ],
      "params": [
        0.31500014662742615,
        6.0900049209594727,
        0.38999968767166138,
        1.2599996328353882
      ]
    },
    {
      "plugin": "Fundamental",
      "model": "VCO",
      "pos": [
        705.0,
        0.0
      ],
      "params": [
        1.0,
        1.0,
        -54.0,
        0.0,
        0.5,
        0.40500003099441528,
        0.0
      ]
    },
    {
      "plugin": "Fundamental",
      "model": "Delay",
      "pos": [
        1365.0,
        760.0
      ],
      "params": [
        0.66499978303909302,
        0.65100002288818359,
        0.099499456584453583,
        1.0
      ]
    },
    {
      "plugin": "Fundamental",
      "model": "LFO",
      "pos": [
        840.0,
        760.0
      ],
      "params": [
        0.0,
        1.0,
        -2.0850002765655518,
        0.32700008153915405,
        0.5,
        0.067500002682209015,
        0.0
      ]
    },
    {
      "plugin": "Befaco",
      "model": "DualAtenuverter",
      "pos": [
        1335.0,
        380.0
      ],
      "params": [
        0.31500014662742615,
        8.1000070571899414,
        0.42499944567680359,
        6.279994010925293
      ]
    },
    {
      "plugin": "Fundamental",
      "model": "LFO",
      "pos": [
        630.0,
        760.0
      ],
      "params": [
        1.0,
        1.0,
        -2.0080010890960693,
        0.0,
        0.5,
        0.0,
        0.0
      ]
    },
    {
      "plugin": "Befaco",
      "model": "SlewLimiter",
      "pos": [
        1500.0,
        380.0
      ],
      "params": [
        0.0,
        0.0,
        0.0
      ]
    },
    {
      "plugin": "Befaco",
      "model": "DualAtenuverter",
      "pos": [
        1425.0,
        380.0
      ],
      "params": [
        0.054000061005353928,
        0.0,
        0.0,
        1.3499995470046997
      ]
    },
    {
      "plugin": "Fundamental",
      "model": "LFO",
      "pos": [
        600.0,
        380.0
      ],
      "params": [
        1.0,
        1.0,
        -4.5910005569458008,
        0.38100016117095947,
        0.5,
        0.0,
        0.0
      ]
    }
  ],
  "wires": [
    {
      "outputModuleId": 3,
      "outputId": 0,
      "inputModuleId": 1,
      "inputId": 0
    },
    {
      "outputModuleId": 3,
      "outputId": 0,
      "inputModuleId": 1,
      "inputId": 1
    },
    {
      "outputModuleId": 4,
      "outputId": 1,
      "inputModuleId": 2,
      "inputId": 1
    },
    {
      "outputModuleId": 3,
      "outputId": 0,
      "inputModuleId": 0,
      "inputId": 0
    },
    {
      "outputModuleId": 5,
      "outputId": 3,
      "inputModuleId": 4,
      "inputId": 2
    },
    {
      "outputModuleId": 6,
      "outputId": 0,
      "inputModuleId": 4,
      "inputId": 3
    },
    {
      "outputModuleId": 4,
      "outputId": 1,
      "inputModuleId": 7,
      "inputId": 5
    },
    {
      "outputModuleId": 4,
      "outputId": 0,
      "inputModuleId": 9,
      "inputId": 0
    },
    {
      "outputModuleId": 6,
      "outputId": 0,
      "inputModuleId": 4,
      "inputId": 1
    },
    {
      "outputModuleId": 8,
      "outputId": 3,
      "inputModuleId": 4,
      "inputId": 0
    },
    {
      "outputModuleId": 9,
      "outputId": 0,
      "inputModuleId": 5,
      "inputId": 1
    },
    {
      "outputModuleId": 7,
      "outputId": 1,
      "inputModuleId": 11,
      "inputId": 4
    },
    {
      "outputModuleId": 11,
      "outputId": 0,
      "inputModuleId": 7,
      "inputId": 2
    },
    {
      "outputModuleId": 7,
      "outputId": 0,
      "inputModuleId": 15,
      "inputId": 2
    },
    {
      "outputModuleId": 12,
      "outputId": 0,
      "inputModuleId": 9,
      "inputId": 1
    },
    {
      "outputModuleId": 9,
      "outputId": 1,
      "inputModuleId": 11,
      "inputId": 3
    },
    {
      "outputModuleId": 12,
      "outputId": 1,
      "inputModuleId": 13,
      "inputId": 1
    },
    {
      "outputModuleId": 13,
      "outputId": 1,
      "inputModuleId": 3,
      "inputId": 4
    },
    {
      "outputModuleId": 13,
      "outputId": 0,
      "inputModuleId": 0,
      "inputId": 1
    },
    {
      "outputModuleId": 12,
      "outputId": 2,
      "inputModuleId": 12,
      "inputId": 0
    },
    {
      "outputModuleId": 12,
      "outputId": 0,
      "inputModuleId": 13,
      "inputId": 0
    },
    {
      "outputModuleId": 13,
      "outputId": 0,
      "inputModuleId": 11,
      "inputId": 1
    },
    {
      "outputModuleId": 14,
      "outputId": 0,
      "inputModuleId": 12,
      "inputId": 1
    },
    {
      "outputModuleId": 15,
      "outputId": 0,
      "inputModuleId": 3,
      "inputId": 3
    },
    {
      "outputModuleId": 7,
      "outputId": 0,
      "inputModuleId": 3,
      "inputId": 1
    },
    {
      "outputModuleId": 16,
      "outputId": 0,
      "inputModuleId": 15,
      "inputId": 0
    },
    {
      "outputModuleId": 16,
      "outputId": 0,
      "inputModuleId": 15,
      "inputId": 1
    },
    {
      "outputModuleId": 16,
      "outputId": 1,
      "inputModuleId": 16,
      "inputId": 0
    },
    {
      "outputModuleId": 17,
      "outputId": 1,
      "inputModuleId": 7,
      "inputId": 4
    },
    {
      "outputModuleId": 17,
      "outputId": 2,
      "inputModuleId": 17,
      "inputId": 0
    }
  ]
}