{
  "version": "0.5.1",
  "modules": [
    {
      "plugin": "Core",
      "model": "AudioInterface",
      "pos": [
        1710.0,
        0.0
      ],
      "params": [],
      "data": {
        "driver": 8,
        "device": 0,
        "sampleRate": 44100.0,
        "blockSize": 256
      }
    },
    {
      "plugin": "Fundamental",
      "model": "VCMixer",
      "pos": [
        1530.0,
        0.0
      ],
      "params": [
        0.5,
        0.31800007820129395,
        0.56650012731552124,
        0.0
      ]
    },
    {
      "plugin": "Fundamental",
      "model": "VCO",
      "pos": [
        1020.0,
        0.0
      ],
      "params": [
        1.0,
        1.0,
        -30.294021606445313,
        0.0,
        0.31350034475326538,
        0.040499992668628693,
        0.43299981951713562
      ]
    },
    {
      "plugin": "Fundamental",
      "model": "VCF",
      "pos": [
        1215.0,
        0.0
      ],
      "params": [
        0.35349950194358826,
        0.5,
        1.0,
        0.039000000804662704,
        1.0
      ]
    },
    {
      "plugin": "Fundamental",
      "model": "VCF",
      "pos": [
        1395.0,
        0.0
      ],
      "params": [
        1.0,
        0.5,
        0.61200004816055298,
        0.0,
        1.0
      ]
    },
    {
      "plugin": "Fundamental",
      "model": "Scope",
      "pos": [
        1290.0,
        380.0
      ],
      "params": [
        0.0,
        0.0,
        -1.0,
        0.0,
        -14.0,
        0.0,
        -1.0500000715255737,
        0.0
      ],
      "data": {
        "lissajous": 0,
        "external": 0
      }
    },
    {
      "plugin": "Fundamental",
      "model": "LFO",
      "pos": [
        765.0,
        380.0
      ],
      "params": [
        1.0,
        1.0,
        -1.5040009021759033,
        0.021000025793910027,
        0.5,
        0.022500000894069672,
        0.0
      ]
    },
    {
      "plugin": "Fundamental",
      "model": "Scope",
      "pos": [
        1095.0,
        380.0
      ],
      "params": [
        0.0,
        0.0,
        3.0,
        0.0,
        -6.0,
        0.0,
        0.0,
        0.0
      ],
      "data": {
        "lissajous": 0,
        "external": 0
      }
    },
    {
      "plugin": "Fundamental",
      "model": "ADSR",
      "pos": [
        915.0,
        380.0
      ],
      "params": [
        0.5,
        0.59300005435943604,
        0.0,
        0.5
      ]
    },
    {
      "plugin": "Fundamental",
      "model": "LFO",
      "pos": [
        525.0,
        380.0
      ],
      "params": [
        1.0,
        1.0,
        -5.472999095916748,
        0.0,
        0.5,
        0.0,
        0.0
      ]
    },
    {
      "plugin": "Fundamental",
      "model": "LFO",
      "pos": [
        720.0,
        0.0
      ],
      "params": [
        1.0,
        1.0,
        0.38600000739097595,
        0.0,
        0.5,
        0.0,
        0.0
      ]
    },
    {
      "plugin": "Befaco",
      "model": "ABC",
      "pos": [
        675.0,
        380.0
      ],
      "params": [
        -0.84600019454956055,
        0.0,
        -0.10499999672174454,
        0.0
      ]
    },
    {
      "plugin": "Fundamental",
      "model": "Scope",
      "pos": [
        1485.0,
        380.0
      ],
      "params": [
        0.0,
        0.0,
        0.0,
        0.0,
        -14.0,
        0.0,
        0.0,
        0.0
      ],
      "data": {
        "lissajous": 0,
        "external": 0
      }
    },
    {
      "plugin": "Bogaudio",
      "model": "Bogaudio-Noise",
      "pos": [
        105.0,
        0.0
      ],
      "params": []
    },
    {
      "plugin": "Fundamental",
      "model": "ADSR",
      "pos": [
        315.0,
        380.0
      ],
      "params": [
        0.0,
        0.50550007820129395,
        0.41399997472763062,
        0.38250032067298889
      ]
    },
    {
      "plugin": "Fundamental",
      "model": "VCA",
      "pos": [
        435.0,
        0.0
      ],
      "params": [
        0.5,
        1.0
      ]
    },
    {
      "plugin": "Fundamental",
      "model": "LFO",
      "pos": [
        120.0,
        380.0
      ],
      "params": [
        1.0,
        1.0,
        3.4100031852722168,
        0.14550003409385681,
        0.11400002241134644,
        0.0,
        0.0
      ]
    },
    {
      "plugin": "Befaco",
      "model": "ABC",
      "pos": [
        435.0,
        380.0
      ],
      "params": [
        0.70599985122680664,
        0.0,
        0.44199910759925842,
        0.0
      ]
    },
    {
      "plugin": "Bogaudio",
      "model": "Bogaudio-SampleHold",
      "pos": [
        345.0,
        0.0
      ],
      "params": [
        0.0,
        0.0
      ]
    },
    {
      "plugin": "Fundamental",
      "model": "VCO",
      "pos": [
        195.0,
        0.0
      ],
      "params": [
        1.0,
        1.0,
        21.383989334106445,
        0.0,
        0.5,
        0.53849989175796509,
        0.0
      ]
    },
    {
      "plugin": "TechTechTechnologies",
      "model": "Prometheus",
      "pos": [
        525.0,
        760.0
      ],
      "params": [
        8.0
      ]
    },
    {
      "plugin": "TechTechTechnologies",
      "model": "mDAC",
      "pos": [
        165.0,
        760.0
      ],
      "params": [
        8.0
      ],
      "text0": "0x9",
      "text1": "0xff",
      "text2": "",
      "text3": "",
      "text4": "",
      "text5": "",
      "text6": "",
      "text7": ""
    },
    {
      "plugin": "Fundamental",
      "model": "VCF",
      "pos": [
        360.0,
        760.0
      ],
      "params": [
        0.53400015830993652,
        0.5,
        0.0,
        0.0,
        0.0
      ]
    }
  ],
  "wires": [
    {
      "outputModuleId": 1,
      "outputId": 0,
      "inputModuleId": 0,
      "inputId": 0
    },
    {
      "outputModuleId": 1,
      "outputId": 0,
      "inputModuleId": 0,
      "inputId": 1
    },
    {
      "outputModuleId": 4,
      "outputId": 0,
      "inputModuleId": 1,
      "inputId": 1
    },
    {
      "outputModuleId": 3,
      "outputId": 0,
      "inputModuleId": 4,
      "inputId": 3
    },
    {
      "outputModuleId": 2,
      "outputId": 3,
      "inputModuleId": 3,
      "inputId": 3
    },
    {
      "outputModuleId": 3,
      "outputId": 0,
      "inputModuleId": 5,
      "inputId": 0
    },
    {
      "outputModuleId": 4,
      "outputId": 0,
      "inputModuleId": 5,
      "inputId": 1
    },
    {
      "outputModuleId": 8,
      "outputId": 0,
      "inputModuleId": 3,
      "inputId": 0
    },
    {
      "outputModuleId": 6,
      "outputId": 3,
      "inputModuleId": 8,
      "inputId": 4
    },
    {
      "outputModuleId": 9,
      "outputId": 0,
      "inputModuleId": 11,
      "inputId": 0
    },
    {
      "outputModuleId": 10,
      "outputId": 0,
      "inputModuleId": 2,
      "inputId": 1
    },
    {
      "outputModuleId": 11,
      "outputId": 0,
      "inputModuleId": 3,
      "inputId": 2
    },
    {
      "outputModuleId": 9,
      "outputId": 0,
      "inputModuleId": 6,
      "inputId": 0
    },
    {
      "outputModuleId": 11,
      "outputId": 1,
      "inputModuleId": 2,
      "inputId": 0
    },
    {
      "outputModuleId": 6,
      "outputId": 2,
      "inputModuleId": 11,
      "inputId": 3
    },
    {
      "outputModuleId": 14,
      "outputId": 0,
      "inputModuleId": 15,
      "inputId": 4
    },
    {
      "outputModuleId": 18,
      "outputId": 0,
      "inputModuleId": 15,
      "inputId": 5
    },
    {
      "outputModuleId": 15,
      "outputId": 1,
      "inputModuleId": 1,
      "inputId": 3
    },
    {
      "outputModuleId": 20,
      "outputId": 2,
      "inputModuleId": 22,
      "inputId": 3
    },
    {
      "outputModuleId": 9,
      "outputId": 2,
      "inputModuleId": 17,
      "inputId": 3
    },
    {
      "outputModuleId": 17,
      "outputId": 1,
      "inputModuleId": 14,
      "inputId": 3
    },
    {
      "outputModuleId": 13,
      "outputId": 0,
      "inputModuleId": 18,
      "inputId": 1
    },
    {
      "outputModuleId": 19,
      "outputId": 3,
      "inputModuleId": 18,
      "inputId": 0
    },
    {
      "outputModuleId": 14,
      "outputId": 0,
      "inputModuleId": 19,
      "inputId": 1
    },
    {
      "outputModuleId": 16,
      "outputId": 3,
      "inputModuleId": 20,
      "inputId": 3
    },
    {
      "outputModuleId": 21,
      "outputId": 0,
      "inputModuleId": 20,
      "inputId": 0
    },
    {
      "outputModuleId": 21,
      "outputId": 1,
      "inputModuleId": 20,
      "inputId": 1
    },
    {
      "outputModuleId": 22,
      "outputId": 1,
      "inputModuleId": 14,
      "inputId": 4
    },
    {
      "outputModuleId": 9,
      "outputId": 2,
      "inputModuleId": 16,
      "inputId": 0
    },
    {
      "outputModuleId": 20,
      "outputId": 2,
      "inputModuleId": 18,
      "inputId": 2
    },
    {
      "outputModuleId": 13,
      "outputId": 2,
      "inputModuleId": 18,
      "inputId": 3
    },
    {
      "outputModuleId": 18,
      "outputId": 1,
      "inputModuleId": 7,
      "inputId": 0
    },
    {
      "outputModuleId": 17,
      "outputId": 0,
      "inputModuleId": 19,
      "inputId": 0
    },
    {
      "outputModuleId": 18,
      "outputId": 1,
      "inputModuleId": 17,
      "inputId": 0
    },
    {
      "outputModuleId": 20,
      "outputId": 1,
      "inputModuleId": 7,
      "inputId": 1
    },
    {
      "outputModuleId": 9,
      "outputId": 2,
      "inputModuleId": 6,
      "inputId": 1
    }
  ]
}