{
  "version": "0.5.1",
  "modules": [
    {
      "plugin": "Fundamental",
      "model": "VCO",
      "pos": [
        135.0,
        0.0
      ],
      "params": [
        1.0,
        1.0,
        0.0,
        0.0,
        0.062999986112117767,
        0.0,
        1.0
      ]
    },
    {
      "plugin": "Fundamental",
      "model": "ADSR",
      "pos": [
        285.0,
        0.0
      ],
      "params": [
        0.45749995112419128,
        0.49100008606910706,
        0.49549993872642517,
        0.84849977493286133
      ]
    },
    {
      "plugin": "Fundamental",
      "model": "VCA",
      "pos": [
        405.0,
        0.0
      ],
      "params": [
        1.0,
        0.5
      ]
    },
    {
      "plugin": "Core",
      "model": "AudioInterface",
      "pos": [
        1530.0,
        0.0
      ],
      "params": [],
      "data": {
        "driver": 8,
        "device": 0,
        "sampleRate": 44100.0,
        "blockSize": 256
      }
    },
    {
      "plugin": "Fundamental",
      "model": "VCMixer",
      "pos": [
        1260.0,
        0.0
      ],
      "params": [
        1.0,
        0.27599996328353882,
        0.0,
        0.019500084221363068
      ]
    },
    {
      "plugin": "Fundamental",
      "model": "Scope",
      "pos": [
        1710.0,
        0.0
      ],
      "params": [
        4.0,
        0.0,
        0.0,
        0.0,
        -14.0,
        0.0,
        0.0,
        0.0
      ],
      "data": {
        "lissajous": 0,
        "external": 0
      }
    },
    {
      "plugin": "Fundamental",
      "model": "Unity",
      "pos": [
        1035.0,
        0.0
      ],
      "params": [
        0.0,
        0.0
      ],
      "data": {
        "merge": false
      }
    },
    {
      "plugin": "Core",
      "model": "MIDIToCVInterface",
      "pos": [
        0.0,
        0.0
      ],
      "params": [
        0.0
      ],
      "data": {}
    },
    {
      "plugin": "Fundamental",
      "model": "VCF",
      "pos": [
        345.0,
        380.0
      ],
      "params": [
        0.73300009965896606,
        0.5,
        0.0,
        0.25299978256225586,
        0.0
      ]
    },
    {
      "plugin": "Fundamental",
      "model": "LFO",
      "pos": [
        495.0,
        380.0
      ],
      "params": [
        1.0,
        1.0,
        1.3730002641677856,
        0.0,
        0.5,
        0.0,
        0.36300006508827209
      ]
    },
    {
      "plugin": "Fundamental",
      "model": "Delay",
      "pos": [
        900.0,
        0.0
      ],
      "params": [
        0.63650000095367432,
        0.58199995756149292,
        0.5,
        1.0
      ]
    },
    {
      "plugin": "Fundamental",
      "model": "Mutes",
      "pos": [
        1140.0,
        0.0
      ],
      "params": [
        0.0,
        0.0,
        0.0,
        0.0,
        0.0,
        0.0,
        0.0,
        0.0,
        0.0,
        0.0
      ],
      "data": {
        "states": [
          true,
          true,
          true,
          true,
          true,
          true,
          true,
          true,
          true,
          true
        ]
      }
    },
    {
      "plugin": "AudibleInstruments",
      "model": "Clouds",
      "pos": [
        1065.0,
        380.0
      ],
      "params": [
        0.50450104475021362,
        1.0,
        -1.5920000076293945,
        1.0,
        0.90699964761734009,
        1.0,
        1.0,
        1.0,
        0.0,
        0.0,
        0.0,
        0.0,
        0.0
      ],
      "data": {
        "playback": 0,
        "quality": 0,
        "blendMode": 1
      }
    },
    {
      "plugin": "Fundamental",
      "model": "Scope",
      "pos": [
        1695.0,
        380.0
      ],
      "params": [
        0.0,
        0.0,
        0.0,
        0.0,
        -14.0,
        0.0,
        0.0,
        0.0
      ],
      "data": {
        "lissajous": 0,
        "external": 0
      }
    },
    {
      "plugin": "Fundamental",
      "model": "LFO",
      "pos": [
        915.0,
        380.0
      ],
      "params": [
        1.0,
        1.0,
        -3.3730006217956543,
        0.0,
        0.5,
        0.0,
        0.0
      ]
    },
    {
      "plugin": "Core",
      "model": "AudioInterface",
      "pos": [
        1515.0,
        380.0
      ],
      "params": [],
      "data": {
        "driver": 8,
        "device": 8,
        "sampleRate": 44100.0,
        "blockSize": 256
      }
    },
    {
      "plugin": "Fundamental",
      "model": "SequentialSwitch2",
      "pos": [
        1410.0,
        0.0
      ],
      "params": [
        2.0
      ]
    },
    {
      "plugin": "Fundamental",
      "model": "SequentialSwitch2",
      "pos": [
        1455.0,
        0.0
      ],
      "params": [
        2.0
      ]
    },
    {
      "plugin": "Befaco",
      "model": "SlewLimiter",
      "pos": [
        555.0,
        0.0
      ],
      "params": [
        0.93699979782104492,
        0.33899912238121033,
        0.33299943804740906
      ]
    },
    {
      "plugin": "Fundamental",
      "model": "Scope",
      "pos": [
        675.0,
        0.0
      ],
      "params": [
        4.0,
        0.5700000524520874,
        4.0,
        0.56999993324279785,
        -6.0,
        0.0,
        -1.3800002336502075,
        0.0
      ],
      "data": {
        "lissajous": 0,
        "external": 1
      }
    },
    {
      "plugin": "Fundamental",
      "model": "Scope",
      "pos": [
        0.0,
        380.0
      ],
      "params": [
        0.0,
        0.0,
        0.0,
        0.0,
        -14.0,
        0.0,
        0.0,
        0.0
      ],
      "data": {
        "lissajous": 0,
        "external": 0
      }
    },
    {
      "plugin": "Core",
      "model": "MIDIToCVInterface",
      "pos": [
        660.0,
        380.0
      ],
      "params": [
        0.0
      ],
      "data": {
        "interfaceName": "loopMIDI Port 1",
        "channel": 1
      }
    },
    {
      "plugin": "Fundamental",
      "model": "SEQ3",
      "pos": [
        810.0,
        760.0
      ],
      "params": [
        2.0,
        0.0,
        0.0,
        2.0,
        0.0,
        0.0,
        0.0,
        0.0,
        10.0,
        0.0,
        0.0,
        0.0,
        0.0,
        0.0,
        0.0,
        0.0,
        0.0,
        0.0,
        0.0,
        0.0,
        0.0,
        0.0,
        0.0,
        0.0,
        0.0,
        0.0,
        0.0,
        0.0,
        0.0,
        0.0,
        0.0,
        0.0,
        0.0,
        0.0,
        0.0,
        0.0
      ],
      "data": {
        "running": true,
        "gates": [
          1,
          1,
          1,
          1,
          1,
          1,
          1,
          1
        ],
        "gateMode": 0
      }
    },
    {
      "plugin": "Befaco",
      "model": "SlewLimiter",
      "pos": [
        1350.0,
        380.0
      ],
      "params": [
        0.0,
        0.66400021314620972,
        0.66999989748001099
      ]
    },
    {
      "plugin": "Fundamental",
      "model": "Scope",
      "pos": [
        345.0,
        760.0
      ],
      "params": [
        0.0,
        0.0,
        0.0,
        0.0,
        -6.0,
        0.0,
        0.0,
        0.0
      ],
      "data": {
        "lissajous": 0,
        "external": 0
      }
    },
    {
      "plugin": "Befaco",
      "model": "SlewLimiter",
      "pos": [
        240.0,
        380.0
      ],
      "params": [
        0.0,
        0.73300004005432129,
        0.0
      ]
    }
  ],
  "wires": [
    {
      "outputModuleId": 1,
      "outputId": 0,
      "inputModuleId": 2,
      "inputId": 4
    },
    {
      "outputModuleId": 2,
      "outputId": 1,
      "inputModuleId": 2,
      "inputId": 2
    },
    {
      "outputModuleId": 6,
      "outputId": 0,
      "inputModuleId": 11,
      "inputId": 0
    },
    {
      "outputModuleId": 2,
      "outputId": 0,
      "inputModuleId": 10,
      "inputId": 4
    },
    {
      "outputModuleId": 4,
      "outputId": 0,
      "inputModuleId": 16,
      "inputId": 2
    },
    {
      "outputModuleId": 8,
      "outputId": 0,
      "inputModuleId": 2,
      "inputId": 5
    },
    {
      "outputModuleId": 9,
      "outputId": 3,
      "inputModuleId": 5,
      "inputId": 1
    },
    {
      "outputModuleId": 10,
      "outputId": 0,
      "inputModuleId": 6,
      "inputId": 2
    },
    {
      "outputModuleId": 0,
      "outputId": 2,
      "inputModuleId": 8,
      "inputId": 3
    },
    {
      "outputModuleId": 11,
      "outputId": 0,
      "inputModuleId": 4,
      "inputId": 1
    },
    {
      "outputModuleId": 12,
      "outputId": 1,
      "inputModuleId": 4,
      "inputId": 5
    },
    {
      "outputModuleId": 12,
      "outputId": 1,
      "inputModuleId": 13,
      "inputId": 1
    },
    {
      "outputModuleId": 7,
      "outputId": 0,
      "inputModuleId": 12,
      "inputId": 4
    },
    {
      "outputModuleId": 16,
      "outputId": 0,
      "inputModuleId": 3,
      "inputId": 0
    },
    {
      "outputModuleId": 17,
      "outputId": 0,
      "inputModuleId": 3,
      "inputId": 1
    },
    {
      "outputModuleId": 4,
      "outputId": 0,
      "inputModuleId": 17,
      "inputId": 2
    },
    {
      "outputModuleId": 7,
      "outputId": 0,
      "inputModuleId": 18,
      "inputId": 2
    },
    {
      "outputModuleId": 18,
      "outputId": 0,
      "inputModuleId": 0,
      "inputId": 0
    },
    {
      "outputModuleId": 18,
      "outputId": 0,
      "inputModuleId": 19,
      "inputId": 0
    },
    {
      "outputModuleId": 7,
      "outputId": 0,
      "inputModuleId": 19,
      "inputId": 1
    },
    {
      "outputModuleId": 7,
      "outputId": 2,
      "inputModuleId": 20,
      "inputId": 0
    },
    {
      "outputModuleId": 7,
      "outputId": 1,
      "inputModuleId": 9,
      "inputId": 2
    },
    {
      "outputModuleId": 21,
      "outputId": 1,
      "inputModuleId": 22,
      "inputId": 1
    },
    {
      "outputModuleId": 12,
      "outputId": 0,
      "inputModuleId": 13,
      "inputId": 0
    },
    {
      "outputModuleId": 3,
      "outputId": 0,
      "inputModuleId": 12,
      "inputId": 6
    },
    {
      "outputModuleId": 3,
      "outputId": 1,
      "inputModuleId": 12,
      "inputId": 7
    },
    {
      "outputModuleId": 12,
      "outputId": 0,
      "inputModuleId": 4,
      "inputId": 3
    },
    {
      "outputModuleId": 22,
      "outputId": 1,
      "inputModuleId": 23,
      "inputId": 2
    },
    {
      "outputModuleId": 23,
      "outputId": 0,
      "inputModuleId": 4,
      "inputId": 6
    },
    {
      "outputModuleId": 23,
      "outputId": 0,
      "inputModuleId": 4,
      "inputId": 4
    },
    {
      "outputModuleId": 23,
      "outputId": 0,
      "inputModuleId": 24,
      "inputId": 1
    },
    {
      "outputModuleId": 7,
      "outputId": 1,
      "inputModuleId": 1,
      "inputId": 4
    },
    {
      "outputModuleId": 7,
      "outputId": 1,
      "inputModuleId": 25,
      "inputId": 2
    },
    {
      "outputModuleId": 25,
      "outputId": 0,
      "inputModuleId": 8,
      "inputId": 0
    },
    {
      "outputModuleId": 25,
      "outputId": 0,
      "inputModuleId": 24,
      "inputId": 0
    }
  ]
}