{
  "version": "0.5.1",
  "modules": [
    {
      "plugin": "TechTechTechnologies",
      "model": "Prometheus",
      "pos": [
        795.0,
        0.0
      ],
      "params": [
        8.0
      ]
    },
    {
      "plugin": "Core",
      "model": "AudioInterface",
      "pos": [
        1725.0,
        0.0
      ],
      "params": [],
      "data": {
        "driver": 8,
        "device": 0,
        "sampleRate": 44100.0,
        "blockSize": 256
      }
    },
    {
      "plugin": "Fundamental",
      "model": "VCO",
      "pos": [
        375.0,
        0.0
      ],
      "params": [
        1.0,
        1.0,
        54.0,
        0.0,
        0.5,
        0.083999998867511749,
        0.0
      ]
    },
    {
      "plugin": "Fundamental",
      "model": "LFO",
      "pos": [
        900.0,
        380.0
      ],
      "params": [
        1.0,
        1.0,
        0.72199904918670654,
        0.0,
        0.0,
        0.0,
        0.0
      ]
    },
    {
      "plugin": "Fundamental",
      "model": "VCMixer",
      "pos": [
        1395.0,
        0.0
      ],
      "params": [
        0.36949983239173889,
        1.0,
        1.0,
        1.0
      ]
    },
    {
      "plugin": "Fundamental",
      "model": "Scope",
      "pos": [
        1545.0,
        380.0
      ],
      "params": [
        0.0,
        0.0,
        0.0,
        0.0,
        -14.0,
        0.0,
        0.0,
        0.0
      ],
      "data": {
        "lissajous": 0,
        "external": 0
      }
    },
    {
      "plugin": "Fundamental",
      "model": "Scope",
      "pos": [
        1350.0,
        380.0
      ],
      "params": [
        0.0,
        0.0,
        -0.0,
        0.0,
        -14.0,
        0.0,
        0.0,
        0.0
      ],
      "data": {
        "lissajous": 0,
        "external": 0
      }
    },
    {
      "plugin": "Fundamental",
      "model": "Scope",
      "pos": [
        60.0,
        760.0
      ],
      "params": [
        0.0,
        0.0,
        0.0,
        0.0,
        -14.0,
        0.0,
        0.0,
        0.0
      ],
      "data": {
        "lissajous": 0,
        "external": 0
      }
    },
    {
      "plugin": "Fundamental",
      "model": "Scope",
      "pos": [
        75.0,
        380.0
      ],
      "params": [
        0.0,
        0.0,
        0.0,
        0.0,
        -14.0,
        0.0,
        0.0,
        0.0
      ],
      "data": {
        "lissajous": 0,
        "external": 0
      }
    },
    {
      "plugin": "Fundamental",
      "model": "ADSR",
      "pos": [
        1065.0,
        0.0
      ],
      "params": [
        0.43849977850914001,
        0.5,
        0.5,
        1.0
      ]
    },
    {
      "plugin": "Fundamental",
      "model": "VCA",
      "pos": [
        1185.0,
        0.0
      ],
      "params": [
        0.5,
        0.5
      ]
    },
    {
      "plugin": "Fundamental",
      "model": "VCA",
      "pos": [
        1305.0,
        0.0
      ],
      "params": [
        0.5,
        0.5
      ]
    },
    {
      "plugin": "Fundamental",
      "model": "VCO",
      "pos": [
        75.0,
        0.0
      ],
      "params": [
        1.0,
        1.0,
        -54.0,
        0.0,
        0.5,
        0.27449983358383179,
        0.0
      ]
    },
    {
      "plugin": "Fundamental",
      "model": "VCMixer",
      "pos": [
        1545.0,
        0.0
      ],
      "params": [
        0.33949992060661316,
        1.0,
        1.0,
        0.0
      ]
    },
    {
      "plugin": "Fundamental",
      "model": "Scope",
      "pos": [
        270.0,
        380.0
      ],
      "params": [
        0.0,
        0.0,
        0.0,
        0.0,
        -14.0,
        0.0,
        0.0,
        0.0
      ],
      "data": {
        "lissajous": 0,
        "external": 0
      }
    },
    {
      "plugin": "TechTechTechnologies",
      "model": "DAC",
      "pos": [
        555.0,
        0.0
      ],
      "params": [
        12.0,
        1.0,
        0.0,
        0.0,
        0.0,
        1.0,
        1.0,
        0.0,
        0.0,
        0.0,
        1.0,
        0.0,
        0.0,
        1.0,
        0.0,
        0.0,
        0.0
      ]
    },
    {
      "plugin": "Fundamental",
      "model": "LFO",
      "pos": [
        1050.0,
        380.0
      ],
      "params": [
        1.0,
        1.0,
        1.1209993362426758,
        0.0,
        0.0,
        0.0,
        0.0
      ]
    },
    {
      "plugin": "Fundamental",
      "model": "LFO",
      "pos": [
        570.0,
        380.0
      ],
      "params": [
        1.0,
        1.0,
        -4.1499991416931152,
        0.0,
        0.35599994659423828,
        0.0,
        0.0
      ]
    }
  ],
  "wires": [
    {
      "outputModuleId": 4,
      "outputId": 0,
      "inputModuleId": 1,
      "inputId": 0
    },
    {
      "outputModuleId": 0,
      "outputId": 2,
      "inputModuleId": 10,
      "inputId": 2
    },
    {
      "outputModuleId": 0,
      "outputId": 6,
      "inputModuleId": 11,
      "inputId": 5
    },
    {
      "outputModuleId": 10,
      "outputId": 0,
      "inputModuleId": 4,
      "inputId": 1
    },
    {
      "outputModuleId": 10,
      "outputId": 1,
      "inputModuleId": 4,
      "inputId": 3
    },
    {
      "outputModuleId": 11,
      "outputId": 1,
      "inputModuleId": 4,
      "inputId": 5
    },
    {
      "outputModuleId": 12,
      "outputId": 0,
      "inputModuleId": 2,
      "inputId": 1
    },
    {
      "outputModuleId": 2,
      "outputId": 3,
      "inputModuleId": 0,
      "inputId": 3
    },
    {
      "outputModuleId": 2,
      "outputId": 3,
      "inputModuleId": 0,
      "inputId": 6
    },
    {
      "outputModuleId": 13,
      "outputId": 0,
      "inputModuleId": 1,
      "inputId": 1
    },
    {
      "outputModuleId": 15,
      "outputId": 0,
      "inputModuleId": 0,
      "inputId": 0
    },
    {
      "outputModuleId": 15,
      "outputId": 1,
      "inputModuleId": 0,
      "inputId": 1
    },
    {
      "outputModuleId": 3,
      "outputId": 3,
      "inputModuleId": 0,
      "inputId": 2
    },
    {
      "outputModuleId": 15,
      "outputId": 1,
      "inputModuleId": 0,
      "inputId": 4
    },
    {
      "outputModuleId": 0,
      "outputId": 4,
      "inputModuleId": 13,
      "inputId": 1
    },
    {
      "outputModuleId": 4,
      "outputId": 0,
      "inputModuleId": 6,
      "inputId": 0
    },
    {
      "outputModuleId": 13,
      "outputId": 0,
      "inputModuleId": 5,
      "inputId": 0
    },
    {
      "outputModuleId": 16,
      "outputId": 3,
      "inputModuleId": 0,
      "inputId": 5
    },
    {
      "outputModuleId": 17,
      "outputId": 3,
      "inputModuleId": 15,
      "inputId": 6
    }
  ]
}